<svg xmlns="http://www.w3.org/2000/svg" id="05ab1e" viewBox="0 0 400 141.085"><path d="M206.202 56.589v36.434h3.876c2.861 0 3.875-.824 3.875-3.147 0-3.113.05-3.111 4.552.218 11.164 8.254 27.469 4.407 33.821-7.979 13.018-25.388-9.17-52.799-32.582-40.252l-5.791 3.104V32.561c0-12.199-.064-12.406-3.875-12.406h-3.876zM46.372 39.682c-17.302 7.189-19.063 55.829-2.46 67.97 10.347 7.566 27.372 3.313 34.383-8.589 4.983-8.462 4.57-41.459-.634-50.544-5.929-10.349-18.86-14.001-31.289-8.837m238.128 2.16c-1.269 5.779-7.542 10.871-13.391 10.871-3.409 0-4.442.722-4.442 3.101 0 2.725 1.033 3.101 8.527 3.101h8.527v51.163h9.302V37.209h-3.753c-2.905 0-3.982 1.046-4.77 4.633m44.369-1.711c-15.708 8.37-17.456 38.152-2.851 48.552 12.561 8.944 38.323.243 38.323-12.943 0-3.335-9.408-1.244-10.793 2.398-5.256 13.824-27.967 8.412-27.967-6.665v-4.806h38.76v-5.098c0-18.184-19.482-29.958-35.472-21.438m-233.432.567c-.324 1.066-1.389 7.519-2.366 14.341s-2.163 14.67-2.635 17.442c-1.1 6.456 3.705 6.982 10.622 1.162 14.649-12.326 32.59 4.932 24.222 23.3-5.422 11.898-24.982 9.847-28.195-2.956-.618-2.461-2.358-3.972-5.208-4.519-5.521-1.06-5.563-.985-3.578 6.386 5.181 19.239 36.437 21.496 45.841 3.311 10.48-20.268-9.538-42.223-31.043-34.047-3.532 1.343-3.979 1.186-3.318-1.163.421-1.493 1.218-5.157 1.771-8.141 2.13-11.478 1.142-10.853 17.159-10.853 13.591 0 14.624-.219 14.624-3.101 0-3.804-36.749-4.932-37.896-1.162m64.407.471c-6.255 2.715-9.339 6.373-9.407 11.157-.073 5.125 7.245 4.892 9.217-.294 4.331-11.391 24.134-8.967 22.988 2.814-.438 4.503-1.018 4.939-8.223 6.198-20.945 3.658-27.132 7.496-27.132 16.835 0 13.661 15.961 20.87 30.169 13.626 6.017-3.068 6.019-3.068 8.229.087 3.209 4.582 11.792 3.603 12.504-1.427.433-3.059.005-3.471-2.713-2.608-3.148.999-3.228.563-3.228-17.612 0-10.634-.758-20.3-1.765-22.511-3.609-7.92-19.39-11.147-30.639-6.265M66.653 47.81c11.222 11.222 7.524 52.302-5.107 56.744-11.49 4.041-18.501-5.422-19.406-26.192C40.872 49.3 53.013 34.169 66.653 47.81m283.854.133c2.664 2.664 4.532 6.178 4.532 8.527v3.995H340.31c-16.072 0-17.18-.805-12.565-9.132 4.828-8.711 15.806-10.346 22.762-3.39m-112.083-.562c10.698 7.493 10.792 31.012.154 38.463-12.7 8.896-27.241-7.623-23.068-26.208 2.627-11.703 14.577-18.094 22.914-12.255m-55.478 26.767c0 11.181-15.571 18.808-23.076 11.303-6.349-6.348-2.993-13.284 7.234-14.951 3.17-.516 6.811-1.16 8.09-1.431 6.968-1.475 7.752-.961 7.752 5.079m-34.109 31.278v4.652h105.427v-9.303H148.837zm165.892 0v4.652h51.162v-9.303h-51.162"/></svg>
