<svg xmlns="http://www.w3.org/2000/svg" id="a" viewBox="0 0 400 400"><path stroke="currentColor" stroke-width="2" d="M20.244 56.83c-10.753 64.522-9.12 58.078-14.727 58.078H1.16V129.9h32.626v-14.89l-3.747-.271c-4.386-.317-4.387-.33-1.878-14.631l1.437-8.189 8.024.253 8.025.251 1.51 8.818c2.32 13.552 2.304 13.667-1.907 13.667h-3.528V129.9h31.744v-14.99h-4.392c-3.832 0-4.45-.253-4.848-1.985-.251-1.09-4.426-25.99-9.277-55.33-4.852-29.34-9.026-54.24-9.277-55.331C45.242.39 44.78.279 37.442.279h-7.774Zm77.03-49.105v7.447l4.189.269 4.187.268.23 49.6.227 49.6h-8.833v14.99h62.605v-24.69h-14.897l-.267 4.63-.266 4.629-11.25.247-11.25.246.228-49.626.227-49.626 4.19-.268 4.187-.269V.279H97.274Zm92.787-.153-7.255 7.293v101.148l6.832 6.942 6.831 6.944h25.615l7.266-7.306 7.268-7.305-.232-28.626-.233-28.628-12.125-.245-12.123-.246v14.944l4.187.268 4.189.27.237 20.968.236 20.968-11.26-.246-11.258-.247-.227-49.14-.228-49.14 1.99-.496c1.096-.274 6.16-.381 11.251-.24l9.259.257.25 9.48.25 9.479h15.812V15.053l-7.21-7.387-7.21-7.387h-24.857Zm76.272-.44-6.813 6.852v102.29l6.853 6.812 6.853 6.813H298.8l6.813-6.854 6.813-6.852V13.799l-7.014-6.76-7.014-6.76h-25.252ZM336.004.94c-.182.364-.436 3.714-.563 7.447l-.23 6.785 4.7.269 4.7.268.227 49.6.228 49.6h-9.714v14.99h63.488v-24.69h-14.9l-.266 4.63-.267 4.629-11.14.246-11.14.246-.558-2.224c-.95-3.784-.56-94 .415-95.82.659-1.23 1.877-1.647 4.819-1.647h3.937V.279h-16.7c-9.186 0-16.852.298-17.036.661m-39.009 64.15v49.378H274.95l-.229-48.498c-.125-26.673-.034-49.006.204-49.626.326-.853 3.086-1.069 11.25-.882l10.82.247Zm-255.93-.455c1.887 12.113 1.824 12.358-3.174 12.358-5.702 0-5.981-.78-4.08-11.37 2.885-16.065 4.863-16.334 7.254-.988m72.288 151.03-10.788 10.813v151.665l10.814 10.79 10.815 10.788h37.917l10.788-10.815 10.788-10.814v-67.08l-10.8-10.64-10.803-10.642-15.144.359c-8.33.197-16.166.103-17.414-.21l-2.271-.57v-59.77h31.743v14.109h24.689v-17.221l-10.814-10.79-10.814-10.788h-37.918Zm113.749 0-10.789 10.813v66.236l4.4 4.71 4.398 4.712-4.399 4.65-4.399 4.652v66.705l10.814 10.79 10.815 10.788h37.917l10.789-10.815 10.787-10.814v-66.654l-4.511-4.771-4.513-4.772 4.513-4.608 4.511-4.608v-66.252l-10.814-10.79-10.814-10.788H237.89Zm45.436 44.074-.233 30.202h-30.862l-.231-30.202-.233-30.2h31.79Zm-113.749 85.092.232 30.2h-31.766v-29.834c0-16.407.273-30.106.607-30.44.334-.335 7.377-.5 15.652-.368l15.043.24Zm113.749 0 .231 30.2h-31.766v-29.834c0-16.407.274-30.106.607-30.44.335-.335 7.378-.5 15.652-.368l15.043.24"/></svg>
