<svg xmlns="http://www.w3.org/2000/svg" id="a" viewBox="0 0 400 400"><path d="M105.071.499c-1.838.859-2.663 2.295-2.332 4.059.352 1.878 14.315 20.506 49.407 65.918 15.359 19.876 13.952 18.125 14.084 17.531.308-1.386 5.011-44.955 6.348-58.801 2.413-24.99 2.303-26.351-2.313-28.507l-1.27-.593-31.429-.053L106.138 0zm187.416 52.21c-4.991.361-13.529 1.501-16.191 2.161l-1.058.262-.053 48.413-.054 48.413h60.742c33.407 0 60.74-.024 60.74-.053-.013-.927-1.799-10.006-2.655-13.492-14.269-58.17-51.177-89.343-101.471-85.704m-41.482 9.281c-22.955 7.867-48.007 21.366-75.949 40.926l-4.098 2.868-2.251-1.397c-8.311-5.154-23.977-13.805-25.002-13.805-.142 0-.213 10.226-.213 30.688v30.688h114.497V105.82c0-25.376-.071-46.132-.158-46.126s-3.159 1.04-6.826 2.296M74.921 74.097c-32.127 2.812-55.555 24.387-67.192 61.881-.719 2.314-3.919 15.312-3.919 15.915 0 .035 27.523.065 61.164.065h61.164v-34.579c0-32.749-.02-34.584-.371-34.689-.204-.06-2.894-.971-5.979-2.023-15.875-5.415-31.661-7.726-44.867-6.57M.97 170.635c-3.407 32.76 1.242 72.228 12.727 108.042l2.256 7.037h110.185V169.312H1.108zm142.522 56.878v58.201h114.497V169.312H143.492zm131.64 0v58.201h54.709c30.09 0 54.709-.048 54.709-.107s.852-2.749 1.893-5.979c7.221-22.397 11.274-44.06 13.176-70.422.498-6.903.371-28.351-.204-34.345-.26-2.711-.473-5.068-.473-5.238 0-.272-7.646-.311-61.905-.311h-61.905zM89.543 216.296c6.747 15.54 12.753 29.445 13.345 30.9 3.667 9.003 6.217 11.34 12.844 11.774l2.152.141v9.884H73.016v-10.159h3.877c8.397 0 9.075-1.569 4.799-11.111a202 202 0 0 1-1.558-3.545l-.324-.794H49.726l-.191.476c-.105.262-.634 1.572-1.177 2.91-4.318 10.662-3.876 12.178 3.547 12.159l3.968-.01v10.074H19.894v-10.103l2.699-.11c5.682-.233 7.626-1.725 10.427-8.005.593-1.33 1.691-3.655 2.44-5.169s6.278-15.037 12.287-30.052c6.009-15.016 10.968-27.374 11.021-27.463.053-.088 4.238-.136 9.301-.106l9.206.055zm130.14-27.968c14.65 2.398 21.201 8.243 22.45 20.032 1.31 12.357-4.514 20.775-16.525 23.883-4.816 1.246-5.59 1.299-19.259 1.327l-12.592.025v21.961l.529 1.057c.579 1.16 1.487 1.88 2.836 2.251.89.245 9.279.285 10.221.049l.488-.123v10.205h-46.984v-9.963l4.497.026c5.755.033 6.832-.314 7.856-2.527l.451-.975v-26.561c0-29.379.071-27.852-1.369-29.224-1.18-1.123-2.537-1.416-7.361-1.59l-4.074-.147v-10.113l28.624.073c21.317.055 29.029.14 30.212.334m120.423 4.667v5.059l-4.603.093c-5.43.111-6.416.328-7.802 1.718-1.409 1.413-1.352.11-1.352 30.939v27.82h9.744c14.498 0 17.3-.551 20.581-4.046 2.563-2.73 4.806-11.576 4.807-18.957.001-2.15-.636-1.927 5.998-2.101l5.643-.147v35.622h-79.577v-9.966l4.392.04c5.868.053 7.317-.471 8.047-2.908.363-1.212.378-53.633.015-54.701-.886-2.612-3.137-3.325-10.602-3.357l-1.852-.008v-10.158h46.561zm-146.312 5.451c-.079.079-.143 5.642-.143 12.363v12.22l5.873.082c16.508.23 21.684-2.632 21.706-12 .021-9.253-4.544-12.154-19.643-12.482-3.143-.068-6.149-.169-6.682-.225-.532-.056-1.032-.037-1.111.042M58.952 219.017a4621 4621 0 0 1-5.135 13.311l-.278.688h21.752l-5.647-13.222c-3.106-7.273-5.69-13.263-5.741-13.311s-2.279 5.591-4.951 12.534m-36.095 84.192c0 .907 7.225 15.896 10.633 22.059 23.499 42.5 56.633 69.206 91.536 73.78l1.112.145v-96.124H74.497c-28.402 0-51.64.063-51.64.14m120.635 48.252v48.392l3.016-.131c8.537-.371 17.344-2.345 31.376-7.034 20.308-6.787 21.141-6.776 43.915.532 12.491 4.009 22.601 5.985 33.214 6.491l2.976.143v-96.785H143.492zm131.781-48.251c-.077.077-.141 21.561-.141 47.742v47.6l.582-.121c.32-.067 2.868-.555 5.662-1.085 37.205-7.062 71.613-39.261 93.421-87.422 1.639-3.621 2.981-6.644 2.981-6.719 0-.181-102.323-.176-102.505.005"/></svg>
