<svg xmlns="http://www.w3.org/2000/svg" id="a" viewBox="0 0 138 138"><path d="M68 44h2l.89 1.75q4.597 9.03 9.2 18.056l3.43 6.736q2.466 4.845 4.937 9.688l1.544 3.038 1.455 2.85 1.272 2.496a91 91 0 0 0 2.931 5.066C97 96 97 96 97 98l-3.067.044c-3.83.06-7.66.136-11.49.218q-2.465.05-4.93.084C65.19 98.523 53.962 99.952 42 103c2.626-8.96 6.725-17.169 10.75-25.562q2.09-4.375 4.172-8.754l1.027-2.161C61.465 59.087 64.752 51.555 68 44m-1.918 74.707 3.576.013c3.719.016 7.436.054 11.154.092q3.814.024 7.627.041 9.28.05 18.561.147c1.34 2.789 2.67 5.581 4 8.375l1.156 2.406 1.094 2.305 1.016 2.126C115 136 115 136 115 138H23c4.449-8.898 8.117-12.443 17-16 8.75-2.588 16.994-3.42 26.082-3.293M0 0h138v136c-2.321-2.321-3.22-4.383-4.582-7.371l-1.555-3.387-.825-1.813c-1.457-3.199-2.93-6.39-4.401-9.581l-.917-1.99c-2.998-6.49-6.1-12.927-9.22-19.358a1644 1644 0 0 1-13-27.5 1729 1729 0 0 0-14.818-31.29c-2.584-5.317-5.122-10.643-7.545-16.034L79.782 14.7a349 349 0 0 1-2.449-5.521c-1.87-4.463-1.87-4.463-5.563-7.23L69 2l-1.989-.048c-2.277-.051-4.546-.04-6.823-.014l-2.39.013Q54.9 1.971 52 2l1.348 2.852 1.715 3.773.892 1.871C57.936 14.925 58.193 17.351 57 22c-1.428 3.43-3.078 6.738-4.742 10.059l-1.464 2.97a2881 2881 0 0 1-4.669 9.408q-3.03 6.122-6.055 12.247l-1.531 3.094c-3.913 7.915-7.74 15.87-11.537 23.842a2133 2133 0 0 1-10.358 21.431q-2.45 5.013-4.904 10.022l-3.677 7.52-1.108 2.258A251 251 0 0 0 1 138H0"/></svg>
