<svg xmlns="http://www.w3.org/2000/svg" id="a" viewBox="0 0 110.18 94.005">
	<path d="M96.559 50.431c2.343-14.595-2.62-30.994-14.855-42.569C85.534 6.098 89.536 4.645 93.432 3c12.393 12.924 17.334 33.939 10.956 52.191-7.142 22.738-30.565 37.459-53.157 35.667 33.898-2.641 42.638-29.018 45.327-40.427z"/>
	<path d="M88.211 44.568c.223-12.092-8.816-26.424-16.632-32.221 3.16-1.272 6.374-2.597 9.534-3.87 12.923 11.93 17.773 29.53 13.427 45.75-5.592 20.872-22.9 35.734-44.338 35.775 29.576-5.642 37.671-27.12 38.01-45.434z"/>
	<path d="m79.673 54.342c1.658-16.218-6.75-30.035-18.294-37.453 0.932-0.384 8.413-3.526 9.388-3.916 14.203 11.724 17.98 27.135 15.696 41.762-2.93 18.766-20.572 34.05-38.999 34.736 22.266-4.558 30.933-22.137 32.21-35.129zm-47.343-48.465c14.044-4.516 28.85 0.08 37.602 6.393-3.16 1.408-6.383 2.668-9.591 3.96-9.202-5.05-18.173-6.552-27.398-4.828-12.826 2.398-23.976 10.498-29.943 25.161 3.347-15.182 15.86-26.355 29.33-30.686z"/>
	<path d="m38.691 16.424-3.299.009.029 10.801 1.461-.004-.012-4.565 1.592-.004c.578-.002 1.035.115 1.368.35.338.236.686.715 1.045 1.437l1.39 2.768 1.57-.004-1.492-2.948c-.3-.607-.6-1.084-.9-1.43-.295-.347-.6-.573-.914-.678.602-.175 1.06-.487 1.373-.937.317-.45.474-1.014.472-1.694-.002-1.042-.308-1.82-.917-2.334-.61-.515-1.531-.77-2.766-.767zm10.881 1.051c-.998-.013-1.891.242-2.678.765-1.144.757-1.915 1.98-2.313 3.67-.396 1.686-.252 3.125.434 4.317.687 1.187 1.826 1.968 3.418 2.342.62.146 1.227.199 1.82.16a5.948 5.948 0 0 0 1.764-.387l.35-1.487a5.156 5.156 0 0 1-1.771.64 4.639 4.639 0 0 1-1.803-.075c-1.202-.283-2.036-.865-2.502-1.748-.466-.887-.535-2.023-.21-3.409.327-1.39.896-2.375 1.707-2.958.812-.586 1.818-.739 3.02-.456.61.143 1.16.389 1.648.737.493.348.926.802 1.3 1.36l.353-1.5a5.696 5.696 0 0 0-1.395-1.115A6.216 6.216 0 0 0 51 17.66a6.625 6.625 0 0 0-1.427-.186zm-10.878.15c.704-.002 1.235.158 1.593.48.362.318.545.792.546 1.424.002.632-.178 1.113-.539 1.441-.356.325-.885.487-1.59.49l-1.837.004-.01-3.834zm-11.848.421-1.577.508-.617 11.545 1.467-.472.088-2.94 4.635-1.491 1.785 2.336 1.446-.465zm-.35 1.625 3.54 4.508-3.781 1.217zm31.52.163-4.765 9.693 1.311.645 2.27-4.616 4.765 2.343-2.27 4.616 1.312.645 4.766-9.694-1.312-.644-1.954 3.973-4.765-2.343 1.954-3.973zm-43.105 3.347-1.456.79 1.525 11.46 1.355-.734-.456-2.905 4.28-2.321 2.185 1.966 1.336-.724zm-.045 1.662 4.312 3.776-3.491 1.894zm11.108 14.201c-10.499 7-15.804 16.03-15.804 26.134 0 8.297 4.854 13.66 12.023 13.66 7.112 0 12.192-4.967 12.192-11.797 0-6.547-4.572-11.458-10.95-11.458-1.806 0-3.951.621-6.378 1.807 1.693-5.814 5.757-10.33 11.91-14.563zm30.367 0-19.417 23.99v2.314h16.482v12.869h5.306v-12.87h4.29v-4.572h-4.29v-21.73zm-2.766 10.104-.169 11.627h-9.087zM22.53 60.775c3.613 0 6.266 2.653 6.266 6.548 0 3.838-2.484 6.378-6.152 6.378-4.064 0-6.83-3.16-6.83-8.015 0-.734.112-1.524.282-2.371 1.806-1.693 3.894-2.54 6.434-2.54z"/>
</svg>
