<svg id="basic" viewBox="0 0 152 118" xmlns="http://www.w3.org/2000/svg"><path d="M12.807 2.864C7.41 5.62 6.773 6.361 6.773 9.328c-.105 1.907-.952 7.417-2.01 12.398-1.377 6.57-1.589 9.642-.848 11.444 1.27 2.755 4.764 3.92 8.68 2.967 2.117-.53 2.646-1.378 2.646-4.239 0-2.755.847-4.132 4.13-6.78 4.55-3.604 4.762-3.498 7.937 2.754 2.33 4.556 1.588 7.735-3.81 16.636-4.234 7.205-4.658 9.854-2.435 15.577.424 1.165.212 2.013-.635 2.33-.847.213-5.08 1.484-9.42 2.862-9.315 2.755-9.315 2.755-10.586 7.205-.846 3.073-.635 3.815 2.647 7.206 1.905 2.12 4.657 5.828 6.033 8.37 1.482 2.862 3.6 5.087 5.504 5.935 1.8.741 4.764 2.755 6.775 4.45 3.493 3.073 3.705 3.073 5.08 1.166 1.588-2.12 1.06-5.828-1.058-7.1-.635-.424-2.223-.847-3.599-.847-1.27 0-2.646-.636-2.964-1.484-.317-.848-1.905-2.013-3.598-2.649-1.694-.53-4.34-2.967-5.928-5.404-2.752-4.133-2.858-4.662-1.376-7.206 1.482-2.755 1.905-2.86 14.184-3.39 7.621-.318 13.655-1.166 15.137-1.908 1.376-.847 2.752-1.27 2.964-.953.53.53-3.176 10.49-5.928 15.683-1.164 2.12-2.858 7.417-3.81 11.656-2.33 10.28-4.87 15.153-8.786 16.742-5.61 2.33-4.763 5.404 1.482 5.404 1.376 0 3.916-1.166 5.61-2.65 2.434-2.013 3.175-3.708 3.6-7.735.316-2.755 2.01-8.053 3.81-11.656 1.905-3.708 3.387-7.205 3.387-8.053 0-.742 2.646-4.768 5.927-8.9l5.822-7.63h7.198c3.916 0 9.315-.742 12.067-1.696 4.128-1.377 5.292-1.483 7.833-.21 1.587.74 3.387 2.33 4.022 3.495.53 1.166 2.435 3.92 4.022 6.04 2.54 3.285 2.964 4.557 2.33 7.418-1.27 5.934-10.798 17.484-18.736 22.676-8.362 5.404-9.315 7.84-2.964 7.84 3.6 0 4.446-.423 5.504-2.754.741-1.484 2.54-3.39 4.13-4.239 1.586-.74 5.08-4.662 7.62-8.583 2.646-4.026 6.986-9.324 9.632-11.974 2.964-2.86 4.87-5.616 4.87-7.1s.634-2.436 1.587-2.436c1.905 0 5.08 5.934 4.022 7.735-2.858 4.662-13.972 17.272-16.513 18.65-5.186 2.86-8.362 5.616-7.41 6.464.424.53 2.753 1.06 5.082 1.271 3.704.318 4.234 0 4.551-2.12.212-1.589 1.588-2.966 3.6-3.92 1.8-.74 4.021-2.755 4.974-4.556.953-1.802 4.975-6.57 8.891-10.702 7.94-8.37 7.94-8.053 1.694-16.106-1.694-2.12-3.07-4.556-3.07-5.298 0-.848 3.388-4.557 7.516-8.37 7.092-6.465 7.621-7.207 8.044-12.187.424-3.92-.21-7.206-2.222-12.716-1.482-4.027-2.54-7.524-2.33-7.63.848-.953 9.316-.424 12.068.636 3.705 1.59 5.292 4.556 6.14 12.186.634 5.192.317 6.57-3.917 15.577-5.822 12.61-6.775 21.405-3.07 29.034 1.27 2.65 2.646 4.768 3.07 4.768.423 0 .53-3.179.317-7.205-.423-6.994-.317-7.206 4.764-15.047 2.858-4.345 7.515-12.186 10.267-17.378l5.1-9.69-1.376-9.96c-.847-6.147-2.117-10.915-3.176-12.399-1.058-1.27-4.552-3.179-7.939-4.238l-5.927-1.908-6.034 4.24c-8.68 6.145-12.49 7.204-19.265 5.191-7.41-2.225-11.008-2.12-18.524.424-7.304 2.543-16.724 3.71-21.699 2.755-4.234-.848-9.632-4.874-7.515-5.616 1.693-.636-8.257-12.186-13.972-16.424C41.618 1.864 37.383.7 26.905.17c-7.198-.424-8.574-.212-14.078 2.543" fill="currentColor"/></svg>
