<svg xmlns="http://www.w3.org/2000/svg" id="a" viewBox="0 0 32 32"><g stroke="currentColor"><path d="M27.807 30H4.193A2.2 2.2 0 0 1 2 27.807V4.193A2.2 2.2 0 0 1 4.193 2h23.614A2.2 2.2 0 0 1 30 4.193v23.614A2.2 2.2 0 0 1 27.807 30M4.193 3.012a1.183 1.183 0 0 0-1.181 1.181v23.614a1.183 1.183 0 0 0 1.181 1.181h23.614a1.183 1.183 0 0 0 1.181-1.181V4.193a1.183 1.183 0 0 0-1.181-1.181Z"/><path stroke-width=".2" d="m14.36 8.429-2.588 5.986h-1.277L7.911 8.429h1.923l1.3 3.476 1.303-3.476z"/><path stroke-width=".3" d="M20.876 4.997c1.835 0 2.988.906 2.988 2.376 0 1.412-1.538 2.258-1.745 2.407-1.02.734-.975.734-.975 2.14h-1.673c0-1.367-.133-2.125.813-2.882.74-.593 1.603-.802 1.603-1.516 0-.311-.355-.565-1.02-.565a3.979 3.996 0 0 0-1.88.612l-1.035-1.412a4.091 4.109 0 0 1 2.924-1.16zm-1.449 7.561h1.775v1.813h-1.775z"/><path d="M13.571 21.636v.505L8.7 25.128v-1.055l3.581-2.184-3.58-2.184V18.65z"/><path stroke-width=".3" d="M21.656 25.886v1.04H20.4v-1.011a4.196 4.214 0 0 1-2.604-1.248l1.037-1.173a3.344 3.359 0 0 0 2.025.697c.712 0 1.126-.266 1.126-.727 0-.535-1.096-.907-1.836-1.223-1.419-.639-2.233-1.248-2.16-2.541a2.497 2.507 0 0 1 2.367-2.229v-1.023l1.258-.135v1.174a5.427 5.45 0 0 1 2.145.89l-.852 1.264a3.464 3.479 0 0 0-1.762-.489c-.665-.015-1.138.252-1.138.653 0 .505.62.655 1.33.952 1.643.698 2.694 1.351 2.694 2.674a2.605 2.616 0 0 1-2.373 2.455"/></g></svg>
