<svg xmlns="http://www.w3.org/2000/svg" id="berry" viewBox="0 0 109.08 125.75"><path fill="currentColor" d="M97.753 60.385A50.04 50.04 0 0 0 82.49 37.61a70 70 0 0 0 25.09-22.279l-.029-.021A10 10 0 0 0 109.08 10c0-5.521-4.48-10-10-10-3.9 0-7.45 2.239-9.1 5.489C80.969 17.65 66.82 25.59 49.82 25.75c-5.382 0-10.593.903-15.497 2.547 23.819 5.521 45.46 16.72 63.43 32.088m-65.174-8.924A29.86 29.86 0 0 1 50.18 45.75c16.57 0 30 13.43 30 30 0 8.086-3.203 15.418-8.403 20.813 3.077 6.018 5.865 12.437 8.34 19.19 12.172-9.122 20.063-23.646 20.063-40.003 0-5.364-.861-10.523-2.427-15.365-17.97-15.368-39.61-26.567-63.43-32.088A50.44 50.44 0 0 0 14.78 40.4a51 51 0 0 0-2.693 2.92c7.114 1.458 13.975 4.227 20.492 8.141m0 0c-6.517-3.915-13.378-6.683-20.492-8.141C4.592 52.054 0 63.375 0 75.75c0 27.61 22.48 50 50.09 50a49.9 49.9 0 0 0 30.026-9.997c-2.475-6.754-5.263-13.173-8.34-19.19-5.456 5.661-13.112 9.188-21.597 9.188-16.57 0-30-13.43-30-30 0-9.993 4.889-18.838 12.4-24.29"/></svg>
