<svg xmlns="http://www.w3.org/2000/svg" id="a" viewBox="0 0 400 400"><path d="M22.781 197.32v168.844h28.81V72.196l21.273 21.271c11.7 11.699 21.273 21.391 21.273 21.536s-1.181 1.805-2.624 3.687c-25.887 33.747-34.007 81.431-20.836 122.349 22.492 69.872 94.635 109.075 165.504 89.937 4.365-1.179 15.503-5.005 16.005-5.497.051-.05-.229-.828-.622-1.73a532 532 0 0 1-2.719-6.496c-6.826-16.55-7.583-18.261-8.04-18.195-.24.035-3.075.967-6.299 2.073-38.484 13.189-80.64 3.465-109.406-25.238-42.174-42.08-42.451-109.303-.623-151.083a721 721 0 0 0 6.184-6.314l4.152-4.286-42.867-42.867L49.08 28.476H22.781zm325.963-16.165v146.984l-21.422-21.42-21.422-21.42.65-.857c11.941-15.744 19.096-29.78 24.088-47.256 8.2-28.709 6.394-61.245-4.918-88.61-28.042-67.831-104.646-101.293-173.124-75.622-5.012 1.879-4.766 1.583-3.582 4.311a497 497 0 0 1 2.923 6.99l3.231 7.872a585 585 0 0 0 1.946 4.69c.352.83.941 2.225 1.309 3.101l.67 1.594 1.777-.712c36.496-14.625 78.822-7.495 108.812 18.327 44.569 38.377 49.786 105.572 11.673 150.33-.968 1.137-4.895 5.238-8.727 9.112-3.831 3.875-6.966 7.192-6.966 7.371s19.259 19.584 42.797 43.122l42.798 42.797h26.297V34.171h-28.81zm-220.101 19.013v71.524h143.049v-54.779l-8.375-8.37-8.376-8.371 8.376-8.38 8.375-8.38v-54.769H128.643zm114.238-35.765v6.948l-7.116 7.122-7.116 7.122h-71.195v-28.141h85.427zm-7.289 57.286 7.289 7.284v13.908h-85.427v-28.476h70.849"/></svg>
