<svg xmlns="http://www.w3.org/2000/svg" id="bytes" viewBox="0 0 64 64"><path fill="currentColor" d="M36.929 34.225q-1.032-.472-2.899-.492h-7.143v7.736h7.045q1.888 0 2.938-.512 1.907-.946 1.907-3.623 0-2.263-1.848-3.109m.079-6.014q1.178-.718 1.179-2.55 0-2.028-1.558-2.677-1.344-.454-3.43-.453h-6.313v6.397h7.053q1.89 0 3.069-.717M32 2C15.432 2 2 15.432 2 32s13.432 30 30 30 30-13.432 30-30S48.568 2 32 2m11.607 40.374a8 8 0 0 1-2.055 2.283q-1.39 1.063-3.279 1.457-1.888.394-4.1.394H21.1V17.492h14.023q5.306.078 7.52 3.09 1.332 1.85 1.332 4.43 0 2.657-1.344 4.271-.751.905-2.214 1.653 2.222.808 3.353 2.56 1.13 1.752 1.13 4.252 0 2.579-1.293 4.626"/></svg>
