<svg xmlns="http://www.w3.org/2000/svg" id="a" viewBox="0 0 353 217"><path d="m186.654 179.068-32.844-30.912a47.6 47.6 0 0 1-16.836 14.352q-10.492 5.524-24.564 5.52a55.7 55.7 0 0 1-22.356-4.416 51.5 51.5 0 0 1-17.526-12.282 56.5 56.5 0 0 1-11.454-18.906 68.7 68.7 0 0 1-4.14-24.288 66.8 66.8 0 0 1 4.14-23.874 57.3 57.3 0 0 1 11.592-18.906A53.4 53.4 0 0 1 90.468 52.8a55.9 55.9 0 0 1 22.77-4.554 57.7 57.7 0 0 1 22.08 4.416 39.64 39.64 0 0 1 17.388 13.524l32.016-32.016q-12.42-14.076-32.43-21.39a120.7 120.7 0 0 0-82.386-.138A99.7 99.7 0 0 0 36.234 33.2 94.5 94.5 0 0 0 13.74 65.632Q5.6 84.676 5.6 108.136a107.2 107.2 0 0 0 8 41.952 96.54 96.54 0 0 0 55.338 53.82 114.5 114.5 0 0 0 41.814 7.452q24.84 0 43.884-8.694a93 93 0 0 0 32.016-23.6ZM344.8 133.774a45.5 45.5 0 0 0-7.728-13.231 49.1 49.1 0 0 0-11.868-10.2 50.3 50.3 0 0 0-15.18-6.2v-.828a45.07 45.07 0 0 0 23.6-15.063q9.243-11.191 9.246-27.505 0-14.1-5.934-24.46a54 54 0 0 0-15.594-17.276A67.8 67.8 0 0 0 299.4 8.78a96.6 96.6 0 0 0-25.254-3.316 89.6 89.6 0 0 0-23.736 3.174 78.4 78.4 0 0 0-21.39 9.384 66.2 66.2 0 0 0-16.974 15.456 63.7 63.7 0 0 0-10.764 21.666l43.056 9.936a27.4 27.4 0 0 1 9.522-15.87 26.55 26.55 0 0 1 17.25-5.934 27.9 27.9 0 0 1 17.112 5.554q7.452 5.557 7.452 16.107 0 7.219-2.9 11.665a21.2 21.2 0 0 1-7.728 7.081 33.7 33.7 0 0 1-10.9 3.61 80.4 80.4 0 0 1-12.7.97h-13.52v33.672h12.42a84 84 0 0 1 14.352 1.242 44.8 44.8 0 0 1 12.834 4.14 24.5 24.5 0 0 1 9.108 7.866 21.3 21.3 0 0 1 3.45 12.42 23.5 23.5 0 0 1-2.622 11.592 23.2 23.2 0 0 1-6.624 7.59 27.7 27.7 0 0 1-9.108 4.278 38.4 38.4 0 0 1-10.074 1.38q-13.248 0-21.8-7.314a34.65 34.65 0 0 1-11.316-16.974l-43.056 11.316a65.17 65.17 0 0 0 29.67 39.606 81.4 81.4 0 0 0 22.908 9.246 109.5 109.5 0 0 0 25.806 3.036 97 97 0 0 0 26.634-3.722 74.8 74.8 0 0 0 23.6-11.3 58.3 58.3 0 0 0 16.974-19.294q6.481-11.707 6.486-27.7a43.8 43.8 0 0 0-2.768-15.569"/></svg>
