<svg xmlns="http://www.w3.org/2000/svg" id="chars" viewBox="0 0 64 64"><path fill="currentColor" d="M32 2C15.432 2 2 15.432 2 32s13.432 30 30 30 30-13.432 30-30S48.568 2 32 2m-4.592 37.521q1.973 2.431 5.018 2.431 3.118 0 4.756-2.086.906-1.122 1.502-3.366h6.023q-.78 4.744-3.982 7.717-3.204 2.972-8.209 2.972-6.194 0-9.736-4.016-3.545-4.035-3.545-11.063 0-7.6 4.031-11.713 3.507-3.583 8.92-3.583 7.245 0 10.594 4.804 1.851 2.697 1.986 5.413h-6.063q-.58-2.087-1.484-3.149-1.62-1.89-4.803-1.891-3.24 0-5.111 2.668-1.869 2.667-1.869 7.549 0 4.88 1.972 7.313"/></svg>
