<svg xmlns="http://www.w3.org/2000/svg" id="a" viewBox="0 0 64 64"><path d="M51.49 36.145c1.924 0 3.849 2.407 3.367 4.332-.48 1.924-1.923 3.367-3.848 3.367s-3.368-1.443-3.368-3.367.961-4.33 3.848-4.33m-25.984 1.442c2.887-.48 5.774 1.445 5.293 3.85-.481 2.407-2.406 3.85-4.33 3.85s-3.85-.963-4.331-2.888.48-4.33 3.368-4.812"/><path fill-rule="evenodd" d="M11.55 9.198c-2.31 1.925-2.889 9.624-2.889 11.55-1.923 1.924-2.886 4.811-3.848 9.624-1.751 8.756 5.88 14.383 13.398 19.925l1.039.766c1.619 1.199 3.838 2.57 6.255 3.85-.521-.388-1.443-2.407 0-4.812 0 2.62 1.114 5.181 3.185 6.405l.665.332c4.812 2.405 9.356 3.373 11.549.962 3.827 1.858 6.736-1.444 7.698-2.888a9 9 0 0 1 .236-.334c1.277-1.958 1.84-4.985 1.689-5.44.464 1.16.509 2.486.135 3.617.26-.218.533-.45.829-.73 6.975-6.625 8.66-13.437 8.66-19.248 0-6.14-.399-6.684-3.386-10.74v-.002q-.435-.588-.945-1.288c.481-2.405.481-4.33.481-8.18s-.962-9.624-4.33-9.624c-1.907 0-4.537 1.914-6.23 3.145-.384.281-.72.526-.987.705-1.766-.482-6.642-1.445-12.032-1.445-5.388 0-10.906 2.246-12.992 3.368-1.764-.641-5.87-1.443-8.18.482m42.345 8.662c-1.443.482-5.774-2.887-6.254-5.293s2.405-6.256 4.81-6.256c2.407 0 2.89 11.068 1.445 11.549m-33.202 2.889c1.444-2.89-3.85-9.146-7.218-7.22s-2.888 11.55-1.925 12.03c.963.482 7.7-1.924 9.143-4.812m20.211 35.61c1.925-.483 3.464-1.057 3.85-3.37.385-2.313-1.445-2.887-4.332-2.407-2.887.482-5.293 1.925-4.33 3.85s2.887 2.407 4.812 1.925M19.731 47.21c-5.884-.585-6.11-12.047-1.443-14.437s6.978-1.443 10.586.963c2.035 1.357 3.304 3.938 4.37 6.102.826 1.675 1.529 3.103 2.367 3.524 1.925.96-.48-10.107-4.33-16.844-3.85-6.735-3.85-12.992 2.887-14.436 6.736-1.443 11.067 5.294 11.55 10.587.213 2.356-.623 6.142-1.444 9.873-1.026 4.65-2.03 9.216-.964 10.818.902 1.353 1.909-1.2 3.169-4.395 1.431-3.627 3.19-8.085 5.492-8.597 4.332-.962 5.776 3.368 5.776 7.7s-4.332 12.03-9.144 9.142c-3.036-1.822-4.54-.961-6.083-.078-.901.516-1.816 1.04-3.06 1.04-1.322 0-2.051-.89-2.77-1.768-1.11-1.357-2.196-2.682-5.41-.637-4.157 2.645-6.185 2.297-9.002 1.812-.77-.132-1.598-.274-2.547-.369"/><path d="M27.91 58.282C17.325 53.47 12.03 48.658 8.182 44.808c-2.732-2.73-3.524-4.331-4.1-5.49-.234-.474-.434-.874-.712-1.247-.964 1.925-.482 5.293.961 7.218-1.925 0-3.749 1.394-4.33 2.407.291 0 .625-.073.995-.15 1.054-.225 2.39-.51 3.817.63-1.745.12-2.407.963-3.368 2.406.16-.16 3.368-.481 8.66 2.406.914.498 1.755.967 2.549 1.41 3.812 2.127 6.545 3.651 10.926 4.845 7.218 1.97 13.474 2.407 14.917.963-1.123 0-6.43-.035-10.587-1.925m24.056-4.045a145 145 0 0 1 1.93-1.73c3.85-3.367 4.812-5.773 5.775-8.66.962 1.443.962 2.887.48 3.85 1.445-.482 3.368 0 3.85.962-1.925 0-2.887.48-3.85 1.443.963 0 2.889 0 3.85.962-3.922.785-5.926 2.209-8.096 3.75-.492.35-.993.706-1.528 1.063-2.148 1.432-5.775 3.85-9.143 3.367 1.904-.634 4.292-2.797 6.732-5.007"/></svg>
