<svg xmlns="http://www.w3.org/2000/svg" id="civet" viewBox="0 0 400 400"><path d="M183.594 1.224C98.671 8.136 26.885 68.929 6.301 151.367c-31.556 126.384 63.432 248.242 193.504 248.242 130.071 0 225.059-121.858 193.503-248.242C369.81 57.256 280.527-6.665 183.594 1.224m53.071 47.462c1.132.401 2.856 1.387 3.833 2.193.976.806 1.926 1.465 2.111 1.465 1.793 0 7.374 8.921 8.209 13.122.499 2.512.535 2.563 3.066 4.349 1.409.994 3.16 2.323 3.892 2.952 1.509 1.298 6.523 4.577 6.999 4.577.172 0 .829.548 1.461 1.218.631.67 1.877 1.681 2.769 2.246 1.645 1.043 7.841 6.853 11.1 10.409.982 1.071 2.279 2.209 2.883 2.529s1.38 1.198 1.724 1.953c.345.754 1.473 2.317 2.507 3.474 1.034 1.156 2.221 2.77 2.638 3.587s1.1 1.725 1.519 2.019c.419.293 1.72 1.949 2.893 3.681s2.768 4.007 3.546 5.059c.778 1.051 1.831 2.753 2.339 3.782.509 1.029 1.195 2.171 1.526 2.539.944 1.049 3.263 5.319 3.789 6.977.262.827.867 2.206 1.345 3.066.762 1.374 2.41 5.378 3.939 9.57 5.006 13.734 6.696 26.752 5.526 42.578-.997 13.491-1.581 13.369-1.879-.39-.137-6.338-.449-12.754-.694-14.258-1.627-9.978-4.904-22.056-7.608-28.039-.561-1.241-1.02-2.41-1.02-2.598 0-.736-7.191-15.172-8.406-16.875-.71-.995-1.563-2.334-1.895-2.976s-1.419-2.114-2.416-3.27-2.326-3.001-2.954-4.101-2.018-3-3.087-4.222-1.945-2.357-1.945-2.521-.967-1.304-2.148-2.534-2.149-2.473-2.149-2.763-.659-1.075-1.465-1.743a143 143 0 0 1-3.222-2.786 201 201 0 0 0-3.418-2.972c-.913-.771-1.66-1.618-1.66-1.882 0-.671-4.587-4.726-7.306-6.459-1.246-.795-2.616-1.844-3.046-2.332s-1.66-1.467-2.734-2.176c-1.075-.708-2.964-2.108-4.2-3.11-1.235-1.002-2.246-1.65-2.246-1.441s.264.481.586.605c.751.288.763 1.031.018 1.031-.354 0-.657.551-.804 1.465-1.586 9.837-5.233 17.825-8.747 19.154-.343.129-.861.471-1.153.759-.424.419-.646.427-1.114.038-.509-.422-.466-.579.334-1.219 2.552-2.039 3.028-2.554 3.831-4.136 2.905-5.728 4.461-13.102 3.223-15.276-.875-1.538-1.373-1.305-1.72.808-.156.95-.388 2.304-.514 3.01l-.23 1.282-1.151-.892c-1.018-.789-1.146-1.117-1.103-2.845.075-3.094-.016-3.711-.55-3.711-.276 0-.741-.835-1.034-1.855-.591-2.057-1.937-4.867-1.964-4.102-.009.269.026.532.079.586s-.277.625-.733 1.27c-.983 1.391-.656 2.929.624 2.929.868 0 .998.864.543 3.614-.265 1.607-.921 2.003-.921.556 0-1.166-1.611-2.714-2.478-2.381-.588.226-.84-.175-.693-1.105.025-.161-.121-.293-.326-.293-.224 0-.284-1.394-.15-3.516.222-3.526.11-3.941-.811-3.019-.854.853-1.387 2.104-2.923 6.849-.994 3.071-1.849 4.986-2.571 5.757-.595.636-1.513 1.831-2.039 2.657-1.196 1.879-1.436 1.673-.888-.766.412-1.834.389-1.937-.604-2.689-2.382-1.8-3.314-2.896-3.314-3.895 0-.564-.273-1.555-.607-2.201-.677-1.308-.449-9.614.303-11.043.278-.53.238-.83-.144-1.081-.433-.286-.414-.416.102-.721.346-.205.859-1.213 1.139-2.239 1.826-6.682 7.692-9.65 14.388-7.282m-35.298 2.815c1.289.206 3.926.573 5.86.815 9.183 1.151 12.89 2.62 12.89 5.107v1.752l-1.562-.138c-7.39-.652-11.529-1.39-18.164-3.239-5.426-1.511-13.667-1.934-18.781-.965-1.843.35-4.216.641-5.273.649-1.058.007-2.846.331-3.974.721s-2.05.586-2.05.436c0-.276 3.286-2.476 5.078-3.399 4.272-2.202 17.53-3.09 25.976-1.739m34.421 14.963c-.547 3.579-.603 4.602-.262 4.812.665.411 1.096-1.107.979-3.439-.134-2.659-.433-3.232-.717-1.373m-97.833 4.973c1.217.152 2.535.161 2.929.02.395-.141 1.064-.017 1.488.276.964.666 2.157.691 2.165.044.003-.268.235-.048.514.489.844 1.619-.079 2.589-2.783 2.926-2.898.361-3.313.614-4.189 2.557l-.732 1.624.955.735c.526.404 1.136.738 1.357.743 2.313.05 8.243 9.169 8.781 13.502.162 1.309.592 2.956.956 3.659.364.704.561 1.38.437 1.503-.269.27-.224.332-1.339-1.859-3.477-6.831-8.511-10.433-15.023-10.751-1.678-.082-3.375-.252-3.769-.377-.757-.24-2.358 1.377-2.358 2.381 0 .288-.378 1.363-.839 2.389-1.63 3.629-2.146 5.21-3.059 9.381-.951 4.346-1.026 10.103-.198 15.141.317 1.934.573 4.307.568 5.274l-.01 1.758-1.551-1.744c-.854-.959-1.552-1.896-1.552-2.083s-.554-1.599-1.231-3.139c-5.58-12.687-5.38-22.687.711-35.588.501-1.061.911-2.099.911-2.307 0-.537 4.652-4.842 6.054-5.603 1.954-1.059 6.644-1.472 10.807-.951m-36.077 9.746c-1.386 1.94-7.521 8.476-11.77 12.538-1.22 1.166-2.217 2.335-2.217 2.598s-1.011 1.616-2.246 3.007-2.774 3.432-3.418 4.535-1.543 2.256-1.995 2.561c-.453.304-1.221 1.401-1.708 2.437s-1.316 2.395-1.842 3.021c-.527.626-1.827 2.823-2.889 4.883s-2.285 4.381-2.717 5.158c-1.763 3.168-6.015 16.666-7.001 22.22a1425 1425 0 0 0-3.711 22.07c-1.383 8.775-1.618 9.802-3.399 14.844-5.25 14.858-6.148 19.066-6.467 30.304-.16 5.621-.066 8.087.418 10.937.344 2.024.734 4.384.866 5.243 1.214 7.846 5.406 20.954 9.37 29.297.919 1.934 1.799 3.955 1.956 4.492.348 1.192 4.037 7.349 7.724 12.891 2.784 4.185 3.875 5.633 6.805 9.036.913 1.06 1.66 2.067 1.66 2.238 0 .382 4.509 4.987 6.1 6.231.636.497 1.748 1.772 2.472 2.832.724 1.061 1.439 1.928 1.589 1.928.341 0 6.36 5.153 8.327 7.128.801.805 1.897 1.751 2.434 2.104.538.352.905.713.816.801-.182.182-2.872-1.255-3.769-2.014-.323-.272-1.462-.977-2.533-1.566-1.07-.588-2.179-1.402-2.463-1.808s-.667-.738-.851-.738c-.436 0-6.454-4.497-8.365-6.25-3.276-3.007-12.903-12.779-13.853-14.063-.557-.752-1.826-2.334-2.82-3.515-3.565-4.236-8.257-11.01-9.84-14.205-.653-1.319-1.934-3.54-2.846-4.936-2.033-3.112-6.823-13.162-6.819-14.307.001-.318-1.363-3.817-2.592-6.651-.294-.677-.534-1.401-.534-1.61s-.334-1.149-.743-2.09-1.035-3.028-1.39-4.639c-.356-1.611-.9-3.896-1.209-5.078-1.549-5.928-2.23-9.052-2.552-11.719a510 510 0 0 0-.751-5.859c-1.412-10.433-.546-30.66 1.597-37.283.413-1.277.751-2.656.751-3.064 0-.409.338-1.913.75-3.343a567 567 0 0 0 1.813-6.506c.585-2.148 1.632-5.136 2.326-6.64 2.053-4.448 2.774-6.182 3.08-7.405.406-1.62 3.685-8.45 4.51-9.392.376-.43 1.261-1.836 1.966-3.125 1.67-3.053 5.935-9.438 7.32-10.959a44 44 0 0 0 2.234-2.735c4.426-5.944 16.341-17.66 23.267-22.878 2.041-1.538 4.59-3.534 5.664-4.435s2.478-1.975 3.121-2.386 2.399-1.671 3.904-2.798c3.033-2.273 3.205-2.366 2.47-1.337m51.735 8.075c-.144.576-1.371.475-1.573-.131-.119-.357.116-.48.749-.39.507.071.878.306.824.521m71.518 1.49c-.263 1.623.044 1.873 4.181 3.397 1.818.67 3.657 1.527 4.086 1.905 1.611 1.415 4.791 3.169 5.749 3.169.545 0 1.211.263 1.478.586s.635.586.818.586c.383 0 3.946 2.375 4.309 2.873.355.487.83-.446.5-.981-.175-.283-.107-.344.182-.165.254.156.413.579.354.939-.074.447.12.615.614.53.404-.069.617.048.483.265-.132.214.119.503.557.642s1.696 1.338 2.794 2.665c3.607 4.356 4.456 5.171 5.999 5.758 1.003.382 2.099 1.312 3.205 2.719a150 150 0 0 0 3.217 3.934c.845.989 1.841 2.571 2.213 3.516.371.945.888 2.07 1.148 2.5s.593 1.464.739 2.299.588 1.978.981 2.539.821 1.891.952 2.953c.131 1.063.386 2.03.566 2.149.603.397.855 7.094.434 11.495-.676 7.053-4.612 19.562-5.905 18.763-.178-.11-.207.102-.066.471.181.471.114.581-.226.371-.328-.203-.443-.067-.359.425.075.437-.081.68-.394.615-.284-.059-.414.059-.289.262.125.202-.081.678-.459 1.056s-.687.787-.687.91-.145.175-.322.116-.218.061-.091.266-.084.605-.469.889c-.837.616-2.853 3.292-5.686 7.546-1.144 1.719-2.734 3.622-3.533 4.23s-1.91 1.83-2.468 2.715c-.559.886-1.852 2.424-2.874 3.419-1.021.995-2.213 2.498-2.647 3.34s-1.683 2.367-2.776 3.391c-1.092 1.023-1.987 2.077-1.989 2.343-.007 1.078-8.904 9.26-10.077 9.269-.28.002-1.545.707-2.811 1.566-1.265.86-2.408 1.563-2.539 1.563s-1.243.659-2.472 1.465c-3.6 2.36-7.028 4.18-11.199 5.945-2.222.939-2.061.933 4.101-.145 10.481-1.835 14.063-1.908 14.063-.287 0 .588.186 1.255.414 1.483 1.137 1.137-7.065 9.898-9.266 9.898-.207 0-.717.315-1.133.699-1.087 1.003-5.019 3.32-8.044 4.742-2.829 1.329-3.771 1.345-8.093.14-1.154-.322-2.297-.627-2.539-.678-1.464-.308-3.044-.816-4.933-1.586-1.182-.482-3.906-1.18-6.055-1.552-7.598-1.315-8.008-1.416-8.008-1.968 0-.297.292-.702.649-.902.872-.488-.518-1.269-2.435-1.366-.734-.037-1.336-.22-1.337-.406s-.435-.256-.965-.155c-.529.101-1.016.023-1.082-.175s-.731-.421-1.479-.496a16.6 16.6 0 0 1-2.672-.546c-.722-.225-1.425-.395-1.562-.377-.77.097-1.274-.203-2.549-1.515-1.675-1.725-1.743-2.062-.412-2.062.61 0 .899-.163.742-.417a.61.61 0 0 0-.709-.244c-.248.095-.676-.069-.952-.364-.419-.449-.289-.537.787-.537 1.445 0 2.322.97 2.648 2.929.149.892.429 1.201 1.172 1.293.537.066 1.504.353 2.149.638 1.305.577 5.273 1.038 5.273.612 0-.643-1.479-1.62-1.668-1.102-.102.282-.165.029-.138-.562.055-1.216 1.64-1.502 3.217-.58 2.879 1.685 4.93 2.631 5.705 2.632 2.449.003 10.112-3.819 15.091-7.527 4.638-3.453 4.502-3.707-2.355-4.401-7.161-.726-8.279-1.016-13.211-3.427-7.841-3.834-11.268-11.322-8.65-18.899.503-1.456.59-2.225.309-2.734-.338-.611-.308-.64.218-.21.503.411.651.39.846-.118.136-.355.073-.515-.15-.378-.212.132-.386.053-.386-.175s.147-.413.325-.413 1.19-.779 2.247-1.73c9.665-8.706 14.886-10.591 21.327-7.701 2.763 1.24 4.226 2.812 4.226 4.541 0 1.604 3.385 4.361 6.762 5.508 1.46.496 2.133 2.897.812 2.897-.917 0-7.04 4.665-7.534 5.74-.795 1.729-.959 6.456-.28 8.08.347.83.631 1.846.631 2.256s.307.855.683.988c.376.134.998.513 1.382.843 1.039.894 10.825 1.582 10.825.761 0-.2.269-.197.632.006.434.244 1.563-.003 3.613-.787 1.64-.628 3.509-1.329 4.154-1.559 1.173-.417 3.711-2.544 3.711-3.109 0-.166.531-1.138 1.179-2.161 1.349-2.126 1.375-1.975-.966-5.562-2.692-4.123-4.696-5.161-9.681-5.013-1.432.042-2.687-.007-2.789-.109-.361-.361 1.159-4.14 2.043-5.083.493-.525 1.59-2.354 2.439-4.063 2.001-4.028 3.319-5.113 7.187-5.913 3.195-.661 4.739-.506 5.513.551.306.418 1.026.658 1.977.658 1.23 0 1.499.139 1.515.781.064 2.716 6.941 5.519 9.564 3.898.279-.172 1.019-.353 1.644-.402 2.435-.192 10.062-10.054 10.062-13.012 0-.292.503-1.522 1.118-2.734 1.057-2.084 2.806-7.161 2.794-8.109-.003-.241.359-1.559.804-2.93 2.234-6.874-2.307-19.949-7.249-20.876-.755-.142-1.373-.398-1.373-.568 0-1.515-9.109-2.446-11.891-1.216-1.034.458-2.097.832-2.363.832-2.203 0-6.281 6.129-7.798 11.719-.379 1.396-1.083 3.505-1.565 4.687s-1.002 2.5-1.156 2.93c-.265.74-.301.744-.675.076-.919-1.636-2.259.784-2.247 4.055.012 3.183-.473 5.286-1.378 5.971-.328.249-.666 1.306-.768 2.398-.337 3.62-1.007 5.664-1.858 5.664-.246 0-.158-.403.209-.963.347-.529.623-1.189.613-1.465-.009-.276-.359.147-.778.939-.738 1.398-.682 3.38.063 2.205.264-.417.33-.405.33.065 0 1.135-.658 1.748-.936.872-.138-.436-.705-1.246-1.259-1.801-3.404-3.403-4.821-24.486-2.524-37.547 1.414-8.04 1.603-9.277 1.973-12.891.198-1.934.466-6.856.594-10.938.129-4.082.395-8.916.591-10.742s.359-3.584.363-3.906c.006-.534.114-1.158.659-3.825.284-1.386.917-.622.682.823m-69.646 4.794 3.695 3.759c1.25 1.272 3.799 3.063 5.19 3.647.835.351 1.479 1.009 1.845 1.884.744 1.78 2.809 3.428 6.734 5.373 1.772.878 3.651 2.105 4.174 2.727s1.048 1.131 1.165 1.131c1.235 0 6.112 6.422 7.314 9.632.416 1.108 1.024 2.238 1.352 2.51.327.272 1.359 2.042 2.292 3.934.934 1.892 2.081 4.062 2.55 4.821s1.357 2.804 1.972 4.545c.616 1.741 1.805 4.331 2.642 5.756 1.671 2.845 1.954 3.603 2.424 6.497.175 1.074.874 3.887 1.553 6.25s1.322 5.351 1.429 6.64c.22 2.645 2.154 7.11 4.297 9.92 1.745 2.287 1.657 2.791-.194 1.118-.827-.747-2.101-1.47-2.832-1.608-1.424-.267-1.617-.589-5.29-8.844-.717-1.611-1.305-2.71-1.308-2.441-.01 1.077-.78.378-1.718-1.563-.546-1.127-.999-1.879-1.007-1.67s-.288-.012-.623-.489c-.334-.478-.483-1.072-.33-1.32.172-.278.107-.344-.173-.171-.249.154-.451.06-.45-.21 0-.296-.193-.226-.489.177-.431.588-.498.524-.573-.548-.075-1.08-.015-1.156.551-.689.577.477.586.446.098-.337-.313-.504-.641-.695-.787-.46-.158.255-.486.168-.892-.239-.354-.353-.643-.454-.643-.224 0 .94-1.057.286-2.341-1.449-.751-1.014-1.467-1.931-1.591-2.038-.125-.108-.34-.503-.479-.879-.243-.66-1.456-.988-1.441-.391.004.161.531 1.244 1.172 2.406 1.685 3.057 1.45 3.22-1.082.748-2.461-2.403-3.602-3.071-6.543-3.829-2.528-.653-7.49-3.022-7.751-3.701-.111-.29-.883-.642-1.714-.782-1.557-.263-4.017-1.893-3.558-2.357.793-.8 8.132 2.177 10.275 4.169.877.815 2.254 1.617 3.173 1.849.893.225 1.91.519 2.26.653.434.166.636.033.636-.421 0-3.785-11.786-9.412-15.591-7.444-1.324.685-2.769.796-2.769.213 0-.789-1.202-.362-1.63.579-.578 1.268-2.363 1.594-4.522.827-1.792-.637-1.88-.594-1.233.615.709 1.325-.165 1.734-1.569.735-.879-.626-1.202-.71-1.202-.312 0 .3-.45.968-1.001 1.485-.853.802-.985 1.228-.896 2.897.209 3.953-3.449 2.768-4.493-1.455-.178-.721-.52-1.074-1.039-1.074-.775 0-1.077.938-.43 1.338.585.362.754 2.193.311 3.367-.346.917-.267 1.495.438 3.195.473 1.142.86 2.214.86 2.382s.44.953.977 1.743c1.414 2.082 1.267 2.631-1.012 3.776-1.907.958-2.699 1.007-2.699.168 0-.215.176-.282.39-.149.598.369.468.013-.331-.909l-.723-.832-.449.986c-.247.543-.45 1.362-.45 1.82s-.211 1.416-.469 2.13c-.371 1.026-.363 1.603.038 2.762.924 2.667 1.734 4.36 2.004 4.193.147-.091.204.225.127.702-.086.529.257 1.324.88 2.039.562.644.889.908.726.586-.218-.434-.176-.477.162-.167.251.231.528.789.615 1.241.565 2.933 7.92 9.551 10.663 9.595.269.004.489.154.489.333s.404.326.898.326 1.074.175 1.288.39c.424.423 8.302 1.56 10.875 1.568 2.877.01 3.458.325 3.152 1.71-.426 1.928-.631 8.513-.258 8.283.186-.115.255.228.153.762-.155.808-.064.93.544.732.601-.196.627-.164.145.179-.51.362-.464.648.356 2.203.662 1.255 1.038 1.636 1.264 1.28.232-.366.335-.29.372.276.104 1.604.169 1.792.742 2.155.795.504-.487.538-1.47.039-.373-.189-1.557-.547-2.632-.795-1.074-.248-3.91-1.411-6.302-2.585-2.393-1.174-4.552-2.135-4.799-2.135-.622 0-4.278-1.882-5.696-2.932-.644-.477-2.748-1.718-4.675-2.757s-4.124-2.433-4.883-3.098c-1.708-1.498-3.341-2.538-4.002-2.55-.276-.005-1.02-.709-1.653-1.565-.633-.855-1.907-1.922-2.832-2.369s-1.813-1.028-1.974-1.289c-.754-1.223-6.043-4.994-6.443-4.594-.466.465-2.227-.57-3.661-2.152-.455-.502-1.07-.919-1.367-.927-1.324-.037-9.712-9.295-9.719-10.726-.001-.214 1.655 1.367 3.679 3.513s3.812 3.772 3.972 3.612c.159-.16.087-.291-.16-.291-.248 0-.701-.571-1.007-1.269-.306-.699-1.182-1.934-1.948-2.745-2.034-2.156-3.204-4.375-4.166-7.9-.469-1.719-1.005-3.425-1.191-3.791s-.451-1.378-.59-2.246-.406-1.58-.594-1.58c-.585 0-.371-1.076.263-1.32.654-.251.256-1.393-.883-2.531-.3-.301-.448-.802-.329-1.114.12-.312.218-.729.218-.926s.176-.359.391-.359.39.299.39.664c0 .51.107.557.461.203.257-.256.476-1.645.495-3.127.045-3.555 2.102-8.096 3.508-7.743.637.16 1.188-.117 2.076-1.042 6.369-6.638 14.438-14.736 14.683-14.736.168 0 1.394-.745 2.725-1.655s3.211-2.077 4.177-2.593c.967-.516 3.022-1.837 4.566-2.935s3.343-2.294 3.996-2.658c2.903-1.615 5.466-11.635 3.996-15.622-1.401-3.798-.966-3.812 2.693-.089m90.153 5.581c.424.269.411.373-.069.557-.324.125-.8-.027-1.057-.336-.54-.651.215-.798 1.126-.221m.037 54.527c2.269 1.173 2.227 3.635-.105 6.175-2.455 2.674-4.84 2.478-6.642-.545-2.308-3.869 2.46-7.847 6.747-5.63m-22.347.84c-.41.41-.344 1.713.086 1.713.559 0 .736-.507.451-1.29-.141-.387-.383-.577-.537-.423m-45.956 5.131c1.854 1.741 2.179 3.735.89 5.461-3.686 4.937-11.448 2.329-9.923-3.334 1.036-3.847 5.965-5.007 9.033-2.127m108.348 2.138c1.539 2.196.433 3.922-2.907 4.537-1.182.218-3.731.947-5.665 1.62-1.933.674-3.867 1.329-4.296 1.456-1.28.379 2.88-3.667 5.216-5.074 6.446-3.881 6.662-3.953 7.652-2.539m-63.313-.179c-.323.208-.296.426.097.791.451.418.543.368.543-.293 0-.889-.015-.901-.64-.498m-79.849 2.729c.557 2.006.526 2.14-.381 1.654-.436-.233-.692-.587-.568-.787.123-.2.046-.695-.171-1.101-.385-.719-.216-1.231.406-1.231.169 0 .49.659.714 1.465m79.29-.345c.214.402.311.843.213.981-.097.139.129-.02.502-.353.594-.529.605-.651.093-.975-.92-.582-1.234-.447-.808.347m35.624 3.256a27 27 0 0 0-1.383 2.47c-.991 2.101-6.48 8.925-6.48 8.056 0-.887 2.289-4.284 6.938-10.299 1.594-2.061 2.194-2.209.925-.227m-27.632 1.533c.221 1.227.145 1.446-.573 1.634-.765.2-.808.107-.559-1.219.466-2.483.74-2.584 1.132-.415m-82.192 5.698c.484-.126 1.282.468 2.573 1.917 1.029 1.156 2.075 2.101 2.325 2.101s1.142.673 1.982 1.496c.84.824 1.966 1.739 2.503 2.035l.977.538-1.172.224c-.645.123-1.231.087-1.302-.081-.072-.168-.361-.306-.642-.306s-.613-.264-.736-.586c-.124-.322-.574-.586-1-.586-1.115 0-2.765-.825-2.765-1.382 0-.262-.549-.703-1.218-.981-1.281-.53-2.685-2.42-2.687-3.617-.001-.414-.179-.597-.431-.441-.257.159-.225-.107.08-.661.453-.822.527-.845.661-.206.098.471.393.657.852.536m76.881-.047c.223.122-2.327 2.502-2.68 2.502-.196 0-.875 1.143-1.508 2.539-1.116 2.461-1.982 3.267-1.982 1.845 0-.382.242-1.041.536-1.465s.662-1.346.815-2.049c.319-1.468 1.971-3.604 2.786-3.604.303 0 .551-.197.551-.439q0-.437.683.085c.376.288.736.552.799.586m58.319 1.365.816.817-.868.924c-1.899 2.022-3.771 2.955-7.071 3.525-3.962.685-5.455 1.253-8.364 3.179l-4.298 2.849c-1.312.871-2.65 2.252-3.686 3.806-.895 1.342-1.857 2.572-2.139 2.734-.281.163-1.067 1.241-1.746 2.397-1.116 1.9-2.324 3.526-5.912 7.957-.653.806-1.387 1.465-1.632 1.465s.097-.571.76-1.27c.663-.698 1.332-1.709 1.486-2.246s1.021-1.943 1.927-3.125a86 86 0 0 0 3.173-4.492c2.074-3.184 4.568-6.269 6.87-8.497 1.055-1.021 2.083-2.289 2.284-2.817.201-.529 1.031-1.389 1.845-1.911.814-.523 2.175-1.672 3.025-2.554.849-.882 1.816-1.609 2.148-1.616s1.483-.445 2.557-.973c2.677-1.317 7.575-1.401 8.825-.152m-10.387 1.886c-1.713.806-4.91 3.372-6.123 4.913-1.003 1.275-.622 1.236 1.427-.146.917-.619 2.296-1.333 3.065-1.587.768-.253 2.019-.883 2.779-1.399a36 36 0 0 1 2.461-1.523l1.078-.585-1.042-.015c-.573-.009-1.276-.101-1.562-.204-.286-.104-1.224.142-2.083.546m58.821 4.019c.985 5.064.771 27.457-.339 35.467-1.579 11.393-2.4 14.663-5.935 23.632-2.623 6.657-2.942 7.324-3.938 8.224-.462.419-1.198 1.464-1.635 2.323-.438.86-1.518 2.279-2.4 3.155-2.099 2.082-6.324 6.59-8.051 8.59-3.222 3.732-7.771 6.263-5.139 2.859.397-.513 1.039-1.775 1.428-2.805.388-1.031 1.234-2.701 1.879-3.711.646-1.011 2.13-3.681 3.3-5.934 1.169-2.252 2.437-4.537 2.817-5.078.38-.54.821-1.421.98-1.958.159-.538.872-2.12 1.585-3.516 1.534-3.004 4.479-10.542 4.479-11.462 0-.354.329-1.656.732-2.892.784-2.406 2.211-9.166 3.723-17.63.513-2.874 1.111-5.335 1.329-5.47s.58-1.122.807-2.196c.226-1.073.678-3.182 1.004-4.686.954-4.399 1.736-10.358 2.021-15.4.3-5.305.559-5.595 1.353-1.512m-110.687 3.674c-.156.155-.282.604-.282.998 0 .782 1.706 1.041 2.148.326.133-.215.597-.391 1.032-.391.45 0 .722-.206.631-.478-.176-.528-3.082-.903-3.529-.455m.693 5.79c.854.357 1.429.913 1.584 1.532.992 3.951-5.902 5.74-8.431 2.188-.887-1.245-1.037-1.069 2.551-2.993 2.745-1.472 2.579-1.444 4.296-.727m75.537 1.135c4.002 2.478 4.428 4.774 1.143 6.16-1.874.791-8.687.691-10.468-.152-1.558-.738-4.973-1.663-7.594-2.056-2.304-.345-2.306-.769-.011-2.373 5.275-3.686 12.448-4.355 16.93-1.579m-97.704.918c-1.091.285-.79.903.441.903.618 0 1.342-.264 1.61-.586.508-.613-.388-.751-2.051-.317m76.192 3.128c.104.697-.557 1.035-5.261 2.688-5.944 2.088-13.006 5.665-15.825 8.016-1.006.838-2.135 1.524-2.51 1.524-.657 0 4.487-4.138 5.705-4.59.322-.119 1.569-.814 2.771-1.543 2.972-1.802 14.127-7.152 14.612-7.008.215.064.443.475.508.913m-66.915.053c0 .251-.131.456-.293.456-2.143 0-2.106.017-1.285-.604.839-.634 1.578-.565 1.578.148m62.555 23.144c2.544.933 4.828 4.058 4.828 6.605 0 3.977-2.258 6.111-11.033 10.421-2.221 1.092-2.285 1.099-1.999.228.124-.376-.176-.069-.666.683s-1.118 2.51-1.395 3.906c-1.058 5.341-.485 6.931 2.062 5.717.926-.441 1.826-.578 2.716-.411.972.183 1.347.107 1.39-.282.033-.292.101-.707.151-.922s.111-.587.135-.827c.025-.239 1.232-.982 2.682-1.65 1.45-.669 3.516-1.734 4.59-2.367 1.074-.634 3.376-1.874 5.116-2.755 1.739-.882 4.223-2.293 5.52-3.136 1.297-.842 2.818-1.647 3.381-1.788s1.022-.414 1.022-.605c0-.192.197-.349.437-.349.241 0 1.515-.657 2.832-1.46 1.318-.804 3.198-1.836 4.179-2.293s2.854-1.646 4.163-2.641c1.308-.995 2.535-1.809 2.726-1.809.192 0 1.035-.703 1.874-1.562 2.296-2.351 2.71-1.834 2.11 2.633-.195 1.452-.53 4.134-.743 5.961-1.28 10.954-3.414 21.654-5.648 28.32-.288.859-1.002 3.672-1.585 6.25-.584 2.578-1.37 5.83-1.747 7.226-.376 1.397-.687 3.197-.689 4.001s-.325 2.122-.717 2.93c-.392.807-.666 1.702-.608 1.988.058.285-.169.938-.505 1.451-.336.512-.61 1.401-.61 1.976 0 1.311-2.462 4.605-4.285 5.735-.746.462-2.493 1.87-3.882 3.129s-3.328 2.709-4.308 3.223c-.981.515-3.013 1.814-4.517 2.889s-3.671 2.506-4.815 3.182-2.17 1.462-2.28 1.747-.889.877-1.732 1.317c-.844.44-2.533 1.798-3.753 3.019-1.326 1.326-2.285 2.021-2.383 1.727-.091-.27.031-.687.27-.926s.435-.701.435-1.026c0-.856-1.097.278-1.291 1.335-.23 1.258-1.143 2.928-1.604 2.934-.254.004-.228.132.065.318.693.44-2.056 3.632-2.861 3.323-.379-.146-1.617.82-3.537 2.759-2.884 2.912-3.014 2.991-5.455 3.337-1.375.195-3.055.631-3.734.97s-1.374.616-1.545.616-.744.401-1.273.892c-.53.491-1.462 1.147-2.071 1.458s-2.163 1.454-3.452 2.541-3.047 2.485-3.906 3.106c-.86.622-2.74 2.163-4.178 3.424-2.901 2.544-3.661 2.658-6.847 1.034-.795-.405-1.654-.737-1.908-.737-.255 0-1.492-.504-2.75-1.12-1.257-.616-3.253-1.436-4.434-1.821-2.033-.662-2.666-.968-6.446-3.112-.859-.488-3.672-1.811-6.25-2.939-5.111-2.239-8.89-4.003-17.037-7.958-2.925-1.419-5.429-2.581-5.564-2.581-.56 0-3.375-1.38-3.375-1.655 0-.164-.267-.298-.592-.298-.326 0-1.512-.513-2.637-1.139s-3.298-1.506-4.831-1.956c-2.392-.702-5.707-2.234-10.495-4.853-.644-.353-1.377-.642-1.628-.643s-.514-.145-.585-.319c-.072-.174-1.6-.904-3.396-1.623-1.796-.72-3.755-1.72-4.353-2.224-.599-.503-1.335-.915-1.637-.915-2.014 0-1.93-2.339.142-3.982a39 39 0 0 0 3.027-2.727c1.105-1.134 1.81-1.493 3.352-1.707 1.074-.15 3.799-.969 6.055-1.822a341 341 0 0 1 5.859-2.163c1.823-.638 2.466-.871 4.567-1.66.686-.258 1.873-.486 2.637-.508.861-.024 1.39-.233 1.39-.547 0-.28.195-.509.433-.509s2.039-.774 4.003-1.72c1.965-.946 4.538-2.037 5.72-2.425s2.341-.842 2.575-1.011c.235-.168 2.169-.81 4.297-1.426 3.447-.996 6.655-2.364 11.174-4.761.795-.421 1.716-.766 2.049-.766s2.231-.787 4.219-1.748c1.989-.962 4.715-2.086 6.059-2.499l2.443-.751 1.086 1.034c.598.569 1.327 1.825 1.621 2.792s1.041 3.303 1.66 5.192c.618 1.888 1.031 3.584.918 3.768-.206.334 1.861.755 7.797 1.587 1.719.241 3.916.807 4.883 1.257.967.451 2.549.967 3.516 1.146 2.915.541 5.213 1.281 6.348 2.043.618.415 1.425.631 1.898.507.452-.118 1.219-.064 1.705.121 1.179.448 4.514-1.091 5.217-2.408.453-.849.451-3.996-.005-7.63-.089-.714-1.039-.936-1.383-.322-1.424 2.538-7.17 3.967-11.127 2.766-3.426-1.04-8.848-1.791-11.056-1.531-1.99.234-2.155.189-2.503-.682-.372-.93-.373-.93-.397.152-.027 1.182-1.142 1.849-3.078 1.843l-1.049-.003-.044-4.308-.044-4.308-1.618-1.385c-.889-.761-2.451-1.825-3.471-2.364-2.344-1.239-5.588-3.651-8.104-6.025-1.386-1.307-2.618-2.048-4.241-2.55-1.563-.483-2.387-.966-2.599-1.526-.171-.45-.901-1.336-1.623-1.969-.721-.634-1.724-1.732-2.228-2.44-1.334-1.873-1.393-1.342-.245 2.203 1.15 3.554.944 5.607-.754 7.491a26 26 0 0 0-1.75 2.246c-.617.898-1.177 1.27-1.919 1.272-.576.001-1.563.271-2.194.6-7.74 4.036-16.182.206-14.877-6.751.459-2.445 5.966-8.097 9.578-9.829l2.93-1.405 6.283.031 6.283.032.477-2.31c.356-1.723.85-2.725 1.941-3.938a70 70 0 0 0 2.728-3.267c2.401-3.109 6.699-4.297 10.041-2.774.93.424 4.157-1.424 4.627-2.65.109-.284 1.042-.9 2.073-1.369l3.857-1.756c5.114-2.334 22.389-3.343 29.222-1.707 1.431.343 2.393.938 3.856 2.385 1.072 1.061 2.024 1.854 2.115 1.762s-.105-.439-.437-.771c-.94-.939-.726-1.384.801-1.67.862-.162 1.222-.377.93-.558-.347-.214-.252-.517.352-1.121.455-.455.828-1.166.828-1.581 0-.414.266-1.019.591-1.344s.689-1.173.809-1.883c.207-1.225.186-1.253-.396-.534-.521.644-.614.661-.614.117 0-.353.22-.782.489-.954.781-.499 1.585-2.341 1.255-2.874-.185-.299-.143-.39.108-.235.226.139.506.004.622-.3.36-.936 2.911-1.03 5.198-.192m-29.937 15.97c-5.918.524-12.097 1.717-14.844 2.866-.537.224-1.196.37-1.465.323-1.274-.221-.514 2.561.977 3.574 4.531 3.082 18.849 2.602 24.237-.811 5.443-3.449 5.741-4.066 2.384-4.932-4.42-1.142-7.141-1.387-11.289-1.02m-33.06 5.385c-3.573 2.015-4.562 3.76-4.598 8.106-.052 6.388 1.961 8.669 10.705 12.126 1.396.552 2.785 1.111 3.085 1.241.919.399.25-5.64-1.308-11.805-.761-3.008-1.384-5.935-1.385-6.505-.006-2.905-3.737-4.721-6.499-3.163m-55.254 9.109c2.622.426 3.287.619 7.064 2.05 3.113 1.179 3.287 1.546.586 1.237-4.942-.566-12.157-2.605-11.72-3.313.306-.495.888-.491 4.07.026m96.517 32.34c0 1.412-.122 1.57-1.953 2.52-1.838.953-1.953.969-1.953.261 0-.434.475-.998 1.119-1.332.729-.377 1.203-.993 1.358-1.768.361-1.805 1.429-1.567 1.429.319m-54.808 1.979c.125.48.69.829 1.621 1.001.786.146 2.923.973 4.749 1.839 2.403 1.14 3.927 1.607 5.516 1.69 2.442.127 4.194.874 5.284 2.253s6.034 3.209 6.746 2.497c.393-.393.641.376.46 1.423-.031.177.105.222.303.1.198-.123.475.079.617.448.221.576.31.589.634.095.329-.501.438-.496.858.045.635.819 2.469 1.827 2.029 1.116-.22-.357-.072-.431.539-.271.77.201.842.07.842-1.52 0-1.839-1.787-3.232-4.176-3.256-.471-.005-.957-.174-1.082-.375-.124-.201-.53-.352-.902-.336-.771.035-5.173-1.563-5.734-2.081-.204-.188-.69-.342-1.08-.342-.389 0-1.057-.176-1.484-.391l-1.54-.774c-.42-.21-1.519-.499-2.442-.64-.922-.142-3.083-.915-4.802-1.717-3.685-1.721-7.306-2.139-6.956-.804m-7.397 3.875c-.805.356-1.464.858-1.465 1.116-.004 1.009.939 2.46 1.6 2.46.383 0 .791.155.908.344.122.198.96.186 1.962-.028 1.519-.324 1.859-.27 2.586.407.957.891.682 1.714-.513 1.542-.445-.064-.883.103-.975.372-.115.337.32.488 1.408.488 1.109 0 1.867.27 2.559.912.666.617 1.512.933 2.614.976 1.005.039 1.81.311 2.101.71.333.455.554.512.75.196.153-.248.696-.45 1.206-.45.582 0 1.018-.289 1.174-.778.313-.989-.053-1.596-.793-1.312-.358.137-.573-.016-.573-.408 0-.701-1.743-.893-2.149-.237-.484.783-2.93.463-2.93-.383 0-.5-.346-.861-.981-1.02-.54-.135-1.111-.463-1.27-.729-.395-.661-5.21-4.908-5.513-4.861-.134.02-.902.328-1.706.683m4.62-.079c-.279.727-.319.666.821 1.258 1.398.727 1.689.513.984-.726-.74-1.3-1.432-1.504-1.805-.532m-9.603 2.288c-.528.636-.401.715.554.349.34-.131.618-.394.618-.586 0-.541-.633-.413-1.172.237m40.018 3.251c0 1.21-.735 1.08-.888-.157-.088-.71.031-.978.38-.862.279.093.508.552.508 1.019m-19.357.092c.514.428 1.028.684 1.143.569.249-.249-1.127-1.349-1.687-1.348-.214.001.03.351.544.779m26.789.505c-.221.247-.336.779-.255 1.183.203 1.01-.627 1.428-2.398 1.208-1.254-.155-1.41-.099-.977.347a63 63 0 0 1 1.593 1.758c1.337 1.521 1.645 1.528 2.382.051.832-1.668.539-5.534-.345-4.547m2.998 1.785c.649.831 1.436 1.366 2.115 1.438 1.304.14.867-.365-1.586-1.828l-1.563-.933zm-28.4.598c-.725.542-.704.579.466.821 1.591.33 2.212 1.547 2.039 3.996-.116 1.643-.044 1.913.447 1.662.323-.165.807-.221 1.078-.124.478.172 4.391-2.82 4.391-3.358 0-.148-.835-.512-1.855-.81-2.108-.615-3.042-1.091-4.069-2.071-.872-.832-1.501-.861-2.497-.116m-3.298 1.763c0 .207.378.579.841.827.725.388.805.359.586-.214-.14-.365-.255-.737-.255-.827s-.264-.163-.586-.163-.586.17-.586.377m13.282 3.315c0 .311-.282.724-.627.916-.857.48-.529 1.81.482 1.956.454.065.979.456 1.168.869.592 1.296 2.266.142 2.417-1.666.112-1.333.013-1.486-1.317-2.041-1.784-.746-2.123-.751-2.123-.034m10.82 2.805c-.15.151-.279.64-.286 1.088-.007.447-.271 1.155-.586 1.572-1.096 1.449-.744 2.167 1.087 2.214 2.712.071 3.558-.086 4.043-.749.581-.795.261-1.82-.398-1.273-.478.396-2.18.139-2.18-.329 0-.146.559-.433 1.243-.638s1.321-.612 1.414-.903c.126-.396-.065-.455-.756-.235-1.483.473-2.077.414-2.087-.207-.01-.622-1.04-.994-1.494-.54"/></svg>
