<svg xmlns="http://www.w3.org/2000/svg" id="coconut" viewBox="0 0 333.776 334.831"><path fill="currentcolor" d="M148.059 1.172C62.692 11.879-.037 82.204 0 167.16c.058 135.406 149.724 214.064 262.424 137.918 72.778-49.172 93.53-153.78 45.244-228.072-34.492-53.07-98.53-83.495-159.609-75.834m43.094 19.798c105.572 17.108 159.062 140.33 99.338 228.839-69.525 103.034-226.381 81.319-264.917-36.674C-8.61 108.467 82.021 3.284 191.153 20.97m-6.629 27.574c-19.109 3.863-37.738 14.299-42.966 24.067-1.316 2.458-1.881 2.662-4.943 1.784-13.795-3.956-36.59 2.777-52.179 15.413-9.746 7.899-9.786 8.12-2.675 14.587 10.875 9.889 10.215 9.712 16.277 4.364 16.485-14.542 32.777-15.722 43.757-3.17 7.048 8.057 18.419 32.196 18.419 39.1 0 2.127-22.949 62.174-47.411 124.052l-2.307 5.835 13.524-.31 13.525-.31 10.777-30.387c15.511-43.735 24.035-69.2 24.128-72.077.045-1.38 1.561 2.215 3.37 7.989 2.931 9.355 25.528 74.337 31.029 89.226l2.143 5.8h13.18c7.249 0 13.18-.33 13.18-.734 0-1.998-57.073-152.034-61.194-160.87-2.621-5.62-7.063-13.556-9.872-17.635l-5.106-7.418 3.669-3.89c4.438-4.706 15.675-10.148 24.793-12.008 3.683-.751 7.03-1.7 7.438-2.106 1.285-1.286-.718-22.973-2.112-22.858-.694.057-4.494.757-8.444 1.556"/></svg>
