<svg xmlns="http://www.w3.org/2000/svg" id="coconut" viewBox="0, 0, 400,391.16022099447514"><path fill="currentcolor" d="M180.110 32.741 C 94.743 43.448,32.014 113.773,32.051 198.729 C 32.109 334.135,181.775 412.793,294.475 336.647 C 367.253 287.475,388.005 182.867,339.719 108.575 C 305.227 55.506,241.189 25.080,180.110 32.741 M223.204 52.539 C 328.776 69.647,382.266 192.869,322.542 281.378 C 253.017 384.412,96.161 362.697,57.625 244.704 C 23.441 140.036,114.072 34.853,223.204 52.539 M216.575 80.113 C 197.466 83.976,178.837 94.412,173.609 104.180 C 172.293 106.638,171.728 106.842,168.666 105.964 C 154.871 102.008,132.076 108.741,116.487 121.377 C 106.741 129.276,106.701 129.497,113.812 135.964 C 124.687 145.853,124.027 145.676,130.089 140.328 C 146.574 125.786,162.866 124.606,173.846 137.158 C 180.894 145.215,192.265 169.354,192.265 176.259 C 192.265 178.385,169.316 238.432,144.854 300.310 L 142.547 306.145 156.071 305.835 L 169.596 305.525 180.373 275.138 C 195.884 231.403,204.408 205.939,204.501 203.061 C 204.546 201.681,206.062 205.276,207.871 211.050 C 210.802 220.405,233.399 285.387,238.900 300.276 L 241.043 306.077 254.223 306.077 C 261.472 306.077,267.403 305.746,267.403 305.342 C 267.403 303.344,210.330 153.308,206.209 144.472 C 203.588 138.852,199.146 130.916,196.337 126.837 L 191.231 119.419 194.900 115.529 C 199.338 110.823,210.575 105.381,219.693 103.521 C 223.376 102.770,226.723 101.822,227.131 101.415 C 228.416 100.129,226.413 78.442,225.019 78.557 C 224.325 78.614,220.525 79.314,216.575 80.113"></path></svg>