<svg id="cpu" viewBox="0 0 16 16" xmlns="http://www.w3.org/2000/svg"><path d="M5 0a.5.5 0 01.5.5V2h1V.5a.5.5 0 011 0V2h1V.5a.5.5 0 011 0V2h1V.5a.5.5 0 011 0V2A2.5 2.5 0 0114 4.5h1.5a.5.5 0 010 1H14v1h1.5a.5.5 0 010 1H14v1h1.5a.5.5 0 010 1H14v1h1.5a.5.5 0 010 1H14a2.5 2.5 0 01-2.5 2.5v1.5a.5.5 0 01-1 0V14h-1v1.5a.5.5 0 01-1 0V14h-1v1.5a.5.5 0 01-1 0V14h-1v1.5a.5.5 0 01-1 0V14A2.5 2.5 0 012 11.5H.5a.5.5 0 010-1H2v-1H.5a.5.5 0 010-1H2v-1H.5a.5.5 0 010-1H2v-1H.5a.5.5 0 010-1H2A2.5 2.5 0 014.5 2V.5A.5.5 0 015 0zm-.5 3A1.5 1.5 0 003 4.5v7A1.5 1.5 0 004.5 13h7a1.5 1.5 0 001.5-1.5v-7A1.5 1.5 0 0011.5 3h-7zM5 6.5A1.5 1.5 0 016.5 5h3A1.5 1.5 0 0111 6.5v3A1.5 1.5 0 019.5 11h-3A1.5 1.5 0 015 9.5v-3zM6.5 6a.5.5 0 00-.5.5v3a.5.5 0 00.5.5h3a.5.5 0 00.5-.5v-3a.5.5 0 00-.5-.5h-3"/></svg>
