<svg xmlns="http://www.w3.org/2000/svg" id="a" viewBox="0 0 400 381.449"><path d="M155.325 4.212c7.858 14.317 6.825 22.428-5.112 40.136-11.982 17.774-13.881 25.554-9.652 39.525l.909 3.003 3.301.412c10.571 1.321 26.318-1.585 39.238-7.241 2.998-1.312 3.209-1.253 4.246 1.195.648 1.531.647 1.532-5.252 3.849-14.105 5.54-19.975 6.622-34.746 6.405l-10.873-.16-7.098 3.621c-36.864 18.807-49.679 42.548-39.479 73.141 2.906 8.715 4.651 11.565 5.588 9.125.158-.411 1.855-2.829 3.773-5.373 15.409-20.451 40.677-23.597 58.72-7.313l3.421 3.088 5.367-1.575c27.564-8.09 59.024-26.004 87.751-49.968 6.518-5.437 6.992-6.266 7.572-13.232C266.114 65.438 198.778.146 156.942.013L153.014 0zm98.21 118.876c-25.854 21.087-52.836 36.486-79.622 45.444-4.304 1.439-7.924 2.706-8.043 2.815-.12.11.695 1.579 1.81 3.266 12.974 19.63 14.689 48.839 4.126 70.255-1.085 2.2-1.854 4.118-1.709 4.263 1.016 1.016 34.993-12.497 48.406-19.252 3.961-1.995 4.203-2.226 3.859-3.685-1.738-7.368-.836-24.016 1.795-33.129 11.988-41.517 53.581-52.419 76.693-20.102 3.641 5.091 3.267 4.905 5.718 2.834 2.225-1.88 4.993-10.166 5.604-16.778 1.867-20.179-15.02-36.854-43.369-42.825-5.632-1.186-5.024-1.461-15.268 6.894m54.15 57.266c-1.2.895-1.463 1.424-1.072 2.155 8.776 16.428 8.339 45.103-.971 63.578-19.903 39.499-66.637 33.853-80.724-9.753-.688-2.129-1.337-3.87-1.443-3.87s-3.8 1.673-8.21 3.718c-15.256 7.073-32.874 13.976-46.099 18.061-2.744.848-4.01 1.744-7.537 5.337-13.54 13.796-30.694 17.025-46.352 8.724-3.202-1.697-3.366-1.721-7.536-1.117-11.128 1.613-24.867 2.502-42.813 2.772l-19.421.291-6.482 3.083C12.316 286.033 0 303.508 0 328.704c0 21.319 5.72 33.879 19.366 42.522 19.662 12.453 40.015 11.375 129.481-6.861 110.204-22.463 182.841-58.986 200.925-101.028 16.39-38.102 3.997-67.152-35.087-82.246-5.943-2.296-5.039-2.2-7-.737m-44.842 2.119c-17.983 6.431-22.694 40.218-7.87 56.438 13.96 15.275 33.757 1.851 34.727-23.549.833-21.78-12.447-38.042-26.857-32.889m-176.026 1.28C51.74 196.791 39.547 221.603 49.35 260c1.609 6.305 1.295 6.089 8.837 6.077 13.58-.022 47.461-2.264 48.406-3.203.119-.118-1.266-1.853-3.078-3.855C87.3 241.1 82.357 211.214 91.643 187.246c2.407-6.211 2.434-6.191-4.826-3.493m41.299-.167c-3.721 1.35-9.753 7.544-12.033 12.356-13.621 28.742 9.502 64.039 29.621 45.218 20.889-19.54 6.59-66.344-17.588-57.574m219.12 93.95c-27.449 37.362-92.513 68.134-190.279 89.991-4.798 1.073-7.441 2.323-4.928 2.33.399.001 5.42.641 11.159 1.421 25.537 3.472 50.647 6.485 65.218 7.825 3.666.337 9.536.893 13.043 1.236 10.01.978 55.775 1.374 65.428.566 38.242-3.202 69.295-13.477 82.257-27.218 21.895-23.209 9.853-60.605-24.773-76.931-4.442-2.095-11.035-4.292-12.876-4.292-.287 0-2.199 2.282-4.249 5.072m-200.569 13.437c35.989 5.375 74.35 5.269 111.994-.31 20.042-2.97 21.174.704 5.05 16.396-35.966 35.004-84.188 36.477-122.55 3.743-10.562-9.012-15.306-15.706-13.172-18.586 2.36-3.185 4.653-3.338 18.678-1.243"/></svg>
