<svg xmlns="http://www.w3.org/2000/svg" fill="currentColor" viewBox="0 0 97.115 89" xmlns:v="https://vecta.io/nano"><ellipse rx="12" ry="11" transform="matrix(1.430781 0 0 1.430781 72.024726 32.792769)"/><ellipse rx="12" ry="11" transform="matrix(.459728 0 0 .459728 91.589334 15.497389)"/><path d="M2.137 12.17C.941 12.315.004 13.269 0 14.424v58.969c.075.893.317 2.735 2.829 2.735l22.583-.09c6.455-.012 10.779-.122 13.354-.447h.061c2.464-.342 5.074-.973 7.913-1.894 4.934-1.543 9.309-3.822 13.071-6.866 3.683-2.949 6.537-6.441 8.543-10.368s3.017-8.081 3.01-12.386c-.011-5.993-1.824-11.604-5.461-16.653S57.3 18.507 51.19 15.947c-6.212-2.634-14.312-3.834-24.361-3.816l-24.387.036c-.105.001-.204-.012-.306.003zm13.126 12.131l10.512-.015c4.913-.009 8.408.14 10.391.413 2.01.276 4.211.859 6.542 1.759 2.31.88 4.324 1.958 6.055 3.3 4.761 3.702 7.006 8.083 7.016 13.883.01 5.939-2.158 10.566-6.796 14.446-1.427 1.178-3.013 2.176-4.763 3.002-1.654.77-3.812 1.434-6.537 2.007-2.57.514-6.471.807-11.55.816l-10.818.016-.051-39.627z"/></svg>
