<?xml version="1.0" encoding="utf-8"?>
<!-- Generator: Adobe Illustrator 26.5.0, SVG Export Plug-In . SVG Version: 6.00 Build 0)  -->
<svg version="1.1" id="logo_x5F_firebase_x5F_192px_x5F_clr"
	 xmlns="http://www.w3.org/2000/svg" xmlns:xlink="http://www.w3.org/1999/xlink" x="0px" y="0px" viewBox="0 0 1080 1080"
	 style="enable-background:new 0 0 1080 1080;" xml:space="preserve" fill="currentColor">
<g>
	<path d="M225.6,852.1L44.8,671.4c-21.4-22-34.8-53.1-34.8-83.4c0-14,7.9-36,13.9-48.7l166.9-347.6L225.6,852.1z"/>
	<path d="M844.4,226.4L663.6,45.7c-15.8-15.9-48.7-34.8-76.5-34.8c-23.9,0-47.4,4.8-62.6,13.9L190.8,191.7L844.4,226.4z"/>
	<polygon points="441.1,1067.7 879.1,1067.7 879.1,880 552.4,775.7 253.4,880 	"/>
	<path d="M190.8,754.8c0,55.8,7,69.5,34.8,97.3l27.8,27.8h625.7L573.2,532.3L190.8,191.7V754.8z"/>
	<path d="M747,191.7H190.8l688.3,688.3h187.7v-431L844.4,226.4C813.1,195.1,785.4,191.7,747,191.7z"/>
</g>
</svg>
