<svg id="dart" viewBox="0 0 136 136" xmlns="http://www.w3.org/2000/svg"><g fill="currentColor"><path d="M27.7 108.3 4.5 85C1.7 82.2 0 78.2 0 74.3c0-1.8 1-4.6 1.8-6.3l21.5-44.7 4.4 85z"/><path d="M74.3 5c1.9 0 4.9 1.6 6.3 3l14 14-52.2-2.8 26-13 .2-.1.2-.1c.9-.5 2.9-1 5.5-1m0-5c-3.1 0-6.1.6-8.1 1.8l-43 21.5 84.1 4.5L84.1 4.5c-2-2.1-6.2-4.5-9.8-4.5zM106.2 112.8v17.7H55l-15.6-17.7h66.8m5.7-5.7H27L52.5 136h59.4v-28.9z"/><path d="M28.3 28.4 97.4 30l-.2 64.5v1.8l1.2 1.4 7.8 9.4-72.8-.2-2.1-2.1c-2.6-2.6-3-3-3-9V28.4m-5-5.1v72.5c0 7.2.9 8.9 4.5 12.5l3.6 3.6 85.5.2-14.7-17.7.2-69.4-79.1-1.7z"/><path d="M106.9 27.3c-3.8-3.6-7.3-4-12-4H23.3l83.6 83.6V27.3zM111.9 32.3v80H136V56.4zM106.4 30.4l8.5 8.5-8.5-8.5z"/><path d="m104.3 24.7-3.5 3.6 14.1 14.1 3.5-3.5-14.1-14.2zM106.1 103.3l4.2 4.5-4.2-4.5zM100.3 93.3l-3.7 3.3 13.6 14.7 3.7-3.4-13.6-14.6z"/></g></svg>