<svg xmlns="http://www.w3.org/2000/svg" id="a" viewBox="0 0 400 240.625"><path d="M234.079 1.215c-17.424 3.462-41.008 15.214-53.797 26.809-2.972 2.693-3.078 2.263-1.817-7.341 2.639-20.09-5.509-21.263-31.199-4.491-25.001 16.322-31.462 25.997-20.95 31.373 4.533 2.318 6.944 1.363 16.653-6.599 6.053-4.965 16.427-12.299 16.828-11.897.125.125-.488 5.923-1.364 12.884-1.724 13.713-1.566 15.839 1.384 18.573 4.955 4.592 8.279 3.285 19.127-7.518 17.93-17.859 36.3-29.169 54.92-33.815 6.613-1.65 5.744-3.344 7.484 14.594 1.8 18.553 2.664 20.572 9.177 21.425 3.204.419 2.916.577 12.826-7.011 6.939-5.312 13.276-8.675 21.587-11.455 6.459-2.16 21.234-5.03 22.006-4.274.167.163-2.387 8.129-5.676 17.701-7.897 22.99-7.802 24.356 1.915 27.411.676.212 4.114-.449 7.639-1.47 7.768-2.25 22.625-3.516 32.859-2.8l7.352.514-10.173 11.078c-14.661 15.963-14.754 19.723-.626 25.154 10.62 4.083 22.521 11.549 32.354 20.296l4.229 3.762-17.119 4.069c-28.937 6.878-30.836 9.756-16.051 24.325 10.52 10.366 22.187 27.53 20.934 30.796-.676 1.763-25.01 3.967-42.706 3.869-43.295-.24-97.704-18.581-136.914-46.152-3.33-2.342-6.055-4.37-6.055-4.507s1.045-2.486 2.323-5.219c13.41-28.703-13.36-52.928-42.07-38.071l-5.873 3.039-3.948-2.618c-11.084-7.351-20.939-11.462-27.481-11.461-4.906 0-4.827-.928.714-8.423 8.122-10.985 8.663-13.312 4.148-17.827-7.465-7.466-15.36-.096-34.462 32.174-1.802 3.043-4.939 7.613-6.971 10.156a6278 6278 0 0 1-7.921 9.884c-8.67 10.792-20.654 16.82-40.095 20.17-16.665 2.871-21.165 10.235-14.612 23.909 11.554 24.108 43.724 34.724 88.071 29.062l7.526-.961 6.536 2.585c3.596 1.422 9.701 3.392 13.568 4.378 4.834 1.232 6.543 1.946 5.469 2.284-17.96 5.638-31.917 29.207-22.734 38.39l2.656 2.656 32.695-.017c30.302-.016 32.932-.125 35.928-1.485 8.91-4.046 14.346-13.542 14.346-25.063v-2.914l5.273.294c7.402.413 43.263 1.841 46.224 1.841h2.449l-1.192 2.305c-4.849 9.378-4.374 21.776.927 24.191 3.698 1.685 57.568 1.119 61.018-.641 5.903-3.011 12.81-12.368 15.684-21.247l.911-2.813 12.283-.453c14.04-.517 47.253-4.179 50.173-5.533 3.999-1.853 5.209-5.832 3.694-12.145-2.888-12.031-9.822-25.839-17.629-35.108-5.703-6.769-6.98-5.684 12.108-10.287 19.682-4.746 21.358-5.682 21.358-11.92 0-9.332-28.799-35.995-45.625-42.241-.473-.175.402-1.681 1.944-3.346 20.511-22.147 21.531-23.524 20.699-27.958-.859-4.576-3.852-6.5-12.185-7.833-15.601-2.496-39.831-3.28-46.268-1.498-1.097.304-.31-2.644 4.102-15.378 5.923-17.096 6.201-18.664 3.953-22.35-5.163-8.468-41.675-3.796-63.116 8.076l-4.855 2.689-.375-1.81c-.207-.995-.77-6.358-1.252-11.918-1.415-16.337-4.713-18.471-22.943-14.848M111.183 46.792c-3.101 1.945-4.239 4.016-4.292 7.803-.119 8.671 11.215 11.82 16.04 4.457 4.993-7.621-4.069-17.078-11.748-12.26m-5.751 63.354c4.759 1.365 16.489 8.848 15.935 10.167-6.632 15.787-5.258 23.437 4.208 23.437 4.764 0 7.359-2.434 8.746-8.203 4.797-19.964 32.896-27.878 32.859-9.255-.019 9.572-11.414 22.101-20.135 22.138-7.301.031-11.797 7.283-8.244 13.297 3.218 5.447 13.23 5.224 23.803-.531 2.676-1.457 4.238-1.897 4.931-1.39 18.725 13.682 42.844 27.05 64.496 35.748.645.259-.586.318-2.734.131s-15.005-.74-28.571-1.23c-32.492-1.173-30.592-2.042-31.206 14.283-.373 9.938-.534 10.832-2.284 12.695l-1.883 2.005h-46.875l1.894-2.057c3.986-4.328 8.726-5.74 19.302-5.748 15.949-.013 17.357-1.285 17.357-15.684v-9.48l-2.559-2.559c-2.178-2.179-3.312-2.639-7.617-3.096-15.882-1.684-29.382-4.962-38.928-9.454-6.537-3.076-7.176-3.132-17.761-1.537-15.767 2.374-37.392 2.239-44.193-.277-1.511-.559-1.511-.591-.031-2.486 3.731-4.775 7.187-13.599 8.747-22.329l.988-5.525 5.072-3.755c3.429-2.538 7.695-7.069 13.166-13.985 11.891-15.033 19.546-18.754 31.517-15.32M86.235 128.01c-6.569 4.124-5.211 16.98 2.044 19.349 6.571 2.145 10.94-1.805 10.94-9.89 0-8.895-6.426-13.576-12.984-9.459m-50.297 24.755c0 2.627-7.104 12.079-9.078 12.079-.918 0-8.11-7.671-8.11-8.651 0-.261 2.549-.928 5.664-1.482 3.115-.555 6.367-1.292 7.227-1.638 1.828-.737 4.297-.914 4.297-.308m263.281 62.707c0 .346-1.047 2.279-2.327 4.297l-2.326 3.669h-19.549c-11.428 0-19.548-.3-19.548-.722 0-1.392 4.244-5.746 6.602-6.773 2.671-1.164 37.148-1.601 37.148-.471"/></svg>
