<svg xmlns="http://www.w3.org/2000/svg" id="a" viewBox="0 0 400 400"><path d="M63.064 277.805c-30.968-32.818-49.088-78.154-49.042-132.245C13.98 97.723 29.01 56.604 54.848 25.315l-.04.016H.496v252.48h62.53Zm286.036.022c13.34-14.29 25.295-31.118 36.127-50.362l-60.115-30.056c-21.113 34.322-51.987 65.914-94.68 66.124-62.135-.21-86.548-53.343-86.413-121.731h232.19c.31-7.72.31-11.311 0-15.027 1.516-40.687-9.267-74.886-28.882-101.52l-.102.076h52.279v252.48h-50.518ZM147.776 83.19c2.57-30.963 26.982-51.785 55.605-51.849 28.819.064 49.64 20.886 50.346 51.849ZM33.559 320.64v-10.518H1.248v62.367h32.311v-10.52H13.271v-16.53h19.537v-10.521H13.27V320.64Zm54.854 25.549c8.055-1.196 12.478-9.177 12.774-17.282-.296-13.26-8.891-18.747-21.04-18.785h-16.53v62.367h12.022v-24.796l15.028 24.796h15.029Zm-12.774-26.3h1.503c6.56.247 11.482 1.744 11.271 9.769.211 7.354-4.545 9.349-11.271 9.017h-1.503Zm67.628-9.767h-12.022v62.367h29.305v-10.52h-17.283Zm78.9 49.593 5.26 12.774h12.774l-23.294-63.871h-9.768l-24.798 63.87h12.775l5.26-12.773Zm-3.006-9.768h-15.028l6.763-23.294Zm43.583 22.542h12.774v-42.08l33.063 43.583h9.017v-63.87h-12.774v42.08l-33.063-43.584h-9.017Zm107.454-33.063v9.769h13.526c-.282 7.851-6.707 14.502-14.277 14.277-11.956.225-17.881-11.33-18.035-21.792.154-10.321 5.995-22.375 18.035-22.541 6.318.166 11.66 4.488 14.277 9.768l10.52-5.26c-4.627-9.745-13.973-15.15-24.797-15.03-18.633-.12-30.565 15.26-30.809 33.063.244 17.361 11.843 32.824 30.057 33.063 19.67-.239 28.766-15.95 28.554-33.814v-1.503"/></svg>
