<svg xmlns="http://www.w3.org/2000/svg" id="factor" viewBox="0 0 436.623 385.257"><path fill="currentColor" d="M.32 192.497s.881-.685 2.999-3.628c.88-1.222 1.761-2.317 1.96-2.433.516-.302 9.283-12.703 15.908-22.502 9.916-14.666 15.395-23.758 20.204-33.526 5.077-10.312 6.996-16.005 8.577-25.446C52.107 92.2 55.154 82.95 61.18 70.937c3.49-6.96 7.35-13.252 12.01-19.576 16.937-22.99 41.16-40.153 65.067-46.1 10.885-2.709 16.523-2.82 30.15-.593l3.83.625 1.55-.872c.851-.48 2.406-1.161 3.454-1.514 1.789-.603 2.325-1.947 8.725-1.86 3.893.053 6.818 1.403 6.818 1.403l2.258 1.073c1.241.59 2.644 1.349 3.116 1.685l.86.612 5.026-1.68 5.026-1.68S217.137-.001 227.885 0c8.908.002 19.47 2.288 19.47 2.288l4.268 1.052c5.296 1.304 8.75 2.399 13.429 4.256 4.237 1.681 10.527 4.657 13.657 6.461a201 201 0 0 0 3.887 2.18c3.687 1.993 10.647 6.891 16.479 11.597 3.936 3.177 7.957 5.351 13.005 7.034 6.948 2.315 8.566 2.293 18.218-.248 7.323-1.927 10.091-1.275 20.835 4.91 4.555 2.621 9.692 5.171 11.156 5.538.502.125 2.09.64 3.53 1.143 3.327 1.164 6.23 1.832 11.342 2.613 22.565 3.444 38.713 9.928 47.594 19.112 1.382 1.43 4.444 5.547 4.968 6.683.234.506.139.827-.493 1.655-.43.564-1.048 1.721-1.371 2.57-.944 2.48-1.367 8.977-.582 8.954.107-.004 1.293-1.573 2.635-3.49 1.341-1.916 2.547-3.483 2.679-3.483.41 0 1.604 5.256 2.575 11.341 1.582 9.921 1.98 25.01.674 25.512-1.505.577-9.36-2.617-14.039-5.708-8.534-5.64-13.59-8.343-17.471-9.341-1.9-.489-3.626-.663-7.684-.777-6.107-.171-8.818.122-19.093 2.068-18.563 3.516-26.735 4.121-61.172 4.533-15.712.188-25.135.427-29.809.754-3.815.268-10.56.485-15.268.493-9.083.015-11.714-.225-23.12-2.116-13.553-2.247-18.88-2.438-23.18-.83-2.097.785-5.382 3.973-6.844 6.642-3.22 5.88-4.083 13.45-2.03 17.836 2.13 4.552 4.872 5.943 15.603 7.916 6.164 1.133 14.417 3 18.197 4.116 3.539 1.045 10.11 3.68 13.668 5.482 4.973 2.519 7.734 4.328 15.779 10.341 12.244 9.152 17.414 12.488 26.057 16.814 8.413 4.211 15.263 6.888 34.648 13.539 6.638 2.277 13.836 4.84 15.995 5.696 9.112 3.61 18.537 8.99 24.428 13.945 11.584 9.742 23.4 22.373 26.26 28.073 1.134 2.257 1.269 3.427.486 4.21-.568.567-.862.628-2.427.496-2.414-.203-4.762-1.041-9.923-3.54-4.381-2.122-6.235-3.276-12.288-7.652-3.925-2.836-6.89-4.366-11.063-5.706-6.932-2.226-13.02-2.694-28.85-2.217-27.051.815-55.994-1.516-69.066-5.562-8.417-2.605-15.623-6.099-35.046-16.992-27.103-15.201-28.993-16.05-46.291-20.777-15.325-4.188-18.25-5.713-26.145-13.635-3.861-3.874-5.007-5.356-9.207-11.897-5.754-8.964-10.049-21.64-11.303-33.361-.333-3.115-.135-13.81.332-17.885.416-3.636 1.429-9.714 1.764-10.588.098-.255.066-.463-.071-.463-.715.001-3.427 8.302-4.608 14.104-2.355 11.566-1.486 24.46 2.418 35.916 2.697 7.913 6.127 14.416 11.153 21.148 10.82 14.49 25.6 25.17 42.351 30.606 1.81.587 3.291 1.19 3.293 1.339.014.845-6.682 1.695-11.816 1.5-12.528-.475-25.527-6.102-38.84-16.815-6.118-4.923-16.56-15.506-16.56-16.785 0-.176-.91-1.455-2.022-2.84-9.445-11.773-17.375-27.243-20.691-40.369-.941-3.725-2.003-10.247-2.005-12.318-.002-2.105-.479-1.371-1.134 1.744-1.193 5.677-1.525 9.52-1.338 15.486.268 8.522.874 13.12 2.61 19.78 1.69 6.482 4.087 12.52 6.953 17.51 1 1.742 1.902 3.386 2.004 3.654.352.916 3.666 5.66 6.062 8.678 3.034 3.82 9.094 9.874 13.05 13.038 12.589 10.068 28.576 17.026 46.167 20.093 1.24.217 2.109.512 2.109.717 0 .446-6.178 6.046-10.33 9.364-8.152 6.513-15.899 10.413-25.261 12.72l-2.875.708-1.681-.849c-16.844-8.503-33.307-23.51-44.57-40.628-3.93-5.972-10.086-17.757-10.091-19.316-.001-.376-.724-2.58-1.607-4.9-2.904-7.633-4.773-14.694-6.082-22.974-1.2-7.585-1.242-7.683-1.34-3.054-.24 11.367.208 17.9 1.94 28.21 1.067 6.36 1.987 10.08 4.025 16.285 5.284 16.084 13.154 29.983 25.193 44.494 5.035 6.07 19.64 19.973 24.651 23.467l.685.477-1.908 4.46c-5.341 12.484-9.175 25.768-10.922 37.844-.296 2.047-.62 3.802-.718 3.9-.516.517-11.01-8.396-17.35-14.736-22.834-22.83-37.628-52.37-45.191-90.232-1.672-8.369-2.775-15.552-2.807-18.273-.014-1.189-.117-2.816-.228-3.615-.186-1.34-.22-1.214-.437 1.599-1.458 18.98.078 41.144 4.202 60.635 5.925 28.003 16.826 51.595 31.974 69.199 3.387 3.936 10.242 10.52 14.042 13.487 3.347 2.613 9.41 6.742 11.576 7.88l1.34.706.193 3.22c.57 9.53 4.2 45.921 5.59 56.052l.187 1.356S-7.445 300.164.319 192.497zm397.79 28.892-3.48-3.597.717-.7c1.33-1.295 6.523-5.692 6.725-5.692.662 0 1.535 5.346 1.295 7.93-.247 2.651-1.035 5.75-1.45 5.698-.18-.023-1.893-1.66-3.807-3.639m-9.743-9.536c-1.995-1.818-3.665-3.421-3.712-3.563s.51-.957 1.239-1.811c1.62-1.9 2.762-3.548 3.603-5.203.35-.69.783-1.207.961-1.147.485.161 1.687 3.557 2.136 6.037.607 3.345.42 8.694-.31 8.907-.16.046-1.923-1.403-3.917-3.22m-9.783-8.113c-1.777-1.305-3.46-2.507-3.742-2.67-.46-.269-.344-.533 1.153-2.618.916-1.276 2.186-3.268 2.822-4.426.637-1.16 1.254-2.167 1.372-2.24.644-.398 2.213 4.496 2.528 7.881.241 2.595-.1 6.509-.564 6.472-.186-.014-1.792-1.094-3.57-2.399zM368 197.242c-1.999-1.05-3.672-2.004-3.716-2.118-.045-.115.652-1.374 1.549-2.799s2.155-3.67 2.797-4.99c.64-1.32 1.267-2.399 1.391-2.399.374 0 1.682 3.223 2.053 5.055.562 2.78.39 9.235-.243 9.178-.108-.01-1.831-.877-3.83-1.927zm-10.608-4.792c-1.917-.794-3.523-1.482-3.57-1.529s.691-1.321 1.64-2.832c.95-1.51 2.16-3.624 2.689-4.697s1.097-1.907 1.262-1.853c.56.183 1.589 2.372 2.035 4.327.698 3.055.543 8.127-.245 8.056-.18-.016-1.895-.678-3.811-1.472m-9.894-3.642c-2.08-.712-3.873-1.384-3.986-1.494s.637-1.488 1.667-3.06c1.03-1.574 2.3-3.758 2.823-4.854.522-1.096 1.111-2 1.308-2.009.446-.02 1.317 1.663 1.949 3.765.511 1.7.69 7.786.252 8.543-.188.326-.947.158-4.013-.891m-10.324-3.498c-2.16-.73-3.964-1.357-4.01-1.395-.047-.038.692-1.23 1.641-2.65s2.275-3.628 2.945-4.908 1.318-2.431 1.441-2.56c.664-.693 2.297 3.675 2.542 6.8.179 2.285-.097 6.101-.438 6.061-.107-.012-1.962-.62-4.121-1.348m-9.96-3.478c-2.04-.73-3.708-1.437-3.708-1.57 0-.135.723-1.33 1.608-2.656.884-1.327 2.16-3.491 2.835-4.81s1.38-2.398 1.565-2.4c.451 0 1.423 2.066 1.977 4.205.702 2.711.534 8.614-.244 8.574-.18-.01-1.994-.614-4.033-1.343m93.33-57.68c-.087-3.916-.244-7.532-.351-8.035l-.194-.914 4.522 2.222c2.486 1.223 4.528 2.395 4.536 2.605s-.475 1.387-1.074 2.617c-.862 1.772-1.73 2.899-4.186 5.432l-3.098 3.196zm-105.01-3.413c-1.092-3.16-2.297-6.361-2.678-7.115s-.692-1.442-.692-1.527 2.372-.155 5.272-.155h5.272l-.194 1.72c-.313 2.76-1.246 5.687-2.991 9.376-.897 1.895-1.714 3.444-1.817 3.444s-1.08-2.584-2.172-5.743m-11.752 4.944c-.142-.28-1.014-2.734-1.937-5.453s-2.056-5.696-2.518-6.616l-.84-1.672h10.562l-.172 1.817c-.095 1-.454 2.734-.798 3.854-.626 2.032-3.588 8.579-3.882 8.579-.086 0-.272-.23-.415-.51zm25.404 0c-.11-.28-.979-2.78-1.932-5.555s-2.064-5.7-2.47-6.5c-.404-.8-.694-1.49-.643-1.534s2.416-.142 5.258-.217l5.166-.136-.189 1.482c-.372 2.93-1.284 5.779-2.989 9.343-.954 1.994-1.795 3.626-1.869 3.626-.073 0-.223-.23-.332-.51zm13.813-1.018c-.187-.52-1.035-2.974-1.884-5.453s-1.846-5.126-2.216-5.883-.612-1.434-.54-1.506 2.387-.225 5.144-.34l5.013-.208-.186 1.424c-.379 2.903-1.295 5.756-2.984 9.285-.954 1.994-1.796 3.626-1.871 3.626s-.29-.425-.476-.945m15.478-.09c-.164-.31-1.05-2.79-1.968-5.508-.918-2.72-2.036-5.673-2.482-6.563l-.812-1.618 4.848-.493c2.666-.271 5.012-.492 5.212-.49.897.007-.01 5.217-1.563 8.974a78 78 0 0 1-1.97 4.346c-.85 1.687-1.003 1.85-1.265 1.353zm48.99-6.837c-.115-4.784-.302-7.368-.628-8.674-.255-1.023-.42-1.903-.367-1.956.124-.124 5.624 2.937 7.866 4.376 1.971 1.265 1.972 1.269.331 4.763-.794 1.691-1.612 2.753-4.017 5.214l-3.02 3.091zm-36.695 1.11c-.932-2.759-2.134-5.986-2.671-7.17-.538-1.185-.93-2.202-.873-2.26.086-.086 9.86-1.839 10.252-1.839.065 0 .117.777.117 1.726 0 2.056-.613 5.145-1.452 7.318-.89 2.3-3.27 7.242-3.49 7.242-.104 0-.951-2.257-1.883-5.016zm14.981 2.254c-.192-.48-1.129-3.143-2.081-5.918-.953-2.775-2.066-5.703-2.472-6.506s-.632-1.564-.5-1.691c.2-.192 5.472-1.083 9.368-1.583l.983-.127-.145 2.823c-.173 3.35-.999 6.057-3.27 10.726l-1.533 3.149zm12.82-.484c-.149-.39-.617-2.143-1.042-3.894-1.15-4.747-2.154-7.92-3.1-9.794l-.847-1.677h3.004c1.652 0 3.78.138 4.73.307 3.069.546 2.848.272 2.658 3.288-.208 3.297-.83 5.112-3.13 9.12-.99 1.724-1.844 3.185-1.9 3.247-.057.063-.225-.206-.373-.597M196.274 145.58c-14.538-7.686-23.4-17.283-24.88-26.946-.317-2.067.173-6.342.986-8.61 2.053-5.73 6.7-10.066 13.155-12.273 8.24-2.818 18.262-2.759 38.948.231 6.058.876 13.254 1.815 17.743 2.316 9.169 1.022 23.25 1.236 30.387.46 4.974-.54 10.246-1.351 10.051-1.545-.075-.076-5.148-.173-11.274-.216-11.144-.079-16.304-.334-23.932-1.184-7.206-.802-10.676-1.458-28.355-5.358-22.67-5.002-39.178-4.025-49.474 2.927-3.706 2.503-6.963 6.718-8.302 10.743-.814 2.448-.74 7.604.152 10.47 3.214 10.334 14.163 20.67 28.834 27.22 3.076 1.373 8.04 3.28 8.579 3.295.16.005-1.018-.684-2.618-1.53m217.094-52.689c0-.72-1.01-6.607-1.457-8.502-1.088-4.6-2.416-6.3-6.395-8.193-3.39-1.612-5.841-2.22-6.906-1.71-.44.21-.84.647-.886.97-.139.966 1.886 3.226 5.16 5.76 4.014 3.108 4.714 3.86 7.606 8.181 2.115 3.16 2.878 4.086 2.878 3.494m-150.06-18.29c5.105-.865 10.994-3.081 14.446-5.437 2.169-1.48 4.893-4.217 6.213-6.243 2.404-3.69 3.535-9.285 2.731-13.506-1.023-5.37-4.9-10.705-10.483-14.423-17.67-11.77-47.03-7.517-58.43 8.463-1.398 1.96-3.468 5.925-3.222 6.171.088.089 1.254-.874 2.59-2.14 5.417-5.126 13.238-9.34 20.983-11.305 9.32-2.364 18.821-1.906 26.916 1.297 3.27 1.295 9.221 4.668 8.233 4.668-.158 0-1.323-.266-2.588-.59-7.058-1.815-16.817-2.516-22.367-1.609-9.524 1.558-16.233 5.748-18.807 11.746-.896 2.088-.958 2.446-.963 5.576-.005 3.183.04 3.441.95 5.363 1.186 2.502 2.437 4.05 4.785 5.917 4.414 3.51 10.22 5.708 17.089 6.469 2.862.317 8.819.108 11.923-.417zm-10.906-4.545c-7.106-.752-13.478-4.621-15.842-9.62-1.577-3.335-1.446-6.036.449-9.27 2.51-4.282 5.112-5.976 11.903-7.747 1.44-.376 3.414-.685 4.388-.687l1.77-.004.365 2.981c.2 1.64.54 3.7.753 4.58.214.88.545 2.909.735 4.508s.44 3.01.554 3.136c.17.187 5.97-8.445 8.018-11.933.676-1.151 1.101-1.175 2.637-.144 2.499 1.676 4.408 3.753 5.678 6.178.58 1.106.687 1.738.69 4.072.004 2.461-.088 2.95-.837 4.473-1.562 3.183-5.497 6.46-9.595 7.994-3.526 1.32-7.926 1.88-11.667 1.483zm142.063-1.494c-.56-.346-2.458-1.303-4.217-2.128-7.466-3.5-9.686-3.883-26.174-4.513-8.835-.338-15.341-.715-20.357-1.18-5.186-.481-10.837-1.344-11.341-1.732-.16-.123-1.076-.384-2.036-.58-5.845-1.195-13.308-4.174-17.09-6.824-1.15-.806-1.392-.588-.956.862 1.3 4.322 4.974 7.575 10.73 9.504 5.866 1.965 12.57 2.72 27.922 3.149 15.251.425 23.593.814 28.542 1.33 4.548.474 11.17 1.58 13.668 2.281 2.102.59 2.464.544 1.309-.17zm-212.917-.089c-.075-.075-.915-.547-1.866-1.05-5.852-3.09-10.368-8.542-11.904-14.371-.674-2.561-.605-6.482.155-8.765 2.093-6.289 8.724-9.56 17.42-8.592 1.728.192 4.164.61 5.415.93 1.25.32 2.372.483 2.492.361.384-.387-1.739-2.95-3.543-4.279q-4.964-3.654-12.587-3.049c-3.644.29-4.593.56-7.902 2.252-6.915 3.536-9.927 9.98-8.453 18.088 1.675 9.213 8.742 17.122 16.45 18.411 1.048.176 4.485.226 4.323.064"/></svg>
