<svg xmlns="http://www.w3.org/2000/svg" id="a" viewBox="0 0 68.792 92.602"><path d="M29.106 0 13.754 2.297l5.934 32.375c-3.536 1.48-6.794 3.495-9.613 5.988C3.624 46.366 0 54.106 0 62.176 0 78.98 15.4 92.603 34.397 92.602c18.996 0 34.393-13.622 34.395-30.426 0-8.07-3.624-15.81-10.075-21.516a34 34 0 0 0-3.277-2.54l12.559-21.515L59 9.85l-8.92 15.283 1.413-11.47-11.27-1.077-2.379 19.316a39 39 0 0 0-2.918-.142ZM18.682 50.27c3.95.113 7.301 4.621 7.73 10.636l.046 1.27c0 6.45-3.426 11.728-7.725 11.9-4.3.173-7.909-4.823-8.139-11.266s3.004-11.987 7.291-12.503q.402-.049.797-.038m31.75 0c3.95.113 7.301 4.621 7.73 10.636l.046 1.27c0 6.45-3.426 11.728-7.725 11.9-4.3.173-7.909-4.823-8.139-11.266s3.003-11.987 7.291-12.503q.402-.049.797-.038m-34.504 5.29a2 2 0 0 0-.265.012c-1.43.173-2.506 2.021-2.43 4.168s1.28 3.813 2.713 3.756 2.576-1.816 2.576-3.967l-.016-.424c-.143-2.005-1.26-3.506-2.578-3.544m31.75 0a2 2 0 0 0-.265.012c-1.43.173-2.506 2.021-2.43 4.168s1.28 3.813 2.713 3.756 2.576-1.816 2.576-3.967l-.016-.424c-.143-2.005-1.26-3.506-2.578-3.544"/></svg>
