<svg id="gear" xmlns="http://www.w3.org/2000/svg" viewBox="0 0 512 512"><path fill="currentColor" d="M480.1 203.5h-20.2c-16.5 0-30.3-14.2-30.3-31.1 0-8.5 3.6-16.2 10-21.9l13-12.8c12.9-12.8 12.9-33.6 0-46.4L423 61.9c-5.8-5.8-14.5-9.3-23.3-9.3s-17.3 3.5-23.3 9.3l-12.5 12.5c-6 6.6-14 10.2-22.6 10.2-17 0-31.2-13.8-31.2-30.2V34.1c0-17.9-14.5-33.4-32.6-33.4h-40.4C219 .7 204.7 16 204.7 34.1v20.2c0 16.4-14.2 30.2-31.2 30.2-8.5 0-16.4-3.6-22.1-9.8l-12.9-12.8c-5.8-6-14.5-9.3-23.3-9.3S97.9 56 91.9 61.9L62 91.1c-12.8 12.8-12.8 33.6 0 46.3l12.5 12.5c6.6 6 10.4 14 10.4 22.5 0 17-13.8 31.1-30.3 31.1H34.3C16.1 203.5.8 217.7.8 235.8v40.4c0 17.9 15.3 32.3 33.5 32.3h20.2c16.5 0 30.3 14.2 30.3 31.1 0 8.5-3.7 16.5-10.4 22.5L62 374.4c-12.8 12.8-12.8 33.6 0 46.3l29.6 29.5c5.8 6 14.5 9.3 23.3 9.3s17.3-3.5 23.3-9.3l12.9-12.8c5.6-6.2 13.6-9.8 22.1-9.8 17 0 31.2 13.8 31.2 30.2V478c0 17.9 14.4 33.4 32.6 33.4h40.4c18.1 0 32.4-15.3 32.4-33.4v-20.2c0-16.4 14.2-30.2 31.2-30.2 8.5 0 16.5 3.7 22.6 10.2l12.5 12.5c6 5.8 14.5 9.3 23.3 9.3s17.3-3.5 23.3-9.3l29.6-29.5c12.8-12.8 12.8-33.6 0-46.4l-13-12.8c-6.4-5.7-10-13.6-10-21.9 0-17 13.8-31.1 30.3-31.1h20.2c18.1 0 31-14.2 31-32.3v-40.5c.3-18.1-12.6-32.3-30.7-32.3zM363.5 256c0 58.6-47.5 106.4-106.4 106.4S150.8 314.6 150.8 256s47.5-106.4 106.4-106.4S363.5 197.4 363.5 256z"/></svg>