<svg xmlns="http://www.w3.org/2000/svg" id="a" viewBox="0 0 400 384.49"><path d="M172.482 56.429c-24.884 51.034-27.593 56.401-30.448 60.306-1.723 2.357-4.14 5.664-5.37 7.349l-2.236 3.063-18.745 2.742c-10.309 1.508-40.326 5.9-66.703 9.761S.875 146.792.697 146.943c-.178.152 22.096 22.369 49.498 49.371 48.336 47.631 49.816 49.134 49.59 50.371-.817 4.489-23.35 137.615-23.302 137.674.057.072 8.132-4.205 58.74-31.118l24.814-13.196 1.92.891c5.641 2.616 20.57-.152 52.042-9.651l6.04-1.822 51.715 27.475c28.444 15.111 51.739 27.446 51.768 27.411.044-.052-22.558-133.549-23.307-137.664-.225-1.236 1.258-2.743 49.591-50.369 27.403-27.002 49.678-49.221 49.499-49.376s-11.989-1.984-26.244-4.065a65550 65550 0 0 1-43.673-6.39c-9.766-1.433-28.5-4.173-41.633-6.088-28.067-4.092-26.024-3.729-26.326-4.682-.133-.417.225-3.205.796-6.196 3.394-17.81 3.661-40.73.608-52.376-4.805-18.338-18.911-27.445-37.527-24.23-1.459.252-2.975.481-3.368.508-.554.037-3.088-4.813-11.221-21.482C204.939 10.097 200.118.408 200.004.409c-.115 0-12.499 25.209-27.522 56.02m63.259 2.786c10.948 1.987 15.045 18.03 11.824 46.295-6.889 60.449-50.019 105.6-79.691 83.425-5.16-3.856-6.38-10.11-4.788-24.542 2.597-23.542 20.878-57.974 30.781-57.974 8.432 0 9.331 18.627 1.639 33.989-12.163 24.292-5.88 48.091 9.297 35.218 13.059-11.077 28.021-47.952 31.341-77.246 4.218-37.206-10.765-39.306-43.92-6.155-43.557 43.55-60.57 87.348-45.521 117.188 8.004 15.87 19.66 21.72 38.918 19.531 22.67-2.576 46.723-28.411 56.601-60.795 7.661-25.119 14.911-32.14 16.118-15.611.674 9.232 3.378 19.712 11.457 44.401 22.732 69.468 11.6 94.567-51.226 115.494-13.145 4.379-42.204 12.246-48.265 13.068l-2.143.29-2.907-2.794c-9.219-8.858-28.929-37.494-28.929-42.029 0-1.106-.001-1.105 28.775-10.761 62.961-21.127 81.221-33.445 86.824-58.574.934-4.188 1.649-33.495.797-32.653-.227.224-2.566 3.898-5.199 8.163-23.944 38.797-46.721 55.019-77.32 55.07-32.002.052-51.02-17.091-51.02-45.989 0-29.655 73.004-125.482 103.281-135.569 5.005-1.668 9.397-2.144 13.276-1.44"/></svg>
