<svg xmlns="http://www.w3.org/2000/svg" id="a" viewBox="0 0 2260 2260"><path d="M900 1908c137.17-53.265 443.4-77.006 600-52.437-27.114-474.75-34.113-758.18-7.68-1116.3 2.056-27.195 4.283-54.9 6.68-83.245-34.633 68.628-579.45 1206.4-599 1252"/><path d="M1503 297c-123.84 327.12-161.3 844.46-213.46 1389.5-169.5-13.113-449.01 19.795-659.3 108.82 13.528-23.75 771.23-1330.1 872.77-1498.3"/><path d="M1172 1270c-224.3-65.046-473.09 64.996-694 204C631.35 1238.57 1091.25 537.11 1489 0c-301.51 419.86-317.18 1087.9-317 1270m-551.2 988.7c.662-1.037 1.36-2.165 2.068-3.191 36.736-55.29 105.69-101.18 205.1-96.72 193.8 8.619 357.24 25.577 652.18 7.207-290.1-9.342-643.35-48.142-1069.1-124.55 105.83 77.98 193.83 195.4 209.76 217.25"/><path d="M2259.2 2007.9c-351.83 85.376-1111.3 54.312-2014.2-105.24 59.534 32.024 105.24 68.44 160.57 113.87 884.55 158.71 1465.7 153.54 1808.7 60.37 31.307-22.43 35.385-37.956 44.934-69.006"/><path d="M2250.8 1985.6c-316.53 76.867-976 46.6-1793.5-72.332-79.588-11.605-308.23-46.57-445.63-69.063-7.464-15.506-11.282-40.462-11.282-70.79 509.45 68.675 1799.6 275.42 2244 168.26 2.015 12.02 7.115 18.487 6.527 43.929"/></svg>
