<svg xmlns="http://www.w3.org/2000/svg" id="a" viewBox="0 0 400 400"><path d="M209.148 23.46c-6.236 3.295-17.733 16.88-23.947 28.297-8.471 15.565-1.44 66.351 13.146 94.94 4.543 8.906 4.562 11.527.091 12.809l-3.907 1.12 4.13.156c6.259.236 6.634-3.773 1.504-16.104C183.05 103.537 178.529 70.043 187.657 52c9.732-19.24 31.023-36.261 35.762-28.592.895 1.448 1.359 1.475 1.815.109 1.781-5.344 17.482 6.769 22.94 17.697 3.853 7.715 10.851 53.592 11.535 75.622.471 15.181 2.29 19.411 3.096 7.202l.476-7.211 3.125 3.57c2.715 3.102 2.767 3.44.391 2.573-2.664-.971-4.174 4.757-1.863 7.068 2.831 2.831 7.06-.984 6.243-5.632-.635-3.614-.504-4.066.507-1.75l1.364 3.125.779-3.125c.429-1.718.536-.664.239 2.344-.411 4.163-.149 4.909 1.097 3.125 1.303-1.865 1.807-1.922 2.467-.28.546 1.359 1.588.602 3.052-2.22 1.697-3.271 1.788-4.682.385-5.97-1.182-1.084-1.514-1.102-.931-.049.499.9.299 2.621-.444 3.825-1.004 1.623-1.604 1-2.33-2.419-2.12-9.985-5.532-20.569-4.633-14.371.519 3.576.214 5.859-.783 5.859-.899 0-1.683-1.934-1.743-4.297s-.769-5.703-1.575-7.422c-1.022-2.178-1.186-.759-.543 4.688.621 5.259.406 7.302-.658 6.25-.868-.86-1.868-4.024-2.222-7.031l-.642-5.469-.25 5.767c-.362 8.342-3.372 9.198-3.393.966-.009-3.703-.453-9.37-.985-12.593-.643-3.887-.374-5.859.798-5.859.972 0 1.767 2.242 1.767 4.982v4.982l3.225-3.461c2.133-2.29 3.006-4.902 2.578-7.717l-.647-4.255-.234 4.297c-.129 2.363-.766 4.297-1.415 4.297-2.344 0-4.271-10.341-3.493-18.75.437-4.727.19-11.018-.55-13.982-.739-2.963-.777-11.401-.082-18.75 1.176-12.452 1.33-12.883 2.268-6.33l1.006 7.031.234-7.422c.137-4.33-.454-7.422-1.42-7.422-.91 0-1.22-.703-.689-1.562 2.878-4.657 21.646.625 28.426 8.001 12.758 13.88 22.946 88.918 13.371 98.485-2.67 2.668-2.458 4.547.391 3.454 1.548-.595 2.381.085 2.453 2.002.101 2.662.213 2.644 1.353-.224.684-1.718.79-3.307.237-3.53-.554-.223-.73-9.868-.393-21.433 1.765-60.372-12.187-91.393-40.279-89.563l-7.121.464-1.018 8.594c-.559 4.726-1.086 18.378-1.171 30.338-.182 25.524-.819 26.096-3.981 3.573-4.937-35.169-24.226-51.855-46.401-40.139m55.383 28.103c0 4.726.293 6.66.651 4.296s.358-6.23 0-8.593c-.358-2.364-.651-.43-.651 4.297m-33.028 3.795c-.161 5.88.997 13.144 3.168 19.886 1.882 5.842 2.898 11.145 2.259 11.784-1.529 1.529-4.176-2.808-3.004-4.922.61-1.1.349-1.124-.794-.075-2.404 2.208-.506 14.844 2.23 14.844 1.229 0 2.061 1.494 1.957 3.516-.154 2.979-.297 3.063-.94.554-.611-2.386-1.031-2.537-2.162-.781-1.189 1.845-1.641 1.82-2.943-.164-1.25-1.903-1.543-1.683-1.563 1.172-.013 1.933.68 3.516 1.539 3.516s1.563 1.556 1.563 3.459c0 5.325-4.513.133-5.229-6.015-.307-2.644-1.13-5.731-1.828-6.86-.915-1.48-.55-1.777 1.309-1.064 2.006.77 2.507.136 2.259-2.859-.175-2.117-1.161-3.849-2.191-3.849s-2.255-.879-2.722-1.953-.423.085.098 2.577c.666 3.189.417 4.202-.844 3.423-.984-.608-1.782-.889-1.773-.624.052 1.501 4.77 15.433 6.966 20.574 1.416 3.316 2.278 6.326 1.914 6.689-1.013 1.013-5.503-6.413-6.656-11.007-.563-2.246-1.65-4.47-2.414-4.942s.369 4.014 2.517 9.969c2.148 5.956 3.878 11.446 3.844 12.202-.089 1.955-5.658-9.473-7.843-16.094-1.22-3.696-2.243-4.904-3.049-3.6-.703 1.138-2.926 1.636-5.286 1.185-4.896-.936-5.028.437-.913 9.506 3.544 7.811 3.59 8.033 1.654 8.033-3.101 0-7.901-19.68-5.717-23.438 1.108-1.907.97-1.98-.742-.391-3.355 3.114-4.589 2.313-4.817-3.125-.161-3.828-.383-4.19-.902-1.471-.555 2.903-1.119 3.25-2.892 1.779-1.869-1.551-1.946-1.092-.508 3.034.933 2.674 2.284 4.862 3.003 4.862s3.599 6.988 6.399 15.53 5.589 15.223 6.199 14.846 1.844 1.423 2.743 4 2.063 4.686 2.588 4.686.446-.823-.175-1.828c-.769-1.243-.265-1.496 1.572-.791 2.209.848 2.522.397 1.717-2.469-.688-2.445-.541-2.864.483-1.386 1.128 1.626 1.743 1.678 2.642.224s1.507-1.402 2.609.224c1.087 1.604 1.376 1.36 1.187-1.005-.543-6.791.001-7.763 2.57-4.596 1.352 1.668 2.014 2.154 1.47 1.08s-.245-1.953.665-1.953 1.655.745 1.655 1.655.769 1.179 1.71.598c.94-.581 1.396-2.697 1.013-4.702-.647-3.381 2.208-6.304 5.48-5.612.645.137 1.183-.982 1.196-2.486.02-2.337.244-2.393 1.539-.39 1.346 2.083 1.519 2.083 1.562 0s.217-2.084 1.573 0c1.99 3.058.646-33.119-1.723-46.376-1.287-7.202-2.281-9.443-3.913-8.817-1.315.505-2.187-.161-2.187-1.672 0-1.381.703-2.51 1.563-2.51 2.563 0 1.851-10.493-.782-11.503-1.289-.495-2.354-.043-2.367 1.005-.016 1.204-.581 1.042-1.539-.44-1.612-2.494-2.496 4.722-1.897 15.476.567 10.167-2.015 2.956-2.928-8.179l-.92-11.203zm-7.837.709c.1 4.458.557 7.731 1.014 7.273 1.008-1.007.633-13.548-.437-14.618-.418-.418-.678 2.888-.577 7.345m-15.744-4.987c.353 4.056 2.796 7.496 2.906 4.09.06-1.883-.594-3.858-1.453-4.389s-1.513-.397-1.453.299m6.25 2.175c.061 2.077.747 5.183 1.526 6.901.987 2.178 1.127 1.231.464-3.125-1.105-7.254-2.148-9.236-1.99-3.776m24.561 11.198c-.025 7.117-.205 7.592-1.362 3.588-1.136-3.933-.517-11.791.93-11.791.254 0 .448 3.691.432 8.203m-35.498-1.823c.06 2.077.747 5.183 1.525 6.901.987 2.178 1.128 1.231.465-3.125-1.105-7.254-2.149-9.236-1.99-3.776m15.515.812c0 .901 1.758 3.29 3.906 5.308 3.336 3.134 3.907 3.274 3.907.961 0-1.489-.656-2.303-1.456-1.808-.801.494-2.558-.675-3.906-2.6-1.348-1.924-2.451-2.761-2.451-1.861m-8.333 4.787c-.573.573-.986 2.858-.919 5.078.068 2.22.48 3.153.915 2.074s1.333-1.628 1.995-1.219.871-.993.465-3.116c-.805-4.214-.923-4.35-2.456-2.817m-14.962 7.552c-.052.86.902 4.727 2.12 8.594 1.219 3.867 2.209 5.625 2.202 3.906-.015-3.259-4.155-15.234-4.322-12.5m26.898 1.3c.596 1.574 1.085 3.432 1.085 4.13 0 .697 1.018 1.658 2.264 2.136 2.773 1.064 1.445-3.25-2.09-6.784-2.083-2.084-2.223-2.026-1.259.518m17.787 10.028c-.393 1.504-.715.274-.715-2.734s.322-4.238.715-2.734.393 3.964 0 5.468m-26.66-.344c-.881 2.295 1.278 8.548 2.951 8.548.906 0-.171-9.261-1.197-10.287-.432-.432-1.221.35-1.754 1.739m-5.38 3.085c.98 2.152 1.992 3.704 2.248 3.448.951-.951-1.387-7.36-2.684-7.36-.741 0-.545 1.76.436 3.912m86.013 3.9c0 3.008.321 4.238.714 2.734s.393-3.964 0-5.468-.714-.274-.714 2.734m3.125 26.563c0 3.007.321 4.238.714 2.734s.393-3.965 0-5.469-.714-.273-.714 2.735m-131.015 5.554c.636 1.657-.285 1.93-4.002 1.187-7.607-1.522-4.834 2.154 4.98 6.602 6.644 3.011 7.729 3.222 4.81.933-4-3.135-1.499-6.439 4.616-6.099 8.301.462 12.292-.483 11.438-2.709-.981-2.556-6.349-3.086-9.708-.957-1.162.736-4.553.787-7.536.115-4.303-.971-5.253-.779-4.598.928m-18.572 6.937c.528.855 2.503 2.363 4.389 3.352 3.405 1.786 3.408 1.775.452-1.554-2.982-3.358-6.647-4.719-4.841-1.798m104.693-.07c-3.099.612-4.026 1.343-2.735 2.157 1.075.677 2.765.729 3.757.116 1.118-.691 1.38-.429.689.689-.647 1.047-.163 1.804 1.154 1.804 2.405 0 4.797-4.203 2.926-5.14-.607-.304-3.213-.136-5.791.374m-96.094 5.1c3.13 3.33 10.284 5.435 12.04 3.542 1.481-1.598 1.38-2.226-.472-2.936-1.512-.581-1.959-.263-1.249.887 1.12 1.811-1.26 1.477-7.975-1.117-1.719-.665-2.774-.834-2.344-.376m21.875 1.229c0 .859 1.582 1.551 3.516 1.538 2.842-.019 3.067-.314 1.172-1.538-3.03-1.958-4.688-1.958-4.688 0m137.5.781c-1.283 1.546-1.365 2.344-.24 2.344.937 0 1.3 1.054.805 2.343s-.196 2.344.663 2.344c.86 0 1.967-1.055 2.462-2.344s.143-2.343-.781-2.343c-.925 0-1.276-1.055-.781-2.344.494-1.289.656-2.344.358-2.344-.297 0-1.416 1.055-2.486 2.344m-164.062 1.43c2.148 1.148 5.664 2.524 7.812 3.059s1.094-.38-2.344-2.033c-7.071-3.401-11.453-4.223-5.468-1.026m39.062-.259c0 1.403.75 3.014 1.666 3.58 2.68 1.657 2.943.174.55-3.099-1.853-2.535-2.216-2.613-2.216-.481m-63.748 2.351c1.792 2.177 1.482 2.341-2.658 1.4-4.232-.96-4.416-.851-1.892 1.131 4.378 3.435-.724 7.846-7.755 6.705-2.858-.464-5.197-.184-5.197.621 0 .806 1.465 1.465 3.255 1.465 1.925 0 2.978.798 2.576 1.953-.373 1.074-2.189 1.897-4.036 1.829-4.464-.165-4.247 1.463.535 4.023 2.992 1.601 4.787 1.676 7.757.323 2.422-1.104 4.211-1.2 4.793-.257.511.827 2.118 1.499 3.572 1.493 1.801-.007 1.15-.998-2.046-3.114-2.704-1.791-3.677-3.109-2.301-3.115 1.313-.006 4.126 1.171 6.25 2.616l3.864 2.626-2.977-3.407c-2-2.29-4.776-3.408-8.463-3.408-6.243 0-6.071-1.377.237-1.899 2.295-.19 4.172-.895 4.172-1.567 0-2.093 4.208-1.338 6.25 1.122 1.069 1.289 2.671 2.344 3.558 2.344s.45-1.286-.973-2.857c-5.789-6.397-1.516-10.352 6.829-6.321 8.473 4.094 9.833 3.622 2.179-.756-8.065-4.612-20.641-6.729-17.529-2.95m85.733-.099c-.061 1.883.593 3.858 1.453 4.389 1.848 1.142 1.848-.386 0-4.687-1.295-3.013-1.347-3.002-1.453.298m106.14 4.389c-1.104 1.331-1.656 2.771-1.227 3.201.43.429 1.685-.308 2.79-1.638 1.104-1.331 1.656-2.771 1.226-3.201-.43-.429-1.685.308-2.789 1.638m-181.25 3.907c.92 1.718 2.376 3.125 3.235 3.125 1.005 0 .966-1.115-.11-3.125-.92-1.719-2.376-3.125-3.235-3.125-1.005 0-.966 1.114.11 3.125m165.625 0c-1.202 2.246-1.188 3.125.05 3.125 1.046 0 1.309 1.305.669 3.32-.643 2.027-.453 2.95.487 2.368.848-.524 1.913-2.37 2.366-4.104.497-1.902.196-2.763-.76-2.172-.992.613-1.19-.263-.53-2.342 1.331-4.196-.076-4.317-2.282-.195m16.082 13.982c1.01 12.052 2.317 15.232 9.941 24.189 3.24 3.807 5.227 7.816 5.227 10.547 0 2.424.663 4.407 1.473 4.407 1.946 0 .98-15.661-1.046-16.961-.864-.555-2.661-6.393-3.994-12.974-4.394-21.699-13.237-28.717-11.601-9.208m5.89-3.572c1.693 4.455-.075 7.94-3.086 6.08-2.155-1.332-2.24-10.24-.097-10.24.88 0 2.313 1.872 3.183 4.16m-16.997 5.989c-.981 2.152-1.142 3.913-.359 3.913 1.537 0 3.915-6.052 2.812-7.156-.369-.368-1.473 1.091-2.453 3.243m-113.288.606c.51 1.949 1.744 2.689 3.652 2.19 3.599-.941 2.285-5.133-1.61-5.133-1.984 0-2.585.866-2.042 2.943m25.501-2.511c0 .299 2.285 2.216 5.078 4.26 3.142 2.301 4.233 2.678 2.863.99-2.081-2.562-7.941-6.436-7.941-5.25m25 .676c-5.905 2.171-7.813 5.61-7.813 14.079 0 21.742 11.972 31.563 29.789 24.434 20.789-8.318-.869-46.274-21.976-38.513m-140.625 3.58c0 .859 1.582 1.551 3.515 1.538 2.843-.019 3.067-.314 1.172-1.538-3.029-1.958-4.687-1.958-4.687 0m-7.813 1.562c0 1.958 1.658 1.958 4.688 0 1.895-1.225 1.67-1.519-1.172-1.539-1.934-.013-3.516.68-3.516 1.539m17.188-.535c10.464 3.484 11.806 3.684 8.685 1.295-1.668-1.277-4.832-2.267-7.031-2.199-2.206.068-2.948.473-1.654.904m156.25 10.778c0 1.242-.779 2.257-1.73 2.257s-1.325 1.055-.83 2.344c.494 1.289.176 2.344-.707 2.344s-1.197.66-.698 1.467c.499.808-.446 1.366-2.1 1.242-1.983-.149-2.826-1.171-2.474-2.998.294-1.524-.126-3.179-.933-3.677-2.067-1.278-1.821-6.439.487-10.184 2.154-3.495 8.985 1.983 8.985 7.205m-78.125-7.378c0 2.198 1.758 3.212 4.05 2.332 1.2-.46 1.793-1.466 1.317-2.236-1.091-1.764-5.367-1.841-5.367-.096m-83.594 3.475c3.437.711 8.008 1.25 10.156 1.198 6.202-.151-4.045-2.479-10.937-2.486l-5.469-.005zm77.344 3.008c0 .713 1.406.929 3.125.48 1.747-.457 3.125-.048 3.125.927 0 .96-1.231 1.801-2.735 1.868s-1.903.462-.887.877c1.509.614 11.434-3.34 11.434-4.556 0-.193-3.164-.472-7.031-.622-3.867-.149-7.031.313-7.031 1.026m-93.75 2.256c0 1.226-1.231 2.551-2.735 2.944-1.582.413-.814.791 1.823.896 2.507.099 4.095-.282 3.529-.847-.565-.566-.245-1.972.712-3.125 1.335-1.608 1.149-2.097-.794-2.097-1.395 0-2.535 1.003-2.535 2.229m10.937-.666c-4.458.938-4.732 1.189-1.484 1.356 2.191.113 4.742.964 5.669 1.891.926.926 3.704 1.383 6.172 1.015 4.413-.658 4.403-.673-.591-.903-2.793-.129-5.078-.893-5.078-1.699 0-.805 2.636-1.144 5.859-.752 4.499.546 5.134.367 2.734-.77-3.603-1.708-5.72-1.73-13.281-.138m25.391-.486c1.504.393 3.964.393 5.468 0s.274-.714-2.734-.714-4.238.321-2.734.714m35.547 2.048c-3.094.991-3.256 1.251-.782 1.251 1.719 0 4.883-.563 7.032-1.251 3.093-.991 3.255-1.251.781-1.251-1.719 0-4.883.563-7.031 1.251m30.468 4.688c-1.555 1.718-2.125 3.125-1.265 3.125.859 0 2.835-1.407 4.39-3.125 1.556-1.719 2.125-3.125 1.266-3.125-.86 0-2.835 1.406-4.391 3.125m-87.289 2.357c-.79 2.059-.031 2.436 4.098 2.038 5.804-.56 6.237-3.38.627-4.089-2.343-.297-4.12.475-4.725 2.051m17.758-.795-5.469 1.151 5.767.206c3.172.113 6.202-.498 6.733-1.357 1.048-1.695 1.021-1.695-7.031 0m74.046 2.23c-.471 1.227-.624 3.77-.341 5.652l.514 3.421 3.125-3.573 3.125-3.572-3.125 1.138c-2.507.914-2.739.75-1.172-.828 1.074-1.083 1.953-2.53 1.953-3.218 0-2.135-3.176-1.371-4.079.98M98.438 200c-6.949 1.08-6.964 1.096-1.297 1.328 5.001.204 5.865.824 6.746 4.833.555 2.529 1.841 4.354 2.858 4.056 7.584-2.224 8.046-2.55 5.711-4.027-1.983-1.254-1.959-1.458.174-1.479 1.361-.013 2.474-1.037 2.474-2.276 0-1.653-1.283-2.034-4.818-1.431-3.699.631-4.273.434-2.473-.849 2.734-1.948 2.213-1.957-9.375-.155m102.585 4.42c-2.761 3.052-3.502 8.08-1.19 8.08 1.178 0 3.406-3.513 3.962-6.25.088-.43.717-1.66 1.399-2.734 1.906-3.002-1.257-2.316-4.171.904m124.758 4.955c-.586 1.848-.715 3.712-.285 4.142.43.429 1.261-.731 1.848-2.579.586-1.849.715-3.713.285-4.142s-1.261.731-1.848 2.579m-148.437 0c-4.254 1.082-4.326 1.2-.781 1.268 2.148.041 5.312-.529 7.031-1.268 3.853-1.656.256-1.656-6.25 0m-94.531 3.906c-4.992 2.854-3.923 2.866 3.906.045 3.437-1.238 4.844-2.257 3.125-2.265-1.719-.007-4.883.992-7.031 2.22m23.021-1.406c-1.2 1.199 2.053 8.438 3.792 8.438.721 0 1.312.744 1.312 1.654s-.578 1.298-1.283.862c-.705-.435-3.535.578-6.288 2.252s-5.867 3.023-6.92 2.996c-1.054-.026-.509-.859 1.209-1.851 5.326-3.076 7.674-5.913 4.892-5.913-1.3 0-2.798.703-3.329 1.562s-3.561 1.507-6.733 1.439-4.928-.465-3.902-.882 1.478-1.768 1.005-3.002c-.536-1.395.122-2.242 1.742-2.242 1.432 0 2.199.654 1.704 1.454-1.526 2.47 1.376 3.069 4.347.897 2.593-1.897 2.44-2.142-1.935-3.103-5.731-1.259-10.362.042-14.351 4.031-3.596 3.595-3.962 5.738-.488 2.855 2.135-1.772 2.408-1.635 1.953.981-.291 1.672-1.936 3.895-3.655 4.939-2.744 1.666-2.791 1.904-.39 1.953 3.664.074 3.464 2.698-.391 5.105-3.979 2.485-4.115 4.965-.156 2.846 2.247-1.203 3.184-1.026 3.857.726.63 1.643-.184 2.316-2.802 2.316-3.607 0-6.401 3.668-4.785 6.283.447.722.086 1.762-.801 2.31-.888.549-1.188 1.686-.668 2.528.584.945 1.886.755 3.406-.499 2.163-1.783 2.254-1.64.751 1.18-.94 1.765-1.141 4.128-.447 5.252s.915 3.37.49 4.993c-.446 1.707.035 2.953 1.14 2.953 1.057 0 1.51 1.047 1.012 2.343-1.078 2.809-.322 2.912 4.184.569 3.219-1.674 3.197-1.54-.395 2.365-2.787 3.03-3.343 4.603-2.075 5.871.953.953 1.36 2.701.906 3.886-1.076 2.804.228 2.717 5.422-.361l4.242-2.513-3.596 3.22c-4.394 3.934-2.862 12.423 3.468 19.215 5.837 6.264 2.839 8.92-10.809 9.578l-10.938.527 12.891.306c7.756.184 12.891-.316 12.891-1.256 0-.86.681-1.563 1.513-1.563s1.109 1.055.614 2.344c-.624 1.626.108 2.344 2.393 2.344 4.394 0 4.221 4.074-.224 5.265-1.933.518-8.086 1.062-13.671 1.209l-10.157.266 7.813.99c6.078.771 6.945 1.189 3.906 1.886-2.148.492 1.895.991 8.984 1.108 8.556.141 12.891-.372 12.891-1.527 0-1.044-1.874-1.465-4.687-1.052-2.579.379-4.688.107-4.688-.604 0-1.503 5.485-1.663 10.547-.307 10.59 2.838 2.292 5.803-20.703 7.398-4.297.298-.781.446 7.812.33s16.856-.792 18.36-1.504c1.987-.939 2.734-.628 2.734 1.14 0 1.855-2.135 2.567-8.984 2.997-8.664.543-8.58.574 2.343.859 6.231.163 11.153-.232 10.938-.876-.215-.645.312-1.474 1.172-1.842s1.79.51 2.067 1.953c.389 2.02-.658 2.623-4.557 2.623-2.784 0-4.664.398-4.178.884 1.678 1.678 12.815 1.988 15.712.437 2.328-1.245 3.069-.931 3.725 1.579.494 1.886 1.692 2.799 3.01 2.293 1.204-.462 2.19-.08 2.19.848 0 1.111-7.878 1.851-23.047 2.165l-23.047.478 23.033.345c21.543.324 23.16.144 24.986-2.779 2.23-3.572 5.09-4.249 3.805-.901-.869 2.264 5.329 5.281 12.081 5.88 1.805.16-2.694.732-9.999 1.271l-13.281.98 17.187.182c9.467.099 15.804-.36 14.106-1.023-2.7-1.056-2.507-1.314 1.559-2.092 2.634-.503 5.097-.147 5.697.823.744 1.205 1.774 1.115 3.487-.307 1.831-1.52 3.592-1.611 7.15-.371 3.259 1.136 4.72 1.142 4.72.019 0-1.286 6.991-1.211 13.672.147 4.497.914-2.442 3.202-10.938 3.607-6.756.321-2.867.664 9.636.85 11.53.17 20.435-.217 19.79-.862-.645-.644-4.269-1.172-8.053-1.172-3.793 0-6.714-.701-6.509-1.562.204-.86.936-1.374 1.626-1.144.691.23 2.449-.775 3.907-2.232 2.474-2.474 2.684-2.476 3.155-.028.627 3.254 3.402 3.481 3.402.279 0-3.315 3.114-2.932 3.174.39.048 2.605.149 2.605 2.126 0 2.333-3.074 5.637-3.649 5.637-.98 0 1.14.909 1.003 2.598-.391 2.025-1.672 2.743-1.714 3.255-.191.909 2.702 5.929 2.448 8.823-.447 3.317-3.316 3.299-3.313 6.026-1.05 1.337 1.11 2.676 1.378 2.974.597 1.069-2.799 7.574-3.794 7.574-1.159 0 1.347.734 2.45 1.631 2.45s1.424-1.205 1.172-2.678c-.264-1.541.702-2.916 2.275-3.24 1.684-.346 2.735.383 2.735 1.897 0 3.619 2.621 2.991 3.63-.87.553-2.113 1.704-3.008 3.154-2.452 1.441.554 2.666-.379 3.323-2.531.69-2.26 1.324-2.713 1.883-1.345.619 1.515 1.433 1.221 3.063-1.106 1.221-1.743 3.204-2.792 4.407-2.33 1.58.606 1.951-.062 1.337-2.41-.905-3.461 1.841-4.584 3.168-1.295.47 1.167.837.852.911-.781.127-2.82 4.811-3.961 4.811-1.172 0 .859.779 1.563 1.732 1.563 1.067 0 1.355-1.5.751-3.907-1.063-4.238.417-5.049 3.565-1.953 1.602 1.575 1.777 1.047.908-2.734-1.046-4.555-1.002-4.599 1.559-1.563 2.576 3.055 2.615 3.028 1.718-1.172-.973-4.556.422-5.517 3.517-2.422 1.351 1.351 1.875 1.377 1.875.093 0-.981-.703-2.218-1.562-2.749s-1.563-1.627-1.563-2.436c0-2.186 4.316-1.78 5.125.483.383 1.074 1.245 1.443 1.915.819s.336-2.197-.742-3.496c-2.687-3.237-.922-7.302 2.627-6.051 2.198.775 2.403.562.963-.998-2.825-3.059-.734-6.57 3.175-5.329 2.903.921 3.059.74 1.243-1.448-1.141-1.375-1.621-3.235-1.067-4.132s-.088-1.63-1.428-1.63-2.436-.751-2.436-1.668c0-.957 1.332-1.245 3.125-.676s3.125.281 3.125-.676c0-.917-1.055-1.668-2.344-1.668s-2.343-.703-2.343-1.562S324.802 275 326.47 275c3.635 0 5.604-2.534 2.837-3.649-1.385-.559-1.419-.828-.114-.915 1.136-.076 1.559-1.729 1.096-4.281-.444-2.45.08-4.686 1.275-5.445 1.562-.99 1.579-1.293.077-1.311-3.055-.037-2.289-3.146.781-3.173 2.268-.02 2.347-.269.465-1.459-1.248-.79-2.781-1.119-3.408-.732s-1.647-.12-2.269-1.126c-.706-1.142-.453-1.411.674-.714.992.613 1.804.348 1.804-.589-.001-3.002-4.982-3.816-6.522-1.066-2.359 4.217-4.879 3.081-3.689-1.662 1.215-4.839 13.313-18.662 15.679-17.914.86.271.339-.752-1.157-2.275-2.599-2.644-2.964-2.531-8.196 2.54l-5.476 5.307-4.39-4.205c-7.89-7.56-13.313-4.358-5.964 3.521 4.37 4.685 6.957 21.233 3.087 19.748-1.265-.485-2.163.271-2.222 1.871-.068 1.865-.61 1.492-1.773-1.221l-1.675-3.906-1.049 3.906-1.049 3.906-1.304-3.906-1.304-3.906-.664 4.297c-.764 4.935-3.582 5.857-3.582 1.172 0-4.203-1.282-3.938-5.676 1.171-2.504 2.912-3.696 3.523-3.698 1.895-.001-1.321-1.408-2.507-3.127-2.637-1.785-.134-3.125.728-3.124 2.011 0 4.228-3.125 2.255-3.249-2.05-.068-2.363-.475-3.242-.905-1.953-2.314 6.937-2.476 7.021-4.557 2.344-1.302-2.925-2.113-3.659-2.157-1.953-.104 4.036-3.164 3.328-3.376-.782-.137-2.645-.358-2.839-.896-.781-1.003 3.838-3.264 3.404-4.07-.781-.569-2.952-.712-2.812-.89.873-.259 5.331-3.338 4.08-3.338-1.356 0-2.098-.703-3.814-1.562-3.814s-1.563 1.406-1.563 3.125c0 1.829-1.042 3.125-2.511 3.125-1.612 0-2.171-.839-1.562-2.344 2.59-6.4 2.609-7.709.064-4.297-3.25 4.358-6.008 4.577-4.913.391.945-3.614-1.24-4.276-2.581-.781-1.596 4.159-4.232 2.581-3.264-1.953.896-4.199.857-4.226-1.712-1.172-1.566 1.861-2.896 2.425-3.288 1.393-2.076-5.461-4.891-7.528-7.408-5.44-2.205 1.83-2.512 1.56-2.512-2.203 0-3.411-.43-3.933-2.097-2.549-3.214 2.667-4.502.055-1.571-3.184 1.424-1.573 1.893-2.861 1.043-2.861s-3.426 2.109-5.723 4.688-5.05 4.665-6.118 4.637c-1.34-.034-1.215-.644.403-1.971 3.421-2.804 9.69-12.041 8.172-12.041-.713 0-2.22.878-3.348 1.953-1.673 1.593-1.855 1.305-.988-1.563 1.096-3.627-1.449-5.094-2.711-1.562-.383 1.074-1.274 1.414-1.979.755s-.449-2.03.568-3.047c2.586-2.587 2.304-4.426-.513-3.345-1.69.649-2.087.19-1.395-1.611 1.284-3.347-.84-3.213-3.443.216-1.566 2.062-2.088 2.189-2.126.514-.027-1.221 1.181-3.609 2.685-5.306 2.154-2.431 2.237-2.933.391-2.366-1.29.396-3.038 2.256-3.887 4.134-.848 1.878-2.344 3.415-3.324 3.415s-2.747 1.23-3.926 2.734c-1.932 2.463-1.88 2.527.521.647 3.252-2.547 5.928-1.163 5.928 3.067 0 2.499.716 2.941 3.516 2.17 3.164-.871 3.085-.634-.782 2.369-2.363 1.835-4.296 3.987-4.296 4.782 0 1.587 6.345-1.555 8.179-4.05.643-.876 1.158-.32 1.172 1.264.013 1.554.719 2.397 1.568 1.872.886-.548 1.148.08.614 1.47-1.044 2.721-3.721 3.302-3.721.808 0-1.097-1.006-1.079-3.125.055-1.719.919-3.125 2.491-3.125 3.492 0 1.354.48 1.34 1.875-.055 1.031-1.031 2.578-1.875 3.437-1.875.869 0 .73.833-.312 1.875-2.711 2.711-2.31 5.118.469 2.813 1.478-1.227 2.344-1.332 2.344-.284 0 .914-.673 2.077-1.495 2.585s-1.08 2.003-.574 3.322c1.09 2.84 3.647.838 4.26-3.335.226-1.544 1.935-3.371 3.798-4.06 4.275-1.582 4.24-1.189-.521 5.826-2.148 3.166-3.884 6.537-3.856 7.492.048 1.698 2.091-.601 5.626-6.333 3.04-4.928 3.946-1.223 1.013 4.143-1.863 3.411-2.209 5.306-1.045 5.739 1.04.387 1.54 3.605 1.246 8.01-.401 6.009-.212 6.675 1.03 3.621.837-2.059 1.764-3.465 2.059-3.125 1.043 1.2-2.858 18.586-4.17 18.586-.733 0-.886 1.406-.34 3.125 1.089 3.431-.712 4.132-3.487 1.357-1.316-1.316-2.375-.317-4.139 3.906-1.304 3.121-3.123 5.675-4.043 5.675-1.003 0-1.28 1.562-.692 3.906.546 2.173.302 3.906-.548 3.906-2.155 0-3.47-13.878-1.769-18.67 1.367-3.852 1.331-3.881-1.067-.861-1.862 2.345-2.256 5.13-1.577 11.163.707 6.289.395 8.233-1.434 8.935-1.286.494-2.338 1.933-2.338 3.198s-.757 2.769-1.683 3.34c-1.118.692-1.426-.587-.917-3.814.91-5.777-1.322-6.552-2.729-.947-1.503 5.989-3.426 4.642-3.341-2.339.061-4.985.654-6.246 2.941-6.25 1.626-.003 2.559-.849 2.157-1.958-.389-1.074.2-3.008 1.31-4.297s2.429-4.453 2.93-7.031c.909-4.672.905-4.674-1.069-.781-2.479 4.889-12.139 14.972-13.859 14.466-.706-.207-1.861 1.855-2.568 4.582-.706 2.727-2.118 5.235-3.136 5.575-1.291.43-1.148-1.068.471-4.944 1.278-3.059 2.144-6.453 1.924-7.542-.22-1.09.655-2 1.944-2.023 3.849-.067 6.175-2.241 5.178-4.839-.983-2.564-9.084-2.451-15.215.212-2.399 1.042-2.809.793-2.033-1.23.645-1.68.294-2.275-1.04-1.763-3.845 1.475-5.712-3.052-3.232-7.834 3.493-6.731 2.761-10.312-.885-4.332-1.735 2.844-2.672 5.952-2.082 6.906.69 1.116.163 1.385-1.478.756-3.026-1.162-3.52-.485-4.884 6.697-.975 5.134-.891 5.283 1.379 2.436 1.948-2.445 2.417-2.558 2.417-.582 0 4.028-3.735 6.22-6.779 3.979-2.161-1.592-2.343-2.876-1.043-7.385 2.709-9.405 1.497-10.583-1.619-1.573-3.682 10.651-3.696 11.068-.325 9.857 2.342-.841 2.273-.442-.483 2.783-1.769 2.072-4.147 5.876-5.283 8.454s-2.367 3.856-2.737 2.84c-.369-1.016.427-3.969 1.768-6.563 4.145-8.016 2.723-11.014-1.725-3.635-5.012 8.314-6.585 7.582-2.196-1.022 4.303-8.433 4.071-9.831-.683-4.12l-3.902 4.687 1.566-4.398c2.204-6.192 2.035-8.092-.531-5.963-2.506 2.08-4.273.773-3.097-2.292 1.414-3.685-2.099-2.434-4.819 1.716-2.53 3.862-10.299 5.63-10.299 2.344 0-.86.945-1.563 2.101-1.563 2.075 0 8.055-5.632 8.055-7.586 0-.554 1.828-1.033 4.063-1.063 3.156-.043 3.898.572 3.327 2.757-.546 2.088-.082 2.563 1.796 1.842 1.589-.61 2.533-.16 2.533 1.207 0 1.198 1.385 2.282 3.079 2.41 2.969.224 7.522-9.799 5.41-11.911-.441-.44-1.207.751-1.702 2.647-.496 1.896-1.506 3.447-2.244 3.447-.737 0-.7-1.686.083-3.746s.999-4.17.479-4.69c-.519-.519 1.293-4.06 4.028-7.867 5.213-7.259 4.478-10.276-1.679-6.891-5.748 3.159-7.109 2.816-7.811-1.967-.366-2.489.034-4.526.888-4.526.853 0 1.1-.452.548-1.004-.552-.553-2.093-.101-3.423 1.004s-2.791 1.636-3.245 1.182c-.454-.455 1.064-2.313 3.373-4.129 4.724-3.716 3.136-4.556-1.919-1.015-1.797 1.259-3.609 1.948-4.025 1.531s-2.629 2.069-4.915 5.524c-4.521 6.831-6.457 8.08-4.894 3.157.556-1.753.281-3.125-.627-3.125-2.206 0-.393-4.661 3.594-9.237 1.805-2.072 2.404-3.261 1.33-2.642-1.075.619-1.953.521-1.953-.217s.878-2.343 1.953-3.566c1.074-1.223.371-.904-1.563.711s-3.538 4.056-3.565 5.427c-.041 2.047-.46 1.95-2.344-.541-3.067-4.055-3.003-4.246 2.789-8.295 2.766-1.933 4.246-3.515 3.289-3.515-.956 0-2.615 1.054-3.684 2.343-1.07 1.289-2.685 2.344-3.589 2.344s.061-1.912 2.144-4.25 2.589-3.331 1.122-2.209-3.475 1.541-4.463.929c-.989-.611-1.196-1.55-.459-2.087 7.937-5.79-.151-7.829-10.28-2.591-3.932 2.033-4.563 2.065-3.844.191.792-2.065 3.799-3.984 7.65-4.882 6.492-1.514 12.314-5.17 8.594-5.396-3.604-.219-3.665-.341-.782-1.58 2.723-1.17 2.521-1.38-1.562-1.634-2.765-.172-3.566-.584-1.953-1.006 4.548-1.188 3.244-5.172-1.693-5.172-2.435 0-4.849.421-5.364.937m75.416 2.188c-3.218 1.03-3.356 1.274-.781 1.382 1.719.073 4.179-.549 5.469-1.382 2.737-1.77.836-1.77-4.688 0m-59.375 3.23c0 .998 1.411 1.247 3.516.619 3.263-.973 3.313-.893.689 1.113-2.32 1.774-2.538 2.922-1.213 6.406l1.614 4.245 5.509-2.627c3.031-1.445 5.51-3.225 5.51-3.956s-1.36-.6-3.022.29c-4.823 2.581-5.909 1.807-1.847-1.317l3.725-2.864-5.13-1.789c-6.407-2.233-9.351-2.271-9.351-.12m58.594 2.297c-6.189 2.141-6.196 2.153-.781 1.263 3.007-.495 6.523-1.5 7.812-2.235 3.44-1.96.117-1.501-7.031.972m70.164.964-2.977 3.367 4.297-2.765c4.431-2.851 5.269-3.968 2.977-3.968-.727 0-2.66 1.515-4.297 3.366m7.812 0-2.976 3.367 4.297-2.765c4.43-2.851 5.268-3.968 2.976-3.968-.726 0-2.66 1.515-4.297 3.366m11.749.745c-3.612 3.921-3.626 4.013-.302 1.987 1.917-1.169 3.828-3.019 4.248-4.112 1.118-2.915.284-2.466-3.946 2.125m-120.585-.093c-5.841 3.169-5.485 4.489.391 1.45 2.578-1.333 4.688-2.757 4.688-3.165 0-1.005-.168-.949-5.079 1.715m186.016 4.106c1.458 1.459 2.292 1.459 3.75 0 1.458-1.458 1.042-1.874-1.875-1.874s-3.333.416-1.875 1.874M132.031 230.7c-4.324 2.507-5.315 3.632-3.217 3.649 3.003.026 3.003.049 0 2.32-4.73 3.578.625 3.01 6.733-.714 5.436-3.315 7.094-5.894 2.056-3.197-4.9 2.622-5.882 1.786-1.689-1.436 5.732-4.404 3.311-4.792-3.883-.622m-40.625-1.012c-.531.859-2.506 1.551-4.389 1.538-2.783-.019-2.985-.307-1.079-1.538 3.078-1.99 6.698-1.99 5.468 0m19.532 3.739c0 2.234-3.233 4.073-7.16 4.073-3.375 0-2.644-2.441 1.3-4.343 4.805-2.317 5.86-2.269 5.86.27m47.566.039c-1.667 1.219-2.617 2.629-2.112 3.135s2.195-.492 3.756-2.216c3.319-3.668 2.637-4.049-1.644-.919m17.081.076c-1.646 4.288.305 5.895 2.175 1.791 1.168-2.562 1.273-4.083.282-4.083-.867 0-1.973 1.031-2.457 2.292m16.966.832c-1.024 1.639-1.253 3.357-.509 3.817s1.756-.707 2.25-2.593c1.173-4.488.564-4.916-1.741-1.224m-91.387 5.608c-1.601 1.601-5.508-1.317-5.036-3.762.279-1.444.562-2.958.627-3.365.066-.406 1.246.87 2.623 2.836s2.181 3.896 1.786 4.291m234.276-4.649c.944 2.46 3.023 2.839 4.294.782.471-.762-.49-1.737-2.135-2.167-2.093-.547-2.741-.132-2.159 1.385m-200.674 3.332c-5.496 2.735-5.743 3.179-3.625 6.524 1.944 3.072 9.484-1.827 9.484-6.163 0-1.698-.176-3.044-.391-2.989-.214.055-2.675 1.238-5.468 2.628m-23.828.999c0 .331-1.758 1.753-3.907 3.161-3.276 2.147-3.906 2.194-3.906.294 0-1.246 1.23-2.586 2.734-2.979 4.008-1.048 5.079-1.148 5.079-.476m75.601 1.647c-1.724 4.492 1.574 7.445 3.986 3.571 2.033-3.264 1.993-3.334-.656-1.144-2.599 2.149-2.733 2.057-1.708-1.172 1.211-3.814-.217-4.917-1.622-1.255m146.292.912c.91 1.699 2.31 3.09 3.112 3.09 2.153 0 .122-4.305-2.506-5.313-1.812-.696-1.932-.256-.606 2.223m-54.073 1.754c-2.961 3.335-2.958 3.343.539 1.508 1.933-1.015 3.516-2.523 3.516-3.352 0-2.22-.748-1.88-4.055 1.844m4.687 1.577-2.976 3.367 4.297-2.765c4.43-2.851 5.268-3.968 2.976-3.968-.726 0-2.66 1.515-4.297 3.366m-89.695 1.321c-.999 1.866-1.464 3.744-1.034 4.174s1.598-.746 2.597-2.611 1.464-3.745 1.034-4.174-1.598.745-2.597 2.611m135.961-.483c-.013 1.883.68 3.858 1.539 4.389 1.989 1.23 1.989-2.39 0-5.468-1.231-1.906-1.519-1.704-1.539 1.079m-237.523.483c-3.088 1.995-8.265 1.995-7.032 0 .531-.859 2.858-1.552 5.171-1.539 3.288.019 3.694.354 1.861 1.539m57.812.781c-1.104 1.331-1.656 2.771-1.227 3.201.43.429 1.685-.308 2.79-1.638 1.104-1.331 1.656-2.771 1.226-3.201-.43-.429-1.685.308-2.789 1.638m79.622.391c-.117 2.088-6.051 12.165-6.119 10.389-.12-3.164 3.348-11.561 4.775-11.561.775 0 1.38.527 1.344 1.172M112.5 251.298c0 .715-1.934 2.264-4.297 3.442-7.183 3.584-7.598 3.487-3.038-.708 4.408-4.054 7.335-5.145 7.335-2.734m46.094 1.827c-1.565 1.729-2.494 3.496-2.064 3.925.429.43 2.061-.633 3.626-2.362s2.494-3.496 2.064-3.926c-.429-.43-2.061.634-3.626 2.363m6.35 2.624c-2.459 3.082-3.53 5.29-2.381 4.907 2.504-.834 8.632-8.732 7.587-9.777-.404-.404-2.746 1.788-5.206 4.87m68.259-4.714c-1.074.433-1.953 1.65-1.953 2.703s-1.059 3.28-2.353 4.948c-2.186 2.818-2.238 2.713-.734-1.489 2.207-6.167 2.969-7.217 5.132-7.074 1.342.089 1.316.344-.092.912m-29.965 6.207c-3.827 4.866-4.046 6.3-.963 6.3 1.251 0 1.894-.617 1.428-1.371s.284-3.098 1.667-5.208c3.335-5.091 1.949-4.909-2.132.279m30.285 2.843c-3.485 7.344-4.612 6.217-1.421-1.42 1.351-3.233 2.827-5.507 3.279-5.055.453.453-.383 3.367-1.858 6.475m-121.896-1.541c-3.968 3.001-6.289 3.032-3.814.05 1.069-1.289 3.048-2.344 4.396-2.344 1.962 0 1.846.458-.582 2.294m94.424.304c-1.595 1.932-1.667 2.759-.279 3.226 1.026.345 1.502 1.574 1.058 2.73-.463 1.207.572 2.538 2.432 3.129 1.781.565 3.263 1.859 3.293 2.875s1.061.09 2.289-2.058c4.44-7.767-3.332-16.519-8.793-9.902m-74.334 1.565c-.729 1.9-.434 2.251 1.096 1.306 1.462-.904 1.823-.628 1.196.915-3.117 7.679-3.223 8.15-1.608 7.151 1.072-.662 1.384.104.858 2.112-1.151 4.402-3.453 5.459-2.509 1.152.619-2.826.442-3.057-.903-1.174-.99 1.386-1.684 1.598-1.698.518-.013-1.004-.442-3.113-.953-4.687-.682-2.104-.533-2.31.564-.778 1.193 1.666 1.711 1.515 2.581-.752.617-1.609.345-3.083-.629-3.408-1.223-.407-1.194-1.203.102-2.764 2.421-2.918 3.122-2.768 1.903.409m36.252.525c-1.565 1.729-2.494 3.495-2.064 3.925.429.43 2.061-.634 3.626-2.363s2.494-3.496 2.064-3.925c-.429-.43-2.061.633-3.626 2.363m4.1 2.366c-3.969 6.726-4.18 8.105-.812 5.311 2.608-2.165 5.861-9.205 4.762-10.305-.348-.347-2.125 1.9-3.95 4.994m146.547 5.446c.077 2.083-.082 2.083-1.428 0-.834-1.289-1.476-3.75-1.429-5.469l.086-3.125 1.343 3.125c.738 1.719 1.381 4.18 1.428 5.469M84.33 265.686c-2.948 1.864-4.642 1.884-4.642.054 0-1.485 4.882-3.126 6.204-2.086.405.318-.298 1.233-1.562 2.032m65.964 3.001c-3.633 4.913-4.137 6.325-2.247 6.294.644-.011 2.76-2.472 4.702-5.469 4.291-6.625 2.322-7.287-2.455-.825m-34.172-2.045c1.233 1.234-3.594 5.114-6.449 5.183-1.125.028-1.603-.665-1.063-1.538.539-.873 1.635-1.183 2.435-.689s1.455-.197 1.455-1.537c0-2.505 1.821-3.219 3.622-1.419m77.154 2.173c-3.107 3.628-3.339 5.575-.847 7.115 1.151.712 1.378.427.628-.787-.661-1.07.027-3.231 1.572-4.939 1.511-1.669 2.421-3.362 2.023-3.761-.399-.398-1.918.669-3.376 2.372m87.974 2.539c0 3.151-.418 5.311-.929 4.8-1.455-1.455-1.741-10.529-.332-10.529.693 0 1.261 2.578 1.261 5.729m-127.269.717c-2.26 2.686-3.671 5.322-3.136 5.857.961.961 4.214-2.688 7.137-8.006 2.31-4.203.547-3.256-4.001 2.149m21.019-2.54c-1.104 1.331-1.656 2.771-1.227 3.201.43.429 1.685-.308 2.79-1.638 1.104-1.331 1.656-2.771 1.226-3.201-.43-.429-1.685.308-2.789 1.638m-56.92 3.237c-1.654 1.21-3.41 1.798-3.901 1.307s.461-1.883 2.116-3.093c1.654-1.21 3.41-1.798 3.901-1.307s-.461 1.883-2.116 3.093m40.756.402c-2.763 3.053-3.32 4.986-1.414 4.906 1.704-.072 7.048-7.763 5.393-7.763-.766 0-2.557 1.285-3.979 2.857m72.592 3.073c-.957.319-1.659 2.455-1.559 4.747.141 3.238.348 3.47.933 1.041.413-1.718 1.386-3.793 2.162-4.609.776-.817 1.411-2.75 1.411-4.297s.745-2.812 1.655-2.812 1.197.74.637 1.645c-.559.905.429 2.899 2.195 4.431 2.6 2.255 3.028 3.923 2.244 8.754-.7 4.31-.467 5.658.838 4.851 1.049-.648 1.806-.167 1.806 1.149 0 3.952-10.914 4.289-11.037.34-.093-3.019-.179-3.001-1.512.314-2.024 5.035-3.631 4.339-2.543-1.103.764-3.82.485-4.449-1.615-3.644-3.361 1.29-1.581-8.966 1.893-10.91 1.273-.713 2.396-2.491 2.495-3.952.143-2.099.345-2.013.96.409.428 1.686-.005 3.326-.963 3.646m-105.975-1.242c.828 3.167-6.14 10.458-8.111 8.487-.512-.512.299-1.83 1.801-2.929 3.517-2.571 3.515-4.184-.002-2.901-2.455.895-2.43.65.242-2.393 3.692-4.205 5.024-4.263 6.07-.264m55.276-2.084c-1.435 1.435-1.319 13.022.13 13.016.645-.003 1.191-3.167 1.214-7.032.022-3.864-.036-7.026-.131-7.026-.094 0-.64.469-1.213 1.042m23.344 1.43c-1.709 4.455-.994 5.999 1.346 2.905 1.262-1.668 2.316-3.561 2.344-4.205.092-2.184-2.735-1.188-3.69 1.3m-135.695.196c1.943.373 4.756.359 6.25-.032s-.097-.697-3.534-.679c-3.438.017-4.66.337-2.716.711m72.422 7.488c-.485.86-1.119.371-1.408-1.085-.331-1.669-1.423-2.303-2.953-1.716-2.075.796-2.152.416-.529-2.616l1.898-3.547 1.938 3.701c1.066 2.035 1.54 4.404 1.054 5.263m-34.81-4.266c-.287.661-4.319 4.704-8.96 8.984s-7.672 6.376-6.734 4.657c2.906-5.325 17.639-18.132 15.694-13.641m118.986.751c-.055 4.46-3.053 6.743-3.077 2.343-.013-2.363.679-4.296 1.539-4.296s1.551.878 1.538 1.953m-38.995 1.9c-1.046 1.26-1.633 3.098-1.304 4.084s1.435-.046 2.458-2.292c2.086-4.577 1.68-5.207-1.154-1.792m47.485 1.569c-.633 2.519-.1 4.729 1.532 6.362 2.138 2.138 2.502 2.163 2.502.174 0-1.281.409-3.616.909-5.19.808-2.547.625-2.518-1.666.263-2.503 3.038-2.545 3.006-1.52-1.172.579-2.363.639-4.297.132-4.297-.506 0-1.356 1.737-1.889 3.86m-164.325-1.178c2.363.358 6.23.358 8.593 0 2.364-.358.43-.651-4.296-.651-4.727 0-6.661.293-4.297.651m120.833 3.01c-1.488 3.88.152 4.409 2.142.692.96-1.794 1.092-3.259.294-3.259s-1.894 1.155-2.436 2.567m108.464 4.167c0 .86-1.407.29-3.125-1.265-1.719-1.556-3.125-3.531-3.125-4.391s1.406-.29 3.125 1.266c1.718 1.555 3.125 3.531 3.125 4.39m-230.469-2.046-9.375 1.037 9.673.262c5.321.145 10.108-.44 10.639-1.299.531-.86.397-1.445-.298-1.3-.695.144-5.483.729-10.639 1.3m138.858 2.51c-.582 1.627-1.343 3.486-1.691 4.13-.348.645.03 1.172.84 1.172 1.558 0 3.754-6.416 2.593-7.577-.376-.376-1.159.648-1.742 2.275m15.794 5.72c-.569 3.032-1.848 5.34-2.843 5.127-3.933-.839-7.278-2.834-7.278-4.341 0-.88 1.096-.677 2.463.457 2.999 2.489 5.288-.205 5.326-6.27.017-2.719.508-3.344 1.695-2.157.984.984 1.246 3.938.637 7.184m91.442-4.324c1.593 1.919 1.486 2.344-.59 2.344-1.395 0-2.535-1.055-2.535-2.344s.265-2.344.589-2.344c.325 0 1.466 1.055 2.536 2.344m-244.922.338c2.363.358 6.23.358 8.593 0 2.364-.358.43-.651-4.296-.651-4.727 0-6.661.293-4.297.651m184.353 7.546c-.764 3.995-1.008 4.165-2.07 1.447-2.22-5.68-1.758-10.669.756-8.156 1.357 1.357 1.853 3.889 1.314 6.709m-75.369-4.814c0 1.259-1.406 3.041-3.125 3.961-3.613 1.934-4.49-1.135-1.25-4.375 2.535-2.535 4.375-2.361 4.375.414m-107.812.836c-5.3 1.116-5.324 1.153-.782 1.201 2.578.028 6.446-.513 8.594-1.201 5.123-1.641-.018-1.641-7.812 0m91.564 5.619c-.505 1.316-1.627 1.953-2.495 1.416-1.04-.642-.955-2.139.251-4.391 1.991-3.721 3.862-1.241 2.244 2.975m-87.268-1.391c1.934.372 5.098.372 7.032 0 1.933-.373.351-.677-3.516-.677s-5.449.304-3.516.677m92.469.85c-.061 1.074-.643 3.313-1.293 4.975-1.528 3.9-3.414.934-2.246-3.532.943-3.606 3.724-4.74 3.539-1.443m65.735-.179c0 .689 1.054.848 2.343.354 1.289-.495 2.344-.163 2.344.738 0 3.2-3.131 3.5-6.245.599-2.438-2.271-2.621-2.944-.801-2.944 1.297 0 2.359.564 2.359 1.253m-78.583 5.603c-2.515 2.515-2.667 2.485-2.667-.532 0-4.095 1.687-5.782 3.735-3.735 1.091 1.091.752 2.448-1.068 4.267m-81.574.436-9.375 1.037 8.594.107c4.727.058 10.352-.456 12.5-1.144 4.741-1.519 2.004-1.519-11.719 0m61.719-.576c0 1.572-6.547 11.737-7.163 11.121-.863-.863 4.67-12 5.991-12.057.645-.028 1.172.393 1.172.936m81.584 2.972c1.105.028 2.526-.675 3.158-1.563.727-1.024 1.156-.866 1.172.431.013 1.125.805 1.562 1.761.971.955-.59 2.351-.104 3.101 1.08 2.072 3.271 1.678 4.934-.932 3.932-1.289-.495-2.393-.043-2.454 1.005-.06 1.047-.714.498-1.452-1.221-.739-1.719-1.393-2.268-1.453-1.221s-1.109 1.521-2.329 1.052c-1.439-.552-2.464.428-2.913 2.784-.622 3.264-.714 3.196-.905-.662-.117-2.363-.85-4.297-1.629-4.297s-1.033-1.466-.565-3.257c.644-2.462 1.167-2.748 2.141-1.172.709 1.147 2.193 2.109 3.299 2.138m-134.709.71c-1.727 1.102-1.009 1.404 2.731 1.148 2.792-.192 5.077-.876 5.078-1.52.005-1.653-5.011-1.414-7.809.372m67.188 3.144c-.999 1.865-2.168 3.041-2.597 2.611-.43-.43.035-2.308 1.034-4.174s2.167-3.041 2.597-2.611-.036 2.308-1.034 4.174m37.5-2.436c0 2.488-2.835 4.809-4.204 3.441-1.285-1.286.721-5.693 2.592-5.693.886 0 1.612 1.013 1.612 2.252m-118.36.388c1.504.393 3.965.393 5.469 0s.273-.715-2.734-.715-4.239.322-2.735.715m68.431 5.039c-.959 1.792-2.439 3.259-3.287 3.259-.849 0-.378-1.78 1.047-3.956 3.03-4.624 4.794-4.075 2.24.697m98.074 1.318c.275 2.844-.239 5.066-1.172 5.066-.913 0-1.672-1.583-1.685-3.516-.019-2.843-.314-3.067-1.538-1.172-1.176 1.818-1.521 1.355-1.539-2.068-.036-6.582 5.281-5.068 5.934 1.69m9.742-2.314c3.339-.873 4.039 1.868 1.488 5.817-1.285 1.987-1.519 1.914-1.539-.483-.013-1.554-.585-2.48-1.27-2.056-2.211 1.366-5.48-1.676-4.137-3.85.828-1.34 1.465-1.458 1.838-.341.313.941 1.942 1.352 3.62.913m11.424 5.168c2.299.882 2.172 8.852-.153 9.627-.918.306-2.166-2.384-2.773-5.978-.776-4.592-1.51-5.893-2.471-4.377-1.121 1.771-1.371 1.724-1.391-.264-.042-4.263 3.796-6.927 4.395-3.049.281 1.825 1.358 3.644 2.393 4.041m-181.03-.913-6.25 1.119 7.031.084c3.867.047 10.547-.462 14.844-1.132l7.812-1.216-8.593.012c-4.727.008-11.407.517-14.844 1.133m194.531 2.343c0 1.289-1.013 2.344-2.252 2.344-2.61 0-4.372-2.23-2.914-3.688 1.868-1.868 5.166-1.009 5.166 1.344m-100 .667c0 .796 1.23 1.762 2.734 2.145 1.504.384.451.612-2.34.506-5.001-.19-6.086-1.011-4.04-3.057 1.514-1.514 3.646-1.276 3.646.406m-101.935 1.22c1.944.373 4.756.359 6.25-.032s-.096-.697-3.534-.679-4.66.337-2.716.711m173.81 5.926c0 2.148-.621 3.906-1.38 3.906-.76 0-1.717-1.758-2.127-3.906-.501-2.62-.046-3.906 1.38-3.906 1.227 0 2.127 1.652 2.127 3.906m56.641 3.421c1.504.393 3.964.393 5.468 0s.274-.715-2.734-.715-4.238.322-2.734.715m-202.735 2.048-4.687 1.192 5.078.185c2.793.102 5.078-.518 5.078-1.377 0-.86-.176-1.48-.391-1.378-.214.102-2.5.721-5.078 1.378m-5.078 4.263c3.223.337 8.496.337 11.719 0s.586-.613-5.859-.613-9.083.276-5.86.613m194.922 1.023c0 .33 1.758.935 3.906 1.346s3.907.141 3.907-.599-1.758-1.346-3.907-1.346-3.906.27-3.906.599m-10.937 5.651-8.594 1.053 9.858.255c6.233.161 9.502-.32 8.892-1.308-.531-.859-1.1-1.448-1.264-1.308s-4.166.729-8.892 1.308m-28.907 4.617c11.958 1.028 9.803 2.718-4.687 3.677-7.445.493-7.359.531 1.825.799 10.899.319 14.581-.639 14.581-3.791 0-1.686-2.555-2.115-11.328-1.901l-11.328.276zm-69.922 5.91c4.512.316 11.895.316 16.407 0 4.511-.316.82-.574-8.203-.574s-12.715.258-8.204.574m-29.687 1.541c2.793.346 7.363.346 10.156 0 2.793-.347.508-.63-5.078-.63s-7.871.283-5.078.63m125.391.432-10.157 1.023 9.674.27c5.32.148 10.108-.434 10.639-1.293s.748-1.441.483-1.293c-.266.149-5.054.73-10.639 1.293m-149.588 1.121c2.375.359 5.89.35 7.812-.021s-.021-.665-4.318-.653-5.869.315-3.494.674m98.473 1.598c4.972.311 12.707.308 17.187-.007 4.481-.314.412-.569-9.041-.565s-13.119.261-8.146.572m-28.161 1.527c2.375.359 5.891.35 7.813-.021s-.022-.665-4.319-.653-5.869.315-3.494.674m-21.097 1.547c1.944.373 4.756.359 6.25-.032s-.096-.697-3.534-.679-4.66.337-2.716.711m89.063 4.687c1.943.374 4.756.36 6.25-.031 1.493-.392-.097-.697-3.534-.68-3.438.017-4.66.337-2.716.711m-17.178 1.59c2.808.348 7.027.34 9.375-.016s.05-.641-5.106-.632c-5.157.008-7.078.3-4.269.648m-28.934 1.568c3.222.337 8.496.337 11.718 0 3.223-.337.586-.613-5.859-.613s-9.082.276-5.859.613m-28.941 1.552c2.773.345 7.695.351 10.937.013s.972-.621-5.043-.628-8.668.27-5.894.615m-17.135 1.54c1.944.374 4.756.36 6.25-.031 1.494-.392-.096-.697-3.534-.68s-4.66.337-2.716.711m63.263 6.222c1.504.393 3.965.393 5.469 0s.273-.714-2.734-.714-4.239.321-2.735.714m-17.166 1.607c2.375.359 5.891.349 7.813-.022 1.921-.37-.022-.664-4.319-.653s-5.869.316-3.494.675"/></svg>
