<svg id="hexagony" viewBox="0 0 194.9 179.1" xmlns="http://www.w3.org/2000/svg"><path d="M39.8 10.3V31l17.9 10.3L75.6 31V10.3L57.7 0zm39.8 0V31l17.9 10.3L115.4 31V10.3L97.5 0zm39.7 0V31l17.9 10.3L155.1 31V10.3L137.2 0zM59.7 44.8v20.7l17.9 10.3 17.9-10.3V44.8L77.6 34.5zm39.8 0v20.7l17.9 10.3 17.9-10.3V44.8l-17.9-10.3zm39.7 0v20.7l17.9 10.3L175 65.5V44.8l-17.9-10.3zm-119.3 0v20.7l17.9 10.3 17.9-10.3V44.8L37.8 34.5zm59.7 34.4v20.7l17.9 10.3 17.9-10.3V79.2L97.5 68.9zm39.7 0v20.7l17.9 10.3 17.9-10.3V79.2l-17.9-10.3zm39.8 0v20.7l17.9 10.3 17.9-10.3V79.2L177 68.9zm-119.3 0v20.7l17.9 10.3 17.9-10.3V79.2L57.7 68.9zM0 79.2v20.7l17.9 10.3 17.9-10.3V79.2L17.9 68.9zm59.7 34.5v20.7l17.9 10.3 17.9-10.3v-20.7l-17.9-10.3zm39.8 0v20.7l17.9 10.3 17.9-10.3v-20.7l-17.9-10.3zm39.7 0v20.7l17.9 10.3 17.9-10.3v-20.7l-17.9-10.3zm-119.3 0v20.7l17.9 10.3 17.9-10.3v-20.7l-17.9-10.3zm19.9 34.4v20.7l17.9 10.3 17.9-10.3v-20.7l-17.9-10.3zm39.8 0v20.7l17.9 10.3 17.9-10.3v-20.7l-17.9-10.3zm39.7 0v20.7l17.9 10.3 17.9-10.3v-20.7l-17.9-10.3" fill="currentColor"/></svg>
