<svg xmlns="http://www.w3.org/2000/svg" id="a" viewBox="0 0 400 425"><path d="M96.384 18.866c-.957 2.52-1.741 6.377-1.741 8.572s-.743 4.754-1.651 5.687C91.379 34.782 85.254 58.697 75.865 100c-2.567 11.295-5.381 22.143-6.253 24.107-1.657 3.734-6.845 23.645-11.516 44.197a2956 2956 0 0 1-5.417 23.328C51.205 197.833 50 204.339 50 206.089s-1.21 5.314-2.689 7.921c-2.5 4.407-7.382 23.557-17.865 70.078-2.344 10.4-5.089 20.847-6.102 23.214C20.78 313.3 12.5 347.171 12.5 351.663c0 5.829 4.207 4.476 20.992-6.75 13.522-9.044 23.854-15.553 35.858-22.592 1.675-.982 5.44-3.483 8.366-5.558 11.45-8.12 50.747-27.477 55.782-27.477 7.658 0 16.218 3.382 26.109 10.315 22.391 15.695 53.845 28.97 68.642 28.97 20.611 0 27.442-8.631 30.352-38.349l1.22-12.457 8.036-1.334c14.051-2.332 15.573-3.059 17.835-8.52 1.964-4.742 1.696-6.341-2.362-14.101-5.022-9.604-4.721-10.953 2.441-10.953 11.69 0 16.111-7.933 10.683-19.168-6.244-12.924-5.687-19.142 1.76-19.656 28.114-1.939 34.613-10.237 24.222-30.925-2.393-4.763-6.88-16.934-9.972-27.045s-6.358-20.714-7.257-23.562c-3.511-11.115-2.033-18.538 5.954-29.901l7.589-10.797-.513-32.252c-.283-17.738-.933-32.93-1.445-33.758s-49.922-1.507-109.799-1.507H98.126zm243.498 177.157c-6.75 4.293-75.095 125.873-77.301 137.511a5639 5639 0 0 1-3.95 20.57c-1.107 5.695-7.118 20.843-13.358 33.662-6.239 12.82-11.344 23.629-11.344 24.021s18.416.713 40.925.713h40.926l3.703-5.992c2.037-3.295 9.71-10.593 17.052-16.216 23.061-17.663 50.842-63.37 45.847-75.429-2.55-6.157-9.593-10.178-14.883-8.499-3.075.976-3.275.659-1.581-2.506 5.51-10.295-1.959-22.859-12.655-21.289-4.133.607-4.586.259-3.152-2.42 4.942-9.234-1.142-20.149-11.23-20.149h-6.222l12.242-25.067c12.064-24.703 14.467-33.779 10.099-38.147-2.365-2.365-11.848-2.844-15.118-.763"/></svg>
