<svg xmlns="http://www.w3.org/2000/svg" id="janet" viewBox="0 0 640 640"><path fill="currentColor" d="M145 531c-46-31-58-75-30-118 21-32 30-22 44 47 7 30 19 62 27 71 26 29 1 29-41 0m196 3c-23-29-26-50-11-88 10-28 64-60 86-52 12 5 12 2 0-22-24-47-51-64-116-71-51-6-65-12-85-37-14-16-24-32-25-36 0-12-35-9-48 4-7 7-12 24-12 38 0 41-11 43-47 8-47-46-46-90 5-138 20-19 49-51 63-70l27-35h88c49 0 106 4 127 8 46 10 106 62 143 125 25 42 28 58 30 142 0 52 4 103 9 113 11 27-14 75-49 93-41 21-115 44-143 44-12 0-31-12-42-26m89-119c0-3-2-5-5-5s-5 2-5 5 2 5 5 5 5-2 5-5"/><path fill="none" stroke="currentColor" stroke-width="20" d="M186 549c-33-31-38-43-56-137-26-135-26-163 3-190 33-31 49-28 85 17 28 35 36 39 87 43 46 4 61 10 90 38 18 18 39 46 46 62 10 25 9 32-5 46-17 16-19 16-29 1-8-14-15-15-34-6-27 12-40 65-24 96 10 17 8 23-12 36-13 8-44 18-69 21-42 6-49 4-82-27"/></svg>
