<svg xmlns="http://www.w3.org/2000/svg" id="javascript" viewBox="0 0 512 512"><path fill="currentColor" d="M374.9 221.3a73.7 73.7 0 0 0-47.4 20.3 61.5 61.5 0 0 0-18.2 46.2c0 28.4 11.6 48.2 37.6 64 6.6 4 15.6 8.2 31.2 15 21.2 9 29 13.4 34.1 18.8 6.2 6.6 8 17.3 4 25.4a27.3 27.3 0 0 1-4.5 6c-6 6-15.4 9.2-27.2 9.2a52.6 52.6 0 0 1-46.5-25.7 27 27 0 0 0-3.3-4.3c-.5 0-39.2 22.4-40 23.1-.5.5-.1 1.6 1.9 4.8 15.4 26 39.6 41.3 72.2 45.7 8.6 1.2 24.6 1.1 32.8 0a82 82 0 0 0 48-21.3 63.4 63.4 0 0 0 18.9-48 71 71 0 0 0-6.8-32.5 58.4 58.4 0 0 0-12.1-17c-10.8-10.8-24.7-19-52.4-31-21-9-28-12.8-32.6-17.7a21.8 21.8 0 0 1-5.9-17.2c.4-5.5 2-9.2 5.3-12.8 4.8-5.3 10.4-7.5 19-7.4 9.9 0 16.2 2.5 22.7 9a53 53 0 0 1 6.6 8c1.6 2.6 2.7 4 3.1 3.8 1.4-.6 38.3-24.5 38.3-24.8a90.7 90.7 0 0 0-23.9-27.1 76.8 76.8 0 0 0-38.9-12.4c-7.7-.7-8.7-.7-16-.1m-158.3 92.4-.2 89.9-1.1 4.2a23.9 23.9 0 0 1-6.3 12c-4.2 4.2-9.7 6-18.9 6-13 0-20.9-5.5-30-21a26 26 0 0 0-3-4.4l-20.4 12.3-20 12.2 1.5 3a76 76 0 0 0 43.8 38.3c20 6.6 45.8 6 64.6-1.6 22.7-9.1 36-28 39.5-56.2.3-2.8.5-34.6.5-94.4v-90.2h-49.8zM44.9 0H467a44.8 44.8 0 0 1 45 44.9V467a44.8 44.8 0 0 1-44.9 44.9H45a44.8 44.8 0 0 1-45-44.8V45A44.8 44.8 0 0 1 44.9 0"/></svg>
