<svg xmlns="http://www.w3.org/2000/svg" id="a" viewBox="0 0 400 400"><path d="M174.609 1.194C11.016 22.509-58.409 221.685 56.608 339.734c105.976 108.77 291.187 63.917 335.049-81.14 42.015-138.953-73.621-276.088-217.048-257.4m91.016 172.459c0 96.445-.313 99.065-13.998 117.13-26.934 35.555-100.053 32.91-122.644-4.436-4.439-7.337-12.415-30.696-10.918-31.973.423-.36 43.953-6.679 44.214-6.418.119.12.903 2.898 1.741 6.175 4.575 17.89 13.569 25.949 28.915 25.912 14.378-.035 22.408-6.486 26.172-21.027 1.036-4.003 1.206-13.192 1.206-65.43v-60.773h-42.188V97.656h87.5"/></svg>
