<svg xmlns="http://www.w3.org/2000/svg" id="a" viewBox="0 0 400 390.728"><path stroke="currentColor" stroke-width="2" d="M171.636 7.265C51.033 24.55-24.226 147.794 15.777 262.501c2.99 8.575 3.948 13.947 4.331 24.298.9 24.293 17.214 44.327 36.098 44.327 1.514 0 6.027 2.743 10.029 6.095 73.765 61.796 191.519 62.943 262.904 2.559 5.798-4.904 7.631-5.692 14.72-6.324 25.543-2.277 43.208-27.551 37.629-53.837-1.531-7.215-1.396-8.311 2.472-20.115C428.691 122.982 314.098-13.154 171.636 7.265m56.998 8.021c90.352 15.673 156.739 92.217 156.789 180.775.011 20.275-5.696 56.697-9.967 63.607-.352.57-6.745-5.062-14.207-12.514-8.605-8.595-18.895-17.12-28.136-23.311-18.635-12.485-32.451-22.713-32.451-24.024 0-1.936 10.542 2.694 18.617 8.178 13.143 8.926 11.794 1.33-2.232-12.559-28.861-28.578-74.483-26.695-91.972 3.797-5.619 9.795-5.081 10.414 5.057 5.812 15.826-7.183 50.708-11.885 57.285-7.723 2.154 1.364 2.749 24.937.874 34.619l-.928 4.791-10.9 2.135c-47.508 9.305-104.524 9.224-150.635-.215l-11.258-2.305-.896-5.923c-.492-3.257-.939-12.601-.993-20.763l-.098-14.841 4.822-.905c12.491-2.343 36.863 1.581 53.667 8.642 12.183 5.118 11.942-.479-.606-14.092-20.056-21.759-58.31-20.737-83.427 2.23-13.584 12.42-18.883 25.068-6.906 16.481 8.37-6 15.769-9.842 18.821-9.773 3.457.078-3.568 5.848-24.12 19.808-21.898 14.875-35.784 26.738-43.175 36.883-7.276 9.99-6.871 10.047-10.28-1.447C-17.544 121.404 95.309-7.843 228.634 15.286M102.635 139.933c-27.922 18.575-50.42 52.773-41.955 63.774 3.161 4.108 5.344 2.908 10.663-5.859 5.771-9.514 13.779-19.07 33.312-39.753 15.981-16.924 18.016-20.432 13.313-22.949-4.081-2.184-5.538-1.729-15.333 4.787m180.478-2.079c-4.177 2.433-2.497 5.308 11.824 20.244 18.656 19.456 30.071 32.911 35.832 42.233 6.292 10.182 12.277 9.747 12.277-.892 0-21.254-46.732-69.274-59.933-61.585m-179.987 14.484c-18.26 19.537-27.21 30.071-33.73 39.701-5.42 8.004-5.819 8.323-5.807 4.636.042-12.75 19.183-37.23 40.901-52.309 12.173-8.452 11.767-6.079-1.364 7.972m196.12-3.878c20.957 14.718 38.38 37.102 38.473 49.43.027 3.505-.549 3.026-6.436-5.356-6.522-9.287-26.467-31.903-37.755-42.81-10.588-10.231-7.898-10.826 5.718-1.264M107.825 250.993c.137 20.832-1.477 28.91-8.776 43.921-17.749 36.503-55.346 40.611-70.118 7.662-10.793-24.074 3.648-48.859 45.101-77.41 18.894-13.014 30.52-22.2 30.798-24.335.577-4.434 2.891 34.324 2.995 50.162m215.47-26.619c37.717 26.117 51.272 42.211 52.542 62.381 1.03 16.371-6.926 31.103-20.114 37.244-34.895 16.249-67.18-27.547-61.915-83.993.863-9.255 1.566-21.502 1.563-27.215l-.007-10.387 6.407 5.751c3.524 3.164 13.21 10.462 21.524 16.219m-192.094 21.858c48.291 8.811 101.92 8.122 151.738-1.95l4.13-.835-.068 10.665-.069 10.665-16.645 4.003c-51.004 12.264-88.269 12.052-140.453-.796l-14.602-3.595v-10.34c0-5.687.481-10.34 1.069-10.34s7.293 1.135 14.9 2.523m-8.684 26.022c47.87 14.648 97.751 15.346 150.11 2.102 10.135-2.564 15.157-3.318 15.46-2.322.247.812 1.18 4.754 2.074 8.761s3.112 10.732 4.931 14.945c4.03 9.337 5.182 8.112-18.984 20.163-51.865 25.861-127.906 20.567-170.613-11.879-2.36-1.793-2.299-2.25 1.643-12.215 2.252-5.694 4.719-12.885 5.483-15.981 1.584-6.422 1.128-6.257 9.896-3.574m-12.032 40.339c51.95 35.403 129.677 35.839 181.169 1.018l8.873-6 5.58 6.993c3.069 3.846 8.733 8.988 12.587 11.426 8.788 5.561 8.899 4.924-2.259 13.039-66.773 48.567-159.106 49.922-229.045 3.362-17.522-11.665-17.454-11.542-8.685-15.833 6.659-3.258 20.633-16.41 20.633-19.42 0-1.992.969-1.522 11.147 5.415"/></svg>
