<svg xmlns="http://www.w3.org/2000/svg" id="joy" viewBox="-2 -2 404 404"><g fill="currentColor"><path stroke="currentColor" d="M90.533 192.947c-15.882 6.208-58.993 54.568-73.321 82.248-.89 1.719-1.931 3.653-2.314 4.297-4.068 6.853-5.179 26.365-2.022 35.511.438 1.269.796 2.554.796 2.856 0 .576 1.252 3.513 3.042 7.139 5.33 10.795 14.396 19.856 25.085 25.073 3.123 1.524 6.849 3.053 7.469 3.064.295.005 1.591.366 2.88.802 1.29.437 4.717 1.066 7.618 1.398 28.503 3.266 55.091-15.69 61.179-43.616 1.842-8.45.16-38.838-2.789-50.391-.302-1.182-1.182-5.224-1.956-8.984-5.096-24.753-12.51-47.468-18.37-56.282-2.583-3.886-3.894-4.445-7.297-3.115m213.614.425c-4.292 3.768-14.577 29.878-16.898 42.899-.101.569-.691 3.055-1.31 5.526s-1.673 7.217-2.342 10.547-1.367 6.425-1.553 6.879-.626 2.65-.98 4.883l-1.204 7.574c-.309 1.933-.647 4.658-.751 6.054-.104 1.397-.409 4.649-.679 7.227-.835 7.994-.624 21.878.407 26.654 8.184 37.919 52.084 56.231 84.64 35.305 5.776-3.713 12.681-10.291 15.234-14.513.215-.356.956-1.508 1.646-2.562 2.07-3.157 5.312-10.02 5.939-12.572.196-.799.703-2.683 1.127-4.187 1.892-6.718 1.742-20.326-.304-27.539-5.536-19.516-43-66.758-68.854-86.825-7.847-6.091-11.638-7.528-14.118-5.35"/><path d="M128.516 89.678c-37.934 10.403-69.17 37.529-82.855 71.953-3.14 7.9 1.166 15.376 9.214 15.999 5.991.464 8.277-1.6 13.421-12.109 13.124-26.813 36.197-46.163 64.126-53.776 8.804-2.4 11.822-5.34 11.856-11.55.043-8.153-7.072-12.901-15.762-10.517m133.789.114c-9.271 4.226-8.531 18.319 1.09 20.76 31.239 7.925 54.774 27.093 68.893 56.11 3.165 6.505 3.854 7.64 5.27 8.681 9.66 7.104 21.261-2.46 16.747-13.805-12.623-31.725-40.29-57.465-74.422-69.24-9.437-3.255-14.387-3.961-17.578-2.506m-132.617 71.597c-16.998 1.171-33.207 13.235-44.136 32.85l-1.252 2.246 2.767-1.706c6.359-3.921 8.22-3.364 12.281 3.679l1.026 1.777 4.403-1.466c22.601-7.526 51.333-5.109 70.217 5.906 3.698 2.157 8.209-.419 8.209-4.689 0-4.238-8.176-16.407-16.276-24.226-11.041-10.657-23.176-15.34-37.239-14.371m134.96-.161c-11.696.571-22.045 5.334-31.575 14.532-8.1 7.819-16.276 19.988-16.276 24.226 0 4.27 4.511 6.846 8.209 4.689 18.858-11 47.67-13.434 70.143-5.926l4.328 1.446 1.52-2.669c3.62-6.357 5.963-6.617 13.75-1.529l1.045.683-1.311-2.344c-12.296-21.98-30.468-34.053-49.833-33.108M112.5 236.088c0 .083.692 3.028 1.537 6.543s2.01 8.795 2.588 11.73l1.051 5.338 4.346.809c40.431 7.523 103.761 8.04 148.486 1.213 10.498-1.603 11.484-1.844 11.72-2.867.107-.465.733-3.483 1.391-6.706.658-3.222 1.78-8.188 2.495-11.035.714-2.846 1.139-5.175.943-5.175-.195 0-5.493.871-11.773 1.936-52.054 8.827-98.683 8.829-150.568.005-11.548-1.964-12.216-2.062-12.216-1.791m8.323 43.865c2.191 21.062 1.05 33.785-3.913 43.636-.529 1.05-.804 2.017-.61 2.148s1.835 1.405 3.647 2.829c39.373 30.938 96.951 35.613 142.148 11.542 9.636-5.131 21.79-13.687 21.372-15.044-.109-.358-.836-2.089-1.615-3.848-3.992-9.018-5.022-21.343-3.191-38.208.28-2.578.47-4.741.422-4.806s-1.558.839-3.355 2.008c-41.401 26.933-113.125 26.557-152.642-.801l-2.5-1.73"/></g><path fill="none" stroke="currentColor" stroke-width="4" d="M179.883.608c-2.578.302-5.531.729-6.562.947-1.031.219-2.526.395-3.321.391-2.264-.012-17.189 3.126-23.516 4.944-5.585 1.604-9.843 2.946-12.406 3.91-1.345.505-2.631.919-2.857.919s-1.372.439-2.547.976c-1.174.537-2.316.977-2.538.977s-1.316.416-2.43.925a236 236 0 0 1-4.565 2.002c-1.397.593-3.067 1.35-3.711 1.683a55 55 0 0 1-1.758.872c-.322.146-1.201.585-1.953.976s-1.675.856-2.051 1.033c-1.485.698-2.178 1.055-5.566 2.86-1.934 1.03-3.983 2.198-4.553 2.597-.57.398-1.169.724-1.33.724s-.838.412-1.502.916c-.665.503-1.385.987-1.6 1.074-1.091.443-4.88 2.809-5.289 3.303-.259.311-.623.566-.809.566s-1.858 1.099-3.716 2.442a385 385 0 0 1-5.232 3.72c-11.058 7.63-33.076 29.648-40.706 40.706a385 385 0 0 1-3.72 5.232c-1.343 1.858-2.442 3.53-2.442 3.716s-.255.55-.566.809c-.494.409-2.86 4.198-3.303 5.289-.087.215-.571.935-1.074 1.6-.504.664-.916 1.34-.916 1.502s-.326.76-.724 1.33c-.622.89-3.915 6.895-4.747 8.654a81 81 0 0 1-.988 1.953c-.391.752-.83 1.631-.976 1.953a59 59 0 0 1-.977 1.954c-.934 1.797-1.071 2.094-2.335 5.078a225 225 0 0 1-2 4.565c-.509 1.114-.925 2.208-.925 2.43s-.44 1.364-.977 2.538c-.537 1.175-.976 2.321-.976 2.547s-.414 1.512-.919 2.857c-3.372 8.971-8.049 27.865-8.874 35.844-.167 1.611-.619 4.951-1.005 7.422-1.053 6.734-1.059 38.25-.009 45.117.394 2.578.864 6.094 1.044 7.812.18 1.719.624 4.356.987 5.86.362 1.504.792 3.701.956 4.883.628 4.52 4.777 19.449 6.895 24.804.51 1.289.926 2.575.926 2.857-.001.283.438 1.474.975 2.649.537 1.174.977 2.324.977 2.555s.425 1.265.944 2.299.841 1.982.716 2.108c-.125.125-.119.228.014.228s.971-1.451 1.863-3.223c11.168-22.212 43.524-60.713 64.636-76.912 1.903-1.461 2.815-2.592 4.773-5.921 23.621-40.148 65.49-41.965 91.024-3.951 3.145 4.684 5.561 9.669 5.561 11.477 0 4.27-4.511 6.846-8.209 4.689-18.609-10.855-46.902-13.377-69.434-6.189-5.645 1.8-5.343 1.451-3.937 4.545 2.716 5.981 6.016 15.805 10.1 30.074.445 1.558.982 2.833 1.193 2.833.21-.001 5.52.873 11.8 1.941 51.926 8.831 98.508 8.823 150.673-.023 6.337-1.075 11.637-2.078 11.777-2.229.141-.152 1.331-4.017 2.646-8.591 2.565-8.921 5.398-17.147 7.87-22.846.845-1.949 1.537-3.68 1.537-3.847 0-.514-8.249-3.003-13.341-4.027-21.449-4.31-44.604-1.13-60.872 8.359-3.698 2.157-8.209-.419-8.209-4.689 0-1.808 2.416-6.793 5.561-11.477 25.639-38.17 67.836-36.146 91.248 4.379 2.054 3.555 2.583 4.158 6.137 6.995 21.33 17.029 51.909 53.696 62.731 75.221l1.592 3.167.704-.933c.387-.513.929-1.645 1.204-2.515.276-.869.907-2.492 1.404-3.607.497-1.114.903-2.256.902-2.539 0-.282.416-1.568.926-2.857 2.118-5.355 6.267-20.284 6.895-24.804.164-1.182.594-3.379.956-4.883.363-1.504.807-4.141.987-5.86.18-1.718.65-5.234 1.044-7.812 1.05-6.867 1.044-38.383-.009-45.117-.386-2.471-.838-5.811-1.005-7.422-.825-7.979-5.502-26.873-8.874-35.844-.505-1.345-.919-2.631-.919-2.857s-.439-1.372-.976-2.547c-.537-1.174-.977-2.301-.977-2.505s-.42-1.297-.934-2.43a231 231 0 0 1-2.002-4.598c-.588-1.397-1.341-3.067-1.674-3.711a55 55 0 0 1-.872-1.758 57 57 0 0 0-.976-1.953 87 87 0 0 1-1.748-3.516c-.878-1.893-4.135-7.761-4.745-8.549-.396-.512-.721-1.111-.721-1.33s-.412-.943-.916-1.607c-.503-.665-.987-1.385-1.074-1.6-.443-1.091-2.809-4.88-3.303-5.289-.311-.259-.566-.623-.566-.809s-1.099-1.859-2.442-3.717a2838 2838 0 0 1-4.503-6.255c-1.134-1.581-2.233-2.875-2.441-2.875-.209 0-.38-.187-.38-.415 0-2.929-25.888-28.248-37.32-36.499l-5.552-4.004c-1.566-1.128-2.997-2.051-3.181-2.051s-.547-.255-.806-.566c-.409-.494-4.198-2.86-5.289-3.303-.215-.087-.935-.571-1.6-1.074-.664-.504-1.388-.916-1.607-.916s-.818-.325-1.33-.721c-.777-.602-6.5-3.782-8.549-4.75a81 81 0 0 1-1.953-.988 57 57 0 0 0-1.953-.976 58 58 0 0 1-1.953-.977c-1.798-.934-2.095-1.071-5.079-2.335a225 225 0 0 1-4.565-2c-1.114-.509-2.208-.925-2.43-.925s-1.364-.44-2.538-.977c-1.175-.537-2.366-.976-2.649-.975-.282 0-1.568-.416-2.857-.926-5.355-2.118-20.284-6.267-24.804-6.895-1.182-.164-3.379-.593-4.883-.955s-4.229-.817-6.055-1.012-5.166-.645-7.422-.999c-5.743-.902-35.893-1.131-42.773-.325m-41.119 89.741c6.209 3.638 7.457 11.725 2.653 17.196-1.549 1.765-3.636 2.739-8.995 4.2-27.929 7.613-51.002 26.963-64.126 53.776-5.144 10.509-7.43 12.573-13.421 12.109-8.048-.623-12.354-8.099-9.214-15.999 13.685-34.424 44.921-61.55 82.855-71.953 3.387-.929 8.037-.625 10.248.671m133.697-.341c36.7 9.844 68.282 37.446 81.844 71.53 4.514 11.345-7.087 20.909-16.747 13.805-1.416-1.041-2.105-2.176-5.27-8.681-14.119-29.017-37.654-48.185-68.893-56.11-6.549-1.662-9.794-10.065-6.233-16.142 2.957-5.046 7.754-6.426 15.299-4.402M118.138 261.035c.436 2.065 1.277 7.196 1.992 12.141l.668 4.622 1.612 1.178c35.095 25.627 105.494 28.299 146.145 5.546 7.613-4.262 10.283-6.201 10.52-7.643.116-.711.467-2.963.779-5.004s.855-5.528 1.207-7.75c.745-4.702.843-4.423-1.384-3.923-5.489 1.234-24.402 3.695-35.536 4.625-40.196 3.356-95.381 1.339-123.17-4.502-1.465-.308-2.761-.559-2.881-.559-.121 0-.099.571.048 1.269m-3.39 66.798c-6.487 12.4-21.545 23.278-36.655 26.481-2.238.474-4.142.927-4.23 1.006-.282.253 1.238 1.711 1.783 1.711.289 0 .526.171.526.38 0 .208 1.294 1.307 2.875 2.441 1.582 1.134 4.396 3.161 6.255 4.503s3.531 2.442 3.717 2.442.55.255.809.566c.409.494 4.198 2.86 5.289 3.303.215.087.935.571 1.6 1.074.664.504 1.388.916 1.607.916s.818.325 1.33.721c.777.602 6.5 3.782 8.549 4.75.322.152 1.201.597 1.953.988s1.631.83 1.953.976 1.202.586 1.954.977c1.817.944 2.118 1.082 5.078 2.326 1.396.587 3.465 1.487 4.598 2 1.133.514 2.226.934 2.43.934s1.331.44 2.505.977c1.175.537 2.321.976 2.547.976s1.512.414 2.857.919c8.971 3.372 27.865 8.049 35.844 8.874 1.611.167 4.951.619 7.422 1.005 6.734 1.053 38.25 1.059 45.117.009 2.578-.394 6.094-.864 7.812-1.044 1.719-.18 4.356-.624 5.86-.987 1.504-.362 3.701-.792 4.883-.956 4.52-.628 19.449-4.777 24.804-6.895 1.289-.51 2.575-.926 2.857-.926.283.001 1.474-.438 2.649-.975 1.174-.537 2.316-.977 2.538-.977s1.316-.416 2.43-.925a236 236 0 0 1 4.565-2.002c1.397-.593 3.067-1.35 3.711-1.683a55 55 0 0 1 1.758-.872 57 57 0 0 0 1.953-.976 78 78 0 0 1 2.051-1.033c1.489-.701 2.181-1.056 5.566-2.863 1.934-1.031 3.935-2.2 4.448-2.597.512-.396 1.111-.721 1.33-.721s.943-.412 1.607-.916c.665-.503 1.385-.987 1.6-1.074 1.091-.443 4.88-2.809 5.289-3.303.259-.311.623-.566.809-.566.72 0 14.844-10.466 15.076-11.171.085-.26-1.287-.703-3.486-1.125-15.397-2.96-31.288-14.29-37.65-26.845-1.162-2.294-.75-2.345-4.361.537-33.146 26.458-81.973 34.493-123.244 20.282-14.076-4.847-27.634-12.107-37.876-20.282-3.64-2.905-3.371-2.884-4.692-.36"/></svg>
