<svg xmlns="http://www.w3.org/2000/svg" id="a" viewBox="0 0 344 344"><path d="M142.448 341.319C5.454 316.384-47.792 148.928 50.223 51.279 154.876-52.985 330.13 11.208 343.342 158.643c9.835 109.747-92.137 202.473-200.894 182.676m60.35-16.969c123.154-26.454 166.914-177.85 76.498-264.652C187.91-28.037 34.526 25.963 17.912 151.72 4.05 256.657 100.16 346.398 202.797 324.35m7.647-29.026c-21.193-3.498-28.43-24.159-29.51-84.246l-.629-34.984-35.864 56.611-35.865 56.611-13.698.04c-7.533.022-13.698-.165-13.698-.415s23.088-34.517 51.306-76.148l51.306-75.692-.008-11.27c-.04-53.987-24.01-74.557-48.35-41.495L131.268 90l-3.376-2.032c-1.857-1.116-3.516-2.157-3.689-2.312-1.766-1.587 12.108-22.68 19.15-29.116 14.96-13.673 38.057-10.129 46.359 7.114 5.33 11.075 5.292 10.485 6.043 91.253.741 79.631 1.063 85.164 5.835 100.45 7.935 25.413 32.024 24.319 49.647-2.254l4.943-7.456 3.654 2.483 3.652 2.481-3.113 6.193c-14.235 28.313-31.422 41.574-49.928 38.52"/></svg>
