<svg xmlns="http://www.w3.org/2000/svg" id="a" viewBox="0 0 145 171"><path d="M18.8702 137L15.7831 133.726L8.51643 140.577L18.4628 141.482L18.8702 137ZM125.5 127.5L129.783 128.879L131.149 124.64L126.923 123.231L125.5 127.5ZM58.1475 117.5L62.6421 117.721L62.6453 117.656L62.6466 117.591L58.1475 117.5ZM84.8702 69L84.8702 64.5L84.8702 69ZM26.1475 10H30.6475V0.574864L23.3183 6.50067L26.1475 10ZM60.1475 54.5L60.2162 58.9995L62.6713 50.7744L60.1475 54.5ZM70.1475 10H74.6475V0.797131L67.3842 6.44839L70.1475 10ZM140.37 72H144.87V71.8796L144.864 71.7593L140.37 72ZM116 157L117.663 161.181C118.911 160.685 119.872 159.658 120.283 158.379L116 157ZM61.2919 124.258L57.8584 127.167L61.2919 124.258ZM61.7721 124.662L64.0769 120.797L61.7721 124.662ZM91.9233 47.9786L92.1455 43.4841L91.9233 47.9786ZM92.7654 47.8463L91.165 43.6405L92.7654 47.8463ZM36.4215 101.781L40.7992 102.823L36.4215 101.781ZM76.6808 115.947L72.246 116.71L76.6808 115.947ZM78.4099 117.804L77.5391 122.219L78.4099 117.804ZM35.7422 121.092L32.6552 117.818L35.7422 121.092ZM92.4841 165.372L95.0852 161.7L92.4841 165.372ZM94.3792 165.599L96.0422 169.78L94.3792 165.599ZM56.8343 140.451L56.4269 144.933L56.8343 140.451ZM57.8093 140.811L60.4104 137.139L57.8093 140.811ZM18.8702 137L18.4628 141.482L56.4269 144.933L56.8343 140.451L57.2417 135.97L19.2776 132.518L18.8702 137ZM57.8093 140.811L55.2082 144.483L89.883 169.044L92.4841 165.372L95.0852 161.7L60.4104 137.139L57.8093 140.811ZM76.6808 115.947L81.1157 115.184C80.8066 113.388 80.0455 110.264 78.0804 107.487C75.9732 104.51 72.4929 102 67.3702 102V106.5V111C69.1205 111 70.0348 111.698 70.7342 112.686C71.5757 113.875 72.0335 115.475 72.246 116.71L76.6808 115.947ZM67.3702 106.5V102C64.1229 102 61.4228 103.02 59.3177 104.708C57.2852 106.337 56.03 108.405 55.2489 110.225C54.4649 112.051 54.0758 113.817 53.8771 115.085C53.7761 115.73 53.7199 116.276 53.6885 116.674C53.6728 116.874 53.6632 117.039 53.6573 117.163C53.6544 117.225 53.6523 117.277 53.651 117.318C53.6503 117.339 53.6497 117.357 53.6493 117.372C53.6491 117.379 53.649 117.386 53.6488 117.392C53.6487 117.396 53.6487 117.398 53.6486 117.401C53.6486 117.403 53.6486 117.405 53.6485 117.405C53.6485 117.407 53.6485 117.409 58.1475 117.5C62.6466 117.591 62.6466 117.593 62.6465 117.595C62.6465 117.595 62.6465 117.597 62.6465 117.598C62.6464 117.6 62.6464 117.602 62.6463 117.604C62.6463 117.607 62.6462 117.61 62.6461 117.612C62.646 117.617 62.6459 117.619 62.6459 117.619C62.646 117.618 62.6463 117.609 62.6472 117.59C62.6489 117.553 62.6529 117.481 62.6608 117.38C62.6768 117.177 62.7083 116.863 62.7688 116.477C62.8931 115.683 63.1222 114.699 63.5189 113.775C63.9184 112.845 64.4064 112.163 64.9468 111.73C65.4148 111.355 66.1175 111 67.3702 111V106.5ZM18.8702 137L21.9572 140.274L38.8293 124.366L35.7422 121.092L32.6552 117.818L15.7831 133.726L18.8702 137ZM36.3702 119.637H40.8702V102.227H36.3702H31.8702V119.637H36.3702ZM84.8702 69L84.8702 73.5C109.114 73.5 119.479 91.8077 122.284 97.8858L126.37 96L130.456 94.1142C127.261 87.1923 114.626 64.5 84.8702 64.5L84.8702 69ZM126.37 96L123.775 92.3236L115.275 98.3236L117.87 102L120.465 105.676L128.965 99.6764L126.37 96ZM117.87 102L121.37 99.1718C116.456 93.0891 113.094 90.6768 107.286 87.5403L105.148 91.5L103.01 95.4597C107.941 98.1223 110.318 99.8133 114.37 104.828L117.87 102ZM36.4215 101.781L40.7992 102.823C41.8611 98.3625 44.611 92.4321 49.6477 87.0784L46.3702 83.9949L43.0927 80.9114C36.9531 87.4373 33.4614 94.7847 32.0439 100.738L36.4215 101.781ZM46.3702 83.9949L49.6477 87.0784C56.4614 79.8361 67.5979 73.5 84.8702 73.5L84.8702 69L84.8702 64.5C65.1448 64.5 51.627 71.8402 43.0927 80.9114L46.3702 83.9949ZM46.3702 83.9949L47.6757 79.6885C35.7742 76.0804 20.2076 67.537 13.2013 56.088C9.82355 50.5684 8.48351 44.4823 10.3413 37.7333C12.2412 30.8314 17.6453 22.661 28.9768 13.4993L26.1475 10L23.3183 6.50067C11.1499 16.339 4.24155 25.9811 1.66406 35.3447C-0.955519 44.8611 1.06213 53.4935 5.52468 60.7858C14.199 74.9605 32.2437 84.4146 45.0646 88.3014L46.3702 83.9949ZM26.1475 10H21.6475C21.6475 14.8808 20.605 19.8859 19.6571 25.3694C18.7659 30.5242 17.907 36.3455 19.1105 41.6145C20.4251 47.37 24.0682 52.0482 30.934 55.0344C37.463 57.8741 46.9085 59.2026 60.2162 58.9995L60.1475 54.5L60.0788 50.0005C47.1865 50.1974 39.2821 48.8509 34.5236 46.7812C30.1018 44.858 28.52 42.3925 27.8846 39.6105C27.138 36.342 27.6041 32.2321 28.5255 26.9025C29.39 21.9016 30.6475 15.8692 30.6475 10H26.1475ZM60.1475 54.5L62.6713 50.7744C58.9077 48.2248 56.1792 43.3502 56.8322 37.0246C57.4881 30.6725 61.6564 22.3082 72.9109 13.5516L70.1475 10L67.3842 6.44839C54.8614 16.1918 48.863 26.5775 47.8798 36.1004C46.8939 45.6498 51.054 53.7752 57.6237 58.2256L60.1475 54.5ZM70.1475 10H65.6475C65.6475 16.0092 64.9361 21.1677 64.3281 25.8274C63.7543 30.2248 63.1488 34.8283 63.9288 38.7585C64.3477 40.869 65.1776 42.9194 66.6617 44.7524C68.135 46.572 70.07 47.9515 72.3735 49.0025C76.8225 51.0325 83.1402 52.0497 91.701 52.4731L91.9233 47.9786L92.1455 43.4841C83.7828 43.0705 78.9167 42.0955 76.1095 40.8146C74.785 40.2102 74.0739 39.6046 73.6564 39.089C73.2497 38.5867 72.9443 37.9518 72.7566 37.0064C72.3236 34.8248 72.6205 31.8343 73.2524 26.992C73.85 22.412 74.6475 16.6853 74.6475 10H70.1475ZM92.7654 47.8463L94.3657 52.0521C100.886 49.5708 111.348 48.7453 120.155 51.6702C124.484 53.108 128.224 55.3877 130.949 58.6232C133.639 61.8176 135.553 66.1929 135.877 72.2407L140.37 72L144.864 71.7593C144.444 63.9315 141.89 57.6443 137.833 52.8261C133.81 48.0491 128.524 44.9664 122.992 43.129C112.076 39.5036 99.4793 40.4768 91.165 43.6405L92.7654 47.8463ZM140.37 72H135.87C135.87 74.6396 135.264 78.9989 133.46 83.042C131.672 87.0517 128.925 90.3093 124.857 91.7622L126.37 96L127.884 100.238C135.016 97.6907 139.268 92.1149 141.68 86.708C144.077 81.3344 144.87 75.6937 144.87 72H140.37ZM117.87 102L113.445 102.819L116.593 119.819L121.017 119L125.442 118.181L122.295 101.181L117.87 102ZM121.017 119C122.21 114.661 122.21 114.661 122.209 114.661C122.209 114.661 122.208 114.66 122.207 114.66C122.206 114.66 122.205 114.659 122.203 114.659C122.2 114.658 122.195 114.657 122.19 114.655C122.179 114.653 122.165 114.649 122.146 114.644C122.109 114.634 122.057 114.619 121.989 114.601C121.854 114.565 121.66 114.514 121.41 114.45C120.911 114.321 120.19 114.14 119.287 113.926C117.483 113.498 114.938 112.934 111.959 112.387C106.055 111.301 98.2141 110.235 90.981 110.503L91.1476 115L91.3141 119.497C97.581 119.265 104.675 120.199 110.331 121.238C113.132 121.753 115.523 122.283 117.21 122.683C118.053 122.883 118.717 123.05 119.165 123.165C119.39 123.223 119.56 123.268 119.671 123.298C119.727 123.313 119.768 123.324 119.794 123.331C119.807 123.334 119.816 123.337 119.821 123.338C119.823 123.339 119.825 123.339 119.826 123.339C119.826 123.339 119.826 123.339 119.826 123.339C119.826 123.339 119.825 123.339 119.825 123.339C119.825 123.339 119.825 123.339 121.017 119ZM58.1475 117.5C53.653 117.279 53.6528 117.282 53.6527 117.284C53.6527 117.285 53.6525 117.288 53.6525 117.29C53.6523 117.293 53.6521 117.297 53.652 117.301C53.6516 117.308 53.6513 117.316 53.651 117.324C53.6504 117.339 53.6498 117.356 53.6493 117.373C53.6482 117.407 53.6474 117.445 53.647 117.485C53.6461 117.566 53.6467 117.659 53.6498 117.764C53.656 117.973 53.6721 118.228 53.7063 118.525C53.7748 119.12 53.9154 119.878 54.1911 120.763C54.7473 122.548 55.8283 124.771 57.8584 127.167L61.2919 124.258L64.7253 121.349C63.4695 119.867 62.9784 118.711 62.7838 118.086C62.6842 117.767 62.6549 117.562 62.6472 117.496C62.6433 117.462 62.6448 117.462 62.6459 117.499C62.6465 117.517 62.6469 117.544 62.6465 117.581C62.6463 117.6 62.6459 117.621 62.6452 117.644C62.6448 117.655 62.6444 117.668 62.6439 117.681C62.6437 117.687 62.6434 117.694 62.6431 117.7C62.6429 117.704 62.6428 117.707 62.6426 117.711C62.6425 117.712 62.6424 117.715 62.6424 117.716C62.6422 117.718 62.6421 117.721 58.1475 117.5ZM125.5 127.5L126.923 123.231L123.923 122.231L122.5 126.5L121.077 130.769L124.077 131.769L125.5 127.5ZM122.5 126.5L123.371 122.085L79.2807 113.389L78.4099 117.804L77.5391 122.219L121.629 130.915L122.5 126.5ZM121.017 119L116.603 119.873L118.085 127.373L122.5 126.5L126.915 125.627L125.432 118.127L121.017 119ZM94.3792 165.599L96.0422 169.78L117.663 161.181L116 157L114.337 152.819L92.7162 161.417L94.3792 165.599ZM116 157L118.305 153.135L64.0769 120.797L61.7721 124.662L59.4674 128.527L113.695 160.865L116 157ZM116 157L120.283 158.379L129.783 128.879L125.5 127.5L121.217 126.121L111.717 155.621L116 157ZM61.2919 124.258L57.8584 127.167C58.3351 127.73 58.8882 128.182 59.4674 128.527L61.7721 124.662L64.0769 120.797C64.2955 120.928 64.52 121.107 64.7253 121.349L61.2919 124.258ZM91.9233 47.9786L91.701 52.4731C92.5943 52.5172 93.508 52.3785 94.3657 52.0521L92.7654 47.8463L91.165 43.6405C91.4911 43.5164 91.8203 43.468 92.1455 43.4841L91.9233 47.9786ZM36.3702 102.227H40.8702C40.8702 102.406 40.8504 102.608 40.7992 102.823L36.4215 101.781L32.0439 100.738C31.9229 101.246 31.8702 101.746 31.8702 102.227H36.3702ZM76.6808 115.947L72.246 116.71C72.6764 119.212 74.5731 121.634 77.5391 122.219L78.4099 117.804L79.2807 113.389C80.4388 113.617 80.9977 114.498 81.1157 115.184L76.6808 115.947ZM35.7422 121.092L38.8293 124.366C40.1318 123.138 40.8702 121.427 40.8702 119.637H36.3702H31.8702C31.8702 118.948 32.1542 118.29 32.6552 117.818L35.7422 121.092ZM92.4841 165.372L89.883 169.044C91.6791 170.317 93.997 170.594 96.0422 169.78L94.3792 165.599L92.7162 161.417C93.5029 161.104 94.3944 161.211 95.0852 161.7L92.4841 165.372ZM56.8343 140.451L56.4269 144.933C55.9881 144.893 55.5677 144.738 55.2082 144.483L57.8093 140.811L60.4104 137.139C59.4756 136.477 58.3825 136.073 57.2417 135.97L56.8343 140.451Z" fill="black"/></svg>
