<svg xmlns="http://www.w3.org/2000/svg" id="a" viewBox="0 0 145 171"><path d="m18.87 137-3.087-3.274-7.267 6.851 9.947.905zm106.63-9.5 4.283 1.379 1.366-4.239-4.226-1.409zm-67.352-10 4.494.221.003-.065.002-.065zM84.87 69v-4.5zM26.147 10h4.5V.575L23.319 6.5zm34 44.5.07 4.5 2.454-8.226zm10-44.5h4.5V.797l-7.263 5.651zm70.223 62h4.5v-.12l-.006-.12zM116 157l1.663 4.181a4.5 4.5 0 0 0 2.62-2.802zm-54.708-32.742-3.434 2.909zm.48.404 2.305-3.865zm30.151-76.683.222-4.495zm.842-.133-1.6-4.205zm-56.343 53.935 4.377 1.042zm40.259 14.166-4.435.763zm1.729 1.857-.87 4.415zm-42.668 3.288-3.087-3.274zm56.742 44.28 2.601-3.672zm1.895.227 1.663 4.181zm-37.545-25.148-.407 4.482zm.975.36 2.601-3.672zM18.87 137l-.407 4.482 37.964 3.451.407-4.482.408-4.481-37.964-3.452zm38.94 3.811-2.602 3.672 34.675 24.561 2.601-3.672 2.601-3.672-34.675-24.561zm18.87-24.864 4.436-.763c-.31-1.796-1.07-4.92-3.036-7.697C75.973 104.51 72.493 102 67.37 102v9c1.75 0 2.665.698 3.364 1.686.842 1.189 1.3 2.789 1.512 4.024zm-9.31-9.447V102c-3.247 0-5.947 1.02-8.052 2.708-2.033 1.629-3.288 3.697-4.07 5.517-.783 1.826-1.172 3.592-1.37 4.86a21 21 0 0 0-.22 2.078l-.009.209v.033c0 .002 0 .004 4.499.095s4.499.093 4.499.095v.009l-.001.015.001-.029.014-.21c.016-.203.047-.517.108-.903.124-.794.353-1.778.75-2.702.4-.93.887-1.612 1.428-2.045.468-.375 1.17-.73 2.423-.73zM18.87 137l3.087 3.274 16.872-15.908-3.087-3.274-3.087-3.274-16.872 15.908zm17.5-17.363h4.5v-17.41h-9v17.41zM84.87 69v4.5c24.244 0 34.609 18.308 37.414 24.386L126.37 96l4.086-1.886C127.261 87.192 114.626 64.5 84.87 64.5zm41.5 27-2.595-3.676-8.5 6L117.87 102l2.595 3.676 8.5-6zm-8.5 6 3.5-2.828c-4.914-6.083-8.276-8.495-14.084-11.632l-2.138 3.96-2.138 3.96c4.931 2.662 7.308 4.353 11.36 9.368zm-81.448-.219 4.377 1.042c1.062-4.46 3.812-10.39 8.849-15.745l-3.278-3.083-3.277-3.084c-6.14 6.526-9.632 13.874-11.05 19.827zm9.948-17.786 3.278 3.083C56.46 79.836 67.598 73.5 84.87 73.5v-9c-19.725 0-33.243 7.34-41.777 16.411zm0 0 1.306-4.306C35.774 76.08 20.208 67.537 13.2 56.088c-3.377-5.52-4.717-11.606-2.86-18.355 1.9-6.902 7.304-15.072 18.636-24.234L26.147 10l-2.829-3.5C11.15 16.34 4.242 25.982 1.664 35.346c-2.62 9.516-.602 18.149 3.86 25.44 8.675 14.176 26.72 23.63 39.54 27.516zM26.148 10h-4.5c0 4.88-1.043 9.886-1.99 15.37-.892 5.154-1.751 10.976-.548 16.244 1.315 5.756 4.958 10.434 11.824 13.42 6.529 2.84 15.974 4.169 29.282 3.965l-.069-4.499-.068-4.5c-12.892.197-20.797-1.15-25.555-3.219-4.422-1.923-6.004-4.389-6.64-7.17-.746-3.269-.28-7.379.642-12.708.864-5.001 2.122-11.034 2.122-16.903zm34 44.5 2.523-3.726c-3.763-2.55-6.492-7.424-5.839-13.75.656-6.352 4.824-14.716 16.079-23.472L70.147 10l-2.763-3.552C54.861 16.192 48.863 26.578 47.88 36.1c-.986 9.55 3.174 17.675 9.744 22.126zm10-44.5h-4.5c0 6.01-.712 11.168-1.32 15.827-.574 4.398-1.18 9.001-.4 12.931.42 2.111 1.25 4.161 2.734 5.994 1.473 1.82 3.408 3.2 5.712 4.25 4.449 2.03 10.766 3.048 19.327 3.471l.222-4.494.222-4.495c-8.362-.413-13.228-1.389-16.035-2.67-1.325-.604-2.036-1.21-2.454-1.725-.406-.502-.712-1.137-.9-2.083-.432-2.181-.135-5.172.496-10.014.598-4.58 1.395-10.307 1.395-16.992zm22.617 37.846 1.6 4.206c6.521-2.481 16.983-3.307 25.79-.382 4.329 1.438 8.069 3.718 10.794 6.953 2.69 3.195 4.604 7.57 4.928 13.618L140.37 72l4.494-.24c-.42-7.829-2.974-14.116-7.031-18.934-4.023-4.777-9.309-7.86-14.841-9.697-10.916-3.625-23.513-2.652-31.827.512zM140.37 72h-4.5c0 2.64-.606 6.999-2.41 11.042-1.788 4.01-4.535 7.267-8.603 8.72L126.37 96l1.514 4.238c7.132-2.547 11.384-8.123 13.796-13.53 2.397-5.374 3.19-11.014 3.19-14.708zm-22.5 30-4.425.819 3.148 17 4.424-.819 4.425-.819-3.147-17zm3.147 17 1.192-4.339-.002-.001-.004-.001-.013-.004-.044-.011-.157-.043-.579-.151c-.499-.129-1.22-.31-2.123-.524a147 147 0 0 0-7.328-1.539c-5.904-1.086-13.745-2.152-20.978-1.884l.167 4.497.166 4.497c6.267-.232 13.361.702 19.017 1.741 2.801.515 5.192 1.045 6.879 1.445a110 110 0 0 1 2.461.615l.123.033.027.007.005.001h-.001zm-62.87-1.5c-4.494-.221-4.494-.218-4.494-.216v.006l-.002.034-.004.161q0 .121.003.279a9 9 0 0 0 .056.761c.069.595.21 1.353.485 2.238.556 1.785 1.637 4.008 3.667 6.404l3.434-2.909 3.433-2.909c-1.255-1.482-1.747-2.638-1.941-3.263a3.4 3.4 0 0 1-.137-.59q-.004-.052-.001.003a2 2 0 0 1 0 .145l-.002.037v.019l-.001.011v.005c0 .002 0 .005-4.495-.216m67.353 10 1.423-4.269-3-1-1.423 4.269-1.423 4.269 3 1zm-3-1 .871-4.415-44.09-8.696-.871 4.415-.87 4.415 44.089 8.696zm-1.483-7.5-4.414.873 1.482 7.5 4.415-.873 4.415-.873-1.483-7.5zM94.38 165.599l1.663 4.181 21.621-8.599L116 157l-1.663-4.181-21.62 8.598zM116 157l2.305-3.865-54.228-32.338-2.305 3.865-2.305 3.865 54.228 32.338zm0 0 4.283 1.379 9.5-29.5-4.283-1.379-4.283-1.379-9.5 29.5zm-54.708-32.742-3.434 2.909a6.4 6.4 0 0 0 1.61 1.36l2.304-3.865 2.305-3.865c.219.131.443.31.648.552zm30.631-76.28-.222 4.495a6.6 6.6 0 0 0 2.665-.42l-1.6-4.207-1.601-4.205c.326-.125.655-.173.98-.157zm-55.553 54.25h4.5c0 .179-.02.381-.07.596l-4.378-1.042-4.378-1.043a6.4 6.4 0 0 0-.174 1.489zm40.31 13.72-4.434.763c.43 2.502 2.327 4.924 5.293 5.509l.87-4.415.872-4.415c1.158.228 1.717 1.109 1.835 1.795zm-40.938 5.145 3.087 3.274a6.5 6.5 0 0 0 2.041-4.729h-9c0-.689.284-1.347.785-1.819zm56.742 44.28-2.601 3.672a6.5 6.5 0 0 0 6.16.736l-1.664-4.181-1.663-4.182a2.5 2.5 0 0 1 2.37.283zm-35.65-24.921-.407 4.482a2.5 2.5 0 0 1-1.219-.45l2.601-3.672 2.601-3.672a6.5 6.5 0 0 0-3.168-1.169"/></svg>
