<svg xmlns="http://www.w3.org/2000/svg" id="a" viewBox="0 0 400 400"><path d="M181.977.95C66.346 12.549-14.813 116.06 2.272 230.148c17.343 115.808 131.64 192.081 245.793 164.027C351.58 368.735 416.918 265.8 396.157 160.869 376.479 61.415 282.056-9.086 181.977.951m42.703 29.486c85.41 13.1 145.86 83.307 145.86 169.4 0 49.96-19.252 93.97-55.376 126.59-8.102 7.317-20.709 16.96-21.254 16.258-32.402-41.745-70.848-83.704-95.564-104.3-9.018-7.513-9.068-6.75.915-13.73 34.952-24.437 80.266-63.261 88.212-75.58 3.542-5.491 5.729-5.016-23.086-5.016H239.28l-.35 1.4c-1.809 7.227-23.676 31.084-55.473 60.52-17.189 15.911-28.97 24.677-33.167 24.677h-1.61l.006-44.954c.009-59.704 1.258-139.911 2.305-147.917l.274-2.1 7.477-1.832c20.326-4.98 46.803-6.352 65.939-3.416M109.716 67.648c2.742 38.269 3.44 59.868 3.732 115.38.305 57.918-1.19 161.098-2.353 162.377-.194.213-3.084-1.475-6.422-3.753C46.07 301.661 18.216 230.754 33.86 161.378c9.262-41.071 34.315-77.99 69.574-102.523 2.657-1.848 4.972-3.204 5.145-3.014s.685 5.503 1.137 11.807m45.317 180.6c4.695 2.289 9.594 6.466 20.846 17.775 24.733 24.858 68.84 79.209 76.204 93.9l1.345 2.684-1.252.477c-24.928 9.496-67.868 10.343-97.143 1.914l-4.066-1.17-.348-6.095c-1.047-18.355-2.91-108.836-2.276-110.494.444-1.157 3.049-.765 6.69 1.01"/></svg>
