<svg xmlns="http://www.w3.org/2000/svg" id="koka" viewBox="0 0 400 400"><path fill="currentColor" d="M182.195 8.813C71.241 19.918-6.636 119.041 9.759 228.293 26.4 339.191 136.074 412.231 245.61 385.366c99.328-24.362 162.024-122.933 142.102-223.415C368.83 66.714 278.226-.798 182.195 8.813m40.976 28.236c81.956 12.545 139.96 79.775 139.96 162.219 0 47.842-18.473 89.986-53.136 121.224-7.774 7.006-19.871 16.24-20.394 15.568-31.092-39.975-67.983-80.156-91.699-99.878-8.653-7.195-8.701-6.465.878-13.149 33.538-23.4 77.02-60.579 84.644-72.375 3.399-5.259 5.497-4.804-22.152-4.804h-24.093l-.336 1.341c-1.735 6.921-22.718 29.766-53.229 57.954-16.493 15.237-27.798 23.631-31.825 23.631h-1.545l.006-43.048c.008-57.173 1.207-133.98 2.211-141.646l.263-2.012 7.175-1.754c19.504-4.768 44.91-6.082 63.272-3.271M112.857 72.683c2.631 36.646 3.301 57.33 3.581 110.488.293 55.463-1.142 154.269-2.258 155.494-.186.204-2.959-1.413-6.162-3.594-56.234-38.296-82.96-106.197-67.949-172.632 8.887-39.33 32.927-74.684 66.76-98.177 2.549-1.769 4.771-3.068 4.937-2.886s.657 5.27 1.091 11.307m43.484 172.944c4.505 2.191 9.206 6.191 20.003 17.021 23.732 23.804 66.056 75.851 73.122 89.92l1.29 2.569-1.201.457c-23.92 9.094-65.123 9.905-93.214 1.833l-3.902-1.121-.334-5.836c-1.004-17.577-2.792-104.222-2.183-105.81.426-1.108 2.925-.732 6.419.967"/></svg>
