<svg xmlns="http://www.w3.org/2000/svg" id="a" viewBox="0 0 191.2 191.2"><path stroke="currentColor" d="M4.5 4.5h30.4v30.4H4.5Zm76 0h30.4v30.4H80.5Zm38 0h30.4v30.4h-30.4Zm38 0h30.4v30.4h-30.4Zm-152 38h30.4v30.4H4.5Zm76 0h30.4v30.4H80.5Zm76 0h30.4v30.4h-30.4Zm-152 38h30.4v30.4H4.5Zm76 0h30.4v30.4H80.5Zm38 0h30.4v30.4h-30.4Zm38 0h30.4v30.4h-30.4Zm-152 38h30.4v30.4H4.5Zm76 0h30.4v30.4H80.5Zm76 0h30.4v30.4h-30.4Zm-152 38h30.4v30.4H4.5Zm38 0h30.4v30.4H42.5Zm38 0h30.4v30.4H80.5Zm76 0h30.4v30.4h-30.4Z"/></svg>
