<svg xmlns="http://www.w3.org/2000/svg" id="a" viewBox="0 0 60 60"><path d="M12.678 0 0 47.322 47.322 60 60 12.678Zm30.36 14.473 9.463 2.535-2.536 9.466-9.466-2.536Zm-32.15 15.905 1.672.447L9.545 42.08l5.978 1.603-.364 1.359-7.65-2.048Zm8.014 5.62 1.6.427-1.622 6.06q-.57 2.13 1.163 2.595 1.837.492 2.808-.715l1.828-6.82 1.605.43-2.514 9.378-1.524-.412.213-.935q-1.23.85-3.04.364-1.5-.401-2.055-1.479-.546-1.083-.098-2.791Zm12.535 3.272a4.8 4.8 0 0 1 .985.165q1.619.434 2.318 1.495.705 1.052.357 2.48l-1.156 4.316q-.345 1.29-.22 2.143l-.036.139-1.681-.45q-.064-.317.038-1.05-1.43.862-2.98.447-1.387-.37-2.07-1.39-.672-1.027-.35-2.231.392-1.465 1.718-1.971 1.335-.517 3.354.023l1.56.42.198-.738q.225-.838-.146-1.468-.366-.635-1.346-.9-.858-.23-1.555.048-.699.276-.861.892l-1.613-.43q.187-.702.857-1.22.68-.525 1.629-.677a4.8 4.8 0 0 1 1-.043m6.908 1.937 1.603.43-1.622 6.058q-.572 2.13 1.16 2.595 1.837.49 2.811-.715l1.828-6.82 1.602.43-2.511 9.375-1.527-.406.216-.938q-1.231.85-3.043.364-1.498-.401-2.055-1.479-.546-1.083-.096-2.791Zm-8.492 3.158q-1.26.096-1.548 1.174-.201.754.187 1.314.39.558 1.177.77a2.9 2.9 0 0 0 1.536-.007q.78-.209 1.25-.751l.515-1.924-1.256-.337q-1.105-.295-1.86-.24"/></svg>
