<svg xmlns="http://www.w3.org/2000/svg" id="a" viewBox="0 0 400 400"><path d="M84.375.88C83.435 4.083.085 315.431.148 315.507c.13.157 315.284 84.585 315.394 84.493.336-.275 84.536-315.305 84.31-315.438-.144-.086-70.401-18.947-156.13-41.914A590111 590111 0 0 1 86.243.444L84.635 0Zm236.979 104.947c15.612 4.185 28.437 7.66 28.5 7.723.26.26-16.698 62.846-17.03 62.846-.5 0-62.296-16.55-62.525-16.747-.109-.091 3.592-14.313 8.222-31.601l8.42-31.435 3.013.803c1.659.442 15.789 4.227 31.4 8.411m-242.88 98.267c2.861.768 5.247 1.44 5.302 1.495s-4.41 16.927-9.922 37.492c-5.512 20.567-9.995 37.418-9.965 37.447.044.04 34.69 9.348 38.725 10.403.494.129.897.364.897.522 0 .292-2.176 8.591-2.292 8.74-.075.098-50.304-13.335-50.686-13.556-.228-.13 5.592-22.15 21.79-82.45.483-1.794-.157-1.786 6.15-.093m55.607 38.053c1.362.377 2.529.736 2.591.798s-2.258 8.97-5.158 19.795c-7.458 27.845-7.404 27.525-5.408 31.933 3.428 7.568 17.981 9.184 24.714 2.746l1.685-1.61 5.992-22.473c3.296-12.359 6.035-22.591 6.085-22.738.082-.24 10.25 2.299 10.596 2.644.206.205-16.527 62.29-16.788 62.293-.395.006-9.555-2.453-9.747-2.616-.094-.08.13-1.461.5-3.07.368-1.608.647-2.924.621-2.924s-.972.47-2.1 1.046c-5.06 2.582-10.942 2.979-17.812 1.202-12.55-3.248-17.982-12.403-15.238-25.687.309-1.492 11.162-42.329 11.478-43.183.104-.282 1.19-.03 7.989 1.844m79.64 20.198c13.556 2.632 21.376 10.833 20.968 21.989-.127 3.502.307 1.65-5.301 22.591-4.488 16.758-4.497 16.796-4.58 21.961-.037 2.284-.126 4.212-.199 4.284-.22.22-10.686-2.65-11.073-3.035-.358-.359-.288-4.628.103-6.181.138-.55.073-.535-1.86.438-18.046 9.083-39.408-5.431-33.802-22.965q3.637-11.377 15.468-13.481c6.323-1.126 10.766-.645 22.188 2.403 3.221.859 5.952 1.577 6.068 1.598.868.15 2.317-8.644 1.834-11.124-2.075-10.631-21.41-14.08-25.755-4.593-.324.71-.663 1.292-.752 1.294s-2.496-.616-5.35-1.375c-5.972-1.586-5.614-1.217-4.071-4.193 3.947-7.622 15.142-11.742 26.114-9.611m47.52 13.869c2.713.728 4.972 1.365 5.02 1.412.049.05-2.392 9.34-5.423 20.65-6.792 25.329-6.95 26.182-5.556 30.194 2.872 8.272 17.9 10.47 25.104 3.674l1.601-1.51 6.088-22.732c3.348-12.503 6.195-22.733 6.328-22.735.544-.006 10.4 2.729 10.4 2.885 0 .172-16.42 61.556-16.597 62.048-.074.207-9.658-2.102-10.142-2.443-.045-.032.196-1.251.539-2.71.341-1.457.62-2.792.62-2.967 0-.207-.819.09-2.341.85-9.085 4.53-23.767 1.445-29.715-6.242-3.522-4.553-4.603-11.37-2.956-18.666 1.346-5.97 11.48-43.031 11.767-43.031.181 0 2.55.596 5.262 1.323m-63.745 19.727c-10.343 1.855-12.485 14.79-3.317 20.035 6.123 3.503 15.954 2.428 20.911-2.288l1.455-1.384.772-2.988a964 964 0 0 1 1.667-6.363l.896-3.373-5.53-1.459c-8.199-2.163-13.28-2.82-16.854-2.18"/></svg>
