<svg xmlns="http://www.w3.org/2000/svg" id="a" viewBox="0 0 512 512"><path d="M174.085 1.01c-59.246 9.958-93.286 74.455-69.902 132.444 5.713 14.169 14.096 26.438 25.045 36.651l6.85 6.39.532 14.054c.293 7.729 1.06 16.917 1.71 20.42.648 3.502.901 6.367.56 6.367-1.668 0-10.908-9.62-22.257-23.17-6.926-8.268-14.437-16.815-16.69-18.988l-4.099-3.952 3.017 8.345c8.857 24.516 10.982 33.253 13.29 54.641 1.78 16.47 2.83 19.54 9.64 28.205 2.363 3.004 2.65 4.033 2.704 9.677.13 13.723 12.068 26.843 24.506 26.935 3.641.027 4.23 1.265 5.074 10.653.732 8.163.326 28.29-.66 32.809-.21.966.621-.382 1.849-2.996 2.69-5.732 6.25-17.732 7.053-23.781 1.695-12.772 4.144 1.182 5.627 32.047 1.175 24.44 2.582 34.853 6.355 46.988l2.867 9.22.534-9.66c1.222-22.21 3.68-24.556 4.596-4.39.974 21.414 4.368 36.429 11.245 49.723 3.713 7.18 6.694 11.584 5.578 8.242-3.438-10.296-4.946-42.683-2.454-52.696l.875-3.513.611 4.391c3.264 23.497 10.289 42.605 25.754 70.042 5.176 9.186 6.237 10.5 4.258 5.27-4.105-10.842-9.393-56.56-6.2-53.593.38.351 2.753 5.49 5.275 11.417 2.523 5.929 7.754 17.498 11.626 25.709 9.967 21.137 14.51 35.363 16.553 51.819l.653 5.27 1.935-11.082c2.677-15.319 6.16-25.297 16.737-47.942 5.01-10.728 10.597-23.176 12.415-27.667l3.307-8.165.272 8.345c.46 14.036-2.96 40.026-6.015 45.734-2.155 4.029-.504 2.453 2.295-2.188 16.12-26.733 24.439-49.049 27.201-72.969.884-7.652 1.922-3.96 2.91 10.33 1.037 15.014-.726 35.199-3.534 40.443-2.438 4.555.383 1.614 3.39-3.536 9.256-15.842 14.128-39.226 14.315-68.682.015-2.652.985-.046 2.265 6.094.737 3.53 1.352 10.34 1.369 15.13.018 4.792.145 8.58.282 8.42 4.188-4.9 8.173-28.463 9.711-57.422 1.182-22.241 2.076-30.856 3.603-34.653.291-.725 1.243 2.133 2.113 6.348 1.751 8.468 5.473 20.109 7.517 23.515l1.317 2.195-.426-2.636c-1.87-11.546-1.047-40.304 1.191-41.687.619-.384 2.862-.937 4.981-1.226 12.475-1.71 21.877-12.596 22.934-26.55.468-6.2.833-7.256 3.897-11.286 4.86-6.387 6.695-12.124 8.246-25.77 2.495-21.943 6.262-36.76 15.789-62.11 1.15-3.06-9.061 7.474-17.879 18.444-9.644 11.996-24.118 27.356-24.55 26.056-.16-.48.323-5.007 1.074-10.063s1.365-14.008 1.365-19.894v-10.702l7.472-7.072c41.048-38.856 43.58-102.125 5.67-141.614-24.627-25.652-63.318-35.26-90.87-22.563L293.09 8l7.482-.385c58.848-3.043 91.256 68.349 43.82 96.53l-6.063 3.601-7.943-5.44c-42.848-29.348-103.359-29.365-147.243-.043l-8.067 5.392-2.91-1.498C121.606 80.171 148.024 8.137 208.2 7.91l11.719-.045-5.132-2.36c-9.25-4.255-29.1-6.447-40.702-4.497m198.78 31.888c3.634 3.14 6.635 5.956 6.67 6.255.117.963-7.349 1.797-7.662.856-.163-.484-2.229-4.1-4.592-8.033-4.668-7.766-4.418-7.725 5.584.922m-225.677-3.732c-1.237 1.81-3.21 5.174-4.383 7.472l-2.13 4.18-3.718-.57c-2.04-.312-3.819-.652-3.95-.756-.352-.28 15.065-13.528 15.8-13.577.348-.023-.38 1.438-1.617 3.251m-9.96 21.386c-.986 3.556-1.797 7.658-1.804 9.116-.033 7.396-.933 7.747-9.754 3.803-7.14-3.194-6.662-4.057 2.306-4.16 6.257-.075 10.204-5.523 4.92-6.79-9.334-2.238-10-4.578-1.695-5.966 1.778-.295 4.149-1.286 5.271-2.2 2.747-2.24 2.853-1.374.756 6.197m246.237-3.614c2.834.462 5.325 1.008 5.532 1.214.41.411-9.125 4.948-10.4 4.948-.708 0-.196 3.83.735 5.49.204.36 2.619.685 5.368.719 8.62.106 9.072.974 2.17 4.156-8.437 3.888-8.687 3.824-9.395-2.43-.518-4.587-1.37-8.41-3.7-16.625l-.595-2.103 2.564 1.895c1.41 1.044 4.883 2.274 7.72 2.736m-248.56 23.36c.292.764.545 2.444.561 3.732.017 1.29.749 4.43 1.631 6.982 1.461 4.23 1.476 4.71.191 5.449-1.236.708-1.155.992.642 2.272 1.13.805 3.411 3.584 5.069 6.176 1.658 2.594 4.752 6.4 6.875 8.46 2.122 2.058 5.276 5.461 7.007 7.561 2.307 2.795 3.158 3.382 3.186 2.196.026-1.138 1.592.078 5.255 4.087l5.217 5.71.015-3.732c.025-6.167 3.277-4.25 6.331 3.733l2.019 5.267.443-4.322c.738-7.184 4.876-5.205 9.664 4.622 2.838 5.818 3.387 5.69 3.216-.739-.16-6 .17-6.279 3.194-2.684 7.847 9.324 3.826 24.697-8.622 32.96-4.922 3.266-7.221 3.612-4.575.69 1.486-1.644 2.621-4.302 3.652-8.549.6-2.471.434-2.385-3.054 1.576-3.624 4.118-5.319 4.946-3.635 1.774.47-.886 1.493-3.77 2.273-6.406l1.418-4.796-4.502 5.052c-3.954 4.439-14.833 12.92-14.833 11.566 0-.276 1.93-3.353 4.288-6.839 4.082-6.036 8.008-13.056 8.008-14.322 0-1.47-7.603.68-15.29 4.321-4.632 2.196-8.425 3.848-8.425 3.676 0-.173 2.57-3.722 5.71-7.885 8.686-11.516 7.493-12.081-10.246-4.862-8.235 3.35-8.279 3.099-.852-5.14 8.354-9.266 8.083-9.614-4.79-6.185-3.82 1.017-7.875 2.058-9.009 2.315-1.45.326.238-1.759 5.708-7.048 9.288-8.978 9.582-8.471-5.292-9.142-13.22-.599-13.964-.907-7.626-3.159 2.388-.847 6.835-2.666 9.88-4.04l5.54-2.5-3.952-1.015a2622 2622 0 0 1-7.685-1.987c-4.376-1.14-4.802-2.332-1.1-3.071 5.222-1.044 1.28-2.943-6.11-2.943-5.381 0-4.737-.901 3.684-5.158 10.17-5.14 10.253-5.6 1.352-7.571-8.491-1.88-10.607-2.72-8.586-3.415 11.708-4.017 15.402-4.627 16.154-2.668m252.061.792c4.295 1.188 7.973 2.327 8.177 2.53.202.202-3.608 1.278-8.466 2.391s-8.832 2.333-8.832 2.712c0 .98 8.434 5.684 13.393 7.473 5.335 1.926 5.298 2.914-.11 2.914-8.484 0-12.704 1.851-7.05 3.093q5.713 1.255-4.934 3.937c-7.656 1.927-7.413 2.465 2.966 6.583 10.915 4.331 10.992 4.811.784 4.908-4.468.042-10.101.353-12.516.69l-4.39.613 7.69 7.433c8.746 8.457 9.14 9.19 3.946 7.356-5.351-1.887-15.3-4.056-17.058-3.72-1.138.22.046 2.039 4.927 7.568 7.59 8.602 7.566 8.807-.68 5.454-16.833-6.85-18.13-6.363-10.642 4.007 6.332 8.77 6.283 9.234-.593 5.773-9.516-4.789-17.012-6.954-17.012-4.914 0 1.18 4.122 8.419 8.02 14.077 2.35 3.415 4.275 6.493 4.275 6.839 0 1.38-10.528-6.626-14.482-11.014-4.465-4.956-4.538-4.735-1.304 3.895 1.973 5.262 1.091 5.267-3.53.02-4.242-4.822-4.396-2.53-.328 4.943 2.756 5.065 2.42 5.16-3.723 1.057-13.438-8.974-16.567-25.823-6.458-34.783l1.982-1.758-.531 4.007c-.944 7.12.113 8.507 2.63 3.456 4.973-9.978 9.91-12.479 9.972-5.048l.036 4.61 1.683-3.073c.924-1.69 1.7-3.736 1.72-4.546.038-1.5 3.95-5.115 5.536-5.115.528 0 .654 1.475.317 3.734l-.556 3.733 4.969-5.546c3.333-3.722 5.183-5.196 5.624-4.48.635 1.022 3.133-1.33 8.042-7.573.944-1.199 2-2.003 2.348-1.79.35.216 2.392-2.25 4.541-5.479s5.27-7.157 6.933-8.727c2.204-2.08 2.622-2.854 1.538-2.854-1.801 0-1.868-1.332-.298-5.819.656-1.873 1.471-5.281 1.81-7.574.342-2.297.891-4.169 1.224-4.164.334.007 4.118.984 8.41 2.171m-180.663 38.275c3.415 1.288 10.159 5.286 9.695 5.75-.4.4-13.811-5.756-13.811-6.342 0-.595 1.564-.37 4.116.59m97.855 2.666c-4.057 1.903-7.536 3.302-7.731 3.107-.536-.535 5.238-3.929 9.084-5.338 6.663-2.442 5.893-1.171-1.353 2.231m-192.002 8.478c8.131 17.165 23.46 37.03 36.743 47.611 6.31 5.028 5.758 5.43-1.759 1.274-19.829-10.965-29.614-24.955-39.408-56.349-1.006-3.22.828-.127 4.424 7.464m291.216-2.195c-6.5 22.673-20.658 42.148-36.781 50.592-8.756 4.586-9.836 4.34-3.255-.737 12.707-9.803 27.748-28.72 36.149-45.463 5.753-11.466 5.994-11.738 3.887-4.39m-190.927 7.244c8.264 7.228 10.536 16.976 6.472 27.764-1.69 4.48-7.008 12.122-5.793 8.322 3.502-10.957 2.526-22.286-2.846-33.063-4.04-8.102-3.885-8.319 2.167-3.023m93.184-2.415c-6.633 7.566-9.973 26.3-6.44 36.146 1.726 4.819 1.28 5.416-1.32 1.766-9.107-12.789-8.082-27.025 2.57-35.716 4.624-3.772 7.722-5.084 5.19-2.196m-112.064 39.074c-3.364 4.887-8.717 9.731-13.39 12.115-5.145 2.624-4.26 1.471 6.204-8.093 10.074-9.205 11.175-9.821 7.186-4.022m138.469 9.741c2.095 1.849 3.65 3.52 3.456 3.713-.901.901-12.017-7.574-15.37-11.721-5.582-6.905-4.548-7.376 2.173-.989 3.261 3.1 7.644 7.149 9.74 8.997m-91.675 13.002c2.94 3.492 5.348 8.24 6.179 12.178.878 4.164.157 3.266-5.256-6.53-4.737-8.573-5.062-10.567-.924-5.648m33.636.98c-1.175 2.055-3.43 6.028-5.008 8.836-1.58 2.808-3.081 4.89-3.342 4.63-1.48-1.478 7.297-17.198 9.6-17.198.488 0-.073 1.68-1.25 3.733m89.283-2.148c-.5.336-2.375 1.752-4.17 3.148-1.798 1.396-3.47 2.336-3.717 2.087-.248-.248 1.442-1.852 3.754-3.565s4.392-2.927 4.622-2.699c.228.231.009.692-.49 1.029m-208.952 2.386c1.932 1.667 3.084 3.035 2.56 3.043-.521.006-2.498-1.354-4.39-3.025s-3.046-3.039-2.562-3.042c.483 0 2.46 1.36 4.39 3.024m38.672 11.443c7.533 1.962 12.406 5.474 22.917 16.523 8.607 9.045 17.029 16.368 18.823 16.368 4.585 0-.236-20.258-7.125-29.932-3.072-4.317-.37-2.863 5.583 3.002 15.625 15.397 17.453 37.507 3.315 40.094-8.14 1.487-15.357-1.166-37.006-13.605-25.876-14.867-33.62-15.933-43.775-6.025-6.766 6.6-6.337 6.77-5.642-2.227 1.322-17.168 22.99-29.387 42.91-24.198m148.98 1.271c13.866 5.287 19.923 12.22 20.71 23.71.54 7.886-.029 8.491-3.444 3.659-8.095-11.452-18.751-11.42-39.36.12a15679 15679 0 0 1-17.127 9.574c-10.996 6.135-16.112 7.93-22.99 8.065-17.778.347-18.107-21.926-.589-39.806 6.432-6.565 9.462-7.996 5.259-2.486-5.57 7.301-10.777 28.784-6.977 28.784 1.963 0 11.06-7.84 19.72-16.998 15.65-16.548 28.636-20.786 44.798-14.623m-11.117 3.562c-3.106.517-2.855.599 2.197.72 3.139.076 6.697.355 7.905.623 1.581.352 1.827.261.876-.33-1.945-1.21-6.98-1.675-10.976-1.013m-161.074.758c-.731.462 1.92.587 6.589.308 4.296-.257 7.976-.611 8.178-.79.804-.71-13.625-.24-14.767.48m-30.747 37.576c1.11 2.297 1.675 4.946 1.495 7.026l-.287 3.34-1.404-3.073c-2.4-5.26-7.572-8.5-8.415-5.274-.84 3.212-2.013 1.823-2.034-2.41-.019-3.797-.408-5.983-2.228-12.518-.925-3.312 10.623 8.265 12.871 12.909m247.069-10.932c-.728 2.054-1.567 6.282-1.862 9.395-.5 5.298-.616 5.541-1.8 3.758-2.063-3.107-8.988 1.793-8.988 6.359 0 .74-.395 1.348-.878 1.348-3.926 0 1.001-11.625 8.026-18.942 6.375-6.637 7.29-6.957 5.502-1.918m-189.186 12.051c6.04 2.835 13.08 5.831 15.647 6.66 5.354 1.731 5.118 2.345-1.842 4.79-11.85 4.166-19.81.304-27.319-13.246l-2.536-4.578 2.536.611c1.396.338 7.476 2.931 13.515 5.765m134.378-5.724c0 1.16-5.807 10.098-8.204 12.63-6.106 6.45-12.174 7.663-22.08 4.412-6.218-2.041-7.06-3.04-3.312-3.929 1.33-.314 8.345-3.24 15.591-6.504 15.925-7.168 18.005-7.934 18.005-6.609m18.315 5.697c.553 3.353 1.048 7.998 1.096 10.32l.09 4.223 1.189-5.27c.655-2.898 1.22-6.653 1.254-8.345.077-3.583 1.188-2.255 2.207 2.636.96 4.62 4.336 11.323 8.41 16.707 7.022 9.276 7.369 13.939 1.412 18.974-7.845 6.634-15.731 7.544-38.365 4.436-8.937-1.228-18.34-2.44-20.896-2.695l-4.647-.46-6.65 6.318c-8.375 7.953-16.177 20.538-8.623 13.904 4.583-4.024 9.323-6.156 17.802-8.009 9.26-2.024 9.25-2.032 3.75 3.112-2.739 2.562-5.63 6.524-7.523 10.308-3.821 7.64-4.034 9.769-.659 6.62 2.777-2.594 9.88-7.146 9.88-6.335 0 .3-1.927 2.974-4.281 5.94-2.355 2.968-6.197 8.51-8.543 12.315l-4.26 6.923-1.011-6.542c-2.384-15.412-8.438-13.133-12.274 4.62-1.607 7.44-3.006 9.11-3.006 3.59 0-6.745-7.286-18.18-10.37-16.28-2.647 1.632-7.142 10.17-8.232 15.637l-1.063 5.332-.79-3.073c-2.9-11.317-6.552-18.387-9.519-18.426-2.478-.033-7.724 8.7-8.842 14.72-1.24 6.664-1.377 6.545-3.874-3.334-4.42-17.479-8.864-17.636-12.416-.439l-.724 3.501-3.385-5.572c-1.862-3.064-5.734-8.528-8.605-12.14-6.359-8.003-6.124-8.536 1.474-3.335 5.177 3.545 5.816 3.79 5.263 2.015-1.652-5.331-4.695-10.262-9.495-15.394-4.337-4.637-4.885-5.54-3.13-5.16 1.171.251 4.5.915 7.398 1.473 6.179 1.19 12.304 4.108 16.655 7.927 1.707 1.5 3.107 2.476 3.107 2.168 0-2.462-5.428-10.019-11.271-15.69l-7.05-6.845-4.673.54c-2.57.294-11.984 1.542-20.921 2.77-35.339 4.854-50.917-4.33-37.68-22.216 5.466-7.386 7.42-11.102 8.775-16.69 1.581-6.525 2.199-6.319 3.444 1.153l1.143 6.853 1.232-8.343c1.322-8.97 2.886-12.459 2.886-6.444 0 29.055 19.98 39.269 46.076 23.556 2.819-1.7 5.252-2.964 5.406-2.81.605.604-7.87 8.692-12.203 11.644-3.3 2.25-3.972 3.004-2.392 2.687 1.21-.243 5.359-.7 9.222-1.018 3.864-.317 9.299-1.284 12.077-2.147 5.843-1.816 6.236-1.386 1.804 1.977-4.003 3.038-2.021 3.119 3.913.162 5.364-2.673 8.476-6.026 13.368-14.402 10.597-18.147 15.712-17.92 28.359 1.255 6.505 9.863 10.637 13.564 16.796 15.043 2.537.612 2.537.609-.878-2.625l-3.42-3.238 3.283 1.305c4.376 1.74 25.448 4.528 23.702 3.135-.35-.279-2.818-2.144-5.485-4.146-4.178-3.132-8.764-8.022-8.764-9.342 0-.226 2.249.943 4.996 2.598 16.114 9.702 31.25 10.313 37.716 1.519 5.146-7 8.228-16.328 8.228-24.9 0-6.274 1.335-5.342 2.507 1.749m-99.118 8.835c-1.356 1.45-2.904 3.92-3.441 5.49l-.977 2.852 2.176-2.635c1.2-1.449 2.193-2.921 2.21-3.272.018-.349 1.259-1.27 2.757-2.045 3.749-1.938 6.51-.64 10.669 5.015 3.96 5.38 4.252 4.638.65-1.643-4.138-7.217-9.482-8.648-14.046-3.762m.75 17.802c-1.27 2.043-3.104 5.295-4.073 7.228s-3.582 5.854-5.806 8.717-4.044 5.633-4.044 6.16c0 1.468 9.993 12.152 12.99 13.887l2.657 1.538-.93-3.03c-.913-2.972 1.602-13.43 3.795-15.78 2.14-2.294 6.188 13.57 4.341 17.019l-1.064 1.989 2.82-1.639c7.69-4.462 14.69-14.64 11.75-17.081-1.888-1.566-7.466-9.856-10.292-15.293-3.34-6.427-3.556-6.652-6.833-7.059-2.732-.337-3.204-.04-5.31 3.344m79.142 34.767c-3.145 8.278-4.62 21.08-4.18 36.307l.398 13.833-4.899 3.237c-10.276 6.791-18.979 17.503-36.481 44.897-9.813 15.357-9.797 15.346-9.398 7.588.182-3.548-.317-8.42-1.281-12.516l-1.58-6.707-1.037 6.71c-1.696 10.968-2.93 11.464-2.967 1.194-.064-17.517-6.034-24.493-17.285-20.196-5.984 2.285-7.762 6.658-7.766 19.095 0 5.194-.258 9.442-.573 9.442-.853.001-2.522-7.744-2.721-12.632-.171-4.224-.19-4.25-1.246-1.756-1.967 4.646-3.117 11.99-2.759 17.611.465 7.303.668 7.472-8.886-7.433-17.498-27.294-25.617-37.417-35.88-44.741l-5.64-4.025.603-10.181c.834-14.08-1.508-32.93-5.277-42.455-1.037-2.624.809-1.677 2.58 1.322 7.713 13.063 9.53 18.06 12.05 33.117 2.247 13.427 2.957 14.997 3.676 8.12.962-9.201 3.486-12.654 4.395-6.014.783 5.712 3.783 13.053 7.78 19.037 4.26 6.38 4.407 6.337 3.182-.937-2.146-12.742 2.257-20.092 5.185-8.653 1.267 4.955 5.117 10.695 10.825 16.147 3.221 3.073 3.586 3.239 2.923 1.317-.88-2.551-.806-15.614.093-16.515 1.18-1.179 2.982 2.683 4.056 8.699 1.359 7.598 1.76 7.902 8.267 6.303 6.214-1.529 7.124-2.473 7.914-8.216.724-5.269 2.729-5.853 3.537-1.03 1.194 7.149 1.435 7.444 7.484 9.157 6.753 1.911 7.227 1.575 8.732-6.199 2.013-10.396 3.951-11.672 4.86-3.198.569 5.323.367 7.597-1.03 11.577-.874 2.483 8.213-6.64 11.133-11.18 1.42-2.208 2.833-5.369 3.137-7.026.791-4.28 2.877-7.416 4.114-6.178 1.122 1.122 1.402 15.008.381 18.975l-.678 2.635 2.62-3.074c3.512-4.118 7.521-12.518 8.805-18.444 1.625-7.503 1.749-7.745 2.895-5.709.544.967 1.625 4.524 2.4 7.905l1.413 6.15 1.117-7.029c3.41-21.452 5.135-26.857 11.92-37.348 4.698-7.258 5.58-7.538 3.09-.983"/></svg>
