<svg xmlns="http://www.w3.org/2000/svg" id="a" viewBox="0 0 16.116 20.183"><path d="M14.753 8.554c.17.645-.552 1.334-.552 1.334s-1.314.838-1.058-2.758C13.4 3.534 7.51 0 7.51 0s.034.343-.002 2.714c-.044 2.983-1.824 1.96-1.824 1.96-1.78 1.838-1.619 5.988-1.619 5.988C1.86 12.54 1.782 8.635 1.782 8.635s-4.198 4.084.292 8.46c0 0 .658.634-.394.432-.75-.144-.92-.433-.92-.433s.143 1.81 5.438 2.944c.103.02 1.748.332 3.607-.025 4.08-.882 4.79-2.521 4.79-2.521s-.085.148-.762.214c-.728.07-.103-.605-.103-.605 4.792-2.898.854-9.193 1.023-8.547"/><path d="M13.453 11.336v-.002Zm0 0c-.02.047-.42.984-1.907 1.222-1.526.245-.855-4.876-.855-4.876-3.752 1.711-3.055 5.732-3.055 5.732s-.6.557-1.367 0c-.261-.19.31 3.23 2.76 4.547a11 11 0 0 0 1.646-.026c1.688-1.13 2.587-4.67 2.587-4.67l-.774.46M2.68 5.933s-.22-1.853.853-2.672c.168-.127.28-.23.363-.42.068-.155.172-.4.12-.584-.125-.46 1.43 2.084-1.336 3.676"/></svg>
