<svg xmlns="http://www.w3.org/2000/svg" id="a" viewBox="0 0 400 333.125"><path d="M196.25.637c-3.294.227-5.524.773-7.5 1.834-2.189 1.175-4.161 1.595-8.889 1.894-5.235.332-6.296.591-7.656 1.869-2.268 2.13-1.996 2.516 1.776 2.516 4.044 0 13.193 1.528 17.81 2.974l3.354 1.05-.417 4.064c-.484 4.725-.334 4.59-6.705 6.036-4.705 1.068-4.898 1.182-4.898 2.889 0 .977-.401 2.737-.892 3.911-.986 2.36-.602 2.636 5.267 3.793 6.856 1.351 4.413 4.961-5.312 7.85-2.407.715-4.643 1.555-4.969 1.866-.779.744.035.729 2.744-.047 1.178-.338 2.257-.499 2.399-.358.563.563-19.622 19.852-23.665 22.615-2.55 1.742-4.322 3.397-4.322 4.037 0 1.298-2.812 3.78-5.584 4.928-1.435.594-1.768.973-1.177 1.338 2.129 1.316-1.245 2.735-7.042 2.961-6.42.25-7.542 1.53-1.616 1.843 1.949.103 3.544.43 3.544.726 0 .937-3.795 3.774-5.048 3.774-.661 0-1.202.336-1.202.747 0 1.834-3.338 4.253-5.898 4.273-2.355.018-2.452.086-1.341.927 2.223 1.682-2.587 6.986-9.636 10.625-1.203.621-1.836 1.248-1.406 1.393.429.145.781.652.781 1.125 0 .782-1.29 1.27-6.406 2.422-1.806.406-2.39 1.613-.781 1.613 1.848 0 .787 1.25-9.963 11.733-7.735 7.542-12.766 11.875-17.324 14.917-5.836 3.896-9.709 7.769-8.968 8.968.158.256-.303.995-1.026 1.642l-1.313 1.178.331-14.063c.692-29.402 7.49-46.494 25.735-64.706 18.303-18.269 28.024-21.576 57.58-19.589 10.087.678 19 .294 15.306-.66-2.272-.587-2.386-1.92-.165-1.92 1.077 0 2.012-.395 2.22-.937.441-1.151.465-1.151-4.914-.011-5.614 1.189-16.66 1.195-29.374.015-13.008-1.206-16.563-1.216-16.563-.047 0 .493.563 1.074 1.25 1.293 1.656.525 1.585 1.379-.156 1.893-2.613.77-13.507 7.185-18.41 10.839-23.657 17.632-35.93 46.591-35.111 82.843l.154 6.825-5.916 5.675c-3.253 3.121-12.234 11.563-19.957 18.759-7.723 7.197-16.605 15.564-19.739 18.594-8.393 8.116-9.7 7.538-4.614-2.041 9.261-17.444 10.761-22.26 8.3-26.653-.728-1.298-1.882-4.548-2.566-7.223-2.256-8.831-4.669-10.441-4.983-3.326-.22 4.976-.923 5.131-3.328.733-1.533-2.802-2.722-4.074-3.83-4.096-.258-.006-.469 1.926-.469 4.291v4.302l-5.156 1.63c-6.668 2.108-6.808 2.218-7.396 5.797-.937 5.701-.758 7.095.913 7.095.817 0 1.836.422 2.264.938.975 1.175 2.455 1.167 4.026-.02 4.836-3.658 5.293 1.753.635 7.52-5.066 6.272-5.917 10.438-3.328 16.292 1.881 4.252 1.344 10.367-1.674 19.041-5.846 16.805-5.972 15.52 3.127 31.854 3.236 5.809 6.129 9.236 8.245 9.767.749.188 1.685 1.121 2.08 2.074.63 1.521 4.389 5.024 4.389 4.09 0-.196-.572-1.477-1.271-2.848-.935-1.831-1.105-2.778-.644-3.569.57-.978.629-.963.646.174.038 2.384 3.639 8.781 8.444 15 4.535 5.867 7.2 10.117 7.2 11.481 0 .338-1.407.218-3.281-.281-4.153-1.105-5.756-1.111-6.658-.023-1.063 1.28.35 1.618 7.045 1.689l5.772.06 1.723 2.723c2.903 4.589 7.899 8.219 7.899 5.74 0-.44-.438-1.424-.973-2.188-1.584-2.261-.097-1.586 2.565 1.164 1.359 1.404 3.474 3.071 4.701 3.705l2.231 1.152 4.644-2.131c4.434-2.034 8.707-2.808 8.707-1.577 0 .558 2.241 1.407 5.781 2.191 3.466.768-.41 2.875-5.229 2.843l-2.114-.014 1.491-1.146c1.784-1.372.986-2.103-1.708-1.564-2.772.554-4.146 2.26-3.217 3.995.543 1.015 1.072 1.255 2.081.943 3.016-.931 7.698-1.081 6.353-.203-.937.611-4.876.816-15.729.816-7.963 0-14.689.21-14.948.468-.258.258.14.469.885.469 2.138 0 1.573.766-2.39 3.239-2.285 1.427-4.33 3.329-5.378 5-1.961 3.131-2.556 3.613-4.472 3.626-1.064.008-1.406.374-1.406 1.506 0 1.839-.54 2.053-7.503 2.981-3.059.407-5.422.965-5.252 1.241.17.275 1.547.331 3.06.124 4.376-.6 5.084-.057 3.425 2.628-1.788 2.892-1.355 3.195 1.309.917 3.228-2.759 4.097-2.255 1.524.884-1.997 2.437-2.766 2.884-6.385 3.709-2.263.517-4.555 1.379-5.093 1.917-1.394 1.394-.006 1.304 4.134-.27 3.808-1.447 4.849-.22 1.348 1.591-1.063.549-1.79 1.142-1.616 1.316.438.439 2.818-.883 5.41-3.005 2.178-1.782 6.889-2.572 6.889-1.154 0 .344-.827.625-1.838.625s-2.012.281-2.225.625c-.501.811 4.078.826 6.198.02 1.011-.384 1.465-.933 1.245-1.506-.556-1.451 1.961-1.932 10.158-1.942 7.204-.009 9.143-.349 8.077-1.416-.258-.258-4.875-.549-10.261-.647-10.594-.193-13.126-.487-12.2-1.413.355-.355 1.353-.363 2.547-.021 2.12.608 4.465-.444 3.711-1.665-.223-.36.015-.815.529-1.012s.934-.93.934-1.628c0-.699.242-1.27.537-1.27s1.772-1.084 3.281-2.408c5.778-5.071 10.798-5.813 24.307-3.593 7.184 1.181 16.192 1.446 17.838.524 1.353-.757-3.981-1.823-12.059-2.408-7.176-.521-7.292-2.115-.154-2.115 2.934 0 4.452-.278 4.977-.91 1.003-1.209.331-2.179-1.228-1.771-.687.18-1.249.049-1.249-.29s1.702-.951 3.783-1.361c7.563-1.488 11.287-4.409 5.644-4.428-2.823-.009-5.07-.788-4.025-1.395 1.189-.69 10.737-1.075 13.661-.551 1.718.308 6.592 1.194 10.829 1.968 7.595 1.387 7.758 1.39 11.466.268 3.375-1.022 4.221-1.055 8.233-.32 7.439 1.362 11.044 1.438 17.909.375 12.179-1.884 11.926-1.883 14.598-.056 2.21 1.512 3.325 1.723 13.437 2.551 15.265 1.25 18.071 1.193 21.729-.443 4.227-1.89 10.941-1.771 20.035.355 8.359 1.954 11.989 2.018 21.37.377 8.858-1.55 9.425-1.546 12.792.089l2.744 1.334 13.592-1.982c7.476-1.091 17.263-2.158 21.749-2.373 8.106-.387 8.178-.404 11.649-2.719 1.921-1.281 6.512-4.095 10.204-6.253 7.953-4.65 12.807-8.797 14.887-12.717.861-1.622 2.193-3.117 3.083-3.46 2.761-1.065 3.547-2.151 3.992-5.514.239-1.809 1.519-6.309 2.845-10 2.783-7.749 2.451-8.32 4.091 7.039.551 5.156 1.157 10.701 1.346 12.323.23 1.977.035 3.567-.592 4.824-.854 1.712-.831 2.081.257 4.215.655 1.287 1.192 2.781 1.192 3.32 0 .54.773 1.329 1.719 1.755a57 57 0 0 1 3.483 1.756c4.212 2.342 5.742.201 2.793-3.906-1.692-2.356-1.888-2.977-1.26-3.983.602-.964.56-1.295-.217-1.73-2.202-1.232-3.151-6.739-4.636-26.896-.633-8.591-.609-9.011.618-10.57l1.277-1.624-1.332-1.418c-1.009-1.074-1.4-2.45-1.613-5.68-.463-7.04-.431-6.98-3.804-7.196-2.562-.165-2.94-.361-2.777-1.44.958-6.35.917-7.054-.451-7.786-1.973-1.056-3.628-.254-4.418 2.14-.383 1.16-1.103 2.446-1.601 2.86-1.254 1.04-1.267-6.703-.016-9.696.807-1.932.775-2.351-.345-4.511-1.29-2.492-1.19-6.572.227-9.219.356-.666.716-3.364.799-5.996l.151-4.784-2.141-.774c-2.99-1.081-4.082-.115-3.559 3.151.46 2.877-1.429 3.484-3.372 1.083-.598-.74-1.816-2.191-2.705-3.226l-1.618-1.882-1.351 1.351c-1.552 1.552-1.759 4.31-.456 6.075.718.973 1.053 1.058 1.688.432 1.902-1.876 5.242.622 7.254 5.424.861 2.055.803 2.333-1.401 6.733l-2.299 4.59 1.318 4.341c.725 2.387 1.484 4.771 1.686 5.298.288.75-.116.958-1.863.958-1.89 0-2.816.577-6.052 3.774-3.125 3.086-3.529 3.7-2.217 3.371 2.517-.632 2.735 1.19.453 3.789-2.467 2.81-3.586 1.422-2.966-3.681 1.07-8.814 1.162-11.003.465-11.003-.426 0-.711 1.128-.711 2.813 0 2.185-.228 2.812-1.021 2.812-5.447 0-7.076 2.654-4.604 7.5 1.68 3.294 1.632 3.493-1.283 5.333-1.935 1.222-2.444 1.88-2.155 2.789.602 1.9-3.132 8.128-4.874 8.128-.929 0 .036-3.674 1.432-5.447 1.516-1.928 1.609-2.775.247-2.252-.832.319-.939.071-.614-1.426.216-.997.656-4.344.978-7.437s.942-6.836 1.378-8.316c.674-2.289.655-2.777-.127-3.271-1.629-1.031-1.857-.665-1.862 2.993-.012 7.726-.604 10.156-2.473 10.156-3.366 0-5.483 4.015-3.356 6.365 1.005 1.11.855 1.145-4.218.986-6.289-.196-7.092.626-2.203 2.254 4.85 1.615 4.28 2.38-4.602 6.17-5.17 2.205-3.783 2.593-14.313-3.993-14.22-8.894-23.83-16.691-23.83-19.335 0-2.551-3.414-19.439-6.938-34.322-5.732-24.207-7.022-30.251-12.117-56.754-2.588-13.462-5.266-25.897-5.95-27.634-1.563-3.966-1.577-6.315-.048-8.199l1.198-1.475.359 1.562c3.954 17.173 11.226 46.601 19.682 79.65 5.81 22.708 11.047 43.538 11.637 46.288 1.023 4.771 2.792 9.22 3.948 9.935.641.396-3.317-16.135-11.058-46.185-15.621-60.638-23.432-93.104-22.906-95.202.845-3.367 17.568-17.709 25.318-21.713 5.648-2.919 16.785-2.036 32.619 2.587 8.404 2.453 13.351 1.098 7.248-1.985-1.818-.918-6.961-3.78-11.429-6.36-14.342-8.279-21.111-10.864-33.125-12.649l-8.125-1.207-13.943-7.001C200.816 40.85 200 40.247 200 36.855v-1.978l3.664.425c4.118.478 4.434.133 4.452-4.847.009-2.464-.716-3.131-7.434-6.832-2.398-1.322-2.472-2.849-.651-13.338C201.833-.093 201.964.242 196.25.637m-3.125 27.183c0 2.291-1.337 4.78-2.357 4.389-.486-.187-1.561-.509-2.389-.717-2.711-.68-2.16-4.617.647-4.617 1.182 0 2.327-.286 2.543-.635.622-1.007 1.556-.059 1.556 1.58m3.089 1.057c-.869 3.03-2.464 4.424-2.464 2.153 0-2.185 1.027-4.155 2.166-4.155.684 0 .748.432.298 2.002m4.411-.752c0 .783-.663.783-1.875 0-.758-.49-.668-.608.469-.615.773-.006 1.406.271 1.406.615m-1.644 8.906c.207.774.381 1.959.385 2.634.013 1.75-1.631.02-2.205-2.321-.53-2.163 1.243-2.468 1.82-.313m-7.314 4.578c.437 1.139-.632 5.091-1.813 6.707-.879 1.202-7.979.91-7.979-.328 0-.837 6.005-6.774 6.426-6.354.191.191.056 1.181-.299 2.201-.356 1.02-.458 2.042-.228 2.273.683.682 1.581-1.267 1.591-3.452.011-2.178 1.592-2.897 2.302-1.047m8.936 2.725c.356.665.647 2.131.647 3.259 0 2.781-1.596 1.248-2.211-2.124-.468-2.562.445-3.225 1.564-1.135m11.037 3.982c6.472 2.91 7.359 3.927 2.891 3.315a222 222 0 0 0-6.843-.789c-3.609-.357-3.919-.512-4.531-2.268-1.547-4.439-.863-4.459 8.483-.258m-16.636 2.599c4.295.503 11.65 1.625 16.345 2.493 4.696.868 11.458 1.988 15.029 2.489 10.788 1.515 13.647 3.112 8.503 4.749-1.825.58-5.287 2.242-7.693 3.692-5.289 3.187-3.53 3.061 5.937-.423 9.961-3.666 11.09-3.796 16.075-1.84 2.355.924 6.364 2.257 8.909 2.963 2.545.705 5.769 1.966 7.165 2.803l2.539 1.522-7.525.006c-11.08.009-18.065 2.113-27.119 8.169-45.902 30.703-47.69 101.876-3.68 146.488 4.389 4.449 7.886 8.182 7.772 8.296-.583.584-2.479-.914-5.378-4.247-2.134-2.453-4.372-4.25-6.616-5.311-2.719-1.286-3.392-1.903-3.392-3.106 0-1.025-.576-1.799-1.817-2.44-.999-.517-2.335-2.001-2.969-3.298-.633-1.296-1.784-2.635-2.558-2.974-.855-.376-1.406-1.165-1.406-2.016 0-.907-.63-1.723-1.793-2.325-1.431-.74-1.733-1.247-1.492-2.505.328-1.715-1.492-2.85-4.568-2.85-1.841 0 4.035 7.874 12.47 16.711 7.316 7.663 4.496 6.829-3.681-1.09-3.583-3.47-6.185-5.38-9.173-6.735-4.703-2.132-5.32-2.906-10.376-13-5.564-11.109-10.126-25.18-12.041-37.136-.413-2.578-1.068-4.894-1.455-5.147-.42-.274-.446-.463-.063-.468.412-.007.554-2.349.399-6.563-.471-12.718 2.39-27.182 7.952-40.203l3.121-7.306-2.159 2.457c-2.811 3.201-4.83 7.551-6.969 15.01l-1.734 6.048-1.875-.365c-1.863-.364-1.866-.36-.469.621 1.442 1.012 1.854 3.867 1.012 7.01-.46 1.717-1.311 1.737-6.38.148-4.209-1.319-7.651-1.661-6.632-.657.326.321 2.692 1.145 5.257 1.83 4.427 1.183 6.274 2.439 6.274 4.267 0 1.199-2.255 1.006-7.848-.67-8.08-2.423-7.171-.94 1.13 1.842 5 1.676 8.048 4.126 5.618 4.516-.625.1-5.188-1.246-10.139-2.991-4.952-1.746-9.441-3.078-9.976-2.96-1.615.355 2.945 2.841 7.778 4.24 7.421 2.148 9.828 3.204 12.141 5.323 2.97 2.722 2.267 3.118-2.772 1.562-4.837-1.494-4.884-1.501-4.364-.66.759 1.229 5.284 3.116 7.47 3.116 2.041 0 2.212.145 2.212 1.875 0 2.857-3.106 2.419-15.312-2.163-8.75-3.284-9.688-3.832-9.688-5.666 0-1.675 2.207-2.214 3.553-.868.373.373 1.302.584 2.065.469 1.143-.173.8-.542-1.96-2.106-3.796-2.153-4.543-4.266-2.74-7.753l.991-1.916 2.327 1.017c1.279.559 3.03 1.14 3.889 1.292 2.628.464-.378-1.604-3.594-2.473-3.013-.814-3.321-1.839-1.71-5.694 1.008-2.413 2.39-2.864 4.807-1.57 1.907 1.02 4.872 1.788 4.872 1.262 0-.67-5.451-3.206-6.892-3.206-1.689 0-1.644-2.87.101-6.463l1.335-2.746 3.702 1.121c2.516.761 3.625.885 3.462.386-.132-.405-1.766-1.112-3.63-1.573-4.19-1.035-3.914-.542-2.541-4.529 3.176-9.224 8.467-17.383 19.934-30.739 7.4-8.619 7.209-9.383-.548-2.196-23.452 21.727-34.592 63.437-26.527 99.318l1.391 6.188-2.237-.419c-2.757-.516-1.802 1.234 1.066 1.953 2.123.533 3.259 1.459 3.259 2.658 0 1.467-3.656.522-12.5-3.232-4.297-1.823-8.439-3.51-9.206-3.747-4.565-1.413-7.602-32.245-4.908-49.818 2.785-18.159 8.627-32.652 17.616-43.695 2.519-3.094 3.998-5.485 3.998-6.461 0-2.606 18.908-19.048 26.525-23.065 2.222-1.172 2.362-1.366 1.127-1.559-2.212-.345-7.673 2.495-12.233 6.363-4.604 3.906-5.449 3.828-1.825-.17 9.309-10.27 11.43-10.988 27.035-9.16m-59.066.578c-9.216 2.889-19.743 11.391-25.241 20.383-2.053 3.359-1.939 3.28 5.008-3.468 7.703-7.483 12.628-11.244 19.92-15.214 4.751-2.586 4.85-3.124.313-1.701m8.437 5.472c-13.214 11.34-14.94 13.033-16.206 15.894-.683 1.544-2.922 4.839-4.975 7.321s-4.034 5.304-4.401 6.27c-1.469 3.862-.497 3.442 2.841-1.228 8.094-11.324 20.065-23.824 26.2-27.358 4.282-2.466 5.291-3.448 5.291-5.148 0-2.551-1.903-1.627-8.75 4.249m59.81.915c-6.377 2.675-12.935 8.056-12.935 10.614 0 .667 9.328-5.189 13.707-8.605 1.296-1.01 3.623-3.748 3.047-3.585-.105.03-1.824.74-3.819 1.576m-55.122 10.245c-.492.796.956.796 2.187 0 .762-.493.681-.608-.432-.615-.753-.006-1.543.271-1.755.615m7.226 4.423c-1.181.991-2.289 1.66-2.461 1.489-.172-.172.655-1.123 1.836-2.114s2.289-1.66 2.461-1.489c.172.172-.654 1.123-1.836 2.114m61.211-2.109c-1.223.443-4.93 3.931-5.719 5.38-.588 1.082-.524 1.086 1.458.083 2.389-1.208 4.739-3.229 5.59-4.808.603-1.118.325-1.255-1.329-.655M139.688 75c-.219.353.293.625 1.176.625.859 0 1.736-.281 1.949-.625.218-.353-.294-.625-1.177-.625-.859 0-1.736.281-1.948.625m10.81 2.472c-.863 1.38-1.47 1.208-.907-.258.203-.53.662-.964 1.02-.964.411 0 .37.448-.113 1.222m-48.348 5.497c-4.008 4.827-5.973 8.377-7.452 13.464-.917 3.155-1.23 3.575-2.711 3.64-1.058.045-1.272.177-.581.358 2.627.686 1.264 3.155-2.187 3.961-4.848 1.133-7.344 2.294-7.344 3.415 0 .82.479.715 2.711-.593 4.302-2.521 6.664-2.215 6.664.863 0 3.496-2.165 5.732-8.455 8.735-5.915 2.824-7.044 3.867-2.014 1.861 9.259-3.693 8.775-4.039 6.68 4.78-1.337 5.63-1.24 6.844.416 5.188.596-.596 1.296-3.358 1.811-7.15 1.598-11.757 8.445-30.576 14.186-38.991 3.612-5.294 2.9-5.101-1.724.469m45.549-.203c-.213 1.314-1.303 3.75-2.423 5.413-1.119 1.663-2.503 4.432-3.074 6.152-.571 1.721-2.144 4.755-3.494 6.742s-2.456 4.107-2.457 4.708c-.001.936-.657 1.103-4.532 1.155l-4.531.062 3.437 1.057c3.01.926 3.463 1.279 3.644 2.837.185 1.604.061 1.737-1.25 1.346-4.314-1.284-16.212-1.058-12.706.241.687.255 3.638.658 6.558.895 6.164.5 7.257 1.151 5.011 2.985-1.257 1.027-2.094 1.197-4.375.886-11.177-1.524-14.16-.525-3.559 1.191 6.871 1.113 8.678 1.96 6.946 3.258-1.171.878-4.043.804-7.613-.196-.78-.218-1.406-.117-1.406.228 0 .666 1.831 1.448 6.084 2.601 4.389 1.19 4.895 3.33.671 2.843-10.424-1.203-17.63-2.305-20.269-3.099-1.645-.495-3.031-.84-3.081-.767-.425.625-1.531 11.717-1.531 15.342.001 4.757 1.341 6.333 1.761 2.071.195-1.987.214-1.997 3.125-1.691 1.61.169 5.091.468 7.734.664 6.199.458 10.516 1.762 12.368 3.734 2.065 2.198 2.113 2.196-9.36.276-5.67-.949-10.424-1.611-10.564-1.471-.587.587 4.366 2.087 9.006 2.726 6.227.859 8.975 1.715 10.775 3.356 1.674 1.527 1.846 2.626.312 2.005-1.429-.579-19.78-4.003-20.054-3.741-.825.786 4.151 2.488 10.283 3.515 8.325 1.396 11.382 2.597 10.208 4.011-1.021 1.23-3.881 1.128-9.385-.336-4.91-1.306-10.272-1.649-10.861-.695-.391.633 1.574 1.008 10.177 1.944 6.252.681 9.022 1.72 10.138 3.804.646 1.209.567 1.278-1.076.938-2.677-.555-13.56-2.254-14.273-2.228-1.875.067 3.263 1.893 6.943 2.467 5.915.922 8.261 1.761 9.049 3.234 1.072 2.002.251 2.096-5.605.641-6.5-1.614-12.008-1.891-6.637-.334 1.718.499 4.989 1.452 7.268 2.118 4.108 1.201 7.486 3.232 6.696 4.026-.226.227-1.267-.03-2.313-.571-2.426-1.255-2.589-1.239-2.589.254 0 .841.551 1.361 1.719 1.621 3.432.763 3.906.991 3.906 1.871 0 1.031-1.166 1.102-4.687.286-4.386-1.017-3.706.406.856 1.792 4.058 1.232 5.659 2.197 4.902 2.955-.168.167-3.858-.274-8.201-.98-8.187-1.33-15.137-1.724-11.307-.64 1.031.292 5.155.952 9.164 1.466 4.558.585 8.247 1.424 9.844 2.238 2.598 1.326 3.446 2.595 1.46 2.186-.601-.124-3.625-.783-6.718-1.465-5.796-1.277-9.018-1.631-12.813-1.408-3.732.219-.883 1.105 7.188 2.237 12.261 1.718 17.641 3.443 12.812 4.106l-2.812.386 2.187 1.031c2.629 1.239 1.775 1.323-3.522.347-4.422-.815-5.584-2.163-1.322-1.535 2.413.356 2.549.308 1.478-.52-1.288-.996-3.437-1.34-11.946-1.914-6.637-.447-6.233-.159-7.616-5.432-1.31-4.996-1.281-5.039 2.879-4.25 2.298.436 3.663.416 4.561-.064 1.693-.906.414-1.778-2.637-1.796-3.128-.019-6.691-1.125-7.106-2.206-.44-1.148 4.941-1.283 10.466-.261 1.975.365 4.065.553 4.646.418 2.148-.498-2.016-1.691-7.836-2.246-7.98-.76-11.725-3.424-6.889-4.9l2.032-.62-2.162-.597-2.161-.597-1.127-6.842c-.621-3.764-.973-7.499-.783-8.301.193-.816.091-1.302-.231-1.103-3.12 1.929-.2 23.003 4.901 35.374 2.219 5.382 2.504 4.918-4.977 8.115-6.986 2.986-6.039 2.9-7.202.652-4.639-8.971-4.572-12.113.304-14.292 1.916-.856 2.017-1.005.813-1.203-.755-.124-1.932.073-2.615.439-2.48 1.327-3.732.825-4.433-1.781-2.398-8.905-4.383-21.897-4.4-28.789-.006-2.864-.19-3.799-.615-3.141-.333.516-.61 2.377-.615 4.136-.009 3.021-.145 3.287-2.447 4.811-1.341.887-3.661 3.033-5.156 4.77-3.201 3.716-3.328 3.752-4.221 1.19-1.645-4.72-1.129-5.978 4.692-11.431 2.958-2.771 9.518-9.005 14.577-13.853 5.059-4.849 10.443-9.56 11.965-10.47s4.596-3.748 6.83-6.305c4.06-4.646 5.477-5.492 10.313-6.154 1.676-.23 1.627-.267-.469-.35-1.289-.052-2.344-.253-2.344-.448 0-1.319 1.638-2.837 3.74-3.467 1.358-.407 2.319-.982 2.137-1.277-1.085-1.756 2.351-4.902 5.354-4.902 1.055 0 1.223-.278.913-1.512-.514-2.05 1.991-3.726 5.039-3.37 2.115.247 2.861-.256 1.567-1.055-1.786-1.104.865-4.804 5.843-8.156 3.673-2.474 3.608-2.487 3.106.609m54.694 1.205c-4.268 4.866-6.149 7.865-6.094 9.71.029.941.192 1.235.386.694.184-.516 1.945-2.625 3.913-4.687 4.356-4.567 6.277-7.08 6.277-8.21 0-1.679-1.609-.784-4.482 2.493m-6.037-1.695c.114.588 1.143 1.452 2.288 1.919 1.889.771 2.062.751 1.875-.221-.114-.588-1.143-1.452-2.288-1.919-1.889-.771-2.062-.751-1.875.221m-69.481 3.349q0 1.25 1.25 1.25c1.483 0 1.678-1.577.261-2.121-1.434-.55-1.511-.505-1.511.871M180.313 85c-.237.382.66.608 2.306.581 2.078-.034 2.408-.167 1.444-.581-1.73-.743-3.291-.743-3.75 0m-88.125 2.5c-.237.383.656.601 2.306.563 2.276-.053 2.451-.14 1.131-.563-2.225-.713-2.997-.713-3.437 0m22.633 5.297c-1.011 2.12-1.005 2.203.147 2.203 1.384 0 2.234-2.027 1.443-3.44-.431-.771-.752-.522-1.59 1.237m4.346-1.755c-.698.698-.467 1.458.444 1.458.474 0 1.211-.422 1.639-.937.815-.983-1.135-1.47-2.083-.521m-31.38 3.375c-.684 1.106.153 1.384 2.653.878 2.23-.451 2.279-.508.81-.95-2.287-.688-3.003-.674-3.463.072m84.713-.042c-.663.429.067.59 2.5.553 2.654-.041 3.081-.167 1.875-.553-2.189-.701-3.29-.701-4.375 0m-61.001 4.717c-.219.875-.209 1.781.022 2.013.543.543 1.582-1.093 1.594-2.511.015-1.667-1.164-1.304-1.616.498m-27.44 2.162c-2.061 2.277.871 2.054 4.267-.325 1.281-.896 1.249-.929-.903-.929-1.438 0-2.632.445-3.364 1.254m83.78 1.828c-.494.8 2.128 2.543 3.826 2.543 1.655 0 2.66-1.241 1.028-1.27-.622-.011-1.676-.433-2.344-.937-1.408-1.065-2.009-1.146-2.51-.336m49.002 30.08c3.069 14.245 7.825 36.307 10.57 49.026 10.899 50.509 10.632 48.395 5.366 42.531-4.973-5.537-4.78-4.786-11.229-43.781-3.297-19.938-7.385-43.871-9.084-53.185-3.051-16.727-3.497-20.262-2.662-21.097.979-.979 1.713 1.784 7.039 26.506M165 107.8c0 1.496 7.641 3.488 8.438 2.2.213-.346-.259-.635-1.057-.647-.794-.012-2.147-.424-3.006-.915-1.489-.852-4.375-1.273-4.375-.638m-83.652 4.737c-2.165.47-3.714 1.555-3.099 2.171.502.501 3.095-.246 4.518-1.302 1.575-1.168 1.151-1.428-1.419-.869m126.396 1.102c.338.547 11.129 59.947 15.348 84.486 1.389 8.078 2.633 15.149 2.765 15.712.493 2.105-.696 2.662-1.678.785-.521-.995-2.593-3.862-4.605-6.37-18.468-23.023-24.648-59.597-15.046-89.033 1.878-5.758 2.471-6.786 3.216-5.58m-46.1 4.926c-.721.72 4.721 2.617 7.419 2.586 2.398-.028 2.423-.049.625-.516-1.032-.267-2.921-.941-4.199-1.498-2.582-1.124-3.201-1.217-3.845-.572m-39.685 9.217c7.536 1.676 12.23 5.364 5.697 4.475-5.292-.72-20.222-4.441-20.347-5.07-.322-1.623 5.797-1.375 14.65.595m-46.143 3.112c-1.247 1.081-1.561 1.715-1.088 2.197.477.485 1.366.06 3.125-1.493 2.173-1.918 2.299-2.174 1.088-2.197-.754-.014-2.16.658-3.125 1.493m41.338.116c8.323 1.669 10.738 2.515 12.199 4.276 1.345 1.621.486 1.681-5.043.356-2.886-.692-6.372-1.237-7.747-1.212l-2.5.047 1.875.842c1.031.463 4.476 1.317 7.656 1.898s5.781 1.272 5.781 1.537c0 1.277-4.484 1.141-10.509-.318-3.545-.858-7.998-1.561-9.895-1.561-4.22 0-4.323-1.262-.172-2.101 2.915-.588 2.553-1.068-1.455-1.929-1.944-.417-2.263-1.841-.625-2.795 1.481-.863 1.22-.887 10.435.96m-35.331 7.918c-.143.098-1.667 1.271-3.385 2.607l-3.125 2.429 2.47-2.607c1.359-1.434 2.882-2.607 3.386-2.607.503 0 .797.08.654.178m81.974 12.006c7.358 3.164 15.11 5.576 15.776 4.91.152-.153.467.48.699 1.405.716 2.854-.34 2.794-7.72-.433-7.426-3.247-15.997-5.964-15.31-4.854.519.84 4.493 2.549 13.696 5.889 5.038 1.829 7.961 3.255 8.906 4.345 3.093 3.571 1.55 3.63-7.043.27-3.564-1.393-7.551-2.673-8.859-2.843l-2.379-.31 2.38 1.315c1.31.723 5.244 2.311 8.743 3.529 7.224 2.515 9.814 3.731 9.814 4.609 0 1.266-3.836.522-9.952-1.932-6.572-2.637-11.304-3.287-6.96-.957 1.183.635 4.057 1.802 6.387 2.594 5.488 1.867 11.775 4.695 11.775 5.297 0 1.795-4.653 1.119-9.693-1.408-4.049-2.03-7.518-3.139-8.896-2.842-1.601.345 2.636 2.391 9.964 4.812 8.292 2.739 14.42 7.276 8.812 6.524-.962-.129-1.328-.057-.812.16 3.89 1.639 7.025 7.961 4.968 10.018-.46.46-.178.971.937 1.702.877.575 1.595 1.413 1.595 1.862s.662 2.125 1.471 3.723c1.49 2.942 1.499 4.099.023 2.874-.445-.369-1.315-.564-1.933-.432-.892.19-.717.455.849 1.287 2.996 1.592 4.25 3.012 3.23 3.658-1.476.936-2.71.587-6.926-1.956-4.677-2.82-4.839-2.872-4.839-1.532 0 .601 1.958 1.889 5.156 3.39 2.836 1.332 4.656 2.443 4.045 2.469-.611.027-2.819-.814-4.906-1.867-3.47-1.752-3.887-1.832-4.875-.938-1.583 1.433-2.355 1.249-6.739-1.608-3.651-2.378-5.104-4.045-2.147-2.463 1.434.768 2.372-.087 1.178-1.074-.426-.353-1.968-1.117-3.427-1.7-1.458-.583-2.498-1.309-2.309-1.614.188-.304 1.479.026 2.869.735 4.257 2.172 3.366.875-1.464-2.132-4.702-2.927-9.131-4.391-10.578-3.496-.569.351.134.919 2.28 1.839 2.643 1.133 2.938 1.422 1.99 1.952-1.278.716-4.094-.047-8.708-2.359-3.47-1.738-4.771-1.933-3.615-.539.471.567.521.937.128.937-1.353 0-2.628-.791-2.628-1.629 0-.597-.775-.871-2.465-.871-2.869 0-5.396-1.889-6.006-4.488-.345-1.47-.233-1.633.914-1.333 2.104.55 1.502-.411-.88-1.407-1.494-.624-2.188-1.321-2.188-2.198 0-1.532.495-1.427 7.813 1.656 7.129 3.003 10.219 4.02 12.22 4.02 1.154 0 2.2.57 3.065 1.67 1.767 2.247 3.151 1.114 1.576-1.291-.587-.896-.881-1.629-.653-1.629.899 0 20.238 8.334 23.293 10.038 3.045 1.699 5.056 1.67 2.992-.044-.512-.425-.931-1.159-.931-1.633 0-.59-.8-.861-2.545-.861-1.594 0-3.552-.59-5.24-1.58-1.483-.868-5.322-2.702-8.532-4.074-6.064-2.591-11.186-5.699-10.03-6.085.367-.122 3.14.955 6.163 2.394 3.023 1.438 6.762 3 8.309 3.47l2.813.854-1.661-1.472c-.913-.809-4.346-2.535-7.629-3.834s-6.964-3.184-8.183-4.188c-3.761-3.1-2.468-4.196 1.613-1.368 1.284.889 2.846 1.496 3.472 1.348.941-.222.846-.389-.549-.964-7.219-2.978-14.731-22.803-7.615-20.098 1.97.749 2.739.756 2.739.024 0-.315-1.195-.971-2.656-1.459l-2.656-.885v-4.166c0-2.291.111-4.166.248-4.167.136 0 3.843 1.545 8.236 3.434m-86.913-.631c-1.161 1.198-1.926 2.363-1.7 2.589.52.52 2.009-.705 3.638-2.993 1.752-2.46.607-2.222-1.938.404m10.297 4.629c.273 2.726.185 4.776-.242 5.573-.543 1.016-.281 2.092 1.35 5.534 2.098 4.43 2.772 10.663 1.475 13.649-.45 1.037-.364 1.01.507-.157 2.362-3.163 3.19.328.942 3.967-.708 1.145-1.543 3.007-1.854 4.136l-.567 2.054 1.229-1.476c.676-.812 1.229-1.823 1.229-2.247s.563-1.28 1.25-1.902c1.177-1.065 1.25-1.067 1.25-.038 0 .602.472 1.893 1.048 2.869 1.01 1.71.984 1.927-.705 5.902-.965 2.27-1.58 4.301-1.367 4.513.213.213.987-1.058 1.721-2.824 1.346-3.237 2.019-3.616 2.585-1.453.212.81-.007 1.154-.701 1.104-.68-.05-1.215.742-1.639 2.427-.531 2.108-.899 2.518-2.348 2.617-2.072.142-2.19-.806-.724-5.849 1.302-4.476.645-5.018-1.146-.946-1.476 3.355-2.788 3.965-2.483 1.154.136-1.258-.047-1.555-.782-1.273-1.158.444-1.36-3.63-.317-6.374.354-.93.496-1.838.316-2.018s-.637.563-1.016 1.65c-.612 1.755-2.442 2.832-2.442 1.436 0-.984 1.157-6.629 1.586-7.741.788-2.04-.723-1.108-1.773 1.094-1.186 2.488-2.313 2.866-2.313.777 0-2.414 1.16-5.601 2.594-7.128 1.108-1.179 1.181-1.462.378-1.462-.547 0-1.605.986-2.349 2.191-1.364 2.207-2.498 2.396-2.498.417 0-.587.713-2.117 1.585-3.4 1.308-1.925 1.407-2.333.567-2.333-.561 0-1.166.563-1.346 1.25s-.716 1.25-1.191 1.25c-1.162 0-1.113-2.766.066-3.744.511-.425.768-1.036.569-1.357-.219-.354-.671-.328-1.145.066-.58.481-.972.237-1.507-.937-2.229-4.892.52-10.835 6.733-14.555 2.797-1.675 2.964-1.502 3.475 3.584m54.069-2.745c2.712 1.549 7.428 2.92 8.68 2.523 1.894-.601 2.273-2.316.409-1.848-.826.207-3.042-.071-4.923-.618-4.432-1.288-6.367-1.314-4.166-.057m-68.999 2.557c.481 1.15.875 3.436.876 5.08.011 21.622 21.364 52.676 50.154 72.941 5.764 4.057 5.705 4.416-1.797 10.998-.988.867-2.078 2.044-2.421 2.616-1.163 1.934-8.583 1.829-9.128-.129-.744-2.672-.557-9.502.378-13.75 1.168-5.313 1.172-6.3.016-4.774-.485.64-1.076 2.75-1.314 4.688-.74 6.03-1.062 6.48-4.29 5.996l-2.776-.416-.193 3.034-.193 3.035-3.125.37c-5.174.613-12.41-.529-19.889-3.138-19.596-6.836-21.674-7.687-21.674-8.881 0-.64-.281-1.164-.625-1.164s-.625.563-.625 1.25c0 1.426-.237 1.502-1.902.611-1.836-.983-2.64-2.881-1.848-4.361.469-.876.471-1.25.007-1.25-.365 0-.93.703-1.257 1.563-.823 2.164-.985 2.052-3.116-2.17-2.366-4.687-2.392-4.495.781-5.799 3.275-1.347 4.144-1.369 4.623-.121.792 2.065 3.908-2.813 3.937-6.163.014-1.67.961-5.83 2.135-9.375 1.16-3.505 2.31-7.494 2.556-8.864l.446-2.491-1.37 1.24c-2.121 1.919-2.925 3.948-3.712 9.368-1.115 7.679-2.326 10.937-4.065 10.937-.788 0-2.274.168-3.302.374l-1.868.373-1.389-5.62c-1.079-4.368-1.803-6.018-3.248-7.402l-1.859-1.782-1.188 1.56c-1.38 1.81-1.642 2.951-2.189 9.528-.348 4.175-.267 4.844.587 4.844.574 0 .991-.526.991-1.25 0-.694.417-1.25.938-1.25 1.656 0 1.005 2.418-1.387 5.154-1.279 1.462-2.386 2.758-2.461 2.88-1.064 1.725-16.404-10.397-17.888-14.135-2.865-7.218-3.032-6.891 8.923-17.487 4.641-4.113 16.128-14.692 25.528-23.508 9.399-8.817 17.373-15.855 17.72-15.641s1.023 1.331 1.503 2.481m24.115 3.415c-1.585.636-1.31 1.841.421 1.841 1.128 0 2.588-1.128 2.588-2 0-.64-1.171-.578-3.009.159m49.636 3.338c4.988 2.323 6.383 2.683 5.289 1.364-1.352-1.629-4.123-2.862-6.416-2.855-2.02.006-1.997.037 1.127 1.491m-49.613 1.976c-.764.535-1.389 1.223-1.389 1.529 0 .628 6.241-1.058 7.156-1.934 1.045-.999-4.297-.625-5.767.405m52.899 4.048c1.516 1.263 3.212 1.635 3.212.704 0-.596-2.798-1.986-3.936-1.954-.413.011-.088.574.724 1.25m-50.747.296c-1.662.457-3.209 1.034-3.438 1.282-.775.843 5.597-.331 6.953-1.28 1.64-1.149.661-1.149-3.515-.002M20.75 170.75c-.583.583-.75.417-.75-.75s.167-1.333.75-.75.583.917 0 1.5m138.625.922c.516.178 3.891 1.691 7.5 3.362 5.484 2.54 11.875 4.709 11.875 4.031 0-.91-16.878-7.838-18.921-7.766-.889.032-1.053.166-.454.373M150 173.959c0 .162.908.61 2.017.997s1.742.446 1.406.131c-.711-.666-3.423-1.56-3.423-1.128m-49.687 3.223c-.344.115-1.399.379-2.344.588-.946.208-1.719.77-1.719 1.248 0 .685.528.613 2.5-.339 1.9-.918 3.509-2.123 2.344-1.755-.086.027-.438.144-.781.258m42.519.224c.355.382 1.62.879 2.813 1.102 1.577.296 1.992.218 1.523-.289-.355-.382-1.62-.879-2.813-1.102-1.577-.296-1.992-.218-1.523.289m-125.823 4.057c.369 1.929-.493 4.162-1.605 4.162-1.292 0-1.644-3.492-.471-4.665 1.314-1.314 1.749-1.209 2.076.503m81.741.756-1.562.925 1.826-.166c1.005-.091 1.943-.517 2.084-.947.334-1.017-.413-.957-2.348.188m75.625 1.178c5.353 2.749 8.838 3.752 11.037 3.179 1.696-.441 1.636-.499-1.349-1.283-1.719-.452-4.672-1.543-6.563-2.426-5.546-2.589-8.293-2.123-3.125.53m19.706 1.759c1.531 5.191 9.819 19.504 8.605 14.862-.234-.894.126-1.437 1.308-1.976l1.631-.742-2.51-1.124c-2.548-1.141-3.968-3.079-2.592-3.538.411-.137-.171-.867-1.294-1.623s-2.672-2.7-3.442-4.32c-1.467-3.086-2.415-3.941-1.706-1.539M11.71 186.924c1.257 2.465.877 6.826-.595 6.826-.361 0-.454-.685-.218-1.624.296-1.177.185-1.549-.401-1.354-.445.148-.986 1.089-1.203 2.092-.296 1.364-.412.957-.461-1.614-.114-6.002 1.095-7.819 2.878-4.326m109.395-1.477c-.939.142-2.627.145-3.75.006s-.355-.256 1.708-.259 2.981.11 2.042.253m8.946 4.213c6.505 1.135 14.324 3.48 14.324 4.294 0 .356-1.68 6.309-3.734 13.23-4.145 13.969-7.093 25.648-6.74 26.706.48 1.441 3.181-6.331 6.102-17.558 4.776-18.354 6.063-21.332 9.218-21.332 1.502 0 1.52.063 1.095 3.906-.921 8.324-8.649 40.886-10.033 42.269-.622.623-4.148-1.521-5.571-3.386-.872-1.144-2.175-2.266-2.894-2.495-1.378-.437-1.373-.518.27-4.981.684-1.858.735-2.616.197-2.957-.854-.541-2.285 1.166-2.285 2.727 0 6.621-18.262-10.919-25.088-24.097-1.438-2.777-3.273-5.919-4.076-6.982-1.719-2.276-1.773-2.837-.513-5.274 2.653-5.13 14.426-6.742 29.728-4.07m49.324-.65c0 .545.445.99.99.99 1.103 0 .911-1.345-.248-1.732-.408-.136-.742.198-.742.742m-6.912 5.671c6.009 3.156 10.614 5.048 13.787 5.665 2.995.582 2.291.041-3.82-2.934-11.07-5.391-19.355-7.66-9.967-2.731m-75.617 6.9c.365 2.396.82 5.038 1.011 5.872.293 1.281.204 1.397-.575.75-1.305-1.083-2.493-6.571-1.996-9.221.553-2.948.769-2.588 1.56 2.599m61.042.139c-.211 1.538-1.495 7.762-2.854 13.83-2.761 12.327-3.848 18.523-3.119 17.767.939-.974 3.015-8.099 4.339-14.893 3.889-19.955 3.273-19.096 10.934-15.247 6.395 3.213 6.015 1.139 3.66 19.948-1.141 9.109-2.291 19.656-2.555 23.438l-.48 6.875-2.651.191c-2.141.155-2.581.013-2.292-.741.197-.514.72-.795 1.162-.626.849.326 2.843-3.848 2.843-5.952 0-.916-.43-1.142-2.022-1.062-2.23.112-3.577 1.917-3.594 4.815-.028 5.006-1.705 6.363-5.265 4.262-1.212-.715-2.705-1.184-3.317-1.043-.879.202-.718.436.761 1.108 3.866 1.756 5.41 3.973 2.34 3.359-1.314-.263-2.078.036-3.233 1.266-1.993 2.121-2.23 2.057-3.426-.931-1.095-2.737-.903-3.684.762-3.753.858-.036.821-.142-.193-.566-1.528-.637-3.615-.219-6.753 1.354l-2.378 1.191-1.779-1.905c-2.029-2.172-6.183-2.652-8.557-.989-5.348 3.746-4.044 16.001 1.967 18.488 1.242.514 1.242.517-.018.556-4.562.143-7.683-7.331-5.855-14.022 2.007-7.349 7.315-9.474 12.829-5.137 1.626 1.279 1.692 1.285 1.183.121-2.445-5.593-.663-7.912 3.111-4.047 1.342 1.375 2.665 2.5 2.939 2.5 1.039 0 .439-1.762-.908-2.668-.774-.52-1.211-1.148-.972-1.396.238-.247 1.155.328 2.037 1.28.882.951 1.812 1.513 2.066 1.247s-.484-1.223-1.642-2.129a256 256 0 0 1-3.726-2.978l-1.621-1.331 1.999-6.051c1.099-3.328 3.013-10.885 4.251-16.794 4.668-22.26 5.29-23.917 8.552-22.78 1.778.62 1.842.769 1.475 3.445m8.362-2.345c.833.539.833.606 0 .606-.516 0-1.359-.273-1.875-.606-.833-.539-.833-.606 0-.606.516 0 1.359.273 1.875.606M9.618 209.063c.245 4.454.173 6.4-.203 5.528-.861-1.997-1.593-13.804-.807-13.028.348.343.802 3.718 1.01 7.5m179.038.006c4.101 1.909 5.726 1.977 6.175.26.272-1.041.661-1.218 1.973-.897 1.82.446 3.975 2.193 2.705 2.193-1.251 0-.856 1.76.491 2.188.688.218 1.25.659 1.25.979 0 .321.858.583 1.906.583 2.655 0 5.246 1.45 9.969 5.581 2.234 1.954 4.758 4.029 5.608 4.611 3.245 2.222-.862 1.088-7.483-2.067-3.607-1.719-6.981-3.134-7.498-3.146-.67-.015-.526-.365.503-1.223l1.442-1.202-3.856-1.946c-2.226-1.124-3.99-2.457-4.172-3.152-.467-1.789-1.263-1.463-1.741.712-.381 1.736-.52 1.83-1.456.989-.569-.511-3.214-1.921-5.878-3.133s-4.844-2.36-4.844-2.551c0-.706 1.648-.296 4.906 1.221m-173.031 2.103c0 .301.161 1.496.357 2.656.339 1.997.305 2.045-.625.896-1.091-1.348-1.331-4.099-.357-4.099.344 0 .625.246.625.547m170.452 2.007c2.673 1.061 11.189 4.842 18.923 8.402s16.433 7.419 19.329 8.577c4.976 1.989 5.309 2.241 6.028 4.567.702 2.27.767 2.323.827.676.163-4.435 8.563 1.184 8.728 5.838.059 1.674.945 5.947 1.969 9.496 3.804 13.186.616 19.234-4.917 9.329-1.196-2.14-4.331-16.46-4.462-20.376-.012-.344-.294-.204-.627.312-1.051 1.626-.681 6.469 1.006 13.159l1.631 6.468-1.475 1.201c-2.292 1.867-15.048.933-13.152-.963 1.429-1.429.867-4.834-1.127-6.828-2.245-2.245-1.964-3.293 2.716-10.129 1.596-2.33 2.901-4.782 2.901-5.448 0-3.235-3.406.539-5.37 5.951-.828 2.28-2.911 6.229-4.63 8.776s-3.125 4.926-3.125 5.285-.281.653-.625.653-.625-1.383-.625-3.074c0-5.512-1.935-6.701-5.259-3.232-1.679 1.753-1.718 1.938-1.055 5.031.837 3.902.835 3.775.055 3.775-3.139 0-3.605-5.481-1.241-14.586 2.569-9.893 2.45-15.766-.232-11.508-.539.855-1.01 3.856-1.203 7.657-.662 13.031-2.32 16.634-6.631 14.405l-1.755-.907-.456-12.374c-.486-13.203-.567-13.675-2.011-11.749-1.023 1.365-.927 3.647.48 11.438.988 5.476.484 6.789-2.491 6.49-2.185-.22-2.253.002-1.285 4.202.796 3.455.188 4.1-2.723 2.884-1.253-.524-3.707-.952-5.454-.952h-3.176l.357-3.594c.196-1.976 1.031-10.062 1.855-17.968s1.685-16.274 1.912-18.594c.479-4.898.132-4.774 6.39-2.29m137.048-.366c.428.515.673.954.545.974-4.154.658-6.036.05-3.826-1.237 1.531-.892 2.38-.824 3.281.263M7.5 215.506c0 .965-.442 2.301-.982 2.968-.93 1.149-.964 1.101-.625-.896.196-1.16.357-2.496.357-2.969s.281-.859.625-.859.625.79.625 1.756m12.577 2.285c.637 1.76.949 2.029 1.664 1.436.691-.574 1.014-.491 1.505.387.345.615 2.4 1.914 4.569 2.887 2.329 1.045 4.1 2.265 4.327 2.982.271.851.803 1.134 1.785.946.863-.165 2.81.582 5.077 1.947 2.023 1.218 7.082 3.525 11.243 5.127s9.394 3.848 11.628 4.992 6.16 2.511 8.724 3.037c10.069 2.064 22.483 6.13 21.922 7.18-.288.536-.723 2.311-.968 3.944-.564 3.762.257 3.835-15.219-1.362-23.972-8.049-44.739-16.553-44.967-18.412-.169-1.371-.355-1.494-1.336-.881-.939.586-1.613.363-3.833-1.27-1.482-1.089-3.061-1.981-3.509-1.981s-.814-.577-.814-1.282c0-1.438-2.54-6.206-3.31-6.213-.273-.003-.311 1.05-.083 2.339.366 2.073.307 2.235-.511 1.406-.773-.783-.815-1.633-.257-5.156.753-4.758 1.234-5.176 2.363-2.053m25.236-.916c0 .458-.352.951-.782 1.094-.464.155-.781-.288-.781-1.094s.317-1.249.781-1.094c.43.143.782.636.782 1.094m-2.668 8.438c1.879 3.109 1.203 3.74-1.623 1.517-1.569-1.234-2.129-3.015-1.23-3.913.76-.76 1.14-.441 2.853 2.396M6.871 223.75c.618 0 1.538 4.925 1.017 5.445-.199.199-.596-.274-.884-1.051-.489-1.324-.587-1.346-1.575-.358-1.395 1.394-1.331 2.259.196 2.658.688.18 1.25.393 1.25.473 0 2.808-2.737 5.351-3.74 3.476-1.652-3.085.115-11.834 2.225-11.024.546.21 1.226.381 1.511.381m47.537 1.719c-1.12 4.033-.906 4.976 1.064 4.687 1.354-.199 2.024.157 3.143 1.671 2.318 3.134 2.948 2.511 2.948-2.916v-4.832l-1.875-.403c-4.068-.874-4.589-.697-5.28 1.793m106.287 7.617c-1.17 4.565-4.817 11.822-7.618 15.156-2.762 3.289-2.476 3.901 1.545 3.298 2.737-.411 2.742-.417 2.447-2.695-.237-1.831.271-3.387 2.568-7.868 2.095-4.087 2.863-6.309 2.863-8.281 0-3.594-.83-3.414-1.805.39m166.167-.742c-.165 3.567-.071 3.906 1.076 3.906.745 0 .865.197.402.66-2.394 2.394-5.184-1.014-3.637-4.444 1.401-3.107 2.3-3.158 2.159-.122m-154.327 6.719c-.386 2.406-.664 5.64-.618 7.187s-.116 3.727-.362 4.844c-.295 1.343-.211 2.031.249 2.031.383 0 .696.281.696.625s-.852.625-1.892.625h-1.893l.37-4.219c.997-11.385 3.42-22.303 3.918-17.656.129 1.203-.081 4.156-.468 6.563m158.737-5.27c1.531 3.002 2.192 7.641 1.565 10.986l-.45 2.394-.881-2.097c-.693-1.649-1.157-2.025-2.167-1.76-1.119.292-1.261.085-1.094-1.598.238-2.388 1.562-2.953 2.318-.989.516 1.34.6 1.364 1.029.298.295-.732-.027-2.178-.875-3.923-2.264-4.659-1.737-7.804.555-3.311M6.724 239.424c.181 3.073-.64 2.364-1.406-1.217-.348-1.631-.259-2.042.397-1.826.507.167.913 1.389 1.009 3.043m123.879-.715c2.307 4.311-2.807 14.367-5.776 11.357-.604-.613-.405-1.039.954-2.035 1.466-1.075 1.719-1.707 1.719-4.292 0-5.142 1.629-7.783 3.103-5.03m116.3 2.702c3.34 1.995 3.417 2.107 3.797 5.469.213 1.888.864 5.044 1.447 7.013 1.692 5.718 1.242 7.548-2.021 8.233-3.487.732-3.407.856-5.635-8.688-3.587-15.367-3.544-15.583 2.412-12.027m-208.778.93c0 .762-.175.792-.937.159-.516-.428-.938-1.2-.938-1.716 0-.762.175-.792.938-.159.515.428.937 1.2.937 1.716m267.084.6c.298 1.597.188 1.932-.543 1.652-.57-.219-.916-1.201-.916-2.597 0-2.616.903-2.03 1.459.945m-263.682-.927c1.201 1.714 1.262 3.058.12 2.62-.722-.278-2.272-2.819-2.272-3.726 0-.784 1.294-.119 2.152 1.106m95.298 1.364c1.965 2.1 1.481 2.476-1.728 1.344-2.777-.98-2.862-.909-2.603 2.153.184 2.186.606 2.674 1.597 1.852.47-.39 1.152-.525 1.517-.3 1.185.732-.005 1.573-2.227 1.573-3.34 0-3.433-.926-.801-7.994.618-1.66 1.753-1.293 4.245 1.372m-90.592 1.168c1.03 1.825.522 2.901-.836 1.774-1.111-.922-1.766-3.963-.784-3.638.385.127 1.114.966 1.62 1.864m279.807-1.066c.207.538.06 1.295-.326 1.681-.861.861-5.374-1.069-4.773-2.042.635-1.027 4.676-.741 5.099.361m-274.89 2.487c1.371 3.011.655 3.663-1.657 1.509-.752-.701-1.368-1.686-1.368-2.188 0-1.525 2.251-1.02 3.025.679m-11.436 3.902c-.626.626-2.216-1.733-2.203-3.27.008-1.06.242-.924 1.327.771.725 1.132 1.119 2.256.876 2.499m-29.166-1.976c1.072 2.353.364 2.6-.83.29-.55-1.063-.757-1.933-.459-1.933.297 0 .877.739 1.289 1.643m244.649-.942c.751.386 3.836 2.565 6.856 4.844 6.412 4.838 6.33 5.328-1.215 7.223-5.229 1.314-5.319 1.228-6.719-6.403-1.33-7.243-1.389-6.931 1.078-5.664m-210.822 4.021c0 1.456-1.065 1.044-2.497-.968-1.8-2.528-.924-3.911 1.035-1.634.804.935 1.462 2.106 1.462 2.602m12.31-2.216c.575 1.15.591 1.62.062 1.801-.748.256-2.997-2.126-2.997-3.172 0-1.175 2.168-.162 2.935 1.371m48.253-.975c2.654 1.372 4.025 3.777 3.119 5.471-.401.75-.902 4.192-1.112 7.65l-.382 6.286-2.329-.136c-3.57-.209-7.304-2.393-8.344-4.881-3.233-7.739 2.936-17.551 9.048-14.39m196.312-.281c0 .344-.72.625-1.599.625-.907 0-1.433-.271-1.213-.625.212-.344.932-.625 1.599-.625s1.213.281 1.213.625m-237.973 3.281c1.888 2.016 1.892 2.033.47 2.243-1.911.283-4.077-.943-4.915-2.78-1.098-2.41 2.038-2.031 4.445.537M306.75 249.5c1.112 1.112.909 2.375-.381 2.375-1.597 0-3.52-1.547-2.99-2.405.58-.939 2.419-.922 3.371.03m-289.301 1.98c1.653 2.675 1.659 3.413.016 1.926-1.062-.961-1.496-1.031-2.5-.404-1.551.969-1.61-.036-.121-2.084 1.352-1.859 1.072-1.919 2.605.562m31.913-.855c1.198 0 4.828 2.893 4.298 3.424-.581.581-6.565-1.057-7.254-1.985-1.252-1.688-1.013-2.857.428-2.086.665.356 1.803.647 2.528.647m75.359.847c.203.81-.008 2.767-.469 4.348l-.838 2.875-2.02-1.58c-1.11-.869-2.019-1.982-2.019-2.473 0-1.546-1.92-.972-4.125 1.233-2.999 2.999-3.172 8.332-.182 5.626 1.602-1.45 2.432-.564 2.432 2.598 0 4.464 1.158 3.681 2.2-1.486.532-2.64 2.252-1.432 4.218 2.964 3.176 7.102-7.796 5.898-11.445-1.256-3.401-6.666-.52-12.445 6.822-13.685 4.683-.791 5.031-.738 5.426.836m160.681.098c.798 2.08-5.286 5.783-8.27 5.034-2.122-.532-1.912-.981 1.707-3.635 3.339-2.45 5.946-3.006 6.563-1.399m-247.72 1.223c.959.203 1.575.642 1.369.975-.557.902-2.339.736-3.912-.366-1.67-1.17-1.91-2.445-.295-1.57.601.326 1.878.758 2.838.961m32.02.379c.652 2.054-.22 2.22-2.05.389l-1.686-1.686h1.662c1.134 0 1.794.413 2.074 1.297m-10.351.832c1.062.114 1.788.778 2.346 2.143.898 2.203.507 2.452-1.569.997-.77-.539-2.147-.891-3.06-.781-1.371.165-1.744-.111-2.14-1.585-.457-1.699-.399-1.764 1.202-1.362.925.233 2.375.497 3.221.588m42.477.46c-1.458 2.724.707 5.978 3.016 4.531 1.325-.83 1.76-3.128.809-4.274-1.215-1.463-3.112-1.591-3.825-.257m-59.015.545c0 1.339-1.817 1.146-2.08-.222-.161-.835.094-1.09.929-.929.633.122 1.151.64 1.151 1.151m32.062-.509c.412.412.75 1.116.75 1.563 0 1.307-1.539.937-3.125-.75l-1.468-1.563h1.547c.85 0 1.884.338 2.296.75m59.994.838c.462 3.209-1.642 6.07-4.122 5.607-2.814-.526-2.834-.544-2.335-2.116 1.2-3.781 6.039-6.397 6.457-3.491m-87.581 1.993c1.013 2.426.663 3.388-.726 1.998-1.217-1.216-2.076-5.346-.971-4.662.433.267 1.196 1.466 1.697 2.664m32.087-1.044c0 1.304-.919 1.628-1.581.558-.567-.917.188-2.632.952-2.16.346.214.629.935.629 1.602m241.855.001c-.357.667-1.074 1.212-1.594 1.212-.793 0-.764-.24.179-1.498 1.297-1.731 2.378-1.513 1.415.286m-253.543.386c1.1.577 2.985 1.213 4.188 1.414 1.918.319 2.212.613 2.383 2.388.23 2.378-.931 2.735-1.501.462-.426-1.697-1.507-2.145-1.507-.625 0 1.203-.1 1.19-3.133-.39-1.4-.73-2.72-1.154-2.932-.942-.564.565-2.201-1.997-1.747-2.732q.842-1.363 4.249.425m-16.554 1.776c-.562.563-1.874-.882-1.439-1.585.358-.58.629-.508 1.075.289.327.586.491 1.169.364 1.296M83.625 257c.96.96.976 2.555.022 2.237-1.293-.432-2.714-2.987-1.661-2.987.489 0 1.226.338 1.639.75m86.467.235c1.547.8 1.819 1.239 1.45 2.344-.25.747-.539 4.734-.643 8.859l-.189 7.5-3.263.192c-4.755.28-6.822-.746-6.822-3.384 0-1.157-.331-3.342-.736-4.856-1.878-7.02 4.45-13.63 10.203-10.655m104.676.705c-.515.516-2.268-.31-2.268-1.067 0-.463.4-.453 1.304.031.716.383 1.15.85.964 1.036m8.982-.752c-.428.515-1.376.928-2.108.917-1.303-.019-1.306-.038-.116-.937 1.684-1.274 3.286-1.26 2.224.02m4.063.492c0 .386.703.886 1.562 1.112 1.339.352 1.406.477.469.876-1.601.682-1.335 1.582.469 1.582.972 0 1.562.354 1.562.938 0 1.126-.132 1.135-3.209.213-2.515-.753-2.868-1.588-2.016-4.77.373-1.392 1.163-1.359 1.163.049m-140.436 3.454 1.337 3.322-1.552 2.46c-2.762 4.375-4.537 2.486-3.857-4.105.687-6.655 1.872-7.143 4.072-1.677m-57.49-1.222c.15 1.006-.126 1.338-1.114 1.338-1.248 0-2.709-2.245-2.117-3.254.517-.881 3.037.612 3.231 1.916m93.778-1.436 2.439.976-.083 7.305c-.046 4.018.125 8.047.38 8.954.417 1.486.278 1.676-1.407 1.923-2.002.294-2.318-.06-1.119-1.259.583-.583.158-.75-1.916-.75-6.206 0-8.56-5.149-5.742-12.563 2.112-5.561 3.254-6.264 7.448-4.586m29.413 1.893c-.526.634-.979.73-1.412.297-.432-.432-.25-1.065.568-1.97 1.431-1.586 2.232.001.844 1.673m-157.433-.629c.884 2.326.035 3.234-1.346 1.439-1.403-1.826-1.492-3.054-.221-3.054.524 0 1.229.727 1.567 1.615m215.618-.662c.966 1.164 1.138 1.031-3.562 2.752-4.512 1.652-9.062 1.374-6.728-.412 3.822-2.925 8.855-4.069 10.29-2.34m-71.482 1.238c1.31.859 1.35 1.067.571 2.96-1.461 3.548-1.74 8.012-.713 11.388 1.286 4.225-.03 4.95-6.177 3.402-4.523-1.139-6.274-3.546-6.274-8.624 0-8.117 6.711-12.98 12.593-9.126m125.744.026c.89 1.953.951 4.247.1 3.721-.344-.213-.625-.933-.625-1.6s-.271-1.213-.603-1.213c-1.239 0-1.963 2.573-1.546 5.493.331 2.318.257 2.79-.349 2.218-.422-.4-.916-2.037-1.096-3.638l-.329-2.912-1.945 3.93c-2.448 4.946-3.507 5.4-3.507 1.504 0-4.45 1.435-7.354 3.392-6.863 1.087.273 2.074-.008 3.233-.92 2.127-1.673 2.395-1.65 3.275.28m-246.267 1.377c.3 3.107-1.64 2.391-2.677-.989-.39-1.269-.258-1.43 1.017-1.25 1.142.162 1.508.655 1.66 2.239m-19.319.249c.863 2.477.897 2.345-.501 1.979-.73-.19-1.291-1.011-1.455-2.129-.365-2.489 1.074-2.379 1.956.15m246.568-1.148c1.075.786 1.071.915-.105 3.108-.675 1.259-1.43 2.086-1.678 1.838s-.837.075-1.308.72c-.496.679-1.262 1.015-1.823.8-1.277-.49-1.239-.279.595 3.339 1.689 3.334 2.054 5.891.781 5.472-.43-.141-.868-1.43-.974-2.864-.19-2.587-1.37-3.756-1.37-1.358 0 .739-.417 1.25-1.019 1.25-1.828 0-.714-5.119 2.036-9.348 2.566-3.946 3.083-4.26 4.865-2.957m-253.882.555c-.583.583-.917.583-1.5 0s-.417-.75.75-.75 1.333.167.75.75m103.285 3.469c-.591 5.675-1.456 6.088-2.869 1.372-.683-2.281-.625-2.608.717-4.037 2.258-2.403 2.632-1.94 2.152 2.665m-91.684-2.813c.032.43.252 1.414.489 2.188.268.876.168 1.406-.267 1.406-.384 0-.698-.647-.698-1.437 0-.791-.338-1.776-.75-2.188-.583-.583-.537-.75.208-.75.527 0 .985.352 1.018.781M84.25 262c1.221 1.221.859 2.375-.746 2.375-1.353 0-2.254-1.02-2.254-2.551 0-.83 2.119-.705 3 .176m132.489-.281c-3.579 6.982-4.322 12.106-2.197 15.139 1.519 2.168 1.377 2.49-1.058 2.398-2.493-.093-2.837-.847-2.85-6.239-.007-2.922.28-3.889 1.629-5.493 1.578-1.875 1.597-1.991.528-3.173-1.552-1.715-2.166-1.531-2.166.649 0 2.146-.574 2.333-2.395.781-3.36-2.862.241-5.461 4.08-2.945 1.553 1.017 2.646.561 2.68-1.117.006-.258.455-.469 1-.469s.881.211.749.469m95.575 4.02c-.238 1.778-.022 2.57.942 3.441.689.623 1.811 2.228 2.495 3.568l1.243 2.435-2.335-.379c-1.284-.208-2.867-.094-3.517.254-3.001 1.606-5.133-9.328-2.388-12.25 2.068-2.201 4.031-.584 3.56 2.931m-173.318-2.875c1.387 3.615.184 8.386-2.115 8.386-2.392 0-3.354-3.939-1.896-7.772.698-1.838 3.383-2.249 4.011-.614m24.91.863c-1.724 2.186-1.739 2.585-.149 3.947 2.537 2.172 6.019.702 5.283-2.23-.534-2.127-1.54-2.213-1.54-.131 0 1.259-.31 1.562-1.599 1.562-1.663 0-1.627-.494.193-2.617.842-.983.627-2.427-.35-2.348-.237.019-1.064.837-1.838 1.817m-92.187.186c.429.338.781 1.005.781 1.481 0 .69.238.718 1.167.138 1.59-.993 3.204-.253 3.228 1.48.019 1.38.049 1.388.927.227.774-1.023 1.143-1.092 2.509-.469.882.401 2.989.73 4.682.73 2.79 0 3.171.177 4.05 1.875 1.145 2.216.816 2.299-3.694.931-1.687-.512-4.274-.931-5.748-.931-1.658 0-3.8-.596-5.619-1.562-1.616-.86-3.695-1.563-4.62-1.563-1.44 0-3.132-1.852-3.132-3.428 0-.459 4.687.476 5.469 1.091m20.205.193c1.324 1.199 1.685 3.142.441 2.373-.418-.258-1.72-.626-2.893-.818-1.297-.212-2.525-.939-3.134-1.856l-1-1.508 2.692.361c1.481.199 3.233.85 3.894 1.448m133.613-.424c.616.391.73 1.243.415 3.106l-.433 2.567-2.916-.146c-2.742-.138-2.927-.047-3.109 1.533-.283 2.442 2.724 4.47 4.013 2.706 1.013-1.385.984-1.413 2.32 2.198 1.376 3.721 1.423 3.58-1.429 4.348-5.52 1.486-9.15-2.483-8.646-9.453.426-5.892 5.594-9.514 9.785-6.859m10.865-.197c.463.463-5.397 8.319-7.092 9.506-2.716 1.902-3.903-3.59-1.483-6.864 1.847-2.498 7.1-4.117 8.575-2.642m44.565 2.196c1.241 2.402.801 3.694-1.26 3.694-.87 0-1.562.211-1.538.469.118 1.259 1.098 2.977 1.738 3.047.395.043.999.113 1.343.156s.625.479.625.97.703 1.445 1.563 2.121c2.631 2.07 1.769 3.862-1.859 3.862-1.034 0-1.559-.462-1.852-1.628-.303-1.208-.714-1.548-1.59-1.319-1.692.442-2.011-.948-1.539-6.717.535-6.546 2.376-8.508 4.369-4.655m15.908.569c0 1.753-.267 2.5-.895 2.5-.493 0-1.063.525-1.266 1.168-.792 2.494-2.839 3.639-2.836 1.585.007-3.254 1.249-6.542 2.692-7.123 2.173-.875 2.305-.769 2.305 1.87m-117.716-.732c-1.754 1.939.126 5.13 2.488 4.223.958-.367.927-.509-.291-1.362-1.075-.753-1.229-1.199-.733-2.125 1.175-2.195.269-2.651-1.464-.736m14.122-.187c-1.878 1.322-1.887 4.261-.017 5.571 1.91 1.338 3.252 1.277 2.645-.121-.262-.601-.644-2.296-.849-3.766-.366-2.63-.395-2.657-1.779-1.684m69.463-.146c1.609 1.177-.431 5.719-2.154 4.796-2.372-1.269-3.038 2.366-1.463 7.988.507 1.81-.985 1.901-2.564.156-.623-.687-1.497-1.25-1.944-1.25-1.19 0-1.701-3.786-.908-6.73 1.214-4.508 6.032-7.154 9.033-4.96m11.467.252c.136.412-.443 1.349-1.285 2.081-.982.854-1.42 1.764-1.219 2.532.385 1.474-.3 1.536-1.814.166-1.094-.99-1.142-.89-1.123 2.343.021 3.515.432 3.506 2.476-.054.636-1.107.511-1.262 2.709 3.371 1.935 4.081 1.586 5.053-1.609 4.47-6.001-1.096-9.754-10.495-5.778-14.471 1.7-1.7 7.126-2.011 7.643-.438m15.187.211c1.448 1.448 1.16 2.296-1.065 3.142-2.072.788-1.855 3.473.263 3.249 1.286-.137 1.404.11 1.404 2.936v3.085l-2.031-.672c-3.122-1.034-3.594-2.06-3.594-7.82v-5.193h1.875c1.053 0 2.433.558 3.148 1.273m-38.176-.038c1.036.555 1.064.827.299 2.969-.462 1.297-.853 4.538-.869 7.202-.031 5.48.084 5.394-5.297 3.977-3.426-.903-3.993-1.724-4.061-5.883-.098-5.967 5.506-10.632 9.928-8.265m-44.347 3.474c0 .987-3.001 4.666-3.806 4.666-.901 0-.664-2.863.474-5.706l1.043-2.607 1.145 1.413c.629.777 1.144 1.783 1.144 2.234m-140-.073c0 .488.171 1.332.379 1.875.683 1.78-.948 1.036-1.941-.886-.924-1.785-.91-1.875.296-1.875.696 0 1.266.399 1.266.886m87.886 4.739c1.179 0 1.093 1.028-.125 1.496-1.591.61-5.429.384-7.341-.433l-1.768-.755 2.314-3.031 2.314-3.03 1.872 2.876c1.029 1.582 2.26 2.877 2.734 2.877m172.114-5.051c0 1.081-.759 2.551-1.317 2.551-.307 0-.558-.703-.558-1.562 0-.973.354-1.563.938-1.563.515 0 .937.258.937.574m-255.761 1.204c.179.538-.121.764-.834.625-.613-.118-1.24-.594-1.394-1.056-.179-.538.121-.764.834-.625.613.118 1.24.594 1.394 1.056m250.136 2.04c0 3.001-2.129 2.199-2.384-.898-.185-2.235-.117-2.34 1.094-1.692.869.466 1.29 1.311 1.29 2.59m-273.473-1.179c1.223 1.746 1.247 2.986.057 2.986-1.003 0-2.209-1.854-2.209-3.396 0-1.402 1.019-1.207 2.152.41m48.629-.771c.752.005 1.094.502 1.094 1.591 0 1.373-.161 1.499-1.209.938-.665-.356-2.212-.647-3.437-.647-1.858 0-2.229-.222-2.229-1.332 0-1.191.247-1.291 2.344-.944 1.289.213 2.836.39 3.437.394m143.297 1.726c.009.945.211 3.03.45 4.633.484 3.259-.835 4.273-5.559 4.273-2.475 0-2.417.285-.809-4.013 1.843-4.925 5.887-8.269 5.918-4.893m6.703-1.302c-1.344.538-.855 3.089.938 4.884 1.943 1.946 2.835.806 1.427-1.824-.4-.747-.639-1.73-.53-2.184.221-.927-.658-1.347-1.835-.876m-144.925 1.597c1.083 1.719-.636 3.086-1.836 1.46-.492-.667-.895-1.602-.895-2.077 0-1.157 1.882-.732 2.731.617m40.367 1.531c.951 1.209 1.109 1.798.571 2.13-1.057.653-2.308.036-2.75-1.358-.208-.655-.657-1.192-.998-1.192s-.446-.281-.233-.625c.678-1.097 2.057-.675 3.41 1.045m-58.098-.42c0 .783-.663.783-1.875 0-.758-.49-.668-.608.469-.615.773-.006 1.406.271 1.406.615m31.388 1.013c2.443 1.257 3.49 3.362 1.672 3.362-.748 0-1.719-.492-2.159-1.093-.908-1.241-1.741-.818-1.194.606.475 1.237 3.01 2.362 5.322 2.362 1.565 0 1.846.244 1.846 1.605 0 1.396-.183 1.539-1.406 1.102-.774-.277-2.461-.506-3.75-.511-2.138-.008-2.344-.159-2.344-1.727 0-2.374-1.768-3.919-5.512-4.817-1.747-.419-3.448-1.09-3.781-1.49-.877-1.058 9.114-.526 11.306.601m184.203 1.748c2.391 2.485 1.665 2.96-2.373 1.553-1.693-.59-1.968-.987-1.968-2.835 0-2.567.892-2.303 4.341 1.282m8.901 1.122c-1.217 1.217-2.899-.233-3.124-2.696l-.194-2.124 2.047 2.021c1.632 1.611 1.891 2.179 1.271 2.799m-218.85-1.976c.929 1.735.733 2.468-.657 2.468-1.284 0-2.824-2.696-2.157-3.775.482-.779 2.1-.027 2.814 1.307m3.608.093c1.046 1.046.938 3-.166 3-.91 0-2.209-1.813-2.209-3.084 0-.896 1.446-.845 2.375.084m116.374.812c1.064 1.987.776 2.235-2.063 1.774-1.613-.261-2.311-.696-2.311-1.439 0-2.434 3.123-2.674 4.374-.335m21.751-.812c.904.904.975 1.75.147 1.75-.332 0-.904-.562-1.272-1.25-.737-1.377-.055-1.68 1.125-.5m30.6 2.424c.152 2.571.097 2.679-.781 1.55-1.163-1.494-1.285-4.94-.163-4.571.432.142.854 1.492.944 3.021m-164.216-2.08c.004.258.178 1.101.385 1.875.44 1.641-.489 1.847-1.912.424-1.363-1.364-1.227-2.768.268-2.768.688 0 1.254.211 1.259.469m26.127 1.094c.685 1.503.63 1.562-1.462 1.562-1.902 0-2.174-.195-2.174-1.562 0-1.222.319-1.563 1.462-1.563.953 0 1.71.544 2.174 1.563m3.747.824c.152 1.54-.011 1.9-.733 1.623-1.166-.448-1.724-1.841-1.241-3.099.594-1.547 1.762-.674 1.974 1.476m33.073-.318c-.418 1.256-1.706 1.164-1.706-.122 0-.899.288-1.172.964-.913.53.204.864.669.742 1.035m19.995.813c-.425.426-3.576-1.115-3.576-1.748 0-.298.87-.091 1.933.459 1.063.549 1.803 1.13 1.643 1.289m-109.414-.674c1.43.082 2.836.284 3.125.451.289.166 1.577.491 2.862.723 1.415.256 2.606.927 3.022 1.704.592 1.105.528 1.233-.461.927-.631-.195-3.568-.627-6.527-.958-5.353-.601-11.238-2.394-8.214-2.504.773-.028 1.406-.362 1.406-.743 0-.422.427-.508 1.094-.22.601.259 2.263.538 3.693.62m194.149 1.562c.237.906.008 1.23-.87 1.23-.917 0-1.191-.449-1.191-1.952 0-2.171 1.436-1.668 2.061.722m-162.706-.683c.894 1.67-.514 2.488-1.637.952-1.09-1.491-1.067-2.164.073-2.164.503 0 1.207.545 1.564 1.212m4.395.314c0 1.973-.891 2.494-2.137 1.248-1.563-1.563-1.13-2.774.991-2.774.798 0 1.146.463 1.146 1.526m3.402-.137c1.333 1.904 1.222 2.483-.433 2.248-1.007-.143-1.463-.688-1.604-1.918-.239-2.075.707-2.228 2.037-.33m21.598-.576c0 .9-1.221 2.312-2 2.312-.275 0-.5-.703-.5-1.562 0-1.146.333-1.563 1.25-1.563.688 0 1.25.366 1.25.813m4.1-.128c.67 1.085-1.425 2.865-2.319 1.971-.554-.554-.537-.958.072-1.692.943-1.136 1.662-1.225 2.247-.279m117.15-.111c0 .316.171 1.019.379 1.562.249.649.034.989-.625.989-.654 0-1.004-.544-1.004-1.562 0-.86.281-1.563.625-1.563s.625.258.625.574m-113.148.961c1.383 1.667-.445 2.888-2.437 1.628-.743-.47-.757-.736-.08-1.553 1.015-1.222 1.552-1.238 2.517-.075m4.188 1.235c-.207.539-.666.98-1.02.98-.719 0-.884-2.053-.218-2.719.686-.686 1.65.667 1.238 1.739m3.96-.307c0 1.506-1.133 2.279-2.028 1.384-.475-.475-.437-.948.131-1.633 1.092-1.316 1.897-1.211 1.897.249m-63.875.787c1.034 1.034.941 2.375-.166 2.375-.799 0-2.209-1.768-2.209-2.771 0-.639 1.609-.37 2.375.396m68.132.337c-.313 1.629-2.382 1.81-2.382.209 0-.895.401-1.296 1.296-1.296.894 0 1.231.337 1.086 1.087m4.383-.045c-.305 1.568-1.765 1.783-1.765.26 0-.768.404-1.302.983-1.302.582 0 .901.425.782 1.042m-69.282.499c1.182 1.425.482 2.584-.792 1.311-1.151-1.151-1.401-2.227-.518-2.227.302 0 .891.412 1.31.916m4.638.497c.777 1.233.178 2.008-1.157 1.496-1.115-.428-1.338-3.138-.227-2.768.405.135 1.028.708 1.384 1.272m4.122-.484c.851 1.025.369 4.071-.643 4.071-.908 0-2.08-2.875-1.639-4.023.471-1.228 1.288-1.245 2.282-.048m28.747-.148c-.016 1.319-1.062 2.528-1.795 2.075-1.22-.754-.812-2.856.555-2.856.688 0 1.246.352 1.24.781m3.635-.031c1.15 1.15.892 2.375-.5 2.375-.917 0-1.25-.417-1.25-1.562q.001-2.56 1.75-.813m31.635.723c-.401 1.047-1.51 1.434-1.51.527 0-.608 1.394-2.064 1.692-1.767.117.117.035.675-.182 1.24m4.74.126c0 .496-.422.901-.937.901-.942 0-1.285-1.319-.538-2.066.583-.584 1.475.121 1.475 1.165m-63.75 1.572c0 2.53-2.09 2.348-2.385-.208-.159-1.378.054-1.713 1.093-1.713 1.026 0 1.292.396 1.292 1.921m31.115-1.393c.442.281.623.978.402 1.553-.505 1.315-1.27 1.339-1.763.055-.787-2.052-.281-2.65 1.361-1.608m48.885.41c0 .993-2.195 1.311-2.759.399-.461-.747.251-1.337 1.613-1.337.63 0 1.146.422 1.146.938m-76.363 1.455c.147 1-.123 1.357-1.027 1.357-1.471 0-2.358-1.878-1.225-2.596 1.188-.753 2.027-.292 2.252 1.239m33.238-1.414c0 1.554-1.4 2.735-2.526 2.132-1.912-1.023-1.528-2.486.651-2.486 1.031 0 1.875.159 1.875.354m46.765.688c-.305 1.568-1.765 1.783-1.765.26 0-.768.404-1.302.983-1.302.582 0 .901.425.782 1.042m4.992.371c.145.75-.192 1.087-1.086 1.087s-1.296-.401-1.296-1.296c0-1.601 2.069-1.42 2.382.209m4.283-.433c.528 1.374-.904 2.752-1.633 1.571-.612-.989-.195-2.551.679-2.551.318 0 .747.441.954.98m103.382-.183c-.077.747-.935.602-1.203-.203-.138-.413.087-.638.5-.5.412.137.729.454.703.703m-155.613.484c1.438.77 1.019 1.844-.721 1.844-.796 0-1.213-.429-1.213-1.25 0-1.431.235-1.503 1.934-.594m4.316.557c0 1.56-1.228 2.328-1.935 1.211-.912-1.439-.633-2.424.685-2.424.821 0 1.25.417 1.25 1.213m52.5-.275c0 .515-.118.937-.261.937s-.707.171-1.25.379c-.635.244-.989.039-.989-.573 0-.864.794-1.501 2.031-1.632.258-.027.469.373.469.889m7.5 0c0 .515-.281.937-.625.937s-.625-.422-.625-.937.281-.938.625-.938.625.422.625.938m13.125.312q0 1.25-1.25 1.25t-1.25-1.25 1.25-1.25 1.25 1.25m4.375-.702c0 .726-1.818 2.217-2.217 1.818-.566-.566.458-2.366 1.346-2.366.479 0 .871.247.871.548m19.375 1.051c0 .496-.422.901-.937.901-.942 0-1.285-1.319-.538-2.066.583-.584 1.475.121 1.475 1.165m150.949-.992c-.45.728 2.107 1.455 4.095 1.164.781-.115 1.536-.56 1.678-.99.313-.95-5.191-1.116-5.773-.174m-318.828 1.007c.909 2.37.375 2.939-1.183 1.258-1.875-2.023-1.913-2.247-.38-2.247.651 0 1.354.445 1.563.989m37.369.576c.392.861.551 1.728.353 1.926-.692.691-2.968-1.044-2.968-2.263 0-1.751 1.767-1.523 2.615.337m38.589.053c-.828.998-2.454 1.189-2.454.288 0-.776 2.013-1.895 2.673-1.486.282.174.183.713-.219 1.198m63.171-.68a.94.94 0 0 1-.937.937c-.976 0-1.24-.739-.521-1.458s1.458-.455 1.458.521m12.969.677c-.596.595-1.79-.369-1.346-1.088.264-.427.613-.416 1.062.033.368.368.496.843.284 1.055m24.132-.677c.245.637-.034.937-.871.937-.677 0-1.23-.422-1.23-.937s.392-.938.871-.938c.478 0 1.032.422 1.23.938m98.212-.317c-1.132.44-1.08.53.544.957 2.343.614 13.701-.018 15.18-.846 1.389-.777-13.736-.884-15.724-.111m22.187.004c0 .344.984.625 2.188.625 1.203 0 2.187-.281 2.187-.625s-.984-.625-2.187-.625c-1.204 0-2.188.281-2.188.625m14.688 0c-.499.806 2.815.806 4.062 0 .699-.452.35-.608-1.369-.615-1.269-.006-2.481.271-2.693.615m-307.719.938c0 .326-.303.694-.672.817s-.672-.245-.672-.817c0-.573.302-.941.672-.818.369.123.672.491.672.818m77.641.023c.211.549-.032 1.115-.566 1.32-.965.37-2.794-.764-2.794-1.733 0-.956 2.975-.59 3.36.413m111.166 1.217c.253 1.32.064 1.572-1.175 1.572-.895 0-1.476-.369-1.476-.937 0-.516.281-.938.625-.938s.625-.438.625-.974c0-1.477 1.059-.511 1.401 1.277m4.109-.099c.158 1.336-.061 1.671-1.093 1.671-1.376 0-1.732-.905-.624-1.589.367-.227.507-.829.312-1.339-.218-.567-.052-.827.426-.67.43.141.87 1.009.979 1.927m-188.181.175c-.22.22-.897.21-1.503-.023-.936-.359-.965-.509-.189-.989.958-.592 2.421.283 1.692 1.012m40.796.99c0 .737-1.731.62-2.206-.149-.889-1.438.334-2.9 1.313-1.569.491.667.893 1.44.893 1.718m37.5-2.071c0 .904-1.771 2.09-2.473 1.656-1.264-.781-.676-2.204.911-2.204.859 0 1.562.247 1.562.548m4.375.702q0 1.25-1.25 1.25t-1.25-1.25 1.25-1.25 1.25 1.25m3.75.349c0 .496-.422.901-.937.901-.942 0-1.285-1.319-.538-2.066.583-.584 1.475.121 1.475 1.165m107.5-.349c0 .893-.417 1.25-1.458 1.25-1.881 0-2.46-.607-1.585-1.661 1.084-1.307 3.043-1.042 3.043.411m21.875 0c0 .698-.417 1.25-.943 1.25-.786 0-.813-.207-.162-1.25.429-.687.854-1.25.943-1.25s.162.563.162 1.25m-211.25.313c0 .515-.118.937-.261.937s-.707.171-1.25.379c-.635.244-.989.039-.989-.573 0-.864.794-1.501 2.031-1.632.258-.027.469.373.469.889m40 .917c0 1.393-.234 1.766-.937 1.496-1.647-.632-1.16-2.689.781-3.302.086-.027.156.786.156 1.806m47.383-.449c.154.807-.203 1.094-1.363 1.094-1.708 0-2.583-.863-1.935-1.911.628-1.016 3.064-.413 3.298.817m3.698.038c-.418 1.256-1.706 1.164-1.706-.122 0-.899.288-1.172.964-.913.53.204.864.669.742 1.035m-58.737.275c.383 1.149-1.519.953-1.962-.202-.263-.685-.063-.922.662-.781.572.111 1.157.553 1.3.983m64.378 0c.161.49-.345.781-1.357.781-1.051 0-1.615-.343-1.615-.981 0-1.175 2.576-1.002 2.972.2m4.375 0c.168.51-.404.781-1.65.781-1.468 0-1.822-.224-1.535-.971.43-1.12 2.8-.979 3.185.19m151.609.417c.425 1.106-.548 2.488-1.386 1.97-1.069-.661-.89-3.516.194-3.101.489.188 1.026.697 1.192 1.131m-248.474.247c.138.414-.328.742-1.055.742-1.298 0-1.687-.656-.872-1.471.579-.579 1.622-.185 1.927.729m3.268.097c0 .837-.3 1.116-.937.871-.516-.198-.938-.752-.938-1.23 0-.479.422-.871.938-.871.515 0 .937.553.937 1.23m37.5-.969c0 .144.157.67.348 1.17.454 1.183-1.496 1.931-2.615 1.003-1.384-1.148-1.012-2.434.705-2.434.859 0 1.562.118 1.562.261m60.911.321c.198.32.06.767-.306.993-.925.571-2.645-.178-2.17-.946.488-.79 1.999-.819 2.476-.047m13.464.021c0 .821-2.385 2.042-3.111 1.593-.321-.198-.426-.774-.232-1.279.386-1.006 3.343-1.284 3.343-.314m4.668-.009c.399.645-2.062 2.221-2.611 1.671-.185-.185-.17-.77.034-1.301.41-1.068 2.004-1.297 2.577-.37m44.707.031c0 .344-.422.625-.937.625s-.938-.281-.938-.625.422-.625.938-.625c.515 0 .937.281.937.625m-156.375.75c1.158 1.158.896 1.75-.776 1.75-1.646 0-2.533-.87-1.911-1.875.522-.846 1.774-.788 2.687.125m36.375.5q0 1.25-1.25 1.25t-1.25-1.25 1.25-1.25 1.25 1.25m3.879 1.371c-.518.518-.956.552-1.399.109-.356-.356-.458-1.137-.228-1.736.381-.991.508-1.001 1.4-.109.767.766.817 1.146.227 1.736m75.496-1.683a.94.94 0 0 1-.937.937.94.94 0 0 1-.938-.937.94.94 0 0 1 .938-.938.94.94 0 0 1 .937.938m5.472-.157c-.298.905-2.972 1.459-2.972.617 0-.893.734-1.398 2.031-1.398.679 0 1.087.338.941.781m5 0c-.396 1.202-2.972 1.375-2.972.2 0-.638.564-.981 1.615-.981 1.012 0 1.518.291 1.357.781m5.778-.223c0 .307-.445.729-.989.938-1.754.673-3.386.404-3.386-.558 0-.655.66-.938 2.188-.938 1.203 0 2.187.251 2.187.558m4.375.38a.94.94 0 0 1-.937.937.94.94 0 0 1-.938-.937.94.94 0 0 1 .938-.938.94.94 0 0 1 .937.938m4.232.195c.136.408-.198.742-.742.742a.99.99 0 0 1-.99-.99c0-1.103 1.345-.911 1.732.248m5.768-.488c0 .354-.422.806-.937 1.004-1.252.48-2.992-.229-2.503-1.02.512-.828 3.44-.815 3.44.016m4.844-.214c-.602.157-1.586.157-2.188 0-.601-.157-.109-.286 1.094-.286s1.695.129 1.094.286m-144.206 1.147c.434.524.65 1.093.478 1.264-.566.566-2.366-.458-2.366-1.346 0-1.147.9-1.108 1.888.082m42.237 1.297c-.303.788-.603.897-1.103.397-.379-.379-.501-1.176-.272-1.772.303-.788.603-.897 1.103-.397.379.379.501 1.176.272 1.772m4.972-.962c.998 1.103 1.034 1.372.253 1.866-2.303 1.456-3.688.355-2.721-2.165.505-1.315 1.069-1.247 2.468.299m136.809-.744c-.794.726-5.281 1.382-5.281.771 0-.967.887-1.315 3.354-1.315 1.468 0 2.273.227 1.927.544m70.032.338c-2.275.714-1.396.829 9.74 1.274 11.619.464 16.197.22 16.197-.864 0-1.347-21.856-1.693-25.937-.41m-249.688 1.358c0 1.958-1.468 1.743-1.762-.258-.133-.901.13-1.357.781-1.357.638 0 .981.564.981 1.615m4.375-.052c0 1.051-.114 1.094-1.511.558s-1.229-1.496.261-1.496c.694 0 1.25.417 1.25.938m156.25 1.326c0 .474-.562.861-1.25.861-1.31 0-1.505-.484-.865-2.152.454-1.182 2.115-.168 2.115 1.291m10.938-1.639c.224.364-.398.625-1.489.625-1.031 0-2.049-.281-2.261-.625-.225-.364.397-.625 1.488-.625 1.031 0 2.049.281 2.262.625m-226.116 2.262c-.6.599-2.382-1.035-1.929-1.768.226-.365.778-.216 1.363.369.54.54.795 1.17.566 1.399m26.285-1.129c.138.414-.328.742-1.055.742-1.298 0-1.687-.656-.872-1.471.579-.579 1.622-.185 1.927.729m40.768.163c0 1.601-2.069 1.42-2.382-.209-.145-.75.192-1.087 1.086-1.087s1.296.401 1.296 1.296m35.338-.629c.575.93-.092 1.436-1.288.977-.552-.212-.829-.668-.615-1.015.506-.819 1.384-.802 1.903.038m5.17.739c.155.813-.205 1.094-1.4 1.094-1.209 0-1.608-.321-1.608-1.293 0-1.638 2.692-1.459 3.008.199m4.375 0c.155.813-.205 1.094-1.4 1.094-1.209 0-1.608-.321-1.608-1.293 0-1.638 2.692-1.459 3.008.199m4.128-1.027c1.849.71 1.191 2.746-.886 2.746-2.07 0-2.17-.156-1.228-1.916.724-1.352.738-1.358 2.114-.83m7.969.442c2.156-.061 3.981 2.176 2.766 3.391-1.387 1.388-8.496-.666-8.496-2.455 0-1.772.11-1.86 1.719-1.382.945.281 2.75.482 4.011.446m7.372.089c1.013 1.221.297 2.215-1.596 2.215-1.769 0-2.744-1.728-1.441-2.554 1.262-.798 2.178-.696 3.037.339m79.398.34q0 1.25-1.25 1.25t-1.25-1.25 1.25-1.25 1.25 1.25m50.105.354c-3.716 1-6.849 2.771-4.901 2.771.61 0 1.952.436 2.983.97 1.119.578 2.426.795 3.24.536l1.365-.433-1.396-.516c-3.476-1.286-.325-2.432 6.688-2.432 2.705 0 4.605-.323 5.39-.918 1.684-1.273-8.618-1.257-13.369.022m-184.879.584c.384 1-.143 1.17-1.737.558-1.368-.525-1.242-1.496.194-1.496.651 0 1.345.422 1.543.938m59.621.156c.161.49-.345.781-1.357.781-1.051 0-1.615-.343-1.615-.981 0-1.175 2.576-1.002 2.972.2m3.903-.156c0 .515-.553.937-1.23.937-.837 0-1.116-.3-.871-.937.198-.516.752-.938 1.23-.938.479 0 .871.422.871.938m4.585-.52c.463.463-1.346 2.707-2.182 2.707-.29 0-.528-.703-.528-1.562 0-1.515 1.645-2.21 2.71-1.145m4.662.942c.191.992-2.084 2.262-2.789 1.557-.177-.178-.132-.922.101-1.655.489-1.543 2.385-1.474 2.688.098m3.511-.982c1.272.488.652 1.497-.92 1.497-1.213 0-1.581-.674-.796-1.458.507-.507.496-.507 1.716-.039m9.004 1.028c-.11.774-.621 1.407-1.137 1.407s-1.027-.633-1.137-1.407c-.154-1.082.108-1.406 1.137-1.406s1.291.324 1.137 1.406m3.759.431c.142.97-.058 1.339-.625 1.152-.458-.151-.927-.917-1.042-1.701-.142-.97.058-1.339.625-1.152.458.151.927.917 1.042 1.701m4.894-.857c.207.538.055 1.3-.336 1.691-.88.88-2.964-.917-2.304-1.986.624-1.009 2.208-.833 2.64.295m28.335-.432c0 .302-.444.918-.988 1.369-.576.478-.872 1.421-.711 2.264.393 2.057-.7 1.797-1.154-.275-.207-.945-.474-2.043-.594-2.439-.119-.396-.049-.888.157-1.093.582-.583 3.29-.439 3.29.174m4.222.233c-.142.43-.867.871-1.612.981-1.013.149-1.259-.048-.978-.781.446-1.161 2.97-1.355 2.59-.2m-240.239.619c4.157.402 6.605.387 7.5-.047.986-.477-.608-.631-6.17-.597l-7.5.047zm42.267-.15c0 .344-.422.625-.937.625s-.938-.281-.938-.625.422-.625.938-.625c.515 0 .937.281.937.625m77.188.929c0 1.37-1.392 1.881-2.748 1.008-1.329-.855-.329-2.686 1.338-2.45.922.131 1.41.63 1.41 1.442m74.687-.252c0 1.523-1.46 1.308-1.765-.26-.119-.617.2-1.042.782-1.042.579 0 .983.534.983 1.302m18.125-.431c0 .478-.377 1.015-.838 1.192-1.144.439-2.547-.512-2.018-1.368.616-.997 2.856-.859 2.856.176m4.37-.262c.725.458.765.756.183 1.338s-.965.572-1.714-.05c-1.867-1.55-.587-2.627 1.531-1.288m5.005.016c0 .344-.773.621-1.719.615-1.339-.007-1.512-.143-.781-.615 1.223-.79 2.5-.79 2.5 0m3.768.916c-.431.52-1.051.781-1.376.58-.326-.201-.083-.738.538-1.192 1.399-1.023 1.894-.661.838.612m4.67-.916c.212.344-.193.625-.901.625s-1.287-.281-1.287-.625.405-.625.901-.625c.495 0 1.074.281 1.287.625m36.25 0c-.213.344-.809.625-1.324.625-.516 0-.764-.281-.551-.625s.808-.625 1.323-.625c.516 0 .764.281.552.625m91.821.027c1.074.321 2.228.307 2.813-.035.708-.414.19-.569-1.822-.544-2.597.032-2.673.076-.991.579m-234.744 1.431c.119.617-.2 1.042-.782 1.042-.579 0-.983-.534-.983-1.302 0-1.523 1.46-1.308 1.765.26m-42.39.73a.94.94 0 0 1-.937.937.94.94 0 0 1-.938-.937.94.94 0 0 1 .938-.938.94.94 0 0 1 .937.938m3.772.026c.568.685.606 1.158.131 1.633-.895.895-2.028.122-2.028-1.384 0-1.46.805-1.565 1.897-.249m164.353-.048c0 .799-1.768 2.209-2.771 2.209-.495 0-.444-2.202.063-2.708.777-.778 2.708-.422 2.708.499m-160.104 1.896c-.686.687-2.31-.433-1.959-1.35.316-.822.476-.817 1.33.037.534.534.817 1.125.629 1.313m141.866-.83c-.253 1.718-1.762 2.295-1.762.674 0-1.297.505-2.031 1.398-2.031.31 0 .474.611.364 1.357m8.684.126c-.364 1.108-2.946 1.261-2.946.175 0-.511.352-1.051.781-1.201 1.144-.399 2.433.212 2.165 1.026m4.554-.612c0 1.101-1.89 1.864-2.675 1.079-.325-.325-.402-.897-.171-1.271.609-.985 2.846-.834 2.846.192m-241.875.441c-.724.516-.511.598.938.36 1.031-.17 3.984.059 6.562.509 5.014.873 6.519.643 4.663-.714-1.4-1.024-10.776-1.143-12.163-.155m163.015.336c-.294 1.487-2.744 2.244-3.666 1.134-.599-.722-.457-1.008.736-1.486 2.23-.893 3.154-.782 2.93.352m12.764-.242c.372 1.014-.099 2.344-.831 2.344-.315 0-.573-.703-.573-1.562 0-1.63.906-2.135 1.404-.782m40.406-.21c.863.547.559 2.563-.384 2.544-1.175-.023-2.201-1.196-1.849-2.114.433-1.129.967-1.231 2.233-.43m-67.435.992c0 .52-.556.937-1.25.937s-1.25-.417-1.25-.937c0-.521.556-.938 1.25-.938s1.25.417 1.25.938m3.607-.196c-.387 1.159-1.732 1.351-1.732.248 0-.545.445-.99.99-.99s.878.334.742.742m4.518.196c0 .52-.556.937-1.25.937s-1.25-.417-1.25-.937c0-.521.556-.938 1.25-.938s1.25.417 1.25.938m9.375 0a.94.94 0 0 1-.937.937c-.976 0-1.24-.739-.521-1.458s1.458-.455 1.458.521m5.564-.073c.557.67.485.954-.324 1.264-1.17.449-3.365-.084-3.365-.817 0-1.475 2.577-1.788 3.689-.447m30.539.385c-.248 1.301-6.559 1.966-7.029.741-.545-1.419.027-1.678 3.695-1.678 2.785 0 3.475.194 3.334.937m4.522-.312c0 .52-.556.937-1.25.937-1.245 0-1.626-.666-.833-1.458.761-.762 2.083-.431 2.083.521m5 0c0 .58-.588.937-1.543.937-1.115 0-1.443-.26-1.183-.937.198-.516.892-.938 1.543-.938s1.183.422 1.183.938m8.75 0c0 .52-.556.937-1.25.937s-1.25-.417-1.25-.937c0-.521.556-.938 1.25-.938s1.25.417 1.25.938m4.375 0c0 .52-.556.937-1.25.937s-1.25-.417-1.25-.937c0-.521.556-.938 1.25-.938s1.25.417 1.25.938M215 296.25c0 .344-.422.625-.937.625s-.938-.281-.938-.625.422-.625.938-.625c.515 0 .937.281.937.625m-73.268 1.133c.136.408-.198.742-.742.742a.99.99 0 0 1-.99-.99c0-1.103 1.345-.911 1.732.248m140.623-.686c-.939.142-2.627.145-3.75.006s-.355-.256 1.708-.259 2.981.11 2.042.253m15.145.178c0 .783.663.783 1.875 0 .758-.49.668-.608-.469-.615-.773-.006-1.406.271-1.406.615m24.892.564c-11.209 1.203.114 1.978 18.858 1.292 8.422-.309 16.508-.571 17.969-.583s2.656-.304 2.656-.648c0-.681-33.229-.732-39.483-.061m-305.517 1.284c-9.202.633-3.952 1.293 8.438 1.06 6.628-.124 12.565-.522 13.437-.9 1.728-.751-11.843-.85-21.875-.16m76.176 1.746a3.7 3.7 0 0 0-.025.861c.027.217-1.135.608-2.583.871-3.228.587-2.953.639 8.307 1.575 7.581.631 9.406.612 11.163-.115l2.101-.869-3.663-.035c-2.015-.019-5.592-.647-7.948-1.396-4.368-1.387-7.219-1.734-7.352-.892m133.199.156c0 .344-.844.625-1.875.625s-1.875-.281-1.875-.625.844-.625 1.875-.625 1.875.281 1.875.625m5 0c0 .344-.405.625-.901.625-.495 0-1.074-.281-1.286-.625-.213-.344.192-.625.9-.625s1.287.281 1.287.625m133.438.915c-1.726.79-1.327.859 5 .865 7.88.008 11.143-.7 6.292-1.365-4.697-.644-9.234-.443-11.292.5m-346.875.96c-1.108.282 1.834.47 7.187.459 6.975-.014 8.199-.125 5.313-.483-4.798-.595-10.107-.585-12.5.024m104.687.62c0 .346-.405.63-.901.63-.495 0-1.074.281-1.286.625-.234.377.618.625 2.15.625 2.794 0 3.194-.539 1.287-1.73-.741-.463-1.25-.524-1.25-.15m203.131.095c-7.462 1.236-5.464 2.115 4.057 1.785 7.484-.259 9.208-.499 10.114-1.406 1.263-1.267-7.412-1.499-14.171-.379m-174.068 1.16c-.236.382.722.625 2.463.625 1.567 0 2.849-.281 2.849-.625s-1.108-.625-2.463-.625-2.637.281-2.849.625m13.125 0c-.213.344.192.625.9.625s1.287-.281 1.287-.625-.405-.625-.901-.625c-.495 0-1.074.281-1.286.625m15 0c-1.593.684.05.684 2.187 0 1.256-.402 1.317-.504.313-.519-.688-.01-1.813.224-2.5.519m114.728.085c-4.204.697-4.8 1.165-1.482 1.165 3.795 0 8.316-.726 8.316-1.335 0-.648-2.241-.592-6.834.17m84.022-.397c-.344.117-2.02.403-3.725.633-5.985.81-1.394 1.712 7.388 1.451 8.968-.267 12.291-1.16 6.962-1.871-3.327-.443-9.586-.569-10.625-.213m-105.036 1.198c-.667.488-1.072 1.015-.901 1.171.537.49 8.946-.754 9.614-1.422 1.037-1.037-7.279-.797-8.713.251m-205.889.692c1.396 1.682-4.724 3.116-10.221 2.394-3.949-.519-2.573-1.45 2.163-1.462 2.354-.007 3.774-.32 4.295-.947 1.001-1.207 2.755-1.2 3.763.015m114.693.267c-.539.872.148 1.905 1.268 1.905 1.148 0 1.157-.884.019-1.829-.603-.5-1.01-.524-1.287-.076m83.419.002c0 1.175 4.409 1.512 5.501.42.939-.939.768-1.017-2.242-1.017-1.792 0-3.259.269-3.259.597m85 .028c0 .806 8.128.806 9.375 0 .647-.418-.659-.609-4.219-.615-3.027-.006-5.156.248-5.156.615m-257.187.625c-.503.812 4.055.812 5.312 0 .679-.439.129-.608-1.994-.615-1.613-.006-3.106.271-3.318.615m140.47.207c.738 2.357 8.877 3.897 10.467 1.981.672-.81.397-.938-2.012-.938-1.534 0-4.116-.399-5.736-.887-2.12-.638-2.883-.682-2.719-.156m57.967-.207c0 .344.563.625 1.25.625s1.25-.281 1.25-.625-.562-.625-1.25-.625-1.25.281-1.25.625m-203.89 1.328c1.326.383 2.427.37 3.125-.037.821-.478.332-.619-2.047-.591-3.012.036-3.051.059-1.078.628m196.078-.078c-.23.371.502.625 1.801.625 1.203 0 2.361-.281 2.574-.625.229-.371-.503-.625-1.802-.625-1.203 0-2.361.281-2.573.625m-168.651.903c-.213.555-3.191.91-10.241 1.219-9.877.434-16.523 1.48-17.852 2.809-.509.509-.475.694.125.694.453 0 .16.549-.656 1.229l-1.475 1.229 2.343.021c1.289.012 2.353-.19 2.364-.448.085-2.006 1.944-2.843 6.056-2.725 2.33.067 6.294-.312 8.809-.842 5.786-1.22 9.066-1.207 12.615.051 2.83 1.002 5.582.956 19.322-.328 3.658-.342 3.91-.456 2.882-1.304-.911-.752-2.986-.896-10.884-.758-7.559.132-10.135-.032-11.432-.73-1.31-.704-1.741-.73-1.976-.117m177.713.347c0 .344 1.055.605 2.344.581 1.88-.035 2.096-.15 1.094-.581-1.737-.746-3.438-.746-3.438 0M150 310.222c-4.767 1.703-5.002 2.387-.69 2.006 2.199-.194 4.72-.353 5.603-.353 1.393 0 1.484-.115.69-.87-1.448-1.377-3.24-1.627-5.603-.783m7.292.195c-.229.229-.417.791-.417 1.25 0 1.276 2.789.99 4.063-.417 1.142-1.263-2.406-2.074-3.646-.833m99.584.052c0 .258 1.125.546 2.5.64 1.4.096 2.499-.11 2.499-.469 0-.352-1.125-.64-2.5-.64s-2.5.211-2.499.469m40.287 1.4c-3.451.29-7.942 1.09-9.98 1.778-2.662.899-4.03 1.078-4.856.635-1.231-.658-4.827-.141-4.827.695 0 .798 2.881 1.234 11.094 1.676 6.72.362 7.656.292 7.656-.571 0-.584-.761-1.15-1.875-1.394-3.057-.672-2.156-1.356 2.344-1.781 6.818-.644 8.981-.482 11.796.88 1.905.923 4.765 1.448 10.083 1.851 4.084.31 7.898.745 8.476.967 2.142.822.974-.996-1.232-1.917-2.75-1.149-2.38-1.689 1.528-2.235 2.147-.3 1.067-.434-3.992-.494a568 568 0 0 1-13.437-.35c-3.577-.146-9.327-.029-12.778.26m-101.225 1.275c-6.001 1.219-5.805 1.776.625 1.787 6.422.01 18.724-1.26 19.474-2.01.591-.59-17.056-.394-20.099.223m125.052-.103c-.452.73-4.34 1.322-5.938.904-2.32-.607-.676-1.445 2.834-1.445 1.891 0 3.287.243 3.104.541m12.284.832c-5.255.958-3.166 1.752 4.611 1.752 6.851 0 12.362-.791 13.646-1.96.797-.724-14.073-.555-18.257.208m-281.711.334c-3.086.435-3.118 1.252-.074 1.901 2.848.607 6.711.202 9.761-1.025 1.308-.526.934-.635-2.293-.668-2.12-.022-4.229-.137-4.687-.256-.458-.118-1.676-.097-2.707.048m192.187.158c-1.203.269-7.391.677-13.75.906-10.273.37-19.321 1.347-14.263 1.54.92.035 2.088.478 2.594.984.789.789 1.175.799 2.701.069 1.565-.749 18.682-1.812 28.031-1.741l2.5.019-1.476-1.196c-1.559-1.264-2.783-1.376-6.337-.581m-230.625.715c-2.983 1.196.137 1.833 6.83 1.395 7.481-.491 8.379-1.475 1.346-1.475-2.722 0-5.323-.123-5.781-.273s-1.536.008-2.395.353m54.988-.066c1.206.284 2.598.264 3.125-.044.639-.375-.071-.542-2.175-.512-3.011.043-3.046.064-.95.556m-63.738.624c0 .788 2.984 2.211 3.517 1.678.213-.213.221-.821.017-1.352-.407-1.061-3.534-1.349-3.534-.326m31.034.898c-.399 1.041-2.284 1.347-2.284.37 0-.644 2.026-1.964 2.416-1.574.131.132.072.673-.132 1.204m228.341.07c0 .651.456.914 1.357.781 2.001-.294 2.216-1.762.258-1.762-1.051 0-1.615.343-1.615.981m-147.812.064c-7.562.636-13.07 1.645-11.716 2.146 1.713.634 17.653-.058 17.653-.766 0-.588-2.178-1.849-2.928-1.695-.28.058-1.634.2-3.009.315m40.588.537c1.247.944 4.58 1.191 7.068.524 2.898-.777 1.243-1.48-3.438-1.461-4.395.018-4.731.105-3.63.937m-97.04 1.216c-1.238.682-.591.754 4.375.49 3.204-.171 6.094-.559 6.42-.862.944-.876-9.164-.528-10.795.372m261.984.323c-2.389.964-2.042 1.565.933 1.618 1.6.028 5.178.277 7.95.552 3.812.379 5.412.297 6.563-.335 2.556-1.405-12.174-3.155-15.446-1.835m-178.032.645c-1.719.275-5.429.524-8.245.554-8.025.086-6.616 1.071 2.173 1.52 10.878.554 15.759.512 15.759-.138 0-1.787-4.722-2.73-9.687-1.936m65.498-.071c-7.001.572-6.874 1.681.147 1.283 3.357-.19 6.225-.661 6.657-1.093.838-.838 1.057-.832-6.804-.19m39.345.074c-.773.311-1.406.645-1.406.742.001.638 13.172.063 13.841-.605.951-.948-10.113-1.07-12.435-.137m-79.218.937c-1.375.495-2.627.904-2.782.91-.154.005-.014.271.313.591.334.328 2.896.422 5.855.216 5.234-.364 5.254-.372 3.837-1.52-1.69-1.368-3.813-1.426-7.223-.197m118.605-.4c-4.301.752-3.666 1.043 4.183 1.916 7.977.887 11.551.644 13.083-.889.862-.861.447-.958-4.088-.958-2.776 0-6.281-.119-7.79-.265s-3.934-.058-5.388.196m-106.148.762c-.394.639.696 1.775 1.724 1.797 1.086.024 1.042-1.244-.064-1.835-.875-.469-1.353-.458-1.66.038m-98.14.508c-.199.199-2.417.362-4.928.362-4.364 0-7.202 1.118-7.202 2.839 0 .756 15.796 1.396 21.374.865l5.189-.493-3.438-.515c-7.66-1.147-10.501-1.947-8.437-2.376l1.875-.389-2.035-.327c-1.119-.18-2.198-.164-2.398.034M42.188 322.5c.447.724 3.053.724 5.312 0 1.189-.381.694-.515-2.068-.563-2.276-.039-3.487.171-3.244.563m13.472.248c-2.539.917-1.622 1.938 1.187 1.321 2.232-.491 3.953-2.22 2.136-2.146-.644.026-2.139.397-3.323.825m204.496 1.468c-3.179.113-5.781.442-5.781.731 0 2.256 5.173 2.882 16.563 2.003 22.807-1.758 15.293-3.665-10.782-2.734m-66.718.742c-5.385.42-6.563.836-6.563 2.316 0 1.965 10.7.06 11.51-2.049.179-.468.264-.806.189-.753s-2.386.272-5.136.486m17.812.667c0 .344.563.625 1.25.625s1.25-.281 1.25-.625-.562-.625-1.25-.625-1.25.281-1.25.625m-79.375 2.993-2.187 1.07 6.875.193c4.347.122 7.794-.099 9.375-.6l2.5-.792-3.75-.427c-6.532-.743-10.508-.57-12.813.556m33.438-.493c-1.665.424-1.707.485-.367.551.83.041 3.94.54 6.911 1.11 5.427 1.04 10.241.775 8.063-.444-.84-.469-11.452-1.976-12.42-1.763-.172.038-1.156.284-2.187.546m66.875 2.283-5.313.627c-5.198.614-1.838 1.327 6.615 1.403 6.955.062 14.01-.894 14.01-1.899 0-.51-11.283-.606-15.312-.131m-176.563.765c0 1.819 1.892 2.041 7.003.822l5.185-1.237-6.094-.066c-3.352-.037-6.094.18-6.094.481m150.981.006c-.386.626 2.082 1.433 2.877.941.285-.175.517-.583.517-.907 0-.746-2.935-.775-3.394-.034"/></svg>
