<svg xmlns="http://www.w3.org/2000/svg" id="a" viewBox="0 0 103 55"><path d="M25.89 12.566a20.271 20.323 0 0 0-15.203 6.891L9.433 18.2a5.524 5.538 0 1 0-7.817 7.827l4.144 4.155a21.074 21.127 0 0 0-.2 2.767V49.79a5.53 5.543 0 0 0 11.038 0v-16.8a9.303 9.326 0 0 1 18.606 0v16.8a5.53 5.543 0 0 0 11.038 0v-16.8a20.362 20.413 0 0 0-20.351-20.423m35.073 8.924a5.52 5.533 0 0 0-5.52 5.533V49.79a5.53 5.543 0 0 0 11.04 0V27.023a5.53 5.543 0 0 0-5.52-5.533m36.84.694h-9.935v-7.485a5.53 5.543 0 1 0-11.04 0V49.79a5.53 5.543 0 0 0 11.04 0V33.26h9.935a5.53 5.543 0 0 0 0-11.066ZM60.964 0a6.523 6.54 0 1 0 0 13.079 6.724 6.74 0 0 0 1.275-.11 7.526 7.546 0 0 0 1.224-.383 6.423 6.439 0 0 0 1.124-.604 7.526 7.546 0 0 0 1.003-.795A6.513 6.53 0 0 0 60.974.04"/></svg>
