<svg xmlns="http://www.w3.org/2000/svg" id="a" viewBox="0 0 400 155.556"><path d="M172.046 7.757c-14.908 1.301-26.769 5.55-38.236 13.698l-2.441 1.733-.002 54.589-.003 54.589 1.307 1.004c22.664 17.422 56.218 19.51 80.886 5.035 48.7-28.58 47.497-95.705-2.193-122.324-11.338-6.073-27.035-9.397-39.318-8.324M0 77.847v67.5h53.637v-42.135c0-47.643-.155-43.676 1.8-46.277 4.855-6.462 15.786-5.37 19.354 1.935l.777 1.591.06 42.443.06 42.443h53.63v-63.94c0-70.57.123-64.945-1.464-67.336-1.027-1.546-2.565-2.685-4.412-3.268-1.43-.451-2.03-.455-62.443-.455H0Zm222.047-62.56v4.946l2.33 1.85c35.964 28.555 35.908 82.933-.116 111.553l-2.215 1.761v9.95h52.275l-.058-64.261-.058-64.261-.704-1.477a8.64 8.64 0 0 0-4.183-4.183l-1.478-.704-22.897-.061-22.897-.061ZM276.59 77.84v67.507h50.681v-33.182h19.091v33.182H400V89.445l-6.014-.06-6.012-.06 1.258-1.932c10.343-15.883 10.403-36.274.154-52.036-8.45-12.994-22.29-21.641-39.045-24.396-2.914-.478-3.446-.485-38.353-.556l-35.397-.072Zm60.797-28.278c9.996 2.604 13.446 15.218 6.155 22.51-9.883 9.882-26.616-.3-22.257-13.543 2.192-6.662 9.445-10.7 16.102-8.967m-155.272 9.752c13.985 4.088 18.458 21.824 8.11 32.17-12.045 12.045-32.584 3.372-32.565-13.75.016-12.63 12.386-21.949 24.455-18.42"/></svg>
