<svg xmlns="http://www.w3.org/2000/svg" id="a" viewBox="0 0 512 512"><path d="M248.394 2.519c-2.34 4.856-4.79 9.227-5.781 10.32-1 1.103-1.858 2.618-5.012 8.858-.927 1.83-1.915 3.473-2.197 3.646-.28.173-1.06 1.559-1.732 3.078-.672 1.52-1.603 3.144-2.07 3.61-1.503 1.504-4.625 7.874-4.038 8.237.303.187 5.747.176 12.097-.024 10.589-.333 25.757.183 32.203 1.096 3.033.429 3.121.113.933-3.337-.88-1.387-1.6-2.845-1.6-3.241s-.607-1.367-1.35-2.16c-.74-.795-1.929-2.664-2.64-4.155-.708-1.493-1.661-3.022-2.114-3.397-.454-.378-.844-1.076-.866-1.553s-.743-1.947-1.598-3.266c-.856-1.32-1.94-3.224-2.406-4.231-.467-1.008-1.488-2.664-2.268-3.682-1.374-1.794-2.943-4.587-5.507-9.8-.681-1.384-1.6-2.518-2.04-2.518s-1.345 1.134-2.014 2.519m-66.67 10.631c-.28.524-.891 6.589-1.36 13.477-.792 11.63-1.078 14.429-2.47 24.09-1.163 8.072-.585 9.729 2.51 7.191.829-.68 2.346-1.557 3.373-1.952 1.026-.393 2.352-1.149 2.946-1.678.596-.529 2.098-1.32 3.338-1.757 1.241-.439 3.273-1.485 4.515-2.327 2.412-1.633 10.158-4.466 15.853-5.797 1.906-.447 3.882-1.029 4.391-1.294.51-.267 1.274-.484 1.7-.484 1.41 0 1.359-.893-.091-1.652-.785-.41-2.636-1.909-4.113-3.33s-5.036-4.5-7.907-6.841c-4.783-3.902-7.398-6.189-12.535-10.965-1.025-.953-2.075-1.732-2.334-1.732s-1.292-.78-2.299-1.733c-3.847-3.642-4.945-4.283-5.517-3.216m137.395 3.84a1871 1871 0 0 1-5.711 4.422c-1.793 1.381-3.688 2.887-4.211 3.347s-2.151 1.783-3.617 2.944a418 418 0 0 0-3.998 3.204c-1.956 1.603-9.117 7.297-10.661 8.476-4.71 3.6-6.03 5.368-4.01 5.368.433 0 2.052.581 3.598 1.292 1.546.71 4.468 1.8 6.494 2.422s4.304 1.565 5.064 2.095 2.508 1.386 3.886 1.903c1.38.519 2.916 1.394 3.414 1.946.5.552 1.325 1.003 1.831 1.003.507 0 2.33.901 4.049 2.002s3.51 2.239 3.98 2.532c.468.293 1.843 1.19 3.053 1.996 3.281 2.186 3.467 2.04 3.063-2.398-.193-2.126-.59-7.943-.88-12.927s-.746-11.58-1.014-14.659a886 886 0 0 1-.853-10.661c-.473-6.537-.526-6.603-3.477-4.307M234.15 46.982c-10.94 1.38-13.233 1.813-18.124 3.41-2.931.959-6.41 2.025-7.729 2.37-1.32.345-3.343 1.082-4.497 1.639-1.155.557-2.325 1.011-2.6 1.011-.77 0-13.215 6.27-15.1 7.607-1.98 1.407-4.393 2.91-7.082 4.411-1.073.599-2.42 1.506-2.995 2.014-.573.509-2.241 1.89-3.707 3.072-5.636 4.539-13.909 12.686-17.676 17.412-2.163 2.712-4.169 4.93-4.455 4.93-.288 0-.524.258-.524.571 0 .314-1.08 2.084-2.399 3.933s-2.398 3.48-2.398 3.626-1.285 2.405-2.855 5.022c-1.571 2.616-3.165 5.693-3.542 6.837-.377 1.143-1.337 3.182-2.132 4.532s-1.737 3.401-2.091 4.558a73 73 0 0 1-1.473 4.238l-1.242 3.198c-.228.586-.703 2.505-1.058 4.264-.354 1.76-.84 3.678-1.082 4.265-.24.586-.558 1.666-.706 2.399a97 97 0 0 1-.808 3.464c-.448 1.78-1.455 11.774-2.417 23.988-.445 5.652 1.792 27.795 3.205 31.717.475 1.319 1.282 4.079 1.792 6.133.51 2.053 1.41 4.693 1.999 5.863s1.355 3.01 1.703 4.085c.788 2.437 5.818 11.543 9.051 16.383a117 117 0 0 1 1.922 3.016c2.447 3.98 5.69 8.242 6.669 8.766.577.31 1.387 1.214 1.801 2.012.71 1.373 6.628 7.576 12.369 12.97 1.439 1.35 3.026 2.91 3.528 3.464.501.555 2.859 2.567 5.239 4.473s5.708 4.724 7.397 6.263c1.69 1.54 3.343 2.799 3.672 2.799s.855.477 1.167 1.06 1.254 1.416 2.094 1.85 2.296 1.494 3.234 2.354a115 115 0 0 0 3.388 2.958c.925.766 2.67 2.23 3.878 3.249 2.692 2.274 1.981 2.363 6.659-.845 2.165-1.486 4.745-3.205 5.734-3.822 1.826-1.14 2.22-4.981.717-6.994-.547-.733-1.447-3.812-2.281-7.806-.337-1.613-.826-3.35-1.089-3.858-.962-1.87-.622-2.756.724-1.887.66.426 2.398 1.217 3.864 1.756 1.466.54 3.303 1.418 4.08 1.953.78.533 1.75.97 2.16.97.409 0 .991.248 1.294.55 1.02 1.02 2.274-.096 4.417-3.931 3.2-5.725 2.824-5.396 4.991-4.367 1.109.525 2.152 1.543 2.539 2.474 1.122 2.708 4.24 2.807 4.24.134 0-.288.72-1.214 1.6-2.057.879-.842 1.599-1.764 1.599-2.046 0-.284.9-1.384 1.999-2.443 2.727-2.63 6.02-7.363 5.689-8.173-.151-.365-2.227-1.983-4.615-3.596-4.086-2.758-5.99-4.247-11.477-8.97-3.536-3.043-12.474-11.435-13.41-12.59-.463-.57-1.92-2.155-3.24-3.521a117 117 0 0 1-4.163-4.56 157 157 0 0 0-2.735-3.142 13.3 13.3 0 0 1-1.634-2.354c-.365-.71-1.712-2.578-2.995-4.152-1.282-1.575-2.332-3.185-2.332-3.578s-.375-1.023-.832-1.403c-.844-.7-2.9-4.568-2.9-5.454 0-.267-.434-1.121-.966-1.9s-1.277-2.494-1.655-3.814-.926-2.998-1.217-3.73c-2.272-5.735-2.293-5.9-2.25-17.325.04-10.52.123-11.436 1.395-15.192.743-2.2 1.496-4.767 1.672-5.708s1.167-3.497 2.204-5.68 1.883-4.19 1.883-4.46.6-1.054 1.333-1.743 1.338-1.51 1.344-1.826c.016-.755 6.299-7.934 8.292-9.475a57 57 0 0 0 3.157-2.679c.88-.81 1.867-1.475 2.194-1.476s1.172-.457 1.877-1.013c2.482-1.95 10.87-6.013 14.042-6.8 1.766-.439 4.529-1.298 6.141-1.911 4.42-1.68 21.661-1.693 26.387-.019a87 87 0 0 0 6.563 1.97c1.85.46 4.413 1.556 5.693 2.437s2.558 1.602 2.838 1.602 1.731.84 3.223 1.866c1.49 1.026 2.851 1.865 3.02 1.865 1.464 0 13.578 11.77 13.578 13.192 0 .277.48.938 1.07 1.471.589.532 1.462 1.709 1.94 2.615 2.736 5.172 3.887 7.581 3.902 8.164.01.36.596 1.919 1.303 3.465 4.397 9.608 3.904 30.382-.956 40.368-3.038 6.238-3.55 6.18-4.569-.51-.246-1.613-.843-5.051-1.328-7.642-.861-4.607-.857-4.75.212-6.56.6-1.019 1.09-2.085 1.09-2.369s.86-2.33 1.912-4.544c2.022-4.259 2.039-5.048.09-3.998-5.878 3.165-5.251 3.392-7.36-2.67-.857-2.458-1.71-5.607-1.899-7-.465-3.434-1.565-3.286-1.992.267-.185 1.54-.338 12.343-.341 24.009-.004 22.805-.079 23.45-3.018 26.39-.418.417-1.373 1.971-2.123 3.452-1.246 2.458-2.716 4.035-8.067 8.65-2.942 2.539-3.98 3.6-6.253 6.393-1.172 1.44-2.572 2.99-3.109 3.443-.99.837-3.457 4.395-5.755 8.305-2.839 4.83-3.502 5.836-5.917 8.97-1.388 1.8-2.527 3.536-2.532 3.857-.006.32-.515 1.04-1.132 1.598s-1.47 1.692-1.9 2.522-1.545 2.53-2.477 3.778a250 250 0 0 0-3.297 4.534 116 116 0 0 1-3.465 4.594 281 281 0 0 0-3.903 5.02c-2.67 3.523-3.183 3.488-6.353-.428-1.363-1.685-2.816-1.453-3.653.586-.392.953-1.242 2.52-1.892 3.482s-1.273 2.031-1.388 2.374c-.134.404-1.131.072-2.837-.948-3.266-1.952-5.56-2.976-5.566-2.484-.003.207.517 2.83 1.154 5.833 1.329 6.258 1.262 6.457-2.895 8.618-5.22 2.715-5.16 3.6.324 4.863 1.515.35 4.074 1.2 5.687 1.887 1.612.688 4.315 1.64 6.004 2.114 3.127.875 5.723 3.422 5.723 5.611 0 .47.618 2.033 1.372 3.475s1.9 4.038 2.54 5.767c1.729 4.658 2.253 4.753 5.815 1.05l3.01-3.129 2.56 1.324c1.409.729 3.342 1.881 4.298 2.562 2.255 1.609 2.585.876 1.898-4.205-.607-4.483-.585-4.507 4.493-5.006 4.415-.434 4.349-.36 2.399-2.657-3.617-4.26-3.48-3.898-1.855-4.882.8-.485 2.055-1.282 2.788-1.772.733-.489 2.892-1.64 4.797-2.556 1.906-.917 4.065-2.03 4.798-2.472 2.375-1.433 10.35-5.056 11.994-5.45.88-.21 2.318-.779 3.198-1.264s2.798-1.189 4.264-1.564c1.466-.377 4.465-1.234 6.664-1.906s5.747-1.526 7.886-1.9c2.139-.375 4.013-.881 4.163-1.125s.59-.443.977-.443c.852 0 6.136-3.063 9.147-5.305 1.202-.893 2.404-1.624 2.672-1.624s2.165-1.595 4.213-3.546c6.964-6.629 12.645-11.38 13.611-11.38.53 0 2.78-.84 5.002-1.866s4.279-1.865 4.57-1.865c.293 0 .531-.224.531-.497 0-1.742 3.329-2.8 11.073-3.521 7.296-.68 11.022-1.22 16.38-2.378 1.172-.253 5.01-.729 8.528-1.056 6.558-.61 9.513-1.11 15.941-2.69l3.681-.906-6.612-.368c-6.637-.369-15.484-1.276-15.83-1.623-.247-.246 1.742-3.84 3.375-6.097 1.75-2.417 1.652-2.943-.332-1.8-.902.52-2.359 1.343-3.234 1.83-.876.486-2.029 1.276-2.56 1.757-2.798 2.534-7.979 4.555-11.672 4.555-9.167 0-15.007-.643-15.007-1.655 0-1.274 1.1-3.692 2.262-4.974.516-.57.937-1.352.937-1.74 0-.389.213-1.123.473-1.632 2.224-4.35 3.177-6.489 3.498-7.856.401-1.707 1.41-4.172 2.947-7.196.52-1.026 1.235-3.185 1.587-4.798.623-2.862 1.885-7.19 2.717-9.328.228-.587.692-3.345 1.031-6.13.34-2.786.89-6.264 1.224-7.73.814-3.578.811-22.9-.003-28.252a494 494 0 0 1-1.27-9.061c-.342-2.64-1.183-6.597-1.868-8.796-.687-2.199-1.518-5.28-1.849-6.847s-1.268-4.115-2.082-5.665c-.815-1.549-1.76-3.657-2.1-4.687s-1.447-3.518-2.46-5.53c-1.012-2.011-1.842-3.92-1.844-4.24-.001-.322-.48-1.019-1.067-1.55-.587-.53-1.066-1.233-1.066-1.561 0-.33-1.08-2.332-2.4-4.453-1.318-2.12-2.398-3.948-2.398-4.064s-.78-1.028-1.732-2.027c-.953-1-2.917-3.362-4.366-5.25-2.927-3.815-14.98-15.87-17.89-17.893l-3.73-2.597c-5.94-4.142-10.68-7.198-11.166-7.198-.218 0-1.905-.974-3.748-2.165s-4.634-2.647-6.202-3.233c-1.569-.586-2.982-1.275-3.139-1.531-.157-.255-1.654-.861-3.325-1.348-1.67-.486-3.914-1.328-4.982-1.873-1.07-.547-3.116-1.266-4.547-1.6-1.433-.334-5.243-1.403-8.468-2.376-5.525-1.664-7.87-2.072-19.783-3.44-5.641-.647-18.528-.608-23.928.074m-99.786 15.761c.282 3.67 1.596 12.438 3.014 20.122.27 1.466.733 5.039 1.029 7.94.296 2.9.746 5.486 1.002 5.742.43.43 4.005-3.617 6.858-7.765.626-.91 3.145-3.692 5.597-6.184s4.82-5.032 5.26-5.643c.44-.612 2.119-2.223 3.731-3.58 1.613-1.357 3.652-3.08 4.531-3.829.88-.747 2.379-1.977 3.332-2.73 2.765-2.187 2.521-2.364-4.664-3.384-1.906-.27-4.425-.717-5.598-.993-8.24-1.939-19.364-3.796-22.866-3.819l-1.546-.01Zm233.05-2.817c-4.463 1.549-11.454 3.49-14.392 3.998-2.052.353-5.65 1.194-7.996 1.867-2.345.674-6.166 1.562-8.492 1.974-5.28.934-5.385 1.294-1.308 4.503 1.816 1.43 3.86 3.2 4.54 3.934.681.733 1.502 1.572 1.823 1.865 4.22 3.844 10.633 10.596 10.633 11.196 0 .425.6 1.166 1.333 1.647.733.48 1.335 1.145 1.338 1.478.002.333.81 1.618 1.795 2.856.985 1.24 2.095 2.989 2.468 3.89.865 2.088 2.333 1.927 2.555-.281.185-1.836 1.407-7.651 2.182-10.391.291-1.026.8-2.825 1.13-3.998s1.159-4.77 1.842-7.996c.683-3.225 1.614-6.943 2.069-8.262 1.913-5.556 1.238-9.237-1.52-8.28m-239.342 44.035c-2.052.534-6.762 1.34-10.466 1.793-10.516 1.284-13.922 2.363-11.734 3.714.25.155.886 1.429 1.414 2.83.529 1.403 1.603 3.51 2.387 4.682s1.847 3.212 2.361 4.531c.514 1.32 1.257 2.759 1.648 3.199.392.44 1.232 2.119 1.866 3.73s1.431 3.266 1.774 3.675c.342.41 1.117 1.97 1.722 3.466 1.384 3.432 2.513 3.553 2.975.323.692-4.832 1.176-6.725 2.451-9.595.717-1.613 1.653-4.078 2.08-5.48.845-2.784 3.613-9.054 6.083-13.785 2.454-4.701 2.232-4.85-4.56-3.083m236.83 5.157c.566.806 1.456 2.785 1.978 4.398.523 1.612 1.352 3.531 1.842 4.264s1.207 2.412 1.594 3.731c.386 1.32 1.186 3.479 1.779 4.798.593 1.32 1.28 3.478 1.53 4.797.762 4.033 2.163 7.996 2.825 7.996.622 0 6.154-7.507 6.157-8.355 0-.242.72-1.28 1.598-2.306s1.597-2.124 1.597-2.439c.002-.315.601-1.136 1.334-1.825s1.333-1.477 1.333-1.751c0-.275.928-1.613 2.06-2.972 1.133-1.36 2.572-3.482 3.197-4.715l1.137-2.242-1.998-.318a82 82 0 0 1-4.13-.796c-5.133-1.152-7.82-1.59-13.326-2.167-3.225-.338-6.56-.828-7.41-1.09-.85-.26-2.125-.474-2.834-.474h-1.289Zm-93.73 132.198c-.035 6.39-1.005 9.42-3.084 9.628-4.966.496-4.71-8.25.366-12.558 2.386-2.024 2.745-1.637 2.719 2.93m27.45 27.937c2.385 1.086 1.135 2.468-3.701 4.094l-3.196 1.074-2.002-1.126c-2.365-1.329-2.755-3.326-.803-4.111 1.74-.699 8.117-.653 9.703.07M236.11 286.33c.654 2.186.166 3.38-1.07 2.617-.693-.428-1.653-3.636-1.677-5.603-.021-1.695 2.003.507 2.747 2.986m54.529.069c-.579.389-2.388 1.118-4.022 1.619s-3.86 1.517-4.944 2.253-2.944 1.684-4.129 2.102-2.797 1.213-3.583 1.764c-.788.553-2.391 1.328-3.564 1.72-4.608 1.548-4.644 2.95-.194 7.814 3.193 3.493 3.086 3.582-5.136 4.273l-4.798.403.192 7.095.192 7.095-2.038-.851c-1.12-.47-2.406-1.144-2.857-1.498-.45-.355-1.938-1.207-3.302-1.894s-2.999-1.727-3.626-2.312c-1.332-1.24-2.506-.965-3.181.748-.263.666-1.46 2.282-2.658 3.59s-2.178 2.677-2.178 3.044c0 .665 2.618 3.374 3.26 3.374.188 0 .632.702.988 1.56s1.097 1.969 1.646 2.466c4.77 4.316 8.132 23.806 5.09 29.506-2.535 4.75-7.783 10.082-12.148 12.344-1.08.56-2.09 1.222-2.243 1.471s-3.349 1.97-7.099 3.82c-3.75 1.852-7.418 3.782-8.151 4.29-.733.507-2.532 1.324-3.998 1.817s-3.197 1.24-3.846 1.662c-.65.42-2.328 1.154-3.732 1.628-1.403.475-3.15 1.27-3.883 1.767s-2.412 1.233-3.731 1.635c-1.32.403-3.012 1.15-3.762 1.662s-2.43 1.348-3.732 1.858-3.327 1.558-4.5 2.328-3.145 1.842-4.382 2.382c-1.238.54-2.654 1.427-3.148 1.972-.493.545-1.184.993-1.536.993-.35 0-2.282 1.08-4.29 2.398-2.008 1.32-3.783 2.4-3.943 2.4-.161.002-.772.72-1.358 1.598s-1.318 1.597-1.626 1.598c-1.874.005-11.968 12.32-13.548 16.526-.385 1.026-1.25 3.065-1.924 4.531-3.663 7.977-3.406 26.973.463 34.193a33 33 0 0 1 1.515 3.388c.385 1.026 1.486 3.06 2.445 4.519.961 1.459 1.747 2.857 1.747 3.107 0 .755 8.485 10.553 11.727 13.543.733.675 1.933 1.8 2.666 2.497s1.873 1.431 2.534 1.631 1.86.917 2.666 1.594 2.59 1.76 3.968 2.408c1.377.646 2.786 1.515 3.13 1.93.345.415 1.092.754 1.663.754.57 0 3.238 1.055 5.931 2.344 2.692 1.29 5.734 2.505 6.76 2.701 1.027.195 3.545.919 5.598 1.607 2.052.69 5.89 1.533 8.529 1.874 2.638.343 5.876.828 7.196 1.08 1.32.251 4.078.771 6.13 1.155 4.857.91 34.955.988 37.314.095 1.72-.65 4.294-1.36 8.529-2.351 1.466-.343 3.931-1.197 5.478-1.9 1.547-.7 3.227-1.281 3.732-1.29.505-.007 1.997-.61 3.317-1.336 1.319-.727 4.1-2.15 6.179-3.16 2.079-1.012 4.087-2.21 4.463-2.662s.93-.822 1.233-.822c.726 0 7.562-4.662 9.577-6.53.87-.807 1.917-1.466 2.324-1.466.408 0 .744-.241.744-.536 0-.294 1.8-2.293 3.998-4.443s3.998-4.127 3.998-4.395.84-1.158 1.866-1.976 1.865-1.75 1.865-2.068.796-1.689 1.767-3.043c1.954-2.722 6.23-11.222 6.23-12.384 0-.407.522-2.06 1.16-3.672 5.688-14.375.125-34.859-10.663-39.268a112 112 0 0 1-4.624-2.069c-6.089-2.897-18.444-2.736-25.133.33-1.877.858-3.724 1.561-4.105 1.561s-1.257.6-1.946 1.333-1.593 1.333-2.01 1.333c-1.517 0-8.501 7.983-9.56 10.927-3.266 9.076-1.655 17.622 4.498 23.88 2.496 2.538 3.4 3.102 7.805 4.87 11.997 4.818 21.672.017 21.648-10.742-.026-11.668-9.827-15.517-10.707-4.204-.525 6.75-1.925 8.406-6.311 7.46-3.895-.841-4.147-1.077-7.652-7.138-6.96-12.038 15.916-30.064 28.701-22.617 5.197 3.026 5.861 3.594 8.288 7.092 5.022 7.242 5.21 19.458.427 27.754-1.142 1.981-2.077 3.838-2.077 4.123s-.6 1.083-1.333 1.772-1.332 1.52-1.332 1.844c0 .653-6.112 6.854-9.065 9.2a64 64 0 0 0-3.292 2.816c-3.08 2.887-12.625 8.5-14.496 8.523-.256.003-1.935.632-3.731 1.398s-3.745 1.591-4.332 1.836-2.385.697-3.997 1.005a487 487 0 0 0-8.263 1.705c-10.26 2.203-24.197 1.943-33.05-.615-.879-.254-3.038-.769-4.797-1.143-3.195-.68-11.872-5.165-14.214-7.347-.649-.604-1.387-1.098-1.642-1.098-.988 0-5.222-5.232-6.9-8.529-4.38-8.603-.457-24.842 7.112-29.446.855-.52 1.687-1.294 1.851-1.72.164-.427.715-.908 1.221-1.07.508-.16 1.449-.783 2.091-1.381 2.677-2.493 15.038-8.526 22.742-11.098 8.444-2.821 13.02-4.485 15.458-5.621 1.466-.683 4.526-1.895 6.8-2.694s4.266-1.667 4.429-1.93.665-.478 1.117-.478 2.84-.96 5.309-2.132c2.468-1.173 4.576-2.132 4.684-2.132.51 0 7.263-4.182 9.137-5.657 1.158-.913 2.826-2.03 3.706-2.482.88-.451 2.18-1.444 2.892-2.205.71-.761 1.474-1.383 1.695-1.383.368 0 2.538-2.2 7.307-7.402a325 325 0 0 1 3.543-3.793c.977-1.026 2.264-2.84 2.859-4.033.595-1.192 1.46-2.482 1.921-2.864.461-.383.838-.921.838-1.197s.743-2.04 1.65-3.922c.906-1.88 2.122-5.164 2.699-7.295a735 735 0 0 1 1.58-5.742c2.91-10.275 2.795-21.09-.343-32.25a224 224 0 0 1-1.825-6.892c-.344-1.445-1.046-3.244-1.56-3.998-.515-.755-1.262-2.4-1.66-3.657-.4-1.258-1.284-3.044-1.965-3.969-.682-.925-1.24-1.972-1.24-2.33 0-.355-.932-1.825-2.07-3.264-1.138-1.44-2.432-3.321-2.878-4.18-.445-.86-1.312-2.02-1.928-2.578s-1.126-1.277-1.133-1.598c-.006-.32-.786-1.459-1.732-2.528s-2.68-3.225-3.853-4.79c-4.584-6.117-7.73-8.482-9.61-7.218m-85.54 6.7c0 .408 8.07 7.558 13.771 12.202a101 101 0 0 1 2.967 2.513c1.12 1.002 5.202 4.353 7.472 6.13.562.44 2.026 1.697 3.25 2.792 1.225 1.096 2.358 1.862 2.516 1.702.368-.368-2.872-8.2-4.214-10.188-.558-.826-1.33-2.461-1.719-3.634-1.132-3.429-2.023-4.446-4.452-5.087-1.247-.329-3.586-1.15-5.199-1.825-1.612-.676-4.01-1.53-5.33-1.9s-3.585-1.236-5.036-1.926c-2.783-1.326-4.026-1.566-4.026-.779m38.21 1.762c.972.353 1.769.833 1.769 1.066 0 .848-3.11.401-4.34-.622-1.548-1.29-.347-1.498 2.57-.444"/></svg>
