<svg xmlns="http://www.w3.org/2000/svg" id="a" viewBox="0 0 400 221"><path d="M300.637 4.749c-.806.25-5.642 1.562-10.747 2.915s-9.99 2.683-10.855 2.955l-1.574.495-.136 14.378c-.076 7.91-.008 14.379.15 14.379.414 0 24.514-5.815 25.239-6.088.47-.179.61-3.615.61-14.903 0-11.434-.134-14.662-.61-14.63-.336.023-1.27.248-2.077.499m10.992 89.56c0 71.804.125 90.164.61 90.167.337.002 8.51.991 18.165 2.198 20.208 2.528 20.48 2.545 16.875 1.063-13.718-5.644-20.993-20.998-20.99-44.3 0-17.62 4.265-28.827 12.722-33.43 3.135-1.705 2.925-2.023 4.826 7.285l1.595 7.806-1.127.743c-10.873 7.17-10.899 31.863-.043 41.539 7.868 7.013 21.804 7.239 27.618.447 5.113-5.975 6.524-17.987 3.598-30.649-1.8-7.782-2.836-9.51-5.966-9.948a94 94 0 0 1-3.779-.605l-1.343-.261v10.002c0 7.696-.14 9.994-.611 9.966-.336-.02-2.37-.297-4.519-.614l-3.908-.58-.128-17.55c-.071-9.655.05-17.733.272-17.954.22-.22 4.895.37 10.387 1.312 5.492.94 10.15 1.712 10.348 1.713 2.743.013 8.619 20.008 9.708 33.04 2.156 25.797-5.65 41.359-22.282 44.429-1.89.35 27.615 4.486 32.609 4.573l1.832.031V109.73c0-46.751-.103-85.002-.229-85.002-.18 0-42.278-9.994-46.425-11.021-.792-.197-.745-.083.244.594 10.202 6.99 13.234 15.331 13.643 37.537l.28 15.143 6.35 1.357c3.494.746 7.945 1.704 9.893 2.128l3.542.769v8.256c0 7.538-.075 8.256-.855 8.254-.47-.003-13.166-2.42-28.212-5.374-15.047-2.953-27.753-5.37-28.237-5.37-.837-.001-.873-1.185-.726-24.794l.154-24.792 1.326-3.932c2.322-6.878 5.48-10.432 10.377-11.676 2.106-.534 1.926-.593-11.873-3.861-7.705-1.825-14.396-3.427-14.866-3.56-.812-.23-.855 4.285-.855 89.923m-95.506-66.565c-1.343.256-8.598 2.124-16.121 4.154-19.613 5.29-25.042 6.751-32.609 8.769l-6.717 1.79v157.162l1.343-.04c.74-.022 5.41-.519 10.381-1.102l9.038-1.064.244-30.522.245-30.521 11.968-2.056c6.583-1.132 12.215-2.069 12.515-2.085.3-.014.988 1.018 1.53 2.294.54 1.276 4.001 9.465 7.69 18.197 3.69 8.733 8.01 18.955 9.603 22.717 1.592 3.761 3.794 8.982 4.892 11.602 1.355 3.233 2.251 4.767 2.791 4.774 1.094.015 25.666-2.61 25.886-2.764.097-.07-6.663-15.072-15.022-33.34-17.04-37.236-15.725-33.846-13.612-35.098 12.38-7.331 21.593-25.749 22.795-45.566 2.072-34.199-11.834-52.054-36.84-47.3m126.586 1.904c-4.633 1.323-5.432 4.154-5.432 19.236v12.187l8.793 1.842c4.836 1.013 9.085 1.848 9.44 1.857 1.154.028.558-23.967-.671-27.028-2.263-5.639-7.797-9.332-12.13-8.094m-52.086 15.81a4031 4031 0 0 0-11.847 2.887l-1.343.338v138.233h1.02c1.543 0 23.56-2.437 24.26-2.684.485-.171.611-14.778.611-70.823V42.802l-1.099.052c-.604.03-5.826 1.201-11.602 2.604m-70.742 10.62c14.508 4.346 12.056 38.678-3.318 46.469-2.92 1.479-30.736 7.661-34.514 7.67-.202.001-.367-10.657-.367-23.683V62.85l1.1-.274c28.616-7.145 32.608-7.843 37.099-6.498m-112.371.829c-.533.338-.376 2.896.87 14.282 5.514 50.368 13.253 90.137 23.756 122.078 3.354 10.198 2.575 9.29 7.51 8.738 5.119-.573 4.852.124 2.444-6.375-13.586-36.654-25.82-87.718-30.761-128.402-1.42-11.696-1.464-11.814-3.82-10.321m-3.868 1.054c-1.334.536-1.32-3.148-.122 32.716 1.732 51.882 4.376 96.469 6.66 112.295l.307 2.133 3.477-.342c1.914-.188 3.534-.398 3.602-.465.068-.069-.31-2.962-.84-6.432-4.187-27.384-10.749-110.551-10.761-136.378-.003-4.248-.114-4.415-2.323-3.527m-4.569 1.285c-.663.178-.833 1.521-1.116 8.859-1.838 47.52-7.078 113.727-10.883 137.524l-.314 1.96 3.32-.31c1.826-.17 3.382-.373 3.458-.448.333-.334 2.228-20.91 3.117-33.86 1.849-26.921 2.946-50.622 3.912-84.492.276-9.673.6-20.28.72-23.571.235-6.406.265-6.326-2.214-5.662m-3.847 1.089c-1.16.322-1.235.587-1.814 6.424-4.004 40.41-15.816 97.807-28.324 137.648-2.033 6.471-2.23 5.938 2.004 5.416 4.215-.52 3.744.099 6.07-8.007 9.703-33.825 20.174-94.937 23.272-135.81.162-2.149.398-4.402.525-5.007.242-1.165.166-1.193-1.733-.664M37.08 76.001c-1.21.217-8.574 2.095-16.366 4.174S5.558 84.22 4.35 84.54l-2.199.584-.123 65.813-.125 65.814 2.323-.275c4.221-.5 11.106-1.216 11.726-1.221.48-.003.61-5.055.61-23.619v-23.614l10.528-1.754c13.162-2.193 15.295-3.074 20.68-8.544 9.316-9.465 13.878-23.937 13.9-44.085C61.696 87.25 52.54 73.233 37.08 76m3.287 24.351c9.335 6.648 6.2 36.355-4.426 41.937-1.098.577-17.4 4.08-18.986 4.08-.216 0-.392-9.765-.392-21.698v-21.699l7.938-1.968c9.357-2.319 13.297-2.481 15.866-.652"/></svg>
