<svg xmlns="http://www.w3.org/2000/svg" id="pascal" viewBox="0 0 356 344"><path fill="currentColor" d="M155.502 342.587c-16.9-3.332-30.41-14.035-37.89-30.02-3.503-7.484-3.987-9.827-3.48-16.824.542-7.514.983-8.465 5.821-12.559 15.236-12.893 18.52-16.347 21.395-22.51 2.83-6.063 3.035-7.85 2.292-20-.73-11.95-.503-14.067 2.184-20.31 6.205-14.42 19.847-22.758 48.697-29.763 20.416-4.958 35.447-5.035 46.295-.236 8.678 3.839 17.941 12.859 22.52 21.928 6.181 12.246 21.247 21.006 36.235 21.07 19.145.08 29.893 14.465 28.721 38.442-.613 12.56-4.277 20.475-13.446 29.052-17.539 16.405-78.923 35.784-132.325 41.775-13.739 1.541-19.018 1.532-27.02-.045zm-105.648-86.5c-19.335-5.903-36.35-27.133-39.97-49.867-.798-5.013-2.3-10.413-3.34-12-4.23-6.466-8.436-33.585-5.642-36.379 1.51-1.51 8.951 6.306 8.957 9.408.003 1.513 1.242 4.78 2.754 7.26l2.75 4.51 4.356-4.222c5.574-5.402 12.414-7.377 19.114-5.519 5.28 1.464 7.313 2.63 26.466 15.177 6.54 4.283 16.643 10.583 22.455 14s12.31 8.39 14.44 11.054c8.045 10.062 5.881 22.464-6.114 35.029-5.78 6.054-8.369 7.67-16.033 10.008-9.268 2.826-23.588 3.557-30.193 1.54zm247.333-65.256c-18.892-6.82-26.805-16.638-23.959-29.727.53-2.44 5.09-12.68 10.13-22.753s9.17-19.073 9.176-20c.032-4.19 6.795-15.656 11.228-19.038 3.79-2.89 6.397-3.739 11.81-3.844l6.95-.136.41-4.966c.227-2.732-.577-7.052-1.787-9.6-2.62-5.525-1.6-13.158 1.674-12.508 3.134.622 13.355 19.34 15.783 28.903 1.186 4.672 4.124 11.272 6.53 14.667 7.704 10.873 10.56 20.403 10.64 35.504.06 11.651-.368 14.259-3.383 20.667-5.718 12.152-15.169 19.594-29.868 23.52-9.045 2.417-17.356 2.19-25.334-.69zm-193.333-43.376c-14.554-3.607-24.11-11.107-29.875-23.447C67.46 110.051 68.82 85.426 76.852 72c2.418-4.04 2.757-6.544 2.53-18.667-.24-12.81 1.88-26.525 4.502-29.138 2.03-2.02 5.97 5.614 6 11.62.015 3.401 1.217 8.805 2.67 12.006 2.412 5.316 2.96 5.743 6.304 4.912 2.014-.5 7.425-1.24 12.024-1.645 8.202-.722 8.444-.648 12.732 3.9 4.764 5.05 7.573 12.552 7.573 20.22 0 6.3 3.573 13.212 11.234 21.732 18.893 21.015 14.353 39.674-11.98 49.232-9.555 3.469-16.427 3.8-26.587 1.283m83.46-23.769c-6.676-2.24-13.045-9.304-15.33-17-1.473-4.96-1.779-10.24-1.193-20.59.781-13.8.753-13.974-3.255-20.34-11.417-18.133-7.973-30.097 9.72-33.77l7.428-1.542-.91-4.222c-1.168-5.408-5.124-13.235-7.823-15.474C173.555 8.758 173.08 0 175.368 0c2.585 0 24.524 23.057 26.97 28.345 1.714 3.705 4.126 5.928 9.243 8.521 9.677 4.904 23.615 19.256 28.956 29.817 5.555 10.985 6.853 23.576 3.37 32.695-2.956 7.743-13.545 18.613-21.696 22.271-7.45 3.344-27.516 4.516-34.898 2.037"/></svg>
