<svg xmlns="http://www.w3.org/2000/svg" id="a" viewBox="0 0 400 400"><path d="M186.17 47.848c-1.332.194-5.534.81-9.336 1.371-8.172 1.204-21.746 4.69-29.89 7.678-13.237 4.854-23.26 10.373-41.704 22.96-3.619 2.47-25.613 24.404-25.613 25.544 0 .423-.624 1.393-1.386 2.155-7.163 7.163-19.81 32.232-25.266 50.087-5.48 17.926-7.658 49.902-4.48 65.755l1.24 6.186-13.45 13.67c-91.229 92.714-.377 108.68 160.539 28.213 10.921-5.46 21.6-10.912 23.73-12.114 7.91-4.46 28.144-16.01 29.7-16.952.887-.537 4.157-2.475 7.265-4.306 3.11-1.831 6.743-4.082 8.074-5.002s9.395-6.26 17.918-11.867c8.525-5.608 18.767-12.62 22.762-15.582s8.354-6.145 9.686-7.07c3.646-2.535 15.814-12.281 26.151-20.947 10.275-8.612 32.85-30.969 37.297-36.933 1.588-2.131 3.154-4.093 3.48-4.359s2.509-3.318 4.853-6.78c30.568-45.167 2.775-63.049-69.996-45.034-11.168 2.763-13.976 3.166-15.244 2.185-.855-.663-3.952-3.216-6.881-5.674-27.442-23.028-76.697-37.962-109.449-33.184m161.751 155.851c-2.397 1.881-5.23 4.146-6.295 5.032-14.95 12.441-55.86 40.624-77.97 53.715-36.391 21.546-77.212 41.963-108.965 54.5a1239 1239 0 0 0-12.106 4.859c-2.93 1.2-7.523 2.871-10.208 3.714-2.683.84-6.803 2.346-9.155 3.346l-4.276 1.815 3.344 1.731c10.356 5.36 20.398 10.23 21.097 10.23.44 0 3.455 1.078 6.698 2.397 19.956 8.109 58.03 10.498 81.608 5.121 60.834-13.872 104.607-57.696 117.8-117.935 2.097-9.578 4.324-31.982 3.174-31.955-.212.006-2.348 1.55-4.746 3.43"/></svg>
