<svg xmlns="http://www.w3.org/2000/svg" id="a" viewBox="0 0 400 400"><path d="M170.414 14.162c-4.556 1.755-6.483 3.271-4.281 3.37 2.2.1 4.73 1.36 5.622 2.801 1.09 1.766-.033 2.096-3.447 1.012-4.808-1.526-21.55 6.342-23.535 11.06-.434 1.032-2.488 1.875-4.565 1.875-12.187 0-23.37 8.572-14.878 11.402 2.026.676 2.489-.006 1.304-1.924-1.381-2.234.296-2.722 6.771-1.966 8.29.97 11.755-1.185 5.648-3.51-2.847-1.085 3.161-1.464 22.858-1.446 10.27.01 8.508-7.114-1.846-7.456-4.897-.162-4.905-.218-.302-2.07 2.604-1.045 6.528-.972 8.72.167 5.114 2.655 7.295 2.636 5.634-.049-.72-1.165.229-2.708 2.107-3.43 2.118-.812 2.979-.169 2.263 1.693-.926 2.416 3.385 2.393 22.015-.117 27.869-3.755 33.934-5.268 19.616-4.892-7.206.19-10.453-.646-10.04-2.584.452-2.125-4.431-2.587-18.936-1.792-17.648.966-18.97.75-13.627-2.228 7.44-4.147 3.774-4.104-7.101.084m35.306 6.768c-2.827 2.438-14.004 3.684-14.004 1.562 0-1.327 3.373-2.413 7.495-2.413s7.051.383 6.509.851m48.033 7.682c-2.535 2.742-2.234 3.302 1.775 3.302 2.654 0 4.827-1.003 4.827-2.227 0-3.92-3.454-4.482-6.602-1.075m-20.616.935c-11.011 1.971-10.588 2.583 2.168 3.143 5.627.247 9.657-.756 10.257-2.55.542-1.629.099-2.809-.986-2.625a2681 2681 0 0 0-11.44 2.032m26.036 4.532-9.468 1.493 10.059 1.75c5.868 1.02 10.06 3.05 10.06 4.871 0 1.717 2.929 4.583 6.509 6.368 10.615 5.296 11.56 5.328 5.325.178-3.255-2.687-4.853-4.952-3.55-5.033 1.303-.08-.594-1.753-4.213-3.716-3.618-1.962-5.951-4.582-5.185-5.822s1.064-2.104.661-1.918c-.401.184-4.991 1.007-10.198 1.83m-58.21 3.536c-.774.797-12.612 2.51-26.308 3.808-38.747 3.67-61.052 12.751-84.38 34.348-14.468 13.395-18.397 12.223-10.148-3.03 2.413-4.46 2.29-5.325-.753-5.325-1.998 0-3.65 1.864-3.67 4.141-.024 2.805-.618 3.227-1.837 1.31-2.612-4.11-8.234.131-8.959 6.757-.334 3.048-.696 6.17-.804 6.938-.109.766-4.445 3.43-9.638 5.916s-9.453 5.854-9.468 7.482c-.015 1.627-1.163 2.958-2.553 2.958-1.449 0-1.886 2.02-1.024 4.734 1.364 4.3.425 4.734-10.204 4.734-10.718 0-11.95.587-14.584 6.947-1.716 4.14-5.656 7.916-9.755 9.344L0 131.075v136.487l7.25 2.737a17.18 17.18 0 0 1 9.987 9.985c2.615 6.93 3.337 7.25 16.335 7.25 11.023 0 14.063.868 16.05 4.58 3.312 6.19 3.221 6.455-2.876 8.413-4.51 1.45-4.691 1.88-1.184 2.817 2.278.608 4.142 2.001 4.142 3.096s5.326 5.267 11.835 9.272 11.834 8.356 11.834 9.67 1.598 2.39 3.55 2.39c1.953 0 3.338.798 3.078 1.775s2.935 7.042 7.1 13.48 7.573 10.396 7.573 8.793-1.72-5.539-3.821-8.747c-2.348-3.583-2.805-5.835-1.184-5.835 5.498 0 2.261-4.765-8.06-11.867-5.885-4.049-10.183-8.2-9.55-9.224.634-1.024-2.273-6.54-6.459-12.257-5.229-7.138-1.313-4.04 12.506 9.893 11.066 11.157 22.782 22.095 26.036 24.305 4.43 3.012 4.622 3.411.763 1.594-5.206-2.45-12.597-1.12-12.597 2.268 0 2.782 12.535 4.597 16.486 2.387 2.125-1.188 6.709-.295 11.835 2.308 40 20.314 120.665 24.6 131.55 6.988.74-1.199-1.55-1.077-5.092.27-9.877 3.754-12.608-1.2-3.311-6.008 4.87-2.518 6.97-2.874 5.8-.982-1.298 2.101-.649 2.511 2.23 1.406 2.412-.926 3.475-.61 2.615.781-9.914 16.042 56.797-30.189 71.592-49.613l8.898-11.683 22.559-.134 22.557-.136 2.736-7.25a17.18 17.18 0 0 1 9.987-9.985l7.25-2.737V131.075l-6.877-2.397c-4.1-1.428-8.04-5.203-9.755-9.344-2.633-6.358-3.868-6.947-14.564-6.947-7.099 0-11.119-.919-10.24-2.34.812-1.315-.084-1.753-2.047-1-2.08.8-4.569-.674-6.159-3.644-1.467-2.74-3.483-4.478-4.481-3.862s-3.667-2.017-5.931-5.85c-3.91-6.618-2.663-9.398 2.184-4.874 1.237 1.153 3.998 1.42 6.136.591 3.284-1.272 2.825-2.474-2.959-7.742-3.765-3.43-6.869-5.56-6.898-4.734-.03.826-2.259-1.16-4.954-4.415-3.09-3.729-4.42-4.414-3.601-1.85.715 2.235.255 4.711-1.022 5.5-1.277.79-2.143.558-1.925-.515.65-3.19-5.45-17.69-6.85-16.288-.711.71-2.478-1.09-3.929-4-3.105-6.23-10.563-8.332-13.441-3.79-1.582 2.495-2.03 2.318-2.06-.81-.02-2.202-1.214-4.732-2.656-5.622-5.666-3.503 1.044 9.91 9.233 18.456 8.569 8.941 14.344 10.59 6.419 1.833-2.364-2.61-3.47-4.748-2.458-4.748s.378-1.864-1.407-4.142c-2.955-3.767-2.868-3.843.95-.847 2.31 1.813 3.638 3.857 2.953 4.542s.526 3.204 2.692 5.597c2.165 2.393 5.13 6.74 6.588 9.66 1.958 3.92 4.633 5.26 10.223 5.122 6.074-.15 7.05.44 4.937 2.987-1.99 2.397-3.428 2.516-5.87.488-1.945-1.614-3.237-1.74-3.237-.318 0 1.302 1.668 3.75 3.706 5.442 4.094 3.398 10.495 14.796 10.495 18.69 0 5.434-4.6 1.923-11.476-8.76-15.739-24.456-45.811-47.874-73.999-57.623-14.537-5.027-53.66-9.098-56.759-5.905M102.92 46.18c-.826 1.336-3.164 2.134-5.196 1.774s-3.986 1.196-4.342 3.457c-.528 3.36.18 3.67 3.873 1.691 3.096-1.656 4.52-1.646 4.52.032 0 1.348 1.728 2.45 3.84 2.45 3.094 0 3.285-.67.98-3.447-1.573-1.895-2.174-4.558-1.334-5.917s.995-2.47.344-2.47c-.65 0-1.86 1.093-2.685 2.43m185.837 4.67c1.393 2.604 3.6 4.735 4.9 4.735 1.523 0 1.463-1.69-.166-4.735-1.393-2.603-3.599-4.733-4.9-4.733-1.523 0-1.463 1.69.166 4.733m-177.514 0c0 1.302 1.535 2.368 3.41 2.368s4.07-1.066 4.874-2.368-.73-2.367-3.411-2.367-4.873 1.066-4.873 2.367M81.797 61.575c-2.528 1.91-3.53 3.474-2.228 3.474 1.3 0 4.434-1.563 6.961-3.474 2.527-1.91 3.53-3.475 2.227-3.475s-4.434 1.563-6.96 3.475m6.973 3.46c-2.362 2.612-3.196 4.75-1.852 4.75 2.977 0 8.88-6.767 7.29-8.357-.627-.627-3.074.996-5.438 3.607m134.34 8.782c-2.912.561-8.237.575-11.835.032-3.597-.544-1.215-1.004 5.293-1.022s9.452.427 6.541.99M69.481 99.963c-8.982 12.266-11.341 14.553-9.42 9.13 1.354-3.822 1.052-4.033-2.073-1.44-3.087 2.562-3.422 2.42-2.142-.914.834-2.174 3.52-5.024 5.971-6.335 2.45-1.312 4.455-4.264 4.455-6.562 0-6.458 5.231-10.747 7.708-6.32 1.358 2.424-.084 6.41-4.5 12.441m135.253-2.69c-7.198 2.217-8.077 2.96-3.668 3.097 3.762.12 4.99.992 3.493 2.487-1.425 1.426-4.992 1.504-9.348.205-3.874-1.157-5.65-2.194-3.946-2.306s2.434-1.277 1.623-2.59c-2.038-3.298 7.734-6.545 15.181-5.047 5.728 1.154 5.508 1.428-3.335 4.153m22.486-.947c0 1.302-1.684 1.721-3.744.93-2.06-.79-4.252-1.436-4.873-1.436s-.5-1.019.269-2.263c1.699-2.749 8.348-.542 8.348 2.77m58 6.187c-.635.635.168 2.85 1.784 4.922 2.608 3.346 2.466 3.4-1.261.472-2.31-1.812-3.632-3.864-2.938-4.558.695-.694-1.143-4.004-4.084-7.355l-5.347-6.092 6.5 5.73c3.574 3.15 5.98 6.247 5.346 6.881M173.345 95.64c2.5.26 1.076 10.496-1.747 12.571-5.314 3.904-12.62 1.985-11.324-2.974 1.137-4.347.653-4.558-5.283-2.3-3.594 1.365-7.035 1.983-7.646 1.373-1.709-1.709 16.683-10.088 20.702-9.43 1.953.318 4.337.66 5.298.76m87.34 11.937 5.587 4.654-5.242.08c-2.883.042-6.382-2.052-7.775-4.656-3.237-6.047.221-6.084 7.43-.078m-121.04 1.261c-1.62 1.953-4.68 3.517-6.798 3.476-3.237-.064-3.118-.63.741-3.55 5.98-4.523 9.833-4.476 6.057.074m242.54 21.364 10.714 10.713v116.274l-10.742 10.44-10.741 10.44H28.584l-10.741-10.44L7.1 257.188v-116.29l10.059-10.482 10.06-10.484 172.126-.223 172.127-.222Zm-62.658 21.523c0 10.357 1.028 17.417 2.614 17.946 2.777.926-1.887 20.824-4.88 20.824-.834 0-2.947-3.993-4.695-8.876-1.746-4.88-3.671-10.207-4.279-11.834-.613-1.648.704-2.959 2.975-2.959 3.58 0 3.871-1.657 2.391-13.609-2.035-16.445.559-14.6-18.387-13.07l-15.976 1.293v16.244c0 13.884.601 16.247 4.142 16.265 8.528.045 22.354 29.788 20.551 44.214-1.272 10.18-2.418 12.57-6.031 12.57-3.945 0-4.46 1.914-4.46 16.537v16.538l18.342-1.484c21.813-1.764 18.59 1.093 20.291-17.983 1.318-14.78 1.077-15.976-3.22-15.976-3.986 0-4.645-1.652-4.645-11.652 0-12.7 16.387-47.52 22.364-47.52 2.616 0 7.81-29.963 5.544-31.976-.379-.336-7.879-1.05-16.665-1.588l-15.976-.979ZM49.112 137.59c-7.813 2.228-4.806 31.602 3.235 31.602 4.146 0 4.458 2.238 4.458 31.953v31.953h-6.213c-5.696 0-6.09.615-4.734 7.396.814 4.07 1.48 10.46 1.48 14.201v6.805h19.009c21.117 0 20.334.656 21.885-18.343.877-10.75.441-12.426-3.233-12.426-4.825 0-5.638-1.038-7.757-9.913-1.452-6.08-1.02-6.435 9.732-8 24.713-3.596 27.554-7.998 27.717-42.956.144-30.723-1.77-32.477-36.052-33.037-13.962-.23-27.248.115-29.527.765m84.162.728c-13.652 5.836-20.266 89.587-8.823 111.717 6.205 11.998 38.694 12.705 50.316 1.093 6.765-6.758 10.92-76.29 5.751-96.237-3.792-14.636-30.147-23.88-47.244-16.573m56.075 14.306c0 13.15.733 16.568 3.55 16.568 2.974 0 3.55 4.998 3.55 30.77 0 29.191-.242 30.77-4.733 30.77-4.092 0-4.733 1.577-4.733 11.64 0 18.517.613 19.128 19.187 19.128h16.315v-17.75c0-14.202-.71-17.752-3.55-17.752-2.95 0-3.55-4.603-3.55-27.22 0-14.97.365-27.218.811-27.218s5.984 18.64 12.307 41.42L240 254.4h8.8c16.883 0 16.29 1.603 16.29-44.04 0-39.59.181-41.168 4.734-41.168 4.25 0 4.733-1.577 4.733-15.45v-15.45l-15.976 1.546c-8.787.85-16.833 2.322-17.879 3.27-3.17 2.872.903 26.084 4.575 26.084 2.558 0 3.205 5.377 3.058 25.445-.213 29.011.081 29.476-14.21-22.486l-9.928-36.094H189.35ZM91.376 175.27c2.319 9.241-1.871 21.012-7.785 21.868-4.743.686-9.454-19.524-6.1-26.17 2.359-4.676 12.413-1.56 13.885 4.302m66.12-2.088c4.731 4.73 4.076 43.67-.818 48.564-8.999 9-15.814-.63-16.527-23.355-.845-26.94 5.864-36.69 17.345-25.21m7.609 116.557c4.733 1.358 7.676 1.358 7.676 0 0-1.21 1.864-2.185 4.142-2.165 3.286.03 3.466.465.871 2.108-2.546 1.613-2.084 2.45 2.088 3.772 4.172 1.324 4.634 2.16 2.087 3.774-2.29 1.45-1.143 2.072 3.83 2.072 5.573 0 6.336-.52 3.55-2.419-2.725-1.856-1.902-2.26 3.55-1.739 4.158.398 6.856 1.906 6.51 3.64-.326 1.626 1.538 2.957 4.142 2.957s4.733-1.567 4.733-3.482c0-5.367 14.653-8.645 18.303-4.094 4.232 5.275-.836 10.682-8.267 8.817-3.451-.866-5.133-.515-4.264.89.89 1.44-1.732 1.808-6.902.97-4.829-.785-8.338-.369-8.338.986 0 1.323 6.175 2.18 14.201 1.974 9.906-.255 14.202.52 14.202 2.564 0 4.461 5.01 6.59 7.194 3.057 1.183-1.913.58-4.114-1.554-5.675-2.816-2.06-.962-3.788 9.638-8.987 7.218-3.54 13.124-7.57 13.124-8.954 0-1.575 5.824-2.329 15.544-2.014l15.545.503-5.691 5.692c-4.964 4.962-9.14 6.86-16.661 7.572-1.054.1-1.422.98-.82 1.956.603.976-1.457 1.93-4.577 2.116s-5.132-.539-4.469-1.612c.664-1.074.124-2.62-1.199-3.438-2.329-1.44-2.697 1.316-3.16 23.644-.18 8.76-2.417 12.892-7.02 12.981-1.023.02-.633-2.255.866-5.056 2.4-4.485 2.207-4.893-1.62-3.425-2.39.917-3.576.898-2.636-.04 4.53-4.532-5.556-9.938-12.282-6.583-11.282 5.628-37.643 6.08-39.36.675-1.57-4.947-7.279-6.047-8.734-1.683-1.389 4.166-6.566-.006-6.566-5.292 0-2.528-1.128-4.595-2.507-4.595s-1.837-1.083-1.02-2.405c.818-1.324 2.478-1.793 3.69-1.044 4.288 2.65 2.136-2.655-2.403-5.927-2.534-1.826-4.101-4.138-3.484-5.138.618-.998-.967-2.935-3.521-4.302-6.886-3.684-9.201-2.872-3.773 1.323 4.479 3.462 4.492 3.618.246 2.884-7.206-1.244-7.029 4.42.228 7.295l6.626 2.627-7.6-1.129c-7.874-1.17-12.973 2.608-7.819 5.795 4.364 2.696-2.442 4.665-7.378 2.134-5.215-2.675-8.17-10.25-3.264-8.368 1.967.756 3.577.307 3.577-.994s-1.592-2.978-3.537-3.724c-1.946-.746-2.993-2.236-2.328-3.312 1.574-2.548-2.096-4.722-10.15-6.016l-6.47-1.04 6.782 6.058c8.633 7.712 7.093 9.748-1.932 2.552-3.978-3.172-6.09-6.565-5.092-8.179 2.067-3.346 32.373-3.734 43.453-.557m75.07 2.852c-1.322 6.863-3.043 8.173-6.369 4.848-2.156-2.156-2.147-2.8.04-2.8 1.562 0 2.84-1.129 2.84-2.507 0-1.38-1.23-1.746-2.732-.818-1.694 1.047-2.09.65-1.044-1.044 2.984-4.827 8.314-3.123 7.265 2.321m50.949-1.503c-1.62 1.953-2.152 3.55-1.183 3.55s.577 1.43-.873 3.176c-1.45 1.748-1.847 4.05-.882 5.114.966 1.066.518 1.23-.993.364-4.257-2.435.557-15.755 5.694-15.755.65 0-.142 1.598-1.763 3.55m19.006 1.053c-2.655 4.961-7.172 8.603-7.172 5.783 0-1.826 7.2-10.386 8.734-10.386.496 0-.208 2.071-1.562 4.603m36.426 3.292c.18 2.817-.592 5.774-1.715 6.57-1.123.795-.29 2.117 1.852 2.94 2.804 1.075 3.704.34 3.216-2.63-.373-2.268.087-5.344 1.024-6.834.936-1.49.26-3.264-1.501-3.94q-3.203-1.227-2.876 3.894m-86.382-2.569c-2.64 8.626-1.15 11.05 2.548 4.142 1.718-3.21 1.744-4.733.084-4.733-1.348 0-2.532.266-2.632.591m19.116 7.692c-2.728 3.288-1.637 4.601 3.134 3.773 3.56-.619-.945 4.445-6.225 6.996-4.81 2.326-4.877 2.256-.91-.944 2.868-2.31 3.416-3.99 1.66-5.074-2.484-1.536.86-8.3 4.104-8.3.65 0-.143 1.597-1.763 3.55M86.865 304.8c1.041 1.686 7.828 7.843 15.083 13.683 12.501 10.065 15.502 16.39 7.774 16.39-1.92 0-2.84-1.058-2.042-2.348 1.408-2.278-6.05-11.168-13.086-15.6-5.792-3.647-15.127-15.189-12.283-15.189 1.463 0 3.513 1.378 4.554 3.064m91.907-.816c-2.07 3.35 8.161 8.216 11.099 5.278 1.308-1.309 1.664-3.538.789-4.953-1.96-3.17-9.995-3.39-11.888-.325m105.944 11.738c-2.874 2.4-4.489 5.292-3.59 6.43.9 1.138.113.742-1.749-.88-2.9-2.529-2.726-3.448 1.224-6.435 6.682-5.054 10.298-4.277 4.115.885m-3.038 13.206c-1.609 1.94-3.982 2.87-5.275 2.072-1.43-.883-1.091-2.252.859-3.488 5.105-3.235 7.61-2.432 4.416 1.416m-125.465 8.758c0 1.231-2.13 1.634-4.733.896l-9.468-2.686c-9.077-2.575-4.66-5.235 4.733-2.852 5.208 1.322 9.468 3.411 9.468 4.642m49.704-5.056c2.544 1.732.866 1.97-5.917.832-11.741-1.966-13.631-3.336-4.536-3.287 3.796.02 8.5 1.124 10.453 2.455m-55.03 11.677c1.628.017 2.96 1.567 2.96 3.443 0 4.416-5.353 7.751-6.573 4.094-.513-1.54-1.853-2.232-2.978-1.536s-3.286-1.05-4.8-3.882c-2.53-4.725-2.297-5.024 2.839-3.649 3.077.824 6.926 1.512 8.553 1.53m-45.562 3.668c-3.906 1.788-6.389 3.3-5.52 3.358s3.441.82 5.714 1.692c2.799 1.075 3.585.701 2.438-1.155-1.101-1.782-.43-2.257 1.918-1.356 3.18 1.22 3.14 1.853-.326 5.298-3.667 3.643-3.305 3.964 5.252 4.673 6.635.55 8.239 1.362 5.773 2.924-2.559 1.617-1.832 2.17 2.896 2.196 3.472.02 6.76 1.367 7.307 2.994.775 2.298 1.889 2.223 4.989-.337 2.195-1.812 4.676-2.61 5.513-1.774s.216 1.52-1.38 1.52-2.25 1.054-1.455 2.34c.885 1.433 3.726.848 7.322-1.508 4.47-2.93 7.128-3.266 11.119-1.407 4.892 2.277 4.95 2.56.863 4.22-2.672 1.085-5.083.643-6.18-1.133-1.285-2.08-2.124-1.67-2.936 1.43-.904 3.46.233 4.342 5.59 4.342 3.698 0 6.724-.72 6.724-1.602 0-.88 1.81-1.95 4.023-2.376 7.069-1.36-8.48-9.602-20.435-10.829-5.944-.61-12.088-2.72-13.652-4.69-1.74-2.19-5.16-3.14-8.804-2.444-3.278.626-5.391.22-4.697-.903s-.398-2.678-2.426-3.456-3.097-2.368-2.376-3.534c1.572-2.544 1.654-2.562-7.254 1.517m165.54 2.206c-2.527 1.911-7.498 3.51-11.048 3.55-4.26.05-7.804 2.135-10.424 6.134-2.708 4.133-4.522 5.165-5.708 3.246-1.3-2.105-3.745-1.803-9.694 1.193-4.377 2.204-13.282 4.561-19.79 5.238-6.51.678-13.433 1.845-15.386 2.592s-4.615 1.06-5.917.69c-13.587-3.836-17.545-4.03-18.737-.927-.701 1.83-3.696 4.387-6.654 5.686-4.916 2.16-4.782 2.276 1.572 1.37 9.28-1.322 14.795.68 10.408 3.776-2.125 1.501-.955 1.747 3.579.753 3.849-.844 8.16-.294 10.059 1.282 2.335 1.938 3.323 1.981 3.323.147 0-1.437-2.655-3.278-5.9-4.093-3.246-.814-5.268-2.505-4.494-3.757.773-1.25 3.162-1.554 5.309-.672 2.147.883 5.931 1.754 8.411 1.937 4.663.344 7.707 8.617 3.171 8.617-1.403 0-1.994.557-1.312 1.24 2.683 2.683 8.67-1.758 7.273-5.397-1.09-2.84-.43-3.376 2.688-2.18 4.275 1.64 11.926-1.46 17.6-7.135 1.848-1.848 5.27-2.618 7.91-1.78 2.848.904 6.426-.126 9.219-2.653 2.645-2.394 4.563-2.98 4.563-1.397 0 1.504-1.064 2.734-2.367 2.734s-2.366 1.128-2.366 2.506c0 1.38 1.065 1.85 2.366 1.045 1.303-.806 2.367-.298 2.367 1.126 0 1.856 1.34 1.873 4.734.056 2.604-1.393 4.734-1.777 4.734-.854 0 .924 2.476-.646 5.501-3.488s6.22-4.448 7.1-3.568 1.6.293 1.6-1.302c0-1.596.954-2.31 2.119-1.592 1.165.72 2.73-.28 3.476-2.227.824-2.148-.008-3.536-2.118-3.536-3.96 0-4.658-3.725-1.11-5.918 2.836-1.752 3.155-5.917.452-5.917-1.052 0-3.982 1.563-6.508 3.475m24.991 2.442c-1.62 1.953-4.414 3.55-6.208 3.55s-3.26 1.636-3.26 3.634c0 3.065.833 3.172 5.326.68 2.929-1.624 5.903-2.8 6.609-2.613s1.439-1.717 1.628-4.23c.415-5.502-.24-5.665-4.095-1.02"/></svg>
