<svg id="powershell" viewBox="0 0 233 175" xmlns="http://www.w3.org/2000/svg"><path d="M96.7 175.1H10.6c-8.7 0-11.4-3.3-9.4-11.8 11.6-50.7 23.3-101.5 35-152.2C37.8 4.1 42.5.5 49.8.5 107.7.4 165.6.3 223.5.3c7.7 0 10.6 3.5 8.9 11-10.4 46.1-20.9 92.3-31.4 138.4-1.1 5-2.2 10-3.5 15-1.7 7-6.4 10.6-13.6 10.6H96.8c-.1 0-.1-.1-.1-.2zm20.9-91.5c-1.8 1.4-3.2 2.5-4.6 3.5-22.2 16-44.4 32-66.5 48.1-5.4 4-6.5 10.1-3.1 15.2 3.7 5.4 9.8 6.5 15.6 2.5 5.7-4 11.3-8.1 17-12.1 20.9-15 41.8-29.9 62.6-45 7.7-5.6 8.3-12.4 1.9-19.3-17-18.2-34-36.3-51-54.4-5.2-5.6-11.8-6.1-16.6-1.6-4.8 4.6-4.5 10.9.9 16.6l17.1 18c8.8 9.5 17.7 18.8 26.7 28.5zm18.9 68.1h21.4c6.1-.1 9.7-3.5 9.8-9.3.1-5.9-3.7-9.8-9.9-9.9-14.2-.1-28.5-.1-42.7-.1-6 0-9.5 3.7-9.5 9.6 0 5.8 3.8 9.6 9.6 9.7 7 .1 14.2 0 21.3 0" fill="currentColor"/></svg>
