<svg id="prolog" viewBox="0 0 512 512" xmlns="http://www.w3.org/2000/svg"><path d="M166.5 175.6c0 4.3-3.5 7.7-7.7 7.7s-7.7-3.5-7.7-7.7c0-4.3 3.5-7.7 7.7-7.7s7.7 3.5 7.7 7.7zm3.6-36.7c-25.1 0-45.4 20.3-45.4 45.4s20.3 45.4 45.4 45.4 45.4-20.3 45.4-45.4-20.3-45.4-45.4-45.4zm1.1 74c-15.2 0-27.5-12.3-27.5-27.4 0-15.2 12.3-27.5 27.5-27.5s27.4 12.3 27.4 27.5c.1 15.1-12.2 27.4-27.4 27.4zm195.4-29.5c4.3 0 7.7-3.4 7.7-7.7 0-4.3-3.5-7.7-7.7-7.7-4.3 0-7.7 3.5-7.7 7.7s3.5 7.7 7.7 7.7zm14.1 48.1c25.1 0 45.4-20.3 45.4-45.4s-20.3-45.4-45.4-45.4c-25 0-45.4 20.3-45.4 45.4s20.3 45.4 45.4 45.4zm-1.6-73.1c15.2 0 27.4 12.3 27.4 27.5s-12.3 27.4-27.4 27.4c-15.2 0-27.5-12.3-27.5-27.4 0-15.2 12.3-27.5 27.5-27.5zM484 245.7c0-62.2-25-118.6-65.3-159.7-7.5-22.9-6.6-54.6 2.9-69 3.3-5 6.9-9.9 10.7-15.4-33.8-5.8-62.5 3.9-81.8 28-2.3 2.9-4.5 4.7-6.8 5.5-27-11.3-56.6-17.5-87.6-17.5-31.2 0-60.9 6.3-87.9 17.6-2.4-.8-4.7-2.6-7.1-5.6-19.2-24.1-48-33.8-81.8-28C82.9 7.1 86.5 12 89.8 17c9.7 14.6 10.4 47 2.6 70C52.5 128 28 184 28 245.7c0 29 5.5 56.8 15.4 82.4 2.5 7 4.7 14.1 7.1 21.1 2.1 6.5 4.1 12.9 6 19.3 5.5 18.9 8.9 38.5 9.4 58.2.2 5.4.1 10.8-.1 16.2-.1 1.9-.1 3.7-.2 5.6l46.2-42.3c8.4 7.7 19.8 14.7 33.5 20.6-13.9 9.7-23 25.8-23 44.1 0 15.6 6.7 29.6 17.2 39.4-1-3.4-1.6-7-1.6-10.8 0-20.7 16.8-37.4 37.4-37.4 20.7 0 37.4 16.8 37.4 37.4 0 4.4-.8 8.7-2.2 12.6 11.8-9.9 19.2-24.7 19.2-41.2 0-9.1-2.3-17.6-6.2-25.1 12.4 1.3 25.2 2 38.5 2 9 0 17.9-.3 26.5-.9-3.6 7.2-5.7 15.4-5.7 24 0 15.6 6.7 29.6 17.2 39.4-1-3.4-1.6-7-1.6-10.8 0-20.7 16.8-37.4 37.4-37.4 20.7 0 37.4 16.8 37.4 37.4 0 4.4-.8 8.7-2.2 12.6 11.8-9.9 19.2-24.6 19.2-41.2 0-16.5-7.4-31.2-19.1-41.1 14.2-5.4 26.3-11.9 35.6-19.2l39.9 36.5c-.1-1.9-.1-3.7-.2-5.6-.1-5.4-.2-10.8-.1-16.2.6-19.7 3.9-39.2 9.4-58.2 1.9-6.4 3.9-12.8 6-19.3 2.4-7.4 4.8-14.9 7.4-22.3 9.8-24.8 14.9-51.7 14.9-79.8zm-429.5 68L46 288.1l11.3 10.4 17.6-6.2-20.4 21.4zm4.4 18.3 11.3 10.4 17.6-6.2-20.4 21.4-8.5-25.6zm27.9-38.1 10.5 11.3 18-4.9-22 19.8-6.5-26.2zm-8.5 108.3-8.5-25.6L81.1 387l17.6-6.2-20.4 21.4zm28.3-36.4L98 340.2l11.3 10.4 17.6-6.2-20.3 21.4zm19.3-64.1 10.5 11.3 18-4.9-22 19.8-6.5-26.2zm130.8 37.5c-4.5-6.7-8.3-14.3-11.8-21.2-4-7.8-8.1-15.7-12.2-23.5-7.8-14.9-19.4-30.1-23.3-47-15.5 12.6-35.3 20.2-56.9 20.2-49.9 0-90.3-40.4-90.3-90.3s40.4-90.3 90.3-90.3c13.3 0 25.8 2.9 37.2 8 5.1 2.2 10 4.8 14.7 7.9 23.4 16.2 38.8 43.3 38.8 73.9 0 4.4-.3 8.7-1 12.9 4.6-1.4 9.5-2.2 14.6-2.2 5.9 0 11.4 1.1 16.7 3-.8-4.8-1.2-9.6-1.2-14.6 0-7.8 1.1-15.4 2.9-22.6l.3-1.1c.5-1.8 1.1-3.6 1.7-5.4l1.3-3.7.6-1.5c13.4-33 45.8-56.2 83.6-56.2 49.9 0 90.3 40.4 90.3 90.3s-40.4 90.3-90.3 90.3c-18.8 0-36.2-5.7-50.6-15.5-2.6-1.7-5.1-3.7-7.5-5.7-1.9 9-6.5 16.6-11 25.2-6.2 11.7-12.3 23.4-18.5 35.2l-18.4 33.9zM426.4 297l-6.6 26.2-22-19.8 18 4.9 10.6-11.3zm-67.7 14.2 18 4.9 10.5-11.3-6.6 26.2-21.9-19.8zm47.9 57.6-20.4-21.4 17.6 6.2 11.3-10.4-8.5 25.6zm28.2 36.5-20.4-21.4 17.6 6.2 11.3-10.4-8.5 25.6zm10.9-44.6-20.4-21.4 17.6 6.2 11.3-10.4-8.5 25.6zm13-43.9-20.4-21.4 17.6 6.2 11.3-10.4-8.5 25.6zM256.6 196.7c-23.4 0-42.3 18.9-42.3 42.3 0 18.7 13.2 34.8 21.4 50.6 3.5 6.8 7.1 13.6 10.6 20.4 3.1 5.9 6.4 12.5 10.3 18.4l15.9-29.4c5.3-10.2 10.7-20.4 16-30.6 5.2-9.7 10.4-18.1 10.4-29.5 0-23.3-19-42.3-42.3-42.2" fill="currentColor"/></svg>
