<svg id="prolog" xmlns="http://www.w3.org/2000/svg" viewBox="0 0 512 512" xml:space="preserve">
<path class="st0" d="M166.5,175.6c0,4.3-3.5,7.7-7.7,7.7c-4.2,0-7.7-3.5-7.7-7.7c0-4.3,3.5-7.7,7.7-7.7
	C163,167.9,166.5,171.4,166.5,175.6z M170.1,138.9c-25.1,0-45.4,20.3-45.4,45.4s20.3,45.4,45.4,45.4s45.4-20.3,45.4-45.4
	S195.2,138.9,170.1,138.9z M171.2,212.9c-15.2,0-27.5-12.3-27.5-27.4c0-15.2,12.3-27.5,27.5-27.5s27.4,12.3,27.4,27.5
	C198.7,200.6,186.4,212.9,171.2,212.9z M366.6,183.4c4.3,0,7.7-3.4,7.7-7.7c0-4.3-3.5-7.7-7.7-7.7c-4.3,0-7.7,3.5-7.7,7.7
	C358.9,179.9,362.4,183.4,366.6,183.4z M380.7,231.5c25.1,0,45.4-20.3,45.4-45.4s-20.3-45.4-45.4-45.4c-25,0-45.4,20.3-45.4,45.4
	S355.6,231.5,380.7,231.5z M379.1,158.4c15.2,0,27.4,12.3,27.4,27.5c0,15.2-12.3,27.4-27.4,27.4c-15.2,0-27.5-12.3-27.5-27.4
	C351.6,170.7,363.9,158.4,379.1,158.4z M484,245.7c0-62.2-25-118.6-65.3-159.7c-7.5-22.9-6.6-54.6,2.9-69c3.3-5,6.9-9.9,10.7-15.4
	c-33.8-5.8-62.5,3.9-81.8,28c-2.3,2.9-4.5,4.7-6.8,5.5c-27-11.3-56.6-17.5-87.6-17.5c-31.2,0-60.9,6.3-87.9,17.6
	c-2.4-0.8-4.7-2.6-7.1-5.6c-19.2-24.1-48-33.8-81.8-28C82.9,7.1,86.5,12,89.8,17c9.7,14.6,10.4,47,2.6,70C52.5,128,28,184,28,245.7
	c0,29,5.5,56.8,15.4,82.4c2.5,7,4.7,14.1,7.1,21.1c2.1,6.5,4.1,12.9,6,19.3c5.5,18.9,8.9,38.5,9.4,58.2c0.2,5.4,0.1,10.8-0.1,16.2
	c-0.1,1.9-0.1,3.7-0.2,5.6l46.2-42.3c8.4,7.7,19.8,14.7,33.5,20.6c-13.9,9.7-23,25.8-23,44.1c0,15.6,6.7,29.6,17.2,39.4
	c-1-3.4-1.6-7-1.6-10.8c0-20.7,16.8-37.4,37.4-37.4c20.7,0,37.4,16.8,37.4,37.4c0,4.4-0.8,8.7-2.2,12.6
	c11.8-9.9,19.2-24.7,19.2-41.2c0-9.1-2.3-17.6-6.2-25.1c12.4,1.3,25.2,2,38.5,2c9,0,17.9-0.3,26.5-0.9c-3.6,7.2-5.7,15.4-5.7,24
	c0,15.6,6.7,29.6,17.2,39.4c-1-3.4-1.6-7-1.6-10.8c0-20.7,16.8-37.4,37.4-37.4c20.7,0,37.4,16.8,37.4,37.4c0,4.4-0.8,8.7-2.2,12.6
	c11.8-9.9,19.2-24.6,19.2-41.2c0-16.5-7.4-31.2-19.1-41.1c14.2-5.4,26.3-11.9,35.6-19.2l39.9,36.5c-0.1-1.9-0.1-3.7-0.2-5.6
	c-0.1-5.4-0.2-10.8-0.1-16.2c0.6-19.7,3.9-39.2,9.4-58.2c1.9-6.4,3.9-12.8,6-19.3c2.4-7.4,4.8-14.9,7.4-22.3h0
	C478.9,300.7,484,273.8,484,245.7L484,245.7z M54.5,313.7l-8.5-25.6l11.3,10.4l17.6-6.2L54.5,313.7z M58.9,332l11.3,10.4l17.6-6.2
	l-20.4,21.4L58.9,332z M86.8,293.9l10.5,11.3l18-4.9l-22,19.8L86.8,293.9z M78.3,402.2l-8.5-25.6L81.1,387l17.6-6.2L78.3,402.2z
	 M106.6,365.8L98,340.2l11.3,10.4l17.6-6.2L106.6,365.8z M125.9,301.7l10.5,11.3l18-4.9l-22,19.8L125.9,301.7z M256.7,339.2
	c-4.5-6.7-8.3-14.3-11.8-21.2c-4-7.8-8.1-15.7-12.2-23.5c-7.8-14.9-19.4-30.1-23.3-47c-15.5,12.6-35.3,20.2-56.9,20.2
	c-49.9,0-90.3-40.4-90.3-90.3s40.4-90.3,90.3-90.3c13.3,0,25.8,2.9,37.2,8c5.1,2.2,10,4.8,14.7,7.9c23.4,16.2,38.8,43.3,38.8,73.9
	c0,4.4-0.3,8.7-1,12.9c4.6-1.4,9.5-2.2,14.6-2.2c5.9,0,11.4,1.1,16.7,3c-0.8-4.8-1.2-9.6-1.2-14.6c0-7.8,1.1-15.4,2.9-22.6l0.3-1.1
	c0.5-1.8,1.1-3.6,1.7-5.4l1.3-3.7l0.6-1.5c13.4-33,45.8-56.2,83.6-56.2c49.9,0,90.3,40.4,90.3,90.3s-40.4,90.3-90.3,90.3
	c-18.8,0-36.2-5.7-50.6-15.5c-2.6-1.7-5.1-3.7-7.5-5.7c-1.9,9-6.5,16.6-11,25.2c-6.2,11.7-12.3,23.4-18.5,35.2L256.7,339.2
	L256.7,339.2z M426.4,297l-6.6,26.2l-22-19.8l18,4.9L426.4,297L426.4,297z M358.7,311.2l18,4.9l10.5-11.3l-6.6,26.2L358.7,311.2z
	 M406.6,368.8l-20.4-21.4l17.6,6.2l11.3-10.4L406.6,368.8z M434.8,405.3l-20.4-21.4l17.6,6.2l11.3-10.4L434.8,405.3z M445.7,360.7
	l-20.4-21.4l17.6,6.2l11.3-10.4L445.7,360.7z M458.7,316.8l-20.4-21.4l17.6,6.2l11.3-10.4L458.7,316.8z M256.6,196.7
	c-23.4,0-42.3,18.9-42.3,42.3c0,18.7,13.2,34.8,21.4,50.6c3.5,6.8,7.1,13.6,10.6,20.4c3.1,5.9,6.4,12.5,10.3,18.4l15.9-29.4
	c5.3-10.2,10.7-20.4,16-30.6c5.2-9.7,10.4-18.1,10.4-29.5C298.9,215.6,279.9,196.6,256.6,196.7L256.6,196.7z" fill="currentColor"/>
</svg>
