<svg xmlns="http://www.w3.org/2000/svg" id="rockstar" viewBox="0 0 558 530"><path fill="currentColor" d="M346.8 298.5c-.9-.1-1.5-.9-1.3-1.7 2.6-8.9 5.3-26.5 10.1-52.6.3-1.7-2.3-2.3-2.9-.7-6.4 17.2-11.4 34.8-16.9 53.4-.2.7-.9 1.1-1.7 1-15.2-2.2-51.6-.3-62.9.9-.8.1-1.5-.4-1.6-1.1-1.9-9.8-3.5-21.9-3.3-35.7.1-8.9.9-17.1 2-24.4.2-1.6-2.3-2.2-2.9-.7-2.6 6.7-5 14.7-6.4 23.9-2.5 15.7-1.2 29 .5 38.3.1.7-.3 1.3-1 1.5-3.5 1.1-6.4 2.5-8.8 3.9-12.1 7.3-16.2 24.1-17.5 33.6-.4 3-4.3 4.4-6.8 2.4-10.1-7.9-25.8-16.7-30.4-39.3-6-29.4 6.8-60.3 9.8-64.1-3.6 4.4-25.6 32.8-16.9 69.5 7 29.6 36.7 50.8 69.2 60.5.8.3 1.3 1.1.9 1.9-19.4 41.5-5 57.1-3.8 57.2 2.3.3-6.3-34.6 22-50.7 19-10.9 9.6-5.9 40.5-8 36.4-2.6 18.4 23.9 65.6 35.6 1.2.3-36.1-14.2-35-36.1.3-5.2 2.7-9.7 5.8-13.5 1-1.1-.4-2.7-1.8-2.1-12.7 5.7-31.5 12-54.7 12.1-10.9 0-20.4-1.3-28.3-3-1.9-.3-15.7-2.6-23.3-14.8-2.2-3.5-3.1-6.6-3.2-9.4 0 0-.7-7.3 4.2-15 6.8-10.8 19.6-17.4 73.6-15.8 68.8 2.1 79.9 27.9 91.4 44.7.9 1.4 3.2.4 2.7-1.1-6.6-18.6-21.8-46.7-66.9-50.6m205.8-86.8c2.8-3.8.8-9.2-3.7-10.4-25.1-6.9-53.7-13.3-85.4-18-1.2-.2-2.5-.3-3.7-.5 6.4-23.7 11.4-45.1 13-65.1 1.2-14.6.4-27.2-2.3-38.6-3.1-12.9-8.9-24.4-17.3-34.3-11-12.9-32.6-14.7-36.8-15-.9-.1-1.9-.1-2.8-.1-10.3 0-19.2 3.3-26.2 9.9-5.9 5.4-10.3 12.9-13.7 22.8-5.4 16-7.4 36.8-9.8 61-1.1 11.3-2.3 23.3-3.8 35.5-5.8-17.5-12.9-36.3-21.7-55.8-16.8-37.4-35.8-68.7-53.6-94.2-2.7-3.8-8.3-3.8-11 0-15.9 22.6-32.9 50.3-48.5 83-14 29.4-24 56.9-31.3 81.1-1-2.9-2-5.9-2.8-8.8-1.5-5.4-3-14.2-4.5-23.5-2.9-17-6.4-38.1-12.7-55.2-3.8-10.4-8.2-18.3-13.5-24.2-9.4-10.3-19.6-12.5-26.5-12.5q-7.95 0-16.2 3.6c-16.4 7.2-36 25.3-35.5 71.3.2 23.8 5.6 46.8 9 59.2-30.6 4.7-58.1 11.2-81.8 18.1-4.6 1.3-6.3 6.8-3.5 10.6 15.4 20.1 34.3 42.2 57.2 64.6 21.8 21.4 43.3 39.2 63 53.9-1.8 9.2-3.2 18.4-4 27.7v.4c-.4 7.8-.2 19.5 3.2 32.7-3.6 15.1-6.9 31.1-9.7 48-4.9 29.8-7.5 57.4-8.5 82.2-.2 5 4.9 8.5 9.4 6.5 23.7-10.4 48.5-22.1 74.1-35.5 11.8-6.2 23.3-12.4 34.4-18.6 9.4 1.4 18.9 2.1 28.3 2.2 12.2 5.9 24.8 11 37.8 15.1 12.8 4.1 26.1 7.5 39.4 9.8.7.1 1.5.2 2.3.2h.4c6 0 16.6-2.3 29.8-7.8 28.1 14.7 54.8 26.3 79 35.3 4.5 1.7 9.3-1.8 9.1-6.6-1.3-27.1-4.3-57.6-10.1-90.6 10.6-16 16.4-32.2 17-48.4.8-19.9-6.1-38.7-20.5-55.9 19.4-14 40.5-31.4 61.9-52.8 21.6-21.6 39.1-43 53.1-62.3M210.2 181c8.2-27.8 18.7-55.2 31.2-81.4 11-23.1 23.6-45.4 37.8-66.8 16.3 24.8 30.6 50.8 42.8 77.7 10.3 22.8 19.1 46.5 26.2 70.5 1.2 3.9 3.6 7.2 6.7 9.4 0 .2-.1.4-.1.7-7.7-5.1-17.6-9.6-30-11.3-3.2-.4-6.4-.7-9.6-.7-18.7 0-33.2 7.2-42.2 13.3-6.8-4.2-16.2-8.1-27.7-8.7-.9 0-1.9-.1-2.8-.1-13.6 0-26.9 4.9-37.4 13.4-1.1-1.9-2.1-3.7-3-5.6 3.7-2.1 6.7-5.8 8.1-10.4M30.6 213.9c21.8-5.7 44-10.3 66.2-13.5 9.6 26.8 24.4 55.4 43.9 85.2-3.1 7.6-6.8 16.6-9.7 25.7-19.4-14.8-37.9-30.8-55.3-47.8-15.9-15.7-31-32.3-45.1-49.6m151.7 262.3c-18.4 9.6-37.2 18.8-56.2 27.4 1.5-20.7 3.9-41.4 7.3-61.7 1.2-7.4 2.6-14.7 4-22.1 2.2 3.6 4.6 7.1 7.4 10.7 11.3 14.3 26.6 26.1 44.1 34 .4.2.7.3 1.1.4 2.8 1 5.5 1.9 8.3 2.7-5.2 3-10.6 5.8-16 8.6m200.9 7c7-4 14.4-8.8 21.9-14.4 4.8-3.6 12.6-9.9 20.8-18.7 2.8 18.3 4.9 36.7 6.2 55.1-16.6-6.6-32.9-14-48.9-22m13.5-25.6c-29.1 21.7-55 29.3-63.5 29.3h-.2c-11.2-2-23.9-5-37.6-9.4-15.1-4.9-28.1-10.5-38.9-15.8h-2.7c-8.3 0-18.2-.6-29.1-2.4-11.8-1.9-21.9-4.8-29.9-7.6-9.1-4.1-25.5-12.9-38.9-29.9-20.6-26.1-20.3-53.9-19.8-62.7.9-9.7 2.4-20.5 5.1-32.3 3.3-14.5 10.9-32 15.3-42.8-15.4-22.8-37.3-58.8-49.7-97.9-7.6-24-26-102.3 16.6-120.8 3.9-1.7 7.4-2.5 10.6-2.5 32.7 0 36.2 78.5 43.5 105.1 3.6 12.9 10.5 31.3 25.5 52.2 8.5-13.8 23.5-22.3 39.3-22.3.7 0 1.4 0 2.1.1 15.7.8 25.9 9.8 28.6 12.4 1.5-1.5 17.5-17.1 41.9-17.1 2.5 0 5.1.2 7.8.5 25.1 3.4 37.7 21.4 39.5 24 25.1-83.3 6.1-174 51.3-174 .7 0 1.3 0 2 .1 5.2.3 20.5 2.5 27 10.1 45.6 53.7-14.6 146.2-28.6 268.8 63.7 55.7 11.1 113.8-17.2 134.9m32.9-147.3c5.6-38.2 15.4-73.7 24.1-105.4.4-1.5.8-3 1.3-4.5 2 .3 3.9.5 5.8.8 22.5 3.3 45 7.8 67.2 13.3-12.8 16.5-26.6 32.2-41.3 46.9-17.7 17.6-36.8 34-57.1 48.9"/></svg>
