<svg xmlns="http://www.w3.org/2000/svg" id="rockstar-2" viewBox="25 12.5 350 350"><path fill="currentColor" d="M199.933 15.1c-1.072 1.27-4.333 6.038-4.333 6.335 0 .16-.7 1.208-1.555 2.328-.856 1.12-2.23 3.117-3.054 4.437-.825 1.32-1.821 2.76-2.214 3.2s-1.38 2.06-2.193 3.6-1.817 3.278-2.231 3.862-.753 1.244-.753 1.466c0 .223-.16.465-.355.539-.479.179-4.204 6.444-6.62 11.133-1.077 2.09-2.267 4.34-2.643 5-3.293 5.775-4.186 7.501-5.795 11.2-.382.88-1.635 3.58-2.783 6-3.615 7.621-5.952 13.145-6.364 15.044-.161.738.006 1.254.566 1.762.437.395.794.96.794 1.256s.18.538.4.538.4.36.4.8.193.8.429.8c.637 0 1.571-1.053 1.571-1.771 0-.346.18-.629.4-.629s.4-.22.4-.488c0-.269.787-2.114 1.749-4.1.963-1.987 2.252-4.872 2.866-6.412s1.249-2.98 1.411-3.2c.577-.782 7.174-14.05 7.174-14.428 0-.212.739-1.642 1.643-3.178a224 224 0 0 0 3.266-5.794c.893-1.65 2.106-3.72 2.696-4.6s1.528-2.516 2.085-3.635c.557-1.12 2.564-4.4 4.461-7.29s3.449-5.363 3.449-5.495c0-.584 5.726-8.58 6.145-8.58.257 0 1.157 1.125 2.001 2.5 2.294 3.737 2.802 4.542 5.627 8.9 1.425 2.2 2.915 4.448 3.309 4.996.395.547 1.366 2.257 2.158 3.8s2.277 4.096 3.3 5.674 1.86 2.977 1.86 3.107.81 1.571 1.8 3.202 1.8 3.07 1.8 3.197c0 .421 1.744 3.979 3.148 6.424.759 1.32 2.61 4.808 4.115 7.751s2.737 5.148 2.737 4.9c0-.721 1.813-.521 2.538.28.433.479.662 1.434.662 2.763v2.031l1.871.637c2.77.944 3.136.585 2.079-2.043-.247-.616-.585-1.479-.751-1.919-.461-1.225-2.426-5.434-5.35-11.459-1.457-3.002-2.649-5.626-2.649-5.832 0-.444-1.698-3.855-2.287-4.592-.227-.284-1.266-2.137-2.311-4.117s-2.205-4.05-2.58-4.6-.934-1.63-1.242-2.4c-.618-1.547-2.317-4.437-4.234-7.202-.687-.991-1.607-2.431-2.043-3.2-2.861-5.039-6.42-10.584-9.113-14.198-1.147-1.54-2.406-3.429-2.798-4.197-2.013-3.945-3.607-5.349-4.659-4.103M267.4 30.652c-6.96 1.734-10.5 6.564-13.007 17.748-.271 1.21-.65 2.722-.843 3.36s-.35 1.736-.35 2.44-.161 1.802-.358 2.44-.567 2.96-.824 5.16-.638 5.22-.848 6.711c-.209 1.49-.557 5.27-.774 8.4-.522 7.565-.924 11.522-2.375 23.389-.892 7.297-2.464 16.22-4.439 25.2-.23 1.045-.521 2.397-.646 3.005-.363 1.758-.792 1.655-2.469-.594-3.722-4.99-10.51-9.364-16.893-10.885-2.853-.68-8.819-.804-11.374-.235-4.724 1.051-6.222 1.673-10.312 4.28-1.492.951-2.855 1.729-3.028 1.729s-1.073.648-1.998 1.44l-1.682 1.439-1.05-.739c-10.079-7.096-17.863-7.72-27.418-2.199-2.642 1.526-6.393 5.178-7.315 7.122-.349.735-.806 1.337-1.016 1.337s-.508.02-.663.044c-.156.025-.565-.47-.91-1.1-1.158-2.115-4.179-7.142-4.414-7.344-.393-.339-2.28-4.51-2.805-6.2-.274-.88-.812-2.23-1.198-3-1.174-2.346-3.965-10.962-4.824-14.891-1.081-4.946-2.075-11.278-2.748-17.509-.324-2.997-1.738-10.357-2.882-15a46 46 0 0 1-.61-2.904c-.119-.717-.376-1.402-.571-1.523-.196-.121-.356-.714-.356-1.317s-.158-1.267-.352-1.476-.575-1.1-.849-1.98c-4.943-15.893-15.027-19.924-25.046-10.013-3.959 3.917-4.82 5.575-6.859 13.213-2.229 8.343-1.918 24.699.699 36.8.19.88.554 2.95.808 4.6.479 3.106 2.214 10.397 2.808 11.8.186.44.555 1.52.82 2.4s.616 1.96.78 2.4c.383 1.031 2.36 6.129 2.83 7.3.903 2.251 1.103 2.81 1.606 4.5.294.99 1.008 2.79 1.586 4s1.363 2.92 1.744 3.8.895 1.96 1.142 2.4c.248.44 2.204 4.264 4.347 8.499 2.142 4.234 4.423 8.465 5.068 9.402 4.203 6.109 6.148 10.581 5.309 12.204-.45.87-1.509 6.848-2.816 15.895-1.318 9.129-1.584 28.088-.479 34.2 1.765 9.759 3.399 12.977 9.847 19.4 4 3.983 10.995 9.139 13.807 10.176.77.284 2.39.967 3.6 1.518 6.831 3.11 13.748 4.645 24.2 5.369 7.345.51 8.699.969 13.4 4.542 1.55 1.178 5.528 3.795 5.769 3.795.085 0 1.263.627 2.619 1.393 1.355.766 3.217 1.654 4.138 1.974a364 364 0 0 1 5.074 1.835c10.787 3.98 21.48 3.706 31-.793 1.32-.624 3.03-1.396 3.8-1.715 4.386-1.82 15.513-12.906 21.697-21.617 1.263-1.78 2.883-3.961 3.6-4.848 5.932-7.34 9.228-19.219 7.478-26.952-2.239-9.897-4.059-14.612-7.749-20.077-2.61-3.865-2.574-3.751-2.167-6.8l.747-5.6c.221-1.65.565-3.99.766-5.2l.792-4.8c.686-4.167 1.096-6.287 2.24-11.6 1.603-7.445 1.799-8.399 2.216-10.8.211-1.21.544-3.1.74-4.2s1.02-4.52 1.83-7.6 1.638-6.275 1.841-7.1c.85-3.457 1.136-4.573 1.515-5.9.219-.77.876-3.2 1.459-5.4s1.238-4.63 1.455-5.4.479-1.85.581-2.4c.719-3.874 1.064-5.578 1.376-6.8 1.026-4.023 2.895-12.072 3.251-14 .223-1.21.573-3.01.776-4 1.988-9.663 2.83-22.325 1.93-29-1.458-10.808-6.558-21.375-11.774-24.395-2.741-1.587-11.65-3.339-14-2.753m-36.2 52.817c-1.476 1.039-2.247 1.06-6.4.172-1.361-.291-1.93-.258-2.333.135-.964.939-10.067 28.778-10.067 30.788 0 .025 1.035-.047 2.3-.159 8.391-.747 19.957 3.786 25.747 10.091 1.043 1.136.924 1.316 2.197-3.296.627-2.268.821-3.149 1.901-8.6.743-3.753 1.855-10.51 1.855-11.27 0-.292-.258-.53-.574-.53s-1.797-1.35-3.292-3c-1.629-1.799-3.041-3.007-3.525-3.018-.445-.009-1.708-.254-2.807-.543l-1.998-.527-.602-5.43c-.699-6.301-.592-6.087-2.402-4.813m-73.285 12.029c-.337.386-1.475 2.322-2.529 4.302s-2.394 4.32-2.979 5.2c-2.547 3.836-3.234 6.309-2.354 8.481 1.052 2.597 4.393 9.3 4.744 9.517.21.13.66.813 1.001 1.519s.971 1.733 1.4 2.283l.779 1 1.912-2.063c3.655-3.946 12.118-8.537 15.737-8.537.617 0 1.583-.175 2.146-.389l1.025-.39-2.667-5.299c-2.336-4.645-2.735-5.771-3.224-9.111-.754-5.137-.719-5.13-4.889-1.049-4.311 4.218-3.962 4.286-6.853-1.33-2.756-5.355-2.485-5.01-3.249-4.134m49.879 13.843c-.223.253-1.123 1.357-2 2.456-4.408 5.52-4.359 5.494-7.074 3.752-2.426-1.557-2.394-1.595-2.604 3.139-.095 2.152-.025 3.71.156 3.463.485-.662 5.623-3.846 7.928-4.913 1.1-.509 2.313-1.086 2.695-1.282s1.062-.356 1.512-.356c1.169 0 1.379-.944.784-3.534-.673-2.931-.872-3.318-1.397-2.725m-103.036 17.235c-.097.096-2.332.386-4.967.644-8.455.828-17.494 2.041-23.191 3.113-1.1.207-4.43.758-7.4 1.225-5.709.897-8.901 1.48-11.2 2.047-.77.189-2.21.527-3.2.749-2.875.647-13.304 3.276-14.4 3.63-.55.178-1.72.518-2.6.755-.88.238-3.086.88-4.901 1.427-1.816.547-4.426 1.209-5.8 1.472-4.047.772-3.806 1.636 2.386 8.537.975 1.086 2.054 2.526 2.399 3.2s.74 1.315.878 1.425.763.83 1.388 1.6c.626.77 1.987 2.3 3.025 3.4 1.039 1.1 2.774 3.169 3.857 4.597 1.082 1.428 2.979 3.625 4.215 4.881s2.856 3.029 3.6 3.938c3.459 4.227 18.179 18.888 23.753 23.656 1.1.941 2.967 2.67 4.149 3.843 1.181 1.172 3.15 2.872 4.374 3.776 2.776 2.051 3.309 2.491 5.617 4.645 1.023.954 2.355 2.028 2.96 2.386s1.1.792 1.1.964c0 .173.36.314.8.314s.8.18.8.4.27.4.6.4c1.322 0-.463-5.941-2.262-7.53-.666-.588-2.852-2.659-4.858-4.601s-4.363-4.103-5.24-4.8-3.524-3.159-5.884-5.469-4.801-4.655-5.424-5.211c-.622-.556-2.773-2.734-4.778-4.84-2.006-2.106-3.986-4.081-4.401-4.389s-1.24-1.211-1.834-2.008-2.574-2.962-4.399-4.812-4.13-4.425-5.12-5.719-2.982-3.629-4.427-5.188-3.186-3.643-3.87-4.633-2.426-3.133-3.873-4.762c-3.352-3.775-3.422-3.526 1.37-4.838.99-.271 2.25-.642 2.8-.825 2.104-.699 8.72-2.295 11.4-2.75a130 130 0 0 0 6-1.207c5.196-1.188 6.915-1.547 12.6-2.626 7.418-1.409 8.945-1.68 12.4-2.195 1.65-.246 3.99-.602 5.2-.791s4.63-.634 7.6-.989c2.97-.354 6.501-.818 7.846-1.031s3.64-.386 5.1-.386c3.062 0 3.076-.026 1.798-3.364l-.855-2.236h-2.478c-1.363 0-2.557.079-2.653.176m179.321 1.317c-1.088 3.633-1.074 3.644 5.219 4.131 8.901.689 16.979 1.597 23.102 2.598 2.09.342 4.97.792 6.4 1 1.43.209 3.5.544 4.6.744 1.1.201 3.08.549 4.4.772 2.055.349 8.341 1.658 14 2.916.88.196 2.59.518 3.8.716 2.805.459 10.523 2.068 10.842 2.26.133.08 2.293.675 4.8 1.321 7.808 2.013 7.629 1.755 4.029 5.815a87 87 0 0 0-3.471 4.222c-6.308 8.327-17.143 20.714-26.8 30.639-5.286 5.432-4.804 4.659-5.649 9.073-.264 1.382-1.188 2.692-1.913 2.713-.801.023-2.815 3.587-2.027 3.587.405 0 2.644-1.652 3.989-2.943.66-.633 2.19-1.979 3.4-2.992 4.59-3.84 14.441-13.814 22.781-23.065 2.083-2.311 11.314-13.353 11.999-14.353 1.669-2.438 4.231-5.844 5.541-7.364 2.388-2.772 4.537-6.532 4.061-7.105-.225-.271-1.618-.719-3.096-.996a63 63 0 0 1-5.286-1.28c-1.43-.427-3.32-.948-4.2-1.157-1.852-.442-2.425-.584-10.2-2.537-3.19-.801-6.7-1.646-7.8-1.876-9.47-1.986-9.315-1.959-17.6-3.077-1.54-.208-4.42-.674-6.4-1.036-8.342-1.525-24.334-3.436-34.021-4.065l-4.02-.261zm-91.412 14.473c-1.639 8.194-.66 32.973 1.344 34.006.324.167 3.649.128 7.389-.088 6.118-.353 20.403-.461 24.975-.189l1.774.105.736-2.6c.404-1.43 1.07-3.77 1.478-5.2.409-1.43.969-3.68 1.245-5 .562-2.694 2.871-10.552 3.995-13.6.405-1.1.944-2.672 1.196-3.494.824-2.682 2.676-2.114 2.014.617-.316 1.303-.44 2.004-2.215 12.477-1.179 6.955-1.718 9.847-2.199 11.8-1.308 5.314-1.287 5.352 3.201 5.805 13.478 1.36 26.331 12.067 30.942 25.778 1.003 2.983 1.027 3.621.134 3.612-.444-.004-3.476-4.008-3.476-4.591 0-2.647-12.211-13.962-16.4-15.198-.55-.162-1.54-.534-2.2-.827-8.492-3.764-34.513-7.074-33.634-4.279 1.347 4.28.811 10.264-1.351 15.1-1.833 4.099-2.104 4.648-3.111 6.3l-.914 1.5-6.895.003c-7.809.004-17.532 1.086-18.106 2.014-.244.396 3.953 3.76 5.782 4.633 6.886 3.289 26.473 3.671 36.029.703.99-.308 2.43-.753 3.2-.989.77-.237 1.95-.677 2.621-.979l3.938-1.767c3.474-1.558 4.463-1.001 2.697 1.52-2.311 3.3-2.973 8.364-1.528 11.688 1.279 2.94 6.769 9.323 8.96 10.418 6.11 3.054 7.791 5.451 1.972 2.812-4.971-2.254-9.029-5.481-11.953-9.506-6.291-8.662-6.497-8.747-20.101-8.344-10.468.311-10.348.288-14.406 2.706-10.418 6.209-13.425 11.547-14.069 24.973-.347 7.234-1.933 6.911-3.538-.72-1.069-5.078.213-14.854 2.668-20.365 2.296-5.151 2.372-7.029.308-7.651-3.081-.928-7.61-2.713-9.169-3.613a2612 2612 0 0 0-4.725-2.72c-1.609-.924-3.02-1.927-3.135-2.229-.116-.302-1.14-1.14-2.276-1.862-2.712-1.724-5.665-4.488-7.186-6.725a48 48 0 0 0-2.586-3.4c-8.52-10.006-9.267-31.43-1.611-46.2 2.781-5.364 3.742-5.962 2.25-1.4-6.1 18.651-4.302 36.389 4.665 46.017 2.249 2.416 2.4 2.309 2.429-1.717.039-5.541 3.375-10.1 7.389-10.1.406 0 .838-.16.959-.356s.806-.448 1.523-.561 2.834-.571 4.704-1.019 4.523-1.029 5.896-1.293c3.301-.633 3.472-.885 2.938-4.329-.639-4.113-.537-14.205.188-18.746.527-3.301 1.223-6.289 2.816-12.096.639-2.329 2.882-3.099 2.429-.834m113.133 4.291c-.66.076-3.63.411-6.6.745s-6.48.778-7.8.988-3.165.493-4.1.631c-1.218.179-1.7.438-1.7.914-.001 1.803 2.115 11.507 2.762 12.665.122.22.526 1.48.896 2.8.371 1.32 1.153 3.93 1.74 5.8 2.043 6.519 3.366 12.402 4.025 17.9.139 1.154.415 2.2.614 2.323.2.123.363.576.363 1.007s.606 1.725 1.348 2.876a474 474 0 0 1 3.29 5.226c1.068 1.723 2.057 3.203 2.196 3.289.25.154 7.431-2.625 11.366-4.399 1.1-.496 4.205-1.781 6.9-2.857 6.604-2.635 6.969-3.422 3.5-7.551a134 134 0 0 0-3.5-3.958c-2.354-2.544-2.364-3.271-.072-5.056 2.734-2.128 3.276-3.118 1.876-3.425-1.92-.421-2.104-.533-2.104-1.284 0-.74 2.965-3.043 6.3-4.895 2.468-1.37 2.269-2.219-.6-2.556-9.681-1.135-9.352-2.025 2.8-7.593 3.649-1.671 3.62-1.568 1.241-4.531-5.815-7.241-8.64-8.927-12.053-7.194-1.038.527-2.698 1.368-3.688 1.867-.99.5-3.615 1.877-5.834 3.06-2.218 1.182-4.153 2.03-4.3 1.884-.886-.887.689-3.821 3.496-6.511 2.347-2.25 1.908-2.653-2.362-2.165m-186.2 7.736c-1.147.662-9.812 3.906-11.8 4.417-1.1.283-2.18.637-2.4.786s-3.055 1.335-6.3 2.634c-6.581 2.634-6.538 2.598-4.267 3.49 2.396.941 1.967 1.746-1.633 3.062-1.65.604-3.9 1.505-5 2.003-4.741 2.148-5.375 2.415-5.729 2.415-1.291 0-1.248 1.182.147 4.051 1.275 2.621 1.408 3.188 1.199 5.098-.205 1.871-.093 2.389.866 4a87 87 0 0 1 2.109 3.803c.857 1.661 1.397 2.145 3.608 3.239 1.43.707 6.83 3.384 12 5.949 10.952 5.433 10.044 5.221 10.985 2.56.408-1.155 1.253-3.228 1.877-4.606 4.565-10.084 6.521-20.547 6.262-33.494-.191-9.547-.349-10.316-1.924-9.407m71 24.62c-1.98.285-4.59.733-5.8.996s-2.92.625-3.8.805c-1.566.319-2.846.661-5.93 1.583-5.944 1.777-9.07 4.658-9.07 8.36 0 2.174.391 2.256 2.144.45 2.754-2.837 7.661-4.651 19.656-7.265 3.767-.821 14.075-.72 15.672.154 1.664.91 1.806 1.485 1.655 6.719-.103 3.569-.013 4.483.467 4.78.726.45 2.406-.975 2.406-2.041 0-.389.159-.805.353-.925s.479-1.401.634-2.847c1.039-9.7-4.253-12.8-18.387-10.769m-82.943 34.058c-4.36 4.449-4.891 5.139-4.661 6.054.142.569.036 2.158-.237 3.531-.483 2.43-.468 2.54.572 4.112 1.415 2.137 1.41 2.156-1.131 4.901-1.21 1.307-2.2 2.645-2.2 2.974 0 .994-1.207 3.03-3.256 5.492-2.901 3.484-2.849 3.625 2.925 7.997 1.028.779 2.378 1.679 3.001 2.001s1.461.948 1.862 1.392c.402.444 1.752 1.197 3 1.673s2.581 1.032 2.963 1.234.879.368 1.104.368 1.173.353 2.105.785c.933.432 4.756 1.787 8.496 3.011 6.456 2.113 7.884 2.632 9.495 3.451 1.077.548 1.218.437.941-.747-.142-.605-.424-2.27-.626-3.7-.818-5.773-1.225-8.04-1.562-8.704a63 63 0 0 1-.901-1.896c-.3-.66-.651-1.29-.781-1.4-.938-.798-5.144-8.399-5.756-10.4-.295-.967-.867-2.3-2.863-6.674-.521-1.141-.95-2.491-.953-3s-.265-1.646-.582-2.526-.585-2.815-.594-4.3c-.01-1.522-.193-2.7-.418-2.7-.22 0-.4-.326-.4-.725s-.325-1.073-.721-1.5c-.397-.426-1.237-1.723-1.868-2.882-1.778-3.269-1.544-3.342-6.954 2.178m192.514-2.574c-1.073 1.377-2.185 2.745-2.47 3.041-1.159 1.2-1.706 3.014-2.505 8.309-.996 6.6-3.158 17.942-3.688 19.353-.207.55-.527 1.81-.71 2.8-.429 2.31-1.198 5.185-2.753 10.287-.685 2.248-1.245 4.595-1.245 5.214s-.445 2.471-.99 4.113-.994 3.724-1 4.627l-.01 1.641 5.3.646c2.915.355 7.19.802 9.5.993l4.2.347 1.8-1.674c.99-.921 2.475-2.173 3.3-2.782 1.982-1.462 1.899-1.992-.737-4.701-2.511-2.582-2.623-3.401-.563-4.12.77-.269 2.57-1.075 4-1.791s3.887-1.934 5.459-2.708l2.86-1.406-.418-1.243c-.229-.684-.604-1.482-.833-1.773-.976-1.244.92-1.542 4.267-.67 5.565 1.449 5.868 1.024 2.803-3.938-1.244-2.014-2.534-4.19-2.865-4.834-.332-.645-2.419-3.885-4.638-7.2s-4.305-6.563-4.635-7.217c-.606-1.201-6.162-9.585-8.392-12.663-.664-.917-1.208-1.831-1.208-2.029 0-.199-.422-.983-.939-1.743l-.939-1.382zm-195.879 49.392c-.381.739-.692 1.686-.692 2.104s-.161.859-.358.981c-.197.121-.443.897-.547 1.723s-.461 2.493-.792 3.703c-.708 2.583-2.432 10.054-3.047 13.2l-.665 3.4c-.13.66-.393 2.1-.585 3.2s-.647 3.62-1.01 5.6c-.364 1.98-.821 5.22-1.017 7.2-.348 3.528-.848 8.016-1.605 14.4-1.86 15.699-2.91 35-1.904 35 .968 0 6.171-2.21 14.13-6.003 4.269-2.034 7.77-3.597 8.059-3.597.287 0 16.66-8.119 16.941-8.401.11-.11.65-.396 1.2-.636 2.663-1.16 7.415-3.597 7.533-3.863.074-.165.389-.3.7-.3.312 0 .567-.18.567-.4s.192-.4.427-.4 1.016-.45 1.737-1 1.442-1 1.602-1 .527-.236.816-.525c.798-.797-4.607-2.596-5.888-1.96-.492.245-1.705.707-2.697 1.027-.992.321-3.988 1.68-6.657 3.02s-4.956 2.438-5.08 2.438-1.097.514-2.163 1.143c-1.066.628-2.649 1.37-3.517 1.647-.869.278-4.28 1.816-7.58 3.418l-8.947 4.343c-3.017 1.464-5.655 2.208-5.65 1.594.063-7.665 3.109-34.416 5.39-47.345.562-3.19 1.212-7.15 1.444-8.8.606-4.317 1.066-7.117 1.544-9.4.231-1.1.592-2.9.803-4s.587-2.9.836-4 .54-2.991.647-4.201l.194-2.202-1.739-1.226-1.739-1.225zm33.004 7.773c-.608 2.109-1.747 7.645-2.455 11.938-.2 1.21-.459 2.65-.575 3.2s-.514 2.62-.885 4.6c-.799 4.276-1.346 5.686-4.153 10.723l-1.295 2.323 1.681 3.537c1.667 3.509 1.676 3.553 1.159 5.57-.706 2.757-.778 2.743 5.894 1.118 7.045-1.716 7.089-1.702 6.251 1.97-.721 3.163-.603 3.321 1.796 2.387 3.901-1.517 4.173-1.419 4.91 1.772.537 2.329 1.057 4.139 1.533 5.337l.451 1.137 3.896-.25c7.768-.498 7.966-.607 12.296-6.792.66-.942 2.55-3.33 4.2-5.305s3.45-4.193 4-4.93c2.158-2.891 6.56-8.608 6.774-8.797 1.63-1.443 1.352-2.352-1.048-3.422-.701-.312-1.934-1.015-2.741-1.562-.806-.547-2.122-1.117-2.925-1.267-3.599-.669-10.979-6.891-19.528-16.464a159 159 0 0 0-2.775-3.019c-.683-.717-1.446-1.686-1.696-2.152s-.994-.967-1.653-1.112-1.302-.43-1.427-.633c-.126-.203-.926-.369-1.779-.369s-1.974-.161-2.491-.358-2.286-.484-3.928-.638l-2.986-.28zm160.971 9.029c-2.096.549-2.305.698-2.052 1.46.154.467.419 2.019.589 3.449s.516 3.77.77 5.2c.253 1.43.625 3.68.826 5s.538 3.48.75 4.8.497 3.21.635 4.2c.137.99.418 2.79.624 4 .917 5.384 2.96 24.841 3.414 32.5l.254 4.3h-.94c-.995 0-4.926-1.338-7.937-2.702-.99-.448-2.88-1.27-4.2-1.825-1.32-.556-4.11-1.812-6.2-2.793-2.09-.98-4.25-1.911-4.8-2.069-1.046-.299-6.649-2.853-9.4-4.284-3.676-1.911-8.618-4.327-8.853-4.327-.274 0-6.387-3.074-8.728-4.39-1.929-1.083-2.111-1.042-2.805.619-.454 1.087-.798 1.398-1.434 1.3-.849-.131-1.146-.562-2.834-4.123-1.352-2.85-5.115-3.314-7.724-.952-.375.339 1.004 1.946 1.67 1.946.179 0 .952.512 1.717 1.138 1.56 1.276 4.286 2.833 6.391 3.65.77.299 1.67.766 2 1.038s1.41.937 2.4 1.479c.99.541 2.88 1.583 4.2 2.314 2.515 1.393 6.636 3.458 8 4.009.44.178 4.49 2.115 9 4.304s9.1 4.283 10.2 4.653 2.585.93 3.3 1.244l2.66 1.171c.749.33 1.488.6 1.643.6s1.478.553 2.94 1.228c3.103 1.434 3.157 1.457 7.857 3.276 7.455 2.885 8.199 2.921 8.203.396.008-5.235-2.194-29.677-3.63-40.3-.498-3.684-.868-6.22-2.563-17.6-.327-2.2-.789-4.9-1.025-6s-.523-2.63-.638-3.4-.465-1.967-.778-2.66-.569-1.549-.569-1.9c0-.742.099-.744-2.933.051m-47.067.881c-13.981 7.386-20.669 9.747-25.584 9.028-2.489-.363-9.066-1.698-11.016-2.234-5.187-1.428-9.022-1.345-11.6.248-.44.272-2.032.896-3.538 1.386-2.615.85-2.726.938-2.478 1.945.142.58.416 1.775.607 2.655.192.88.532 2.23.756 3 .66 2.266 1.148 4.014 2.008 7.2.446 1.65 1.45 5.07 2.231 7.6.782 2.53 1.687 5.77 2.011 7.2 1.727 7.605 2.436 9.209 3.95 8.932 2.628-.481 3.569-2.059 5.087-8.532.284-1.21.63-2.38.769-2.6s.495-1.168.791-2.106c.949-3.008 2.043-3.199 2.852-.498.731 2.439 2.754 1.534 2.754-1.231 0-.598 1.338-3.165 1.65-3.165.166 0 1.685.993 3.377 2.207 3.538 2.538 3.497 2.547 5.397-1.134.702-1.36 1.347-2.551 1.433-2.647s1.279-.193 2.65-.216c2.054-.036 2.866-.269 4.611-1.327 2.661-1.613 2.79-1.605 3.541.217.339.825.85 2.04 1.134 2.7s.92 2.28 1.413 3.6c2.56 6.849 2.972 6.973 3.975 1.2.268-1.54.828-4.06 1.245-5.6 1.047-3.864 3.924-15.211 4.412-17.4.221-.99.575-2.52.788-3.4s.554-2.5.758-3.6.492-2.495.64-3.1l.269-1.1-2.746.016c-1.876.011-3.191.251-4.147.756"/></svg>
