<svg xmlns="http://www.w3.org/2000/svg" id="rockstar" viewBox="0 0 1006 1280"><path fill="currentColor" d="M0 640v640h11c6.9 0 24.3-1.7 47.2-4.5 54.2-6.7 116.7-14.3 199.8-24.5 41-5 75.5-9.3 76.8-9.5l2.2-.5-.2-240.4c-.2-132.2-.1-240.3.2-240.1s75.6 117.1 167.5 259.9l167 259.6h7.2c6.4 0 11.2-1.2 40.5-10.4 18.3-5.7 49.5-15.4 69.3-21.6 19.8-6.1 47.3-14.7 61-19 13.8-4.3 40.5-12.7 59.5-18.5 19-5.9 48.5-15.1 65.5-20.4l31-9.7.3-10.8.3-10.7-155.7-220.7c-85.7-121.4-157.1-222.4-158.7-224.5s-2.8-3.9-2.6-4.1c.2-.1 4.4-2.6 9.2-5.5 46.2-27.7 91.6-75.2 121.7-127.5 46-79.9 59.6-161.7 43.4-260.9-15.6-96.2-62.5-172.4-139.9-227.6C662.4 44.5 580.3 16 485.3 5.4 441.2.5 448.3.7 217.3.3L0-.1zm386.5-339.9c47.2 5.5 92.5 32.5 114.6 68.3 12.8 20.9 18.9 46.8 17.6 75.1-2.1 43.7-17.1 79.3-46.5 110.6-24.1 25.6-53.2 40.3-86.7 43.9-10.1 1-12.6.9-29.9-1.4-10.3-1.4-18.9-2.6-19-2.6 0 0 0-66 .1-146.7l.3-146.8 12.2-1.1c13.4-1.1 23.3-.9 37.3.7"/></svg>
