<?xml version="1.0" encoding="utf-8"?>
<!-- Generator: Adobe Illustrator 28.3.0, SVG Export Plug-In . SVG Version: 6.00 Build 0)  -->
<svg version="1.1" id="rockstar" xmlns="http://www.w3.org/2000/svg" xmlns:xlink="http://www.w3.org/1999/xlink" x="0px" y="0px"
	 viewBox="0 0 558 530.7" style="enable-background:new 0 0 558 530.7;" xml:space="preserve">
<style type="text/css">
	.st0{fill:#FFFFFF;}
	.st1{stroke:#000000;stroke-width:4;stroke-miterlimit:10;}
	.st2{fill:none;stroke:#000000;stroke-miterlimit:10;}
	.st3{display:none;fill:#603813;}
	.st4{display:none;}
	.st5{display:none;fill:#FFFFFF;}
</style>
<g>
	<path class="st0" d="M441.9,517.6c-27.6-10.5-54.7-22.8-80.7-36.8c-26.6-14.2-52.4-30.4-76.9-48.1c-1.6-1.1-3.4-1.7-5.3-1.7
		c-1.7,0-3.3,0.5-4.8,1.4c-28.5,18-58,35-87.9,50.6c-22.9,11.9-46.5,23.3-70.2,33.7c1.3-25.9,4-51.9,8.3-77.5
		c5.5-33,13.4-65.9,23.7-97.8c1.2-3.8-0.2-7.9-3.4-10.1c-26.7-18.7-52.1-39.8-75.3-62.7c-19.4-19-37.6-39.5-54.3-61
		c27.9-8,56.5-14.1,85.2-18.1c28.1-3.9,56.7-5.9,85-5.9c2.5,0,5,0,7.4,0c0,0,0.1,0,0.1,0c4,0,7.5-2.6,8.6-6.5
		c8.3-28.3,19-56.1,31.7-82.7c13.1-27.5,28.5-54,45.9-79c19.7,28.4,36.8,58.7,51,90.1c10.4,23.2,19.4,47.3,26.6,71.6
		c1.1,3.8,4.6,6.4,8.6,6.4c32.3,0.2,64.9,2.7,96.9,7.3c27.3,4,54.5,9.7,81.2,16.9c-15.2,20.8-32.1,40.4-50.2,58.6
		c-24.1,24.1-50.9,45.9-79.4,64.7c-3.4,2.2-4.8,6.4-3.6,10.2c9.3,29.3,16.7,59.5,22.1,89.7C437.1,459.6,440.4,488.6,441.9,517.6z"/>
	<path d="M279,31.6c16.3,24.8,30.6,50.8,42.8,77.7c10.3,22.8,19.1,46.5,26.2,70.5c2.3,7.6,9.2,12.8,17.2,12.9
		c31.9,0.2,64.1,2.6,95.6,7.2c22.5,3.3,45,7.8,67.2,13.3c-12.8,16.5-26.6,32.2-41.3,46.9c-23.7,23.7-50,45.1-78,63.5
		c-6.7,4.4-9.7,12.8-7.3,20.5c9.2,28.9,16.5,58.7,21.8,88.5c4.2,23.5,7.1,47.5,8.9,71.4c-22.8-9.2-45.1-19.6-66.6-31.2
		c-26.2-14.1-51.7-30-75.9-47.4c-3.1-2.3-6.8-3.4-10.5-3.4c-3.3,0-6.7,0.9-9.6,2.8c-28.2,17.9-57.6,34.8-87.2,50.2
		c-18.4,9.6-37.2,18.8-56.2,27.4c1.5-20.7,3.9-41.4,7.3-61.7c5.4-32.6,13.2-65,23.4-96.5c2.4-7.5-0.3-15.7-6.8-20.3
		c-26.3-18.5-51.3-39.2-74.2-61.7c-15.9-15.6-31-32.2-45.1-49.5c23.4-6.1,47.1-10.9,71-14.2c27.7-3.9,55.9-5.8,83.8-5.8
		c2.4,0,4.9,0,7.3,0c0.1,0,0.1,0,0.2,0c8,0,15-5.2,17.3-12.9c8.2-27.8,18.7-55.2,31.2-81.4C252.2,75.4,264.9,53,279,31.6 M279,0
		c-17.5,24-36.6,54.2-54,90.7c-14.6,30.5-24.8,59.1-32.2,84c-2.5,0-5,0-7.5,0c-25.5,0-54.5,1.6-86.3,6c-38,5.3-71.2,13.5-99,22.1
		c16.4,22.2,37.2,47,63,72.4c26.9,26.4,53.2,47.3,76.5,63.6c-9.1,28.2-17.8,61.4-24,99.1c-5.6,34.2-8.2,65.4-8.9,92.9
		c26.6-11.4,54.7-24.5,83.9-39.7c32.3-16.8,61.8-34,88.5-51c22,15.9,48,32.6,77.9,48.7c34.1,18.3,66.2,31.8,94.5,41.9
		c-1-29.7-3.9-63.8-10.6-101.2c-6-34.1-14-64.5-22.4-90.8c24-15.8,52.2-37.2,80.8-65.9c24.7-24.7,43.9-48.9,58.7-70.1
		c-27.3-7.9-59-15.4-94.6-20.6c-36.3-5.3-69.4-7.3-98.1-7.4c-6.6-22.2-15.3-46.8-27.1-72.8C319.6,60.7,298.4,26.7,279,0L279,0z"/>
	<path d="M279,12c20.5,29.2,38.2,60.4,52.8,92.7c10.5,23.2,19.5,47.4,26.7,71.9c0.9,3,3.6,5,6.7,5c32.4,0.2,65.1,2.7,97.2,7.4
		c28.3,4.1,56.6,10.1,84.2,17.7c-15.7,21.7-33.2,42.2-52.2,61.1c-24.2,24.2-51.1,46.1-79.7,65c-2.6,1.7-3.8,5-2.8,8
		c9.3,29.4,16.8,59.6,22.1,89.9c5.2,29.6,8.6,59.7,10,89.8c-28.7-10.7-56.9-23.5-83.8-38c-26.6-14.3-52.6-30.5-77.1-48.2
		c-1.2-0.9-2.7-1.3-4.1-1.3c-1.3,0-2.6,0.4-3.7,1.1c-28.5,18-58.1,35.1-88,50.7c-23.9,12.5-48.5,24.2-73.3,35.1
		c1.2-27.1,4-54.3,8.4-81c5.5-33.1,13.5-66.1,23.8-98.1c0.9-2.9-0.1-6.1-2.6-7.9c-26.8-18.8-52.2-40-75.6-62.9
		c-20.2-19.8-39.1-41.1-56.3-63.6c28.9-8.4,58.6-14.8,88.3-19c28.2-3.9,56.9-5.9,85.3-5.9c2.5,0,5,0,7.4,0c0,0,0.1,0,0.1,0
		c3.1,0,5.8-2,6.7-5c8.4-28.4,19.1-56.3,31.8-83C244.8,65.3,260.8,37.8,279,12 M279,0c-17.5,24-36.6,54.2-54,90.7
		c-14.6,30.5-24.8,59.1-32.2,84c-2.5,0-5,0-7.5,0c-25.5,0-54.5,1.6-86.3,6c-38,5.3-71.2,13.5-99,22.1c16.4,22.2,37.2,47,63,72.4
		c26.9,26.4,53.2,47.3,76.5,63.6c-9.1,28.2-17.8,61.4-24,99.1c-5.6,34.2-8.2,65.4-8.9,92.9c26.6-11.4,54.7-24.5,83.9-39.7
		c32.3-16.8,61.8-34,88.5-51c22,15.9,48,32.6,77.9,48.7c34.1,18.3,66.2,31.8,94.5,41.9c-1-29.7-3.9-63.8-10.6-101.2
		c-6-34.1-14-64.5-22.4-90.8c24-15.8,52.2-37.2,80.8-65.9c24.7-24.7,43.9-48.9,58.7-70.1c-27.3-7.9-59-15.4-94.6-20.6
		c-36.3-5.3-69.4-7.3-98.1-7.4c-6.6-22.2-15.3-46.8-27.1-72.8C319.6,60.7,298.4,26.7,279,0L279,0z"/>
</g>
<g>
	<g>
		<path class="st0" d="M332.9,493.9c-0.4,0-0.8,0-1.1-0.1c-13-2.3-26-5.6-38.5-9.6c-13.1-4.2-26-9.4-38.3-15.5c-0.4,0-0.8,0-1.1,0
			c-10.1,0-20.3-0.8-30.3-2.5c-10.6-1.7-21.1-4.4-31.1-7.9c-0.2-0.1-0.4-0.1-0.6-0.2c-16.5-7.4-30.9-18.5-41.5-32
			c-20.4-25.8-22-53.4-21.2-67.5c0-0.1,0-0.1,0-0.2c1-11.1,2.8-22.3,5.2-33.2c3.1-13.6,9.5-29.1,14.2-40.4c0,0,0,0,0-0.1
			c-22.7-34.1-39-66.6-48.5-96.6C96.7,177.4,68,81.7,120.5,58.9c4.6-2,9.2-3,13.4-3c31.1,0,39.5,49.7,45.6,86
			c1.7,9.9,3.1,18.5,4.7,24.2c4,14.3,10.4,28.5,19.1,42.1c10-10.9,24.2-17.4,39-17.4c0.8,0,1.7,0,2.5,0.1c12.5,0.6,22,5.7,28.2,10.2
			c7.3-5.7,22.2-14.9,42-14.9c2.9,0,5.8,0.2,8.7,0.6c16.3,2.2,27.9,9.8,35.3,16.6c6.8-27.1,9.4-54.6,11.8-79.3
			c2.3-23.7,4.3-44.2,9.4-59.4c6.4-18.8,17.3-27.9,33.3-27.9c0.8,0,1.6,0,2.4,0.1c2.3,0.1,22.6,1.6,31.9,12.5
			C479.3,86.3,465,137.8,447,203c-9.6,34.8-20.5,74.2-25.7,116.9c20.6,19,30.6,40.1,29.8,62.6c-1.3,32.9-26.7,63.2-50.2,80.7
			c-30,22.4-57.4,30.7-67.7,30.7L332.9,493.9z"/>
		<path d="M413.6,43.8c0.7,0,1.3,0,2,0.1c5.2,0.3,20.5,2.5,27,10.1c45.6,53.7-14.6,146.2-28.6,268.8
			c63.7,55.7,11.1,113.7-17.2,134.9c-29.1,21.7-55,29.3-63.5,29.3c-0.1,0-0.1,0-0.2,0c-11.2-2-23.9-5-37.6-9.4
			c-15.1-4.9-28.1-10.5-38.9-15.8c-0.9,0-1.8,0-2.7,0c-8.3,0-18.2-0.6-29.1-2.4c-11.8-1.9-21.9-4.8-29.9-7.6
			c-9.1-4.1-25.5-12.9-38.9-29.9c-20.6-26.1-20.3-53.9-19.8-62.7c0.9-9.7,2.4-20.5,5.1-32.3c3.3-14.5,10.9-32,15.3-42.8
			c-15.4-22.8-37.3-58.8-49.7-97.9c-7.6-24-26-102.3,16.6-120.8c3.9-1.7,7.4-2.5,10.6-2.5c32.7,0,36.2,78.5,43.5,105.1
			c3.6,12.9,10.5,31.3,25.5,52.2c8.5-13.8,23.5-22.3,39.3-22.3c0.7,0,1.4,0,2.1,0.1c15.7,0.8,25.9,9.8,28.6,12.4
			c1.5-1.5,17.5-17.1,41.9-17.1c2.5,0,5.1,0.2,7.8,0.5c25.1,3.4,37.7,21.4,39.5,24C387.4,134.4,368.4,43.8,413.6,43.8 M413.6,29.8
			C413.6,29.8,413.6,29.8,413.6,29.8c-10.3,0-19.2,3.3-26.2,9.9c-5.9,5.4-10.3,12.9-13.7,22.8c-5.4,16-7.4,36.8-9.8,61
			c-2,21.2-4.3,44.4-9.2,67.7c-7.7-5.1-17.6-9.6-30-11.3c-3.2-0.4-6.4-0.7-9.6-0.7c-18.7,0-33.2,7.2-42.2,13.3
			c-6.8-4.2-16.2-8.1-27.7-8.7c-0.9,0-1.9-0.1-2.8-0.1c-13.6,0-26.9,4.9-37.4,13.4c-6.1-10.8-10.8-21.8-13.9-33
			c-1.5-5.4-3-14.2-4.5-23.5c-2.9-17-6.4-38.1-12.7-55.2c-3.8-10.4-8.2-18.3-13.5-24.2C151.1,51,140.9,48.8,134,48.8
			c-5.3,0-10.7,1.2-16.2,3.6c-16.4,7.2-36,25.3-35.5,71.3c0.3,29.9,8.6,58.5,11.2,66.6c9.4,29.7,25.3,61.7,47.3,95.2
			c-4.6,11.1-10.2,25.3-13.2,38.1c-2.6,11.2-4.4,22.7-5.4,34.1c0,0.1,0,0.3,0,0.4c-0.9,15.1,1,44.6,22.7,72.2
			c11.3,14.3,26.6,26.1,44.1,34c0.4,0.2,0.7,0.3,1.1,0.4c10.4,3.7,21.3,6.4,32.3,8.2c10.2,1.7,20.6,2.5,30.9,2.6
			c12.2,5.9,24.8,11,37.8,15.1c12.8,4.1,26.1,7.5,39.4,9.8c0.7,0.1,1.5,0.2,2.3,0.2c0.1,0,0.3,0,0.4,0c11.6,0,40.3-8.5,71.9-32.1
			c7.2-5.4,21-16.8,32.9-33.2c12.6-17.4,19.3-35.2,20-52.8c0.9-23.7-9-45.6-29.4-65.5c5.3-40.9,15.8-78.8,25.1-112.4
			c9.1-32.8,16.9-61.2,19-87.1c1.2-14.6,0.4-27.2-2.3-38.6c-3.1-12.9-8.9-24.4-17.3-34.3c-11-12.9-32.6-14.7-36.8-15
			C415.4,29.8,414.5,29.8,413.6,29.8L413.6,29.8z"/>
	</g>
	<path class="st0" d="M123.3,65.3c-43.2,17.2-24.2,96.8-16.6,120.8c12.4,39.1,34.3,75.1,49.7,97.9c-4.4,10.8-18.9,87.9,1.7,114
		c13.4,17,43.1,41.2,100.7,39.9c10.8,5.4,80.3,63.6,140.2-4.1c27-30.5,53.9-54.3,14.9-111c14-122.6,74.2-215.2,28.6-268.8
		c-6.5-7.6-21.7-9.7-27-10.1c-45.3-3.3-30.3,87.7-53.3,173.9c-1.8-2.6-14.4-20.7-39.5-24c-28.7-3.9-48.1,14.9-49.7,16.5
		c-2.8-2.6-13-11.7-28.6-12.4c-16.5-0.8-32.6,7.9-41.4,22.3c-14.9-20.9-21.9-39.2-25.5-52.2C169.4,138.7,166,48.3,123.3,65.3z"/>
	<path class="st1" d="M382.4,403.1c1.2,0.3-36.1-14.2-35-36.1c0.3-5.2,2.7-9.7,5.8-13.5c1-1.1-0.4-2.7-1.8-2.1
		c-12.7,5.7-31.5,12-54.7,12.1c-10.9,0-20.4-1.3-28.3-3c-1.9-0.3-15.7-2.6-23.3-14.8c-2.2-3.5-3.1-6.6-3.2-9.4c0,0-0.7-7.3,4.2-15
		c6.8-10.8,19.6-17.4,73.6-15.8c68.8,2.1,79.9,27.9,91.4,44.7c0.9,1.4,3.2,0.4,2.7-1.1c-6.5-18.5-21.8-46.6-66.9-50.5
		c-0.9-0.1-1.5-0.9-1.3-1.7c2.6-8.9,5.3-26.5,10.1-52.6c0.3-1.7-2.3-2.3-2.9-0.7c-6.4,17.2-11.4,34.8-16.9,53.4
		c-0.2,0.7-0.9,1.1-1.7,1c-15.2-2.2-51.6-0.3-62.9,0.9c-0.8,0.1-1.5-0.4-1.6-1.1c-1.9-9.8-3.5-21.9-3.3-35.7
		c0.1-8.9,0.9-17.1,2-24.4c0.2-1.6-2.3-2.2-2.9-0.7c-2.6,6.7-5,14.7-6.4,23.9c-2.5,15.7-1.2,29,0.5,38.3c0.1,0.7-0.3,1.3-1,1.5
		c-3.5,1.1-6.4,2.5-8.8,3.9c-12.1,7.3-16.2,24.1-17.5,33.6c-0.4,3-4.3,4.4-6.8,2.4c-10.1-7.9-25.8-16.7-30.4-39.3
		c-6-29.4,6.8-60.3,9.8-64.1c-3.6,4.4-25.6,32.8-16.9,69.5c7,29.6,36.7,50.8,69.2,60.5c0.8,0.3,1.3,1.1,0.9,1.9
		c-19.4,41.5-5,57.1-3.8,57.2c2.3,0.3-6.3-34.6,22-50.7c19-10.9,9.6-5.9,40.5-8C353.1,364.9,335.2,391.3,382.4,403.1z"/>
	<path class="st2" d="M487.2,255.9"/>
	<path class="st2" d="M319.4,258.2"/>
	<path class="st3" d="M221,310.1c8.2-5.4,68.7-10.7,78.1-8.9c10,3.3,15.2,17.1-2.1,44.7c-20.7-0.6-34.3,0-69,8.6
		C216.6,352.7,208.2,315,221,310.1z"/>
	<path class="st4" d="M221,310.1c7.8-5,53.7-13.3,73.2-8.9c9.6,3,16.4,14-0.2,39.5c-16.5-1.7-33.8,2.3-68,9.8
		C215.2,348.7,208.8,314.6,221,310.1z"/>
	<path class="st5" d="M252,304.9c13.5-2.5,29-4.2,38.9-1.4c1.6,0.4,4.8,2.1,6.9,5.7c3,5.1,2.2,16.4-3.5,23.3
		c-6.5-2.2,2.6-17.4-4-20.8c-6.1-3.2-18.1-3.5-38.9,0.5c-19.4,3.7-33.1,11.5-33.1,15.6C215.9,313.9,225,310,252,304.9z"/>
</g>
</svg>
