<?xml version="1.0" encoding="utf-8"?>
<!-- Generator: Adobe Illustrator 28.3.0, SVG Export Plug-In . SVG Version: 6.00 Build 0)  -->
<svg version="1.1" id="rockstar" xmlns="http://www.w3.org/2000/svg" xmlns:xlink="http://www.w3.org/1999/xlink" x="0px" y="0px"
	 viewBox="0 0 558 530.7" style="enable-background:new 0 0 558 530.7;" xml:space="preserve">
<g>
	<path d="M346.8,298.5c-0.9-0.1-1.5-0.9-1.3-1.7c2.6-8.9,5.3-26.5,10.1-52.6c0.3-1.7-2.3-2.3-2.9-0.7c-6.4,17.2-11.4,34.8-16.9,53.4
		c-0.2,0.7-0.9,1.1-1.7,1c-15.2-2.2-51.6-0.3-62.9,0.9c-0.8,0.1-1.5-0.4-1.6-1.1c-1.9-9.8-3.5-21.9-3.3-35.7
		c0.1-8.9,0.9-17.1,2-24.4c0.2-1.6-2.3-2.2-2.9-0.7c-2.6,6.7-5,14.7-6.4,23.9c-2.5,15.7-1.2,29,0.5,38.3c0.1,0.7-0.3,1.3-1,1.5
		c-3.5,1.1-6.4,2.5-8.8,3.9c-12.1,7.3-16.2,24.1-17.5,33.6c-0.4,3-4.3,4.4-6.8,2.4c-10.1-7.9-25.8-16.7-30.4-39.3
		c-6-29.4,6.8-60.3,9.8-64.1c-3.6,4.4-25.6,32.8-16.9,69.5c7,29.6,36.7,50.8,69.2,60.5c0.8,0.3,1.3,1.1,0.9,1.9
		c-19.4,41.5-5,57.1-3.8,57.2c2.3,0.3-6.3-34.6,22-50.7c19-10.9,9.6-5.9,40.5-8c36.4-2.6,18.4,23.9,65.6,35.6
		c1.2,0.3-36.1-14.2-35-36.1c0.3-5.2,2.7-9.7,5.8-13.5c1-1.1-0.4-2.7-1.8-2.1c-12.7,5.7-31.5,12-54.7,12.1c-10.9,0-20.4-1.3-28.3-3
		c-1.9-0.3-15.7-2.6-23.3-14.8c-2.2-3.5-3.1-6.6-3.2-9.4c0,0-0.7-7.3,4.2-15c6.8-10.8,19.6-17.4,73.6-15.8
		c68.8,2.1,79.9,27.9,91.4,44.7c0.9,1.4,3.2,0.4,2.7-1.1C407.1,330.5,391.9,302.4,346.8,298.5z"/>
	<path d="M552.6,211.7c2.8-3.8,0.8-9.2-3.7-10.4c-25.1-6.9-53.7-13.3-85.4-18c-1.2-0.2-2.5-0.3-3.7-0.5c6.4-23.7,11.4-45.1,13-65.1
		c1.2-14.6,0.4-27.2-2.3-38.6c-3.1-12.9-8.9-24.4-17.3-34.3c-11-12.9-32.6-14.7-36.8-15c-0.9-0.1-1.9-0.1-2.8-0.1c0,0,0,0,0,0
		c-10.3,0-19.2,3.3-26.2,9.9c-5.9,5.4-10.3,12.9-13.7,22.8c-5.4,16-7.4,36.8-9.8,61c-1.1,11.3-2.3,23.3-3.8,35.5
		c-5.8-17.5-12.9-36.3-21.7-55.8c-16.8-37.4-35.8-68.7-53.6-94.2c-2.7-3.8-8.3-3.8-11,0c-15.9,22.6-32.9,50.3-48.5,83
		c-14,29.4-24,56.9-31.3,81.1c-1-2.9-2-5.9-2.8-8.8c-1.5-5.4-3-14.2-4.5-23.5c-2.9-17-6.4-38.1-12.7-55.2
		c-3.8-10.4-8.2-18.3-13.5-24.2C151.1,51,140.9,48.8,134,48.8c-5.3,0-10.7,1.2-16.2,3.6c-16.4,7.2-36,25.3-35.5,71.3
		c0.2,23.8,5.6,46.8,9,59.2c-30.6,4.7-58.1,11.2-81.8,18.1c-4.6,1.3-6.3,6.8-3.5,10.6c15.4,20.1,34.3,42.2,57.2,64.6
		c21.8,21.4,43.3,39.2,63,53.9c-1.8,9.2-3.2,18.4-4,27.7c0,0.1,0,0.3,0,0.4c-0.4,7.8-0.2,19.5,3.2,32.7c-3.6,15.1-6.9,31.1-9.7,48
		c-4.9,29.8-7.5,57.4-8.5,82.2c-0.2,5,4.9,8.5,9.4,6.5c23.7-10.4,48.5-22.1,74.1-35.5c11.8-6.2,23.3-12.4,34.4-18.6
		c9.4,1.4,18.9,2.1,28.3,2.2c12.2,5.9,24.8,11,37.8,15.1c12.8,4.1,26.1,7.5,39.4,9.8c0.7,0.1,1.5,0.2,2.3,0.2c0.1,0,0.3,0,0.4,0
		c6,0,16.6-2.3,29.8-7.8c28.1,14.7,54.8,26.3,79,35.3c4.5,1.7,9.3-1.8,9.1-6.6c-1.3-27.1-4.3-57.6-10.1-90.6
		c10.6-16,16.4-32.2,17-48.4c0.8-19.9-6.1-38.7-20.5-55.9c19.4-14,40.5-31.4,61.9-52.8C521.1,252.4,538.6,231,552.6,211.7z
		 M210.2,181c8.2-27.8,18.7-55.2,31.2-81.4c11-23.1,23.6-45.4,37.8-66.8c16.3,24.8,30.6,50.8,42.8,77.7
		c10.3,22.8,19.1,46.5,26.2,70.5c1.2,3.9,3.6,7.2,6.7,9.4c0,0.2-0.1,0.4-0.1,0.7c-7.7-5.1-17.6-9.6-30-11.3
		c-3.2-0.4-6.4-0.7-9.6-0.7c-18.7,0-33.2,7.2-42.2,13.3c-6.8-4.2-16.2-8.1-27.7-8.7c-0.9,0-1.9-0.1-2.8-0.1
		c-13.6,0-26.9,4.9-37.4,13.4c-1.1-1.9-2.1-3.7-3-5.6C205.8,189.3,208.8,185.6,210.2,181z M30.6,213.9c21.8-5.7,44-10.3,66.2-13.5
		c9.6,26.8,24.4,55.4,43.9,85.2c-3.1,7.6-6.8,16.6-9.7,25.7c-19.4-14.8-37.9-30.8-55.3-47.8C59.8,247.8,44.7,231.2,30.6,213.9z
		 M182.3,476.2c-18.4,9.6-37.2,18.8-56.2,27.4c1.5-20.7,3.9-41.4,7.3-61.7c1.2-7.4,2.6-14.7,4-22.1c2.2,3.6,4.6,7.1,7.4,10.7
		c11.3,14.3,26.6,26.1,44.1,34c0.4,0.2,0.7,0.3,1.1,0.4c2.8,1,5.5,1.9,8.3,2.7C193.1,470.6,187.7,473.4,182.3,476.2z M383.2,483.2
		c7-4,14.4-8.8,21.9-14.4c4.8-3.6,12.6-9.9,20.8-18.7c2.8,18.3,4.9,36.7,6.2,55.1C415.5,498.6,399.2,491.2,383.2,483.2z
		 M396.7,457.6c-29.1,21.7-55,29.3-63.5,29.3c-0.1,0-0.1,0-0.2,0c-11.2-2-23.9-5-37.6-9.4c-15.1-4.9-28.1-10.5-38.9-15.8
		c-0.9,0-1.8,0-2.7,0c-8.3,0-18.2-0.6-29.1-2.4c-11.8-1.9-21.9-4.8-29.9-7.6c-9.1-4.1-25.5-12.9-38.9-29.9
		c-20.6-26.1-20.3-53.9-19.8-62.7c0.9-9.7,2.4-20.5,5.1-32.3c3.3-14.5,10.9-32,15.3-42.8c-15.4-22.8-37.3-58.8-49.7-97.9
		c-7.6-24-26-102.3,16.6-120.8c3.9-1.7,7.4-2.5,10.6-2.5c32.7,0,36.2,78.5,43.5,105.1c3.6,12.9,10.5,31.3,25.5,52.2
		c8.5-13.8,23.5-22.3,39.3-22.3c0.7,0,1.4,0,2.1,0.1c15.7,0.8,25.9,9.8,28.6,12.4c1.5-1.5,17.5-17.1,41.9-17.1
		c2.5,0,5.1,0.2,7.8,0.5c25.1,3.4,37.7,21.4,39.5,24c25.1-83.3,6.1-174,51.3-174c0.7,0,1.3,0,2,0.1c5.2,0.3,20.5,2.5,27,10.1
		c45.6,53.7-14.6,146.2-28.6,268.8C477.6,378.4,425,436.5,396.7,457.6z M429.6,310.3c5.6-38.2,15.4-73.7,24.1-105.4
		c0.4-1.5,0.8-3,1.3-4.5c2,0.3,3.9,0.5,5.8,0.8c22.5,3.3,45,7.8,67.2,13.3c-12.8,16.5-26.6,32.2-41.3,46.9
		C469,279,449.9,295.4,429.6,310.3z"/>
</g>
</svg>
