<svg xmlns="http://www.w3.org/2000/svg" id="a" viewBox="0 0 328.43 280.37"><path d="M280.97 186.24c-14.02-10.15-29.84-15.22-47.46-15.22-22.43 0-42.99 9.35-61.68 28.04l-81.31 81.31c-20.83-13.88-37.39-32.04-49.67-54.47-12.29-22.43-18.42-46.59-18.42-72.5 0-17.62 3.2-35.38 9.61-53.27h116.55V83.31H28.04a145.3 145.3 0 0 1-18.02-33.64H148.6V32.85H4.81C2.13 22.43.53 11.48 0 0l175.43.4c27.77 0 53.33 6.88 76.7 20.63 23.36 13.75 41.92 32.31 55.67 55.67 13.75 23.37 20.63 48.93 20.63 76.7 0 25.9-6.01 50.07-18.02 72.5-5.61-16.28-15.42-29.5-29.44-39.65Zm-16.42-71.09c3.33-3.34 5.01-7.41 5.01-12.22s-1.67-8.87-5.01-12.21-7.41-5.01-12.22-5.01-8.88 1.67-12.21 5.01q-5.01 5.01-5.01 12.21c0 7.2 1.67 8.88 5.01 12.22 3.33 3.34 7.41 5.01 12.21 5.01s8.87-1.67 12.22-5.01"/></svg>
