<svg xmlns="http://www.w3.org/2000/svg" id="a" viewBox="0 0 400 647"><path d="M398 2.4c0 1.867-.133 2.4-.6 2.4q-.6 0-.6 1.2t-.6 1.2c-.404 0-.6.404-.6 1.237 0 .901-.217 1.295-.8 1.447-.44.115-.8.458-.8.763 0 .304-.27.553-.6.553s-.6.27-.6.6-.27.6-.6.6c-.333 0-.6.356-.6.8 0 .541-.267.8-.824.8-.481 0-.714.177-.559.427.145.235-.114.526-.577.647-.462.12-.84.468-.84.773 0 .348-.445.553-1.2.553s-1.2.205-1.2.553c0 .305-.36.648-.8.763s-.8.496-.8.847c0 .441-.369.637-1.2.637q-1.2 0-1.2.6c0 .333-.356.6-.8.6s-.8.267-.8.6q0 .6-1.2.6c-.933 0-1.2.178-1.2.8 0 .648-.267.8-1.4.8-.978 0-1.4.181-1.4.6q0 .6-1.2.6t-1.2.6c0 .419-.422.6-1.4.6s-1.4.181-1.4.6c0 .373-.377.6-.997.6-.563 0-1.213.348-1.496.8-.357.571-.933.8-2.016.8-.979 0-1.598.213-1.746.6-.142.37-.75.6-1.588.6-.94 0-1.357.185-1.357.6 0 .354-.369.602-.9.605-1.527.01-2.7.462-2.7 1.042 0 .365-.475.553-1.4.553-.978 0-1.4.181-1.4.6 0 .453-.489.6-2 .6s-2 .147-2 .6-.489.6-2 .6-2 .147-2 .6c0 .33-.315.615-.7.633-1.952.093-2.662.3-3.104.905-.33.451-1.074.662-2.34.662-1.383 0-1.856.153-1.856.6 0 .46-.508.6-2.171.6-1.397 0-2.386.214-2.772.6-.341.341-1.318.6-2.266.6-1.329 0-1.708.162-1.875.8-.18.686-.546.8-2.575.8-1.734 0-2.428.16-2.596.6-.161.418-.812.6-2.145.6s-1.984.182-2.145.6c-.169.442-.867.6-2.642.6-1.878 0-2.413.133-2.413.6 0 .438-.458.601-1.7.605-2.279.008-3.5.371-3.5 1.042 0 .413-.646.553-2.551.553-1.78 0-2.702.181-3.049.6-.354.426-1.289.6-3.229.6-1.985 0-2.821.16-3.06.587-.22.393-1.082.611-2.612.661-1.83.06-2.331.222-2.519.813-.201.637-.673.739-3.407.739-2.554 0-3.173.117-3.173.6 0 .477-.58.6-2.824.6-1.56 0-2.724.16-2.602.358.349.565-.831.842-3.587.842-1.881 0-2.638.162-2.893.618-.249.444-1.171.661-3.289.772-2.138.113-3.039.327-3.294.783-.269.48-1.036.627-3.282.627-2.117 0-3.069.167-3.429.6-.365.44-1.333.6-3.62.6-2.243 0-3.292.169-3.723.6-.429.429-1.474.6-3.666.6-2.729 0-3.089.088-3.275.8-.191.729-.546.8-3.975.8-2.979 0-3.814.125-3.996.6-.179.467-.969.6-3.559.6-2.426 0-3.492.163-3.929.6-.423.423-1.464.602-3.528.605-3.461.007-4.729.286-4.729 1.042 0 .432-.833.553-3.813.553-3.019 0-3.86.125-4.042.6s-1.018.6-4 .6-3.818.125-4 .6c-.182.474-1.017.6-3.988.6-2.965 0-3.757.119-3.757.564 0 .44-.923.593-4.233.7-3.467.111-4.325.263-4.744.836-.426.583-1.156.7-4.367.7-3.161 0-3.856.108-3.856.6 0 .499-.778.6-4.6.6s-4.6.101-4.6.6c0 .493-.707.6-3.967.6-4.3 0-5.233.186-5.233 1.043 0 .444-.935.557-4.6.557-3.822 0-4.6.101-4.6.6s-.778.6-4.6.6-4.6.101-4.6.6-.778.6-4.6.6-4.6.101-4.6.6c0 .495-.731.6-4.181.6-3.906 0-6.219.47-6.219 1.264 0 .185-2.076.336-4.613.336-3.731 0-4.656.115-4.842.6-.186.484-1.101.6-4.739.6-3.519 0-4.617.132-5.006.6-.39.47-1.496.6-5.086.6-4.252 0-4.604.059-4.798.8-.195.746-.546.8-5.175.8-4.045 0-5.009.111-5.196.6-.186.485-1.106.6-4.788.6-3.784 0-4.557.102-4.557.6 0 .5-.797.6-4.771.6-3.623 0-4.911.139-5.349.577-.401.401-1.657.601-4.128.658-4.492.103-5.752.325-5.752 1.015 0 .434-.957.55-4.557.55-3.682 0-4.602.115-4.788.6-.185.483-1.084.6-4.6.6s-4.414.117-4.6.6c-.182.475-1.019.6-4.01.6-4.098 0-5.045.193-5.045 1.028 0 .412-.939.571-3.9.658-2.859.083-3.873.247-3.8.614.075.373-.913.5-3.9.5-3.289 0-4 .107-4 .6 0 .475-.569.6-2.724.6-1.775 0-2.993.204-3.5.587-.427.323-1.453.593-2.28.6-.997.009-1.735.282-2.189.813-.426.498-1.18.8-1.996.8H0v75.833c0 41.709.135 75.768.3 75.687.562-.274 2.697-1.231 3.96-1.776.694-.299 1.627-.544 2.074-.544.448 0 1.317-.191 1.932-.425 1.113-.423 4.83-1.183 10.534-2.153 7.487-1.274 8.815-1.495 12.2-2.033 6.65-1.056 9.178-1.433 13.4-1.996 7.808-1.043 10.589-1.444 14-2.02 1.87-.316 4.071-.574 4.892-.574.82.001 2.89-.258 4.6-.574a133 133 0 0 1 6.708-1.014c6.269-.763 12.294-1.527 15.6-1.977 1.76-.24 5.18-.703 7.6-1.03 2.42-.326 5.84-.791 7.6-1.033s5.18-.684 7.6-.982 5.75-.734 7.4-.97 5.07-.709 7.6-1.05 5.86-.805 7.4-1.031 4.78-.669 7.2-.986c11.008-1.445 19.303-2.626 29.2-4.158 1.54-.238 4.6-.689 6.8-1.002 9.879-1.404 15.556-2.254 21.4-3.205 1.87-.304 4.21-.658 5.2-.788s2.61-.412 3.6-.627 2.97-.548 4.4-.741 3.77-.548 5.2-.791 4.22-.709 6.2-1.035 4.77-.793 6.2-1.038 4.04-.684 5.8-.975c9.304-1.54 11.215-1.888 23.2-4.219 2.379-.463 4.834-.925 11.4-2.146 1.87-.347 3.67-.732 4-.856.33-.123 2.04-.495 3.8-.828 7.586-1.434 12.096-2.398 14.835-3.17 1.119-.315 2.404-.573 2.854-.573s1.695-.257 2.765-.57c1.07-.314 3.656-.953 5.746-1.421s4.7-1.088 5.8-1.378a732 732 0 0 1 7.8-2.016l4.6-1.161c1.32-.334 3.66-.988 5.2-1.454s3.53-1.005 4.423-1.197 2.063-.521 2.6-.73 2.327-.784 3.977-1.277c4.865-1.454 14.897-4.798 16.26-5.42.694-.317 1.453-.576 1.687-.576s1.107-.29 1.939-.644c2.844-1.211 3.915-1.656 5.714-2.374.99-.395 3.87-1.706 6.4-2.914 3.405-1.625 5.192-2.242 6.88-2.378 1.552-.125 2.498-.424 2.962-.937.375-.414 1.014-.753 1.42-.753s.738-.27.738-.6q0-.6 1.2-.6t1.2-.6c0-.333.356-.6.8-.6.44 0 .755-.21.7-.467s.485-.643 1.2-.858 1.3-.635 1.3-.933.276-.542.613-.542.716-.27.842-.6c.127-.33.481-.6.788-.6.306 0 .557-.27.557-.6s.27-.6.6-.6c.333 0 .6-.356.6-.8s.267-.8.6-.8c.33 0 .6-.27.6-.6 0-.333.356-.6.8-.6.44 0 .8-.193.8-.429 0-.235.27-.698.6-1.028s.6-1.037.6-1.572c0-.596.231-.971.6-.971.373 0 .6-.378.6-1 0-.55.18-1 .4-1 .265 0 .4-26.333.4-78.2V0h-1c-.956 0-1 .107-1 2.4m-17.2 172.613c0 .323.27.587.6.587s.6-.161.6-.357c0-.197-.27-.461-.6-.588-.365-.14-.6 0-.6.358m18.156 28.887c-1.649 5.276-8.354 12.178-16.612 17.1-4.064 2.423-11.564 6.089-17.144 8.382-1.43.587-3.167 1.327-3.86 1.643s-1.513.575-1.82.575-.731.163-.94.363-1.01.548-1.78.775c-1.744.515-4.739 1.568-5.8 2.04-1.119.498-11.958 3.982-14.5 4.661a308 308 0 0 0-9.1 2.561c-1.54.459-3.79 1.088-5 1.397-5.359 1.368-7.565 1.912-9.951 2.452-1.403.318-2.877.752-3.274.964-.397.213-1.123.387-1.614.387-.49 0-1.807.26-2.926.577s-3.745.958-5.835 1.423-4.88 1.093-6.2 1.393a442 442 0 0 1-9.5 2.054l-5.4 1.106c-1.485.304-3.6.745-4.7.979s-3.53.72-5.4 1.079c-1.87.36-4.66.905-6.2 1.212s-4.87.929-7.4 1.383a1606 1606 0 0 0-13.2 2.423c-1.43.268-4.04.714-5.8.989-5.869.92-8.773 1.395-12 1.962-1.76.31-4.91.839-7 1.177-2.09.337-5.42.891-7.4 1.231-1.98.339-4.77.788-6.2.998s-3.86.575-5.4.811-4.51.688-6.6 1.003-5.15.783-6.8 1.039c-1.65.257-4.62.693-6.6.97-10.921 1.526-12.853 1.82-13.4 2.038-.649.259-8.947.823-17.6 1.196-3.938.17-5.52.385-5.844.795-.335.424-1.572.562-5.051.562-3.607 0-4.715.13-5.105.6-.382.46-1.442.601-4.549.606-3.908.006-5.268.289-4.985 1.039.074.195-2.053.405-4.727.467-3.685.085-4.979.254-5.349.7-.377.454-1.523.588-5.039.588-3.779 0-4.551.102-4.551.6 0 .494-.758.605-4.3.631-4.847.034-5.71.138-6.078.733-.149.241-2.005.439-4.381.468-3.473.042-4.243.17-4.882.809-.661.661-1.379.759-5.572.759-3.908 0-4.855.113-5.042.6-.186.485-1.106.6-4.788.6-3.784 0-4.557.102-4.557.6 0 .499-.778.6-4.6.6-4.067 0-4.693.093-5.4.8-.698.698-1.333.8-4.98.8-3.171 0-4.257.136-4.5.562-.234.41-1.441.599-4.487.7-2.875.095-4.219.293-4.333.638-.118.355-1.311.5-4.113.5-2.957 0-4.027.14-4.267.558-.225.392-1.369.6-3.852.7-2.792.112-3.64.289-4.044.842-.41.561-1.119.7-3.568.7-2.45 0-3.056.119-3.056.6 0 .472-.556.6-2.6.6s-2.6.128-2.6.6c0 .453-.489.6-2 .6-1.733 0-2 .107-2 .8 0 .44-.18.8-.4.8-.265 0-.4 25.349-.4 75.247 0 71.48.035 75.235.7 75.026.385-.121 2.05-.674 3.7-1.228 5.202-1.747 18.688-4.295 34-6.425 4.304-.598 8.469-1.201 14-2.026a448 448 0 0 1 13.4-1.802c1.76-.208 5.18-.657 7.6-.997 2.42-.341 6.425-.884 8.9-1.207l9-1.176c2.475-.323 6.57-.872 9.1-1.221 2.53-.348 5.23-.704 6-.791s3.47-.441 6-.787 6.58-.893 9-1.216 5.84-.792 7.6-1.043 5-.682 7.2-.958c7.895-.991 11.249-1.466 14.308-2.027 1.71-.313 3.731-.569 4.492-.569s2.782-.259 4.492-.575a170 170 0 0 1 6.308-1.017c6.5-.897 11.273-1.58 14-2.002 1.54-.238 4.51-.691 6.6-1.006s5.06-.768 6.6-1.006c1.54-.239 4.51-.686 6.6-.994 6-.884 9.172-1.392 12.4-1.988 1.65-.305 4.35-.769 6-1.031 7.932-1.261 9.584-1.526 12-1.927 6.098-1.01 10.391-1.746 13.2-2.262 1.65-.303 4.53-.828 6.4-1.168s4.3-.784 5.4-.987 3.17-.58 4.6-.837a85 85 0 0 0 4.826-1.033c1.225-.312 2.639-.567 3.143-.567s2.112-.264 3.574-.586c1.461-.323 4.457-.959 6.657-1.414 6.412-1.326 9.834-2.051 12.4-2.628 1.32-.297 4.11-.917 6.2-1.379s4.34-.998 5-1.192 1.92-.471 2.8-.615 2.5-.503 3.6-.798l3.8-1.02c.99-.267 2.79-.716 4-.999 4.305-1.007 5.624-1.354 12.297-3.234a563 563 0 0 0 4.103-1.173c.99-.289 2.79-.81 4-1.158 4.576-1.316 7.847-2.316 9.2-2.814.77-.282 2.66-.905 4.2-1.383s3.367-1.125 4.06-1.438c.694-.313 1.453-.569 1.687-.569s1.017-.258 1.739-.573 3.024-1.236 5.114-2.046c4.17-1.617 5.274-2.097 10.6-4.604 1.98-.933 4.41-1.857 5.4-2.054s2.309-.463 2.932-.591 1.226-.48 1.343-.782.731-.55 1.368-.55c.762 0 1.157-.205 1.157-.6 0-.33.27-.6.6-.6.333 0 .6-.356.6-.8 0-.648.267-.8 1.4-.8.978 0 1.4-.181 1.4-.6 0-.33.27-.6.6-.6s.6-.27.6-.6.276-.6.613-.6.716-.27.842-.6c.127-.33.449-.6.716-.6.747 0 3.029-2.192 3.029-2.909 0-.35.36-.751.8-.891s.8-.602.8-1.027.27-.773.6-.773.6-.27.6-.6.27-.6.6-.6c.419 0 .6-.422.6-1.4 0-.77.18-1.4.4-1.4.265 0 .4-25.667.4-76.2 0-72.499-.084-78.571-1.044-75.5M0 251c0 .33.18.6.4.6s.4-.27.4-.6-.18-.6-.4-.6-.4.27-.4.6m14.4 4c.274.33.65.6.836.6.187 0 .235-.27.109-.6-.127-.33-.503-.6-.837-.6-.493 0-.513.112-.108.6m7.675 1.425c.096.289.411.604.7.7.3.1.45-.05.35-.35-.096-.289-.411-.604-.7-.7-.3-.1-.45.05-.35.35m55.217 7.65c.247.742 1.108.865 1.108.158a.635.635 0 0 0-.633-.633c-.349 0-.562.214-.475.475m19.908 2.649c0 .215.285.5.633.633.39.15.573.061.475-.232-.199-.598-1.108-.927-1.108-.401m16.5 2.352c.385.1 1.015.1 1.4 0 .385-.101.07-.183-.7-.183s-1.085.082-.7.183m22.775 2.949c.096.289.411.604.7.7.3.1.45-.05.35-.35-.096-.289-.411-.604-.7-.7-.3-.1-.45.05-.35.35M398.941 403.1c-2.079 8.338-18.074 19.82-37.74 27.09-11.868 4.388-19.214 6.803-30.601 10.06-6.808 1.948-10.708 2.989-16 4.272-4.505 1.092-6.4 1.586-8.171 2.132-.974.3-2.169.546-2.654.546-.486 0-1.759.26-2.829.579s-3.746.96-5.946 1.426-5.08 1.089-6.4 1.384c-1.32.296-3.75.821-5.4 1.168s-3.9.827-5 1.067-3.26.672-4.8.96-3.79.727-5 .976-3.64.729-5.4 1.068c-1.76.338-4.1.805-5.2 1.038-1.994.423-4.781.921-11.6 2.073-1.98.335-4.5.789-5.6 1.008-1.1.22-3.8.698-6 1.064s-5.44.92-7.2 1.232-4.37.738-5.8.946c-4.787.696-8.177 1.241-11.2 1.799-4.812.889-11.671 1.955-19.2 2.985-1.87.256-4.71.727-6.311 1.046-1.602.32-3.532.581-4.289.581s-2.687.261-4.289.581-4.351.774-6.111 1.01-4.19.612-5.4.836-6.488.535-11.728.69c-8.481.252-9.572.36-9.92.983-.336.6-1.017.7-4.784.7-3.536 0-4.438.117-4.623.6-.186.485-1.106.6-4.788.6-3.784 0-4.557.102-4.557.6 0 .5-.797.6-4.771.6-3.629 0-4.91.139-5.35.578-.407.407-1.63.596-4.129.638-4.236.071-5.35.285-5.35 1.027 0 .447-1.018.557-5.157.557-4.215 0-5.199.11-5.388.6-.184.48-1.064.6-4.414.6-3.123 0-4.331.147-4.764.58-.43.43-1.758.598-5.121.648-4.959.074-5.556.183-5.556 1.015 0 .443-.928.557-4.551.557-3.557 0-4.66.131-5.049.6s-1.493.6-5.062.6c-3.687 0-4.607.115-4.793.6-.186.483-1.085.6-4.6.6-3.516 0-4.415.117-4.6.6-.179.466-.967.6-3.538.6-4.028 0-5.807.322-5.807 1.05 0 .432-.899.55-4.171.55-3.175 0-4.315.143-4.772.6-.439.439-1.511.6-4 .6s-3.561.161-4 .6c-.41.41-1.422.6-3.196.6-2.953 0-3.861.245-3.861 1.043 0 .427-.704.557-3.013.557-2.308 0-3.066.14-3.242.6-.162.42-.817.6-2.188.6-1.473 0-1.957.148-1.957.6 0 .373-.378.6-1 .6H0v152h1c.55 0 1-.18 1-.4s.9-.4 2-.4c1.511 0 2-.147 2-.6 0-.466.531-.6 2.38-.6 1.656 0 2.478-.175 2.703-.576.227-.407 1.191-.601 3.273-.662 2.49-.073 2.982-.202 3.144-.824.171-.654.641-.738 4.147-.738 3.247 0 3.953-.107 3.953-.6s.711-.6 4-.6 4-.107 4-.6c0-.497.753-.6 4.38-.6 3.403 0 4.452-.129 4.704-.578.241-.43 1.281-.597 4.082-.654 4.366-.088 5.234-.256 5.234-1.015 0-.438.944-.553 4.557-.553 3.682 0 4.602-.115 4.788-.6.187-.487 1.135-.6 5.055-.6s4.868-.113 5.055-.6c.186-.484 1.095-.6 4.692-.6 4.027 0 4.509-.078 4.96-.8.455-.728.933-.8 5.296-.8 3.997 0 4.797-.1 4.797-.6s.795-.6 4.751-.6c3.691 0 4.86-.131 5.239-.588.367-.442 1.642-.615 5.149-.7 3.469-.083 4.635-.24 4.561-.612-.074-.368.823-.506 3.4-.523 4.942-.033 6.604-.262 6.997-.965.277-.494 1.227-.612 4.923-.612 3.804 0 4.58-.102 4.58-.6 0-.499.778-.6 4.6-.6s4.6-.101 4.6-.6.778-.6 4.6-.6c4.067 0 4.693-.093 5.4-.8.703-.703 1.333-.8 5.2-.8 3.644 0 4.4-.103 4.4-.6 0-.495.73-.6 4.171-.6 3.108 0 4.32-.148 4.751-.579.414-.414 1.679-.6 4.429-.651 2.961-.055 3.849-.198 3.849-.621 0-.414.759-.559 3.1-.592 1.705-.023 3.37-.082 3.7-.131s1.005-.12 1.5-.158c.503-.038.9-.333.9-.668 0-.499.778-.6 4.6-.6s4.6-.101 4.6-.6c0-.493.711-.6 4-.6s4-.107 4-.6c0-.491.686-.6 3.773-.6 3.422 0 3.797-.074 4.027-.8.231-.728.605-.8 4.184-.8 3.125 0 3.978-.123 4.161-.6.18-.471.992-.6 3.766-.6 2.49 0 3.766-.174 4.313-.587.528-.4 1.8-.592 3.987-.6 2.133-.009 3.488-.207 4.035-.59.453-.318 1.799-.603 2.989-.634 3.119-.082 4.365-.374 4.365-1.021 0-.451.783-.568 3.8-.568 3.111 0 3.8-.109 3.8-.6 0-.486.644-.6 3.4-.6s3.4-.114 3.4-.6c0-.471.58-.607 2.7-.631 3.452-.039 4.175-.183 4.733-.947.343-.469 1.209-.622 3.524-.622 2.358 0 3.121-.139 3.298-.6.176-.459.93-.6 3.2-.6s3.024-.141 3.2-.6c.17-.442.869-.6 2.656-.6 1.572 0 2.655-.207 3.075-.587.357-.323 1.271-.61 2.032-.638 2.903-.106 4.382-.447 4.382-1.01 0-.437.685-.565 3.013-.565 2.308 0 3.066-.14 3.242-.6.172-.446.882-.6 2.768-.6 1.791 0 2.632-.169 2.859-.575.213-.38 1.124-.608 2.676-.671 1.893-.077 2.391-.238 2.545-.825.159-.609.609-.729 2.744-.729 2.003 0 2.553-.129 2.553-.6 0-.472.556-.6 2.6-.6s2.6-.128 2.6-.6c0-.471.552-.6 2.571-.6 2.015 0 2.598-.136 2.7-.629.095-.465.744-.665 2.497-.771 1.625-.098 2.479-.34 2.72-.772.238-.425.931-.628 2.144-.628 1.225 0 1.866-.19 2.023-.6.167-.433.845-.6 2.444-.6 1.505 0 2.355-.192 2.657-.601.257-.348 1.159-.628 2.138-.665 1.257-.048 1.754-.254 1.927-.799.18-.568.637-.735 2.006-.735 1.309 0 1.773-.157 1.773-.6 0-.453.489-.6 2-.6s2-.147 2-.6.489-.6 2-.6c1.733 0 2-.107 2-.8s.267-.8 2-.8c1.511 0 2-.147 2-.6 0-.445.468-.6 1.813-.6 1.242 0 1.885-.189 2.042-.6.132-.342.728-.6 1.388-.6.762 0 1.157-.205 1.157-.6 0-.387.391-.602 1.1-.605 1.713-.009 2.9-.435 2.9-1.042 0-.365.475-.553 1.4-.553.978 0 1.4-.181 1.4-.6 0-.395.395-.6 1.157-.6.66 0 1.256-.258 1.388-.6.134-.351.734-.6 1.442-.6.946 0 1.213-.176 1.213-.8 0-.648.267-.8 1.4-.8.978 0 1.4-.181 1.4-.6q0-.6 1.2-.6t1.2-.6c0-.401.401-.6 1.213-.6.708 0 1.308-.249 1.442-.6.127-.33.481-.6.788-.6.306 0 .557-.36.557-.8 0-.648.267-.8 1.4-.8.978 0 1.4-.181 1.4-.6 0-.33.27-.6.6-.6s.6-.248.6-.55.54-.658 1.2-.79c.704-.141 1.2-.492 1.2-.85 0-.343.35-.61.8-.61.444 0 .8-.267.8-.6 0-.33.27-.6.6-.6s.6-.27.6-.6.27-.6.6-.6.6-.258.6-.573.363-.688.806-.829.708-.414.589-.607c-.12-.193.148-.546.594-.785.478-.256.811-.839.811-1.42 0-.61.229-.986.6-.986.419 0 .6-.422.6-1.4 0-.77.18-1.4.4-1.4.265 0 .4-25.667.4-76.2 0-72.389-.093-78.975-1.059-75.1M11.6 453.351c0 .083.27.375.6.649.491.408.6.38.6-.151 0-.357-.27-.649-.6-.649s-.6.068-.6.151m78.305 11.732c.497.096 1.217.092 1.6-.008.382-.1-.025-.179-.905-.174-.88.004-1.193.086-.695.182m13.95 1.917c.127.33.361.6.521.6s.291-.27.291-.6-.235-.6-.521-.6c-.299 0-.423.256-.291.6m28.945 3.724c0 .215.285.5.633.633.39.15.573.061.475-.232-.199-.598-1.108-.927-1.108-.401"/><path fill="currentColor" d="M375.8 174.958c-.66.289-2.91 1.331-5 2.315s-4.61 2.113-5.6 2.509c-1.801.719-2.878 1.167-5.714 2.374-.832.354-1.705.644-1.939.644s-.993.259-1.687.576c-1.363.622-11.395 3.966-16.26 5.42-1.65.493-3.44 1.068-3.977 1.277s-1.707.537-2.6.73-2.883.731-4.423 1.197-3.88 1.12-5.2 1.454l-4.6 1.161a732 732 0 0 0-7.8 2.016c-1.1.29-3.71.91-5.8 1.378s-4.676 1.107-5.746 1.421c-1.07.313-2.314.57-2.765.57-.45 0-1.735.258-2.854.573-2.739.772-7.249 1.736-14.835 3.17-1.76.333-3.47.705-3.8.828-.33.124-2.13.509-4 .856-6.566 1.221-9.021 1.683-11.4 2.146-11.985 2.331-13.896 2.679-23.2 4.219-1.76.291-4.37.73-5.8.975s-4.22.712-6.2 1.038-4.77.792-6.2 1.035-3.77.599-5.2.791-3.41.526-4.4.741-2.61.497-3.6.627-3.33.484-5.2.788c-5.844.951-11.521 1.801-21.4 3.205-2.2.313-5.26.764-6.8 1.002-9.897 1.532-18.192 2.713-29.2 4.158-2.42.317-5.66.761-7.2.986-1.54.226-4.87.689-7.4 1.031s-5.95.814-7.6 1.05-4.98.672-7.4.97-5.84.74-7.6.982-5.18.707-7.6 1.033c-2.42.327-5.84.79-7.6 1.03-3.306.45-9.331 1.214-15.6 1.977-1.98.241-4.999.697-6.708 1.014-1.71.316-3.78.575-4.6.574-.821 0-3.022.258-4.892.574-3.411.576-6.192.977-14 2.02-4.222.563-6.75.94-13.4 1.996-3.385.538-4.713.759-12.2 2.033-5.704.97-9.421 1.73-10.534 2.153-.615.234-1.484.425-1.932.425-.79 0-2.364.592-5.034 1.893C.053 248.5-.629 250.4.4 250.4c.22 0 .4.36.4.8 0 .624.267.8 1.213.8.708 0 1.308.249 1.442.6.172.447.884.6 2.788.6 1.832 0 2.529.142 2.457.5-.072.36.817.532 3.178.616 2.762.097 3.315.231 3.51.846.198.625.73.74 3.722.799 2.53.05 3.612.23 3.934.654.33.434 1.339.585 3.924.585 2.191 0 3.389.146 3.235.395-.14.227.02.294.376.158.342-.131.621-.039.621.204 0 .293 1.319.445 3.9.449 3.239.005 6.179.548 4.7.868-.22.048 1.76.186 4.4.306 4.145.19 4.785.309 4.693.873-.093.568.483.666 4.4.744 2.479.05 4.715.1 4.969.113s.37.263.257.557c-.163.426.76.533 4.595.533 3.898 0 4.844.113 5.031.6.187.489 1.156.6 5.242.6 4.649 0 5.013.055 5.013.756 0 .692.376.761 4.487.817 3.301.045 4.658.215 5.132.644.487.441 1.787.583 5.325.583 3.792 0 4.725.114 4.911.6.185.482 1.08.6 4.555.6 4.282 0 5.754.211 5.405.775-.234.379-.014.402 5.184.548 3.755.104 4.418.221 4.529.8.114.589.725.677 4.701.677 3.636 0 4.571.114 4.571.556s1.01.568 4.9.613c3.737.043 5.003.192 5.334.63.323.426 1.607.603 5 .687 3.741.093 4.566.222 4.566.714 0 .667-.163.662 8 .236 2.86-.15 6.28-.463 7.6-.696s4.2-.68 6.4-.993l8-1.139c2.2-.313 5.26-.764 6.8-1.002s4.51-.691 6.6-1.006 5.06-.766 6.6-1.003 3.97-.601 5.4-.811 4.22-.659 6.2-.998c1.98-.34 5.31-.894 7.4-1.231s5.24-.867 7-1.177c3.227-.567 6.131-1.042 12-1.962 1.76-.275 4.37-.721 5.8-.989a1606 1606 0 0 1 13.2-2.423c2.53-.454 5.86-1.077 7.4-1.383s4.33-.852 6.2-1.212c1.87-.359 4.3-.845 5.4-1.079s3.215-.675 4.7-.979l5.4-1.106a442 442 0 0 0 9.5-2.054c1.32-.3 4.11-.927 6.2-1.393s4.716-1.106 5.835-1.423 2.436-.577 2.926-.577 1.217-.174 1.614-.387c.397-.212 1.871-.646 3.274-.964s3.631-.854 4.951-1.193c1.32-.338 3.48-.886 4.8-1.218s3.66-.979 5.2-1.438a308 308 0 0 1 9.1-2.561c2.542-.679 13.381-4.163 14.5-4.661 1.061-.472 4.056-1.525 5.8-2.04.77-.227 1.571-.576 1.78-.775s.632-.363.94-.363 1.126-.259 1.82-.575c.693-.316 2.43-1.056 3.86-1.643 5.58-2.293 13.08-5.959 17.144-8.382 8.007-4.773 16.456-13.398 16.456-16.799 0-.344.27-.73.6-.856.717-.276.912-10.545.2-10.545-.22 0-.4-.63-.4-1.4 0-.978-.181-1.4-.6-1.4-.375 0-.6-.379-.6-1.013 0-.556-.27-1.116-.6-1.242-.33-.127-.6-.469-.6-.761 0-.291-.36-.644-.8-.784s-.8-.512-.8-.827-.27-.573-.6-.573-.6-.27-.6-.6-.27-.6-.6-.6-.6-.249-.6-.553-.378-.653-.84-.773c-.462-.121-.73-.399-.594-.618.135-.219-.117-.513-.56-.654s-.806-.514-.806-.829c0-.37-.425-.573-1.2-.573q-1.2 0-1.2-.6c0-.33-.339-.6-.753-.6-.415 0-.837-.32-.939-.71-.103-.394-.603-.742-1.12-.781-.514-.039-1.091-.349-1.281-.69-.191-.341-.877-.619-1.527-.619-.782 0-1.18-.202-1.18-.6 0-.773-3.272-.8-5-.042m3.781 198.262c-.32.202-1.061.371-1.649.374-.587.003-2.837.833-5 1.844-5.76 2.692-6.747 3.12-10.932 4.743-2.09.81-4.391 1.731-5.114 2.046s-1.505.573-1.739.573-.993.256-1.687.569c-.693.313-2.52.96-4.06 1.438s-3.43 1.101-4.2 1.383c-2.201.809-10.51 3.252-21.6 6.35a173 173 0 0 1-7.4 1.88c-1.559.363-4.34 1.081-8.4 2.168-1.1.295-2.72.654-3.6.798s-2.14.421-2.8.615-2.91.731-5 1.192c-2.09.462-4.88 1.082-6.2 1.379-2.566.577-5.988 1.302-12.4 2.628-2.2.455-5.196 1.091-6.657 1.414s-3.07.586-3.574.586-1.918.255-3.143.567a85 85 0 0 1-4.826 1.033c-1.43.257-3.5.634-4.6.837s-3.53.647-5.4.987-4.75.865-6.4 1.168c-2.809.516-7.102 1.252-13.2 2.262-2.416.401-4.068.666-12 1.927-1.65.262-4.35.726-6 1.031-3.228.596-6.4 1.104-12.4 1.988-2.09.308-5.06.755-6.6.994-1.54.238-4.51.691-6.6 1.006s-5.06.768-6.6 1.006c-2.727.422-7.5 1.105-14 2.002-1.76.243-4.599.701-6.308 1.017-1.71.316-3.731.575-4.492.575s-2.782.256-4.492.569c-3.059.561-6.413 1.036-14.308 2.027-2.2.276-5.44.707-7.2.958s-5.18.721-7.6 1.043c-2.42.323-6.47.87-9 1.216s-5.23.7-6 .787-3.47.443-6 .791-6.625.898-9.1 1.221l-9 1.176c-2.475.323-6.48.866-8.9 1.207-2.42.34-5.84.789-7.6.997a448 448 0 0 0-13.4 1.802c-5.531.825-9.696 1.428-14 2.026-13.452 1.871-28.458 4.615-33 6.034C.379 447.023.003 447.263.001 448.9c-.001 1.314.117 1.5.952 1.5.617 0 1.028.282 1.163.8.167.638.546.8 1.875.8.948 0 1.925.259 2.266.6.426.426 1.464.6 3.572.6 2.374 0 2.971.121 2.971.6 0 .483.617.6 3.157.6 2.438 0 3.21.137 3.388.6.182.475 1.017.6 3.996.6 3.447 0 3.784.069 3.978.811.117.447.363.785.547.753 2.069-.364 8.534.118 8.534.636 0 .517 6.821 1.004 8.93.637.181-.031.214.131.072.36-.141.229-.47.294-.73.145-.271-.155-.33-.116-.139.094.429.469.286.455 5.64.514 4.183.046 4.595.118 4.824.842.139.435.376.774.527.753 2.625-.374 8.477.147 8.482.755.005.598.063.613.394.1q.387-.6.394-.1c.004.373 1.273.5 4.993.5 4.22 0 4.953.09 4.763.587-.189.492.542.605 4.512.7 3.53.084 4.713.24 4.638.613-.106.531.566.597 6.828.663 2.919.031 3.596.158 3.92.737.334.597 1.006.7 4.552.7 3.524 0 4.229.107 4.61.7.429.667.44.667.233 0-.139-.448-.006-.7.37-.7.323 0 .542.225.487.5-.074.372 1.1.529 4.6.613 3.815.091 4.7.223 4.7.7 0 .481.805.587 4.456.587 3.758 0 4.546.11 5.03.7.375.458.484.493.314.1-.199-.461-.135-.45.277.049.428.517 1.423.662 4.929.715 3.323.051 4.502.21 4.838.652.341.448 1.438.584 4.7.584 3.516 0 4.256.104 4.256.6 0 1.123 18.869.664 24.4-.593.99-.225 3.24-.58 5-.789 3.086-.367 4.602-.591 12.4-1.83 1.98-.315 5.04-.778 6.8-1.03 9.88-1.414 14.402-2.12 19-2.97 3.023-.558 6.413-1.103 11.2-1.799 1.43-.208 4.04-.634 5.8-.946s5-.866 7.2-1.232 4.9-.844 6-1.064c1.1-.219 3.62-.673 5.6-1.008 6.819-1.152 9.606-1.65 11.6-2.073 1.1-.233 3.44-.7 5.2-1.038s4.19-.819 5.4-1.068 3.46-.688 5-.976 3.7-.72 4.8-.96 3.35-.72 5-1.067 4.08-.872 5.4-1.168 4.2-.918 6.4-1.384 4.876-1.108 5.946-1.426c1.07-.319 2.343-.579 2.829-.579.485 0 1.68-.246 2.654-.546 1.771-.546 3.666-1.04 8.171-2.132 5.292-1.283 9.192-2.324 16-4.272 11.387-3.257 18.733-5.672 30.601-10.06 19.666-7.27 35.661-18.752 37.74-27.09.151-.605.451-1.1.667-1.1.236 0 .392-2.067.392-5.2 0-3.2-.154-5.2-.4-5.2-.22 0-.4-.63-.4-1.4 0-.978-.181-1.4-.6-1.4-.33 0-.6-.27-.6-.6s-.27-.6-.6-.6c-.509 0-.814-.965-.655-2.076.021-.151-.318-.388-.753-.527-.436-.138-.792-.509-.792-.824a.565.565 0 0 0-.553-.573c-.305 0-.649-.365-.766-.811s-.444-.762-.728-.7c-.284.061-.525-.159-.535-.489-.018-.586-.166-.647-1.818-.75-.44-.028-.8-.32-.8-.65s-.27-.6-.6-.6-.6-.27-.6-.6-.249-.6-.553-.6-.649-.365-.766-.811-.363-.785-.547-.753c-1.102.194-2.134-.114-2.134-.636 0-.33-.283-.6-.629-.6-.345 0-.898-.27-1.228-.6s-.947-.6-1.372-.6c-.424 0-.771-.259-.771-.576 0-.788-.52-1.046-1.219-.604"/></svg>
