<svg xmlns="http://www.w3.org/2000/svg" id="a" viewBox="0 0 232.395 340.308"><path d="M52.988.345C28.897 3.863 11.99 32.95 10.587 73.29l-.129 3.716 4.377-.053 4.376-.053.052-.88c1.379-23.657 13.231-39.05 31.589-41.028 23.159-2.495 39.217 23.11 50.106 79.897l.618 3.222-50.788 109.375L0 336.86l22.486.05c12.367.027 22.545-.017 22.617-.098.072-.08 15.931-36.006 35.242-79.835 19.31-43.828 35.167-79.752 35.237-79.83.07-.08 1.946 8.05 4.169 18.066 2.223 10.017 7.081 31.92 10.796 48.678 11.342 51.165 15.455 64.724 23.425 77.234 9.985 15.672 32.088 23.37 48.442 16.87 19.603-7.79 29.955-31.23 29.98-67.883l.001-1.71h-8.744l-.128 1.124c-2.781 24.39-12.573 36.368-29.732 36.376-14.939.007-26.858-10.555-35.044-31.053-6.253-15.656-7.776-21.584-22.841-88.868C107.845 60.651 102.517 41.015 91.58 22.624 81.866 6.29 67.817-1.82 52.988.344"/></svg>
