<svg xmlns="http://www.w3.org/2000/svg" id="sed" viewBox="-1 -50 90 60"><path fill="currentColor" d="M20.22-22.46q.9-2.37.9-4.42 0-3.78-3.07-3.78-1.6 0-2.91 1.44-1.32 1.44-1.32 3.24 0 1.28 1.03 2.3 1.47 1.41 5.25 3.71 3.77 2.31 5.21 4.19 1.44 1.89 1.44 4.48 0 2.6-1.25 4.96-1.24 2.37-3.48 4.04-4.8 3.58-12.48 3.58-4.16 0-7.36-2.18-3.2-2.11-3.2-4.6 0-2.5 1.82-3.97t4.51-1.47 4.35 1.02q-.83 2.11-.83 3.52 0 4.22 3.59 4.22 1.53 0 2.56-.96Q16-4.1 16-5.76q0-3.26-5.5-6.72-4.48-2.94-5.51-4.1-1.73-2.04-1.73-4.6t1.22-5q1.22-2.43 3.46-4.16 4.67-3.58 12.8-3.58 4.16 0 6.62 1.66 2.46 1.67 2.46 4.48 0 2.82-1.69 4.42-1.7 1.6-4.77 1.6-2.11 0-3.14-.7m7.3 32q0-1.16.58-2.82l20.92-57.79q1.16-.19 3.43-.19t3.65.6q1.37.61 1.37 2.47 0 1.6-1.02 4.54L36.1 12.54q-.52.26-3.52.26-5.06 0-5.06-3.26m15.74 0q0-1.16.58-2.82l20.93-57.79q1.15-.19 3.42-.19t3.65.6q1.38.61 1.38 2.47 0 1.6-1.03 4.54L51.84 12.54q-.51.26-3.52.26-5.06 0-5.06-3.26m15.75 0q0-1.16.57-2.82l20.93-57.79q1.15-.19 3.43-.19 2.27 0 3.64.6 1.38.61 1.38 2.47 0 1.6-1.02 4.54L67.58 12.54q-.51.26-3.52.26-5.05 0-5.05-3.26"/></svg>
