<svg id="sed" xmlns="http://www.w3.org/2000/svg" viewBox="-1 -50 90 60" fill="currentColor" preserveAspectRatio="xMidYMid"><path d="M20.22-22.46h0 0q.9-2.37.9-4.42h0 0q0-3.78-3.07-3.78h0 0q-1.6 0-2.91 1.44h0 0q-1.32 1.44-1.32 3.24h0 0q0 1.28 1.03 2.3h0 0q1.47 1.41 5.25 3.71h0 0q3.77 2.31 5.21 4.19h0 0q1.44 1.89 1.44 4.48h0 0q0 2.6-1.25 4.96h0 0q-1.24 2.37-3.48 4.04h0 0q-4.8 3.58-12.48 3.58h0 0q-4.16 0-7.36-2.18h0 0q-3.2-2.11-3.2-4.6h0 0q0-2.5 1.82-3.97h0 0q1.82-1.47 4.51-1.47h0 0q2.69 0 4.35 1.02h0 0q-.83 2.11-.83 3.52h0 0q0 4.22 3.59 4.22h0 0q1.53 0 2.56-.96h0 0Q16-4.1 16-5.76h0 0q0-3.26-5.5-6.72h0 0q-4.48-2.94-5.51-4.1h0 0q-1.73-2.04-1.73-4.6h0 0q0-2.56 1.22-5h0 0q1.22-2.43 3.46-4.16h0 0q4.67-3.58 12.8-3.58h0 0q4.16 0 6.62 1.66h0 0q2.46 1.67 2.46 4.48h0 0q0 2.82-1.69 4.42h0 0q-1.7 1.6-4.77 1.6h0 0q-2.11 0-3.14-.7zm7.3 32h0 0q0-1.16.58-2.82h0l20.92-57.79h0q1.16-.19 3.43-.19h0 0q2.27 0 3.65.6h0 0q1.37.61 1.37 2.47h0 0q0 1.6-1.02 4.54h0L36.1 12.54h0q-.52.26-3.52.26h0 0q-5.06 0-5.06-3.26zm15.74 0h0 0q0-1.16.58-2.82h0l20.93-57.79h0q1.15-.19 3.42-.19h0 0q2.27 0 3.65.6h0 0q1.38.61 1.38 2.47h0 0q0 1.6-1.03 4.54h0L51.84 12.54h0q-.51.26-3.52.26h0 0q-5.06 0-5.06-3.26zm15.75 0h0 0q0-1.16.57-2.82h0l20.93-57.79h0q1.15-.19 3.43-.19h0 0q2.27 0 3.64.6h0 0q1.38.61 1.38 2.47h0 0q0 1.6-1.02 4.54h0L67.58 12.54h0q-.51.26-3.52.26h0 0q-5.05 0-5.05-3.26z"/></svg>
