<svg xmlns="http://www.w3.org/2000/svg" id="sql" viewBox="0 0 256 256"><path fill="none" stroke="currentColor" stroke-width="10" d="M200 15.914H36.832c-10.345 0-18.81 8.467-18.81 18.812v170.228c0 10.344 8.465 18.808 18.81 18.808h101.665"/><path fill="currentColor" d="M227.195 10.344c-10.572-9.428-23.372-5.64-36.005 5.57-1.875 1.667-3.746 3.514-5.607 5.488-21.611 22.926-41.67 65.391-47.903 97.822 2.428 4.923 4.324 11.206 5.573 16.005.32 1.231.609 2.387.84 3.37.548 2.327.843 3.835.843 3.835s-.194-.733-.989-3.038c-.151-.442-.32-.925-.52-1.493-.085-.235-.203-.52-.333-.824-1.41-3.277-5.31-10.194-7.025-13.205a330 330 0 0 0-3.851 12.045c4.954 9.065 7.973 24.6 7.973 24.6s-.262-1.007-1.506-4.521c-1.106-3.108-6.61-12.753-7.915-15.008-2.23 8.235-3.117 13.794-2.317 15.148 1.551 2.623 3.03 7.149 4.327 12.154 2.932 11.275 4.97 25.002 4.97 25.002s.066.91.176 2.309c-.407 9.469-.162 19.286.57 28.16.972 11.746 2.8 21.837 5.131 27.237l1.583-.863c-3.423-10.64-4.813-24.583-4.204-40.664.92-24.58 6.577-54.221 17.028-85.116 17.657-46.639 42.155-84.058 64.577-101.929-20.436 18.456-48.095 78.196-56.374 100.32-9.271 24.772-15.84 48.02-19.8 70.293 6.831-20.88 28.919-29.856 28.919-29.856s10.833-13.361 23.494-32.449c-7.584 1.73-20.037 4.69-24.208 6.443-6.152 2.581-7.81 3.462-7.81 3.462s19.93-12.137 37.028-17.632c23.515-37.036 49.134-89.65 23.335-112.665"/></svg>
