<svg xmlns="http://www.w3.org/2000/svg" id="a" viewBox="0 0 400 400"><path d="M.007 10.703v10.702L29.92 51.534c16.451 16.57 40.263 40.538 52.914 53.26s23.002 23.421 23.002 23.775c0 1.746-7.9 9.967-54.958 57.196L0 236.827l.111 31.965.111 31.965 82.072-82.165c90.018-90.12 85.378-85.318 85.653-88.634.402-4.86 3.435-1.556-59.756-65.093C66.256 22.701 49.556 5.64 46.945 2.291L45.157 0H.006ZM236.328.973c.882 1.705 25.562 26.091 28.077 27.743 4.373 2.871 6.742 2.576 11.755-1.469 2.628-2.119 17.926-17.326 25.127-24.977L303.424 0h-67.599Zm156.43 103.853c-26.1 25.592-26.675 26.537-20.76 34.029 2 2.532 23.771 24.35 26.297 26.352L400 166.56v-34.2c0-18.81-.101-34.199-.223-34.199-.123 0-3.282 3-7.02 6.664M264.9 232c-1.96.852-156.03 153.61-165.84 164.43L95.819 400h64.418l40.297-40.108c54.321-54.066 64.559-64.109 65.356-64.109 1.655 0 5.763 3.982 54.403 52.72L371.685 400H400l-.006-20.648-.005-20.65-4.195-3.675c-2.307-2.022-22.083-21.482-43.946-43.245-71.34-71.015-79.168-78.694-81.128-79.585-2.154-.978-3.891-1.038-5.821-.198"/></svg>
