<svg id="tcl" viewBox="56.704 36.41 44.08 83.371" xmlns="http://www.w3.org/2000/svg" fill="currentColor"><path d="M89.062 92.08 80.7 93.22l4.56-5.51 4.56-15.39-5.7-.57L90.96 67l8.522-16.012L84.5 52.56s7.9-7.232 16.283-11.941L89.821 36.41s-35.317 7.778-25.817 33.049l-7.3-.64 7.001 26.49-5.918.76s6.063 6.187 14.554 9.12c.772.267-10.64-20.71 1.52-41.609L75 64.91s-9.69 22.277 0 40.28c0 0 .447.427 5.292.142 0 0 8.769-8.265 8.769-13.253"/><path d="M77.591 61.698S72.464 73.13 73.94 91.665c.442 5.56 1.658 10.67 3.143 15.103h.008c.966 3.891 1.612 5.3 4.131 9.99l-.148 3.023s-20.166-32.194-3.483-58.083"/></svg>
