<?xml version="1.0" encoding="utf-8"?>
<svg viewBox="56.704 36.41 44.081 166.746" width="44.081" height="166.746" xmlns="http://www.w3.org/2000/svg">
  <path id="path16" style="fill-opacity: 1; fill-rule: nonzero; stroke: none;" d="m 3181.37,4009.63 -62.71,-17.1 34.2,82.65 34.2,230.85 -42.75,8.55 51.31,71.25 63.91,240.19 -112.37,-23.58 c 0,0 59.25,108.47 122.13,179.12 l -82.23,63.13 c 0,0 -264.88,-116.68 -193.63,-495.74 l -54.75,9.59 52.51,-397.36 -44.39,-11.41 c 0,0 45.48,-92.8 109.16,-136.8 5.79,-3.99 -79.8,310.66 11.4,624.16 l 8.55,-19.95 c 0,0 -72.67,-334.16 0,-604.21 0,0 3.35,-6.41 39.69,-2.13 0,0 65.77,123.97 65.77,198.79" transform="matrix(0.133333, 0, 0, -0.133333, -335.118652, 682.366638)" fill="currentColor"/>
  <path id="path28" style="fill-opacity: 1; fill-rule: nonzero; stroke: none;" d="m 3095.34,4465.36 c 0,0 -38.46,-171.48 -27.39,-449.52 3.32,-83.4 12.44,-160.06 23.58,-226.54 l 0.06,0 c 7.24,-58.38 12.09,-79.51 30.98,-149.85 l -1.11,-45.36 c 0,0 -151.25,482.93 -26.12,871.27" transform="matrix(0.133333, 0, 0, -0.133333, -335.118652, 682.366638)" fill="currentColor"/>
</svg>