<svg id="tcl" viewBox="56.704 36.41 44.081 166.746" xmlns="http://www.w3.org/2000/svg" fill="currentColor"><path d="m3181.37 4009.63-62.71-17.1 34.2 82.65 34.2 230.85-42.75 8.55 51.31 71.25 63.91 240.19-112.37-23.58s59.25 108.47 122.13 179.12l-82.23 63.13s-264.88-116.68-193.63-495.74l-54.75 9.59 52.51-397.36-44.39-11.41s45.48-92.8 109.16-136.8c5.79-3.99-79.8 310.66 11.4 624.16l8.55-19.95s-72.67-334.16 0-604.21c0 0 3.35-6.41 39.69-2.13 0 0 65.77 123.97 65.77 198.79" transform="matrix(.13333 0 0 -.13333 -335.119 682.367)"/><path d="M3095.34 4465.36s-38.46-171.48-27.39-449.52c3.32-83.4 12.44-160.06 23.58-226.54h.06c7.24-58.38 12.09-79.51 30.98-149.85l-1.11-45.36s-151.25 482.93-26.12 871.27" transform="matrix(.13333 0 0 -.13333 -335.119 682.367)"/></svg>
