<svg id="tex" xmlns="http://www.w3.org/2000/svg" viewBox="0 0 162.5 83.7"><path d="m131.8 30.3 14.4 21.5c4 6 7 9.7 8.9 11.3 2 1.6 4.4 2.4 7.4 2.6v1.8h-28.9v-1.8c2 0 3.3-.2 4.3-.6a4 4 0 0 0 1.7-1.4c.4-.6.6-1.2.6-1.8a6.4 6.4 0 0 0-.4-2.3c-.2-.6-1.2-2-2.7-4.4L125.7 38l-14.1 18c-1.5 2-2.4 3.2-2.7 3.9a4.7 4.7 0 0 0-.5 2c0 1 .5 1.9 1.4 2.6.9.7 2.6 1 5 1.2v1.8H91v-1.8a15 15 0 0 0 4.4-1 25.2 25.2 0 0 0 5.8-3.5 40 40 0 0 0 6.4-6.7l15.9-20L110.2 15a39.1 39.1 0 0 0-9.1-10.3 16.6 16.6 0 0 0-8.7-2.6V.3h31V2c-2.6.1-4.4.5-5.4 1.3-1 .7-1.4 1.6-1.4 2.5 0 1.2.8 3 2.4 5.4l10.3 15.4 12-15.1c1.3-1.8 2.2-3 2.5-3.7a5 5 0 0 0 .5-2 3 3 0 0 0-.6-1.9 3.9 3.9 0 0 0-2-1.4 17 17 0 0 0-4.6-.5V.3h23.8V2c-1.9.1-3.4.4-4.6.9a18.8 18.8 0 0 0-5 3 55 55 0 0 0-6.2 7.2zM56 0l.8 15.9h-2c-.3-2.8-.8-4.8-1.5-6a10 10 0 0 0-4-4.3c-1.8-.9-4-1.3-6.8-1.3H33V56c0 4.2.5 6.8 1.4 7.8 1.2 1.4 3.2 2.1 5.8 2.1h2.4v1.9H13.8v-1.9h2.4c2.9 0 5-.9 6.1-2.6.8-1 1.1-3.5 1.1-7.3V4.2h-8.1c-3.2 0-5.4.3-6.8.7a9.3 9.3 0 0 0-4.4 3.7c-1.2 1.8-2 4.2-2.2 7.3H0L.8 0Zm8.2 22.2V48h14.3c3.7 0 6.2-.6 7.4-1.7 1.7-1.4 2.6-4 2.8-7.7h1.8V61h-1.8a25 25 0 0 0-1.3-6.1 6 6 0 0 0-2.9-2.6c-1.3-.7-3.3-1-6-1H64.3v21.4c0 3 .2 4.7.4 5.3.3.6.7 1 1.3 1.5.7.3 2 .5 3.7.5h11c3.7 0 6.4-.2 8-.8 1.7-.5 3.3-1.5 4.8-3 2-2 4-5 6-9h2l-5.6 16.4H46v-1.8H48c1.6 0 3-.4 4.4-1.1a4 4 0 0 0 2-2.3c.4-1 .6-3.1.6-6.3V30c0-4.1-.4-6.7-1.2-7.6-1.2-1.3-3-2-5.8-2h-2.3v-1.7H96l.7 14.2h-1.9c-.6-3.4-1.4-5.7-2.2-7-.8-1.3-2-2.3-3.6-3-1.3-.4-3.5-.7-6.7-.7" fill="currentColor"/></svg>
