<svg xmlns="http://www.w3.org/2000/svg" id="a" viewBox="0 0 400 400"><path d="M12.898.228C6.915 1.084 2.121 5.409.524 11.392l-.426 1.596v374.024l.426 1.596c1.462 5.475 5.74 9.67 11.159 10.942 1.44.338 8.996.352 188.415.352h186.914l1.591-.425c5.427-1.449 9.425-5.447 10.874-10.874l.425-1.591V12.988l-.436-1.636c-1.423-5.334-5.335-9.286-10.708-10.813l-1.551-.441L200.684.073C87.363.057 13.665.118 12.898.228m209.563 196.159v16.504h-51.172v146.095l-20.264-.05-20.263-.049-.049-72.998-.049-72.998H79.883v-33.008h142.578zm98.144-16.113c11.751.76 21.566 2.596 30.42 5.691l2.295.802v37.499l-.439-.31c-7.361-5.192-19.376-9.626-30.518-11.263-24.127-3.544-41.711 3.567-41.783 16.897-.054 9.982 7.766 16.489 32.071 26.685 34.295 14.387 46.959 27.881 48.494 51.669 1.859 28.806-14.486 48.512-45.325 54.643-25.192 5.008-58.414 2.015-76.025-6.85l-1.318-.664v-40.06l1.173.941c14.117 11.312 30.471 17.125 48.241 17.145 20.349.023 31.52-7.172 30.43-19.599-.861-9.812-9.153-16.134-35.745-27.252-32.209-13.467-44.742-28.372-44.767-53.24-.036-36.273 31.059-56.077 82.796-52.734"/></svg>
