<svg xmlns="http://www.w3.org/2000/svg" id="a" viewBox="2 2 28 28"><path d="M27.07 7.95c-1.9 6.7-5.9 17.8-11 17.7-4.5 0-8.2-8.1-11-17.7-6.5 8-.3 21.8 11 21.7 12.3-.2 16.8-13.8 11-21.7m-11-5.6c-5.3 0-8 2.6-9.4 3.7 1.1 3.1 4.7 12.6 9.4 12.7 4.7-.1 8.3-9.6 9.4-12.7-1.4-1.1-4.1-3.7-9.4-3.7m-9.26 4.1c2.26-2.25 5.62-3.7 9.19-3.7 3.62 0 6.92 1.48 9.3 3.8l.27-.77C23.17 3.47 19.7 2 16 2S9.01 3.41 6.53 5.69Zm20.11 2.03c1.48 2.14 2.34 4.72 2.34 7.52 0 7.32-5.93 13.25-13.25 13.25S2.76 23.32 2.76 16c0-2.87.89-5.49 2.44-7.66l-.27-.91C3.03 9.89 2 12.84 2 16c0 7.73 6.27 14 14 14s14-6.27 14-14c0-3.17-1.05-6.09-2.83-8.44"/></svg>
