<svg xmlns="http://www.w3.org/2000/svg" id="a" viewBox="0 0 1154.6 237.7"><path d="m99.1 84.9-.3 77.5c0 6.1 1.4 10.8 4.1 14 2.8 3.2 6.3 4.8 10.6 4.8s8.5-1.6 12.4-4.9q5.85-4.95 8.4-13.5v-19.4c0-28 .6-47 1.9-57.2.6-3.6 2.4-6.8 5.4-9.5 3-2.8 8.2-4.4 15.7-4.9s15-.8 22.4-.8 20 .4 37.8 1.3c5.1.2 9.1 1.7 12.1 4.4 3 2.8 4.7 5.9 5.1 9.5 1.5 13.8 2.2 34.9 2.2 63.4s-.4 47.9-1.3 58.3c-.8 10.4-2.4 17.2-4.8 20.3-2.3 3.2-7.1 4.8-14.3 4.8h-62c-7.2 0-12-1.6-14.5-4.8-2.4-3.2-4-8.6-4.6-16.2v-.3c-21.8 16.7-44 25.1-66.4 25.1-22.5 0-39.5-5.6-51-16.7C6.7 208.9.8 193.2.5 172.9S0 134.4 0 118.6.1 92 .3 86.5 2 77 4.6 74.6s7.8-3.7 15.4-3.7l61-.6c6.8 0 11.5 1.2 14.1 3.7 2.7 2.4 4 6 4 10.9m442 134.1.3-77.5c0-6.4-1.6-11.1-4.8-14.3s-7.1-4.8-11.9-4.8-9.1 1.6-13 4.9-5.9 7.9-5.9 13.8l.3 46.1c0 14.6-.1 24.7-.3 30.2s-1.6 9.5-4.3 11.9-7.8 3.7-15.4 3.7l-61 .6c-6.8 0-11.5-1.2-14.1-3.7-2.7-2.4-4-6.1-4-11l.3-77.5c0-6.4-1.6-11.1-4.8-14.3s-7.1-4.8-11.9-4.8-9.1 1.6-13 4.9-5.9 7.9-5.9 13.8v19.4c0 28-.6 47-1.9 57.2-.6 3.6-2.4 6.8-5.4 9.5-3 2.8-8.2 4.4-15.7 4.9s-15 .8-22.4.8-20-.4-37.8-1.3c-5.1-.2-9.1-1.7-12.1-4.4-3-2.8-4.7-5.9-5.1-9.5-1.5-13.8-2.2-34.8-2.2-63.2s.4-47.8 1.3-58.3c.8-10.5 2.4-17.3 4.8-20.5 2.3-3.2 7.1-4.8 14.3-4.8h62c7.2 0 12 1.6 14.5 4.8 2.4 3.2 4 8.6 4.6 16.2v.3c16.3-16.9 37.1-25.4 62.3-25.4 15.5 0 28.9 3 40.4 8.9 11.4 5.9 19.9 14.6 25.4 26.1q10.5-17.1 28.8-26.1c12.2-5.9 25.4-8.9 39.6-8.9 21.6 0 39.1 5.7 52.4 17.2 13.3 11.4 20.2 27.2 20.5 47.3s.5 38.1.5 54q0 23.85-.3 32.1c-.2 5.5-1.6 9.5-4.3 11.9s-7.8 3.7-15.4 3.7l-61 .6c-6.8 0-11.5-1.2-14.1-3.7-3-2.3-4.3-6-4.3-10.8m318.3 13.9-34.9-.3c-8.1 0-13.7-2.4-16.8-7.3l-29.5-47c-1.7-1.3-2.7-1.7-3-1.4s-.5 3.9-.6 10.8-.7 17.3-1.7 31.3c-.4 3.4-2.1 6.5-5.1 9.2-3 2.8-8 4.3-15.1 4.8-7.1.4-15.7.6-25.7.6-10.1 0-21.2-.3-33.5-1-5.1-.2-9.1-1.6-11.9-4.3-2.9-2.6-4.5-5.8-4.9-9.4-2.1-25.8-3.2-60.4-3.2-103.6s.8-74.7 2.5-94.4c.6-7.2 2.1-12.4 4.3-15.7S687.1.3 694.1.3h61c7 0 11.6 1.6 14 4.9 2.3 3.3 3.8 8.5 4.4 15.7 1.3 18.4 1.9 49.4 1.9 92.8 0 4.9.8 7.3 2.5 7.3 1.1 0 2.2-.6 3.5-1.9L823 81c3.6-3.2 6.6-5.2 8.9-6.2s5.6-1.4 9.8-1.4H888q4.2 0 6 5.4c.4.8.6 2.1.6 3.8s-1.1 3.6-3.2 5.7l-44.2 38.8q-2.55 2.55 0 5.4c20.1 23.7 41.5 51.5 64.2 83.2 2.3 3.2 3.5 6 3.5 8.6 0 5.3-3.9 7.9-11.8 7.9zm190-167.1c69 0 103.9 22.5 104.5 67.4.4 19.1.6 36.5.6 52.4s-.1 26.6-.3 32.1-1.6 9.5-4.3 11.9-7.8 3.7-15.4 3.7h-67.4c-6.8 0-11.4-1.2-14-3.7-2.5-2.4-3.9-6.1-4.1-11 0-.2-.1-.6-.2-1.1s-.2-1-.2-1.4c-14 14.4-33 21.6-57.2 21.6-16.7 0-31-4.2-42.7-12.6-11.8-8.4-17.6-19.9-17.6-34.6s4.2-26.5 12.5-35.3c8.4-8.8 18.3-14.8 29.9-18q17.25-4.8 37.2-4.8c13.2 0 26.2 1.3 38.9 3.8v-1.3c0-10.6-2.1-18.2-6.2-22.9s-10.8-7-20-7-16.9.8-23 2.4-10.8 3.2-14 4.9c-8.7 5.1-14.7 7.6-18.1 7.6s-6.4-1.6-9.1-4.8-4-8.1-4-14.8 1.2-11.3 3.7-13.8c2.4-2.5 6.3-5.1 11.6-7.6 18.5-8.6 44.8-13.1 78.9-13.1m-14.9 130c9.3 0 14.1-1.8 14.3-5.4q.6-10.5.6-27.6c0-4.4-3.4-6.7-10.2-6.7s-12.3 1.6-16.5 4.9-6.4 8.1-6.4 14.5 1.7 11.3 5.2 14.9c3.6 3.6 7.9 5.4 13 5.4M41.2 4.8 6 48c-5.7 7-.7 17.4 8.3 17.4l69.2-1c11 0 17.1-11.8 10.1-20.4l-32-39.2c-5.2-6.4-15.1-6.4-20.4 0m136.5.7-35.8 42.1c-5.8 6.8-.7 17 8.4 17l72.7 1.6c11.2 0 16.1-8.5 7.3-19.9L198.5 5.5c-5.4-6.3-15.4-6.3-20.8 0"/></svg>
