<svg xmlns="http://www.w3.org/2000/svg" id="a" viewBox="0 0 237.7 237.7"><path d="M51.837.45c-3.787 0-7.588 1.6-10.238 4.8l-35.2 43.2c-5.7 7-.698 17.4 8.302 17.4l69.199-1c11 0 17.1-11.8 10.1-20.4L62 5.25c-2.6-3.2-6.375-4.8-10.163-4.8m136.662.775c-3.85 0-7.7 1.575-10.4 4.725L142.3 48.05c-5.8 6.8-.7 17 8.4 17l72.7 1.599c11.2 0 16.1-8.499 7.3-19.899l-31.8-40.8c-2.7-3.15-6.55-4.725-10.4-4.725M81.4 70.75l-61 .6c-7.6 0-12.8 1.3-15.4 3.7S.901 81.45.701 86.95.4 103.25.4 119.05s.2 34 .5 54.3 6.2 36 17.5 47.2c11.5 11.1 28.5 16.7 51 16.7 22.4 0 44.6-8.401 66.4-25.101v.3c.6 7.6 2.2 13 4.6 16.2 2.5 3.2 7.3 4.8 14.5 4.8h62c7.2 0 12-1.6 14.3-4.8 2.4-3.1 4-9.899 4.8-20.299.9-10.4 1.3-29.8 1.3-58.3s-.701-49.601-2.201-63.401c-.4-3.6-2.1-6.7-5.1-9.5-3-2.7-7-4.199-12.1-4.399-17.8-.9-30.4-1.3-37.8-1.3s-14.898.3-22.398.8-12.702 2.099-15.702 4.899c-3 2.7-4.8 5.9-5.4 9.5-1.3 10.2-1.898 29.201-1.898 57.201v19.4q-2.55 8.55-8.4 13.5c-3.9 3.3-8.101 4.899-12.401 4.899s-7.8-1.599-10.6-4.799c-2.7-3.2-4.1-7.9-4.1-14l.3-77.5c0-4.9-1.3-8.5-4-10.9-2.6-2.5-7.3-3.7-14.1-3.7"/></svg>
