<svg id="v" viewBox="0 0 500 500"><path d="M318.422 453.543L463.705 49.541c2.463-6.852-1.42-11.848-8.668-11.149L340.786 49.398c-7.247.699-15.076 6.848-17.47 13.723L188.843 449.216c-2.396 6.875 1.571 12.457 8.852 12.457h111.206c3.64 0 7.596-2.78 8.828-6.207l.693-1.923" fill="currentColor"/><path d="M44.963 38.392l114.251 11.006c7.247.699 15.084 6.845 17.49 13.717l137.318 392.333c1.202 3.437-.777 6.225-4.418 6.225H197.695c-7.281 0-15.193-5.562-17.657-12.414L36.295 49.541c-2.463-6.852 1.42-11.848 8.668-11.149" fill="currentColor"/></svg>
