<svg xmlns="http://www.w3.org/2000/svg" id="a" viewBox="0 0 400 475.088"><path d="M4.328.683C-.17 2.493 0-6.886 0 238.853c0 230.43.01 231.807 2.045 233.84 2.04 2.04 388.108 3.426 393.355 1.41 5.176-1.986 4.965 7.718 4.173-192.169l-.735-185.247-2.524-4.378c-1.388-2.408-3.44-4.94-4.56-5.628-1.122-.687-11.943-12.155-24.046-25.484s-22.386-24.38-22.85-24.555c-.463-.174-6.91-6.997-14.33-15.156S315.465 5.154 313.54 3.324L310.043 0 157.836.08C74.12.124 5.043.396 4.326.683M295.69 57.807c0 41.096.066 42.526 2.046 44.508 1.98 1.98 3.41 2.045 43.995 2.045h41.949v46.298c0 25.463.308 105.345.68 177.516l.68 131.22H15.349V15.345H295.69Zm34.703-12.278c5.997 6.19 15.695 16.55 21.55 23.021 5.857 6.472 12.497 13.723 14.756 16.114l4.106 4.35h-59.767l.024-31.975.027-31.973 4.2 4.605c2.312 2.53 9.11 9.67 15.104 15.858m-247.29 69.366-24.783 24.86v63.782l4.353 4.9c2.393 2.696 10.104 11.757 17.137 20.137a17813 17813.03 0 0 0 45.27 53.73l7.93 9.363v23.463h-25.814l-8.193 7.928c-4.507 4.362-11.821 11.955-16.254 16.874l-8.058 8.943v35.295l16.614 16.638 16.615 16.637h169.92l24.927-25.003 24.925-25-.757-31.528c-.416-17.34-1.15-32.266-1.631-33.166-.48-.902-23.917-24.428-52.077-52.28l-51.203-50.64.034-14.227.034-14.224 3.279 4.092c1.803 2.251 5.72 6.687 8.706 9.858l5.428 5.766 34.176.753c40.706.9 37.352 1.544 46.41-8.94l7.307-8.46.005-11.578c.006-14.465 1.93-11.595-23.093-34.48a52467 52467.089 0 0 1-31.553-28.882l-10.32-9.458-77.274-.006-77.275-.005Zm164.309-5.36c-3.554 4.536-7.382 9.59-8.508 11.228-1.874 2.73-5.051 6.89-22.253 29.138l-5.883 7.61v48.907l52.04 51.542 52.04 51.542.74 25.993.742 25.992-22.334 22.35-22.333 22.352-6.147-.007-6.15-.007-7.672-8.816a4302 4302.007 0 0 0-18.654-21.224c-13.97-15.78-14.283-17.46-5.094-27.266l5.926-6.323 15.143.15c21.662.218 23.735-2.843 10.772-15.893-3.99-4.017-7.788-8.353-8.441-9.636l-1.186-2.334-53.094.213-53.093.212.525-14.602.525-14.603-6.774-7.773a1079 1079.002 0 0 1-13.425-15.774 2129 2129.004 0 0 0-13.813-16.402 2358 2358.004 0 0 1-15.858-18.868c-4.784-5.756-10.798-12.85-13.366-15.77-2.567-2.917-6.364-7.422-8.44-10.012l-3.772-4.71v-50.929l22.243-22.262 22.246-22.263h139.807Zm21.554 3.777c6.213 5.08 29.299 26.218 39.257 35.946 10.625 10.38 11.058 14.66 2.558 25.253l-5.371 6.692-29.54-.699-29.538-.696-3.713-4.168a4494 4494.008 0 0 0-9.646-10.767c-6.591-7.335-6.586-7.205-.677-14.765 5.803-7.426 19.947-25.947 25.926-33.95 5.884-7.88 4.904-7.62 10.744-2.846m-162.161 12.975c-2.04 5.316-3.018 5.188 39.52 5.188H185.7v-6.138l-39.162-.27c-33.484-.229-39.246-.052-39.735 1.22m-15.347 28.648c-2.043 5.326-3.116 5.187 40.542 5.187h40.4v-6.138l-40.185-.268c-34.374-.23-40.268-.053-40.757 1.218m1.024 29.672c-2.04 5.312-2.97 5.187 39.008 5.187h38.866v-6.138l-38.652-.268c-33.038-.23-38.734-.053-39.222 1.218m17.394 29.672c-2.033 5.297-2.822 5.19 37.472 5.19h37.33v-6.14l-37.116-.269c-31.7-.23-37.2-.05-37.686 1.218m18.417 29.672c-2.034 5.297-2.823 5.19 37.472 5.19h37.33v-6.14l-37.115-.269c-31.7-.23-37.2-.05-37.686 1.218m30.692 30.695c-2.036 5.307-2.918 5.188 38.495 5.188h38.356v-6.138l-38.14-.269c-32.592-.23-38.223-.052-38.71 1.22m66.3 58.649c-3.386 3.797-8.038 8.725-10.337 10.95l-4.18 4.045v21.695l15.79 17.849 15.792 17.848-64.114.265-64.114.264-14.09-14.063-14.087-14.063.01-11.78.012-11.78 13.545-14.011 13.545-14.012 59.19-.056 59.194-.057"/></svg>
