<svg id="wren" viewBox="0 0 311 208" xmlns="http://www.w3.org/2000/svg"><path d="M64.577 109.352h-.155l-7.861-26.23h3.58c.623 0 .934-.311.934-.934v-3.347c0-.622-.311-.933-.934-.934H47.503c-.949-5.107-1.387-9.912-1.438-14.213-.235-19.847-9.634-36.183-12.377-40.385C30.946 19.106 0 12.835 0 12.835c4.634-5.026 32.235-.145 32.235-.145s8.83-6.041 23.522-10.862c14.692-4.821 33.885.994 43.928 4.804 11.724 4.446 32.154 20.541 36.535 25.466 4.381 4.925 8.808 7.968 13.087 9.324 16.02 5.077 43.07 16.549 46.933 18.783 3.864 2.234 16.956 8.625 33.469 5.243 23.235-4.758 74.185-42.41 74.185-42.41s-20.959 16.276-15.886 15.175c5.073-1.1 22.35-10.006 22.35-10.006s-9.292 7.542-12.94 10.381c-1.675 1.09-1.282.998 0 0 3.783-2.222 13.318-6.166 13.318-6.166l-29.009 19.355 16.272-4.277c1.09-.305 1.198-.315 0 0-11.749 3.651-47.408 30.571-47.408 30.571s13.945 2.133 10.142 1.589c-3.803-.543-15.568 13.148-15.568 13.148s6.111.703 10.135 1.066c-6.757 1.966-17.907 15.381-17.907 15.381l-3.776 10.838c13.364 10.006 13.367 20.798 13.367 20.798-12.948-8.828-28.776-8.665-28.776-8.665-20.723 19.657-42.522 25.807-59.567 26.999l5.071 32.151s1.4 5.667 4.071 8.087c1.116 1.011 7.061 2.598 7.061 2.598l.685 1.952-9.179-1.172-4.232-1.633-4.428.856-4.424 3.224-4.092-.86 3.114-2.596-7.554.042.626-1.362 5.26-2.203 7.275-3.762 1.894-5.249-8.006-29.841c-12.261-.023-21.082-2.37-23.632-2.893-1.049-.216-2.293-.411-3.756-.677l-8.284 29.589s3.864 7.503 9.462 10.394c2.34 1.208 12.477 5.42 12.477 5.42l1.716 2.553-16.208-3.158-10.286-1.434-12.301 2.156-19.716 6.008-3.94-.873 15.149-6.194-10.278 2.288.905-1.949 3.686-3.328 3.173-1.082 15.752-5.604 6.624-6.344 4.103-30.36c-7.523-2.327-18.127-7.118-32.822-18.18-7.958-5.992-14.367-12.658-19.478-19.588h2.472c1.09 0 1.738-.545 1.946-1.634l6.616-26.074h.155l6.616 26.074c.156 1.089.778 1.634 1.868 1.634h4.592c.831 0 1.453-.545 1.868-1.634l10.274-31.445h4.281c.623 0 .934-.311.934-.934v-3.347c0-.622-.311-.933-.934-.934H90.34c-.675.001-1.012.312-1.012.934v3.347c0 .623.337.934 1.012.934h3.503l-7.784 26.23h-.155l-6.85-26.23h3.036c.623 0 .934-.311.934-.934v-3.347c0-.622-.311-.933-.934-.934H68.391c-.623.001-.934.312-.934.934v3.347c0 .623.311.934.934.934h3.036zm111.302-11.519c.726-.001 1.089-.338 1.089-1.012v-.623c0-5.759-1.505-10.339-4.514-13.737-3.01-3.399-7.148-5.098-12.414-5.098-5.267 0-9.717 1.751-13.349 5.253-3.632 3.503-5.448 8.277-5.448 14.322s1.829 10.857 5.487 14.438c3.658 3.58 8.211 5.37 13.66 5.37 2.387 0 4.631-.337 6.732-1.012 2.102-.674 3.814-1.505 5.137-2.49 1.323-.986 2.348-1.868 3.075-2.647.726-.778 1.206-1.349 1.44-1.712.233-.363.35-.662.35-.895 0-.234-.156-.506-.467-.817l-2.102-2.102c-.519-.363-.986-.285-1.401.234-.778 1.297-2.296 2.62-4.553 3.969-2.257 1.349-4.968 2.024-8.133 2.024-3.166 0-6.007-1.168-8.523-3.503-2.517-2.335-3.879-5.655-4.086-9.962zm-65.147 13.153c-.674.001-1.011.312-1.011.934v3.347c0 .623.337.934 1.011.934h14.866c.675 0 1.012-.311 1.012-.934v-3.347c0-.622-.337-.933-1.012-.934h-4.125V97.911c0-3.633 1.323-6.876 3.97-9.73 2.646-2.853 6.2-4.28 10.663-4.28h1.634c.675-.001 1.012-.338 1.012-1.012v-4.125c0-.675-.337-1.012-1.012-1.012-2.646 0-5.02.389-7.121 1.167-2.102.779-3.71 1.648-4.826 2.608-1.116.96-2.14 2.166-3.074 3.619-.934 1.453-1.479 2.594-1.635 3.425h-.233v-9.73c0-.622-.338-.933-1.012-.934h-9.107c-.674.001-1.011.312-1.011.934v3.347c0 .623.337.934 1.011.934h4.281v27.864zm73.397 0c-.675.001-1.012.312-1.012.934v3.347c0 .623.337.934 1.012.934h14.866c.675 0 1.012-.311 1.012-.934v-3.347c0-.622-.337-.933-1.012-.934h-4.125V89.582c.415-.83.752-1.401 1.012-1.712 2.231-3.269 5.344-4.903 9.34-4.903 2.802 0 4.929.83 6.382 2.49 1.453 1.661 2.179 3.996 2.179 7.005v20.47c0 2.18 1.116 3.269 3.347 3.269h7.394c.675 0 1.012-.311 1.012-.934v-3.347c0-.622-.337-.933-1.012-.934h-4.359v-20.08c-.051-4.152-1.245-7.446-3.58-9.885s-5.578-3.658-9.729-3.658c-5.656 0-9.833 2.257-12.531 6.771h-.234l.156-5.293c0-.622-.337-.933-1.012-.934h-9.106c-.675.001-1.012.312-1.012.934v3.347c0 .623.337.934 1.012.934h4.281v27.864zM255.3 93.874c-170.2-62.583-85.1-31.291 0 0zm-84.792-.789c-.156-3.217-1.167-5.786-3.035-7.706-1.868-1.919-4.359-2.879-7.472-2.879-3.114 0-5.786.882-8.017 2.646-2.231 1.764-3.555 4.41-3.97 7.939h22.494" fill="currentColor"/></svg>
