<svg xmlns="http://www.w3.org/2000/svg" id="a" viewBox="250 200 512 512"><g stroke="currentColor"><path d="M411.01 593.09c-4.993 1.08-10.93 2.159-15.787 3.103.675-2.698 2.564-10.525 3.913-15.518l-3.778-3.913-4.452 19.566q0 .405-.405.81l-8.096 7.692 3.239 3.508 8.23-7.827c.27-.27.405-.404.675-.404l19.834-3.374Zm21.048 39.402c-2.563 3.644-5.667 5.263-10.524 2.025-4.857-3.374-4.588-7.017-2.159-10.526l10.39-15.113-3.913-2.699-10.525 15.383c-3.778 5.398-3.103 10.66 4.318 15.788 7.96 5.398 13.088 3.239 16.461-1.754l10.39-15.248-4.048-2.699Zm21.184 23.48 19.429 7.692 1.889-2.834-15.652-6.342 3.643-9.176 14.303 5.667 1.214-3.238-14.167-5.668 3.238-7.961 14.842 5.937 1.214-3.103-19.16-7.692Zm57.343-12.82c-6.341-1.079-11.064 1.08-11.873 5.668-.675 4.049 1.619 6.612 8.5 9.716 5.397 2.429 7.016 4.048 6.476 7.152-.54 2.969-3.238 4.183-7.286 3.508-3.912-.674-6.341-2.968-6.476-6.477l-4.722-.81c-.405 5.263 3.238 9.177 10.254 10.526 7.69 1.35 12.143-1.484 12.953-6.207.674-3.914-.945-7.017-8.905-10.66-4.993-2.295-6.612-3.51-6.207-6.073.405-2.429 2.564-3.643 6.342-2.969 4.047.675 5.532 2.834 5.532 5.668l4.587.81c.81-4.454-1.754-8.502-9.175-9.851m42.772 29.012c-7.016.27-9.445-5.397-9.58-11.335-.27-5.937 2.159-11.335 8.635-11.605 4.992-.135 7.016 2.16 7.96 5.263l4.723-.135c-.81-4.723-4.587-8.771-12.683-8.501-9.714.404-13.897 7.421-13.627 15.113.27 8.501 4.317 14.844 14.572 14.439 8.23-.27 11.603-4.723 12.413-9.446l-4.723.135c-.81 3.238-2.698 5.937-7.69 6.072m55.859-14.034c-.944-3.778-2.968-5.667-6.611-5.667 2.428-1.485 4.722-3.914 3.643-7.962-1.215-4.723-6.072-6.207-12.009-4.588l-12.008 3.104 7.15 27.798 4.588-1.215-3.238-12.414 5.532-1.485c5.262-1.35 7.286-.27 8.23 3.509l.136.54c.81 2.968 1.484 5.397 2.293 6.477l4.588-1.215c-.81-1.484-1.484-3.913-2.159-6.477Zm-13.358-5.667-5.936 1.484-2.294-9.04 6.881-1.755c3.778-.945 6.477-.135 7.151 2.699.945 3.913-1.754 5.667-5.802 6.612m26.148-22.306 4.3-1.953 11.887 26.17-4.302 1.953Zm32.14-18.042-9.714 6.613 16.19 23.75 3.914-2.7-6.882-9.985 5.263-3.644c5.801-3.913 8.23-9.04 4.992-13.764-2.834-4.318-8.5-3.913-13.763-.27m6.882 11.47-4.993 3.509-5.667-8.366 5.128-3.509c3.508-2.429 6.746-2.699 8.635 0 2.159 3.239.405 5.937-3.103 8.366m33.056-42.776-2.563-2.429-17 17.812 2.563 2.294 6.746-7.152 18.35 17.543 3.373-3.509-18.35-17.407"/><path d="m578.858 239.14-8.5-1.215v20.106c30.223 32.656 49.787 75.432 52.62 122.662H436.511s-18.89.944-18.89 16.597c0 16.328 14.977 19.027 18.755 19.027h93.638s11.739-.675 11.739 8.231c0 8.502-8.635 8.097-11.604 8.097H339.23c14.842-100.261 93.369-179.742 193.08-196.07-107.537 5.668-194.564 89.736-204.953 196.07H271.9s-20.644-2.43-20.644 15.518 15.517 17.273 19.834 17.273h55.455c2.024 38.188 14.032 73.947 33.327 104.444l.135-.135c-11.874-24.155-19.565-50.738-22.398-78.806h101.6c4.857 0 18.484-.674 18.484-16.462 0-15.654-16.73-16.058-16.73-16.058H303.608s-12.009.944-12.009-8.637 7.826-9.985 11.334-9.985h257.034s19.7 2.159 19.7-16.058c0-16.193-17.271-15.518-23.613-15.518h-87.837s-13.087.54-13.087-9.311 11.063-9.311 12.952-9.311h154.76v2.968c0 51.953-20.103 99.317-53.025 134.672-29.144 31.44-68.408 53.436-112.664 60.858q12.75 7.894 26.716 13.764c32.247-9.176 61.526-25.639 85.813-47.5 19.834-17.812 36.43-39.402 48.708-63.422h95.932v-9.04H622.71c12.278-27.259 19.16-57.486 19.16-89.332V389.6h88.915c6.882 20.106 10.66 41.562 10.66 63.962 0 37.109-10.255 71.923-28.2 101.745l15.112 12.28c20.508-33.196 32.382-72.194 32.382-114.025.54-107.818-78.527-197.689-181.88-214.422m-158.27 236.281c0 8.771-8.5 9.311-8.5 9.311H337.34c-.405-5.802-.674-11.605-.674-17.407v-1.89h76.233c1.349.135 7.69 1.215 7.69 9.986m221.684-94.728c-2.429-43.721-17.675-83.934-42.232-116.994 58.423 17.272 105.782 60.858 128.18 116.994"/></g></svg>
