<svg xmlns="http://www.w3.org/2000/svg" id="a" viewBox="0 0 400 400"><path d="M142.884 124.076c-.266.266-.484.718-.484 1.004s-.251.52-.557.52c-1.808 0-5.847 6.117-5.841 8.846.007 2.821 3.995 8.728 5.907 8.749.279.003.713.455.964 1.005l.455 1h86.288l-3.098 3.7c-1.704 2.035-5.188 6.13-7.742 9.1-6.032 7.013-8.499 9.934-11.104 13.15-1.171 1.445-2.881 3.462-3.8 4.482-1.697 1.881-4.377 5.029-9.51 11.168a691 691 0 0 1-5.952 7c-2.925 3.387-5.116 5.967-11.531 13.579a294 294 0 0 1-4.306 5c-1.536 1.718-5.608 6.523-9.173 10.821-2.033 2.451-6.206 7.382-12.694 15-8.001 9.394-10.345 12.128-12.654 14.755-8.45 9.617-8.622 17.205-.483 21.345l2.555 1.3h117.348l.455-1c.251-.55.623-1 .827-1 1.96 0 5.738-5.821 5.738-8.84 0-2.884-3.954-8.758-5.897-8.76-.223 0-.583-.405-.8-.9l-.395-.9-45.7-.102c-28.07-.062-45.7-.246-45.7-.476 0-.206.18-.486.4-.622.384-.238 3.835-4.267 8.366-9.77a162 162 0 0 1 4-4.657c1.009-1.115 3.454-3.976 5.434-6.358s4.5-5.368 5.6-6.637a782 782 0 0 0 4.8-5.612c1.54-1.819 3.535-4.13 4.434-5.136a185 185 0 0 0 3.8-4.461 775 775 0 0 1 6.366-7.562c2.31-2.712 4.92-5.795 5.8-6.85 3.213-3.854 7.615-8.994 8.947-10.448.751-.821 1.641-1.901 1.977-2.4.337-.5 1.436-1.831 2.444-2.957 3.127-3.496 5.705-6.52 11.21-13.152 2.923-3.52 5.997-7.12 6.832-8s2.12-2.356 2.854-3.281c1.658-2.086 4.978-6.013 7.545-8.925 3.991-4.529 6.253-8.036 6.822-10.577.92-4.11-1.836-9.465-5.9-11.466l-1.931-.951-56.216-.104c-43.569-.081-56.325.005-56.7.38"/><path d="M123.8 7.949c-2.332 1.067-4.806 3.058-12.201 9.817-3.63 3.319-8.13 7.38-10 9.025a895 895 0 0 0-8.256 7.4 1589 1589 0 0 1-8.6 7.747 2283 2283 0 0 0-14.167 12.737A2440 2440 0 0 1 60.196 64c-2.836 2.53-7.155 6.4-9.599 8.6s-6.765 6.07-9.605 8.6C25.188 95.281 25.129 95.349 25.129 99.614c0 3.289 1.317 5.816 4.212 8.083.912.714 3.932 3.37 6.71 5.901S44.031 120.81 47.61 124c3.58 3.19 8.788 7.87 11.574 10.4s7.304 6.58 10.04 8.999c2.737 2.42 6.239 5.57 7.782 7a388 388 0 0 0 5.985 5.401c1.748 1.54 4.381 3.88 5.851 5.2l9.357 8.4c3.676 3.3 8.87 7.989 11.542 10.42 14.266 12.976 15.249 13.502 20.505 10.958 4.398-2.129 4.934-4.804 3.343-16.678-.905-6.754-1.234-9.265-1.585-12.1-.204-1.65-.459-3.45-.566-4s-.395-3.52-.64-6.6c-.244-3.08-.542-6.115-.662-6.744l-.219-1.143 1.942.24c1.067.132 3.561.411 5.541.62s4.095.502 4.7.65 1.1.147 1.1-.003c0-.621-.863-1.82-1.314-1.825-1.893-.022-5.877-5.946-5.884-8.749-.006-2.645 4.011-8.837 5.741-8.849.251-.002.675-.473.941-1.047.479-1.03.468-1.04-.8-.77-.706.151-2.814.446-4.684.658-1.87.211-4.84.564-6.6.784s-4.64.563-6.4.762c-9.931 1.12-12.078 4.058-10.387 14.216.33 1.98.79 4.86 1.022 6.4s.595 3.88.807 5.2c.46 2.879 1.55 10.669 1.555 11.12.007.685-1.063-.193-9.413-7.72-1.342-1.21-4.489-4-6.994-6.2s-6.346-5.62-8.538-7.6c-2.191-1.98-6.52-5.819-9.618-8.532-5.907-5.171-9.836-8.66-14.265-12.668a544 544 0 0 0-6.329-5.6c-2.022-1.76-4.261-3.74-4.976-4.4s-3.586-3.258-6.382-5.772-5.082-4.697-5.082-4.849c0-.284 1.21-1.419 6.37-5.979 1.618-1.43 4.055-3.59 5.417-4.8 1.361-1.21 4.517-4 7.013-6.2s5.646-4.99 7-6.2 4.41-3.91 6.791-6 6.623-5.87 9.425-8.4 6.761-6.04 8.797-7.8a642 642 0 0 0 8.57-7.6c6.641-6.003 12.355-10.997 12.457-10.889.134.141-1.266 9.986-2.261 15.889-2.523 14.979-2.41 16.505 1.449 19.448 2.626 2.003-1.955 1.916 111.724 2.14l107.351.212-5.084 6.4c-8.183 10.299-10.314 12.951-12.167 15.138-4.923 5.807-5.136 11.068-.587 14.503 4.502 3.401 9.523 1.682 14.517-4.968 3.789-5.045 12.746-16.317 15.521-19.531.978-1.132 2.074-2.508 2.437-3.057s2.687-3.493 5.165-6.542c7.834-9.641 8.244-14.65 1.495-18.282l-1.6-.861-112.555-.105-112.554-.105.277-3.295c.523-6.217 1.076-11.098 2.232-19.695 1.806-13.433 2.187-17.999 1.65-19.792-1.317-4.396-6.712-7.06-10.65-5.259m148 199.991c-2.62.852-4.581 3.018-5.364 5.925-.443 1.645-.31 3.101 1.551 17.035.664 4.966 1.006 8.131 2.38 22.039l.271 2.739-1.419-.26c-.78-.143-3.129-.421-5.219-.618s-4.469-.48-5.286-.629l-1.486-.271.486 1.047c.267.576.666 1.048.886 1.05 1.948.018 5.892 5.884 5.892 8.763 0 3-3.776 8.84-5.715 8.84-.445 0-1.313 1.597-1.025 1.886.12.119 1.024.014 2.01-.235.986-.248 2.533-.451 3.438-.451s2.4-.166 3.323-.369c.922-.203 3.927-.576 6.677-.829 14.295-1.317 15.931-3.621 13.215-18.602-.199-1.1-.554-3.215-.789-4.7l-.853-5.4c-.235-1.485-.612-3.6-.838-4.7s-.349-2.525-.273-3.167l.138-1.167 2.847 2.567c1.565 1.412 4.89 4.367 7.388 6.567s5.648 4.99 7 6.2 4.298 3.82 6.547 5.8 6.368 5.67 9.154 8.2 5.694 5.113 6.464 5.739c1.491 1.213 4.536 3.914 9.541 8.461 1.695 1.54 5.226 4.69 7.847 7l7.989 7.042a478 478 0 0 1 5.023 4.489l1.8 1.648-1.832 1.711c-2.259 2.109-4.509 4.12-10.142 9.068a1849 1849 0 0 0-10.629 9.442c-3.44 3.08-8.211 7.31-10.602 9.4-4.13 3.61-5.912 5.191-12.395 10.993-1.54 1.379-3.986 3.564-5.436 4.857a3580 3580 0 0 0-5.759 5.15c-5.845 5.238-15.176 13.362-15.256 13.281-.149-.151.789-6.799 1.817-12.881 2.974-17.601 2.832-19.736-1.52-22.794l-1.715-1.206-108.563-.2-108.563-.2 4.596-5.8c2.527-3.19 5.781-7.267 7.231-9.06s2.922-3.683 3.271-4.2 1.399-1.771 2.332-2.787c6.095-6.632 4.47-15.159-3.087-16.195-4.711-.645-6.392.865-18.745 16.842-1.19 1.54-2.713 3.455-3.384 4.256-2.5 2.985-7.121 8.79-11.101 13.944-.935 1.21-2.45 3.1-3.367 4.2-4.842 5.808-4.499 11.413.887 14.493l1.562.894 112.756.006 112.755.007-.23 2.3c-.127 1.265-.504 5.09-.837 8.5-.656 6.699-.824 8.212-1.426 12.8-.216 1.65-.566 4.35-.777 6s-.599 4.62-.861 6.6c-.952 7.184-.019 9.777 4.248 11.813 4.281 2.043 6.465 1.31 12.852-4.314 6.395-5.632 17.952-15.973 23.564-21.086 2.663-2.427 7.861-7.113 11.549-10.413s8.708-7.824 11.156-10.053 5.471-4.93 6.719-6c1.247-1.071 6.36-5.637 11.363-10.147a3618 3618 0 0 1 15.332-13.742c17.495-15.547 17.429-16.301-2.927-33.435-.9-.757-2.728-2.377-4.063-3.6a679 679 0 0 0-5.793-5.223c-1.851-1.65-4.654-4.17-6.228-5.6a1537 1537 0 0 0-5.987-5.4 810 810 0 0 1-5.959-5.4c-1.559-1.43-6.684-6.02-11.39-10.2-9.279-8.242-11.611-10.334-15.613-14a529 529 0 0 0-5.79-5.2 975 975 0 0 1-8.23-7.4c-12.515-11.377-13.434-12.032-16.751-11.96-1.008.022-2.192.157-2.632.3"/></svg>
