<svg xmlns="http://www.w3.org/2000/svg" id="a" viewBox="0 0 400 400"><path d="M190.243 3.2c-4.41 1.573-2.59-.43-47.444 52.248-53.78 63.164-51.682 60.655-54.201 64.848l-2.19 3.646-.26 63.995c-.142 35.197-.018 66.657.276 69.913l.534 5.918 8.955 11.87c4.925 6.53 23.908 31.207 42.184 54.838 52.902 68.401 48.941 64.006 57.669 63.979 9.626-.03 4.534 5.606 63.29-70.023 34.904-44.924 44.13-57.092 46.3-61.056 2.091-3.818 2.14-136.222.051-140.65-1.77-3.753-4.54-7.126-41.972-51.126-27.003-31.74-39.433-46.16-56.328-65.34-3.483-3.953-10.69-5.261-16.864-3.06"/></svg>
