<svg xmlns="http://www.w3.org/2000/svg" id="a" viewBox="0 0 400 400"><path d="M326.979 17.771c-.889.508-2.362.933-3.275.946-12.546.173-18.915 11.838-16.497 30.21 1.251 9.5.675 11.891-3.54 14.68-2.245 1.485-3.784 3.761-1.728 2.554 8.391-4.925 21.374-16.543 25.363-22.698 1.422-2.194 3.021-3.992 3.554-3.996 1.951-.015 3.231 1.654 3.239 4.223.017 5.608 3.797 17.502 6.07 19.101.382.269.289 1.794-.245 4.022-.63 2.626-.743 5.957-.419 12.411.448 8.919.812 10.421 3.15 12.989l1.294 1.422-1.908 1.907c-3.89 3.89-5.585 20.817-2.457 24.534 2.093 2.487 2.038 2.954-.435 3.7-4.238 1.278-9.386 18.844-6.661 22.733.94 1.343.867 1.452-1.778 2.635-2.743 1.228-11.155 9.428-15.047 14.669-1.056 1.421-2.067 2.73-2.247 2.908-2.386 2.359-4.106 6.38-3.198 7.475.543.654.139 1.21-1.766 2.422-6.018 3.831-14.336 16.466-13.462 20.446.383 1.747.253 1.848-4.373 3.39-5.214 1.739-11.619 5.644-13.189 8.04-2.614 3.989-5.753 2.007-10.89-6.873-1.703-2.943-2.314-3.237-6.736-3.237-4.325 0-13.72 1.995-15.206 3.228-.43.357-2.788 1.372-5.239 2.255-6.919 2.494-16.694 13.357-22.754 25.287-1.332 2.622-2.963 3.479-6.62 3.479-1.579 0-1.866-1.186-2.615-10.796-1.296-16.618-1.235-16.258-3.004-17.65-3.6-2.831-7.762-1.284-14.187 5.275-6.575 6.713-7.741 9.798-10.799 28.563-1.485 9.113-6.838 12.058-6.838 3.762 0-1.576-.29-4.644-.645-6.818-.956-5.858-2.701-17.117-3.156-20.363-1.206-8.597-10.415-5.28-10.415 3.752 0 1.412-.26 2.728-.577 2.924-2.254 1.393-1.198 16.631 1.965 28.36 1.363 5.053 1.087 8.193-.719 8.193-1.5 0-6.149-10.989-8.473-20.032-2.706-10.526-2.986-11.143-7.494-16.517-1.648-1.964-4.002-3.859-5.896-4.746l-3.152-1.477-3.174 1.515c-4.099 1.957-5.884 7.608-6.477 20.511-.238 5.173-.9 7.176-2.37 7.176-.367 0-1.622.728-2.789 1.618-1.382 1.054-2.273 1.373-2.556.916-3.419-5.532-25.886-4.491-36.428 1.688l-4.11 2.408-2.009-2.25c-3.988-4.467-9.559-6.261-21.077-6.789-20.654-.946-34.29 9.373-36.509 27.63-.221 1.811-.981 3.653-1.995 4.833-2.918 3.396-9.956 18.981-9.956 22.048-.001 4.469 3.627 3.296 6.396-2.068 1.742-3.373 2.448-4.188 3.41-3.937 1.391.364 3.579-2.082 6.322-7.068 1.452-2.64 2.483-3.551 6.215-5.494 2.908-1.514 4.89-3.04 5.664-4.362 1.364-2.329 1.463-2.346 6.241-1.063 8.498 2.281 23.346.028 33.403-5.068 2.882-1.461 4.228-1.663 13.494-2.019 12.433-.479 22.963-1.757 26.892-3.264.513-.198 2.039.519 3.39 1.593 5.281 4.197 13.584 7.068 20.587 7.12 2.765.02 3.43.334 6.206 2.93 1.71 1.6 3.573 2.908 4.141 2.908.802 0 1.074.825 1.225 3.716l.194 3.715 2.261-.177c1.244-.097 3.663-1.042 5.375-2.1 5.245-3.241 7.449-2.204 5.005 2.356-2.446 4.565-2.22 4.769 5.291 4.761 7.069-.007 11.563-.99 14.678-3.208 3.277-2.333 5.575-2.401 6.713-.199 1.133 2.191 5.33 6.144 7.974 7.512 1 .516 2.371 1.551 3.047 2.298s1.73 1.358 2.342 1.358 1.454.41 1.87.912c.842 1.014.086 1.253-6.414 2.029-8.468 1.011-13.865 3.178-31.935 12.824-1.748.933-8.727 3.891-15.509 6.573-6.781 2.681-13.251 5.298-14.378 5.814-11.279 5.17-17.608 9.335-19.867 13.076-2.119 3.508-1.977 3.697 1.621 2.161 5.171-2.208 23.129-3.665 28.898-2.345 3.475.796 5.186.909 6.462.429 4.784-1.8 16.695-1.197 29.522 1.494 13.26 2.781 16.333 4.294 12.024 5.921-1.149.434-2.303 1.62-2.995 3.079-2.023 4.262-10.038 8.341-17.877 9.097-2.242.217-5.966.804-8.276 1.305-7.292 1.583-17.241 2.205-23.91 1.495-3.376-.359-7.157-.579-8.4-.489s-4.261.179-6.704.197l-4.442.034 1.981 1.638c4.6 3.804 14.317 6.576 29.649 8.46 14.077 1.73 32.883-.873 47.096-6.519 8.232-3.27 20.267-9.663 21.375-11.354.635-.968 1.637-1.549 2.672-1.549.912 0 2.55-.272 3.642-.605 1.091-.332 3.193-.918 4.67-1.3 6.154-1.594 12.216-7.64 14.897-14.856 1.373-3.695 2.459-4.355 10.074-6.123 9.855-2.289 13.205-27.165 4.534-33.678-4.52-3.395-4.419-4.106.751-5.28 2.242-.509 4.135-1.361 4.646-2.09.547-.782 2.559-1.617 5.51-2.289 6.122-1.392 13.591-4.327 16.33-6.416 2.572-1.962 4.895-2.11 10.388-.661 2.118.558 4.768.872 5.889.697l2.038-.319-.099 4.067c-.114 4.667 5.522 17.065 8.342 18.35.915.417 1.649 1.65 2.138 3.592.761 3.02 1.478 4.475 5.283 10.723 4.913 8.066 9.787 13.57 12.016 13.57.528 0 1.645.813 2.481 1.807 2.279 2.708 7.392 5.206 12.035 5.88 2.273.329 4.641.801 5.263 1.049.647.257 1.131.158 1.131-.233 0-.849-4.033-3.979-5.127-3.979-.443 0-1.288-.589-1.878-1.31-.59-.72-2.932-2.255-5.204-3.412-4.022-2.047-4.155-2.196-5.013-5.637-1.301-5.215-8.758-19.816-12.145-23.781-1.73-2.026-2.943-4.089-2.943-5.006 0-.859-1.205-3.816-2.678-6.571s-3.79-7.114-5.148-9.685c-1.359-2.571-3.387-5.494-4.507-6.495-1.586-1.416-2.055-2.384-2.122-4.371l-.085-2.553 8.561-.18c12.039-.254 12.462-.099 13.487 4.929.454 2.226 1.66 5.412 2.678 7.08s2.044 3.547 2.279 4.174 1.091 1.394 1.904 1.703c1.03.391 1.716 1.452 2.263 3.497 1.368 5.114 11.25 18.539 13.647 18.539.515 0 2.564.799 4.553 1.777 3.735 1.835 10.875 2.47 13.952 1.242 1.391-.556-5.241-3.772-9.572-4.641-3.67-.738-4.317-1.035-4.317-1.985 0-.514-.265-1.439-.588-2.056-.324-.618-1.364-3.011-2.312-5.319-2.22-5.406-7.434-14.172-8.893-14.953-.622-.333-1.131-1.198-1.131-1.924 0-.725-1.128-3.259-2.506-5.631-1.379-2.372-3.385-6.058-4.459-8.19-1.074-2.133-2.736-4.605-3.694-5.493-1.754-1.627-3.558-4.547-3.558-5.76 0-.375 1.723-.642 4.039-.625 2.221.017 5.605-.284 7.52-.669s4.869-.701 6.566-.701h3.086l.43 2.545c.237 1.399 1.464 4.234 2.729 6.3a691 691 0 0 1 3.34 5.509c.573.965 1.625 1.837 2.337 1.939.809.116 1.377.774 1.516 1.754.651 4.611 12.593 18.787 15.826 18.787.806 0 1.74.255 2.078.567 1.786 1.649 7.327 2.738 9.943 1.954 2.827-.847 3.292-1.502 1.495-2.102-7.658-2.556-10.191-3.602-10.568-4.362-.246-.497-.986-2.208-1.644-3.802-1.526-3.696-7.523-13.312-9.88-15.841-.994-1.067-1.959-2.576-2.146-3.355-.511-2.137-7.518-12.906-10.819-16.629-1.599-1.804-3.225-3.861-3.613-4.572-.991-1.815-3.14-2.726-8.354-3.542-7.407-1.159-9.212-2.573-3.342-2.618 2.334-.018 6.302-1.118 10.274-2.847.857-.373 1.201-.069 1.536 1.355.678 2.886 4 8.377 5.769 9.536.884.579 1.608 1.571 1.608 2.205 0 5.304 10.643 14.974 16.481 14.974 4.477 0 4.18-2.34-.488-3.843-1.562-.504-2.423-1.177-2.423-1.896 0-1.618-4.686-11.046-6.645-13.368-.92-1.09-1.877-2.834-2.128-3.877-.612-2.539-3.189-7.063-6.05-10.619-1.287-1.599-2.839-3.696-3.45-4.659-1.491-2.353-5.373-3.352-10.907-2.807-2.883.285-4.451.188-4.748-.292-.615-.995.191-3.873 1.084-3.873 5.25 0 15.475-18.979 13.262-24.615-.909-2.312-.903-2.627.066-3.597 2.84-2.839 4.344-13.143 2.809-19.245l-1.458-5.809c-.395-1.575-1.412-3.515-2.262-4.313-1.945-1.828-1.948-2.73-.01-3.767.862-.462 1.845-1.853 2.246-3.179 1.661-5.498 2.796-11.054 3.137-15.35l.364-4.592-2.025-.705c-2.552-.89-2.567-1.953-.058-4.016 4.329-3.559 5.413-27.129 1.247-27.129-.346 0-.629-.436-.629-.969 0-.534.287-.97.637-.97 3.924 0 2.412-26.872-1.696-30.165-1.322-1.059-1.588-1.621-1.071-2.262 2.593-3.214-1.582-20.169-5.836-23.699-.648-.539-.852-1.553-.638-3.188 1.067-8.163-15.465-19.941-22.414-15.968m-64.082 193.49c.136.932-.282 1.814-1.147 2.42-.749.525-2.699 2.111-4.332 3.525-2.513 2.175-3.269 2.506-4.904 2.147-3.758-.826-9.897.311-13.084 2.422-5.134 3.4-4.065.429 2.471-6.863l2.852-3.183 7.026-.379c3.864-.208 7.607-.729 8.318-1.158 1.71-1.032 2.538-.716 2.8 1.069m-63.296 6.671c.297.8 1.083 4.758 1.747 8.796l1.209 7.343-1.862 1.484c-1.024.817-2.908 1.64-4.186 1.83-1.279.189-3.27.54-4.425.778-2.58.532-2.662-.134-.763-6.176a272 272 0 0 0 2.619-9.032c1.76-6.548 4.271-8.776 5.661-5.023m-62.982 13.155c.568.218 1.03 1.151 1.039 2.1.033 3.449 2.45 12.223 5.152 18.706 2.956 7.093 2.908 10.324-.098 6.588-4.405-5.474-6.105-7.265-8.972-9.451-3.535-2.696-4.338-6.261-2.238-9.935.508-.888.934-2.579.947-3.758.041-3.832 1.468-5.287 4.17-4.25"/></svg>
