<svg xmlns="http://www.w3.org/2000/svg" id="a" viewBox="0 0 2105 2016"><path d="M918.91 20.388c-49.941 8.807-95.59 41.965-114.49 95.516L657.186 533.07c-14.355 40.671-45.666 73.053-85.859 88.801L159.044 783.395C53.25 824.843 32.792 970.356 122.981 1039.24l351.663 268.57a148 148 0 0 1 40.884 48.15 148 148 0 0 1 17.097 60.8l26.21 441.47c6.724 113.26 138.833 177.69 232.452 113.21l.002-.01 364.581-251.17v-.01a148.5 148.5 0 0 1 121.68-21.45l428.49 111.31c110.02 28.59 212.13-77.15 179.71-185.89v.01l-126.33-423.82c-6.09-20.41-7.7-41.89-4.73-62.99a147.9 147.9 0 0 1 21.96-59.22v-.01l238.6-372.677-.01-.002c61.2-95.578-7.78-225.314-121.37-228.077l-442.66-10.753c-43.15-1.048-83.65-20.767-111.04-54.073L1059.15 70.955c-36.07-43.854-90.309-59.396-140.254-50.588m13.444 76.246c22.695-4.002 47.479 3.838 65.025 25.166l281.015 341.643c42.14 51.241 104.57 81.62 170.88 83.233l442.66 10.753c55.43 1.346 85.71 58.488 55.94 104.974l-238.59 372.678c-35.79 55.87-45.47 124.63-26.53 188.2l126.34 423.81c15.73 52.78-29.25 99.55-82.93 85.61l-428.49-111.32c-64.21-16.69-132.57-4.63-187.2 33.02l-364.576 251.17c-45.679 31.47-103.939 2.9-107.208-52.07l-26.207-441.47c-3.932-66.23-36.555-127.51-89.283-167.79L171.524 975.65c-43.862-33.499-34.944-97.55 16.679-117.783l412.282-161.526c61.771-24.202 110.04-74.101 132.123-136.67v-.002l147.234-417.165c9.192-26.041 29.798-41.886 52.493-45.889"/><path d="M790.631 1144.08c42.736-7.54 71.273-48.29 63.739-91.02-7.534-42.74-48.285-71.267-91.021-63.731-42.736 7.537-71.273 48.291-63.739 91.021s48.286 71.27 91.021 63.73m633.069-111.63c42.73-7.53 71.27-48.286 63.73-91.018-7.53-42.733-48.28-71.266-91.02-63.729-42.73 7.536-71.27 48.288-63.74 91.021 7.54 42.736 48.29 71.266 91.03 63.726m-381.61 94.12c-4.9 1.89-9.38 4.73-13.19 8.35a40.04 40.04 0 0 0-12.4 27.99c-.13 5.25.78 10.48 2.67 15.38a104.5 104.5 0 0 0 21.79 34.37 104.1 104.1 0 0 0 33.29 23.41l.01.01c12.51 5.54 25.99 8.56 39.68 8.89h.03c13.68.32 27.29-2.05 40.06-6.98h.01a104.1 104.1 0 0 0 34.36-21.78h.01v-.01c9.91-9.44 17.86-20.75 23.4-33.26 5.56-12.53 8.58-26.04 8.9-39.74.25-10.6-3.72-20.87-11.04-28.55a40.04 40.04 0 0 0-43.38-9.69 40 40 0 0 0-13.18 8.37c-3.8 3.62-6.85 7.96-8.97 12.77a40 40 0 0 0-3.4 15.23c-.08 3.17-.78 6.3-2.07 9.2v.01l-.01.02a24.4 24.4 0 0 1-5.44 7.74c-2.31 2.2-5.02 3.92-7.99 5.06l-.02.01c-2.98 1.15-6.15 1.7-9.34 1.63-3.18-.08-6.32-.79-9.23-2.08h-.02l-.01-.01a24.3 24.3 0 0 1-7.73-5.43v-.01a24.2 24.2 0 0 1-5.07-8 39.96 39.96 0 0 0-21.12-22.16c-4.8-2.13-9.98-3.29-15.23-3.42s-10.47.78-15.37 2.68"/></svg>
