<svg xmlns="http://www.w3.org/2000/svg" id="a" viewBox="0 0 512 512"><path d="m510.56 371.077-57.542-115.145 57.53-114.993 1.443-2.884V.009H373.944l-2.881 1.439-115.068 57.477L140.923 1.448l-2.88-1.44H0v138.047l1.443 2.884 57.53 114.995L1.44 371.077 0 373.96v138.03h138.048l2.885-1.444 115.062-57.588 115.058 57.588 2.885 1.444H512V373.958zm-84.064-126.348L267.298 85.491 479.58 32.482zm-341.005-.072L32.419 32.483 244.734 85.5zm-.007 22.588 159.2 159.196-212.266 53.014zm341.01.003 53.086 212.207-212.273-53.014"/></svg>
