<svg xmlns="http://www.w3.org/2000/svg" id="a" viewBox="0 0 128 217.374"><path d="m6.875 192.617-3.094 14.176c2.16 3.516 5.918 7.547 8.88 9.684l5.597-20.332Zm23.004-83.969L48.75 79.184l7.66-9.805 4.375-.86 1.426 3.563-5.418 14.383-16.652 25.492zM128 0c-26.031 36.188-62.145 42.07-97.98 56.234C5.19 66.043-1.96 87.293 5.477 103.52c2.84 25.761-1.5 47.015-5.25 73.277-.91 6.375 1 12.32 4.523 16.441-.742 3.93-1.465 11.121-1.59 12.356.59 1.285 1.508 2.691 2.582 4.082a3 3 0 0 0 .047-.336c.168-.29.89-7.211 2.133-13.219 1.496 1.055 3.144 1.856 4.902 2.32q.845.216 1.719.309c-1.66 5.133-2.867 12.094-3.383 16.559 1.055.875 2.067 1.597 2.942 2.066a2.5 2.5 0 0 0 .062-.437c.477-4.38 3.242-14.336 5.059-18.47 2.297-.488 4.609-1.456 6.746-2.808 4.18-2.644 7.914-7.289 10.613-14.222 15.113-38.82 29.695-52.887 46.387-70.938 8.71-5.387 16.125-12.09 21.136-19.344C118.301 70.613 127.675 49.484 128 0m-3.57 8.867c-.782 28.39-9.258 57.324-24.813 78.531s-44.023 34.243-70.183 29.446c-7.282-1.336-15.82-6.79-18.621-13.465-8.418-20.074 3.226-37.375 20.605-43.414 35.91-12.485 75.25-23.836 93.012-51.098M61.215 65.023c-9.336-.066-26.266 27.551-31.817 42.75-9.925-5.015-12.441-17.144-5.968-28.789a34.6 34.6 0 0 1 3.672-5.285c-2.579 2.52-4.75 5.336-6.426 8.32-7.684 13.797-3.121 27.891 10.191 31.481 13.309 3.59 30.332-4.684 38.016-18.477 1.703-3.058 2.847-6.234 3.379-9.37a29.7 29.7 0 0 1-2.473 5.831c-5.328 9.543-15.598 16.7-26.16 18.239 5.601-7.598 27.594-40.215 19.398-44.282a4.1 4.1 0 0 0-1.812-.418m-2.613 4.743c.183 0 .363.023.523.078 5.191 1.804-15.645 32.52-20.68 40.164a24 24 0 0 1-5.215-.75q-.551-.165-1.085-.36c5.09-12.324 20.843-39.02 26.457-39.132M10.285 111.21c4.215 5.129 10.02 8.984 18.422 10.77 13.242 2.812 27.758.605 40.867-4.696-9.629 11.078-25.152 21.82-45.87 34.754-9.388 5.664-15.188 10.457-18.278 16.45 3.277-20.415 6.676-36.188 4.86-57.278m46.735 22.55c-7.81 10.442-15.227 23.567-24.063 46.266-2.473 6.352-5.742 10.243-9.066 12.344-3.325 2.102-6.723 2.48-9.825 1.668a12.8 12.8 0 0 1-4.062-1.902c-.012-.035-.012-.063-.024-.098-4.265-4.496-4.386-12.973-2.144-18.898 2.246-5.922 7.309-12.094 16.93-18.098 12.941-7.555 23.605-14.5 32.254-21.281"/></svg>
