<svg xmlns="http://www.w3.org/2000/svg" id="a" viewBox="0 0 400 400"><path d="M80.712 1.839c-.747 1.011-2.14 3.699-3.099 5.97l-1.739 4.133.27 19.613c.177 12.884.531 20.233 1.03 21.42.42.996.92 4.209 1.11 7.142.215 3.276.71 5.73 1.286 6.367.515.57 1.129 2.347 1.364 3.953.235 1.607.814 4.389 1.287 6.184s1.05 5.217 1.28 7.606c.233 2.39.841 5.74 1.355 7.447 1.238 4.114 1.207 10.044-.06 11.853-.547.78-1.245 3.709-1.552 6.508-.545 4.977-.982 6.605-3.372 12.596-.645 1.616-1.325 4.272-1.513 5.903-.188 1.632-.793 3.835-1.346 4.895s-1.007 2.83-1.01 3.93c-.002 1.102-.584 4.186-1.294 6.853-.708 2.668-1.295 5.696-1.305 6.73-.008 1.033-.576 4.117-1.263 6.853a211 211 0 0 0-2.013 8.889c-2.005 10.264-2.435 11.927-3.466 13.397-.607.868-1.104 2.06-1.104 2.65s-.588 1.819-1.306 2.73c-.717.914-1.305 2.154-1.305 2.76s-.587 1.845-1.305 2.759c-.718.912-1.305 2.087-1.305 2.61s-.588 1.697-1.306 2.61c-.717.913-1.305 2.173-1.305 2.797s-.44 1.503-.979 1.95c-1.1.912-1.305 2.984-.355 3.572.649.401 5.268-1.294 5.88-2.157.192-.271 2.111-1.348 4.265-2.394s4.653-2.398 5.554-3.005c3.542-2.384 8.24-1.583 7.462 1.272-.26.953-.685 3.02-.944 4.593-.26 1.573-.951 3.13-1.54 3.46-1.448.81-1.345 2.543.363 6.059l1.435 2.95-1.45 1.35c-.796.74-2.543 1.804-3.88 2.36-1.337.558-2.579 1.214-2.758 1.46-.18.247-1.72 1.253-3.425 2.237-5.818 3.361-14.849 13.913-14.849 17.349 0 4.252 2.105 4.263 8.484.046.539-.356 1.713-.94 2.61-1.298.898-.357 2.073-.923 2.611-1.257 1.934-1.196 7.589-2.78 12.074-3.38 2.513-.336 5.45-.928 6.526-1.315 3.126-1.124 17.075-1.57 18.263-.585 1.25 1.037 1.382 9.055.174 10.577-.65.82-2.773 1.102-10.494 1.39-10.233.382-15.6 1.774-23.28 6.034a38 38 0 0 1-3.426 1.636c-2.028.828-2.274 2.239-.765 4.394 1.175 1.676 2.666 1.598 10.065-.527 6.398-1.837 24.582-4.276 27.125-3.637l1.591.399v97.736l-4.405 3.865c-2.423 2.126-5.025 4.285-5.784 4.799-1.514 1.024-7.953 6.515-10.663 9.091-.943.897-4.124 3.53-7.068 5.848-7.164 5.645-7.431 5.536 14.083 5.77l18.08.2 7.09 6.76c4.014 3.825 6.898 7.067 6.65 7.469-.298.484-6.009.714-17.859.72-21.896.01-22.876.206-17.16 3.417L90.225 400h60.957c46.541 0 61.144-.186 61.741-.783 1.023-1.023 1.004-2.47-.033-2.514-.448-.02-2.284-1.838-4.078-4.04s-4.778-5.637-6.628-7.634c-1.85-1.996-5.045-5.685-7.097-8.197-3.319-4.065-5.704-6.781-14.82-16.878-4.71-5.219-4.413-1.368-4.413-57.102v-50.288l2.12-.35c1.167-.195 15.19-.466 31.164-.605 23.444-.204 29.923-.452 33.61-1.285 2.513-.57 6.954-1.045 9.868-1.058 3.443-.016 6.73-.48 9.385-1.33 2.247-.717 5.296-1.305 6.774-1.305 1.479 0 4.451-.567 6.605-1.26 3.785-1.221 6.526-1.957 12.726-3.416 1.616-.378 3.4-1.098 3.967-1.597s1.393-.906 1.835-.906c2.536 0 15.57-7.683 22.588-13.312 7.71-6.185 16.454-16.506 19.328-22.814 1.13-2.482 3.535-2.754 6.568-.747 2.83 1.873 5.557 1.746 4.758-.222a82 82 0 0 1-1.12-3.041c-.371-1.077-1.058-2.404-1.525-2.947-2.297-2.674-2.046-11.612.529-18.863 1.34-3.772 1.132-42.148-.242-44.759-.566-1.077-1.222-3.203-1.453-4.722-.44-2.862-1.23-4.924-4.451-11.594-4.521-9.365-9.653-16.918-14.19-20.884-4.934-4.314-4.79-3.966-4.374-10.604.208-3.318.788-6.842 1.285-7.831.498-.989 1.108-3.821 1.351-6.297.245-2.475.744-5.059 1.11-5.743 3.242-6.056 5.307-49.716 2.644-55.904-.775-1.8-1.408-3.825-1.408-4.498 0-.674-.807-1.984-1.794-2.911L321.716.075l-3.59 1.857c-1.974 1.021-4.323 2.165-5.22 2.542-.898.375-2.073.977-2.611 1.338-.539.36-1.713.946-2.61 1.305-.898.357-2.073.93-2.611 1.271-1.284.814-5.77 3.05-7.832 3.903-.897.372-2.806 1.4-4.242 2.284a418 418 0 0 1-6.526 3.896c-2.154 1.26-4.973 3.257-6.265 4.44-1.293 1.183-4.358 3.767-6.814 5.741a299 299 0 0 0-7.114 5.897 95 95 0 0 1-5.26 4.21c-1.436 1.045-7.025 6.395-12.421 11.887l-9.81 9.985h-73.605l-11.228-11.258c-6.176-6.192-13.335-12.855-15.91-14.806-2.574-1.952-5.327-4.177-6.117-4.946-.79-.768-3.05-2.578-5.025-4.02-1.976-1.444-3.992-3.106-4.482-3.699-.49-.59-2.547-2.01-4.568-3.155-2.022-1.146-3.823-2.276-4.002-2.514-.38-.505-3.277-2.099-6.527-3.596-3.566-1.643-7.41-3.567-8.484-4.249-.538-.341-1.713-.914-2.61-1.271-.898-.359-2.073-.924-2.611-1.258s-3.358-1.788-6.264-3.232L82.071 0Zm18.13 30.791c0 .305 1.762 3.167 3.916 6.36s3.916 6.138 3.916 6.546.587 1.839 1.305 3.178 1.305 2.77 1.305 3.18.432 1.105.961 1.544c.53.438 1.15 1.8 1.38 3.024s.71 2.405 1.066 2.626c1.62 1.001-1.78 1.524-9.966 1.533-10.081.012-10.41-.133-10.41-4.59 0-1.67-.32-3.953-.71-5.073-.578-1.661-.458-2.763.654-5.974.748-2.165 1.362-5.092 1.362-6.503 0-4.758 2.424-8.727 4.351-7.127.478.397.87.97.87 1.276m210.046-.816c.868.868 1.307 2.575 1.575 6.124.205 2.706.852 5.849 1.439 6.983.868 1.677.982 3.113.612 7.68-.63 7.758-.958 8.03-9.643 8.03-11.845 0-12.45-.51-9.145-7.709a4481 4481 0 0 0 3.045-6.649c.737-1.615 2.436-4.552 3.775-6.526 1.34-1.974 3.205-4.838 4.143-6.363 1.907-3.099 2.462-3.307 4.2-1.57m-107.91 55.578c1.436.35 5.694.828 9.463 1.06 4.174.26 8.075.902 9.977 1.64 1.718.668 4.068 1.223 5.221 1.236 1.154.011 3.272.589 4.707 1.282s3.086 1.271 3.667 1.283c1.205.026 10.579 4.733 14.863 7.466 3.322 2.117 10.513 9.305 10.513 10.505 0 .45.463 1.203 1.03 1.673 1.446 1.2 6.264 11.498 6.852 14.642.267 1.435.972 3.917 1.566 5.516 1.609 4.337 1.227 32.198-.475 34.603-.628.887-1.142 2.19-1.142 2.894s-.542 2.473-1.204 3.934a176 176 0 0 0-1.945 4.447c-.406.988-1.04 1.795-1.405 1.795-.367 0-.667.28-.667.623 0 4.246-19.773 19.493-25.453 19.627-.538.013-1.548.455-2.245.982s-1.964.958-2.816.958-2.925.563-4.607 1.251c-1.683.689-4.706 1.42-6.72 1.627-2.013.205-4.656.778-5.873 1.272-1.266.514-6.118 1.082-11.35 1.33-5.024.237-10.458.703-12.073 1.036-4.319.891-13.292.814-14.227-.12-1.354-1.355-1.11-104.68.25-105.2 2.297-.883 35.103-.392 39.756.594 2.513.532 6.477.98 8.81.997 2.334.014 5.418.478 6.853 1.026 1.436.55 3.932 1.304 5.548 1.676 1.615.372 3.4 1.085 3.966 1.584.568.498 1.483.906 2.035.906.551 0 1.749.587 2.66 1.305.914.718 1.854 1.305 2.09 1.305.569 0 4.586 3.06 7.475 5.691 3.06 2.787 3.878 1.738 1.44-1.847-3.515-5.164-13.499-13.633-16.072-13.633-.543 0-2.085-.588-3.425-1.306-1.338-.718-3.486-1.305-4.772-1.305s-3.934-.507-5.883-1.126c-3.123-.992-6.851-1.127-31.283-1.142l-27.737-.016-.326 55.147c-.18 30.331-.565 55.515-.855 55.963-.626.971-8.114 1.108-9.587.178-1.638-1.036-1.806-120-.173-121.975 1.982-2.397 35.082-3.448 43.573-1.384m122.22 12.887c3.583 4.873 6.557 9.417 7.797 11.91.446.898 1.087 2.072 1.425 2.61 1.653 2.642 3.165 6.49 3.578 9.105.253 1.597.767 3.276 1.144 3.73.376.453.962 3.07 1.303 5.815.341 2.744 1.048 6.635 1.571 8.645 1.993 7.648.865 30.641-1.739 35.508-.718 1.342-1.82 1.518-2.139.34-1.4-5.167-3.002-13.174-3.002-14.994 0-1.262-.587-4.133-1.305-6.38s-1.306-5.064-1.306-6.26-.587-3.666-1.305-5.487-1.305-3.99-1.305-4.818c0-.83-.587-2.038-1.305-2.688-.805-.727-1.306-2.01-1.306-3.34 0-1.187-.587-3.65-1.305-5.47s-1.305-3.89-1.305-4.595c0-.706-.587-2.38-1.305-3.72-1.005-1.874-1.31-3.713-1.328-7.991-.015-3.583-.355-6.136-.957-7.189-.948-1.658-1.337-7.906-.543-8.701.865-.866 1.452-.364 4.637 3.97m6.53 95.81c1.979 1.386 1.822 3.122-.617 6.888-2.469 3.81-2.604 3.839-4.012.884-2.748-5.761.267-10.825 4.629-7.771m-226.325 11.05c1.32 1.59.253 5.493-1.703 6.237-2.709 1.029-11.702.784-12.639-.345-.757-.912 1.185-2.295 3.216-2.295.292 0 .896-.44 1.343-.98.447-.538 1.295-.978 1.884-.978.591 0 2.097-.571 3.347-1.268 2.79-1.555 3.52-1.615 4.552-.37m200.983-.036c.427.515 1.677 1.135 2.779 1.377 1.977.434 5.704 2.256 10.482 5.126l2.46 1.477-3.765 3.59c-5.027 4.793-8.257 6.863-19.279 12.36-8.844 4.41-12.103 5.807-13.547 5.807-.71 0-2.387.587-3.726 1.305-1.34.718-3.236 1.305-4.215 1.305s-3.186.545-4.904 1.213c-1.718.667-5.105 1.39-7.527 1.607-2.42.217-5.015.723-5.766 1.124-.75.401-5.965 1.003-11.587 1.336s-11.398.89-12.834 1.237c-4.29 1.038-34.707.801-44.067-.343-4.523-.553-10.996-.92-14.384-.815l-6.16.189-.166 56.338-.167 56.339 2.451 3.05c1.348 1.678 2.965 3.435 3.593 3.905s1.142 1.17 1.142 1.56c0 .388.485 1.06 1.078 1.495.593.434.806.954.477 1.16-.845.52-6.838-4.094-14.038-10.81l-6.117-5.704v-59.727c0-50.688.139-59.814.92-60.297.506-.311 16.952-.696 36.548-.855 25.132-.2 36.299-.514 37.911-1.062 1.256-.426 5.955-1.047 10.442-1.378 4.487-.333 9.333-1.045 10.769-1.581 1.435-.537 3.932-.999 5.547-1.027s4.111-.618 5.547-1.311c1.436-.694 3.547-1.271 4.693-1.283 1.145-.011 2.251-.295 2.457-.628s1.472-.933 2.813-1.333c2.304-.689 7.143-2.795 9.29-4.045.538-.313 2.007-1.033 3.263-1.599s3.31-1.81 4.565-2.76c3.639-2.761 6.546-4.668 7.11-4.668.288 0 1.055-.588 1.704-1.306 1.387-1.533 3.115-1.683 4.208-.368m-99.117 53.188c-.742.47-.48.962 1.292 2.437 2.275 1.891 8.393 7.337 10.733 9.553.718.679 4.361 3.922 8.097 7.207 3.737 3.284 8.068 7.23 9.628 8.765l2.834 2.791-.057 29.592-.055 29.594-1.788 1.878c-.984 1.034-2.502 2.459-3.371 3.165l-5.172 4.195c-1.975 1.6-3.737 3.093-3.916 3.32-.18.227-.947.836-1.705 1.353s-2.96 2.308-4.895 3.98a426 426 0 0 1-7.898 6.604c-5.602 4.554-6.001 4.387 10.528 4.395 19.256.01 17.716-.434 25.959 7.484 4.227 4.063 6.75 6.956 6.464 7.418-.335.541-5.342.755-17.67.755-20.76 0-21.765.214-16.832 3.567l2.436 1.654h61.767c58.3 0 65.846-.147 65.846-1.282 0-.258-1.542-2.115-3.426-4.128-4.93-5.265-20.162-21.77-23.332-25.282a2376 2376 0 0 0-6.853-7.463c-7.428-8.07-6.704-4.248-6.767-35.672l-.056-27.163 12.449-12.392 12.45-12.393-1.06-2.05c-1.941-3.755-2.956-3.101-17.552 11.319l-13.533 13.366.181 30.323c.177 29.347.225 30.362 1.488 31.567.718.686 2.92 3.06 4.895 5.277a387 387 0 0 0 6.1 6.69c4.112 4.352 1.828 4.12-4.101-.42-3.02-2.31-5.66-4.435-5.866-4.718-.207-.286-2.871-2.562-5.922-5.06s-6.34-5.267-7.307-6.151l-1.757-1.61-.032-29.525-.031-29.524 16.35-16.461c11.718-11.798 16.107-16.613 15.495-17.003-1.173-.742-112.862-.696-114.038.048m-87.135 93.326c-.51.563-1.248 1.759-1.64 2.656-.39.898-1.562 2.952-2.605 4.567-1.718 2.666-1.897 3.48-1.945 8.843-.054 6.235-.558 7.473-3.038 7.473-6.022 0-2.545-18.636 4.972-26.647l1.426-1.52 1.88 1.8c1.647 1.58 1.765 1.927.95 2.828m32.268-2.888 1.537 1.635-1.519 2.77c-.837 1.523-1.917 3.233-2.402 3.799-.486.568-.882 1.279-.882 1.58 0 .303-.514 1.118-1.142 1.812-.873.964-1.22 2.822-1.469 7.884l-.326 6.62h-4.568l.02-7.178c.017-6.416.19-7.481 1.63-10.009l2.601-4.568c3.363-5.91 4.402-6.601 6.52-4.345m99.523.056c1.348 1.346 1.536 1.88.924 2.617-3.98 4.795-6.471 11.245-6.471 16.75 0 5.759-.53 7.004-2.987 7.004-4.988 0-3.952-12.346 1.835-21.863 4.23-6.959 4.242-6.967 6.7-4.508m33.215.194c1.159 1.209 1.55 2.046 1.092 2.328-.394.243-1.307 1.524-2.032 2.846a752 752 0 0 1-2.927 5.28c-1.367 2.44-1.612 3.73-1.612 8.516 0 5.94-.515 7.207-2.937 7.207-4.366 0-4.041-13.214.495-20.132 6.089-9.284 5.355-8.724 7.921-6.045m46.833 39.083c4.498 4.814 4.834 4.715-15.976 4.715h-18.411l-7.075-7.097c-5.304-5.321-6.852-7.24-6.188-7.669.488-.313 8.962-.718 18.833-.897l17.947-.327 3.826 3.916a577 577 0 0 1 7.044 7.359m-142.049-9.261c4.052 5.079 8.667 10.53 9.406 11.108 3.104 2.427.684 2.868-15.748 2.865l-15.847-.002-6.758-6.688c-3.719-3.677-6.729-6.98-6.691-7.339.158-1.53 34.416-1.476 35.638.056m83.707-1.294c2.294.458 16.169 13.524 15.505 14.6-.261.422-5.254.67-13.49.67H260.57l-7.122-6.978c-7.15-7.001-7.517-7.674-4.502-8.215 2.54-.456 20.488-.518 22.686-.077m-121.187 6.995c8.905 8.639 9.203 8.275-6.79 8.273l-13.161-.003-6.995-6.947c-3.846-3.821-6.84-7.197-6.65-7.504.189-.305 6.273-.545 13.52-.533l13.177.02"/></svg>
