<svg xmlns="http://www.w3.org/2000/svg" id="a" viewBox="0 0 400 492.632"><path d="M195.833 4.857c-.334.08-1.963.368-3.62.638-4.85.792-9.047 2.552-17.02 7.136a1976 1976 0 0 1-8.903 5.1c-1.789 1.004-16.41 9.427-21.246 12.24-7.42 4.316-33.04 19.091-40.874 23.573-4.452 2.548-9.096 5.224-10.32 5.947-3.722 2.202-9.57 5.592-16.592 9.619a5643 5643 0 0 0-13.355 7.69 1308 1308 0 0 1-8.094 4.654c-.779.435-4.876 2.801-9.105 5.258a4504 4504 0 0 1-16.88 9.744C11.692 106.867 5.727 112.955 1.819 125.04-.1 130.976-.076 129.541.048 230.895l.117 96.114.93 3.238c3.81 13.247 8.967 20.013 20.633 27.067 2.067 1.25 3.831 2.273 3.922 2.273s2.19 1.183 4.663 2.63 4.557 2.63 4.63 2.63 2.633 1.458 5.69 3.238 5.632 3.238 5.721 3.238.9.465 1.8 1.033 2.308 1.408 3.129 1.865c3.11 1.736 22.246 12.637 24.76 14.106a737 737 0 0 0 6.88 3.943 4851 4851 0 0 1 22.866 13.053 802 802 0 0 0 5.463 3.125c4.902 2.75 13.217 7.518 13.557 7.776.223.17 1.406.852 2.63 1.518 1.225.665 7.235 4.084 13.356 7.598a2859 2859 0 0 0 14.164 8.092c1.67.936 10.502 5.98 19.627 11.211 9.126 5.23 17.412 9.966 18.414 10.525 1.001.56 7.466 4.26 14.366 8.224s13.365 7.657 14.367 8.207c1.002.549 2.823 1.594 4.047 2.321a271 271 0 0 0 5.463 3.122c1.78.99 4.786 2.694 6.678 3.79 12.445 7.205 24.057 9 35.983 5.565 3.12-.898 9.675-4.305 16.155-8.395.918-.58 1.791-1.054 1.939-1.054s2.018-1.064 4.156-2.363 8.257-4.896 13.598-7.993c5.34-3.096 10.074-5.85 10.522-6.12a24 24 0 0 1 1.394-.78c.32-.161 4.782-2.746 9.915-5.746a3228 3228 0 0 1 14.39-8.368c5.605-3.228 14.78-8.557 20.555-11.94 5.365-3.142 5.825-2.48-6.593-9.488a2619 2619 0 0 1-11.533-6.57c-16.656-9.547-21.835-12.502-24.889-14.2-3.115-1.734-23.68-13.428-35.006-19.907-9.247-5.29-14.7-8.39-16.39-9.321a541 541 0 0 1-5.463-3.094 1211 1211 0 0 0-4.654-2.66c-4.364-2.456-11.414-6.522-11.736-6.767-.223-.17-1.589-.95-3.035-1.735-4.977-2.7-16.689-9.348-37.434-21.25a1310 1310 0 0 0-9.51-5.365 1078 1078 0 0 1-11.737-6.67c-3.005-1.74-7.193-4.164-9.308-5.385l-9.915-5.733a9406 9406 0 0 0-15.783-9.097 4205 4205 0 0 1-13.355-7.708 3795 3795 0 0 0-13.354-7.706c-14.286-8.21-16.35-9.478-16.795-10.311-.263-.492-.405-18.567-.405-51.756v-51l1.35-1.078c.743-.593 2.246-1.573 3.34-2.18 1.093-.605 5.266-3.006 9.272-5.334 4.007-2.33 9.288-5.387 11.736-6.794s8.458-4.869 13.355-7.69l20.032-11.543c6.121-3.526 11.808-6.838 12.639-7.363.83-.524 1.6-.95 1.709-.95s1.524-.794 3.144-1.764c7.823-4.685 13.044-7.544 13.776-7.544.444 0 4.47 2.121 8.95 4.715a6486 6486 0 0 0 13.202 7.625c7.528 4.33 15.823 9.139 17.2 9.971a82 82 0 0 0 2.832 1.61c.89.48 4.806 2.729 8.7 4.995 3.896 2.266 7.994 4.633 9.106 5.256 2.858 1.602 14.757 8.469 18.616 10.744a530 530 0 0 0 6.984 4.023c2.061 1.163 3.928 2.453 4.148 2.866.746 1.393.533 103.004-.218 103.754-.692.692-3.732 2.502-17.591 10.475a9454 9454 0 0 0-14.57 8.4 2886 2886 0 0 1-12.14 6.97 1378 1378 0 0 0-10.724 6.18 2071 2071 0 0 1-7.575 4.419c-3.807 2.207-5.173 3.212-5.173 3.804 0 .34 2.964 2.056 23.877 13.824 8.792 4.948 17.988 10.132 20.437 11.52 2.448 1.389 6.819 3.859 9.712 5.488a1122 1122 0 0 1 8.983 5.119c2.046 1.185 3.81 2.154 3.922 2.154.111 0 2.226 1.183 4.7 2.63 2.473 1.447 4.554 2.63 4.624 2.63s2.163 1.184 4.653 2.631 4.601 2.63 4.694 2.63 1.676.88 3.52 1.957a670 670 0 0 0 9.016 5.115 816 816 0 0 1 8.367 4.72c3.938 2.279 3.18 2.47 13.082-3.306 3.338-1.947 6.798-3.946 7.689-4.44.89-.495 4.988-2.852 9.105-5.24a4864 4864 0 0 1 14.772-8.517c16.373-9.394 22.833-16.937 26.343-30.757.748-2.944.771-5.991.771-100.162v-97.126l-1.126-4.03c-3.57-12.781-9.619-20.921-19.918-26.81a3941 3941 0 0 1-18.792-10.823 1061 1061 0 0 0-6.808-3.924c-2.422-1.36-11.534-6.643-14.801-8.582-1.744-1.034-3.218-1.88-3.276-1.88-.06 0-2.73-1.519-5.936-3.372A10745 10745 0 0 0 303.35 57.93c-3.744-2.152-7.519-4.362-8.389-4.91-.87-.55-1.662-1-1.76-1-.096 0-1.995-1.073-4.217-2.384s-5.013-2.921-6.204-3.575-6.08-3.463-10.866-6.242a13795 13795 0 0 0-39.66-22.9c-3.673-2.112-7.952-4.59-9.51-5.508-7.862-4.63-21.322-7.908-26.912-6.554"/></svg>
