<svg xmlns="http://www.w3.org/2000/svg" id="a" viewBox="0 0 400 400"><path d="M101.396 67.578c-11.434 3.215-18.113 9.596-44.439 42.455-44.382 55.394-56.672 78.67-54.441 103.11 1.373 15.038 12.583 23.388 24.102 17.95 7.486-3.533 9.3-7.62 10.447-23.547.898-12.483 3.296-17.324 20.998-42.403 3.49-4.947 8.05-11.172 10.13-13.836a732 732 0 0 0 7.412-9.684c1.995-2.663 6.028-7.76 8.961-11.327 2.933-3.566 7.9-9.644 11.037-13.506 7.177-8.836 11.418-13.082 17.163-17.183 8.644-6.172 11.29-10.349 10.923-17.245-.568-10.657-11.406-17.845-22.293-14.784m153.603 46.07c-11.61 3.845-15.076 18.227-6.47 26.835 14.36 14.357 36.011-6.91 22.649-22.245-3.556-4.081-11.182-6.245-16.18-4.59m-127.282 16.496c-18.044 2.601-34.361 18.257-43.633 41.86-3.38 8.607-16.276 52.308-18.116 61.392-1.895 9.363-2.2 29.64-.535 35.712 5.129 18.707 27.816 20.415 33.533 2.525.812-2.541.999-4.81 1.326-16.101.431-14.915.76-17.031 4.648-29.901a2020 2020 0 0 0 5.068-17.138c9.984-34.365 15.572-42.718 28.492-42.588 9.652.095 15.081 3.638 33.072 21.585 16.257 16.218 22.228 26.618 31.514 54.899 14.545 44.295 24.985 54.6 52.114 51.446 24.415-2.838 56.092-22.8 69.931-44.068 11.366-17.464 17.528-32.46 19.77-48.102 1.353-9.429 1.847-11.444 5.339-21.765 2.993-8.85 3.9-13.312 3.423-16.833-1.994-14.709-19.706-20.697-29.383-9.933-5.645 6.278-12.4 25.36-14.857 41.966-3.758 25.401-17.719 44.64-41.326 56.944-18.337 9.558-21.74 7.245-31.22-21.223-12.988-38.994-23.498-55.163-52.349-80.527-19.965-17.552-35.822-23.177-56.811-20.15m248.492 54.309c-8.219 3.055-10.454 6.651-15.538 25.005-1.958 7.073-9.244 27.144-13.33 36.724-10.98 25.748-24.883 38.549-57.753 53.175-15.29 6.803-20.246 16.12-13.913 26.15 7.843 12.424 24.748 9.752 54.78-8.655 29.287-17.95 42.074-36.49 59.314-85.993 7.857-22.562 8.222-23.99 7.884-30.936-.56-11.503-11.29-19.244-21.444-15.47m-227.847 66.419c-10.917 4.055-14.422 17.31-6.815 25.772 9.915 11.027 27.906 4.255 27.906-10.505 0-10.954-11.09-18.982-21.09-15.267"/></svg>
