<svg xmlns="http://www.w3.org/2000/svg" id="a" viewBox="0 0 645.948 459.253"><path d="M46.757 173.175a22 22 0 0 1-.83-2.128 41 41 0 0 1-.39-1.964c-.399-.617-.798-1.234-1.442-2.312-.584-1.181-.923-1.902-1.262-2.622-.164-.576-.328-1.152-.774-1.859-.282-.13-.217-.183-.217-.183-.68-2.377-1.36-4.753-2.154-7.73-.24-.926-.472-1.14-.807-1.24-.254-.81-.509-1.621-.92-3.049a39 39 0 0 0-1.17-2.942c-.033-.408-.066-.817-.21-1.862-.675-1.8-1.238-2.963-1.8-4.126-.024-.423-.047-.847-.143-1.827-.212-.876-.446-1.087-.778-1.19a44 44 0 0 1-.147-1.89c-.332-1.11-.643-1.6-.953-2.089-2.025-8.713-4.05-17.427-6.1-26.845-.314-1.189-.6-1.673-.889-2.157-.136-1.199-.272-2.398-.698-3.797-.289-.2-.252-.241-.252-.241-.038-1.68-.075-3.36-.117-5.76-.27-1.227-.535-1.734-.8-2.241a512 512 0 0 1-.23-5.753c-.259-1.226-.51-1.736-.762-2.246-.067-2.34-.134-4.678-.195-7.882-.08-2.287-.17-3.709-.257-5.13-.208-3.35-.417-6.701-.379-10.77.348-2.24.448-3.76.55-5.28.06-1.356.122-2.713.436-4.704.347-1.501.441-2.368.536-3.235.057-.74.115-1.479.41-2.77.373-1.109.508-1.665.644-2.222.055-.734.111-1.469.143-2.587-.024-.384.006-.34.006-.34a642 642 0 0 1 4.16-7.781c.556-.658.726-.933.792-1.271 3.534-2.832 7.068-5.663 11.15-8.78 1.987-.93 3.426-1.575 4.866-2.219l1.914-.062c1.111-.331 1.596-.642 2.081-.954l3.818-.074c1.191-.321 1.685-.628 2.18-.936 1.37-.005 2.74-.01 4.911-.013 2.233-.303 3.666-.608 5.098-.913 7.685-.001 15.37-.002 23.775.246 1.901.346 3.084.442 4.267.539 4.022.406 8.043.813 12.69 1.468 1.187.362 1.751.476 2.314.59.735.052 1.47.103 2.758.401a18 18 0 0 0 2.241.601c1.06.04 2.12.08 3.565.117.387-.004.428-.018.428-.018 1.073.355 2.146.709 3.77 1.307 1.114.355 1.68.466 2.243.577.734.059 1.47.117 2.576.154.373-.022.355-.013.355-.013.47.305.94.61 1.963 1.062a30 30 0 0 1 2.114.783c.434.028.867.057 1.8.337 1.061.396 1.626.54 2.19.685.433.033.867.065 1.791.36 1.06.401 1.626.543 2.194.684 1.094.332 2.19.664 3.805 1.264 1.083.412 1.645.557 2.206.702 2.077.674 4.154 1.347 6.815 2.321 2.116.765 3.648 1.23 5.18 1.695.78.33 1.558.66 2.83 1.255 1.055.419 1.616.573 2.176.728 9.08 4.008 18.16 8.017 27.758 12.344a266 266 0 0 0 5.224 2.712 1095 1095 0 0 1 11.454 5.47c.821.694 1.181 1.114 1.541 1.533 1.115.655 2.23 1.31 3.746 2.231l1.234.818c.81.59 1.621 1.178 2.904 2.15 2.68.21 4.886.035 7.093-.14 2.864-1.142 5.728-2.284 8.797-3.716.205-.291.168-.363.168-.363a24 24 0 0 0 3.165-.656c1.32-.602 2.092-.944 2.865-1.286 0 0 .485-.039 1.025-.06 1.018-.33 1.496-.64 1.973-.948a756 756 0 0 1 10.822-3.093c.92-.257 1.118-.496 1.2-.831.734-.043 1.47-.085 2.87-.152 1.145-.33 1.624-.634 2.104-.94 0 0 .493-.002 1.037-.01a7.1 7.1 0 0 0 1.988-.891c1.174-.168 2.348-.335 3.755-.78.233-.278.213-.308.213-.308 1.034-.02 2.067-.039 3.797-.079 1.202-.32 1.708-.619 2.215-.918.43-.01.857-.018 1.95-.023 1.462-.31 2.26-.626 3.058-.942 1.35-.042 2.697-.084 4.76-.123 1.224-.277 1.736-.558 2.248-.838 1.04-.04 2.08-.079 3.88-.108 1.88-.29 3-.589 4.12-.888 1.054-.033 2.11-.066 3.924-.088 1.862-.314 2.964-.638 4.066-.962 1.723.001 3.446.003 5.872.3 3.177.099 5.65-.096 8.46-.306.781-.004 1.23.008 1.971.308 4.76.099 9.223-.09 13.686-.279 3.695.001 7.39.003 11.83.253 2.563.378 4.383.506 6.202.635 1.382.038 2.763.076 4.783.358 1.503.35 2.368.458 3.233.566 1.381.054 2.762.108 4.78.403 1.512.362 2.39.484 3.27.606 1.04.058 2.081.116 3.7.407a20 20 0 0 0 2.257.553c1.055.062 2.11.124 3.75.427 1.478.1 2.37-.04 3.262-.18.416-.002.832-.004 1.635.308 1.047.708 1.706 1.1 2.365 1.492.733.054 1.467.108 2.745.415a18 18 0 0 0 2.244.62c.41.052.82.104 1.672.391.688.487.988.607 1.34.596.74.06 1.482.122 2.794.227.57.044.96.149.96.149.834.26 1.668.52 2.94 1.013.667.494.956.621 1.305.61 1.405.365 2.81.73 4.756 1.346a19 19 0 0 0 2.24.646c.434.04.867.078 1.722.345.641.51.93.65 1.29.645.438.016.877.032 1.826.313 1.697.066 2.884-.134 4.071-.334 8.775-7.997 18.325-14.732 29.454-19.197 3.08-1.236 5.448-4.162 8.466-5.661 4.602-2.286 9.486-4.005 14.866-6.12.928-.314 1.137-.562 1.242-.897 3.774-1.593 7.547-3.186 11.968-5.005a87 87 0 0 0 4.046-1.942 204 204 0 0 1 5.943-1.968c1.093-.455 1.568-.771 2.042-1.087 0 0 .487-.035 1.048-.146 1.694-.683 2.827-1.253 3.96-1.824.56-.159 1.121-.317 1.84-.75.158-.275.1-.38.1-.38.755.02 1.51.04 2.99-.07 2.84-1.013 4.96-1.896 7.076-2.779.438-.015.875-.03 1.935-.07 1.104-.322 1.587-.617 2.07-.913.435-.023.872-.045 1.93-.09 1.106-.31 1.591-.599 2.075-.887.435-.03.87-.058 1.926-.115 1.102-.327 1.583-.627 2.064-.926l1.925-.099c1.1-.326 1.582-.62 2.063-.915a201 201 0 0 1 1.917-.07c1.113-.324 1.6-.631 2.09-.938.73-.02 1.458-.04 2.855-.073 1.164-.3 1.66-.588 2.157-.877.436-.024.873-.05 2-.071 1.792-.312 2.894-.626 3.997-.94.743-.017 1.487-.034 3.004-.048 2.512-.324 4.251-.651 5.99-.978 4.346-.03 8.693-.058 13.883-.07A81 81 0 0 0 563.815 0c3.342.078 6.684.155 10.71.482 1.561.357 2.438.463 3.314.57.733.038 1.466.076 2.75.35 1.11.348 1.672.46 2.234.572.436.045.871.089 1.803.387a17 17 0 0 0 2.185.67c.435.039.87.077 1.892.077.757-.065.93-.092 1.1-.118 5.223 1.574 8.9 5.048 11.897 10.17.73 1.184 1.298 1.748 1.868 2.313.34 1.665.682 3.33 1.185 5.675.8 2.119 1.438 3.556 2.077 4.994.335 2.054.67 4.108 1.032 6.853.334 1.178.642 1.666.95 2.153.342 3.71.685 7.419 1.03 11.975.303 2.91.607 4.975.912 7.038-.02 10.012-.04 20.023-.305 30.764-.332 1.924-.42 3.117-.506 4.31a345 345 0 0 1-.182 4.879 224 224 0 0 1-.832 6.07c-.028.74-.056 1.48-.132 2.934a60 60 0 0 1-.855 4.118c-.045 1.729-.09 3.457-.11 5.567.026.381.026.548.026.548a221 221 0 0 1-1.315 3.67 29 29 0 0 0-.613 3.164c-.393 2.382-.786 4.763-1.417 7.729-.35 1.146-.46 1.709-.572 2.271-.062.74-.124 1.481-.448 2.836-.687 2.484-1.112 4.353-1.537 6.223a17 17 0 0 1-.426 2.723c-.355 1.1-.475 1.659-.595 2.218-.037.44-.074.88-.342 1.824a22 22 0 0 0-.65 2.184c-.07.737-.14 1.474-.424 2.678-.474.693-.597.976-.587 1.319-.7 2.732-1.403 5.465-2.35 8.771-.365 1.152-.486 1.73-.652 2.511-.046.204-.042.623-.178.926a64 64 0 0 0-.833 2.806c-.05.431-.1.863-.402 1.797a16 16 0 0 0-.622 2.191c-2.695 8.73-5.39 17.461-8.328 26.666-.39.766-.537 1.058-.683 1.35 0 0-.019.484-.266.898a17 17 0 0 0-.74 2.095c-.342.775-.683 1.55-1.309 2.855-.13 2.39.023 4.25.177 6.111.193.545.387 1.09.836 2.124a43 43 0 0 0 2.218 2.833c2.688 3.422 5.411 6.818 8.054 10.275 3.153 4.123 6.236 8.3 9.74 12.83.58.672.851.84 1.201.88.186.274.372.549.865 1.166.496.643.765.824 1.113.888 0 0 .003-.004.087.234.358.417.633.596.907.775 0 0 .01-.013.093.226.361.412.64.586.916.76l.087.236c.365.405.643.575.921.745a422 422 0 0 0 4.53 3.467c1.095 1.057 1.766 1.822 2.437 2.587.72.38 1.438.758 2.56 1.404.76.693 1.116 1.12 1.473 1.546.39.066.78.133 1.553.458.74.68 1.1 1.1 1.458 1.521.38.072.762.143 1.53.482.753.67 1.12 1.072 1.49 1.475 4.421 2.301 8.844 4.603 13.813 7.206a88 88 0 0 0 4.22 1.691s.474.08.702.473c.284.85.341 1.308.398 1.766-.047.432-.093.863-.36 1.73-.49.653-.618.936-.604 1.284-.406 1.727-.81 3.453-1.212 5.554.004.375.02.407.02.407a222 222 0 0 0-2.198 3.824 19 19 0 0 0-.706 2.18c-1.938 4.108-3.876 8.216-6.2 12.853-1.225 2.392-2.06 4.255-2.898 6.119-.318.47-.636.942-1.2 1.79-.432.655-.618.93-.804 1.207-.28.485-.56.97-.989 1.929-.147.472-.278.88-.278.88-1.435 2.717-2.575 5.647-4.358 8.112-5.988 8.278-12.16 16.424-18.383 24.527-.942 1.226-2.527 1.958-4.164 3.335-3.22 3.616-6.09 6.815-8.96 10.015 0 0-.045.032-.387.106-3.388 3.1-6.432 6.126-9.477 9.151-2.26 2.121-4.82 4.009-6.707 6.421-2.353 3.008-3.733 6.835-6.288 9.614-3.89 4.232-8.15 8.244-12.764 11.66-5.482 4.06-11.55 7.321-17.278 11.06-4.489 2.931-8.846 6.064-13.957 9.158-1.803.724-2.912 1.396-4.02 2.07a75 75 0 0 1-4.068 1.856c-3.4 1.816-6.172 3.44-8.942 5.064-1.083.342-2.167.683-3.88 1.193-1.456.725-2.283 1.283-3.11 1.84 0 0-.473.051-.948.15-.784.271-.976.53-1.05.876 0 0-.485.017-1.059.044-1.698.658-2.822 1.289-3.946 1.92-4.54 1.808-9.079 3.617-13.808 5.72-.189.295-.193.288-.193.288-.434.01-.869.02-1.866.12-.882.242-1.075.491-1.142.838-.432.026-.864.053-1.92.099-1.107.326-1.588.632-2.07.939-.555.173-1.11.347-1.832.765-.166.245-.162.266-.162.266-1.408.326-2.816.652-4.823 1.107-.914.293-1.106.549-1.175.898a83 83 0 0 0-1.94.03c-1.105.345-1.58.666-2.057.988 0 0-.48.029-1.02.04-1.022.32-1.504.629-1.985.937-.572.15-1.145.3-1.86.715-.145.265-.135.287-.135.287-.74.007-1.483.015-2.946.06-2.168.647-3.615 1.255-5.062 1.863-.436.031-.87.063-1.936.112-1.105.34-1.58.661-2.057.983-.434.013-.869.025-1.996.065-2.464.667-4.235 1.307-6.006 1.947l-1.928.033c-1.11.303-1.597.595-2.084.886a52 52 0 0 1-1.923.107c-1.107.326-1.586.639-2.065.952l-2.893.06c-1.157.348-1.636.683-2.116 1.019-.739-.011-1.478-.022-2.937-.001-1.843.358-2.967.686-4.09 1.013-.43-.016-.859-.032-2-.02-3.126.672-5.54 1.316-7.953 1.96-.744.01-1.488.02-2.937.028-1.5.29-2.295.581-3.09.873-1.054.04-2.108.08-3.893.116-1.515.32-2.3.644-3.084.97-1.69.02-3.378.042-5.836.056-1.57.322-2.373.652-3.174.981-2.36.009-4.72.018-7.97.007-5.277.32-9.667.66-14.056 1-2.38-.01-4.759-.021-7.38-.346 2.703-1.432 5.647-2.55 8.975-3.686 1.04-.092 1.738-.044 2.348-.251 20.221-6.874 40.454-13.715 60.62-20.746 2.35-.818 4.325-2.702 6.558-4.173.084-.08.285.037.67.082 1.317-.24 2.247-.525 3.526-.882 1.518-.758 2.687-1.442 4.152-2.13.723-.333 1.15-.661 1.673-1.067.096-.078.29.078.607.018.63-.321.94-.583 1.425-.937.174-.093.565-.038.982.016 5.247-1.777 10.155-3.43 14.877-5.508 2.494-1.097 4.663-2.934 7.127-4.542.148-.105.506-.044.905.041 4.593-1.951 8.787-3.987 13.33-6.082a848 848 0 0 0 21.497-13.21c1.252-1.061 2.262-1.835 3.228-2.621-.043-.013-.018.073.353.027a185 185 0 0 0 10.228-6.385c.116-.078-.462-1.19-.996-2.122-3.407-.412-6.594-.199-9.636-.764-1.566-.292-2.875-1.97-4.296-3.003.003.019.02-.009.39.102 1.513-.631 2.657-1.374 3.807-2.045.007.072-.137.066.103-.002.595-.168.82-.396 1.102-.852.19-.099.62-.08.97-.058.845-.378 1.338-.778 1.835-1.098.004.08-.157.069.09.005.471-.298.696-.531 1.094-.869.171-.104.572-.075.935-.008 1.24-.261 2.116-.589 3.317-.978 1.111-.754 1.9-1.446 3.01-2.239 1.644-.996 3.024-1.821 4.281-2.802a969 969 0 0 0 12.427-9.896c-.046-.017-.012.075.347.002 1.461-1.05 2.565-2.028 3.626-3.025-.044-.019-.008.07.34-.019 3.485-2.72 6.622-5.353 9.978-8.04.504-.222.65-.47 1.017-.868 3.83-3.4 7.298-6.732 10.983-10.127.495-.228.647-.473 1.013-.87.797-.736 1.25-1.401 1.666-2.078-.04-.012-.032.07.224-.022.444-.39.633-.689.78-.991-.045-.004-.036.082.22-.009.448-.388.64-.685.785-.987-.045-.004-.036.087.22-.006.446-.391.636-.69.785-.991-.04-.003-.022.077.327.026.816-.71 1.284-1.367 1.971-2.084.503-.229.65-.48 1.01-.88 2.815-3.049 5.28-6.031 7.7-9.034-.049-.02-.006.074.354.026 1.461-1.71 2.564-3.371 3.623-5.05-.043-.016-.007.07.352.018 1.473-1.698 2.588-3.345 3.658-5.008-.045-.017-.008.07.357.022 1.138-1.369 1.912-2.688 2.64-4.025-.043-.016-.007.07.364.02.802-1.049 1.232-2.047 1.623-3.051-.038-.006-.018.07.318.017.836-.41 1.335-.768 2.002-1.283.296-.436.43-.712.537-.878-.03.109-.244.036.076-.057.536-.68.752-1.266 1.323-1.851.794-.99 1.232-1.983 2.028-2.985.775-1.014 1.193-2.02 1.966-3.027 1.134-1.653 1.911-3.303 3.067-4.994.762-1.15 1.146-2.258 1.49-3.54-.04-.175.188-.451.43-.572.37-.455.5-.789.63-1.35.003-.227.285-.583.403-.764.226-.469.42-.676.67-.768-.03.037-.106-.018.29-.027.801-1.145 1.207-2.28 1.567-3.571-.047-.156.178-.393.428-.494.375-.432.5-.764.626-1.027.002.069-.133.044.083.016.334-.11.452-.193.57-.275a5 5 0 0 1-.609-.83c-.396-.45-.693-.648-1.025-1.214-7.365-2.698-14.694-5.028-22.46-7.434-1.326-.07-2.215-.064-3.207 0-.104.057-.27-.114-.314-.498-1.456-.774-2.867-1.165-4.468-1.523-.19.033-.52-.17-.68-.447-.572-.393-.984-.509-1.512-.552-.115.073-.307-.121-.467-.412-.584-.417-1.008-.543-1.54-.595-.106.074-.296-.105-.463-.39-.586-.42-1.005-.555-1.532-.612-.107.077-.3-.103-.449-.381-.549-.402-.95-.525-1.496-.586-.144.062-.363-.161-.389-.53-1.088-.757-2.15-1.145-3.418-1.514-.206.02-.578-.162-.615-.397-.26-.481-.54-.623-1.202-.825-2.524-1.624-4.713-3.091-6.912-4.542a3345 3345 0 0 0-14.046-9.218c-.383-.163-.545-.208-.71-.21-.006.043.077.024.03-.333-4.034-3.471-8.02-6.586-12.023-9.657-.016.045.073.012.028-.344-2.039-1.796-4.033-3.237-6.045-4.635-.018.043.068.007.02-.353-1.697-1.475-3.345-2.59-5.01-3.66-.016.043.072.01.024-.347-3.373-2.797-6.697-5.237-10.038-7.635-.016.042.067.006.023-.35-1.362-1.139-2.68-1.922-4.013-2.66-.016.043.07.007.022-.364-1.04-.82-2.03-1.268-3.025-1.67-.004.047.087.03.04-.336-5.084-3.838-10.123-7.308-15.283-11.128-1.234-.677-2.344-1.005-3.546-1.283-.09.05-.242-.094-.4-.393-.587-.438-1.018-.576-1.56-.64-.115.073-.307-.117-.436-.394-.516-.393-.903-.509-1.459-.58-.169.043-.433-.186-.55-.435-.464-.375-.808-.5-1.353-.606-.202.02-.548-.19-.672-.42-.45-.356-.777-.482-1.416-.594a9.5 9.5 0 0 1-2.586-1.411c-.464-.355-.8-.475-1.328-.567-.193.027-.528-.171-.534-.527-4.323-2.11-8.64-3.864-13.16-5.913-.943-.663-1.65-1.148-2.432-1.385-16.847-5.097-33.795-8.467-51.664-6.5-11.105 1.223-21.864 3.195-32.213 7.303-1.33.529-2.332 1.885-3.662 2.949-.177.091-.57.04-.812.127-.49.3-.739.512-1.175.831-.187.107-.617.074-1.007.036-2.19.891-3.99 1.821-6.148 2.845-3.475 2.442-6.594 4.789-9.706 7.138.006.002.004-.01-.25.06-.458.344-.66.618-.823.901.04.009.014-.07-.325.052-4.114 3.021-7.89 5.92-11.973 8.965-1.465 2.07-2.62 3.994-3.727 5.942.05.024 0-.074-.347-.028-1.564 1.815-2.78 3.585-4.109 5.435-.112.08-.2.34-.385.574-.892.884-1.598 1.534-2.457 2.334-.266.417-.417.661-.598.822.005-.06.127-.049-.2.133-.463.899-.598 1.615-.673 2.468.06.138-.152.349-.42.467-.389.487-.509.855-.602 1.408.027.185-.185.493-.426.604-.369.435-.498.76-.62 1.295.007.21-.155.596-.547.633-.739 1.21-1.085 2.385-1.373 3.654.06.093-.088.258-.455.29-.868.838-1.53 1.588-1.846 2.463-6.139 17.051-6.449 34.335-1.84 51.759.425 1.605 1.572 3.02 2.36 4.588-.023.066-.158.036-.233.424.621 1.5 1.317 2.611 2.343 3.606 2.543-3.775 4.757-7.433 7.094-11.175.123-.084.204-.372.374-.637 1.855-2.841 3.54-5.417 5.573-8.012 1.405-1.343 2.465-2.668 3.828-4.088.493-.686.682-1.276 1.062-1.894.191-.027.573-.085.738.088.382-.322.6-.817.913-1.617a51 51 0 0 1 4.186-4.567c.564-.457.894-.828 1.31-1.262.085-.063.207-.238.388-.404.48-.536.78-.906 1.072-1.28-.008-.001-.006.016.242-.06.424-.363.6-.65.762-.94-.013-.003-.004.023.234-.062.567-.464.897-.843 1.307-1.29.08-.067.185-.25.314-.345.293-.234.435-.393.634-.623.08-.051.216-.185.368-.32.347-.362.592-.456 1.18-.5.493-.413.695-.746.94-1.3.217-.512.473-.64 1.074-.704.481-.385.7-.672.916-.92-.004.04-.08.021.226.027.79-.295 1.272-.595 2.01-1.124 6.49-4.868 12.535-9.8 19.023-14.057 5.638-3.7 11.777-6.636 17.77-9.657 3.847-.718 7.756-1.337 11.372-2.72 15.062-5.766 30.616-5.876 46.175-3.614 8.6 1.25 16.968 4.088 25.672 6.512 1.227.409 2.223.516 3.377.569.158-.055.41.166.574.45.582.41 1 .534 1.523.581.103-.077.296.093.458.385.587.426 1.012.56 1.54.616.102-.079.297.091.458.385.587.426 1.013.559 1.542.614.103-.078.296.092.454.385.583.424 1.01.555 1.55.613.114-.072.305.121.42.39.48.39.845.513 1.398.604.188-.032.505.178.612.43.447.372.788.492 1.346.605.217-.008.585.223.717.416.406.344.68.495.883.646-.07 0-.069-.143.07.178.572.48 1.007.64 1.774.743 4.25 2.275 8.167 4.607 12.246 7.052.162.113.555.134.688.377.473.377.812.51 1.148.65-.004.008.01-.002.147.262a5.9 5.9 0 0 0 1.783.88c.004-.05-.095-.028-.05.342 1.04.822 2.033 1.273 3.035 1.678.01-.048-.086-.03.1.265 5.856 4.204 11.525 8.114 17.28 12.152.085.128.382.214.634.402 4.855 3.467 9.46 6.746 14.263 10.323.892.41 1.584.522 2.432.58.155-.055.39.177.508.425.458.378.8.508 1.344.619.205-.02.56.19.696.42.474.35.81.47 1.345.568.198-.022.512.226.55.587.698 1.844 1.357 3.326 2.017 4.986a2.6 2.6 0 0 1-.086.521c-.003-.002.002.002-.25.07-.433.352-.614.638-1.049 1.005-.67.377-1.087.673-1.77 1.05-.487.36-.706.64-.957 1.088-.032.168-.075.506-.335.605-.846.537-1.432.975-2.13 1.463-.112.05-.262.243-.452.408-.535.51-.88.853-1.177 1.211.048.015.01-.078-.358-.024-4.177 2.711-7.986 5.369-11.992 8.04-.197.013-.522.239-.9.298-3.608 1.01-6.896 1.798-10.039 2.974-1.975.739-3.732 2.06-5.587 3.121 1.874 1.517 3.693 3.111 5.656 4.502.583.412 1.573.25 2.444.67a81 81 0 0 0 8.846 3.623c2.157.736 4.557 1.077 4.14 4.515-.13.602-.246.938-.542 1.304-.18.03-.54.09-.704-.072-.372.315-.58.793-.799 1.226-.01-.045.083-.053-.194.036-.45.427-.626.763-.863 1.357-.373.671-.683 1.084-1.23 1.577-.56.454-.885.828-1.322 1.277-.11.075-.212.324-.342.426-.296.25-.433.42-.589.668a2 2 0 0 1-.297.269 3.8 3.8 0 0 0-.706.718c-.06.056-.165.179-.313.298-.34.288-.505.48-.676.744-.032.051-.132.119-.284.231-.345.276-.515.46-.728.722-.065.055-.173.187-.316.296a4 4 0 0 0-.686.702c-.065.055-.173.19-.313.292-.32.252-.474.423-.696.676-.09.059-.205.243-.33.322-.285.202-.416.35-.653.576-.134.055-.283.302-.47.46-.488.528-.786.898-1.267 1.297-.182.03-.55.03-.824.117-.49.38-.709.672-.947 1.144-.02.179-.066.535-.399.675a126 126 0 0 0-5.735 4.93c.05.013.037-.087-.262.016a28 28 0 0 0-2.642 2.072c.033.017 0-.047-.257.032-.85.467-1.443.855-2.162 1.284-.125.042-.284.252-.519.433-1.174.874-2.114 1.568-3.04 2.269.015.007.004-.023-.35.09-8.442 3.715-16.53 7.318-25.025 10.924-10.163 1.67-19.86 4.166-29.683 4.826-19.637 1.32-37.937-4.663-55.786-12.205-5.44-2.298-10.974-4.368-16.66-6.522-.193.022-.512-.203-.617-.436-.415-.365-.726-.496-.978-.624.058.004.03.118.054-.245-1.239-.828-2.502-1.292-3.908-2.106-7.497-3.96-14.85-7.57-22.29-11.303-.085-.122-.365-.223-.46-.298-.097-.075-.259-.255-.317-.616-1.11-.714-2.164-1.068-3.424-1.405-.207.018-.573-.179-.705-.416-.472-.354-.813-.47-1.347-.563-.193.024-.52-.186-.653-.426-.477-.358-.822-.477-1.35-.564-.186.03-.507-.164-.67-.444-.578-.397-.993-.513-1.503-.548-.096.081-.295-.072-.357-.472-1.564-.787-3.065-1.176-4.807-1.5-.573.012-.885-.097-1.194-.62-.93-1-1.757-1.922-2.773-2.24-23.13-7.225-46.203-7.698-69.12.898-1.186.445-2.033 1.795-3.23 2.806-.192.082-.609.067-.866.13-.483.308-.71.553-1.106.897-.17.1-.56.057-.826.114-.51.297-.755.537-1.289.92-1.038.51-1.787.875-2.663 1.005-.448.16-.768.555-1.168 1.038-.08.087-.292-.022-.708-.06-1.31.696-2.205 1.43-3.106 2.116-.007-.05.09-.027-.262-.088-.808.403-1.263.867-1.772 1.219-.052-.113.18-.199-.032-.112-.519.176-.766.35-1.297.723-8.546 6.99-16.776 13.83-24.918 20.774-.913.78-1.326 2.147-1.923 3.264.047.023.005-.073-.284.037-1.055.79-1.82 1.468-2.948 2.145-4.8 2.963-9.242 5.928-13.879 9.05-.394.428-.593.699-.78.91.012-.058.128-.03-.153.052-.444.418-.607.753-.777 1.017-.007-.071.135-.06-.122-.013-.48.292-.7.537-1.2.929a56 56 0 0 1-2.727 1.089c-.494.3-.74.52-1.168.846-.18.104-.595.074-1.01.015-2.012.337-3.602.76-5.206 1.125-5.64 1.28-11.23 3.229-16.937 3.673-15.325 1.192-30.09-1.544-44.165-7.88-1.436-.646-3.19-.585-5.004-.84-.206.013-.569-.185-.692-.417-.45-.354-.776-.476-1.316-.593-.214.006-.57-.228-.579-.55-.949-1.06-1.89-1.8-3.223-2.532-1.816-.38-3.24-.766-4.669-1.107-.004.046.086.03.037-.336-1.018-.848-1.988-1.33-2.97-1.758-.013.054.094.027-.02-.197-.526-.504-.94-.785-1.436-1.174-.084-.108-.345-.189-.603-.374-1.543-1.224-2.827-2.262-4.15-3.531-.154-.497-.27-.764-.385-1.03-.196.205-.39.409-.812.591-.495-.163-.738-.341-1.028-.651-.073-.094-.287-.202-.405-.331-.345-.27-.436-.473-.36-1.118-.987-.898-2.005-1.413-2.986-1.936.037-.009.041.067-.08-.18-.433-.434-.744-.621-1.24-.812-.186-.002-.554-.06-.64-.3-.477-.562-.865-.885-1.326-1.306-.072-.097-.292-.197-.38-.323-.222-.286-.378-.418-.62-.624-.062-.103-.272-.218-.36-.347-.22-.292-.377-.428-.62-.657-.063-.12-.307-.238-.392-.364-.214-.283-.366-.413-.599-.622-.055-.107-.257-.24-.375-.39-.324-.34-.412-.572-.278-1.226 2.03-1.54 4.014-2.62 5.86-3.9 1.134-.786 2.058-1.878 3.412-2.884 1.12-.44 1.906-.83 3.064-1.149a38.7 38.7 0 0 0 6.097-3.397 11 11 0 0 1-.463-1.58c.007.008 0 .028-.107-.285-7.537-2.763-14.966-5.214-22.635-7.942-1.57-.782-2.904-1.288-4.246-1.77-.01.022.034-.002-.1-.29-1.024-.856-1.914-1.422-2.878-2.194-.293-.426-.556-.54-.928-.894-1.642-2.304-3.222-4.26-4.84-6.265 1.216-1.052 2.52-2.18 4.121-3.396.45-.678.6-1.266.708-1.872-.044-.017-.01.072.35.027 2.825-2.375 5.29-4.706 8.032-7.144 1.042-1.004 1.805-1.901 2.871-2.908 1.12-1.069 1.936-2.027 2.712-3.003-.04-.018-.003.06.346.007.836-.693 1.322-1.332 2-2 .19-.03.571-.086.732.087.384-.31.607-.791.928-1.579a52 52 0 0 1 4.176-4.626c.636-.396 1.03-.699 1.73-1.085.525-.416.746-.748.956-.985-.01.096-.198.05.11-.015.487-.422.667-.78.858-1.04.012.099-.185.084.125.029.5-.41.688-.766.886-1.02.01.1-.19.087.12.024.49-.423.67-.783.861-1.04.01.102-.195.083.118.026.497-.418.68-.778.88-1.037.016.101-.19.09.12.033.503-.41.698-.761.905-1.012.013.101-.19.094.114.03.5-.411.695-.757.9-1.007.008.097-.186.086.117.018.492-.416.683-.764.898-1.02.024.091-.164.12.137.026.483-.46.666-.828.865-1.388.183-.39.353-.583.586-.829a5 5 0 0 1 .365-.338c.512-.54.83-.917 1.426-1.394 1.011-.72 1.746-1.338 2.793-1.927.818-.27 1.324-.57 2.123-1.052 1.633-1.458 2.973-2.734 4.565-4.064.535-.393.818-.732 1.11-1.008.011.064-.117.052.173.022.492-.333.693-.637.89-.907-.004.034-.062 0 .264-.059.786-.417 1.246-.775 1.71-1.054.002.08-.157.063.121.02.5-.322.72-.6 1.037-.965.096-.086.304.068.641-.02.637-.407.936-.725 1.237-.974.003.07-.135.069.074-.042.52-.221.75-.425 1.07-.84.171-.117.587-.105.86-.16.514-.309.755-.564 1.14-.924.14-.106.486-.037.78-.08.554-.302.817-.563 1.233-.924.155-.1.52-.047.927.038 9.973-1.88 19.501-4.071 29.125-5.697 3.874-.654 8.114-.76 11.917.093 9.39 2.104 18.615 4.934 27.928 7.39 1.082.286 2.298.063 3.601.033.15-.043.357.188.352.55 3.69 2.117 7.384 3.872 11.394 5.776 3.722 1.783 7.128 3.418 10.542 5.003.01-.05-.09-.037.017.205.43.375.75.508 1.064.652-.005.012.016-.004.197.299 2.046 1.454 3.91 2.606 5.785 3.735.011-.024-.035 0 .075.266.598.567 1.087.867 1.714 1.092.14-.077-.162.024.003.225.481.333.798.467 1.121.551.006-.05-.09-.022-.043.334 4.787 4.543 9.526 8.73 14.34 13.078.073.163.4.307.578.563 2.554 2.448 4.93 4.64 7.61 6.548 1.833-13.407-1.664-25.773-5.626-38.011-1.098-3.393-3.174-6.47-4.879-9.777-.077-.085.046-.28.098-.681-.596-1.33-1.243-2.258-1.99-3.36-.099-.174-.05-.572-.124-.824-.297-.496-.52-.74-.84-1.18-.098-.195-.07-.63-.174-.852-.172-.57-.372-.81-.81-1.133-.107-.19-.094-.624-.163-.88-.309-.489-.55-.72-.9-1.11-.108-.156-.052-.535.027-.918-.626-1.246-1.33-2.108-2.263-3.156-.702-.767-1.176-1.347-1.677-1.88-.025.047.07-.004-.015-.35-1.73-2.45-3.377-4.553-5.078-6.875-.15-.537-.36-.734-.8-1.154-1.449-1.806-2.78-3.267-4.223-5.005-.996-1.048-1.882-1.82-2.83-2.925-1.082-1.348-2.099-2.361-3.43-3.463-1.075-.488-1.837-.887-2.62-1.239-.02.047.072.002.03-.365-6.415-3.83-12.787-7.294-19.264-11.09-1.237-.924-2.307-1.723-3.508-2.079-16.838-4.993-33.274-4.002-49.508 3.711a765 765 0 0 1-17.115 9.89c-.37.385-.474.704-.665 1.212-.087.188-.102.602-.402.711a30 30 0 0 0-2.666 2.087c.027.014.002-.041-.333.089-7.353 4.444-13.962 9.186-17.774 16.823.051.013.044-.092-.209.013-.442.411-.63.717-.773 1.026.046.002.025-.087-.325-.039-1.364.836-2.61 1.448-3.356 2.438-8.134 10.799-16.19 21.656-24.58 32.646-2.388 2.777-4.463 5.406-6.825 8.177-.44.75-.59 1.357-.753 1.92-.01-.044.08-.053-.196.037-.448.426-.62.762-.796 1.285-.003.186-.059.553-.29.638-.557.453-.88.822-1.336 1.268-.13.078-.236.364-.348.431-.25.176-.36.31-.596.538-.16.068-.287.391-.4.46-.253.178-.363.313-.599.542-.156.068-.284.385-.4.46-.263.193-.38.336-.599.569-.133.065-.256.335-.374.41-.266.19-.385.332-.63.566-.155.068-.282.382-.395.451-.254.18-.365.315-.603.544-.158.069-.285.389-.398.457-.253.178-.363.312-.575.528-.134.056-.28.305-.466.465-.484.53-.782.898-1.337 1.35-.682.376-1.109.669-1.844.96-.812.283-1.315.567-2.12 1-1.168 1.388-2.03 2.627-2.848 3.884.045.017.012-.075-.222-.027s-.707-.01-.823-.188c-.302.073-.49.323-.694.518-.019-.057.098-.034-.278-.14-1.175.63-1.974 1.366-2.787 2.042-.014-.06.11-.06-.153-.004-.484.315-.705.574-1.05.955-.12.121-.458.048-.86-.024a438 438 0 0 0-18.15 6.262c-.425.156-.576 1.053-1.047 1.687-.192.082-.608.052-.872.04-.555.16-.846.333-1.137.506.355.14.71.281 1.173.595.107.173.072.577.152.87.395.51.711.726.958.95-.07.01-.074-.13.017.101.207.571.436.796.897 1.05.12.143.065.513.003.899.664 1.183 1.39 1.98 2.09 2.811-.027.033-.02-.051.017.246.357.5.674.701 1.185.955.193.052.585.137.594.09.01-.049-.087-.037-.006.324 6.286 8.472 11.994 17.036 18.832 24.574 7.678 8.463 16.024 16.416 24.738 23.814 7.718 6.552 16.34 12.039 24.733 18.315 2.464 1.734 4.693 3.276 7.068 4.543 8.53 4.552 17.11 9.012 25.432 13.796-2.8.71-5.368 1.115-7.928 1.555-3.925.675-7.846 1.374-11.76 2.015.007-.048.103-.029-.113.053-.496.12-.776.158-1.057.196.311.215.622.429 1.237.801 2.16 1.69 4.015 3.222 6.074 4.792.612.369 1.02.7 1.55 1.25 4.517 2.388 8.913 4.557 13.492 6.814.184.088.59.122.66.339s.246.638.025.852c1.094.736 2.41 1.257 3.812 1.713.088-.065.26.07.422.379.6.45 1.037.593 1.575.656.1-.08.297.085.334.485 1.221.785 2.406 1.17 3.695 1.496.104-.057.27.114.433.406.588.428 1.014.563 1.542.62.103-.078.297.092.46.384.59.426 1.013.56 1.542.617.104-.078.298.094.34.477 1.445.773 2.848 1.163 4.45 1.53.196-.025.537.177.546.53 1.21 1.156 2.316 2.18 3.622 2.73 24.8 10.447 50.506 17.902 76.946 22.752 12.005 2.202 24.123 3.782 36.503 5.692l-12.105 1.467c-.166-.006-.333-.011-1.196-.05-4.407.333-8.117.697-11.827 1.062-6.672-.007-13.344-.013-20.944-.035-4.628-.034-8.33-.052-12.282-.328-1.436-.367-2.624-.477-3.812-.587-.42-.016-.84-.032-1.985-.084-3.153-.332-5.582-.627-8.01-.921-1.05-.044-2.103-.087-3.737-.37a22 22 0 0 0-2.35-.6c-1.029-.057-2.057-.114-3.695-.428a26 26 0 0 0-3.26-.61 14 14 0 0 1-2.76-.356 26 26 0 0 0-3.22-.671c-.429-.026-.856-.052-1.785-.318-1.069-.368-1.636-.496-2.203-.625-1.06-.051-2.122-.103-3.555-.148-.372.006-.454-.006-.454-.006-1.72-.65-3.44-1.3-5.79-2.084-1.157-.34-1.687-.546-2.217-.752-.428-.038-.856-.075-1.772-.375a15.4 15.4 0 0 0-2.25-.654 81 81 0 0 0-1.792-.198 7 7 0 0 1-.924-.142c-1.49-.589-2.982-1.177-4.93-1.988-.749-.363-1.04-.503-1.333-.643-1.392-.38-2.784-.76-4.715-1.422a100 100 0 0 0-4.246-1.64 74 74 0 0 1-3.707-1.31c-.664-.515-.95-.661-1.31-.67a83 83 0 0 1-3.69-1.366c-.672-.497-.959-.633-1.307-.637-1.745-.689-3.49-1.377-5.688-2.324-.67-.537-.955-.68-1.307-.69a52 52 0 0 1-2.784-1.314 16 16 0 0 0-2.165-.794c-3.75-1.64-7.5-3.278-11.607-5.327a170 170 0 0 0-2.442-2.564s-.47-.064-.909-.143c-.438-.079-.842-.198-.842-.198-2.827-1.546-5.862-2.808-8.433-4.7-4.214-3.102-8.165-6.567-12.153-9.965-4.133-3.522-8.178-7.147-11.42-9.99 0-2.649.8-5.341-.13-6.235-5.55-5.337-11.383-10.4-17.35-15.275-4.51-3.684-9.42-6.878-14.028-10.45-1.264-.98-2.084-2.533-3.474-4.226-.556-.702-.822-.888-1.167-.962 0 0-.037.029-.16-.294-3.706-3.773-7.287-7.225-10.868-10.676-3.907-4.143-8.52-7.826-11.575-12.523-6.479-9.96-12.153-20.443-18.134-30.725-.58-.999-1.036-2.077-1.486-3.145-3.07-7.28-1.963-9.174 5.527-11.759 2.607-.9 4.635-3.386 7.041-4.977 3.785-2.504 7.992-4.478 11.424-7.382 4.251-3.596 7.893-7.913 12.19-12.29.586-.652.781-.933.977-1.214 0 0 .018.018.252-.075.424-.36.616-.626.807-.893.382-.724.765-1.448 1.391-2.57.678-.753 1.112-1.106 1.546-1.46a703 703 0 0 0 4.503-6.465c.807-1.078 1.33-1.695 1.85-2.311 1.261-2.249 2.422-4.561 3.812-6.726 1.19-1.852 2.814-3.432 3.948-5.312 5.325-8.827 8.857-18.351 10.602-28.51.151-.886-.43-1.897-.818-3.525-.963-1.26-1.782-1.844-2.6-2.428-.246-.802-.492-1.604-1.01-2.877a47 47 0 0 0-1.223-1.84c-.487-.91-.974-1.82-1.765-3.225a3133 3133 0 0 1-9.224-17.777c-.293-1.09-.586-2.181-1.113-3.918a205 205 0 0 0-2.956-6.056m35.248-9.743c.106.32.315.548.854 1.032 0 0-.016.418-.112 1.112.367.543.734 1.086 1.48 2.2 2.595 3.569 5.19 7.138 7.86 10.974 0 0 .22.171.531.56.33.353.66.705 1.015.953 0 0-.105.024.068.712l3.602 5.778c1.258-2.054 1.982-3.236 2.598-4.46 0 0 .046.107.782.056.738-1.373 1.477-2.746 2.13-4.152 0 0 .035.085.742-.012 1.46-1.973 2.918-3.946 4.28-5.964 0 0 .046.098.75.01 2.6-2.496 5.2-4.991 7.718-8.08-.543-.99-1.087-1.979-2.035-3.109 0 0-.41-.123-.466-.537 0 0-.236-.344-.17-.697 0 0 .058-.355.21-1.129-1.078-1.477-2.155-2.955-3.114-4.463 0 0 .01.122-.15-.35-.106-.346-.333-.57-.899-1.01 0 0 .026-.403-.068-.956a8.3 8.3 0 0 1-.963-1.047s.053-.376-.048-.925a7.4 7.4 0 0 1-.929-1.103s.044-.403.15-1.187c-1.364-4.21-2.676-8.437-4.104-12.624-3.4-9.966-3.38-20.153-2.183-30.688 0 0 .22-.153.937-.185.42-1.012.838-2.024 1.804-3.12.162-.314.324-.627.635-1.327 0 0 .106-.401-.008-.421 0 0 .028.112.482.04 0 0 .458.046.64.44.17.266.411.408 1.06.766.48-.144.962-.288 2.017-.773 3.858-.079 7.716-.157 11.87.389a8645 8645 0 0 0 23.785 9.034s0 .075.19.597c.927.216 1.854.432 3.47.565 2.436 1.653 4.874 3.306 7.632 5.575 4.16 1.457 7.067 7.817 13.406 3.157 4.817-2.25 9.687-4.4 14.401-6.85.834-.432 1.017-2.117 1.528-3.676-.266-.159-.55-.267-1.288-.39-.29-.166-.413-.415-.557-1.316-.327-.209-.653-.418-1.597-.85-3.376-3.276-6.752-6.551-10.298-10.301-.378-.33-.755-.66-1.287-1.21 0 0-.252-.097-.386-.284 0 0-.228-.024-.28-.369 0 0 .027-.348-.13-.927a15 15 0 0 1-.767-.644s-.07.116-.207-.462c-.33-.19-.66-.38-.828-.548 0 0-.037.158-.234-.463a19 19 0 0 0-2.18-.609s-.389-.062-.509-.774c-3.665-2.796-7.329-5.592-11-8.304 0 0 .082-.018-.01-.754-2.986-2.106-5.973-4.212-8.999-6.225 0 0 .092-.04.001-.78-.993-.447-1.985-.894-2.988-1.25 0 0 .09-.017.002-.739-6.313-3.784-12.627-7.569-19.03-11.237 0 0 .126-.076-.302-.674-1.65-1.103-3.222-2.36-4.97-3.274-2.875-1.503-5.865-2.785-8.95-4.74-2.04-.278-4.08-.556-6.71-.948-.376-.134-.753-.267-1.164-1.146-6.8-1.16-13.57-2.86-20.414-3.256-3.435-.2-7.008 1.97-10.745 3.283 0 0-.29-.113-1.125-.222-.863.78-1.726 1.56-2.748 2.834-.314.395-.628.79-.906 1.202 0 0-.017-.035-.513.137-.402.31-.804.62-2.038.913-.457 1.193-.914 2.385-1.264 3.765 0 0-.146.159-.9.214-1.095 4.21-2.857 8.368-3.177 12.635-1.923 25.675 4.124 49.907 14.082 73.334.5 1.174 1.82 2 2.96 3.29 0 0-.07.355-.214.988a97 97 0 0 1 2.162 3.051s-.035.4.091.927c.244.24.487.479.94 1.036 0 0-.053.377.046.934.25.25.5.5.943 1.087 0 0-.049.387.067.928.246.245.492.49.944 1.055 0 0-.053.376.045.95.265.25.53.499 1.013.973 0 0-.12.288.001.925.28.292.557.584.994 1.075 0 0-.164.195.018.868.317.3.633.599.81.903 0 0 0-.14.218.284m294.48 156.255c-.434-.17-.867-.339-1.538-.369 0 0-.185-.203-.444-.65a4.7 4.7 0 0 0-1.303-.457s-.376-.06-.567-.55a47 47 0 0 0-1.33-1.044s-.064-.105-.316-.41c-.24-.176-.333-.41-.444-1.306-.317-.234-.635-.468-.788-.665 0 0-.052.16-.182-.444-.35-.182-.7-.364-.89-.607 0 0 .042.168-.129-.424-.36-.179-.72-.358-1.499-.601-.268-.172-.38-.415-.476-1.314-.306-.22-.612-.438-.812-.69 0 0 .031.107-.277-.25-.134-.295-.337-.53-1.007-.982a11.6 11.6 0 0 1-1.014-1.387s-.224-.167-.462-.478c-.202-.193-.295-.43-.193-1.357a91 91 0 0 1-.109-1.17 28 28 0 0 1-1.35-.351s-.435-.06-.573-.674c-.316-.48-.632-.96-.98-1.365 0 0 .078-.025-.017-.818l-1.116-4.615c-5.688 4.708-1.654 18.004 5.553 23.394.916.668 1.83 1.336 3.123 2.005 0 0 .37.066.602.61.611.493 1.222.985 2.062 1.952.316.147.631.294.828.439 0 0 .025-.116.025.7 1.185.421 2.37.841 3.74 1.162 0 0 .15.146.474.748.43.134.861.27 1.478.244 0 0 .2.142.241.884 7.793 2.118 15.633 6.068 23.368 5.873 8.911-.224 17.75-4.04 26.566-6.49 1.164-.323 2.008-1.796 3.71-3.031 7.434-3.103 13.563-7.732 17.383-14.991 0 0 .044.092.691.004.886-1.028 1.771-2.055 3.356-3.349.271-.627.542-1.254.844-1.75 0 0-.135.008.494-.185.181-.62.363-1.242.566-1.795 0 0-.07.01.547-.277.145-.43.29-.86.293-1.516 0 0 .191-.186.71-.425.127-.354.255-.709.334-1.447 0 0 .203-.33.985-.425.352-1.17.704-2.341.945-3.702 0 0 .152-.16.844-.396 4.655-8.703 5.513-17.885 3.307-27.395-.208-.897-1.272-1.595-2.15-2.59 0 0 .14-.259 0-.875-.25-.302-.502-.604-.966-1.194 0 0 .078-.35-.053-.967a6 6 0 0 0-1.298-.836s-.388-.087-.44.013c0 0 .1-.05-.122-.641-.938-.823-1.877-1.645-2.869-2.361 0 0 .104-.057.015-.448 0 0-.102-.387-.143-1.155-9.19-4.574-18.527-2.403-27.856-.611.258.405.516.81.791 1.97 3.73 2.885 7.46 5.77 11.27 9.192.317.34.635.679.813 1.803.404 1.591.676 3.23 1.234 4.765 2.69 7.399 3.028 14.82.592 22.36-.992 3.07-1.765 6.212-3.237 9.462-.184.573-.368 1.147-1.072 1.856-.119.322-.238.643-.847 1.05-.166.595-.33 1.19-.846 2.47-1.939 1.86-3.878 3.72-6.293 5.555-.3.19-.434.463-.469.801 0 0 .018.07-.72.072-2.448 1.595-4.896 3.19-7.787 4.236-.96.053-2.054-.176-2.862.202-10.46 4.889-21.039 4.847-31.797 1.081-1.34-.47-2.9-.316-4.648-.362 0 0-.192-.235-.432-.776a6.2 6.2 0 0 0-1.49-.35s-.315-.228-.56-.656c-.268-.201-.564-.342-.74-.432 0 0 0 .149-.272-.497m61.818 14.8c-.156.379-.312.757-.315 1.693.607.698 1.214 1.396 1.977 2.83 5.995 2.956 12.24 2.636 18.547 1.388 5.236-1.036 10.773-1.444 14.253-6.422 0 0-.054.15.46-.099.166-.333.334-.666.526-1.35 0 0 .047-.35.525-.511.184-.271.368-.543 1.022-.996.16-.285.321-.571.765-.897 0 0 .286-.014.934-.23.242-.6.485-1.2.76-1.728 0 0-.075-.022.493-.386-.312-.858-.624-1.716-1.297-2.883-.375-.26-.75-.522-1.196-1.089 0 0-.028-.313-.28-1.102-5.006-2.859-9.884-2.21-14.7.465 0 0 .055.049-.727.002-1.408.61-2.817 1.219-4.992 1.974-4.95 2.69-9.899 5.38-15.45 8.204-.268.292-.536.585-.826.816 0 0 .063.02-.479.322M549.76 179.176s-.107-.034.526-.311c.156-.431.313-.862.307-1.484 0 0 .154-.196.755-.522.134-.433.268-.867.25-1.497 0 0 .161-.19.756-.51.132-.43.263-.861.25-1.504 0 0 .176-.186.952-.23.38-1.123.76-2.245 1.051-3.698 0 0 .207-.271.78-.597.12-.42.24-.841.207-1.459 0 0 .158-.192.872-.203 1.062-1.636 2.463-3.144 3.13-4.928 3.942-10.537 8.362-20.955 11.41-31.754 6.835-24.218 10.992-48.865 7.712-74.157-.6-4.628-.043-10.023-5.12-13.338 0 0 .12-.205.145-1.002-.756-.913-1.513-1.825-2.624-2.743 0 0-.344-.084-.342-.08 0 0 .004.002-.13-.505-.286-.186-.572-.371-1.062-1.094-.587-.47-1.175-.94-2-1.96-.612-.51-1.225-1.02-2.105-1.975-.317-.137-.634-.273-1.37-.388 0 0-.362-.214-.436-.94-3.197-1.044-6.343-2.768-9.599-3.01-11.7-.87-22.597 2.797-33.3 6.98-1.178.46-1.994 1.849-3.342 2.982 0 0-.403-.03-.913.1-.236.235-.472.47-1.084.896 0 0-.422-.031-1.186-.118-1.81 1.061-3.62 2.123-5.45 3.06 0 0 .125-.011-.31.187-.327.11-.549.325-1.014.874 0 0-.413-.021-.952.098-.242.25-.485.5-1.01.965 0 0-.35-.071-.93.033-.266.257-.53.514-1.06.983 0 0-.327-.088-1.09-.217-.882.372-1.764.745-2.888 1.727-1.257.83-2.513 1.662-4.457 2.53-5.465 4.249-10.929 8.497-16.317 12.786 0 0-.04-.076-.73.154-4.866 3.536-9.958 6.806-14.546 10.673a287 287 0 0 0-18.033 16.561c-3.244 3.247-5.775 7.207-8.389 11.614 7.745 2.647 15.49 5.293 23.5 7.808 0 0 .205.216.207.872 1.325.136 2.65.272 4.5.122.511-.598 1.023-1.196 1.905-1.846 0 0 .374-.008.933-.159.212-.302.423-.603.678-1.254 0 0 .04-.35.71-.634 5.424-3.303 10.847-6.605 16.865-10.173.45-.598.898-1.197 2.062-1.684.788-.68 1.576-1.361 2.687-2.296.227-.157.426-.343.94-.823 0 0 .431.003.973-.109.24-.25.481-.501 1.031-.958 0 0 .367.06 1.137.197 1.52-.996 3.038-1.993 4.894-3.18 0 0 .383.053.9-.09.25-.23.5-.46 1.105-.9 0 0 .41.038 1.246.142 8.886-1.364 17.771-2.728 27.088-4.094 0 0 .384.198.62.625.27.192.566.326.78.398l-.12.62c.986.798 1.973 1.597 3.132 2.776 0 0-.009.418-.147 1.306.344 2.626.82 5.242 1.011 7.879 1.321 18.244-2.443 35.587-9.276 52.407-.848 2.087-1.014 4.452-1.43 6.907 0 0-.19.128-.888.149-1.695 1.507-3.485 3.017.66 4.606 3.978 3.528 7.956 7.057 12.057 11.011.163.278.406.43.876 1.169 2.49 3.376 4.92 6.802 7.544 10.07.357.444 1.7.097 3.137-.245.107-.628.214-1.256.318-2.318 0 0 .25-.354.572-.662.133-.27.304-.51.48-.618M166.537 335.183c.418.34.835.681 1.498 1.488.317.147.634.294 1.484.49.415.325.83.651 1.246 1.696.718.631 1.334 1.54 2.17 1.85 6.894 2.547 13.665 5.836 20.8 7.205 6.781 1.302 14.008.803 19.94-3.924 0 0-.108-.052.64.177 1.485-.994 2.97-1.988 4.642-3.191 0 0 .248.13.96.151a107 107 0 0 1 2.44-1.097c.13-1 .26-2.001.292-3.683-.86-.31-1.722-.895-2.579-.886-5.774.057-11.57.6-17.314.258-3.978-.237-7.886-1.642-12.097-3.213-2.49-1.84-4.972-3.694-7.478-5.513-1.4-1.018-2.844-1.979-4.404-3.519-.107-.364-.213-.727.172-1.473a787 787 0 0 1-2.353-2.017s.121-.237.191-.966c-1.004-1.954-2.01-3.908-3.194-6.033 0 0 .12-.218.247-1.175-.337-4.065-1.204-8.172-.89-12.187.515-6.613 1.796-13.166 2.725-20.133 0 0 .176-.348.72-.242.18-.678.36-1.357.418-2.496 0 0-.06-.472-.407-1.18-6.262-.28-12.535-.885-18.78-.675-2.31.078-4.555 2.074-7.328 3.515-.522.568-1.044 1.136-2.115 1.93-.493.616-.986 1.231-1.998 2.11-.11.37-.222.74-.24 1.447 0 0-.216.276-.916.566-3.39 5.678-1.683 11.676-1.123 18.414 1.932 4.089 3.864 8.178 5.98 12.604 0 0-.04.382.077.916.243.246.486.493.93 1.059 0 0-.038.376.057.958.274.25.55.499.992.92 0 0-.106.215-.148.98.36.608.72 1.216 1.686 2.026.722.648 1.443 1.297 2.41 2.602 2.64 3.101 5.282 6.202 8.274 9.844.612.106 1.224.212 2.373.397m41.948-32.143c.413-.977.826-1.955 1.953-2.913 4.26-4.586 4.308-5.589.208-8.288 0 0 .03-.375.14-1.13-2.953-6.538-6.65-8.863-12.752-7.59-1.396.352-2.79.703-4.728 1.256-.159.34-.318.681-.495 1.395 0 0-.084.365-.038.39 0 0-.022-.048-.57.165-.482.612-.963 1.225-1.964 2.047-.115.349-.23.698-.378.86 0 0 .19-.004-.517.22-2.135 3.275-2.114 6.227 1.567 9.14.286.203.572.405 1.046 1.152.581.478 1.163.957 1.978 1.971.61.475 1.22.95 1.998 1.96.347.114.694.227.89.344 0 0 .03-.149.384.56 2.164-.245 4.327-.49 6.45-.585 0 0-.125-.092.62.147 1.178-.313 2.356-.626 4.208-1.1m182.86-15.074c.504-.61 1.008-1.22 2.237-1.894 1.91-3.002 3.798-6.004-.63-8.95-.195-.209-.273-.454-.076-1.42a398 398 0 0 0-2.786-1.89c-5.135-3.248-9.464-1.563-14.167 2.302-.713.096-1.426.191-2.8.393-3.288 2.292-5.339 5.248-5.477 9.82.478.254.956.507 1.855.845.254.191.362.444.506 1.332.332.2.664.402 1.535.764.426.353.853.707 1.354 1.776 6.271 4.53 14.6 3.533 17.828-2.505 0 0 .065-.367.622-.573"/><path d="M312.736 360.13c-.915.466-1.83.932-3.2 1.78-3.21 2.007-5.967 3.632-9.154 5.254-5.5.354-10.58 1.08-15.639.95-4.2-.108-8.375-1.226-12.67-1.834-.112.063-.289-.12-.454-.41-.588-.424-1.012-.557-1.54-.613-.105.077-.297-.096-.397-.367-.46-.38-.822-.487-1.085-.61.097-.016.091.182.006-.151-.714-.523-1.343-.713-1.926-.916.046-.013.055.083-.01-.211-.429-.444-.79-.592-1.058-.741.097 0 .063.19.002-.11-.595-.517-1.128-.733-1.772-1.275-1.784-1.904-3.458-3.481-5.184-5.337-.414-.61-.775-.94-1.073-1.28.063-.01.038.114.14-.245.01-5.95-.082-11.541-.17-17.052.003.08-.148.025.165-.006.55-.566.783-1.102 1.334-1.743 1.175-1.104 2.033-2.102 3.211-3.117.693-.468 1.066-.918 1.493-1.563.264-.4.514-.475 1.052-.506.495-.313.741-.542.987-.772 0 0-.174-.138.06-.196.232-.058.6.028.876-.028.526-.306.775-.556 1.172-.914.148-.108.506-.037.792-.084.544-.3.802-.554 1.223-.908.164-.101.543-.034.97.02a69 69 0 0 0 5.747-1.087c8.73-2.032 17.466-3.897 26.487-1.89 3.05.68 6.117 1.285 9.316 1.863.14-.06.348.162.442.422.435.382.776.504 1.037.632-.08.006-.068-.155-.002.145.424.465.783.63 1.048.738-.093-.055.047-.22.054.081.286.56.564.82.948 1.355.657.433 1.207.59 1.86.835.1.087-.027.322.065.665.421.637.75.933 1.014 1.214-.067-.015-.017-.142-.087.293.23 4.188.847 7.951.728 11.691-.092 2.896-1.105 5.762-1.645 8.758.063.117-.132.297-.4.393-.38.45-.49.804-.606 1.08-.004-.078.15-.045-.147-.031-.854.549-1.412 1.085-2.016 1.962-.695 1.516-1.345 2.691-1.994 3.866m-13.97-21.992s-.074.004.508-.381c-.236-1.192-.472-2.384-1.166-3.83-.434-.28-.867-.56-1.325-.768 0 0 .07-.033-.05-.341 0 0-.054-.326-.26-1.072-5.952-3.87-14.569-3.386-18.725 1.472-.265.289-.28.59.028.94 0 0-.06-.051-.77-.027.24 1.846.48 3.692.742 5.876.041.222.066.445.2 1.288.293.278.586.557.82.843 0 0 .043-.046.322.611 6.973 5.03 14.453 3.967 18.69-2.599 0 0-.074-.02.474-.315.153-.583.306-1.166.513-1.697M352.404 369.175c.446-.517.892-1.033 1.885-1.88 1.777-3.99 3.007-7.652 4.248-11.285.011.028-.004-.022.46.081 3.296.055 6.127.007 8.901-.032-.056.01-.045-.103.007.2.384.538.716.772 1.307 1.24 3.11 3.696 2.041 7.208.135 10.942-.339 1.095-.422 1.975-.522 2.802-.016-.054.093-.074-.229.062-.484.574-.645 1.01-.75 1.676-.045.525-.14.824-.23 1.124 0 0-.352.043-.814.143-.63.45-.8.798-.969 1.147-.298.415-.596.83-1.205 1.577-.63.691-.95 1.052-1.27 1.412 0 0-.285.153-.447.365l-.457.6s-.3.107-.564.403c-.563.664-.86 1.032-1.157 1.4-.432.314-.863.628-1.724 1.134-.695.307-.939.459-1.397.803-.685.48-1.132.804-1.96 1.058-1.187.675-1.993 1.42-2.819 2.11-.02-.055.094-.08-.124.019-.542.212-.765.427-1.058.861-.168.115-.575.094-.852.146-.53.303-.785.554-.956.87.081.065-.013.25-.197.207a19 19 0 0 0-.966-.203c-1.698.206-2.974.53-4.266.762-7.923 1.425-15.815 3.654-23.786 3.985-6.618.275-13.33-1.692-19.948-2.677.052-.013.057.095-.036-.215-.708-.484-1.323-.657-1.917-.848.02-.018.036.034-.037-.243-.415-.418-.757-.56-1.04-.701.058 0 .032.114.094-.254-.128-1.383-.318-2.397-.533-3.547 5.207.718 10.685.094 14.487 2.325 5.505 3.231 9.604-.824 14.328-.6.332.015.71.076.993-.05 4.54-2.003 9.07-4.033 13.625-6.025.024.033-.057.035.206-.022.48-.32.698-.584 1.007-.958.091-.11.35.015.71.032.963-.277 1.566-.571 2.444-1.066 2.647-3.095 5.02-5.987 7.393-8.88"/></svg>
