<svg id="perl" xmlns="http://www.w3.org/2000/svg" viewBox="0 0 93.648 87"><path d="M62.588.013c-.67.02-1.39.071-2.148.106-2.243.41-4.333 1.322-6.484 1.986-3.33 1.143-6.53 3.096-7.903 6.064-.344.658-1.853 2.791-2.634 3.76-1.464 1.494-3.321 2.72-5.188 3.793-2.318 1.207-4.21 2.8-6.484 5.462-2.3 2.766-2.5 5.17-3.648 8.298-1.768 1.636-3.165-.621-2.715-2.199 1.082-3.818 3.027-7.261 2.756-11.312-.672-5.334-3.184-12.456-10.417-12.872-1.617.004-2.076.228-3.891 1.667-1.215.963-2.024 1.29-4.012 1.737-2.374.51-4.906.157-7.133 1.064-1.065.546-2.35 2.21-2.634 3.405-.236.996.33 1.982 1.459 2.518 2.275.936 6.155.238 6.646 3.014-.773 2.94-2.878 4.972-2.756 7.908-.15 3.21.318 5.864.568 9.007.33 3.851 3.51 5.894 5.714 9.113 3.32 3.707 9.21 7.578 14.873 6.064 1.966-.556 2.753-.457 3.485.461.5.627.57 1.205.284 2.59-.348 1.688-.345 4.898 0 6.701.256 1.336.446 3.368.446 4.504 0 .928.21 2.09.486 3.05.18.626.21 1.281.284 3.404.049 1.433.135 2.834.203 3.12.23.972.178 1.764-.325 4.788-.212 1.28-.951 3.619-1.46 4.61-.273.535-1.1 1.785-1.701 2.801l.122.036c1.002-.08 2.558-.149 4.782-.284.28-1.23.508-2.526.567-3.44.058-.893.198-1.917.365-2.624.152-.64.303-1.708.365-2.376.145-1.57.285-2.026 1.135-3.617.386-.724.824-1.68.972-2.128.26-.783.267-.935.243-3.227-.02-2.084.033-2.511.244-3.617.417-2.195.61-2.85 1.418-4.29 1.099-1.96 1.192-2.26 1.297-4.043.123-2.08.512-3.158 1.337-3.901.465-.418.866-.638 1.62-.71.253-.023.554.001.893 0 1.43-.003 2.07.167 2.513.674.414.476.46 1.061.12 2.341a17.04 17.04 0 00-.404 2.305c-.14 1.517-.442 2.38-1.216 3.582-.986 1.53-1.012 1.665-1.013 4.22-.001 2.05.019 2.26.243 2.872.134.365.4.854.608 1.1.46.543 1.83 1.57 3.283 2.481 1.407.883 3.007 2.24 3.97 3.37 1.026 1.188 2.492 2.362 2.676 3.9.003 1.124-.745 2.542-1.823 3.475-.554.479-.933.703-2.027 1.17-1.506.644-2.074 1.062-2.188 1.596a.6.6 0 000 .32c2.66-.024 5.358-.01 8.065.07.31-.26.586-.581.81-.993.41-.752.727-1.13 1.135-1.099.408.03.874.482 1.5 1.312.302.403.6.734.89.993 1.096.062 2.17.133 3.243.213.397-.427.658-1.072.81-1.986.106-.628.102-.913-.04-1.631-.325-1.647-.772-2.288-2.107-3.263-.451-.329-.943-.757-1.094-.957-.402-.531-.528-1.235-.365-1.915.199-.829 1.124-2.298 2.188-3.546.954-1.118 1.455-1.817 2.23-3.12.29-.49.72-.969 1.377-1.56.526-.475 1.102-1.14 1.297-1.455l.324-.567v-3.227c-.013-2.3.14-4.531.487-6.809.288-2.732 1.395-4.887 2.918-7.234.87-1.574 1.28-2.021 2.026-2.021 1 0 1.61.97 1.905 3.014.337 2.007 1.453 3.723 2.148 5.638.424 1.364.726 1.978 1.702 3.688.926 1.624 1.706 3.434 1.945 4.54.127.584.162 1.396.162 3.085 0 2.488.096 3.48.446 4.751.267.967.397 3.739.284 5.603-.066 1.09-.091 1.233-.77 2.98-.996 2.56-1.225 3.31-1.42 4.61-.185 1.251-.311 1.554-.971 2.8-.04.076-.047.14-.081.213 3.439.491 5.476.855 6.646 1.064.145-.913-.141-1.848-.081-2.766.16-.226-.218-1.835-.851-3.546-1.007-2.721-1.085-3.156-.567-5 .09-.32.229-1.386.283-2.376.104-1.902.202-2.38.77-3.617.51-1.109.66-1.597.73-2.73.082-1.318-.096-2.09-.65-3.228-.546-1.124-.617-1.637-.363-2.837.274-1.298.273-4.346 0-5.319-.272-.967-.411-4.475-.365-8.972l.567-5.496c.874-2.974 1.407-4.043 2.108-4.043.642 0 1.246.92 1.66 2.59.255 1.547.127 3.137.447 4.68.414 2.13-.25 4.261-1.5 6.1-.742 1.138-.998 1.958-.81 2.553.15.474.703 1.004 1.135 1.099.187.041.422-.025.689-.142.33-.145.666-.508 1.823-2.021.785-1.026 1.532-2.11 1.662-2.412 1.08-4.14 1.123-7.197.527-11.277 0-2.65-.42-3.642-2.513-5.638-3.922-4.27-6.184-8.018-8.434-13.051-.776-1.128-1.906-2.496-2.756-3.333-1.323-1.303-2.113-2.594-2.837-4.54-1.043-2.315-1.936-5.051-3.485-7.056-1.46-1.43-2.82-3-4.945-3.724-2.02-.828-3.708-.945-5.714-.886zm-2.23 49.185c.16.01.31.092.487.213.498.343.617.728.892 3.333.144 1.36.33 3.065.446 3.795.512 3.22.593 4.229.446 5.319-.076.561-.153 1.719-.203 2.553-.14 2.35-.52 3.392-1.986 5.603-.447.675-.996 1.545-1.216 1.95-.438.806-.908 1.348-1.378 1.56-.46.21-1.064.171-1.661-.106-.822-.38-2.318-1.395-3.04-2.055-.77-.707-1.097-1.088-1.984-2.483-1.01-1.585-1.135-1.917-1.135-2.624-.001-.924.385-1.609 1.418-2.482.45-.381 1.428-1.228 2.148-1.88 1.49-1.348 1.53-1.416 1.905-3.333.339-1.737.346-1.766 1.743-3.546.5-.637.737-1.216 1.337-3.191.554-1.826.804-2.278 1.256-2.483.217-.098.367-.15.527-.142" fill="currentColor"/></svg>
