<svg id="powershell" xmlns="http://www.w3.org/2000/svg" viewBox="0 0 233 175"><path d="M96.7,175.1c-28.7,0-57.4,0-86.1,0c-8.7,0-11.4-3.3-9.4-11.8c11.6-50.7,23.3-101.5,35-152.2c1.6-7,6.3-10.6,13.6-10.6c57.9-0.1,115.8-0.2,173.7-0.2c7.7,0,10.6,3.5,8.9,11c-10.4,46.1-20.9,92.3-31.4,138.4c-1.1,5-2.2,10-3.5,15c-1.7,7-6.4,10.6-13.6,10.6c-29,0-58.1,0-87.1,0C96.7,175.3,96.7,175.2,96.7,175.1zM117.6,83.6c-1.8,1.4-3.2,2.5-4.6,3.5c-22.2,16-44.4,32-66.5,48.1c-5.4,4-6.5,10.1-3.1,15.2c3.7,5.4,9.8,6.5,15.6,2.5c5.7-4,11.3-8.1,17-12.1c20.9-15,41.8-29.9,62.6-45c7.7-5.6,8.3-12.4,1.9-19.3c-17-18.2-34-36.3-51-54.4c-5.2-5.6-11.8-6.1-16.6-1.6c-4.8,4.6-4.5,10.9,0.9,16.6c5.7,6,11.4,12,17.1,18C99.7,64.6,108.6,73.9,117.6,83.6zM136.5,151.7C136.5,151.7,136.5,151.7,136.5,151.7c7.1,0,14.2,0,21.4,0c6.1-0.1,9.7-3.5,9.8-9.3c0.1-5.9-3.7-9.8-9.9-9.9c-14.2-0.1-28.5-0.1-42.7-0.1c-6,0-9.5,3.7-9.5,9.6c0,5.8,3.8,9.6,9.6,9.7C122.2,151.8,129.4,151.7,136.5,151.7z" fill="currentColor"/></svg>