<svg xmlns="http://www.w3.org/2000/svg" id="algol-68" viewBox="0 0 400 400"><path fill="currentColor" d="M63.761 91.423c-8.13 48.782-6.895 43.91-11.134 43.91h-3.294v11.334H74V135.41l-2.833-.205c-3.316-.24-3.317-.25-1.42-11.062l1.086-6.191 6.067.191 6.067.19L84.109 125c1.754 10.246 1.742 10.333-1.442 10.333H80v11.334h24v-11.334h-3.321c-2.897 0-3.364-.191-3.665-1.5-.19-.825-3.346-19.65-7.014-41.833s-6.824-41.008-7.014-41.833c-.325-1.416-.674-1.5-6.222-1.5h-5.878zM122 54.297v5.63l3.167.203 3.166.203.173 37.5.172 37.5H122v11.334h47.333V128H158.07l-.202 3.5-.201 3.5-8.506.187-8.505.186.172-37.52.172-37.52 3.167-.203 3.166-.203v-11.26H122zm70.152-.116-5.485 5.514v76.473l5.165 5.249 5.165 5.25h19.366l5.494-5.524 5.495-5.523-.176-21.643L227 92.333l-9.167-.185-9.166-.186v11.298l3.166.203 3.167.204.179 15.853.179 15.853-8.513-.186-8.512-.187-.172-37.153-.172-37.152 1.505-.375c.828-.207 4.656-.288 8.506-.181l7 .194.189 7.167.189 7.167h11.955v-14.83l-5.451-5.585-5.452-5.585h-18.793zm57.666-.333-5.151 5.181v77.336l5.181 5.151 5.181 5.151h19.336l5.151-5.182 5.151-5.181V58.889l-5.303-5.111-5.303-5.111h-19.092zm52.675-4.681c-.138.275-.33 2.808-.426 5.63l-.174 5.13 3.554.203 3.553.203.172 37.5.172 37.5H302v11.334h48V128h-11.264l-.201 3.5-.202 3.5-8.423.186-8.422.186-.422-1.681c-.718-2.861-.423-71.069.314-72.445.498-.931 1.419-1.246 3.643-1.246H328V48.667h-12.627c-6.945 0-12.741.225-12.88.5M273 97.667V135h-16.667l-.173-36.667c-.095-20.166-.026-37.051.154-37.52.246-.645 2.333-.808 8.506-.667l8.18.187zm-193.497-.343c1.427 9.158 1.379 9.343-2.4 9.343-4.311 0-4.522-.59-3.084-8.597 2.181-12.145 3.676-12.349 5.484-.746m54.654 114.186L126 219.686v114.667l8.176 8.157 8.177 8.157h28.667l8.157-8.177 8.156-8.176v-50.716l-8.166-8.045-8.167-8.045-11.45.271c-6.297.149-12.222.078-13.166-.159l-1.717-.431V222h24v10.667h18.666v-13.02l-8.176-8.157-8.176-8.157h-28.668zm86 0L212 219.686v50.078l3.326 3.561 3.326 3.562-3.326 3.516L212 283.92v50.433l8.176 8.157 8.177 8.157h28.667l8.157-8.177 8.156-8.176V283.92l-3.411-3.607-3.412-3.608 3.412-3.484 3.411-3.484v-50.09l-8.176-8.157-8.176-8.157h-28.668zm34.352 33.323-.176 22.834H231l-.175-22.834-.176-22.833h24.035zm-86 64.334.175 22.833h-24.017v-22.556c0-12.405.207-22.762.459-23.015.253-.253 5.578-.378 11.834-.278l11.373.182zm86 0 .175 22.833h-24.017v-22.556c0-12.405.207-22.762.459-23.015.253-.253 5.578-.378 11.834-.278l11.373.182"/></svg>
