<svg xmlns="http://www.w3.org/2000/svg" id="amber" viewBox="0 0 400 400"><path fill="currentColor" d="M191.677 47.781c-3.403 1.213-1.999-.332-36.605 40.311-41.494 48.734-39.875 46.798-41.819 50.033l-1.69 2.813-.2 49.375c-.11 27.156-.014 51.429.213 53.941l.412 4.566 6.909 9.159c3.8 5.038 18.446 24.077 32.547 42.309 40.816 52.775 37.76 49.384 44.494 49.363 7.427-.023 3.498 4.325 48.831-54.026 26.93-34.661 34.049-44.049 35.723-47.107 1.613-2.946 1.65-105.102.039-108.518-1.366-2.896-3.503-5.498-32.383-39.446-20.834-24.489-30.425-35.614-43.46-50.413-2.687-3.05-8.248-4.059-13.011-2.36"/></svg>
