<svg xmlns="http://www.w3.org/2000/svg" id="apl" viewBox="0 0 400 400"><path fill="currentColor" d="M105.071 0.499 C 103.233 1.358 102.408 2.794 102.739 4.558 C 103.091 6.436 117.054 25.064 152.146 70.476 C 167.505 90.352 166.098 88.601 166.23 88.007 C 166.538 86.621 171.241 43.052 172.578 29.206 C 174.991 4.216 174.881 2.855 170.265 0.699 L 168.995 0.106 137.566 0.053 L 106.138 0 105.071 0.499 M292.487 52.709 C 287.496 53.07 278.958 54.21 276.296 54.87 L 275.238 55.132 275.185 103.545 L 275.131 151.958 335.873 151.958 C 369.28 151.958 396.613 151.934 396.613 151.905 C 396.6 150.978 394.814 141.899 393.958 138.413 C 379.689 80.243 342.781 49.07 292.487 52.709 M251.005 61.99 C 228.05 69.857 202.998 83.356 175.056 102.916 L 170.958 105.784 168.707 104.387 C 160.396 99.233 144.73 90.582 143.705 90.582 C 143.563 90.582 143.492 100.808 143.492 121.27 L 143.492 151.958 200.741 151.958 L 257.989 151.958 257.989 105.82 C 257.989 80.444 257.918 59.688 257.831 59.694 C 257.743 59.7 254.672 60.734 251.005 61.99 M74.921 74.097 C 42.794 76.909 19.366 98.484 7.729 135.978 C 7.01 138.292 3.81 151.29 3.81 151.893 C 3.81 151.928 31.333 151.958 64.974 151.958 L 126.138 151.958 126.138 117.379 C 126.138 84.63 126.118 82.795 125.767 82.69 C 125.563 82.63 122.873 81.719 119.788 80.667 C 103.913 75.252 88.127 72.941 74.921 74.097 M0.97 170.635 C -2.437 203.395 2.212 242.863 13.697 278.677 L 15.953 285.714 71.045 285.714 L 126.138 285.714 126.138 227.513 L 126.138 169.312 63.623 169.312 L 1.108 169.312 0.97 170.635 M143.492 227.513 L 143.492 285.714 200.741 285.714 L 257.989 285.714 257.989 227.513 L 257.989 169.312 200.741 169.312 L 143.492 169.312 143.492 227.513 M275.132 227.513 L 275.132 285.714 329.841 285.714 C 359.931 285.714 384.55 285.666 384.55 285.607 C 384.55 285.548 385.402 282.858 386.443 279.628 C 393.664 257.231 397.717 235.568 399.619 209.206 C 400.117 202.303 399.99 180.855 399.415 174.861 C 399.155 172.15 398.942 169.793 398.942 169.623 C 398.942 169.351 391.296 169.312 337.037 169.312 L 275.132 169.312 275.132 227.513 M89.543 216.296 C 96.29 231.836 102.296 245.741 102.888 247.196 C 106.555 256.199 109.105 258.536 115.732 258.97 L 117.884 259.111 117.884 264.053 L 117.884 268.995 95.45 268.995 L 73.016 268.995 73.016 263.915 L 73.016 258.836 76.893 258.836 C 85.29 258.836 85.968 257.267 81.692 247.725 C 81.014 246.212 80.313 244.616 80.134 244.18 L 79.81 243.386 64.768 243.386 L 49.726 243.386 49.535 243.862 C 49.43 244.124 48.901 245.434 48.358 246.772 C 44.04 257.434 44.482 258.95 51.905 258.931 L 55.873 258.921 55.873 263.958 L 55.873 268.995 37.884 268.995 L 19.894 268.995 19.894 263.943 L 19.894 258.892 22.593 258.782 C 28.275 258.549 30.219 257.057 33.02 250.777 C 33.613 249.447 34.711 247.122 35.46 245.608 C 36.209 244.095 41.738 230.571 47.747 215.556 C 53.756 200.54 58.715 188.182 58.768 188.093 C 58.821 188.005 63.006 187.957 68.069 187.987 L 77.275 188.042 89.543 216.296 M219.683 188.328 C 234.333 190.726 240.884 196.571 242.133 208.36 C 243.443 220.717 237.619 229.135 225.608 232.243 C 220.792 233.489 220.018 233.542 206.349 233.57 L 193.757 233.595 193.757 244.575 L 193.757 255.556 194.286 256.613 C 194.865 257.773 195.773 258.493 197.122 258.864 C 198.012 259.109 206.401 259.149 207.343 258.913 L 207.831 258.79 207.831 263.892 L 207.831 268.995 184.339 268.995 L 160.847 268.995 160.847 264.013 L 160.847 259.032 165.344 259.058 C 171.099 259.091 172.176 258.744 173.2 256.531 L 173.651 255.556 173.651 228.995 C 173.651 199.616 173.722 201.143 172.282 199.771 C 171.102 198.648 169.745 198.355 164.921 198.181 L 160.847 198.034 160.847 192.977 L 160.847 187.921 189.471 187.994 C 210.788 188.049 218.5 188.134 219.683 188.328 M340.106 192.995 L 340.106 198.054 335.503 198.147 C 330.073 198.258 329.087 198.475 327.701 199.865 C 326.292 201.278 326.349 199.975 326.349 230.804 L 326.349 258.624 336.093 258.624 C 350.591 258.624 353.393 258.073 356.674 254.578 C 359.237 251.848 361.48 243.002 361.481 235.621 C 361.482 233.471 360.845 233.694 367.479 233.52 L 373.122 233.373 373.122 251.184 L 373.122 268.995 333.333 268.995 L 293.545 268.995 293.545 264.012 L 293.545 259.029 297.937 259.069 C 303.805 259.122 305.254 258.598 305.984 256.161 C 306.347 254.949 306.362 202.528 305.999 201.46 C 305.113 198.848 302.862 198.135 295.397 198.103 L 293.545 198.095 293.545 193.016 L 293.545 187.937 316.825 187.937 L 340.106 187.937 340.106 192.995 M193.794 198.446 C 193.715 198.525 193.651 204.088 193.651 210.809 L 193.651 223.029 199.524 223.111 C 216.032 223.341 221.208 220.479 221.23 211.111 C 221.251 201.858 216.686 198.957 201.587 198.629 C 198.444 198.561 195.438 198.46 194.905 198.404 C 194.373 198.348 193.873 198.367 193.794 198.446 M58.952 219.017 C 56.28 225.96 53.97 231.95 53.817 232.328 L 53.539 233.016 64.415 233.016 L 75.291 233.016 69.644 219.794 C 66.538 212.521 63.954 206.531 63.903 206.483 C 63.852 206.434 61.624 212.074 58.952 219.017 M22.857 303.209 C 22.857 304.116 30.082 319.105 33.49 325.268 C 56.989 367.768 90.123 394.474 125.026 399.048 L 126.138 399.193 126.138 351.131 L 126.138 303.069 74.497 303.069 C 46.095 303.069 22.857 303.132 22.857 303.209 M143.492 351.461 L 143.492 399.853 146.508 399.722 C 155.045 399.351 163.852 397.377 177.884 392.688 C 198.192 385.901 199.025 385.912 221.799 393.22 C 234.29 397.229 244.4 399.205 255.013 399.711 L 257.989 399.854 257.989 351.461 L 257.989 303.069 200.741 303.069 L 143.492 303.069 143.492 351.461 M275.273 303.21 C 275.196 303.287 275.132 324.771 275.132 350.952 L 275.132 398.552 275.714 398.431 C 276.034 398.364 278.582 397.876 281.376 397.346 C 318.581 390.284 352.989 358.085 374.797 309.924 C 376.436 306.303 377.778 303.28 377.778 303.205 C 377.778 303.024 275.455 303.029 275.273 303.21"/></svg>
