<svg xmlns="http://www.w3.org/2000/svg" id="arturo" viewBox="0 0 400 400"><path fill="currentColor" d="M326.979 17.771 C 326.090 18.279,324.617 18.704,323.704 18.717 C 311.158 18.890,304.789 30.555,307.207 48.927 C 308.458 58.427,307.882 60.818,303.667 63.607 C 301.422 65.092,299.883 67.368,301.939 66.161 C 310.330 61.236,323.313 49.618,327.302 43.463 C 328.724 41.269,330.323 39.471,330.856 39.467 C 332.807 39.452,334.087 41.121,334.095 43.690 C 334.112 49.298,337.892 61.192,340.165 62.791 C 340.547 63.060,340.454 64.585,339.920 66.813 C 339.290 69.439,339.177 72.770,339.501 79.224 C 339.949 88.143,340.313 89.645,342.651 92.213 L 343.945 93.635 342.037 95.542 C 338.147 99.432,336.452 116.359,339.580 120.076 C 341.673 122.563,341.618 123.030,339.145 123.776 C 334.907 125.054,329.759 142.620,332.484 146.509 C 333.424 147.852,333.351 147.961,330.706 149.144 C 327.963 150.372,319.551 158.572,315.659 163.813 C 314.603 165.234,313.592 166.543,313.412 166.721 C 311.026 169.080,309.306 173.101,310.214 174.196 C 310.757 174.850,310.353 175.406,308.448 176.618 C 302.430 180.449,294.112 193.084,294.986 197.064 C 295.369 198.811,295.239 198.912,290.613 200.454 C 285.399 202.193,278.994 206.098,277.424 208.494 C 274.810 212.483,271.671 210.501,266.534 201.621 C 264.831 198.678,264.220 198.384,259.798 198.384 C 255.473 198.384,246.078 200.379,244.592 201.612 C 244.162 201.969,241.804 202.984,239.353 203.867 C 232.434 206.361,222.659 217.224,216.599 229.154 C 215.267 231.776,213.636 232.633,209.979 232.633 C 208.400 232.633,208.113 231.447,207.364 221.837 C 206.068 205.219,206.129 205.579,204.360 204.187 C 200.760 201.356,196.598 202.903,190.173 209.462 C 183.598 216.175,182.432 219.260,179.374 238.025 C 177.889 247.138,172.536 250.083,172.536 241.787 C 172.536 240.211,172.246 237.143,171.891 234.969 C 170.935 229.111,169.190 217.852,168.735 214.606 C 167.529 206.009,158.320 209.326,158.320 218.358 C 158.320 219.770,158.060 221.086,157.743 221.282 C 155.489 222.675,156.545 237.913,159.708 249.642 C 161.071 254.695,160.795 257.835,158.989 257.835 C 157.489 257.835,152.840 246.846,150.516 237.803 C 147.810 227.277,147.530 226.660,143.022 221.286 C 141.374 219.322,139.020 217.427,137.126 216.540 L 133.974 215.063 130.800 216.578 C 126.701 218.535,124.916 224.186,124.323 237.089 C 124.085 242.262,123.423 244.265,121.953 244.265 C 121.586 244.265,120.331 244.993,119.164 245.883 C 117.782 246.937,116.891 247.256,116.608 246.799 C 113.189 241.267,90.722 242.308,80.180 248.487 L 76.070 250.895 74.061 248.645 C 70.073 244.178,64.502 242.384,52.984 241.856 C 32.330 240.910,18.694 251.229,16.475 269.486 C 16.254 271.297,15.494 273.139,14.480 274.319 C 11.562 277.715,4.524 293.300,4.524 296.367 C 4.523 300.836,8.151 299.663,10.920 294.299 C 12.662 290.926,13.368 290.111,14.330 290.362 C 15.721 290.726,17.909 288.280,20.652 283.294 C 22.104 280.654,23.135 279.743,26.867 277.800 C 29.775 276.286,31.757 274.760,32.531 273.438 C 33.895 271.109,33.994 271.092,38.772 272.375 C 47.270 274.656,62.118 272.403,72.175 267.307 C 75.057 265.846,76.403 265.644,85.669 265.288 C 98.102 264.809,108.632 263.531,112.561 262.024 C 113.074 261.826,114.600 262.543,115.951 263.617 C 121.232 267.814,129.535 270.685,136.538 270.737 C 139.303 270.757,139.968 271.071,142.744 273.667 C 144.454 275.267,146.317 276.575,146.885 276.575 C 147.687 276.575,147.959 277.400,148.110 280.291 L 148.304 284.006 150.565 283.829 C 151.809 283.732,154.228 282.787,155.940 281.729 C 161.185 278.488,163.389 279.525,160.945 284.085 C 158.499 288.650,158.725 288.854,166.236 288.846 C 173.305 288.839,177.799 287.856,180.914 285.638 C 184.191 283.305,186.489 283.237,187.627 285.439 C 188.760 287.630,192.957 291.583,195.601 292.951 C 196.601 293.467,197.972 294.502,198.648 295.249 C 199.324 295.996,200.378 296.607,200.990 296.607 C 201.603 296.607,202.444 297.017,202.860 297.519 C 203.702 298.533,202.946 298.772,196.446 299.548 C 187.978 300.559,182.581 302.726,164.511 312.372 C 162.763 313.305,155.784 316.263,149.002 318.945 C 142.221 321.626,135.751 324.243,134.624 324.759 C 123.345 329.929,117.016 334.094,114.757 337.835 C 112.638 341.343,112.780 341.532,116.378 339.996 C 121.549 337.788,139.507 336.331,145.276 337.651 C 148.751 338.447,150.462 338.560,151.738 338.080 C 156.522 336.280,168.433 336.883,181.260 339.574 C 194.520 342.355,197.593 343.868,193.284 345.495 C 192.135 345.929,190.981 347.115,190.289 348.574 C 188.266 352.836,180.251 356.915,172.412 357.671 C 170.170 357.888,166.446 358.475,164.136 358.976 C 156.844 360.559,146.895 361.181,140.226 360.471 C 136.850 360.112,133.069 359.892,131.826 359.982 C 130.582 360.072,127.565 360.161,125.122 360.179 L 120.680 360.213 122.661 361.851 C 127.261 365.655,136.978 368.427,152.310 370.311 C 166.387 372.041,185.193 369.438,199.406 363.792 C 207.638 360.522,219.673 354.129,220.781 352.438 C 221.416 351.470,222.418 350.889,223.453 350.889 C 224.365 350.889,226.003 350.617,227.095 350.284 C 228.186 349.952,230.288 349.366,231.765 348.984 C 237.919 347.390,243.981 341.344,246.662 334.128 C 248.035 330.433,249.121 329.773,256.736 328.005 C 266.591 325.716,269.941 300.840,261.270 294.327 C 256.750 290.932,256.851 290.221,262.021 289.047 C 264.263 288.538,266.156 287.686,266.667 286.957 C 267.214 286.175,269.226 285.340,272.177 284.668 C 278.299 283.276,285.768 280.341,288.507 278.252 C 291.079 276.290,293.402 276.142,298.895 277.591 C 301.013 278.149,303.663 278.463,304.784 278.288 L 306.822 277.969 306.723 282.036 C 306.609 286.703,312.245 299.101,315.065 300.386 C 315.980 300.803,316.714 302.036,317.203 303.978 C 317.964 306.998,318.681 308.453,322.486 314.701 C 327.399 322.767,332.273 328.271,334.502 328.271 C 335.030 328.271,336.147 329.084,336.983 330.078 C 339.262 332.786,344.375 335.284,349.018 335.958 C 351.291 336.287,353.659 336.759,354.281 337.007 C 354.928 337.264,355.412 337.165,355.412 336.774 C 355.412 335.925,351.379 332.795,350.285 332.795 C 349.842 332.795,348.997 332.206,348.407 331.485 C 347.817 330.765,345.475 329.230,343.203 328.073 C 339.181 326.026,339.048 325.877,338.190 322.436 C 336.889 317.221,329.432 302.620,326.045 298.655 C 324.315 296.629,323.102 294.566,323.102 293.649 C 323.102 292.790,321.897 289.833,320.424 287.078 C 318.951 284.322,316.634 279.964,315.276 277.393 C 313.917 274.822,311.889 271.899,310.769 270.898 C 309.183 269.482,308.714 268.514,308.647 266.527 L 308.562 263.974 317.123 263.794 C 329.162 263.540,329.585 263.695,330.610 268.723 C 331.064 270.949,332.270 274.135,333.288 275.803 C 334.307 277.472,335.332 279.350,335.567 279.977 C 335.801 280.605,336.658 281.371,337.471 281.680 C 338.501 282.071,339.187 283.132,339.734 285.177 C 341.102 290.291,350.984 303.716,353.381 303.716 C 353.896 303.716,355.945 304.515,357.934 305.493 C 361.669 307.328,368.809 307.963,371.886 306.735 C 373.277 306.179,366.645 302.963,362.314 302.094 C 358.644 301.356,357.997 301.059,357.997 300.109 C 357.997 299.595,357.732 298.670,357.409 298.053 C 357.085 297.435,356.045 295.042,355.097 292.734 C 352.877 287.328,347.663 278.562,346.204 277.781 C 345.582 277.448,345.073 276.583,345.073 275.857 C 345.073 275.132,343.945 272.598,342.567 270.226 C 341.188 267.854,339.182 264.168,338.108 262.036 C 337.034 259.903,335.372 257.431,334.414 256.543 C 332.660 254.916,330.856 251.996,330.856 250.783 C 330.856 250.408,332.579 250.141,334.895 250.158 C 337.116 250.175,340.500 249.874,342.415 249.489 C 344.329 249.103,347.284 248.788,348.981 248.788 L 352.067 248.788 352.497 251.333 C 352.734 252.732,353.961 255.567,355.226 257.633 C 356.490 259.699,357.993 262.178,358.566 263.142 C 359.139 264.107,360.191 264.979,360.903 265.081 C 361.712 265.197,362.280 265.855,362.419 266.835 C 363.070 271.446,375.012 285.622,378.245 285.622 C 379.051 285.622,379.985 285.877,380.323 286.189 C 382.109 287.838,387.650 288.927,390.266 288.143 C 393.093 287.296,393.558 286.641,391.761 286.041 C 384.103 283.485,381.570 282.439,381.193 281.679 C 380.947 281.182,380.207 279.471,379.549 277.877 C 378.023 274.181,372.026 264.565,369.669 262.036 C 368.675 260.969,367.710 259.460,367.523 258.681 C 367.012 256.544,360.005 245.775,356.704 242.052 C 355.105 240.248,353.479 238.191,353.091 237.480 C 352.100 235.665,349.951 234.754,344.737 233.938 C 337.330 232.779,335.525 231.365,341.395 231.320 C 343.729 231.302,347.697 230.202,351.669 228.473 C 352.526 228.100,352.870 228.404,353.205 229.828 C 353.883 232.714,357.205 238.205,358.974 239.364 C 359.858 239.943,360.582 240.935,360.582 241.569 C 360.582 246.873,371.225 256.543,377.063 256.543 C 381.540 256.543,381.243 254.203,376.575 252.700 C 375.013 252.196,374.152 251.523,374.152 250.804 C 374.152 249.186,369.466 239.758,367.507 237.436 C 366.587 236.346,365.630 234.602,365.379 233.559 C 364.767 231.020,362.190 226.496,359.329 222.940 C 358.042 221.341,356.490 219.244,355.879 218.281 C 354.388 215.928,350.506 214.929,344.972 215.474 C 342.089 215.759,340.521 215.662,340.224 215.182 C 339.609 214.187,340.415 211.309,341.308 211.309 C 346.558 211.309,356.783 192.330,354.570 186.694 C 353.661 184.382,353.667 184.067,354.636 183.097 C 357.476 180.258,358.980 169.954,357.445 163.852 C 357.038 162.231,356.382 159.617,355.987 158.043 C 355.592 156.468,354.575 154.528,353.725 153.730 C 351.780 151.902,351.777 151.000,353.715 149.963 C 354.577 149.501,355.560 148.110,355.961 146.784 C 357.622 141.286,358.757 135.730,359.098 131.434 L 359.462 126.842 357.437 126.137 C 354.885 125.247,354.870 124.184,357.379 122.121 C 361.708 118.562,362.792 94.992,358.626 94.992 C 358.280 94.992,357.997 94.556,357.997 94.023 C 357.997 93.489,358.284 93.053,358.634 93.053 C 362.558 93.053,361.046 66.181,356.938 62.888 C 355.616 61.829,355.350 61.267,355.867 60.626 C 358.460 57.412,354.285 40.457,350.031 36.927 C 349.383 36.388,349.179 35.374,349.393 33.739 C 350.460 25.576,333.928 13.798,326.979 17.771 M262.897 211.261 C 263.033 212.193,262.615 213.075,261.750 213.681 C 261.001 214.206,259.051 215.792,257.418 217.206 C 254.905 219.381,254.149 219.712,252.514 219.353 C 248.756 218.527,242.617 219.664,239.430 221.775 C 234.296 225.175,235.365 222.204,241.901 214.912 L 244.753 211.729 251.779 211.350 C 255.643 211.142,259.386 210.621,260.097 210.192 C 261.807 209.160,262.635 209.476,262.897 211.261 M199.601 217.932 C 199.898 218.732,200.684 222.690,201.348 226.728 L 202.557 234.071 200.695 235.555 C 199.671 236.372,197.787 237.195,196.509 237.385 C 195.230 237.574,193.239 237.925,192.084 238.163 C 189.504 238.695,189.422 238.029,191.321 231.987 C 192.047 229.677,193.226 225.613,193.940 222.955 C 195.700 216.407,198.211 214.179,199.601 217.932 M136.619 231.087 C 137.187 231.305,137.649 232.238,137.658 233.187 C 137.691 236.636,140.108 245.410,142.810 251.893 C 145.766 258.986,145.718 262.217,142.712 258.481 C 138.307 253.007,136.607 251.216,133.740 249.030 C 130.205 246.334,129.402 242.769,131.502 239.095 C 132.010 238.207,132.436 236.516,132.449 235.337 C 132.490 231.505,133.917 230.050,136.619 231.087"/></svg>
