<svg xmlns="http://www.w3.org/2000/svg" id="arturo" viewBox="0 0 400 400"><path fill="currentColor" d="M324.147 17.458 C 310.648 19.997,304.760 30.133,306.783 47.348 C 307.841 56.352,307.437 59.307,304.741 62.286 C 296.136 71.794,307.362 64.631,319.095 53.127 C 326.315 46.047,332.481 41.322,332.796 42.627 C 333.111 43.932,334.804 49.500,336.558 55.000 C 339.557 64.400,340.064 74.696,339.291 110.501 C 339.131 117.927,338.413 124.002,337.696 124.001 C 335.848 123.999,332.000 135.691,332.000 141.305 C 332.000 144.237,328.235 149.919,322.020 156.367 C 316.532 162.061,311.536 168.313,310.918 170.258 C 310.300 172.204,307.180 176.596,303.984 180.017 C 300.788 183.439,297.053 189.334,295.685 193.119 C 294.316 196.904,292.153 200.000,290.877 200.000 C 289.602 200.000,285.243 202.250,281.190 205.000 C 272.076 211.185,272.751 211.254,268.867 203.743 C 262.159 190.772,235.544 200.056,221.919 220.120 C 211.974 234.764,209.422 234.447,207.622 218.343 C 205.460 199.000,202.170 197.344,190.054 209.500 C 183.871 215.704,182.189 219.224,180.325 229.864 C 179.086 236.940,177.218 243.582,176.175 244.625 C 174.256 246.544,173.751 244.519,170.534 222.000 C 169.119 212.093,168.476 211.000,164.071 211.000 C 156.034 211.000,154.415 224.171,159.153 251.000 C 161.224 262.726,158.620 258.722,152.000 239.999 C 141.173 209.381,127.483 205.228,124.714 231.721 C 123.263 245.600,122.458 246.203,108.982 243.508 C 100.771 241.866,97.049 242.176,88.000 245.256 C 77.471 248.840,76.700 248.850,70.000 245.503 C 48.289 234.657,20.011 245.717,16.713 266.345 C 16.032 270.604,14.718 274.556,13.794 275.127 C 8.041 278.683,2.218 300.000,7.000 300.000 C 8.650 300.000,10.000 299.124,10.000 298.053 C 10.000 296.982,15.175 291.003,21.500 284.766 L 33.000 273.426 48.000 273.168 C 57.805 272.999,65.357 271.713,69.807 269.455 C 73.551 267.555,81.201 265.948,86.807 265.885 C 92.413 265.821,100.560 265.138,104.912 264.365 C 111.102 263.266,114.766 263.944,121.751 267.480 C 126.661 269.966,132.765 272.000,135.316 272.000 C 140.534 272.000,148.000 277.559,148.000 281.444 C 148.000 284.544,152.846 284.759,158.196 281.895 C 161.735 280.001,162.000 280.302,160.848 284.895 C 159.322 290.972,169.797 292.269,179.599 287.216 C 184.661 284.607,185.469 284.838,192.476 290.907 C 200.351 297.728,200.387 300.000,192.622 300.000 C 190.031 300.000,180.956 303.468,172.456 307.707 C 163.955 311.946,149.436 318.471,140.191 322.207 C 116.826 331.650,103.619 343.921,121.056 339.987 C 136.868 336.419,184.604 338.631,192.425 343.294 C 195.159 344.924,185.310 353.917,178.232 356.253 C 174.309 357.548,159.376 359.197,145.049 359.918 L 119.000 361.228 126.678 364.715 C 150.513 375.540,182.623 373.058,213.381 358.013 C 222.391 353.606,231.073 350.000,232.674 350.000 C 235.758 350.000,248.000 337.186,248.000 333.957 C 248.000 332.910,251.078 330.768,254.839 329.196 C 267.506 323.904,271.954 301.583,261.885 293.843 C 257.284 290.307,257.238 290.086,261.100 290.044 C 263.355 290.020,266.055 289.230,267.100 288.289 C 276.090 280.196,306.000 276.106,306.000 282.970 C 306.000 287.002,312.389 300.000,314.370 300.000 C 315.267 300.000,316.000 301.153,316.000 302.563 C 316.000 306.200,329.916 328.000,332.238 328.000 C 333.299 328.000,336.099 329.800,338.461 332.000 C 340.822 334.200,344.311 336.000,346.214 336.000 C 348.116 336.000,351.096 336.546,352.836 337.214 C 358.943 339.557,355.925 334.869,348.887 331.079 C 343.498 328.177,340.102 323.825,334.874 313.124 C 324.325 291.527,314.840 274.040,312.295 271.495 C 307.288 266.488,309.847 264.000,320.000 264.000 C 328.417 264.000,330.000 264.589,330.000 267.721 C 330.000 269.767,332.250 274.757,335.000 278.810 C 337.750 282.862,340.000 286.863,340.000 287.700 C 340.000 295.966,357.161 308.054,368.730 307.936 C 374.676 307.876,374.799 307.721,371.118 304.936 C 368.982 303.321,365.673 302.000,363.764 302.000 C 361.574 302.000,358.363 298.124,355.063 291.500 C 347.530 276.375,337.154 258.354,334.384 255.584 C 330.510 251.710,331.489 251.031,341.837 250.409 C 349.857 249.927,351.885 250.481,352.822 253.409 C 358.529 271.242,384.215 294.585,390.840 287.960 C 392.295 286.505,391.593 285.519,388.536 284.720 C 386.119 284.088,382.458 280.742,380.400 277.285 C 378.343 273.828,373.229 265.600,369.036 259.000 C 362.803 249.189,362.340 247.849,366.498 251.653 C 370.089 254.939,373.261 256.050,377.292 255.435 C 382.278 254.674,382.494 254.384,379.000 253.141 C 376.695 252.321,372.584 246.475,369.300 239.346 C 361.100 221.548,355.629 215.333,348.159 215.333 C 340.597 215.333,340.594 215.515,348.306 205.919 C 352.312 200.934,354.769 195.479,355.043 190.965 C 355.281 187.056,356.043 183.290,356.737 182.596 C 358.826 180.507,358.158 160.033,355.861 155.741 C 354.422 153.052,354.380 150.952,355.733 149.322 C 358.899 145.507,360.972 126.000,358.212 126.000 C 356.710 126.000,357.008 124.321,359.067 121.178 C 362.814 115.459,362.347 67.547,358.506 63.706 C 357.300 62.500,356.790 60.269,357.373 58.749 C 359.408 53.446,349.622 29.256,342.710 22.500 C 336.216 16.154,334.113 15.583,324.147 17.458 M258.402 216.072 C 255.874 218.122,252.654 219.358,251.247 218.818 C 249.841 218.278,246.249 218.765,243.266 219.899 L 237.843 221.961 241.421 217.110 C 243.966 213.660,247.311 212.077,253.000 211.629 C 263.224 210.825,264.043 211.499,258.402 216.072 M200.811 226.267 C 201.538 230.814,201.878 234.737,201.566 234.986 C 199.739 236.443,189.832 237.887,190.630 236.580 C 191.160 235.711,192.621 231.175,193.874 226.500 C 196.753 215.766,199.119 215.687,200.811 226.267 M354.693 233.500 C 355.331 235.425,357.331 239.250,359.137 242.000 C 361.269 245.245,360.366 244.718,356.565 240.500 C 353.166 236.727,348.672 233.941,345.854 233.859 C 341.354 233.729,341.292 233.593,345.000 232.000 C 351.175 229.346,353.433 229.696,354.693 233.500 M139.308 241.500 C 140.462 246.725,142.163 252.800,143.087 255.000 C 144.238 257.739,142.688 256.932,138.172 252.442 C 132.420 246.723,131.743 244.996,132.879 238.942 C 134.670 229.392,136.823 230.249,139.308 241.500"/></svg>
