<svg xmlns="http://www.w3.org/2000/svg" id="befunge" viewBox="0 0 32 32"><path fill="currentColor" d="M27.807 30H4.193A2.2 2.2 0 0 1 2 27.807V4.193A2.2 2.2 0 0 1 4.193 2h23.614A2.2 2.2 0 0 1 30 4.193v23.614A2.2 2.2 0 0 1 27.807 30M4.193 3.012a1.183 1.183 0 0 0-1.181 1.181v23.614a1.183 1.183 0 0 0 1.181 1.181h23.614a1.183 1.183 0 0 0 1.181-1.181V4.193a1.183 1.183 0 0 0-1.181-1.181"/><path fill="currentColor" d="m9.973 8.687-2.125 4.894H6.8L4.678 8.687h1.579l1.068 2.842 1.069-2.842m6.764 2.222h-2.15v2.15h-.753v-2.15h-2.15v-.753h2.15V8.007h.753v2.149h2.15m2.312-4.275c1.506 0 2.453.741 2.453 1.943 0 1.154-1.263 1.846-1.433 1.968-.838.6-.8.6-.8 1.749h-1.374c0-1.117-.109-1.737.668-2.356.607-.485 1.316-.656 1.316-1.239 0-.255-.292-.462-.838-.462a3.3 3.3 0 0 0-1.543.5l-.85-1.154a3.36 3.36 0 0 1 2.401-.949m-1.19 6.182h1.457v1.482H16.28m5.246-.352-.838 1.87-1.105.207.716-2.089m6.349.364v.755h-4.093v-.753M9.39 21.12v.413l-4 2.442v-.863l2.94-1.785-2.94-1.786v-.862m4.941 1.166h1.458v1.482h-1.458Zm0 3.012h1.458v1.482h-1.458m3.087-7.36h.753v8.2h-.753m3.143-7.702h.79l1.2 2.259h-.5l-1.089-1.676-1.105 1.676h-.5m7.105 4.858v.85H21.43v-.826a3.45 3.45 0 0 1-2.138-1.02l.851-.959a2.75 2.75 0 0 0 1.663.57c.584 0 .924-.218.924-.595 0-.437-.9-.741-1.507-1-1.165-.522-1.834-1.02-1.773-2.077a2.05 2.05 0 0 1 1.943-1.822v-.837l1.033-.11v.96a4.5 4.5 0 0 1 1.761.728l-.7 1.033a2.84 2.84 0 0 0-1.446-.4c-.546-.012-.935.206-.935.534 0 .413.51.535 1.093.778 1.348.571 2.211 1.105 2.211 2.186a2.14 2.14 0 0 1-1.948 2.007"/></svg>
