<svg xmlns="http://www.w3.org/2000/svg" id="civet" viewBox="0 0 1024 1024"><g transform="translate(75 1024) scale(0.1 -0.1)" fill="currentColor"><path d="M0 5120 l0 -5120 5120 0 5120 0 0 5120 0 5120 -5120 0 -5120 0 0 -5120zm6069 3874 c29 -11 73 -36 98 -56 25 -21 49 -38 54 -38 15 0 140 -153 164 -200 25 -50 55 -147 55 -178 0 -14 22 -36 68 -68 37 -26 82 -61 101 -77 39 -33 167 -117 179 -117 5 0 21 -14 38 -31 16 -17 48 -43 70 -58 42 -26 200 -174 285 -266 25 -28 58 -57 73 -65 16 -8 36 -31 45 -50 8 -19 37 -59 64 -89 26 -29 57 -71 67 -92 11 -21 29 -44 39 -51 11 -8 44 -50 74 -95 30 -44 71 -102 91 -129 20 -27 47 -71 60 -97 13 -26 31 -55 39 -65 24 -27 84 -136 97 -179 7 -21 22 -56 34 -78 20 -35 62 -138 101 -245 128 -351 171 -683 142 -1090 -8 -119 -20 -218 -28 -235 -12 -26 -14 4 -20 255 -4 157 -12 317 -18 355 -42 255 -126 565 -195 718 -14 32 -26 62 -26 66 0 19 -184 389 -215 432 -18 26 -40 60 -49 76 -8 17 -36 55 -62 84 -25 30 -59 77 -75 105 -16 28 -52 77 -79 108 -28 32 -50 61 -50 65 0 5 -25 34 -55 64 -30 30 -55 62 -55 70 0 9 -19 31 -41 49 -23 18 -61 51 -85 73 -23 22 -59 53 -79 69 -20 16 -41 39 -45 51 -10 27 -116 120 -190 167 -30 19 -64 45 -75 58 -11 12 -38 34 -60 48 -22 14 -62 43 -89 66 -31 26 -51 36 -54 28 -2 -6 -10 -12 -17 -12 -8 0 -17 -15 -20 -37 -25 -154 -51 -252 -84 -314 -40 -76 -125 -179 -147 -179 -8 0 -14 -4 -14 -10 0 -12 -37 -13 -44 -1 -3 4 16 26 43 47 27 22 59 59 71 84 74 149 115 339 84 386 -28 41 -42 30 -49 -41 -4 -36 -12 -68 -17 -71 -5 -3 -21 4 -34 17 -21 20 -25 31 -23 76 2 37 -2 58 -14 71 -9 10 -17 26 -17 35 0 9 -4 19 -10 22 -5 3 -10 15 -10 25 0 22 -20 70 -29 70 -11 0 -48 -75 -44 -88 3 -7 16 -17 29 -22 27 -11 32 -49 12 -97 -10 -25 -12 -26 -16 -8 -6 28 -43 67 -59 61 -7 -3 -19 4 -27 16 -12 16 -14 40 -9 105 3 45 1 83 -3 83 -30 -1 -45 -29 -93 -178 -25 -79 -47 -128 -66 -147 -15 -17 -39 -47 -52 -68 -13 -22 -27 -37 -29 -34 -3 2 0 26 6 53 11 46 10 50 -11 64 -51 35 -89 79 -89 104 0 14 -7 40 -16 59 -14 28 -15 51 -7 153 5 65 11 126 14 134 3 11 -6 15 -36 17 -175 11 -320 36 -495 85 -139 38 -340 49 -481 25 -52 -9 -122 -18 -156 -21 -35 -3 -79 -12 -98 -20 -52 -22 -43 -4 18 34 83 54 90 57 203 85 104 26 116 27 294 21 102 -3 214 -9 250 -15 36 -5 103 -14 150 -21 106 -13 244 -46 290 -68 22 -11 35 -25 36 -37 3 -55 3 -56 23 -46 10 6 24 32 31 58 24 87 96 170 171 199 44 17 131 11 198 -12zm-2407 -595 c9 -5 25 -9 35 -9 32 0 44 -20 27 -45 -11 -17 -29 -25 -72 -30 -74 -9 -85 -16 -107 -65 l-19 -42 25 -19 c13 -10 29 -19 35 -19 6 0 42 -33 81 -73 81 -83 130 -176 143 -272 4 -33 11 -69 15 -80 6 -16 5 -18 -5 -8 -7 6 -17 20 -24 31 -67 113 -155 194 -248 228 -60 22 -247 25 -259 4 -7 -13 -45 -103 -69 -165 -67 -170 -86 -368 -55 -560 17 -101 19 -165 7 -165 -9 0 -72 75 -72 85 0 4 -14 39 -32 78 -94 214 -122 361 -98 519 17 117 69 291 117 392 13 28 23 55 23 61 0 13 124 126 160 145 13 7 49 16 80 20 66 9 288 1 312 -11zm-1048 -241 c-20 -34 -190 -214 -297 -317 -31 -30 -57 -60 -57 -67 0 -6 -26 -41 -57 -77 -32 -35 -71 -88 -88 -116 -16 -28 -39 -58 -51 -65 -12 -8 -31 -36 -44 -63 -12 -26 -33 -61 -47 -77 -13 -16 -47 -72 -74 -125 -27 -53 -58 -112 -69 -132 -46 -81 -154 -427 -180 -569 -29 -164 -72 -420 -95 -565 -35 -225 -41 -251 -87 -380 -134 -380 -157 -488 -165 -775 -5 -161 -3 -203 17 -320 52 -313 137 -596 256 -845 23 -49 46 -101 50 -115 8 -31 103 -188 197 -330 72 -107 99 -144 175 -231 23 -27 42 -53 42 -58 0 -9 114 -126 157 -159 16 -13 44 -45 62 -73 19 -27 37 -49 41 -49 9 0 158 -128 230 -198 61 -59 45 -59 -41 0 -31 21 -61 38 -67 38 -6 0 -23 14 -39 30 -15 17 -31 30 -35 30 -9 0 -167 119 -212 160 -84 77 -330 327 -354 360 -15 19 -47 60 -73 90 -91 108 -211 282 -252 364 -16 33 -49 90 -72 126 -52 80 -175 337 -175 366 0 8 -35 98 -66 171 -8 17 -14 35 -14 41 0 5 -9 29 -19 53 -10 24 -27 78 -36 119 -9 41 -23 100 -31 130 -39 152 -57 232 -65 300 -5 41 -14 109 -19 150 -6 41 -13 176 -16 300 -6 196 -4 249 15 410 13 102 31 212 42 244 10 33 19 68 19 79 0 10 9 49 19 85 11 37 32 112 47 167 15 55 41 132 59 170 53 114 71 158 79 190 10 39 102 231 115 239 5 4 29 41 52 84 51 91 147 235 186 278 15 16 41 48 57 70 114 152 419 452 596 585 52 40 118 91 145 114 28 23 63 50 80 61 16 10 58 40 93 67 65 49 78 56 66 35zm3163 -244 c-7 -36 10 -50 103 -84 47 -17 94 -39 105 -49 41 -36 123 -81 147 -81 14 0 31 -7 38 -15 7 -8 17 -15 22 -15 5 0 25 -12 43 -26 19 -14 40 -27 47 -28 35 -5 113 -63 159 -119 93 -112 115 -133 154 -148 26 -9 54 -33 82 -69 24 -30 61 -76 83 -101 21 -25 47 -66 56 -90 10 -24 23 -53 31 -64 7 -11 13 -29 13 -41 0 -11 11 -42 25 -68 14 -26 25 -56 25 -67 0 -11 5 -29 11 -40 6 -11 15 -63 20 -116 18 -172 -16 -390 -92 -593 -26 -69 -100 -191 -153 -251 -66 -74 -100 -120 -145 -191 -23 -37 -60 -82 -83 -99 -22 -18 -51 -50 -65 -72 -14 -23 -47 -62 -73 -87 -26 -26 -57 -64 -68 -86 -11 -21 -43 -60 -71 -87 -28 -26 -51 -53 -51 -60 0 -27 -228 -237 -258 -237 -7 0 -40 -18 -72 -40 -32 -22 -62 -40 -65 -40 -3 0 -32 -17 -63 -37 -87 -58 -123 -77 -282 -152 -38 -18 -41 -21 -15 -17 17 2 50 9 75 16 24 6 83 15 130 21 47 5 114 13 150 17 83 11 114 3 118 -29 2 -13 8 -29 13 -35 13 -15 -21 -77 -69 -127 -31 -32 -107 -90 -173 -132 -9 -5 -36 -23 -60 -39 -24 -17 -82 -50 -129 -74 -95 -50 -181 -65 -223 -38 -12 8 -40 18 -62 21 -22 4 -80 22 -130 40 -99 36 -249 70 -265 60 -6 -4 -19 -3 -28 1 -9 4 -35 12 -57 18 -33 9 -40 15 -40 36 0 18 -6 26 -23 28 -12 2 -22 7 -22 11 0 4 -16 8 -36 9 -20 2 -44 7 -53 11 -9 5 -45 12 -80 15 -69 8 -96 23 -144 82 -23 28 -26 37 -17 54 6 11 19 20 28 20 24 0 72 -51 72 -76 0 -22 41 -39 129 -55 60 -11 71 -7 53 21 -7 11 -12 24 -12 30 0 14 51 12 76 -3 74 -43 126 -67 146 -67 29 0 131 40 223 87 86 44 245 161 245 180 0 20 -34 30 -140 38 -91 7 -202 27 -245 43 -82 33 -180 90 -232 137 -62 55 -62 55 -84 151 -17 77 -20 109 -14 167 4 40 8 88 10 107 3 28 15 45 72 96 129 117 198 169 274 207 68 35 83 38 150 38 130 -1 249 -70 249 -146 0 -41 87 -111 173 -141 26 -9 33 -17 35 -42 3 -25 -1 -32 -14 -32 -24 0 -180 -119 -193 -147 -6 -12 -13 -55 -17 -95 -5 -56 -3 -82 10 -112 9 -21 16 -47 16 -57 0 -26 90 -66 170 -73 98 -10 226 8 322 45 74 29 148 79 148 101 0 4 14 29 30 55 17 26 28 53 25 60 -13 36 -98 154 -122 171 -40 29 -99 42 -175 40 -37 -1 -69 0 -72 2 -9 10 32 112 56 138 14 15 42 61 62 102 50 101 83 127 190 147 l85 17 38 -27 c24 -17 49 -26 68 -24 24 2 30 -2 30 -18 1 -33 17 -50 74 -80 40 -22 66 -29 106 -29 29 1 59 5 66 10 8 5 27 9 42 10 44 3 162 133 215 237 23 45 42 88 42 96 0 7 13 39 29 70 16 31 32 67 34 81 3 14 12 45 20 70 52 161 60 207 49 293 -21 161 -89 318 -152 352 -159 85 -294 108 -389 65 -24 -11 -49 -20 -56 -20 -7 0 -38 -24 -68 -52 -61 -57 -100 -131 -132 -248 -9 -36 -27 -90 -40 -120 -12 -30 -25 -63 -29 -74 -5 -14 -9 -16 -19 -7 -11 8 -19 5 -36 -13 -17 -18 -21 -33 -20 -77 3 -62 -9 -136 -21 -144 -5 -3 -21 -45 -35 -93 -39 -128 -48 -156 -57 -166 -5 -6 -8 -4 -8 4 0 8 -11 23 -26 35 -38 30 -71 159 -85 333 -14 178 -7 478 15 592 9 47 21 114 26 150 5 36 14 94 20 130 5 36 17 202 26 370 18 348 24 420 40 468 7 23 26 1 21 -24zm-1740 -164 c76 -74 135 -124 166 -138 35 -17 52 -32 62 -56 19 -45 68 -84 168 -135 139 -69 280 -218 327 -345 12 -30 28 -60 36 -67 8 -7 35 -52 59 -101 24 -48 53 -104 65 -123 12 -19 35 -72 50 -116 16 -45 47 -111 68 -148 50 -84 54 -95 63 -161 4 -30 21 -104 39 -165 17 -60 34 -141 37 -180 3 -38 11 -77 18 -85 7 -8 22 -37 34 -64 12 -27 37 -68 56 -91 38 -47 35 -69 -4 -31 -14 14 -44 31 -66 38 -38 12 -42 19 -102 141 -35 70 -70 130 -78 133 -8 4 -22 21 -31 40 -9 19 -21 31 -27 27 -5 -3 -7 -2 -4 4 3 5 -12 28 -33 51 -22 23 -40 48 -40 56 0 15 -26 30 -50 27 -13 -1 -33 23 -106 126 -6 9 -16 13 -23 9 -8 -6 -3 -23 18 -62 16 -30 26 -56 22 -59 -4 -2 -28 16 -52 41 -51 53 -89 74 -179 99 -71 19 -170 68 -182 90 -5 7 -25 16 -46 20 -24 4 -58 22 -87 46 -55 45 -76 49 -99 14 -19 -29 -53 -32 -115 -10 -44 15 -47 14 -30 -17 18 -34 -4 -44 -40 -19 -23 16 -31 19 -31 8 0 -7 -12 -24 -26 -38 -21 -20 -25 -31 -23 -74 3 -44 0 -51 -21 -62 -21 -11 -26 -8 -56 31 -17 23 -33 50 -35 60 -5 22 -35 44 -45 33 -4 -4 -3 -17 3 -30 20 -41 22 -55 10 -86 -9 -25 -8 -39 11 -83 12 -29 22 -57 22 -61 0 -5 11 -25 25 -45 35 -52 32 -68 -17 -92 -50 -24 -68 -25 -68 -5 0 21 -30 31 -41 14 -13 -21 -11 -67 5 -92 20 -30 24 -69 8 -75 -7 -2 -16 5 -19 17 -5 20 -23 30 -23 14 0 -17 27 -80 48 -113 12 -19 22 -40 22 -46 0 -6 14 -17 30 -24 17 -7 30 -17 30 -22 0 -15 43 -47 62 -48 9 0 32 -18 49 -40 18 -22 52 -52 76 -65 24 -14 43 -29 43 -34 0 -4 17 -20 37 -34 l37 -26 -25 -9 c-19 -8 -30 -5 -52 14 -17 14 -37 22 -50 20 -12 -3 -24 -5 -26 -5 -8 -2 48 -41 58 -41 6 0 26 -9 46 -20 20 -11 44 -20 53 -20 10 0 22 -4 28 -10 12 -12 215 -40 288 -40 71 0 80 -8 72 -61 -11 -72 -14 -179 -5 -185 5 -3 9 -22 9 -43 0 -26 7 -46 23 -63 30 -32 59 -96 47 -103 -5 -3 -17 -2 -27 3 -10 6 -40 15 -68 21 -27 7 -100 36 -161 66 -62 30 -117 55 -123 55 -16 0 -110 48 -146 75 -16 12 -70 44 -120 71 -49 26 -105 62 -125 79 -43 38 -85 65 -102 65 -7 0 -26 18 -42 40 -17 22 -49 49 -73 61 -24 11 -45 25 -48 30 -3 4 -40 36 -81 70 -54 44 -78 58 -87 51 -8 -7 -24 -2 -52 19 -22 15 -51 36 -65 46 -67 47 -137 115 -191 186 -32 44 -59 84 -59 90 0 7 32 -22 71 -63 44 -46 73 -70 76 -62 3 7 -13 32 -35 55 -56 62 -88 121 -112 212 -13 44 -26 87 -30 96 -5 9 -12 34 -16 55 -3 22 -11 44 -16 51 -6 7 -5 19 3 31 10 16 8 24 -9 48 -14 19 -20 37 -16 52 7 24 20 29 27 10 11 -27 26 17 20 61 -8 76 57 221 94 207 10 -4 83 64 216 199 111 113 206 205 210 205 4 0 36 19 70 42 34 24 82 54 107 67 25 13 77 47 117 75 39 28 85 59 102 68 17 9 40 32 50 49 44 72 76 288 52 351 -17 46 -22 80 -12 76 6 -1 63 -55 128 -118zm2262 -1495 c32 -16 41 -33 41 -79 0 -42 -75 -126 -113 -126 -45 0 -74 18 -100 61 -24 40 -25 45 -11 78 22 55 57 81 110 81 25 0 58 -7 73 -15zm-1748 -152 c63 -60 55 -128 -23 -186 -19 -14 -43 -20 -83 -20 -47 0 -60 4 -85 28 -42 41 -54 74 -41 123 17 63 59 92 132 92 55 0 63 -3 100 -37zm2773 -55 c21 -30 20 -71 -1 -91 -10 -8 -36 -18 -58 -22 -54 -10 -170 -44 -224 -67 -24 -10 -46 -16 -49 -13 -9 9 83 96 137 128 165 99 170 101 195 65zm-73 -359 l21 -21 -22 -23 c-49 -52 -97 -76 -181 -91 -102 -17 -140 -32 -215 -81 -31 -21 -81 -54 -110 -73 -33 -22 -67 -58 -94 -97 -23 -35 -47 -66 -55 -70 -7 -5 -27 -32 -44 -62 -29 -49 -60 -91 -152 -204 -17 -21 -34 -36 -37 -32 -3 3 6 18 20 33 14 15 29 38 33 52 4 14 26 50 49 80 23 30 60 82 82 115 53 82 116 160 175 218 27 26 54 58 59 72 5 13 26 35 47 49 21 13 56 42 78 65 21 23 46 41 55 41 8 0 38 12 65 25 69 34 194 36 226 4zm1240 -151 c10 -54 14 -160 14 -408 0 -294 -3 -355 -23 -500 -40 -292 -61 -375 -152 -605 -67 -170 -75 -187 -101 -211 -11 -10 -30 -37 -41 -59 -12 -22 -39 -58 -62 -81 -73 -73 -162 -168 -189 -202 -35 -43 -138 -132 -154 -132 -18 0 -16 13 5 41 11 13 27 46 37 72 10 26 32 69 48 95 17 26 55 94 85 152 29 58 62 116 72 130 9 14 21 36 25 50 4 14 22 54 40 90 40 77 115 270 115 293 0 9 8 43 19 74 21 66 59 248 92 438 12 72 28 137 35 145 7 8 17 38 23 65 6 28 17 82 25 120 25 113 45 265 52 394 4 66 10 118 14 116 4 -2 13 -37 21 -77zm-2816 -242 c35 -15 50 -45 43 -83 -2 -11 -27 -29 -62 -46 -59 -28 -60 -28 -98 -11 -45 20 -83 63 -70 76 12 12 134 77 145 78 4 0 23 -6 42 -14zm1934 -29 c31 -20 64 -46 74 -60 17 -22 18 -27 3 -54 -23 -45 -65 -58 -181 -57 -71 0 -110 5 -135 17 -40 19 -127 42 -194 52 -25 4 -46 11 -46 15 0 12 69 64 117 89 66 33 110 41 212 36 86 -3 98 -6 150 -38zm-551 -104 c3 -18 -14 -26 -135 -69 -152 -53 -333 -145 -405 -205 -26 -21 -54 -39 -64 -39 -17 0 115 106 146 117 8 4 40 21 71 40 76 46 362 183 374 179 6 -1 11 -12 13 -23zm-112 -594 c31 -11 93 -67 110 -100 31 -62 9 -153 -53 -211 -15 -14 -59 -43 -98 -63 -38 -21 -74 -41 -80 -45 -5 -4 -32 -15 -58 -25 -59 -22 -72 -41 -86 -126 -23 -135 -9 -165 58 -134 23 10 48 14 60 10 27 -8 51 10 51 39 0 18 14 29 68 54 37 17 90 45 117 61 28 16 86 48 131 71 44 22 108 58 141 80 33 21 72 42 87 46 14 3 26 10 26 15 0 5 5 9 11 9 6 0 39 17 73 37 33 21 86 50 116 66 68 34 178 111 224 156 32 31 35 32 44 14 7 -13 7 -43 1 -88 -5 -39 -14 -108 -19 -155 -31 -262 -67 -456 -122 -645 -31 -104 -48 -171 -74 -290 -8 -38 -23 -99 -33 -135 -10 -36 -19 -84 -20 -107 -1 -23 -8 -55 -16 -70 -8 -15 -15 -37 -15 -48 -1 -11 -7 -31 -15 -45 -8 -14 -14 -36 -15 -49 0 -31 -65 -116 -110 -144 -19 -12 -64 -48 -99 -80 -36 -32 -85 -69 -110 -82 -25 -14 -77 -47 -116 -75 -38 -27 -94 -64 -123 -82 -30 -17 -56 -37 -59 -44 -2 -7 -22 -22 -44 -33 -22 -12 -64 -46 -94 -76 -31 -30 -62 -55 -70 -55 -9 0 -26 -23 -39 -52 -26 -59 -48 -82 -118 -121 -25 -15 -64 -47 -86 -72 -36 -41 -44 -45 -106 -54 -36 -5 -80 -17 -97 -25 -18 -9 -36 -16 -40 -16 -4 0 -19 -10 -33 -23 -13 -12 -37 -29 -53 -37 -15 -8 -55 -37 -88 -65 -33 -28 -78 -64 -100 -80 -22 -16 -70 -55 -107 -87 -62 -55 -70 -59 -103 -52 -19 3 -52 15 -72 25 -21 11 -43 19 -49 19 -7 0 -38 13 -70 29 -33 15 -84 36 -114 46 -52 17 -68 25 -165 80 -22 12 -94 46 -160 75 -131 58 -228 103 -436 204 -75 36 -141 66 -146 66 -5 0 -57 24 -115 54 -59 30 -138 64 -176 75 -58 18 -163 66 -257 118 -38 21 -103 52 -178 83 -41 17 -83 40 -92 50 -10 11 -26 20 -35 20 -23 0 -40 20 -40 46 0 15 15 35 42 56 23 18 57 50 77 70 29 29 46 38 86 43 28 4 77 18 110 30 33 13 71 26 85 30 14 4 46 18 72 31 26 13 58 24 71 24 13 0 27 3 31 7 8 9 77 33 94 33 14 0 63 21 187 80 44 21 103 45 130 55 28 9 64 23 80 30 17 8 70 26 119 40 80 24 155 56 267 116 20 10 44 19 54 19 9 0 49 16 88 37 40 20 108 48 152 63 78 27 81 27 106 9 28 -19 37 -42 90 -211 26 -83 38 -108 54 -112 11 -2 72 -12 135 -21 72 -10 135 -25 168 -41 29 -13 61 -24 72 -24 35 0 144 -33 167 -50 29 -23 135 -24 177 -3 63 31 75 67 60 177 -9 63 -28 72 -79 37 -73 -49 -162 -62 -250 -36 -124 38 -339 54 -360 27 -6 -7 -29 -16 -51 -19 l-41 -5 -6 112 -6 112 -40 35 c-23 19 -62 46 -89 60 -60 31 -143 93 -207 154 -35 33 -67 52 -109 65 -40 13 -61 25 -66 39 -4 12 -23 34 -42 51 -18 16 -44 44 -57 62 -13 18 -25 31 -28 29 -2 -3 8 -41 22 -85 23 -71 25 -86 15 -124 -7 -24 -22 -54 -34 -68 -13 -14 -33 -40 -45 -57 -16 -23 -30 -33 -49 -33 -15 0 -40 -7 -56 -15 -52 -27 -109 -39 -186 -39 -113 1 -154 28 -185 122 -27 83 -17 111 78 215 69 75 94 96 157 126 l75 36 161 -1 161 0 12 59 c9 44 22 69 50 100 20 23 52 61 69 84 45 58 130 97 191 88 24 -4 54 -11 66 -17 20 -9 31 -5 69 22 24 18 47 39 50 46 3 7 27 23 53 35 26 12 73 33 103 47 94 43 280 65 505 59 215 -6 264 -15 319 -59 23 -19 41 -27 45 -20 3 6 19 14 34 17 15 4 26 10 23 13 -3 2 4 16 14 30 11 13 20 32 20 41 0 9 7 26 15 38 8 11 14 36 14 54 -1 19 6 48 15 64 9 17 16 35 16 42 0 27 86 34 146 12z"/><path d="M4242 6624 c-7 -3 -16 -13 -21 -22 -8 -14 -3 -17 26 -20 52 -3 193 -68 233 -107 19 -18 54 -38 78 -45 24 -6 50 -14 58 -17 21 -8 17 24 -7 58 -22 31 -95 81 -176 122 -46 24 -163 42 -191 31z"/><path d="M6180 4160 c-95 -8 -267 -36 -320 -52 -150 -45 -144 -110 15 -159 94 -29 253 -22 404 16 111 28 129 37 204 99 39 32 46 41 35 51 -12 12 -220 57 -243 54 -5 -1 -48 -5 -95 -9z"/><path d="M5335 4024 c-40 -21 -83 -62 -103 -99 -26 -49 -22 -178 7 -243 34 -76 84 -111 251 -177 36 -15 71 -29 79 -32 23 -10 6 142 -34 302 -19 77 -35 152 -35 167 0 15 -13 41 -32 62 -36 41 -80 48 -133 20z"/><path d="M4995 2920 c-10 -16 3 -28 38 -35 17 -4 70 -25 117 -47 61 -29 101 -41 141 -43 61 -3 103 -20 134 -55 28 -31 68 -50 85 -40 7 4 37 6 65 3 37 -4 55 -2 60 7 6 10 4 12 -8 7 -10 -3 -17 -2 -17 3 0 6 -13 8 -30 5 -22 -4 -30 -1 -30 9 0 8 -17 20 -37 27 -21 6 -47 18 -58 25 -11 8 -25 14 -33 14 -7 0 -32 9 -55 20 -23 11 -60 23 -82 27 -22 3 -74 21 -115 40 -76 35 -163 52 -175 33z"/><path d="M4802 2810 c-46 -21 -51 -36 -23 -71 17 -21 28 -24 85 -24 48 0 70 -4 82 -17 13 -13 15 -20 6 -31 -13 -15 -6 -27 14 -27 7 0 25 -11 40 -25 19 -17 38 -25 64 -25 21 0 43 -7 50 -15 9 -11 16 -12 33 -3 12 6 29 14 37 18 21 10 25 40 5 40 -8 0 -18 7 -21 15 -7 17 -49 20 -59 5 -3 -5 -21 -10 -39 -10 -25 0 -35 5 -39 20 -3 11 -13 23 -24 27 -10 3 -27 16 -39 27 -11 12 -36 35 -55 51 -19 17 -44 38 -55 47 -18 16 -22 16 -62 -2z"/><path d="M5241 2601 c-16 -11 -6 -31 16 -31 26 0 42 -32 43 -86 0 -49 1 -52 28 -52 28 0 126 73 117 88 -3 4 -17 11 -32 15 -41 10 -95 37 -115 57 -20 20 -36 22 -57 9"/></g></svg>
