<svg xmlns="http://www.w3.org/2000/svg" id="civet" viewBox="0 0 403 403"><path fill="currentColor" d="M183.594 1.224 C 98.671 8.136 26.885 68.929 6.301 151.367 C -25.255 277.751 69.733 399.609 199.805 399.609 C 329.876 399.609 424.864 277.751 393.308 151.367 C 369.810 57.256 280.527 -6.665 183.594 1.224 M236.665 48.686 C 237.797 49.087 239.521 50.073 240.498 50.879 C 241.474 51.685 242.424 52.344 242.609 52.344 C 244.402 52.344 249.983 61.265 250.818 65.466 C 251.317 67.978 251.353 68.029 253.884 69.815 C 255.293 70.809 257.044 72.138 257.776 72.767 C 259.285 74.065 264.299 77.344 264.775 77.344 C 264.947 77.344 265.604 77.892 266.236 78.562 C 266.867 79.232 268.113 80.243 269.005 80.808 C 270.650 81.851 276.846 87.661 280.105 91.217 C 281.087 92.288 282.384 93.426 282.988 93.746 C 283.592 94.065 284.368 94.944 284.712 95.699 C 285.057 96.453 286.185 98.016 287.219 99.173 C 288.253 100.329 289.440 101.943 289.857 102.760 C 290.274 103.577 290.957 104.485 291.376 104.779 C 291.795 105.072 293.096 106.728 294.269 108.460 C 295.441 110.191 297.037 112.467 297.815 113.519 C 298.593 114.570 299.646 116.272 300.154 117.301 C 300.663 118.330 301.349 119.472 301.680 119.840 C 302.624 120.889 304.943 125.159 305.469 126.817 C 305.731 127.644 306.336 129.023 306.814 129.883 C 307.576 131.257 309.224 135.261 310.753 139.453 C 315.759 153.187 317.449 166.205 316.279 182.031 C 315.282 195.522 314.698 195.400 314.400 181.641 C 314.263 175.303 313.951 168.887 313.706 167.383 C 312.079 157.405 308.802 145.327 306.098 139.344 C 305.537 138.103 305.078 136.934 305.078 136.746 C 305.078 136.010 297.887 121.574 296.672 119.871 C 295.962 118.876 295.109 117.537 294.777 116.895 C 294.445 116.253 293.358 114.781 292.361 113.625 C 291.365 112.469 290.035 110.624 289.407 109.524 C 288.778 108.424 287.389 106.524 286.320 105.302 C 285.250 104.080 284.375 102.945 284.375 102.781 C 284.375 102.617 283.408 101.477 282.227 100.247 C 281.045 99.018 280.078 97.774 280.078 97.484 C 280.078 97.193 279.419 96.409 278.613 95.741 C 277.808 95.072 276.357 93.819 275.391 92.955 C 274.424 92.092 272.886 90.754 271.973 89.983 C 271.060 89.212 270.313 88.365 270.313 88.101 C 270.313 87.430 265.726 83.375 263.007 81.642 C 261.761 80.847 260.391 79.798 259.961 79.310 C 259.531 78.822 258.301 77.843 257.227 77.134 C 256.152 76.426 254.263 75.026 253.027 74.024 C 251.792 73.022 250.781 72.374 250.781 72.583 C 250.781 72.792 251.045 73.064 251.367 73.188 C 252.118 73.476 252.130 74.219 251.385 74.219 C 251.031 74.219 250.728 74.770 250.581 75.684 C 248.995 85.521 245.348 93.509 241.834 94.838 C 241.491 94.967 240.973 95.309 240.681 95.597 C 240.257 96.016 240.035 96.024 239.567 95.635 C 239.058 95.213 239.101 95.056 239.901 94.416 C 242.453 92.377 242.929 91.862 243.732 90.280 C 246.637 84.552 248.193 77.178 246.955 75.004 C 246.080 73.466 245.582 73.699 245.235 75.812 C 245.079 76.762 244.847 78.116 244.721 78.822 L 244.491 80.104 243.340 79.212 C 242.322 78.423 242.194 78.095 242.237 76.367 C 242.312 73.273 242.221 72.656 241.687 72.656 C 241.411 72.656 240.946 71.821 240.653 70.801 C 240.062 68.744 238.716 65.934 238.689 66.699 C 238.680 66.968 238.715 67.231 238.768 67.285 C 238.821 67.339 238.491 67.910 238.035 68.555 C 237.052 69.946 237.379 71.484 238.659 71.484 C 239.527 71.484 239.657 72.348 239.202 75.098 C 238.937 76.705 238.281 77.101 238.281 75.654 C 238.281 74.488 236.670 72.940 235.803 73.273 C 235.215 73.499 234.963 73.098 235.110 72.168 C 235.135 72.007 234.989 71.875 234.784 71.875 C 234.560 71.875 234.500 70.481 234.634 68.359 C 234.856 64.833 234.744 64.418 233.823 65.340 C 232.969 66.193 232.436 67.444 230.900 72.189 C 229.906 75.260 229.051 77.175 228.329 77.946 C 227.734 78.582 226.816 79.777 226.290 80.603 C 225.094 82.482 224.854 82.276 225.402 79.837 C 225.814 78.003 225.791 77.900 224.798 77.148 C 222.416 75.348 221.484 74.252 221.484 73.253 C 221.484 72.689 221.211 71.698 220.877 71.052 C 220.200 69.744 220.428 61.438 221.180 60.009 C 221.458 59.479 221.418 59.179 221.036 58.928 C 220.603 58.642 220.622 58.512 221.138 58.207 C 221.484 58.002 221.997 56.994 222.277 55.968 C 224.103 49.286 229.969 46.318 236.665 48.686 M201.367 51.501 C 202.656 51.707 205.293 52.074 207.227 52.316 C 216.410 53.467 220.117 54.936 220.117 57.423 L 220.117 59.175 218.555 59.037 C 211.165 58.385 207.026 57.647 200.391 55.798 C 194.965 54.287 186.724 53.864 181.610 54.833 C 179.767 55.183 177.394 55.474 176.337 55.482 C 175.279 55.489 173.491 55.813 172.363 56.203 C 171.235 56.592 170.313 56.789 170.313 56.639 C 170.313 56.363 173.599 54.163 175.391 53.240 C 179.663 51.038 192.921 50.150 201.367 51.501 M235.788 66.464 C 235.241 70.043 235.185 71.066 235.526 71.276 C 236.191 71.687 236.622 70.169 236.505 67.837 C 236.371 65.178 236.072 64.605 235.788 66.464 M137.955 71.437 C 139.172 71.589 140.490 71.598 140.884 71.457 C 141.279 71.316 141.948 71.440 142.372 71.733 C 143.336 72.399 144.529 72.424 144.537 71.777 C 144.540 71.509 144.772 71.729 145.051 72.266 C 145.895 73.885 144.972 74.855 142.268 75.192 C 139.370 75.553 138.955 75.806 138.079 77.749 L 137.347 79.373 138.302 80.108 C 138.828 80.512 139.438 80.846 139.659 80.851 C 141.972 80.901 147.902 90.020 148.440 94.353 C 148.602 95.662 149.032 97.309 149.396 98.012 C 149.760 98.716 149.957 99.392 149.833 99.515 C 149.564 99.785 149.609 99.847 148.494 97.656 C 145.017 90.825 139.983 87.223 133.471 86.905 C 131.793 86.823 130.096 86.653 129.702 86.528 C 128.945 86.288 127.344 87.905 127.344 88.909 C 127.344 89.197 126.966 90.272 126.505 91.298 C 124.875 94.927 124.359 96.508 123.446 100.679 C 122.495 105.025 122.420 110.782 123.248 115.820 C 123.565 117.754 123.821 120.127 123.816 121.094 L 123.806 122.852 122.255 121.108 C 121.401 120.149 120.703 119.212 120.703 119.025 C 120.703 118.838 120.149 117.426 119.472 115.886 C 113.892 103.199 114.092 93.199 120.183 80.298 C 120.684 79.237 121.094 78.199 121.094 77.991 C 121.094 77.454 125.746 73.149 127.148 72.388 C 129.102 71.329 133.792 70.916 137.955 71.437 M101.878 81.183 C 100.492 83.123 94.357 89.659 90.108 93.721 C 88.888 94.887 87.891 96.056 87.891 96.319 C 87.891 96.581 86.880 97.935 85.645 99.326 C 84.409 100.717 82.871 102.758 82.227 103.861 C 81.582 104.965 80.684 106.117 80.232 106.422 C 79.779 106.726 79.011 107.823 78.524 108.859 C 78.037 109.895 77.208 111.254 76.682 111.880 C 76.155 112.506 74.855 114.703 73.793 116.763 C 72.731 118.823 71.508 121.144 71.076 121.921 C 69.313 125.089 65.061 138.587 64.075 144.141 C 62.935 150.566 61.256 160.555 60.364 166.211 C 58.981 174.986 58.746 176.013 56.965 181.055 C 51.715 195.913 50.817 200.121 50.498 211.359 C 50.338 216.980 50.432 219.446 50.916 222.296 C 51.260 224.320 51.650 226.680 51.782 227.539 C 52.996 235.385 57.188 248.493 61.152 256.836 C 62.071 258.770 62.951 260.791 63.108 261.328 C 63.456 262.520 67.145 268.677 70.832 274.219 C 73.616 278.404 74.707 279.852 77.637 283.255 C 78.550 284.315 79.297 285.322 79.297 285.493 C 79.297 285.875 83.806 290.480 85.397 291.724 C 86.033 292.221 87.145 293.496 87.869 294.556 C 88.593 295.617 89.308 296.484 89.458 296.484 C 89.799 296.484 95.818 301.637 97.785 303.612 C 98.586 304.417 99.682 305.363 100.219 305.716 C 100.757 306.068 101.124 306.429 101.035 306.517 C 100.853 306.699 98.163 305.262 97.266 304.503 C 96.943 304.231 95.804 303.526 94.733 302.937 C 93.663 302.349 92.554 301.535 92.270 301.129 C 91.985 300.723 91.603 300.391 91.419 300.391 C 90.983 300.391 84.965 295.894 83.054 294.141 C 79.778 291.134 70.151 281.362 69.201 280.078 C 68.644 279.326 67.375 277.744 66.381 276.563 C 62.816 272.327 58.124 265.553 56.541 262.358 C 55.888 261.039 54.607 258.818 53.695 257.422 C 51.662 254.310 46.872 244.260 46.876 243.115 C 46.877 242.797 45.513 239.298 44.284 236.464 C 43.990 235.787 43.750 235.063 43.750 234.854 C 43.750 234.645 43.416 233.705 43.007 232.764 C 42.598 231.824 41.972 229.736 41.617 228.125 C 41.261 226.514 40.717 224.229 40.408 223.047 C 38.859 217.119 38.178 213.995 37.856 211.328 C 37.661 209.717 37.323 207.080 37.105 205.469 C 35.693 195.036 36.559 174.809 38.702 168.186 C 39.115 166.909 39.453 165.530 39.453 165.122 C 39.453 164.713 39.791 163.209 40.203 161.779 C 40.615 160.350 41.431 157.422 42.016 155.273 C 42.601 153.125 43.648 150.137 44.342 148.633 C 46.395 144.185 47.116 142.451 47.422 141.228 C 47.828 139.608 51.107 132.778 51.932 131.836 C 52.308 131.406 53.193 130.000 53.898 128.711 C 55.568 125.658 59.833 119.273 61.218 117.752 C 61.816 117.095 62.821 115.865 63.452 115.017 C 67.878 109.073 79.793 97.357 86.719 92.139 C 88.760 90.601 91.309 88.605 92.383 87.704 C 93.457 86.803 94.861 85.729 95.504 85.318 C 96.146 84.907 97.903 83.647 99.408 82.520 C 102.441 80.247 102.613 80.154 101.878 81.183 M153.613 89.258 C 153.469 89.834 152.242 89.733 152.040 89.127 C 151.921 88.770 152.156 88.647 152.789 88.737 C 153.296 88.808 153.667 89.043 153.613 89.258 M225.131 90.748 C 224.868 92.371 225.175 92.621 229.312 94.145 C 231.130 94.815 232.969 95.672 233.398 96.050 C 235.009 97.465 238.189 99.219 239.147 99.219 C 239.692 99.219 240.358 99.482 240.625 99.805 C 240.892 100.127 241.260 100.391 241.443 100.391 C 241.826 100.391 245.389 102.766 245.752 103.264 C 246.107 103.751 246.582 102.818 246.252 102.283 C 246.077 102.000 246.145 101.939 246.434 102.118 C 246.688 102.274 246.847 102.697 246.788 103.057 C 246.714 103.504 246.908 103.672 247.402 103.587 C 247.806 103.518 248.019 103.635 247.885 103.852 C 247.753 104.066 248.004 104.355 248.442 104.494 C 248.881 104.633 250.138 105.832 251.236 107.159 C 254.843 111.515 255.692 112.330 257.235 112.917 C 258.238 113.299 259.334 114.229 260.440 115.636 C 261.364 116.811 262.812 118.582 263.657 119.570 C 264.502 120.559 265.498 122.141 265.870 123.086 C 266.241 124.031 266.758 125.156 267.018 125.586 C 267.278 126.016 267.611 127.050 267.757 127.885 C 267.904 128.720 268.345 129.863 268.738 130.424 C 269.131 130.986 269.559 132.315 269.690 133.377 C 269.821 134.440 270.076 135.407 270.256 135.526 C 270.859 135.923 271.111 142.620 270.690 147.021 C 270.014 154.074 266.078 166.583 264.785 165.784 C 264.607 165.674 264.578 165.886 264.719 166.255 C 264.900 166.726 264.833 166.836 264.493 166.626 C 264.165 166.423 264.050 166.559 264.134 167.051 C 264.209 167.488 264.053 167.731 263.740 167.666 C 263.456 167.607 263.326 167.725 263.451 167.928 C 263.576 168.130 263.370 168.606 262.992 168.984 C 262.614 169.362 262.305 169.771 262.305 169.894 C 262.305 170.017 262.160 170.069 261.983 170.010 C 261.806 169.951 261.765 170.071 261.892 170.276 C 262.019 170.482 261.808 170.881 261.423 171.165 C 260.586 171.781 258.570 174.457 255.737 178.711 C 254.593 180.430 253.003 182.333 252.204 182.941 C 251.405 183.549 250.294 184.771 249.736 185.656 C 249.177 186.542 247.884 188.080 246.862 189.075 C 245.841 190.070 244.649 191.573 244.215 192.415 C 243.781 193.257 242.532 194.782 241.439 195.806 C 240.347 196.829 239.452 197.883 239.450 198.149 C 239.443 199.227 230.546 207.409 229.373 207.418 C 229.093 207.420 227.828 208.125 226.562 208.984 C 225.297 209.844 224.154 210.547 224.023 210.547 C 223.892 210.547 222.780 211.206 221.551 212.012 C 217.951 214.372 214.523 216.192 210.352 217.957 C 208.130 218.896 208.291 218.890 214.453 217.812 C 224.934 215.977 228.516 215.904 228.516 217.525 C 228.516 218.113 228.702 218.780 228.930 219.008 C 230.067 220.145 221.865 228.906 219.664 228.906 C 219.457 228.906 218.947 229.221 218.531 229.605 C 217.444 230.608 213.512 232.925 210.487 234.347 C 207.658 235.676 206.716 235.692 202.394 234.487 C 201.240 234.165 200.097 233.860 199.855 233.809 C 198.391 233.501 196.811 232.993 194.922 232.223 C 193.740 231.741 191.016 231.043 188.867 230.671 C 181.269 229.356 180.859 229.255 180.859 228.703 C 180.859 228.406 181.151 228.001 181.508 227.801 C 182.380 227.313 180.990 226.532 179.073 226.435 C 178.339 226.398 177.737 226.215 177.736 226.029 C 177.735 225.843 177.301 225.773 176.771 225.874 C 176.242 225.975 175.755 225.897 175.689 225.699 C 175.623 225.502 174.958 225.278 174.210 225.203 C 173.463 225.127 172.260 224.881 171.538 224.657 C 170.816 224.432 170.113 224.262 169.976 224.280 C 169.206 224.377 168.702 224.077 167.427 222.765 C 165.752 221.040 165.684 220.703 167.015 220.703 C 167.625 220.703 167.914 220.540 167.757 220.286 C 167.615 220.056 167.296 219.946 167.048 220.042 C 166.800 220.137 166.372 219.973 166.096 219.678 C 165.677 219.229 165.807 219.141 166.883 219.141 C 168.328 219.141 169.205 220.111 169.531 222.070 C 169.680 222.962 169.960 223.271 170.703 223.363 C 171.240 223.429 172.207 223.716 172.852 224.001 C 174.157 224.578 178.125 225.039 178.125 224.613 C 178.125 223.970 176.646 222.993 176.457 223.511 C 176.355 223.793 176.292 223.540 176.319 222.949 C 176.374 221.733 177.959 221.447 179.536 222.369 C 182.415 224.054 184.466 225.000 185.241 225.001 C 187.690 225.004 195.353 221.182 200.332 217.474 C 204.970 214.021 204.834 213.767 197.977 213.073 C 190.816 212.347 189.698 212.057 184.766 209.646 C 176.925 205.812 173.498 198.324 176.116 190.747 C 176.619 189.291 176.706 188.522 176.425 188.013 C 176.087 187.402 176.117 187.373 176.643 187.803 C 177.146 188.214 177.294 188.193 177.489 187.685 C 177.625 187.330 177.562 187.170 177.339 187.307 C 177.127 187.439 176.953 187.360 176.953 187.132 C 176.953 186.905 177.100 186.719 177.278 186.719 C 177.457 186.719 178.468 185.940 179.525 184.989 C 189.190 176.283 194.411 174.398 200.852 177.288 C 203.615 178.528 205.078 180.100 205.078 181.829 C 205.078 183.433 208.463 186.190 211.840 187.337 C 213.300 187.833 213.973 190.234 212.652 190.234 C 211.735 190.234 205.612 194.899 205.118 195.974 C 204.323 197.703 204.159 202.430 204.838 204.054 C 205.185 204.884 205.469 205.900 205.469 206.310 C 205.469 206.720 205.776 207.165 206.152 207.298 C 206.528 207.432 207.150 207.811 207.534 208.141 C 208.573 209.035 218.359 209.723 218.359 208.902 C 218.359 208.702 218.628 208.705 218.991 208.908 C 219.425 209.152 220.554 208.905 222.604 208.121 C 224.244 207.493 226.113 206.792 226.758 206.562 C 227.931 206.145 230.469 204.018 230.469 203.453 C 230.469 203.287 231.000 202.315 231.648 201.292 C 232.997 199.166 233.023 199.317 230.682 195.730 C 227.990 191.607 225.986 190.569 221.001 190.717 C 219.569 190.759 218.314 190.710 218.212 190.608 C 217.851 190.247 219.371 186.468 220.255 185.525 C 220.748 185.000 221.845 183.171 222.694 181.462 C 224.695 177.434 226.013 176.349 229.881 175.549 C 233.076 174.888 234.620 175.043 235.394 176.100 C 235.700 176.518 236.420 176.758 237.371 176.758 C 238.601 176.758 238.870 176.897 238.886 177.539 C 238.950 180.255 245.827 183.058 248.450 181.437 C 248.729 181.265 249.469 181.084 250.094 181.035 C 252.529 180.843 260.156 170.981 260.156 168.023 C 260.156 167.731 260.659 166.501 261.274 165.289 C 262.331 163.205 264.080 158.128 264.068 157.180 C 264.065 156.939 264.427 155.621 264.872 154.250 C 267.106 147.376 262.565 134.301 257.623 133.374 C 256.868 133.232 256.250 132.976 256.250 132.806 C 256.250 131.291 247.141 130.360 244.359 131.590 C 243.325 132.048 242.262 132.422 241.996 132.422 C 239.793 132.422 235.715 138.551 234.198 144.141 C 233.819 145.537 233.115 147.646 232.633 148.828 C 232.151 150.010 231.631 151.328 231.477 151.758 C 231.212 152.498 231.176 152.502 230.802 151.834 C 229.883 150.198 228.543 152.618 228.555 155.889 C 228.567 159.072 228.082 161.175 227.177 161.860 C 226.849 162.109 226.511 163.166 226.409 164.258 C 226.072 167.878 225.402 169.922 224.551 169.922 C 224.305 169.922 224.393 169.519 224.760 168.959 C 225.107 168.430 225.383 167.770 225.373 167.494 C 225.364 167.218 225.014 167.641 224.595 168.433 C 223.857 169.831 223.913 171.813 224.658 170.638 C 224.922 170.221 224.988 170.233 224.988 170.703 C 224.988 171.838 224.330 172.451 224.052 171.575 C 223.914 171.139 223.347 170.329 222.793 169.774 C 219.389 166.371 217.972 145.288 220.269 132.227 C 221.683 124.187 221.872 122.950 222.242 119.336 C 222.440 117.402 222.708 112.480 222.836 108.398 C 222.965 104.316 223.231 99.482 223.427 97.656 C 223.622 95.830 223.786 94.072 223.790 93.750 C 223.796 93.216 223.904 92.592 224.449 89.925 C 224.733 88.539 225.366 89.303 225.131 90.748 M155.485 95.542 C 157.087 97.173 158.750 98.864 159.180 99.301 C 160.430 100.573 162.979 102.364 164.370 102.948 C 165.205 103.299 165.849 103.957 166.215 104.832 C 166.959 106.612 169.024 108.260 172.949 110.205 C 174.721 111.083 176.600 112.310 177.123 112.932 C 177.646 113.554 178.171 114.063 178.288 114.063 C 179.523 114.063 184.400 120.485 185.602 123.695 C 186.018 124.803 186.626 125.933 186.954 126.205 C 187.281 126.477 188.313 128.247 189.246 130.139 C 190.180 132.031 191.327 134.201 191.796 134.960 C 192.265 135.719 193.153 137.764 193.768 139.505 C 194.384 141.246 195.573 143.836 196.410 145.261 C 198.081 148.106 198.364 148.864 198.834 151.758 C 199.009 152.832 199.708 155.645 200.387 158.008 C 201.066 160.371 201.709 163.359 201.816 164.648 C 202.036 167.293 203.970 171.758 206.113 174.568 C 207.858 176.855 207.770 177.359 205.919 175.686 C 205.092 174.939 203.818 174.216 203.087 174.078 C 201.663 173.811 201.470 173.489 197.797 165.234 C 197.080 163.623 196.492 162.524 196.489 162.793 C 196.479 163.870 195.709 163.171 194.771 161.230 C 194.225 160.103 193.772 159.351 193.764 159.560 C 193.756 159.769 193.476 159.548 193.141 159.071 C 192.807 158.593 192.658 157.999 192.811 157.751 C 192.983 157.473 192.918 157.407 192.638 157.580 C 192.389 157.734 192.187 157.640 192.188 157.370 C 192.188 157.074 191.995 157.144 191.699 157.547 C 191.268 158.135 191.201 158.071 191.126 156.999 C 191.051 155.919 191.111 155.843 191.677 156.310 C 192.254 156.787 192.263 156.756 191.775 155.973 C 191.462 155.469 191.134 155.278 190.988 155.513 C 190.830 155.768 190.502 155.681 190.096 155.274 C 189.742 154.921 189.453 154.820 189.453 155.050 C 189.453 155.990 188.396 155.336 187.112 153.601 C 186.361 152.587 185.645 151.670 185.521 151.563 C 185.396 151.455 185.181 151.060 185.042 150.684 C 184.799 150.024 183.586 149.696 183.601 150.293 C 183.605 150.454 184.132 151.537 184.773 152.699 C 186.458 155.756 186.223 155.919 183.691 153.447 C 181.230 151.044 180.089 150.376 177.148 149.618 C 174.620 148.965 169.658 146.596 169.397 145.917 C 169.286 145.627 168.514 145.275 167.683 145.135 C 166.126 144.872 163.666 143.242 164.125 142.778 C 164.918 141.978 172.257 144.955 174.400 146.947 C 175.277 147.762 176.654 148.564 177.573 148.796 C 178.466 149.021 179.483 149.315 179.833 149.449 C 180.267 149.615 180.469 149.482 180.469 149.028 C 180.469 145.243 168.683 139.616 164.878 141.584 C 163.554 142.269 162.109 142.380 162.109 141.797 C 162.109 141.008 160.907 141.435 160.479 142.376 C 159.901 143.644 158.116 143.970 155.957 143.203 C 154.165 142.566 154.077 142.609 154.724 143.818 C 155.433 145.143 154.559 145.552 153.155 144.553 C 152.276 143.927 151.953 143.843 151.953 144.241 C 151.953 144.541 151.503 145.209 150.952 145.726 C 150.099 146.528 149.967 146.954 150.056 148.623 C 150.265 152.576 146.607 151.391 145.563 147.168 C 145.385 146.447 145.043 146.094 144.524 146.094 C 143.749 146.094 143.447 147.032 144.094 147.432 C 144.679 147.794 144.848 149.625 144.405 150.799 C 144.059 151.716 144.138 152.294 144.843 153.994 C 145.316 155.136 145.703 156.208 145.703 156.376 C 145.703 156.544 146.143 157.329 146.680 158.119 C 148.094 160.201 147.947 160.750 145.668 161.895 C 143.761 162.853 142.969 162.902 142.969 162.063 C 142.969 161.848 143.145 161.781 143.359 161.914 C 143.957 162.283 143.827 161.927 143.028 161.005 L 142.305 160.173 141.856 161.159 C 141.609 161.702 141.406 162.521 141.406 162.979 C 141.406 163.437 141.195 164.395 140.937 165.109 C 140.566 166.135 140.574 166.712 140.975 167.871 C 141.899 170.538 142.709 172.231 142.979 172.064 C 143.126 171.973 143.183 172.289 143.106 172.766 C 143.020 173.295 143.363 174.090 143.986 174.805 C 144.548 175.449 144.875 175.713 144.712 175.391 C 144.494 174.957 144.536 174.914 144.874 175.224 C 145.125 175.455 145.402 176.013 145.489 176.465 C 146.054 179.398 153.409 186.016 156.152 186.060 C 156.421 186.064 156.641 186.214 156.641 186.393 C 156.641 186.572 157.045 186.719 157.539 186.719 C 158.033 186.719 158.613 186.894 158.827 187.109 C 159.251 187.532 167.129 188.669 169.702 188.677 C 172.579 188.687 173.160 189.002 172.854 190.387 C 172.428 192.315 172.223 198.900 172.596 198.670 C 172.782 198.555 172.851 198.898 172.749 199.432 C 172.594 200.240 172.685 200.362 173.293 200.164 C 173.894 199.968 173.920 200.000 173.438 200.343 C 172.928 200.705 172.974 200.991 173.794 202.546 C 174.456 203.801 174.832 204.182 175.058 203.826 C 175.290 203.460 175.393 203.536 175.430 204.102 C 175.534 205.706 175.599 205.894 176.172 206.257 C 176.967 206.761 175.685 206.795 174.702 206.296 C 174.329 206.107 173.145 205.749 172.070 205.501 C 170.996 205.253 168.160 204.090 165.768 202.916 C 163.375 201.742 161.216 200.781 160.969 200.781 C 160.347 200.781 156.691 198.899 155.273 197.849 C 154.629 197.372 152.525 196.131 150.598 195.092 C 148.671 194.053 146.474 192.659 145.715 191.994 C 144.007 190.496 142.374 189.456 141.713 189.444 C 141.437 189.439 140.693 188.735 140.060 187.879 C 139.427 187.024 138.153 185.957 137.228 185.510 C 136.303 185.062 135.415 184.482 135.254 184.221 C 134.500 182.998 129.211 179.227 128.811 179.627 C 128.345 180.092 126.584 179.057 125.150 177.475 C 124.695 176.973 124.080 176.556 123.783 176.548 C 122.459 176.511 114.071 167.253 114.064 165.822 C 114.063 165.608 115.719 167.189 117.743 169.335 C 119.768 171.481 121.555 173.107 121.715 172.947 C 121.874 172.787 121.802 172.656 121.555 172.656 C 121.307 172.656 120.854 172.085 120.548 171.387 C 120.242 170.688 119.366 169.453 118.600 168.642 C 116.566 166.486 115.396 164.267 114.434 160.742 C 113.965 159.023 113.429 157.317 113.243 156.951 C 113.057 156.584 112.792 155.573 112.653 154.705 C 112.514 153.836 112.247 153.125 112.059 153.125 C 111.474 153.125 111.688 152.049 112.322 151.805 C 112.976 151.554 112.578 150.412 111.439 149.274 C 111.139 148.973 110.991 148.472 111.110 148.160 C 111.230 147.848 111.328 147.431 111.328 147.234 C 111.328 147.036 111.504 146.875 111.719 146.875 C 111.934 146.875 112.109 147.174 112.109 147.539 C 112.109 148.049 112.216 148.096 112.570 147.742 C 112.827 147.486 113.046 146.097 113.065 144.615 C 113.110 141.060 115.167 136.519 116.573 136.872 C 117.210 137.032 117.761 136.755 118.649 135.830 C 125.018 129.192 133.087 121.094 133.332 121.094 C 133.500 121.094 134.726 120.349 136.057 119.439 C 137.388 118.529 139.268 117.362 140.234 116.846 C 141.201 116.330 143.256 115.009 144.800 113.911 C 146.345 112.813 148.143 111.617 148.796 111.253 C 151.699 109.638 154.262 99.618 152.792 95.631 C 151.391 91.833 151.826 91.819 155.485 95.542 M245.638 101.123 C 246.062 101.392 246.049 101.496 245.569 101.680 C 245.245 101.805 244.769 101.653 244.512 101.344 C 243.972 100.693 244.727 100.546 245.638 101.123 M245.675 155.650 C 247.944 156.823 247.902 159.285 245.570 161.825 C 243.115 164.499 240.730 164.303 238.928 161.280 C 236.620 157.411 241.388 153.433 245.675 155.650 M223.328 156.490 C 222.918 156.900 222.984 158.203 223.414 158.203 C 223.973 158.203 224.150 157.696 223.865 156.913 C 223.724 156.526 223.482 156.336 223.328 156.490 M177.372 161.621 C 179.226 163.362 179.551 165.356 178.262 167.082 C 174.576 172.019 166.814 169.411 168.339 163.748 C 169.375 159.901 174.304 158.741 177.372 161.621 M285.720 163.759 C 287.259 165.955 286.153 167.681 282.813 168.296 C 281.631 168.514 279.082 169.243 277.148 169.916 C 275.215 170.590 273.281 171.245 272.852 171.372 C 271.572 171.751 275.732 167.705 278.068 166.298 C 284.514 162.417 284.730 162.345 285.720 163.759 M222.407 163.580 C 222.084 163.788 222.111 164.006 222.504 164.371 C 222.955 164.789 223.047 164.739 223.047 164.078 C 223.047 163.189 223.032 163.177 222.407 163.580 M142.558 166.309 C 143.115 168.315 143.084 168.449 142.177 167.963 C 141.741 167.730 141.485 167.376 141.609 167.176 C 141.732 166.976 141.655 166.481 141.438 166.075 C 141.053 165.356 141.222 164.844 141.844 164.844 C 142.013 164.844 142.334 165.503 142.558 166.309 M221.848 165.964 C 222.062 166.366 222.159 166.807 222.061 166.945 C 221.964 167.084 222.190 166.925 222.563 166.592 C 223.157 166.063 223.168 165.941 222.656 165.617 C 221.736 165.035 221.422 165.170 221.848 165.964 M257.472 169.220 C 257.018 169.928 256.396 171.040 256.089 171.690 C 255.098 173.791 249.609 180.615 249.609 179.746 C 249.609 178.859 251.898 175.462 256.547 169.447 C 258.141 167.386 258.741 167.238 257.472 169.220 M229.840 170.753 C 230.061 171.980 229.985 172.199 229.267 172.387 C 228.502 172.587 228.459 172.494 228.708 171.168 C 229.174 168.685 229.448 168.584 229.840 170.753 M147.648 176.451 C 148.132 176.325 148.930 176.919 150.221 178.368 C 151.250 179.524 152.296 180.469 152.546 180.469 C 152.796 180.469 153.688 181.142 154.528 181.965 C 155.368 182.789 156.494 183.704 157.031 184.000 L 158.008 184.538 156.836 184.762 C 156.191 184.885 155.605 184.849 155.534 184.681 C 155.462 184.513 155.173 184.375 154.892 184.375 C 154.611 184.375 154.279 184.111 154.156 183.789 C 154.032 183.467 153.582 183.203 153.156 183.203 C 152.041 183.203 150.391 182.378 150.391 181.821 C 150.391 181.559 149.842 181.118 149.173 180.840 C 147.892 180.310 146.488 178.420 146.486 177.223 C 146.485 176.809 146.307 176.626 146.055 176.782 C 145.798 176.941 145.830 176.675 146.135 176.121 C 146.588 175.299 146.662 175.276 146.796 175.915 C 146.894 176.386 147.189 176.572 147.648 176.451 M224.529 176.404 C 224.752 176.526 222.202 178.906 221.849 178.906 C 221.653 178.906 220.974 180.049 220.341 181.445 C 219.225 183.906 218.359 184.712 218.359 183.290 C 218.359 182.908 218.601 182.249 218.895 181.825 C 219.190 181.401 219.557 180.479 219.710 179.776 C 220.029 178.308 221.681 176.172 222.496 176.172 C 222.799 176.172 223.047 175.975 223.047 175.733 C 223.047 175.442 223.275 175.470 223.730 175.818 C 224.106 176.106 224.466 176.370 224.529 176.404 M282.848 177.769 L 283.664 178.586 282.796 179.510 C 280.897 181.532 279.025 182.465 275.725 183.035 C 271.763 183.720 270.270 184.288 267.361 186.214 C 266.131 187.029 264.197 188.311 263.063 189.063 C 261.751 189.934 260.413 191.315 259.377 192.869 C 258.482 194.211 257.520 195.441 257.238 195.603 C 256.957 195.766 256.171 196.844 255.492 198.000 C 254.376 199.900 253.168 201.526 249.580 205.957 C 248.927 206.763 248.193 207.422 247.948 207.422 C 247.703 207.422 248.045 206.851 248.708 206.152 C 249.371 205.454 250.040 204.443 250.194 203.906 C 250.348 203.369 251.215 201.963 252.121 200.781 C 253.027 199.600 254.455 197.578 255.294 196.289 C 257.368 193.105 259.862 190.020 262.164 187.792 C 263.219 186.771 264.247 185.503 264.448 184.975 C 264.649 184.446 265.479 183.586 266.293 183.064 C 267.107 182.541 268.468 181.392 269.318 180.510 C 270.167 179.628 271.134 178.901 271.466 178.894 C 271.798 178.887 272.949 178.449 274.023 177.921 C 276.700 176.604 281.598 176.520 282.848 177.769 M272.461 179.655 C 270.748 180.461 267.551 183.027 266.338 184.568 C 265.335 185.843 265.716 185.804 267.765 184.422 C 268.682 183.803 270.061 183.089 270.830 182.835 C 271.598 182.582 272.849 181.952 273.609 181.436 C 274.369 180.920 275.476 180.235 276.070 179.913 L 277.148 179.328 276.106 179.313 C 275.533 179.304 274.830 179.212 274.544 179.109 C 274.258 179.005 273.320 179.251 272.461 179.655 M331.282 183.674 C 332.267 188.738 332.053 211.131 330.943 219.141 C 329.364 230.534 328.543 233.804 325.008 242.773 C 322.385 249.430 322.066 250.097 321.070 250.997 C 320.608 251.416 319.872 252.461 319.435 253.320 C 318.997 254.180 317.917 255.599 317.035 256.475 C 314.936 258.557 310.711 263.065 308.984 265.065 C 305.762 268.797 301.213 271.328 303.845 267.924 C 304.242 267.411 304.884 266.149 305.273 265.119 C 305.661 264.088 306.507 262.418 307.152 261.408 C 307.798 260.397 309.282 257.727 310.452 255.474 C 311.621 253.222 312.889 250.937 313.269 250.396 C 313.649 249.856 314.090 248.975 314.249 248.438 C 314.408 247.900 315.121 246.318 315.834 244.922 C 317.368 241.918 320.313 234.380 320.313 233.460 C 320.313 233.106 320.642 231.804 321.045 230.568 C 321.829 228.162 323.256 221.402 324.768 212.938 C 325.281 210.064 325.879 207.603 326.097 207.468 C 326.314 207.334 326.677 206.346 326.904 205.272 C 327.130 204.199 327.582 202.090 327.908 200.586 C 328.862 196.187 329.644 190.228 329.929 185.186 C 330.229 179.881 330.488 179.591 331.282 183.674 M220.595 187.348 C 220.439 187.503 220.313 187.952 220.313 188.346 C 220.313 189.128 222.019 189.387 222.461 188.672 C 222.594 188.457 223.058 188.281 223.493 188.281 C 223.943 188.281 224.215 188.075 224.124 187.803 C 223.948 187.275 221.042 186.900 220.595 187.348 M221.288 193.138 C 222.142 193.495 222.717 194.051 222.872 194.670 C 223.864 198.621 216.970 200.410 214.441 196.858 C 213.554 195.613 213.404 195.789 216.992 193.865 C 219.737 192.393 219.571 192.421 221.288 193.138 M296.825 194.273 C 300.827 196.751 301.253 199.047 297.968 200.433 C 296.094 201.224 289.281 201.124 287.500 200.281 C 285.942 199.543 282.527 198.618 279.906 198.225 C 277.602 197.880 277.600 197.456 279.895 195.852 C 285.170 192.166 292.343 191.497 296.825 194.273 M199.121 195.191 C 198.030 195.476 198.331 196.094 199.562 196.094 C 200.180 196.094 200.904 195.830 201.172 195.508 C 201.680 194.895 200.784 194.757 199.121 195.191 M275.313 198.319 C 275.417 199.016 274.756 199.354 270.052 201.007 C 264.108 203.095 257.046 206.672 254.227 209.023 C 253.221 209.861 252.092 210.547 251.717 210.547 C 251.060 210.547 256.204 206.409 257.422 205.957 C 257.744 205.838 258.991 205.143 260.193 204.414 C 263.165 202.612 274.320 197.262 274.805 197.406 C 275.020 197.470 275.248 197.881 275.313 198.319 M208.398 198.372 C 208.398 198.623 208.267 198.828 208.105 198.828 C 205.962 198.828 205.999 198.845 206.820 198.224 C 207.659 197.590 208.398 197.659 208.398 198.372 M270.953 221.516 C 273.497 222.449 275.781 225.574 275.781 228.121 C 275.781 232.098 273.523 234.232 264.748 238.542 C 262.527 239.634 262.463 239.641 262.749 238.770 C 262.873 238.394 262.573 238.701 262.083 239.453 C 261.592 240.205 260.965 241.963 260.688 243.359 C 259.630 248.700 260.203 250.290 262.750 249.076 C 263.676 248.635 264.576 248.498 265.466 248.665 C 266.438 248.848 266.813 248.772 266.856 248.383 C 266.889 248.091 266.957 247.676 267.007 247.461 C 267.057 247.246 267.118 246.874 267.142 246.634 C 267.167 246.395 268.374 245.652 269.824 244.984 C 271.274 244.315 273.340 243.250 274.414 242.617 C 275.488 241.983 277.790 240.743 279.530 239.862 C 281.269 238.980 283.753 237.569 285.050 236.726 C 286.347 235.884 287.868 235.079 288.431 234.938 C 288.993 234.796 289.453 234.524 289.453 234.333 C 289.453 234.141 289.650 233.984 289.890 233.984 C 290.131 233.984 291.405 233.327 292.722 232.524 C 294.040 231.720 295.920 230.688 296.901 230.231 C 297.882 229.773 299.755 228.585 301.064 227.590 C 302.372 226.595 303.599 225.781 303.790 225.781 C 303.982 225.781 304.825 225.078 305.664 224.219 C 307.960 221.868 308.374 222.385 307.774 226.852 C 307.579 228.304 307.244 230.986 307.031 232.813 C 305.751 243.767 303.617 254.467 301.383 261.133 C 301.095 261.992 300.381 264.805 299.798 267.383 C 299.214 269.961 298.428 273.213 298.051 274.609 C 297.675 276.006 297.364 277.806 297.362 278.610 C 297.360 279.414 297.037 280.732 296.645 281.540 C 296.253 282.347 295.979 283.242 296.037 283.528 C 296.095 283.813 295.868 284.466 295.532 284.979 C 295.196 285.491 294.922 286.380 294.922 286.955 C 294.922 288.266 292.460 291.560 290.637 292.690 C 289.891 293.152 288.144 294.560 286.755 295.819 C 285.366 297.078 283.427 298.528 282.447 299.042 C 281.466 299.557 279.434 300.856 277.930 301.931 C 276.426 303.005 274.259 304.437 273.115 305.113 C 271.970 305.789 270.945 306.575 270.835 306.860 C 270.726 307.145 269.946 307.737 269.103 308.177 C 268.259 308.617 266.570 309.975 265.350 311.196 C 264.024 312.522 263.065 313.217 262.967 312.923 C 262.876 312.653 262.998 312.236 263.237 311.997 C 263.476 311.758 263.672 311.296 263.672 310.971 C 263.672 310.115 262.575 311.249 262.381 312.306 C 262.151 313.564 261.238 315.234 260.777 315.240 C 260.523 315.244 260.549 315.372 260.842 315.558 C 261.535 315.998 258.786 319.190 257.981 318.881 C 257.602 318.735 256.364 319.701 254.444 321.640 C 251.560 324.552 251.430 324.631 248.989 324.977 C 247.614 325.172 245.934 325.608 245.255 325.947 C 244.576 326.285 243.881 326.563 243.710 326.563 C 243.539 326.563 242.966 326.964 242.437 327.455 C 241.907 327.946 240.975 328.602 240.366 328.913 C 239.756 329.224 238.203 330.367 236.914 331.454 C 235.625 332.541 233.867 333.939 233.008 334.560 C 232.148 335.182 230.268 336.723 228.830 337.984 C 225.929 340.528 225.169 340.642 221.983 339.018 C 221.188 338.613 220.329 338.281 220.075 338.281 C 219.820 338.281 218.583 337.777 217.325 337.161 C 216.068 336.545 214.072 335.725 212.891 335.340 C 210.858 334.678 210.225 334.372 206.445 332.228 C 205.586 331.740 202.773 330.417 200.195 329.289 C 195.084 327.050 191.305 325.286 183.158 321.331 C 180.233 319.912 177.729 318.750 177.594 318.750 C 177.034 318.750 174.219 317.370 174.219 317.095 C 174.219 316.931 173.952 316.797 173.627 316.797 C 173.301 316.797 172.115 316.284 170.990 315.658 C 169.866 315.032 167.692 314.152 166.159 313.702 C 163.767 313.000 160.452 311.468 155.664 308.849 C 155.020 308.496 154.287 308.207 154.036 308.206 C 153.786 308.204 153.522 308.061 153.451 307.887 C 153.379 307.713 151.851 306.983 150.055 306.264 C 148.259 305.544 146.300 304.544 145.702 304.040 C 145.103 303.537 144.367 303.125 144.065 303.125 C 142.051 303.125 142.135 300.786 144.207 299.143 C 145.102 298.433 146.465 297.206 147.234 296.416 C 148.339 295.282 149.044 294.923 150.586 294.709 C 151.660 294.559 154.385 293.740 156.641 292.887 C 158.896 292.035 161.533 291.061 162.500 290.724 C 164.323 290.086 164.966 289.853 167.067 289.064 C 167.753 288.806 168.940 288.578 169.704 288.556 C 170.565 288.532 171.094 288.323 171.094 288.009 C 171.094 287.729 171.289 287.500 171.527 287.500 C 171.765 287.500 173.566 286.726 175.530 285.780 C 177.495 284.834 180.068 283.743 181.250 283.355 C 182.432 282.968 183.591 282.513 183.825 282.344 C 184.060 282.176 185.994 281.534 188.122 280.918 C 191.569 279.922 194.777 278.554 199.296 276.157 C 200.091 275.736 201.012 275.391 201.345 275.391 C 201.677 275.391 203.576 274.604 205.564 273.643 C 207.553 272.681 210.279 271.557 211.623 271.144 L 214.066 270.393 215.152 271.427 C 215.750 271.996 216.479 273.252 216.773 274.219 C 217.067 275.186 217.814 277.522 218.433 279.411 C 219.051 281.299 219.464 282.995 219.351 283.179 C 219.145 283.513 221.212 283.934 227.148 284.766 C 228.867 285.007 231.064 285.573 232.031 286.023 C 232.998 286.474 234.580 286.990 235.547 287.169 C 238.462 287.710 240.760 288.450 241.895 289.212 C 242.513 289.627 243.320 289.843 243.793 289.719 C 244.245 289.601 245.012 289.655 245.498 289.840 C 246.677 290.288 250.012 288.749 250.715 287.432 C 251.168 286.583 251.166 283.436 250.710 279.802 C 250.621 279.088 249.671 278.866 249.327 279.480 C 247.903 282.018 242.157 283.447 238.200 282.246 C 234.774 281.206 229.352 280.455 227.144 280.715 C 225.154 280.949 224.989 280.904 224.641 280.033 C 224.269 279.103 224.268 279.103 224.244 280.185 C 224.217 281.367 223.102 282.034 221.166 282.028 L 220.117 282.025 220.073 277.717 L 220.029 273.409 218.411 272.024 C 217.522 271.263 215.960 270.199 214.940 269.660 C 212.596 268.421 209.352 266.009 206.836 263.635 C 205.450 262.328 204.218 261.587 202.595 261.085 C 201.032 260.602 200.208 260.119 199.996 259.559 C 199.825 259.109 199.095 258.223 198.373 257.590 C 197.652 256.956 196.649 255.858 196.145 255.150 C 194.811 253.277 194.752 253.808 195.900 257.353 C 197.050 260.907 196.844 262.960 195.146 264.844 C 194.662 265.381 193.875 266.392 193.396 267.090 C 192.779 267.988 192.219 268.360 191.477 268.362 C 190.901 268.363 189.914 268.633 189.283 268.962 C 181.543 272.998 173.101 269.168 174.406 262.211 C 174.865 259.766 180.372 254.114 183.984 252.382 L 186.914 250.977 193.197 251.008 L 199.480 251.040 199.957 248.730 C 200.313 247.007 200.807 246.005 201.898 244.792 C 202.702 243.896 203.930 242.427 204.626 241.525 C 207.027 238.416 211.325 237.228 214.667 238.751 C 215.597 239.175 218.824 237.327 219.294 236.101 C 219.403 235.817 220.336 235.201 221.367 234.732 C 222.398 234.264 224.134 233.473 225.224 232.976 C 230.338 230.642 247.613 229.633 254.446 231.269 C 255.877 231.612 256.839 232.207 258.302 233.654 C 259.374 234.715 260.326 235.508 260.417 235.416 C 260.509 235.324 260.312 234.977 259.980 234.645 C 259.040 233.706 259.254 233.261 260.781 232.975 C 261.643 232.813 262.003 232.598 261.711 232.417 C 261.364 232.203 261.459 231.900 262.063 231.296 C 262.518 230.841 262.891 230.130 262.891 229.715 C 262.891 229.301 263.157 228.696 263.482 228.371 C 263.807 228.046 264.171 227.198 264.291 226.488 C 264.498 225.263 264.477 225.235 263.895 225.954 C 263.374 226.598 263.281 226.615 263.281 226.071 C 263.281 225.718 263.501 225.289 263.770 225.117 C 264.551 224.618 265.355 222.776 265.025 222.243 C 264.840 221.944 264.882 221.853 265.133 222.008 C 265.359 222.147 265.639 222.012 265.755 221.708 C 266.115 220.772 268.666 220.678 270.953 221.516 M241.016 237.486 C 235.098 238.010 228.919 239.203 226.172 240.352 C 225.635 240.576 224.976 240.722 224.707 240.675 C 223.433 240.454 224.193 243.236 225.684 244.249 C 230.215 247.331 244.533 246.851 249.921 243.438 C 255.364 239.989 255.662 239.372 252.305 238.506 C 247.885 237.364 245.164 237.119 241.016 237.486 M207.956 242.871 C 204.383 244.886 203.394 246.631 203.358 250.977 C 203.306 257.365 205.319 259.646 214.063 263.103 C 215.459 263.655 216.848 264.214 217.148 264.344 C 218.067 264.743 217.398 258.704 215.840 252.539 C 215.079 249.531 214.456 246.604 214.455 246.034 C 214.449 243.129 210.718 241.313 207.956 242.871 M152.702 251.980 C 155.324 252.406 155.989 252.599 159.766 254.030 C 162.879 255.209 163.053 255.576 160.352 255.267 C 155.410 254.701 148.195 252.662 148.632 251.954 C 148.938 251.459 149.520 251.463 152.702 251.980 M249.219 284.320 C 249.219 285.732 249.097 285.890 247.266 286.840 C 245.428 287.793 245.313 287.809 245.313 287.101 C 245.313 286.667 245.788 286.103 246.432 285.769 C 247.161 285.392 247.635 284.776 247.790 284.001 C 248.151 282.196 249.219 282.434 249.219 284.320 M194.411 286.299 C 194.536 286.779 195.101 287.128 196.032 287.300 C 196.818 287.446 198.955 288.273 200.781 289.139 C 203.184 290.279 204.708 290.746 206.297 290.829 C 208.739 290.956 210.491 291.703 211.581 293.082 C 212.670 294.461 217.615 296.291 218.327 295.579 C 218.720 295.186 218.968 295.955 218.787 297.002 C 218.756 297.179 218.892 297.224 219.090 297.102 C 219.288 296.979 219.565 297.181 219.707 297.550 C 219.928 298.126 220.017 298.139 220.341 297.645 C 220.670 297.144 220.779 297.149 221.199 297.690 C 221.834 298.509 223.668 299.517 223.228 298.806 C 223.008 298.449 223.156 298.375 223.767 298.535 C 224.537 298.736 224.609 298.605 224.609 297.015 C 224.609 295.176 222.822 293.783 220.433 293.759 C 219.962 293.754 219.476 293.585 219.351 293.384 C 219.227 293.183 218.821 293.032 218.449 293.048 C 217.678 293.083 213.276 291.485 212.715 290.967 C 212.511 290.779 212.025 290.625 211.635 290.625 C 211.246 290.625 210.578 290.449 210.151 290.234 C 209.724 290.020 209.031 289.671 208.611 289.460 C 208.191 289.250 207.092 288.961 206.169 288.820 C 205.247 288.678 203.086 287.905 201.367 287.103 C 197.682 285.382 194.061 284.964 194.411 286.299 M187.014 290.174 C 186.209 290.530 185.550 291.032 185.549 291.290 C 185.545 292.299 186.488 293.750 187.149 293.750 C 187.532 293.750 187.940 293.905 188.057 294.094 C 188.179 294.292 189.017 294.280 190.019 294.066 C 191.538 293.742 191.878 293.796 192.605 294.473 C 193.562 295.364 193.287 296.187 192.092 296.015 C 191.647 295.951 191.209 296.118 191.117 296.387 C 191.002 296.724 191.437 296.875 192.525 296.875 C 193.634 296.875 194.392 297.145 195.084 297.787 C 195.750 298.404 196.596 298.720 197.698 298.763 C 198.703 298.802 199.508 299.074 199.799 299.473 C 200.132 299.928 200.353 299.985 200.549 299.669 C 200.702 299.421 201.245 299.219 201.755 299.219 C 202.337 299.219 202.773 298.930 202.929 298.441 C 203.242 297.452 202.876 296.845 202.136 297.129 C 201.778 297.266 201.563 297.113 201.563 296.721 C 201.563 296.020 199.820 295.828 199.414 296.484 C 198.930 297.267 196.484 296.947 196.484 296.101 C 196.484 295.601 196.138 295.240 195.503 295.081 C 194.963 294.946 194.392 294.618 194.233 294.352 C 193.838 293.691 189.023 289.444 188.720 289.491 C 188.586 289.511 187.818 289.819 187.014 290.174 M191.634 290.095 C 191.355 290.822 191.315 290.761 192.455 291.353 C 193.853 292.080 194.144 291.866 193.439 290.627 C 192.699 289.327 192.007 289.123 191.634 290.095 M182.031 292.383 C 181.503 293.019 181.630 293.098 182.585 292.732 C 182.925 292.601 183.203 292.338 183.203 292.146 C 183.203 291.605 182.570 291.733 182.031 292.383 M222.049 295.634 C 222.049 296.844 221.314 296.714 221.161 295.477 C 221.073 294.767 221.192 294.499 221.541 294.615 C 221.820 294.708 222.049 295.167 222.049 295.634 M202.692 295.726 C 203.206 296.154 203.720 296.410 203.835 296.295 C 204.084 296.046 202.708 294.946 202.148 294.947 C 201.934 294.948 202.178 295.298 202.692 295.726 M229.481 296.231 C 229.260 296.478 229.145 297.010 229.226 297.414 C 229.429 298.424 228.599 298.842 226.828 298.622 C 225.574 298.467 225.418 298.523 225.851 298.969 C 226.135 299.261 226.852 300.052 227.444 300.727 C 228.781 302.248 229.089 302.255 229.826 300.778 C 230.658 299.110 230.365 295.244 229.481 296.231 M232.479 298.016 C 233.128 298.847 233.915 299.382 234.594 299.454 C 235.898 299.594 235.461 299.089 233.008 297.626 L 231.445 296.693 232.479 298.016 M204.079 298.614 C 203.354 299.156 203.375 299.193 204.545 299.435 C 206.136 299.765 206.757 300.982 206.584 303.431 C 206.468 305.074 206.540 305.344 207.031 305.093 C 207.354 304.928 207.838 304.872 208.109 304.969 C 208.587 305.141 212.500 302.149 212.500 301.611 C 212.500 301.463 211.665 301.099 210.645 300.801 C 208.537 300.186 207.603 299.710 206.576 298.730 C 205.704 297.898 205.075 297.869 204.079 298.614 M200.781 300.377 C 200.781 300.584 201.159 300.956 201.622 301.204 C 202.347 301.592 202.427 301.563 202.208 300.990 C 202.068 300.625 201.953 300.253 201.953 300.163 C 201.953 300.074 201.689 300.000 201.367 300.000 C 201.045 300.000 200.781 300.170 200.781 300.377 M214.063 303.692 C 214.063 304.003 213.781 304.416 213.436 304.608 C 212.579 305.088 212.907 306.418 213.918 306.564 C 214.372 306.629 214.897 307.020 215.086 307.433 C 215.678 308.729 217.352 307.575 217.503 305.767 C 217.615 304.434 217.516 304.281 216.186 303.726 C 214.402 302.980 214.063 302.975 214.063 303.692 M224.883 306.497 C 224.733 306.648 224.604 307.137 224.597 307.585 C 224.590 308.032 224.326 308.740 224.011 309.157 C 222.915 310.606 223.267 311.324 225.098 311.371 C 227.810 311.442 228.656 311.285 229.141 310.622 C 229.722 309.827 229.402 308.802 228.743 309.349 C 228.265 309.745 226.563 309.488 226.563 309.020 C 226.563 308.874 227.122 308.587 227.806 308.382 C 228.490 308.176 229.127 307.770 229.220 307.479 C 229.346 307.083 229.155 307.024 228.464 307.244 C 226.981 307.717 226.387 307.658 226.377 307.037 C 226.367 306.415 225.337 306.043 224.883 306.497"/></svg>
