<svg xmlns="http://www.w3.org/2000/svg" id="cobol" viewBox="0 0 316.15 173.35"><path fill="currentColor" d="M316.15 139v34h-85.8V0h34.6v139zM114.44 0h64.84c9.08.69 19.54 9.73 22.2 25.47 4.16 24.6 2.07 29 0 37.23-2.62 10.32-11.8 18-11.8 18s13.38 9.35 15.8 22.63c1.48 8.15.66 22.78 0 35.92-1.12 22.25-17.46 33.79-26.2 33.79h-63.84c0-4.49-.89-159.79-1-173.04m35.38 139.89s7.73.07 10.88 0c3.69-.08 10.7 0 10.7-19.07 0-13-7.27-16-10.7-16-4.63.07-10.88 0-10.88 0zm10.06-104.12c-4.09-.16-10.6 0-10.6 0l-.31 31.93s6.13.21 10.91 0c4.16-.19 9.57.21 9.57-16.46 0-15.63-5.73-15.31-9.57-15.47M45.12 173.35C22.22 173.51 0 158.75 0 137V39.59C0 24.66 8.94 15.37 16.37 9.71c3-2.3 13-9.71 32.42-9.71 8.63 0 17.85 3.74 22.52 7.66 18.39 15.48 17.83 31.06 17.7 50-9.6 0-34.26.05-34.26.05s-.29-12.16-1.28-15.1c-1.62-4.84-5.36-6.41-9.36-6.45s-7.75 1.46-9.75 5c-1 1.87-2.14 4-2.14 11.54v75a23.7 23.7 0 0 0 .87 6.38c1.4 5 6.61 8 12.88 7.63a10.22 10.22 0 0 0 9.3-8c.69-3 .59-13.06.59-13.06h34.29s.21 14 0 24.94c-.18 9.79-7.57 15.07-13.47 18.78a57.67 57.67 0 0 1-31.56 8.98"/></svg>
