<svg xmlns="http://www.w3.org/2000/svg" id="crap" viewBox="0 0 400 400"><path fill="currentColor" d="M154.727 40.561c-1.04 1.683-.174 8.792 1.925 15.797l3.816 12.737-14.609 13.999c-12.442 11.923-15.138 17.077-15.38 29.406-.017.859.844 5.285 1.912 9.835 1.744 7.43.445 9.021-12.762 15.625-20.439 10.22-30.25 28.777-27.431 51.884 1.771 14.518 1.347 16.407-3.692 16.418-24.27.049-44.497 39.616-32.096 62.786 2.835 5.298 1.874 6.727-7.032 10.448-35.345 14.771-50.338 58.749-28.284 82.968 26.273 28.853 219.055 37.834 328.799 15.318 48.745-10.002 53.605-71.011 7.441-93.407l-16.104-7.812 1.655-18.923c2.181-24.939-3.599-36.296-23.642-46.453l-14.988-7.595 1.274-18.202c1.69-24.143-6.374-36.7-31.338-48.8-16.145-7.825-17.797-9.512-16.067-16.406 6.175-24.603-25.388-56.194-74.683-74.748-23.485-8.84-26-9.267-28.714-4.875m57.315 35.353c25.026 14.995 32.792 25.499 30.612 41.404-2.26 16.49 3.463 25.018 20.144 30.016 13.872 4.156 27.623 18.145 28.197 28.687.545 9.997-.633 16.051-3.319 17.054-1.307.488-.958 6.198.774 12.689 6.693 25.076-8.551 47.303-33.948 49.499-32.598 2.818-52.432-24.748-40.324-56.044 1.849-4.78.062-5.469-14.178-5.469s-16.027.689-14.178 5.469c12.108 31.296-7.726 58.862-40.324 56.044-25.253-2.184-40.641-24.423-34.032-49.185 2.442-9.15 2.129-12.078-1.542-14.394-12.399-7.821 5.455-39.916 24.301-43.685 14.587-2.918 17.601-8.518 13.281-24.671-4.528-16.928-3.351-20.096 12.062-32.483 10.595-8.514 12.307-11.614 12.307-22.284V56.166l11.719 4.862c6.445 2.674 19.247 9.372 28.448 14.886m-75.62 129.801c-10.652 11.77-2.271 28.66 14.223 28.66 9.642 0 15.761-6.673 15.761-17.187 0-16.292-19.033-23.575-29.984-11.473m101.07-1.018c-9.615 11.585-2.051 29.678 12.406 29.678 9.777 0 18.852-8.535 18.852-17.73 0-13.787-22.572-22.414-31.258-11.948m-74.671 73.582c34.676 3.011 102.871.097 116.045-4.959 6.071-2.329 13.873 7.066 9.499 11.44-24.48 24.48-116.07 27.799-165.366 5.993-16.714-7.393-18.097-22.277-1.584-17.043 2.325.737 20.958 2.793 41.406 4.569"/></svg>
