<svg id="fortran" viewBox="0 0 85.28 92.21" xmlns="http://www.w3.org/2000/svg"><path d="M51.68 21h8.61v47.41h-9C51 65 51 61.57 50.49 58.16a11.14 11.14 0 00-14.71-9.3c-1 .33-2.07 2.16-2.1 3.32-.18 7-.31 14 0 21S36 81.8 43 82.06c2 .07 4 0 6.31 0v10.15H0v-9.56c2.46-.19 5-.41 7.62-.59 4.47-.33 7.23-2.47 7.28-7.18q.3-29 .5-57.95c0-4.77-2.6-6.9-7.22-7-2.3 0-4.61-.22-7.2-.35V0h84.3v35.41h-9.1c-.81-5-1.3-9.92-2.48-14.7-1.86-7.47-5.3-10.44-13-10.77-8.79-.37-17.6-.09-27.07-.09 0 9 0 17.71.09 26.48a3.5 3.5 0 002 2.4 11.87 11.87 0 0015.38-9.29c.44-2.62.39-5.31.58-8.44" fill="currentColor"/></svg>
