<svg xmlns="http://www.w3.org/2000/svg" id="go" viewBox="0 0 413 155"><path fill="currentColor" d="M260 41c1 2-1 2-2 2l-34 9c-3 2-5-1-5-1-21-26-65-8-67 30-2 36 45 50 67 14h-38c-3 0-8-1-3-10l8-17c2-4 3-4 9-4h70c0 81-90 117-138 68-22-23-29-75 16-112 36-29 96-29 117 21m16 96C231 98 255 17 326 4c73-13 105 55 76 106-24 43-88 61-126 27m94-51c9-25-9-49-36-47-30 3-51 42-32 65 19 22 58 12 68-18M49 84v-1l2-5 2-1h41l1 1-1 5-1 1zM1 66s-2 0-1-1l4-6 2-1h92l1 1-2 5-1 1zm30-19-1-1 5-5 2-1h72v1l-3 5-2 1"/></svg>
