<svg viewBox="0 0 471 432" xmlns="http://www.w3.org/2000/svg"><path d="M86.968 227.755c-4.286-6.483-13.067-8.287-19.548-3.973a14.104 14.104 0 00-6.037 8.965c-.758 3.686-.026 7.45 2.065 10.613 1.306 1.987 4.129 4.235 6.637 4.601v9.854c0 2.823-2.456 9.437-9.33 9.437H35.094v-25.199c1.881-.784 3.632-1.934 5.096-3.581 5.174-5.803 4.651-14.743-1.15-19.918-5.802-5.15-14.74-4.653-19.914 1.15a14.047 14.047 0 00-3.554 10.194 13.96 13.96 0 004.704 9.724l.863.706c1.15.889 2.43 1.49 3.737 1.96v33.355c-2.013.784-3.894 1.96-5.41 3.685-5.175 5.803-4.652 14.743 1.15 19.919.287.235.549.47.862.705 5.802 4.418 14.138 3.686 19.078-1.855 4.808-5.411 4.808-13.907-.079-18.769a82.086 82.086 0 00-1.881-1.777h22.187c13.615 0 19.652-11.528 19.652-19.344v-9.645c.889-.34 1.777-.758 2.588-1.307.313-.209.627-.418.914-.654a14.014 14.014 0 005.122-8.312c.732-3.607 0-7.371-2.09-10.534zm-63.766 1.725a6.33 6.33 0 011.62-4.653c2.248-2.535 6.063-2.849 8.703-.836l.392.313c2.64 2.353 2.874 6.431.522 9.097-2.352 2.64-6.454 2.875-9.094.523a6.444 6.444 0 01-2.143-4.444zm11.603 63.572a6.442 6.442 0 01-9.094.522c-2.666-2.352-2.875-6.456-.523-9.096 2.248-2.536 6.063-2.849 8.703-.837l.392.314c2.64 2.353 2.874 6.43.522 9.097zm46.727-56.201c-.34 1.673-1.333 3.111-2.77 4.078-1.438.941-3.162 1.281-4.835.941a6.447 6.447 0 01-4.077-2.745 6.458 6.458 0 01-.94-4.835c.313-1.516 1.123-2.85 2.352-3.791.13-.104.287-.209.418-.287 2.953-1.961 6.977-1.15 8.937 1.83.915 1.385 1.255 3.11.915 4.809" fill="#183D5D"/><path d="M321.646 84.536S360.794 54.266 342.605 0c0 0-22.396 7.79-18.633 31.29 4.26 26.374 4.495 42.58-2.326 53.246zM47.95 126.438S33.106 154.877.57 141.546c0 0 13.067-31.446 47.38-15.108zm14.243 10.325s23.18 26.061-.026 49.743c0-.026-24.566-26.191.026-49.743zm326.467-15.017V97.619h-24.121v24.127h24.121" fill="#93C2DB"/><path d="M364.539 145.874v-24.127h-24.121v24.127h24.121" fill="#9C4668"/><path d="M71.052 118.125h20.672l27.257-27.263-10.349-10.326-37.58 37.589zm237.71 262.834l10.323-10.325-14.713-14.717v-1.856c-5.331 1.281-12.022 2.222-18.973 3.555l23.363 23.343zM171.274 217.43l20.672-20.677V67.702l-37.58-37.615-.157.157-.157-.157h-20.358l37.58 37.615V217.43zm0 188.571l-25.036 25.068h20.672l25.036-25.068V271.434l41.656-41.666v-20.677l-62.328 62.343v134.567zm183.222-50.11h-20.672l12.518 12.521-25.036 25.068-12.544 12.521-25.036 25.068h20.672l25.036-25.068 12.544-12.521 25.036-25.068-12.518-12.521zM133.537 30.243l.156-.156h-.313l.157.156zM84.903 346.037H51.321v33.589h33.582v-33.589" fill="#FF73FA"/><path d="M239.378 292.424c12.884-34.4 18.529-37.562 23.128-35.419 4.6 2.143 2.404 15.396 4.861 18.402 1.411 1.752 2.979 1.15 5.357-1.777 3.215-7.764 6.821-15.867 10.976-24.833V67.702l-37.553-37.615-37.58 37.615 25.062 25.068v62.343l-62.355 62.317V67.702l-37.58-37.615-.157.157-.156-.157-75.16 75.203 12.831 12.835 37.58-37.589 12.518 12.521v312.944l25.062 25.068 25.062-25.068V271.434l62.329-62.343v99.2a885.071 885.071 0 015.775-15.867zm94.446 63.467l-25.062 25.068-23.337-23.369c-1.594.314-3.188.628-4.782.968-14.191 3.136-28.616 10.429-38.756 20.833-1.516 1.568-3.058 3.346-4.574 5.228l46.414 46.424 25.062-25.068 12.517-12.521 25.062-25.068-12.544-12.495" fill="#9C4668"/><path d="M283.726 248.797c.235-.523.471-1.019.706-1.542 9.826-21.042 15.784-29.878 19.966-32.91V67.702l-37.58-37.59h-20.672l37.58 37.59v181.095" fill="#FF73FA"/><path d="M467.758 185.435c-13.093-15.58-54.41-2.274-69.672 4.705-15.235 7.005-25.584 9.619-26.002 2.849-.941-15.448-1.594-30.505-14.4-20.467-12.805 10.037-23.363 38.373-30.968 48.907-7.605 10.534-10.819 14.22-13.015 11.005-2.195-3.189 1.02-16.233-3.397-18.742-4.416-2.51-10.296.209-25.872 33.537-4.469 9.567-8.284 18.141-11.682 26.375-2.378 2.927-3.946 3.529-5.357 1.777-2.43-3.006-.261-16.259-4.861-18.402-4.599-2.144-10.244 1.019-23.128 35.419-11.342 30.27-17.483 50.659-22.501 80.406-2.091 12.285-2.953 32.936-2.953 32.936s14.217-30.192 27.937-44.307c10.14-10.43 24.565-17.697 38.756-20.833 16.986-3.764 33.973-4.157 35.097-11.842 1.49-10.011-14.609-18.062-15.811-20.284-.601-1.124.026-2.901 2.274-4.574 6.376-2.588 13.04-4.392 19.626-5.333 17.248-2.405 34.235-1.49 35.96-9.07 2.273-9.855-13.172-19.161-14.191-21.487-1.019-2.327 2.927-6.849 14.792-7.607 11.864-.758 42.284 9.254 53.025 8.443 10.74-.81 17.692-7.737 14.687-15.84-3.006-8.13-25.036-12.913-19.209-22.402 3.241-5.254 26.996-12.39 38.965-16.259 9.957-3.215 32.615-16.154 21.9-28.91" fill="#93C2DB"/><path d="M205.326 419.175c.131-.941 39.488-108.871 109.003-161.098 48.896-36.727 85.927-50.581 94.655-53.508a1.897 1.897 0 012.457 1.333 1.885 1.885 0 01-1.228 2.274c-8.128 2.719-44.793 16.285-93.584 52.959-68.261 51.286-107.383 157.674-107.514 158.589l-3.789-.549" fill="#FF8AE2"/><path d="M257.332 257.58c1.934-1.385 3.554-1.307 5.043-.653V84.143h-5.043v67.65L148.407 260.769V84.143h-5.043v299.352h5.043V268.689l108.925-108.95v97.841" fill="#93C2DB"/></svg>
