<svg xmlns="http://www.w3.org/2000/svg" id="hy" viewBox="0 0 400 400"><path fill="currentColor" d="M159 5.831c-6.639 1.032-13.468 3.975-17.778 7.661-.84.719-3.513 2.421-5.94 3.782-7.625 4.278-9.708 7.206-7.793 10.957 2.071 4.057.566 8.854-4.04 12.874-5.912 5.158-5.949 5.203-5.949 7.113 0 1.109.771 3.338 2 5.782 2.378 4.73 2.405 5.126.537 7.882-3.457 5.1-1.517 13.163 4.075 16.939.749.506 1.507 1.596 1.686 2.424.941 4.357 6.309 10.627 10.79 12.604 2.679 1.182 2.435 2.041-1.6 5.627-6.582 5.849-6.801 11.072-.837 19.944.803 1.194 1.265 2.352 1.029 2.575-3.898 3.67-5.863 4.912-7.382 4.666-2.291-.372-4.471 1.572-5.271 4.701-.938 3.669-1.406 4.592-3.982 7.858-14.05 17.815-23.007 37.117-43.056 92.78-4.903 13.613-10.072 27.9-11.486 31.75-4.387 11.94-10.35 29.22-12.251 35.5-16.866 55.727-8.393 84.989 27.248 94.105 3.773.965 112.5 1.647 112.5.705 0-.26-2.448-7.524-5.441-16.142l-5.441-15.668-47.684-.25c-53.715-.282-50.142-.007-53.758-4.126-7.676-8.742-4.836-26.818 11.173-71.124 2.882-7.975 8.686-24.288 12.897-36.25 23.5-66.745 31.584-84.129 45.16-97.099 5.423-5.181 8.974-7.417 16.42-10.337l2.575-1.01 1.382 1.994c.76 1.096 2.267 2.521 3.348 3.166l1.967 1.173-2.674.881c-9.05 2.983-18.106 9.48-22.874 16.409-4.724 6.867-21.878 45.895-31.897 72.573-8.153 21.709-29.921 84.584-31.1 89.83-3.462 15.408-2.123 22.403 4.9 25.586 2.636 1.196 18.867 1.435 19.575.289.189-.306 8.727-23.877 18.973-52.38 10.247-28.504 18.786-51.999 18.976-52.211.19-.213 5.639 14.299 12.107 32.25l11.762 32.636 17.316.131 17.316.132-1.837-5.132c-1.01-2.822-10.192-28.361-20.404-56.753l-18.569-51.621 2.129-3.985c4.498-8.418 9.255-13.674 14.953-16.522l3.5-1.75 19.375-.152c14.634-.115 19.369-.298 19.349-.75-.014-.329-2.562-7.573-5.66-16.098l-5.634-15.5h-30.12l1.041-1.108c.573-.609 1.443-2.297 1.934-3.75l.893-2.642 3.489-.146c2.528-.106 4.345.142 6.592.899 6.114 2.06 13.289 1.78 18.816-.732 1.471-.668 2.763-.983 3.013-.733.241.241 21.583.499 47.675.575l47.237.137 2.911 1.43c12.344 6.061 10.359 24.293-8.257 75.82a4414 4414 0 0 0-11.901 33.5c-35.493 101.341-43.879 111.421-93.556 112.453l-14.302.297 5.802 16.186 5.803 16.187 12.5-.265c27.929-.591 42.604-6.209 59.023-22.596 19.145-19.108 28.915-38.484 52.829-104.762 5.506-15.262 11.8-32.7 13.985-38.75 17.741-49.125 21.628-76.223 13.737-95.76-4.444-11.003-13.76-19.462-25.84-23.467-8.308-2.753-6.79-2.664-49.059-2.881-36.995-.19-39.338-.254-39.554-1.081-1.562-5.975-13.024-6.331-18.772-.583-1.484 1.484-1.641 1.522-6.311 1.522-2.892 0-4.788.2-4.788.505 0 .278.879 3.056 1.954 6.173l1.955 5.668-.929 2.074c-2.141 4.782-4.918 5.886-6.177 2.455-.429-1.169-1.376-3.7-2.105-5.625-.881-2.328-1.451-5.091-1.703-8.25-.572-7.174-2.035-10.387-5.893-12.946-3.004-1.993-2.206-4.056 3.126-8.081 2.86-2.159 3.76-3.351 8.667-11.473 3.688-6.104 3.778-7.141 1.142-13.25-2.123-4.92-1.968-6.319 1.03-9.317 1.068-1.068 1.663-3.933 1.207-5.805-.207-.846-2.449-3.41-5.806-6.641-5.891-5.669-6.17-6.239-4.47-9.121 2.158-3.657 1.655-8.629-1.072-10.586C181.378 8.818 169.618 4.179 159 5.831m10.234 5.005c7.069 2.481 19.919 17.017 26.001 29.414 5.517 11.244 6.208 17.963 3.266 31.75-.909 4.263-1.621 8.088-1.581 8.5.039.412.207 1.68.373 2.818.284 1.951.159 2.224-2.217 4.848-4.928 5.442-5.109 6.732-1.306 9.348 4.285 2.948 5.718 6.891 5.726 15.756.016 16.629 11.202 19.368 15.253 3.736 2.894-11.171 12.506-17.779 19.31-13.276 2.449 1.62 2.364 2.625-.309 3.652-5.048 1.938-5.773 3.053-8.461 13.014-4 14.824-9.017 19.186-21.266 18.487-9.868-.562-14.124-4.52-17.531-16.303-1.113-3.85-3.2-6.705-5.353-7.321l-1.11-.317 1.254 2.74c7.168 15.656 3.726 31.513-6.257 28.825-4.218-1.136-6.196-4.408-10.342-17.108-4.254-13.035-7.34-18.654-9.584-17.453-1.724.923-1.696 2.036.132 5.306 7.323 13.093 1.722 30.124-10.788 32.807-6.798 1.458-17.768-2.767-20.135-7.755-1.547-3.261-.804-10.374 1.326-12.679 1.82-1.97 2.127-1.446 1.943 3.314-.261 6.707 2.757 9.336 9.146 7.966 7.62-1.634 7.788-7.873.535-19.875-7.415-12.271-7.46-13.913-.556-20.326 4.628-4.298 5.217-6.904 1.797-7.952-3.866-1.185-5.2-3.694-5.974-11.232-.287-2.793-.965-6.43-1.508-8.084-9.978-30.394 14.718-70.847 38.216-62.6m18.02 67.759c-3.352 3.089-3.816 7.852-1.002 10.28 3.663 3.16 8.799-.844 8.054-6.279-.741-5.41-3.7-7.088-7.052-4.001m-48.797.045c-3.873 2.61-4.972 7.572-2.275 10.27 3.566 3.565 9.191-.401 8.715-6.144-.417-5.033-2.815-6.569-6.44-4.126m87.7 27.624c-3.355 2.011-5.157 6.847-6.666 17.889-.331 2.421-.495 4.509-.365 4.64.458.457 2.466-4.963 3.882-10.477 1.935-7.535 2.556-8.839 5.344-11.227 2.903-2.487 1.473-3.024-2.195-.825m-63.65 8.921c.833 1.477 2.519 5.448 3.747 8.826 2.285 6.286 3.078 7.895 2.584 5.239-.154-.825-.543-3.525-.865-6-.682-5.252-1.862-7.713-4.549-9.491-2.598-1.719-2.648-1.641-.917 1.426M155 134.331c0 .274-1.222 1.849-2.717 3.501-5.773 6.379-14.723 8.255-23.533 4.931-.685-.258-.527.031.5.917 4.124 3.557 12.854 4.865 17.453 2.615 3.554-1.739 9.96-10.799 8.598-12.16-.165-.166-.301-.078-.301.196m134.352 13.794c-2.7 7.739-37.011 102.742-37.279 103.224-.183.329-5.648-14.184-12.144-32.25l-11.81-32.849-17.366-.132c-16.414-.124-17.346-.083-17.022.75 1.401 3.595 39.536 109.762 39.919 111.132 1.348 4.821-8.704 18.248-16.556 22.115l-3.321 1.635-19.419.142c-18.237.133-19.41.195-19.262 1.024.087.485 2.633 7.806 5.658 16.269l5.5 15.387 16.25-.228c17.173-.24 18.736-.419 26.25-2.998 11.603-3.984 20.315-11.244 25.365-21.137 12.683-24.848 24.745-54.412 40.477-99.209 21.258-60.533 21.539-61.46 21.544-71 .006-11.439-3.297-14-18.06-14h-7.982"/></svg>
