<svg id="java" viewBox="0 0 305 305" xmlns="http://www.w3.org/2000/svg"><path d="M150.99 56.513c-14.093 9.912-30.066 21.147-38.624 39.734-14.865 32.426 30.418 67.798 32.353 69.288a2.5 2.5 0 003.744-3.133c-.164-.316-16.418-31.888-15.814-54.539.214-7.888 11.254-16.837 22.942-26.312 10.705-8.678 22.839-18.514 29.939-30.02 15.586-25.327-1.737-50.231-1.914-50.479a2.501 2.501 0 00-4.482 1.971c.035.164 3.404 16.633-5.97 33.6-3.863 7.011-12.348 12.98-22.174 19.89zM210.365 67.682a2.5 2.5 0 00-2.393-4.334c-2.394.91-58.627 22.585-58.627 48.776 0 18.053 7.712 27.591 13.343 34.556 2.209 2.731 4.116 5.09 4.744 7.104 1.769 5.804-2.422 16.294-4.184 19.846a2.5 2.5 0 003.666 3.164c.967-.673 23.63-16.696 19.565-36.001-1.514-7.337-5.12-12.699-8.302-17.43-4.929-7.329-8.489-12.624-3.088-22.403 6.33-11.404 34.987-33.061 35.276-33.278zM63.99 177.659c-.964 2.885-.509 5.75 1.315 8.283 6.096 8.462 27.688 13.123 60.802 13.123h.004c4.487 0 9.224-.088 14.076-.262 52.943-1.896 72.58-18.389 73.39-19.09a2.5 2.5 0 00-2.294-4.302c-18.645 5.091-53.463 6.898-77.613 6.898-27.023 0-40.785-1.946-44.154-3.383 1.729-2.374 12.392-6.613 25.605-9.212a2.499 2.499 0 00-.482-4.953c-7.746.001-46.589.623-50.649 12.898zm177.158-16.986c-10.92 0-21.275 5.472-21.711 5.705a2.502 2.502 0 001.178 4.704c.232.001 23.293.189 25.382 13.365 1.85 11.367-21.82 29.785-31.097 35.923a2.5 2.5 0 001.9 4.529c2.202-.47 53.855-11.852 48.394-41.927-3.332-18.431-14.916-22.299-24.046-22.299zm-35.423 56.017a2.5 2.5 0 00-1.023-2.506l-12.385-8.675a2.506 2.506 0 00-2.076-.368c-.129.034-13.081 3.438-31.885 5.526-7.463.837-15.822 1.279-24.175 1.279-18.799 0-31.091-2.209-32.881-3.829-.237-.455-.162-.662-.12-.777.325-.905 2.068-1.98 3.192-2.405a2.5 2.5 0 00-1.454-4.775c-12.424 2.998-18.499 7.191-18.057 12.461.785 9.343 22.428 14.139 40.725 15.408 2.631.18 5.477.272 8.456.272h.005c30.425 0 69.429-9.546 69.819-9.643a2.501 2.501 0 001.859-1.968zm-93.374 20.055a2.498 2.498 0 001.021-2.838c-.332-1.068-1.331-1.769-2.453-1.755-1.665.044-16.292.704-17.316 10.017-.31 2.783.487 5.325 2.37 7.556 5.252 6.224 19.428 9.923 43.332 11.31 2.828.169 5.7.254 8.539.254 30.39 0 50.857-9.515 51.714-9.92a2.5 2.5 0 00.235-4.394l-15.652-9.555a2.517 2.517 0 00-1.813-.314c-.099.021-10.037 2.082-25.035 4.119-2.838.385-6.392.581-10.562.581-14.982 0-31.646-2.448-34.842-4.05-.046-.301.013-.681.462-1.011zM133.681 290.018c69.61-.059 106.971-12.438 114.168-20.228 2.548-2.757 2.823-5.366 2.606-7.07-.535-4.194-4.354-6.761-4.788-7.04-1.045-.672-2.447-.496-3.262.444-.813.941-.832 2.314-.016 3.253.439.565.693 1.51-.591 2.795-2.877 2.687-31.897 10.844-80.215 13.294-6.619.345-13.561.519-20.633.52-43.262 0-74.923-5.925-79.079-9.379 1.603-2.301 12.801-5.979 24.711-8.058a2.5 2.5 0 00-.764-4.941c-.336.045-1.475.115-2.796.195-19.651 1.2-42.36 3.875-43.545 13.999-.36 3.086.557 5.886 2.726 8.324 5.307 5.963 20.562 13.891 91.475 13.891l.003.001zM261.522 271.985a2.498 2.498 0 00-2.881.567c-.103.11-10.568 11.054-42.035 17.48-12.047 2.414-34.66 3.638-67.211 3.638-32.612 0-63.643-1.283-63.953-1.296a2.486 2.486 0 00-2.581 2.155 2.5 2.5 0 001.897 2.775c.323.077 32.844 7.696 77.31 7.696 21.327 0 42.08-1.733 61.684-5.151 36.553-6.408 39.112-24.533 39.203-25.301a2.501 2.501 0 00-1.433-2.563" fill="currentColor"/></svg>
