<svg xmlns="http://www.w3.org/2000/svg" id="jelly" viewBox="0 0 400 289.167"><path fill="currentColor" d="M188.021 1.468c-33.855 5.779-44.13 8.132-56.563 12.954-30.123 11.684-48.06 36.724-65.216 91.044l-.904 2.862-2.617 1.49c-73.024 41.585-83.509 101.29-24.591 140.027 37.209 24.464 95.504 37.754 172.183 39.255 58.523 1.145 132.957-23.387 166.875-54.999 40.435-37.687 27.061-78.853-38.35-118.05-3.062-1.834-5.598-3.367-5.636-3.405s-1.606-4.235-3.484-9.326c-4.122-11.178-6.758-18.112-9.26-24.362-22.233-55.533-38.16-66.204-116.291-77.911-8.286-1.242-6.07-1.3-16.146.421m12.083 5.711c5.281.925 11.469 2.889 19.235 6.106l2.361.977-.139.942c-.076.518-.429 2.161-.784 3.65-1.472 6.178-.797 8.77 2.539 9.748 2 .586 10.325 6.646 12.792 9.31 3.951 4.268 2.677 5.762-6.665 7.816-2.386.524-5.276 1.238-6.422 1.586-11.733 3.565-12.442 10.959-2.339 24.403 1.936 2.577 1.987 2.602 1.325.657-3.644-10.716-.811-20.634 6.51-22.784 14.567-4.278 35.228 18.752 49.3 54.953.759 1.954.902 1.624.703-1.634-.837-13.764-6.9-25.571-24.87-48.43-6.368-8.1-8.65-11.127-8.65-11.472 0-.406 2.671-2.756 4.052-3.566 6.537-3.832 13.163-2.888 29.78 4.243 9.418 4.042 12.692 5.053 16.391 5.061l1.993.005 1.001 1.391c5.053 7.024 13.625 25.032 20.015 42.047 11.332 30.172 16.572 56.826 14.25 72.486-.318 2.143-1.24 5.951-1.441 5.951-.605 0-2.884-8.642-4.371-16.577-2.621-13.982-3.652-18.043-5.851-23.038-1.126-2.561-3.125-5.962-4.205-7.156-.234-.259-.248-.344 1.63 9.375 1.927 9.976 2.855 15.12 3.512 19.479 5.377 35.663-1.934 50.574-22.97 46.85-1.866-.33-1.743.56-2.855-20.704-1.304-24.934-2.766-35.187-6.707-47.045-1.251-3.761-1.601-4.403-2.501-4.581-2.444-.483-2.549 3.259-.463 16.522 3.355 21.33 4.13 28.867 3.88 37.708-.343 12.084-2.817 19.164-8.776 25.11-7.655 7.639-19.243 10.588-28.948 7.368-2.318-.77-5.709-2.438-5.847-2.877-.315-.999-.481-6.343-.308-9.913.733-15.115.348-20.111-1.913-24.848-.764-1.601-.845-1.557-1.618.855-1.233 3.848-1.312 4.716-1.481 16.285-.208 14.244-.842 17.088-4.853 21.77-1.762 2.059-16.346 5.73-26.917 6.777-31.819 3.151-51.034-10.86-51.223-37.349-.015-2.091-.074-3.799-.131-3.796-.236.014-1.479 1.864-1.963 2.921-1.309 2.86-1.533 6.147-1.085 15.927.268 5.846-.294 8.526-2.361 11.264l-.807 1.069-2.569.68c-23.843 6.312-36.433-.413-39.435-21.061-1.588-10.923-.305-25.542 4.534-51.692.536-2.898.54-2.865-.289-2.865-5.398 0-12.479 35.191-11.442 56.865l.105 2.176-1.537.483c-10.911 3.43-18.561-1.43-21.88-13.899-3.686-13.844-2.287-35.34 3.519-54.062 8.371-26.997 9.865-40.57 2.679-24.338-6.614 14.94-13.141 38.509-15.518 56.037-.609 4.489-.638 4.565-2.108 5.426-5.011 2.937-5.81-6.208-2.227-25.458 3.864-20.754 12.616-50.6 17.807-60.727.559-1.09 1.356-2.966 1.772-4.169 9.65-27.955 25.359-44.699 45.513-48.512 9.334-1.766 16.226-1.087 23.021 2.268 4.658 2.3 6.018 4.843 4.054 7.579-.818 1.138-.447 1.152-4.262-.164-15.717-5.421-33.351.152-45.226 14.295-7.754 9.233-6.152 12.868 1.953 4.432 4.202-4.372 6.6-6.1 12.44-8.959 13.046-6.389 25.328-7.297 30.903-2.284l1.068.96-.297.711c-.724 1.732-2.536 3.897-8.953 10.696-13.592 14.402-18.867 22.172-20.239 29.811-.422 2.352-.229 6.669.299 6.666.264-.001 3.578-4.653 6.315-8.863 9.223-14.191 11.083-16.833 14.828-21.073 7.773-8.797 16.343-12.456 24.826-10.598 9.166 2.007 9.651 4.034 4.339 18.139-8.304 22.05-12.571 38.192-16.216 61.346-2.058 13.073-2.378 17.201-1.408 18.171l.466.465.576-.422c1.445-1.057 2.972-5.395 2.972-8.442 0-.876.221-2.522.513-3.828.283-1.26 1.265-6.321 2.182-11.248.918-4.928 1.993-10.553 2.388-12.5 8.517-41.899 20.25-61.446 36.836-61.371l2.291.01-.135-.57c-1.282-5.422-11.1-4.392-20.217 2.122l-1.037.741-.942-.916c-3.459-3.363-8.006-5.467-16.445-7.611-4.825-1.226-6.233-1.707-7.081-2.421l-.599-.503.815-1.89c2.38-5.522 2.365-9.673-.047-12.591-2.291-2.771-4.698-3.899-14.876-6.973-6.144-1.855-9.366-3.769-8.871-5.269 2.295-6.954 37.47-5.787 44.97 1.491 3.722 3.612-.702 7.855-12.974 12.446l-2.709 1.013 12.604.063c16.422.083 25.759-.343 28.506-1.3l.765-.267-1.562-.25c-7.187-1.147-13.894-4.878-17.965-9.992-4.813-6.047-3.88-11.702 2.131-12.915a74 74 0 0 0 1.563-.328c.807-.187 5.855.073 7.708.397m56.146 7.423c4.81.554 7.387 1.929 6.571 3.506-1.537 2.974-17.53 7.207-38.271 10.13l-.97.137-.248-1.192c-.932-4.491 2.572-8.228 9.932-10.593 6.244-2.007 15.716-2.826 22.986-1.988m6.88 11.436c14.468.703 26.424 7.957 29.077 17.642.506 1.847.392 2.009-1.34 1.912-1.759-.1-2.632-.595-6.663-3.782-8.622-6.816-12.979-8.571-21.287-8.577-6.27-.005-9.706.723-16.824 3.565l-3.387 1.352-1.023-.557c-5.568-3.03-3.622-6.812 4.911-9.546 5.761-1.846 9.795-2.336 16.536-2.009m-36.085 60.056c-1.937 3.479 3.005 42.334 7.744 60.885 2.185 8.551 3.776 11.605 5.02 9.636.506-.802.48-1.382-.316-7.136-.285-2.062-1.135-9.281-1.888-16.041-2.486-22.326-3.948-30.752-7.081-40.801-1.928-6.184-2.783-7.792-3.479-6.543m111.971 39.037c6.91 3.472 17.37 9.85 24.191 14.752 41.197 29.605 42.57 62.285 3.844 91.531-33.572 25.354-93.47 43.645-149.551 45.669-3.266.118-7.437.317-9.271.443-44.141 3.034-117.773-13.984-159.104-36.773-56.195-30.984-58.792-68.098-7.389-105.569 15.785-11.507 19.829-12.453 17.844-4.175-1.139 4.754-3.501 9.448-7.539 14.985-20.677 28.351-17.04 55.697 10.305 77.494 26.318 20.979 72.595 35.252 121.092 37.35 7.909.342 30.963.367 34.895.037 44.104-3.692 86.163-16.306 112.188-33.645 31.12-20.734 37.421-46.431 18.376-74.938-.804-1.203-2.511-3.594-3.793-5.313-6.059-8.124-9.013-16.341-7.89-21.953.158-.794-.006-.803 1.802.105m6.328 30.341c18.23 24.377 12.424 46.836-17.129 66.256-25.578 16.808-70.048 30.19-107.798 32.44-5.958.355-34.404.148-39.479-.287-39.383-3.376-80.213-14.623-104.896-28.893-32.62-18.859-40.52-41.638-23.419-67.526 2.089-3.162 2.079-3.154 2.241-1.779.555 4.725 5.658 16.705 10.758 25.255 7.774 13.032 15.626 21.472 20.468 22.002 7.517.822 12.667 2.956 23.09 9.571 7.496 4.757 11.407 6.731 16.085 8.121 2.603.773 2.127.783 11.765-.231 15.323-1.613 15.694-1.582 27.033 2.207 14.375 4.804 26.418 8.18 30.104 8.439 19.888 1.397 32.841-1.796 48.657-11.998 1.582-1.02 1.71-1.066 2.225-.796 10.503 5.503 36.313.75 56.917-10.481 24.391-13.296 39.053-31.965 40.993-52.199.141-1.461.305-2.655.367-2.653.061.001.969 1.15 2.018 2.552"/></svg>
