<svg xmlns="http://www.w3.org/2000/svg" id="jelly" viewBox="0 0 400 205.116"><path fill="currentColor" d="M283.997 19.063c-2.324 1.035-4.8 4.881-5.622 8.732-.531 2.494-.631 3.32-.631 5.225 0 5.881 2.435 10.378 5.608 10.356 5.798-.039 10.055-11.746 7.478-20.563-.854-2.922-4.366-4.85-6.833-3.75m-193.33 5.906c-3.747 1.407-3.356 10.134.65 14.517 4.769 5.219 9.059-.319 6.407-8.271-1.377-4.131-4.748-7.114-7.057-6.246m112.82 3.456c-2.495.277-4.462.6-6.256 1.025-3.052.724-4.529 1.256-8.103 2.92-10.035 4.672-15.758 17.838-9.207 21.181 1.94.989 3.356.443 6.238-2.408 7.432-7.353 16.097-10.539 22.456-8.255 5.061 1.818 7.503 1.63 10.074-.775 3.905-3.653 1.913-9.02-4.457-12.001-2.672-1.25-7.65-2.032-10.745-1.687m113.89 3.072c-3.977 1.251-6.806 5.038-5.991 8.019.765 2.795 2.619 4.361 7.367 6.223 7.891 3.096 11.969 7.117 16.647 16.415 5.257 10.448 9.066 12.873 11.921 7.59 2.274-4.21 1.525-7.087-3.924-15.077-1.462-2.144-3.625-5.513-4.806-7.488-4.213-7.045-6.737-9.881-12.129-13.63-3.35-2.328-6.177-2.967-9.085-2.052m-59.116 7.399c-10.996 2.403-15.441 13.96-13.127 34.13.414 3.606.604 8.235.807 19.589.252 14.121.433 17.019 1.47 23.551.702 4.419 1.589 7.738 2.768 10.353.268.596.488 1.127.488 1.182 0 .212 2.153 3.527 2.829 4.356 5.951 7.291 28.552 12.357 41.786 9.366l2.154-.487c4.653-1.054 9.005-4.691 10.421-8.71.593-1.685.771-7.496.287-9.405-.135-.536-.35-1.413-.475-1.949-1.545-6.575-7.214-10.672-17.515-12.657-11.128-2.144-11.263-2.225-12.187-7.292-.392-2.15-.931-6.162-1.474-10.974-.31-2.749-.312-16.223-.002-18.979.133-1.182.344-2.934.47-3.893.296-2.256.276-8.58-.033-10.503-.515-3.21-1.238-6.223-1.837-7.651-3.463-8.252-9.23-11.688-16.83-10.027m-52.312 9.815c-7.088 1.077-11.813 6.275-13.919 15.315-.92 3.95-.956 4.454-.893 12.795.033 4.483-.04 9.397-.167 11.179-.288 4.023-1.067 11.283-1.608 14.974-2.568 17.526-3.046 23.29-2.478 29.847.786 9.058 3.173 14.584 8.881 20.556 5.892 6.164 11.647 8.594 18.657 7.877 1.375-.141 3.687-.388 5.136-.55 6.261-.698 13.889-.244 19.006 1.131.395.106 1.041.276 1.436.378s1.872.579 3.282 1.059c8.031 2.736 13.604-1.728 14.54-11.648 1.34-14.207-9.062-23.979-23.976-22.525-17.061 1.663-19.698-1.409-13.148-15.32.575-1.221 1.046-2.254 1.046-2.296s.379-.887.842-1.881c2.223-4.765 2.619-5.736 3.78-9.25.846-2.56 1.104-3.504 1.824-6.66.875-3.839 1.14-6.692 1.14-12.256 0-9.244-1.295-16.006-4.244-22.154-2.904-6.056-8.238-9.878-14.727-10.551a453 453 0 0 1-1.949-.206c-.395-.043-1.502.041-2.461.186m-130.564.85c-7.701 1.856-12.774 6.653-15.151 14.33-1.905 6.15-1.607 12.169 1.007 20.314.235.733 2.291 5.931 2.758 6.974.877 1.959 3.643 10.32 4.636 14.018 2.68 9.969 3.446 19.8 1.881 24.136-1.923 5.332-5.963 6.875-12.26 4.686-9.89-3.439-22.364.675-26.449 8.722-3.775 7.437-.725 17.286 6.98 22.54 6.686 4.558 22.422 6.426 34.649 4.112 3.87-.732 4.387-.853 7.385-1.732 5.746-1.683 11.307-4.47 14.41-7.219 3.938-3.491 6.525-8.111 8.28-14.789.513-1.951.614-2.452 1.246-6.166.417-2.449.48-11.61.102-14.666-.722-5.835-1.617-10.025-3.22-15.077-.633-1.995-.707-2.288-1.425-5.641-.729-3.398-1.173-6.853-1.543-12-.954-13.25-1.152-15.857-1.422-18.77-.285-3.067-.792-6.376-1.241-8.102a95 95 0 0 1-.429-1.744c-1.673-7.105-5.003-11.597-9.938-13.408-2.38-.874-7.67-1.141-10.256-.518m68.205.52c-11.673 1.056-23.56 4.981-31.91 10.537-5.555 3.696-7.036 6.666-7.673 15.382-.373 5.102.497 16.59 2.05 27.077l.393 2.667c.517 3.526 1.059 7.1 1.23 8.102.105.621.294 1.775.419 2.564.124.79.414 2.544.644 3.898.229 1.354.498 3.015.597 3.692s.278 1.831.398 2.564c.319 1.953 1.246 8.49 1.44 10.154 1.766 15.139 7.48 23.946 18.566 28.616 6.238 2.627 17.246 2.812 28.82.483 10.467-2.106 18.615-4.933 21.805-7.564 4.373-3.607 6.138-11.443 4.043-17.945-.09-.282-.323-1.049-.516-1.705-1.493-5.058-5.569-9.81-9.365-10.919-1.957-.571-7.839-.519-11.967.105-4.7.71-5.575.861-10.154 1.751-1.523.296-3.369.626-4.102.732-.734.107-1.46.24-1.614.297-.709.26-5.689.111-6.416-.193-3.636-1.519-2.829-5.79 1.501-7.945 2.664-1.326 3.352-1.409 12.272-1.489 4.821-.043 8.257-.159 8.821-.297a77 77 0 0 1 2.051-.465c12.721-2.687 11.658-20.9-1.474-25.272-2.509-.835-3.337-.959-6.411-.959-2.928 0-3.6.083-6.782.836-.902.214-2.148.491-2.769.617-.62.126-1.497.312-1.949.412-8.759 1.958-14.874.299-14.871-4.033.003-3.502 2.506-4.188 16.82-4.608 10.145-.298 12.881-.663 15.673-2.087 8.56-4.367 11.25-18.242 5.242-27.035-1.973-2.887-5.143-5.047-9.632-6.564-4.111-1.388-9.675-1.904-15.18-1.406m160.641 2.858c-7.596.985-11.723 6.141-11.079 13.844.523 6.264 2.622 11.628 8.218 20.997.769 1.289 1.399 2.372 1.399 2.406s.3.551.667 1.148l.915 1.492c.136.222 1.144 1.928 2.239 3.789a1101 1101 0 0 0 2.85 4.821c7.116 11.897 8.965 19.12 6.903 26.974-.103.395-.647 1.827-1.208 3.181-5.147 12.424-4.828 26.204.769 33.238 4.63 5.819 14.397 6.645 19.378 1.639 4.126-4.145 5.625-11.707 5.637-28.432.004-6.679.228-9.186 1.039-11.656 3.311-10.085 16.844-22.34 30.042-27.203 15.805-5.824 19.554-31.325 5.157-35.075-1.299-.339-5.125-.415-6.285-.126-.395.099-1.272.299-1.949.446-10.124 2.192-23.397 11.558-27.972 19.737-3.882 6.939-4.232 6.859-6.48-1.492L333.752 80c-3.971-14.631-10.712-24.472-17.881-26.105a55 55 0 0 1-1.615-.42c-2.517-.69-6.991-.929-10.025-.536m-126.693 3.649c-2.52 1.148-3.272 3.735-1.56 5.364 2.349 2.233 6.735 1.129 7.573-1.908.75-2.714-2.96-4.846-6.013-3.456M39.646 91.711c-4.792 2.373-3.332 12.46 2.5 17.271 5.12 4.223 13.892 4.214 14.738-.017.314-1.57-.323-2.525-4.635-6.959-3.47-3.568-5.429-5.816-6.394-7.339-1.764-2.784-4.206-3.947-6.209-2.956m330.397 14.735c-7.97 2.509-19.12 15.959-21.864 26.375-1.464 5.558.958 10.197 4.599 8.809 1.62-.618 2.595-1.729 7.939-9.048 2.516-3.445 5.187-5.751 7.93-6.843 7.406-2.948 11.25-7.083 11.25-12.099 0-5.498-4.591-8.85-9.854-7.194m-343.479 19.53c-4.101.953-7.976 3.36-10.193 6.332-2.826 3.789-3.208 8.828-.768 10.135l.731.391 1.525-.741c.839-.407 1.803-.98 2.141-1.274.338-.293 1.112-.967 1.719-1.497 1.448-1.263 4.377-4.643 5.813-6.707 3.54-5.088 3.173-7.602-.968-6.639m168.205 46.403c-5.254 2.115-5.805 7.706-1.241 12.603 7.57 8.124 20.629 9.49 18.753 1.962-.308-1.239-2.878-5.022-4.09-6.021-.069-.056-.821-1.026-1.673-2.154-4.035-5.346-8.418-7.73-11.749-6.39"/></svg>
