<svg xmlns="http://www.w3.org/2000/svg" id="kamilalisp" viewBox="0 0 345 344"><path fill="currentColor" d="M142.5 342.12C4.988 317.09-48.46 148.998 49.926 50.978 154.975-53.682 330.891 10.755 344.153 158.75c9.872 110.164-92.485 203.242-201.653 183.37m60.577-17.033c123.62-26.555 167.546-178.525 76.788-265.658C188.132-28.639 34.17 25.566 17.493 151.801 3.577 257.137 100.052 347.218 203.077 325.087m7.676-29.137c-21.273-3.511-28.538-24.25-29.622-84.566l-.631-35.116-36 56.826-36 56.826-13.75.04c-7.562.022-13.75-.166-13.75-.417s23.175-34.648 51.5-76.437l51.5-75.98-.008-11.313c-.04-54.191-24.1-74.84-48.532-41.652l-4.184 5.685-3.388-2.039c-1.864-1.12-3.53-2.165-3.703-2.321-1.773-1.593 12.153-22.766 19.222-29.227 15.017-13.725 38.201-10.167 46.534 7.141 5.351 11.117 5.312 10.525 6.066 91.6.744 79.934 1.067 85.488 5.857 100.832 7.965 25.509 32.145 24.411 49.835-2.263l4.962-7.484 3.667 2.492 3.666 2.491-3.125 6.216c-14.288 28.421-31.54 41.732-50.116 38.666"/></svg>
