<svg xmlns="http://www.w3.org/2000/svg" id="malbolge" viewBox="0 0 400 400"><path fill="currentColor" d="M140.74 1.757C94.592 9.514 68.078 59.752 86.292 104.921c4.45 11.036 10.98 20.593 19.508 28.548l5.336 4.977.414 10.947c.228 6.02.826 13.177 1.332 15.905.505 2.728.702 4.96.437 4.96-1.3 0-8.497-7.493-17.337-18.048-5.395-6.44-11.245-13.097-13-14.79l-3.193-3.078 2.35 6.5c6.899 19.096 8.554 25.901 10.352 42.561 1.386 12.828 2.204 15.22 7.509 21.969 1.84 2.34 2.064 3.142 2.106 7.538.101 10.689 9.4 20.908 19.088 20.98 2.836.021 3.295.985 3.952 8.298.57 6.358.254 22.035-.514 25.555-.164.753.484-.297 1.44-2.333 2.096-4.465 4.869-13.812 5.494-18.524 1.32-9.948 3.228.921 4.383 24.962.915 19.037 2.011 27.148 4.95 36.6l2.233 7.182.416-7.524c.952-17.3 2.867-19.128 3.58-3.42.759 16.68 3.402 28.375 8.759 38.73 2.892 5.592 5.214 9.023 4.345 6.42-2.678-8.02-3.853-33.247-1.912-41.046l.682-2.736.476 3.42c2.542 18.302 8.014 33.186 20.06 54.557 4.032 7.155 4.858 8.178 3.317 4.105-3.198-8.445-7.317-44.056-4.829-41.745.296.274 2.144 4.276 4.108 8.893 1.965 4.618 6.04 13.63 9.056 20.025 7.763 16.464 11.302 27.545 12.893 40.363l.509 4.105 1.507-8.632c2.085-11.932 4.798-19.704 13.037-37.343 3.902-8.356 8.254-18.052 9.67-21.55l2.576-6.36.212 6.5c.358 10.933-2.305 31.177-4.685 35.623-1.679 3.138-.393 1.911 1.787-1.704 12.556-20.823 19.036-38.205 21.188-56.837.688-5.96 1.497-3.085 2.266 8.046.808 11.695-.565 27.417-2.752 31.502-1.899 3.548.298 1.257 2.64-2.754 7.21-12.34 11.005-30.554 11.15-53.498.012-2.066.768-.036 1.765 4.747.574 2.75 1.053 8.054 1.066 11.785.014 3.732.113 6.683.22 6.558 3.262-3.816 6.366-22.17 7.564-44.727.92-17.324 1.617-24.034 2.806-26.992.227-.564.968 1.662 1.646 4.945 1.364 6.596 4.263 15.663 5.855 18.316l1.026 1.71-.332-2.053c-1.456-8.994-.815-31.394.928-32.471.482-.299 2.229-.73 3.88-.955 9.717-1.332 17.04-9.811 17.863-20.681.365-4.829.649-5.651 3.036-8.79 3.785-4.975 5.215-9.444 6.423-20.073 1.943-17.092 4.877-28.633 12.298-48.379.896-2.383-7.058 5.822-13.926 14.367-7.512 9.344-18.786 21.308-19.123 20.295-.124-.373.252-3.9.837-7.838s1.063-10.911 1.063-15.496v-8.336l5.82-5.508c31.973-30.266 33.946-79.547 4.416-110.306C289.137 2.907 259-4.577 237.54 5.313l-4.105 1.89 5.827-.3c45.838-2.37 71.081 53.238 34.133 75.189l-4.723 2.805-6.187-4.238c-33.375-22.859-80.508-22.872-114.69-.033l-6.284 4.2-2.267-1.167C99.862 63.418 120.44 7.31 167.312 7.133l9.128-.035-3.997-1.839c-7.205-3.314-22.667-5.021-31.704-3.502m154.834 24.838c2.83 2.446 5.168 4.639 5.195 4.872.091.75-5.724 1.4-5.968.667-.127-.377-1.736-3.193-3.577-6.257-3.636-6.049-3.441-6.017 4.35.718m-175.784-2.907c-.964 1.41-2.5 4.03-3.414 5.82l-1.66 3.256-2.895-.444c-1.59-.243-2.975-.508-3.077-.589-.274-.218 11.734-10.537 12.307-10.575.271-.018-.296 1.12-1.26 2.532m-7.756 16.657c-.768 2.77-1.4 5.965-1.405 7.101-.026 5.761-.727 6.034-7.598 2.962-5.562-2.488-5.189-3.16 1.796-3.241 4.874-.058 7.948-4.301 3.832-5.288-7.27-1.743-7.788-3.566-1.32-4.647 1.385-.23 3.232-1.002 4.106-1.714 2.14-1.745 2.222-1.07.589 4.827m191.798-2.815c2.208.36 4.148.785 4.309.946.32.32-7.107 3.854-8.1 3.854-.552 0-.153 2.983.572 4.276.159.281 2.04.534 4.181.56 6.714.083 7.067.759 1.69 3.237-6.571 3.029-6.766 2.979-7.317-1.893-.404-3.572-1.067-6.55-2.882-12.949l-.464-1.638 1.997 1.476c1.098.813 3.804 1.771 6.014 2.131M110.223 55.725c.228.596.425 1.904.438 2.908s.583 3.45 1.27 5.438c1.138 3.295 1.15 3.668.149 4.244-.963.552-.9.773.5 1.77.88.627 2.657 2.792 3.948 4.811 1.292 2.02 3.702 4.985 5.355 6.589 1.653 1.603 4.11 4.254 5.458 5.89 1.797 2.177 2.46 2.634 2.482 1.71.02-.886 1.24.061 4.093 3.184l4.064 4.448.011-2.908c.02-4.803 2.553-3.31 4.932 2.908l1.572 4.103.345-3.367c.575-5.596 3.798-4.054 7.528 3.6 2.21 4.532 2.638 4.433 2.505-.575-.125-4.674.132-4.891 2.488-2.091 6.112 7.263 2.98 19.237-6.716 25.673-3.834 2.544-5.625 2.814-3.564.537 1.158-1.28 2.042-3.35 2.845-6.658.467-1.925.338-1.858-2.379 1.227-2.823 3.208-4.143 3.853-2.831 1.382.366-.69 1.163-2.937 1.77-4.99l1.105-3.735-3.507 3.935c-3.08 3.457-11.554 10.064-11.554 9.009 0-.215 1.503-2.612 3.34-5.327 3.18-4.702 6.238-10.17 6.238-11.156 0-1.145-5.922.53-11.91 3.366-3.608 1.71-6.562 2.997-6.562 2.863 0-.135 2.001-2.899 4.447-6.142 6.766-8.97 5.837-9.41-7.98-3.787-6.415 2.61-6.449 2.414-.664-4.004 6.507-7.217 6.296-7.488-3.731-4.817-2.976.792-6.134 1.603-7.017 1.803-1.13.254.185-1.37 4.446-5.49 7.234-6.993 7.463-6.598-4.122-7.121-10.298-.466-10.877-.706-5.94-2.46 1.86-.66 5.324-2.077 7.696-3.147l4.314-1.948-3.078-.79a2042 2042 0 0 1-5.986-1.548c-3.408-.888-3.74-1.816-.856-2.392 4.067-.813.996-2.292-4.76-2.292-4.191 0-3.689-.702 2.87-4.018 7.921-4.004 7.986-4.362 1.053-5.897-6.614-1.465-8.262-2.119-6.688-2.66 9.12-3.129 11.997-3.604 12.583-2.078m196.335.617c3.345.925 6.21 1.812 6.369 1.97.157.158-2.81.996-6.594 1.863s-6.88 1.817-6.88 2.112c0 .763 6.57 4.428 10.432 5.821 4.156 1.5 4.127 2.27-.086 2.27-6.608 0-9.895 1.442-5.49 2.409q4.449.978-3.844 3.067c-5.963 1.501-5.774 1.92 2.31 5.127 8.502 3.374 8.562 3.748.611 3.823-3.48.033-7.868.275-9.749.537l-3.42.478 5.99 5.79c6.813 6.587 7.12 7.158 3.074 5.73-4.168-1.47-11.918-3.16-13.287-2.898-.886.172.036 1.588 3.838 5.895 5.912 6.7 5.893 6.86-.529 4.248-13.112-5.336-14.122-4.956-8.29 3.121 4.932 6.831 4.894 7.193-.462 4.497-7.412-3.73-13.251-5.417-13.251-3.828 0 .92 3.211 6.558 6.247 10.965 1.831 2.66 3.33 5.058 3.33 5.327 0 1.075-8.2-5.161-11.28-8.579-3.478-3.86-3.535-3.688-1.016 3.034 1.537 4.099.85 4.103-2.75.016-3.304-3.756-3.424-1.971-.255 3.85 2.147 3.945 1.885 4.019-2.9.823-10.467-6.99-12.904-20.114-5.03-27.093l1.544-1.369-.414 3.121c-.735 5.545.088 6.626 2.048 2.692 3.874-7.772 7.72-9.72 7.768-3.932l.028 3.591 1.311-2.394c.72-1.317 1.324-2.91 1.34-3.541.029-1.168 3.077-3.984 4.312-3.984.411 0 .509 1.149.247 2.908l-.433 2.908 3.87-4.32c2.596-2.899 4.037-4.047 4.381-3.49.494.797 2.44-1.036 6.264-5.898.735-.934 1.558-1.56 1.829-1.394.272.168 1.863-1.753 3.537-4.268 1.675-2.515 4.104-5.575 5.4-6.798 1.717-1.62 2.042-2.223 1.198-2.223-1.403 0-1.455-1.037-.232-4.532.511-1.459 1.146-4.114 1.41-5.9.266-1.789.694-3.247.953-3.243.26.005 3.208.766 6.551 1.691M165.836 86.155c2.66 1.003 7.913 4.117 7.552 4.478-.312.313-10.758-4.483-10.758-4.939 0-.464 1.218-.289 3.206.46m76.221 2.076c-3.16 1.482-5.87 2.572-6.022 2.42-.417-.417 4.08-3.06 7.076-4.158 5.19-1.902 4.59-.912-1.054 1.738M92.503 94.834c6.334 13.37 18.274 28.843 28.62 37.085 4.915 3.916 4.485 4.229-1.37.992-15.445-8.541-23.067-19.438-30.696-43.891-.783-2.508.645-.099 3.446 5.814m226.834-1.71c-5.063 17.66-16.091 32.83-28.65 39.407-6.82 3.572-7.661 3.381-2.535-.574 9.898-7.636 21.613-22.37 28.157-35.412 4.481-8.931 4.669-9.143 3.028-3.42M170.62 98.768c6.437 5.63 8.207 13.223 5.041 21.626-1.316 3.49-5.458 9.442-4.512 6.482 2.728-8.535 1.968-17.359-2.217-25.753-3.146-6.311-3.026-6.48 1.688-2.355m72.583-1.881c-5.167 5.893-7.768 20.486-5.017 28.155 1.345 3.753.997 4.218-1.028 1.375-7.093-9.961-6.295-21.05 2.002-27.82 3.602-2.938 6.015-3.96 4.043-1.71m-87.289 30.435c-2.62 3.807-6.79 7.58-10.429 9.437-4.008 2.044-3.319 1.146 4.832-6.304 7.847-7.17 8.704-7.65 5.597-3.133m107.856 7.588c1.632 1.44 2.844 2.741 2.692 2.892-.702.702-9.36-5.9-11.972-9.13-4.348-5.378-3.542-5.745 1.693-.77 2.54 2.415 5.954 5.568 7.587 7.008m-71.408 10.127c2.29 2.72 4.166 6.419 4.813 9.486.684 3.243.122 2.544-4.094-5.087-3.69-6.677-3.943-8.23-.72-4.399m26.2.764c-.915 1.6-2.671 4.695-3.901 6.882s-2.4 3.809-2.603 3.607c-1.152-1.152 5.684-13.396 7.478-13.396.38 0-.057 1.308-.974 2.907m69.544-1.673c-.389.262-1.85 1.365-3.248 2.452-1.4 1.088-2.702 1.82-2.895 1.626-.193-.193 1.123-1.443 2.924-2.777s3.421-2.28 3.6-2.102c.178.18.007.539-.381.801m-162.757 1.859c1.505 1.298 2.402 2.364 1.994 2.37-.406.005-1.946-1.055-3.42-2.356-1.473-1.302-2.372-2.367-1.995-2.37.376 0 1.916 1.06 3.42 2.356m30.122 8.913c5.867 1.528 9.663 4.264 17.85 12.87 6.704 7.045 13.264 12.749 14.662 12.749 3.571 0-.184-15.779-5.55-23.314-2.393-3.363-.288-2.23 4.349 2.338 12.17 11.993 13.594 29.215 2.582 31.23-6.34 1.158-11.962-.908-28.825-10.597-20.155-11.58-26.187-12.411-34.097-4.693-5.27 5.141-4.936 5.273-4.395-1.735 1.03-13.372 17.908-22.89 33.424-18.848m116.043.99c10.8 4.118 15.518 9.518 16.132 18.468.42 6.143-.023 6.614-2.683 2.85-6.306-8.92-14.606-8.895-30.659.094a12213 12213 0 0 1-13.34 7.457c-8.565 4.779-12.55 6.177-17.907 6.282-13.848.27-14.104-17.079-.459-31.006 5.01-5.113 7.37-6.228 4.096-1.936-4.338 5.687-8.394 22.42-5.434 22.42 1.529 0 8.614-6.106 15.36-13.24 12.19-12.889 22.305-16.19 34.894-11.39m-8.659 2.775c-2.42.402-2.224.466 1.711.56 2.445.06 5.216.277 6.157.486 1.232.274 1.423.203.683-.258-1.515-.942-5.437-1.304-8.55-.788m-125.463.59c-.57.36 1.496.457 5.132.24 3.346-.2 6.213-.476 6.37-.615.626-.553-10.613-.188-11.502.374m-23.95 29.268c.865 1.789 1.305 3.853 1.165 5.473l-.224 2.602-1.093-2.394c-1.87-4.097-5.898-6.621-6.555-4.108-.654 2.502-1.568 1.42-1.584-1.878-.015-2.957-.318-4.66-1.736-9.75-.72-2.58 8.275 6.438 10.026 10.055m192.446-8.515c-.567 1.6-1.22 4.893-1.45 7.318-.39 4.127-.48 4.316-1.402 2.927-1.607-2.42-7.001 1.397-7.001 4.953 0 .577-.308 1.05-.684 1.05-3.058 0 .78-9.055 6.252-14.754 4.965-5.17 5.678-5.419 4.285-1.494m-147.36 9.387c4.704 2.208 10.188 4.542 12.188 5.188 4.17 1.348 3.986 1.826-1.435 3.73-9.23 3.245-15.431.237-21.279-10.317l-1.976-3.566 1.976.476c1.087.263 5.823 2.283 10.527 4.49m104.669-4.458c0 .903-4.523 7.865-6.39 9.838-4.756 5.024-9.483 5.968-17.198 3.436-4.844-1.59-5.5-2.368-2.58-3.06 1.035-.245 6.5-2.524 12.144-5.066 12.404-5.584 14.024-6.18 14.024-5.148m14.266 4.437c.431 2.612.816 6.23.854 8.038l.07 3.29.926-4.105c.51-2.257.95-5.182.977-6.5.06-2.791.925-1.756 1.719 2.053.748 3.599 3.377 8.82 6.55 13.014 5.47 7.225 5.74 10.857 1.1 14.779-6.11 5.167-12.253 5.876-29.883 3.455-6.961-.956-14.285-1.9-16.276-2.099l-3.62-.358-5.18 4.921c-6.523 6.195-12.6 15.997-6.716 10.83 3.57-3.134 7.262-4.795 13.866-6.238 7.213-1.577 7.205-1.583 2.921 2.424-2.133 1.995-4.385 5.081-5.86 8.029-2.976 5.95-3.142 7.609-.513 5.156 2.163-2.02 7.695-5.566 7.695-4.934 0 .234-1.5 2.316-3.334 4.627s-4.827 6.628-6.654 9.592l-3.318 5.392-.788-5.095c-1.857-12.005-6.572-10.23-9.56 3.598-1.252 5.795-2.342 7.096-2.342 2.796 0-5.253-5.675-14.16-8.077-12.68-2.062 1.271-5.563 7.922-6.412 12.18l-.828 4.153-.615-2.394c-2.259-8.815-5.104-14.322-7.415-14.352-1.93-.026-6.016 6.777-6.887 11.466-.966 5.19-1.073 5.098-3.018-2.597-3.442-13.615-6.904-13.737-9.671-.342l-.564 2.727-2.636-4.34c-1.451-2.387-4.467-6.643-6.703-9.457-4.953-6.233-4.77-6.648 1.148-2.597 4.033 2.761 4.53 2.952 4.1 1.569-1.287-4.152-3.657-7.993-7.396-11.99-3.378-3.612-3.805-4.316-2.438-4.02.912.196 3.505.713 5.762 1.148 4.813.927 9.584 3.2 12.973 6.174 1.33 1.168 2.42 1.929 2.42 1.689 0-1.918-4.228-7.804-8.779-12.221l-5.492-5.332-3.639.42c-2.002.23-9.335 1.202-16.296 2.158-27.526 3.781-39.66-3.373-29.35-17.304 4.258-5.753 5.78-8.648 6.835-13 1.232-5.083 1.713-4.922 2.683.898l.89 5.338.96-6.499c1.03-6.987 2.248-9.704 2.248-5.019 0 22.631 15.563 30.587 35.889 18.348 2.196-1.324 4.091-2.309 4.211-2.189.471.471-6.13 6.771-9.505 9.07-2.571 1.753-3.094 2.34-1.863 2.093.942-.189 4.174-.545 7.183-.793 3.01-.247 7.243-1 9.407-1.672 4.551-1.415 4.857-1.08 1.405 1.54-3.118 2.366-1.574 2.429 3.048.126 4.178-2.082 6.602-4.694 10.413-11.218 8.254-14.135 12.238-13.958 22.089.977 5.067 7.683 8.285 10.566 13.083 11.718 1.976.476 1.976.474-.684-2.045l-2.664-2.522 2.557 1.016c3.409 1.356 19.822 3.527 18.462 2.442-.272-.217-2.195-1.67-4.272-3.229-3.255-2.44-6.827-6.249-6.827-7.277 0-.176 1.752.735 3.892 2.024 12.551 7.557 24.341 8.033 29.377 1.183 4.009-5.452 6.409-12.718 6.409-19.395 0-4.887 1.04-4.161 1.953 1.362m-77.205 6.882c-1.056 1.13-2.262 3.054-2.68 4.276l-.761 2.222 1.695-2.053c.934-1.128 1.708-2.275 1.722-2.548.013-.272.98-.989 2.147-1.593 2.92-1.51 5.07-.499 8.31 3.906 3.084 4.191 3.312 3.613.506-1.28-3.223-5.621-7.385-6.736-10.94-2.93m.584 13.866c-.99 1.592-2.418 4.125-3.173 5.63s-2.79 4.56-4.522 6.79-3.15 4.388-3.15 4.798c0 1.144 7.784 9.466 10.118 10.817l2.07 1.198-.725-2.36c-.711-2.315 1.248-10.461 2.956-12.291 1.667-1.787 4.82 10.57 3.382 13.256l-.829 1.549 2.196-1.276c5.99-3.476 11.442-11.404 9.152-13.305-1.47-1.22-5.815-7.677-8.016-11.912-2.602-5.006-2.77-5.181-5.322-5.498-2.128-.263-2.496-.032-4.137 2.604m61.646 27.081c-2.45 6.448-3.599 16.419-3.256 28.28l.31 10.775-3.816 2.521c-8.004 5.29-14.783 13.634-28.416 34.971-7.643 11.962-7.631 11.954-7.32 5.911.142-2.764-.247-6.558-.998-9.749l-1.23-5.224-.808 5.226c-1.321 8.543-2.283 8.93-2.311.93-.05-13.644-4.7-19.078-13.464-15.731-4.661 1.78-6.046 5.186-6.049 14.874 0 4.045-.201 7.354-.446 7.354-.665.001-1.965-6.032-2.12-9.839-.133-3.29-.148-3.311-.97-1.368-1.532 3.619-2.428 9.34-2.149 13.718.362 5.688.52 5.82-6.922-5.79-13.629-21.26-19.953-29.145-27.948-34.85l-4.393-3.135.47-7.93c.65-10.967-1.174-25.65-4.11-33.069-.808-2.044.63-1.306 2.01 1.03 6.007 10.175 7.423 14.067 9.386 25.795 1.75 10.459 2.303 11.682 2.863 6.325.749-7.167 2.715-9.856 3.423-4.684.61 4.449 2.947 10.167 6.06 14.828 3.318 4.97 3.433 4.936 2.479-.73-1.672-9.925 1.758-15.65 4.038-6.74.987 3.86 3.986 8.331 8.432 12.577 2.509 2.394 2.793 2.523 2.277 1.026-.686-1.987-.628-12.162.072-12.864.92-.918 2.323 2.09 3.16 6.776 1.058 5.918 1.37 6.155 6.439 4.91 4.84-1.191 5.549-1.927 6.164-6.4.564-4.104 2.126-4.559 2.755-.802.93 5.568 1.118 5.798 5.83 7.132 5.26 1.489 5.629 1.227 6.801-4.828 1.568-8.098 3.078-9.092 3.786-2.491.443 4.146.286 5.917-.803 9.017-.68 1.934 6.398-5.172 8.672-8.708 1.106-1.72 2.207-4.182 2.444-5.473.616-3.334 2.241-5.776 3.204-4.812.874.874 1.092 11.69.297 14.78l-.528 2.053 2.041-2.395c2.735-3.207 5.858-9.75 6.858-14.366 1.266-5.844 1.362-6.033 2.255-4.447.424.753 1.266 3.524 1.87 6.157l1.1 4.79.87-5.474c2.656-16.71 4-20.92 9.285-29.091 3.659-5.654 4.346-5.872 2.406-.766"/></svg>
