<svg xmlns="http://www.w3.org/2000/svg" id="nit" viewBox="0 0 103 55"><path fill="currentColor" d="M25.8 12.49a20.2 20.2 0 0 0-15.15 6.85L9.4 18.09a5.5 5.5 0 1 0-7.79 7.78L5.74 30a21 21 0 0 0-.2 2.75v16.74a5.51 5.51 0 0 0 11 0v-16.7a9.27 9.27 0 0 1 18.54 0v16.7a5.51 5.51 0 0 0 11 0v-16.7a20.29 20.29 0 0 0-20.28-20.3m34.95 8.87a5.5 5.5 0 0 0-5.5 5.5v22.63a5.51 5.51 0 0 0 11 0V26.86a5.51 5.51 0 0 0-5.5-5.5m36.71.69h-9.9v-7.44a5.51 5.51 0 1 0-11 0v34.88a5.51 5.51 0 0 0 11 0V33.06h9.9a5.51 5.51 0 0 0 0-11zM60.75 0a6.48 6.48 0 1 0 0 13 6.7 6.7 0 0 0 1.27-.11 7.5 7.5 0 0 0 1.22-.38 6.4 6.4 0 0 0 1.12-.6 7.5 7.5 0 0 0 1-.79A6.49 6.49 0 0 0 60.76.04"/></svg>
