<svg xmlns="http://www.w3.org/2000/svg" id="noulith" viewBox="0 0 400 400"><path fill="currentColor" d="M198.488 9.909c-1.756 3.644-3.594 6.924-4.338 7.744-.75.828-1.394 1.965-3.761 6.647-.695 1.374-1.437 2.606-1.648 2.736s-.796 1.17-1.3 2.31-1.203 2.359-1.553 2.709c-1.128 1.128-3.471 5.908-3.03 6.181.227.14 4.312.132 9.077-.018 7.946-.25 19.328.137 24.165.822 2.276.322 2.342.085.7-2.504-.66-1.041-1.2-2.135-1.2-2.432 0-.296-.456-1.026-1.013-1.621-.556-.596-1.448-1.999-1.981-3.118-.532-1.12-1.247-2.267-1.587-2.549-.341-.283-.633-.807-.65-1.165s-.557-1.461-1.199-2.451-1.455-2.419-1.805-3.175c-.351-.756-1.117-1.999-1.702-2.763-1.031-1.346-2.209-3.442-4.133-7.353-.511-1.039-1.2-1.89-1.53-1.89s-1.01.851-1.512 1.89m-50.028 7.978c-.21.393-.669 4.944-1.021 10.113-.594 8.726-.809 10.827-1.853 18.077-.873 6.057-.439 7.3 1.883 5.396.622-.51 1.761-1.169 2.531-1.465.77-.295 1.765-.862 2.211-1.259.447-.397 1.574-.991 2.505-1.319.931-.329 2.456-1.114 3.388-1.746 1.81-1.225 7.622-3.351 11.896-4.35 1.43-.335 2.913-.772 3.295-.971.382-.2.956-.363 1.276-.363 1.057 0 1.019-.67-.069-1.24-.589-.308-1.978-1.432-3.086-2.498-1.109-1.067-3.779-3.377-5.934-5.134-3.589-2.928-5.551-4.644-9.406-8.228-.769-.715-1.557-1.3-1.751-1.3s-.97-.585-1.725-1.3c-2.887-2.733-3.711-3.214-4.14-2.413m103.1 2.881a1404 1404 0 0 1-4.286 3.318c-1.345 1.037-2.767 2.167-3.16 2.512-.393.344-1.614 1.338-2.714 2.209-1.1.872-2.45 1.953-3 2.404-1.468 1.203-6.841 5.476-8 6.361-3.534 2.701-4.525 4.028-3.009 4.028.325 0 1.54.436 2.7.969s3.353 1.351 4.873 1.818 3.23 1.174 3.8 1.572c.57.397 1.882 1.04 2.916 1.428 1.035.389 2.188 1.046 2.562 1.46.375.414.994.753 1.374.753s1.748.676 3.038 1.502c1.29.825 2.634 1.68 2.986 1.9s1.384.893 2.292 1.498c2.462 1.64 2.601 1.531 2.298-1.8-.145-1.595-.442-5.96-.66-9.7s-.56-8.69-.761-11-.489-5.91-.64-8c-.355-4.905-.395-4.955-2.609-3.232M187.8 43.274c-8.21 1.036-9.93 1.36-13.6 2.559-2.2.719-4.81 1.519-5.8 1.778s-2.509.812-3.375 1.23-1.744.759-1.95.759c-.578 0-9.917 4.705-11.331 5.708-1.487 1.056-3.297 2.183-5.315 3.31-.805.449-1.816 1.13-2.247 1.511-.43.382-1.682 1.419-2.782 2.305-4.229 3.406-10.437 9.52-13.264 13.066-1.623 2.035-3.128 3.7-3.343 3.7-.216 0-.393.193-.393.428 0 .236-.81 1.564-1.8 2.951s-1.8 2.612-1.8 2.721-.964 1.805-2.142 3.769c-1.179 1.963-2.375 4.272-2.658 5.13s-1.003 2.388-1.6 3.401-1.303 2.552-1.569 3.42c-.265.869-.763 2.3-1.105 3.18l-.932 2.4c-.171.44-.528 1.88-.794 3.2s-.631 2.76-.812 3.2c-.18.44-.419 1.25-.53 1.8a73 73 0 0 1-.606 2.6c-.336 1.335-1.092 8.835-1.814 18-.334 4.241 1.345 20.857 2.405 23.8.357.99.962 3.061 1.345 4.602s1.058 3.522 1.5 4.4 1.017 2.258 1.278 3.065c.591 1.829 4.366 8.662 6.792 12.294a88 88 0 0 1 1.442 2.263c1.836 2.986 4.269 6.185 5.004 6.578.433.232 1.041.911 1.352 1.51.533 1.03 4.973 5.685 9.281 9.732 1.08 1.014 2.271 2.184 2.648 2.6.376.416 2.145 1.926 3.931 3.356 1.785 1.43 4.283 3.545 5.551 4.7s2.508 2.1 2.755 2.1.642.358.876.796.941 1.062 1.571 1.388c.631.326 1.723 1.121 2.427 1.766a86 86 0 0 0 2.542 2.22c.694.575 2.004 1.673 2.91 2.438 2.02 1.706 1.487 1.773 4.997-.634 1.625-1.115 3.561-2.405 4.303-2.868 1.37-.855 1.666-3.738.538-5.248-.411-.55-1.086-2.861-1.712-5.858-.253-1.21-.62-2.513-.817-2.895-.722-1.403-.467-2.068.543-1.416.495.32 1.8.913 2.9 1.318s2.478 1.064 3.062 1.465c.584.4 1.313.728 1.62.728s.744.186.971.413c.766.766 1.707-.072 3.315-2.95 2.401-4.296 2.119-4.049 3.745-3.277.832.394 1.615 1.158 1.905 1.857.842 2.032 3.182 2.106 3.182.1 0-.216.54-.911 1.2-1.543s1.2-1.324 1.2-1.536c0-.213.675-1.038 1.5-1.833 2.047-1.974 4.518-5.525 4.269-6.133-.113-.274-1.671-1.488-3.463-2.698-3.066-2.07-4.494-3.187-8.612-6.731-2.653-2.284-9.36-8.581-10.063-9.448-.347-.428-1.441-1.617-2.431-2.642a88 88 0 0 1-3.124-3.421 118 118 0 0 0-2.052-2.358 10 10 0 0 1-1.226-1.767c-.274-.532-1.285-1.934-2.248-3.115-.962-1.182-1.75-2.39-1.75-2.685s-.281-.768-.624-1.053c-.633-.525-2.176-3.428-2.176-4.093 0-.2-.326-.841-.725-1.425s-.958-1.872-1.242-2.862-.695-2.25-.913-2.8c-1.705-4.303-1.721-4.427-1.689-13 .03-7.894.093-8.581 1.047-11.4.558-1.65 1.123-3.577 1.255-4.283s.876-2.624 1.654-4.262 1.413-3.144 1.413-3.347.45-.791 1-1.308 1.004-1.133 1.009-1.37c.012-.567 4.726-5.954 6.222-7.11a43 43 0 0 0 2.369-2.01c.66-.608 1.401-1.107 1.646-1.108s.88-.343 1.409-.76c1.862-1.464 8.156-4.512 10.537-5.103 1.325-.329 3.398-.974 4.608-1.434 3.316-1.26 16.254-1.27 19.8-.014a65 65 0 0 0 4.925 1.478c1.389.345 3.312 1.168 4.272 1.829s1.92 1.202 2.13 1.202c.211 0 1.299.63 2.418 1.4s2.14 1.4 2.267 1.4c1.098 0 10.188 8.832 10.188 9.899 0 .208.361.704.803 1.104.442.399 1.097 1.282 1.456 1.962 2.053 3.881 2.917 5.689 2.928 6.126.007.27.447 1.44.978 2.6 3.299 7.21 2.929 22.799-.718 30.292-2.279 4.681-2.663 4.638-3.428-.383-.185-1.21-.633-3.79-.997-5.734-.646-3.457-.643-3.564.159-4.923.45-.764.819-1.564.819-1.777 0-.214.645-1.748 1.434-3.41 1.517-3.196 1.53-3.788.068-3-4.411 2.375-3.941 2.545-5.524-2.004-.642-1.844-1.282-4.207-1.424-5.252-.349-2.577-1.175-2.466-1.495.2-.139 1.155-.254 9.262-.256 18.016-.003 17.113-.059 17.597-2.265 19.803-.313.313-1.03 1.479-1.593 2.59-.935 1.845-2.038 3.028-6.053 6.491-2.208 1.905-2.987 2.701-4.692 4.797-.88 1.081-1.93 2.244-2.333 2.584-.743.628-2.594 3.298-4.319 6.232-2.13 3.624-2.628 4.379-4.44 6.731-1.041 1.351-1.896 2.653-1.9 2.894s-.386.78-.849 1.199-1.104 1.27-1.426 1.893-1.159 1.898-1.859 2.835c-.701.937-1.814 2.468-2.474 3.402s-1.83 2.486-2.6 3.447-2.088 2.656-2.929 3.767c-2.003 2.644-2.388 2.618-4.767-.321-1.023-1.264-2.113-1.09-2.741.44-.294.715-.932 1.891-1.42 2.613s-.955 1.524-1.041 1.781c-.101.303-.849.054-2.129-.711-2.451-1.465-4.172-2.233-4.177-1.864-.002.155.388 2.124.866 4.377.997 4.696.947 4.845-2.172 6.467-3.918 2.037-3.873 2.701.243 3.649 1.137.263 3.057.9 4.267 1.416s3.238 1.23 4.506 1.586c2.346.657 4.294 2.568 4.294 4.211 0 .352.464 1.525 1.03 2.607s1.425 3.03 1.906 4.328c1.297 3.495 1.69 3.566 4.363.788l2.259-2.348 1.921.993c1.057.547 2.508 1.412 3.225 1.923 1.692 1.207 1.94.657 1.424-3.156-.455-3.364-.439-3.382 3.372-3.756 3.313-.326 3.263-.271 1.8-1.994-2.714-3.197-2.611-2.925-1.392-3.663.6-.364 1.542-.962 2.092-1.33.55-.367 2.17-1.231 3.6-1.918 1.43-.688 3.05-1.523 3.6-1.855 1.782-1.075 7.766-3.794 9-4.089.66-.158 1.74-.585 2.4-.949s2.1-.892 3.2-1.174c1.1-.283 3.35-.926 5-1.43s4.313-1.145 5.918-1.426 3.011-.661 3.124-.844.443-.332.733-.332c.639 0 4.604-2.299 6.864-3.981.902-.67 1.804-1.219 2.005-1.219s1.624-1.197 3.161-2.661c5.226-4.974 9.489-8.539 10.214-8.539.397 0 2.086-.63 3.753-1.4s3.211-1.4 3.43-1.4.398-.168.398-.373c0-1.307 2.498-2.101 8.309-2.642 5.475-.51 8.271-.916 12.291-1.784.88-.19 3.76-.547 6.4-.793 4.921-.458 7.138-.833 11.962-2.019l2.762-.679-4.962-.276c-4.98-.277-11.619-.958-11.879-1.218-.185-.185 1.308-2.882 2.533-4.575 1.313-1.814 1.24-2.209-.249-1.351-.677.39-1.77 1.008-2.427 1.373s-1.522.958-1.92 1.319c-2.1 1.901-5.988 3.418-8.759 3.418-6.879 0-11.261-.483-11.261-1.242 0-.956.825-2.771 1.697-3.733.387-.427.703-1.014.703-1.306 0-.291.16-.842.355-1.224 1.669-3.264 2.384-4.869 2.625-5.895.301-1.281 1.058-3.131 2.211-5.4.391-.77.927-2.39 1.191-3.6.468-2.148 1.415-5.396 2.039-7 .171-.44.519-2.51.774-4.6s.668-4.7.918-5.8c.611-2.685.609-17.184-.002-21.2-.268-1.76-.697-4.82-.953-6.8-.257-1.98-.888-4.95-1.402-6.6-.515-1.65-1.139-3.962-1.387-5.138s-.952-3.088-1.563-4.251c-.611-1.162-1.32-2.744-1.575-3.517s-1.086-2.64-1.846-4.149c-.76-1.51-1.383-2.942-1.384-3.183s-.361-.764-.801-1.162-.8-.926-.8-1.172c0-.247-.81-1.75-1.8-3.341s-1.8-2.963-1.8-3.05-.585-.771-1.3-1.521-2.189-2.523-3.276-3.94c-2.196-2.862-11.241-11.908-13.424-13.426l-2.8-1.949c-4.457-3.108-8.014-5.401-8.378-5.401-.164 0-1.43-.731-2.813-1.625s-3.477-1.986-4.654-2.426-2.237-.957-2.355-1.149c-.118-.191-1.241-.646-2.495-1.011s-2.937-.997-3.739-1.406c-.802-.41-2.338-.95-3.412-1.2-1.075-.251-3.934-1.053-6.354-1.783-4.146-1.249-5.906-1.555-14.845-2.582-4.233-.485-13.903-.456-17.955.056m-74.879 11.827c.212 2.753 1.198 9.333 2.262 15.099.203 1.1.55 3.781.772 5.958s.56 4.117.752 4.309c.323.323 3.005-2.714 5.146-5.827.47-.682 2.36-2.77 4.2-4.64s3.617-3.776 3.947-4.235 1.59-1.668 2.8-2.686 2.74-2.311 3.4-2.873c.66-.561 1.785-1.484 2.5-2.049 2.075-1.641 1.892-1.774-3.5-2.539-1.43-.203-3.32-.538-4.2-.745-6.183-1.455-14.531-2.849-17.159-2.866l-1.16-.007zM287.8 52.987c-3.349 1.162-8.595 2.619-10.8 3-1.54.265-4.24.896-6 1.401-1.76.506-4.627 1.172-6.372 1.481-3.963.701-4.041.971-.982 3.379 1.363 1.074 2.896 2.402 3.407 2.952s1.127 1.18 1.368 1.4c3.167 2.884 7.979 7.951 7.979 8.401 0 .319.45.875 1 1.236.55.36 1.002.859 1.004 1.109s.608 1.214 1.347 2.143c.739.93 1.572 2.243 1.852 2.919.649 1.567 1.751 1.446 1.917-.211.139-1.377 1.056-5.741 1.638-7.797.218-.77.6-2.12.847-3 .248-.88.87-3.58 1.383-6 .512-2.42 1.211-5.21 1.552-6.2 1.436-4.169.929-6.931-1.14-6.213M108.2 86.03c-1.54.401-5.074 1.006-7.854 1.346-7.891.963-10.447 1.773-8.805 2.787.187.116.665 1.072 1.061 2.124.397 1.052 1.203 2.633 1.791 3.513.589.88 1.386 2.41 1.772 3.4s.943 2.07 1.237 2.4.924 1.59 1.4 2.799 1.074 2.451 1.331 2.758c.257.308.838 1.478 1.292 2.601 1.039 2.575 1.886 2.666 2.233.242.519-3.626.882-5.046 1.839-7.2.538-1.21 1.24-3.06 1.56-4.112.635-2.089 2.712-6.794 4.565-10.344 1.842-3.528 1.675-3.64-3.422-2.314m177.716 3.87c.424.605 1.092 2.09 1.484 3.3s1.014 2.65 1.382 3.2.906 1.81 1.196 2.8.89 2.61 1.335 3.6.961 2.61 1.148 3.6c.572 3.026 1.623 6 2.12 6 .467 0 4.618-5.633 4.62-6.27 0-.181.54-.96 1.199-1.73s1.199-1.594 1.199-1.83c.001-.237.451-.853 1.001-1.37s1-1.108 1-1.314.696-1.21 1.546-2.23 1.93-2.613 2.399-3.538l.853-1.682-1.499-.239c-.824-.131-2.219-.4-3.099-.597-3.852-.865-5.869-1.193-10-1.626-2.42-.254-4.922-.622-5.56-.818s-1.595-.356-2.127-.356h-.967zm-70.334 99.2c-.027 4.795-.755 7.069-2.315 7.225-3.726.372-3.534-6.19.275-9.423 1.79-1.519 2.06-1.229 2.04 2.198m20.599 20.964c1.789.815.851 1.852-2.778 3.072l-2.398.806-1.502-.845c-1.775-.997-2.068-2.496-.603-3.085 1.306-.524 6.091-.49 7.281.052m-46.91 12.814c.491 1.641.125 2.537-.803 1.964-.52-.321-1.24-2.728-1.258-4.204-.016-1.272 1.503.38 2.061 2.24m40.918.052c-.434.292-1.792.839-3.018 1.215s-2.896 1.138-3.71 1.691-2.209 1.263-3.098 1.577-2.099.91-2.689 1.324c-.591.415-1.794.996-2.674 1.291-3.458 1.161-3.485 2.213-.146 5.863 2.396 2.621 2.316 2.688-3.854 3.206l-3.6.303.144 5.324.144 5.324-1.529-.639c-.841-.352-1.806-.858-2.144-1.124s-1.454-.906-2.478-1.421-2.25-1.296-2.721-1.735c-.999-.931-1.88-.724-2.387.561-.197.5-1.095 1.713-1.994 2.694s-1.635 2.009-1.635 2.284c0 .499 1.965 2.532 2.447 2.532.141 0 .474.527.741 1.171s.823 1.477 1.235 1.85c3.579 3.239 6.102 17.864 3.82 22.141-1.903 3.564-5.841 7.566-9.116 9.263-.81.42-1.568.917-1.683 1.104-.116.188-2.513 1.478-5.327 2.867s-5.567 2.837-6.117 3.218-1.9.994-3 1.364c-1.1.369-2.399.931-2.886 1.247s-1.747.866-2.8 1.222-2.364.953-2.914 1.326-1.81.925-2.8 1.227-2.26.863-2.823 1.247-1.823 1.011-2.8 1.394-2.497 1.169-3.377 1.747-2.36 1.382-3.288 1.787c-.929.405-1.992 1.071-2.362 1.48s-.889.745-1.153.745c-.263 0-1.712.81-3.219 1.8s-2.839 1.801-2.959 1.801c-.121.001-.579.54-1.019 1.199s-.989 1.198-1.22 1.199c-1.406.004-8.981 9.244-10.166 12.401-.289.77-.939 2.3-1.444 3.4-2.749 5.986-2.556 20.24.347 25.658a25 25 0 0 1 1.137 2.542c.289.77 1.115 2.296 1.835 3.391.721 1.095 1.311 2.144 1.311 2.332 0 .566 6.367 7.919 8.8 10.162.55.507 1.45 1.351 2 1.874s1.406 1.074 1.902 1.224 1.396.688 2 1.196 1.944 1.321 2.978 1.807c1.033.485 2.09 1.137 2.349 1.448.258.312.819.566 1.247.566s2.43.792 4.451 1.759c2.02.968 4.303 1.88 5.073 2.027.77.146 2.66.689 4.2 1.206s4.42 1.15 6.4 1.406c1.98.257 4.41.621 5.4.81s3.06.579 4.6.867c3.645.683 26.23.741 28 .071 1.291-.488 3.222-1.02 6.4-1.764 1.1-.257 2.95-.898 4.111-1.425 1.161-.526 2.421-.962 2.8-.968s1.499-.458 2.489-1.003c.99-.546 3.077-1.613 4.637-2.372s3.067-1.658 3.349-1.997.698-.617.925-.617c.545 0 5.675-3.498 7.187-4.9.653-.605 1.438-1.1 1.744-1.1s.558-.181.558-.402 1.35-1.721 3-3.334 3-3.097 3-3.298.63-.869 1.4-1.483 1.4-1.313 1.4-1.552.597-1.267 1.326-2.283c1.466-2.043 4.674-8.421 4.674-9.293 0-.305.392-1.545.871-2.755 4.268-10.787.094-26.158-8.001-29.467a84 84 0 0 1-3.47-1.552c-4.569-2.174-13.84-2.053-18.86.247-1.408.644-2.794 1.172-3.08 1.172s-.943.45-1.46 1-1.196 1-1.509 1c-1.138 0-6.379 5.991-7.174 8.2-2.45 6.81-1.241 13.223 3.376 17.919 1.873 1.905 2.551 2.328 5.857 3.655 9.002 3.615 16.262.012 16.244-8.061-.019-8.756-7.374-11.644-8.034-3.155-.394 5.066-1.445 6.308-4.736 5.598-2.923-.631-3.112-.808-5.742-5.356-5.223-9.033 11.943-22.56 21.537-16.972 3.9 2.271 4.398 2.697 6.219 5.322 3.769 5.434 3.91 14.601.321 20.826-.857 1.487-1.559 2.88-1.559 3.094 0 .215-.45.813-1 1.33s-1 1.14-1 1.384c0 .49-4.586 5.143-6.802 6.903a48 48 0 0 0-2.47 2.113c-2.312 2.167-9.474 6.379-10.878 6.396-.192.002-1.452.474-2.8 1.049-1.347.574-2.81 1.194-3.25 1.378s-1.79.523-3 .754-4 .807-6.2 1.279c-7.699 1.653-18.157 1.458-24.8-.461-.66-.191-2.28-.577-3.6-.858-2.398-.51-8.909-3.876-10.666-5.513-.487-.453-1.041-.824-1.232-.824-.742 0-3.919-3.926-5.178-6.4-3.287-6.456-.343-18.641 5.337-22.096.641-.39 1.266-.971 1.389-1.291s.536-.681.916-.802c.381-.121 1.087-.588 1.569-1.037 2.009-1.871 11.284-6.398 17.065-8.328 6.337-2.117 9.77-3.365 11.6-4.218 1.1-.512 3.396-1.422 5.102-2.021s3.202-1.251 3.324-1.448.499-.359.838-.359 2.132-.72 3.984-1.6 3.434-1.6 3.515-1.6c.382 0 5.45-3.138 6.856-4.245.869-.685 2.121-1.523 2.781-1.862s1.636-1.084 2.17-1.655c.533-.571 1.106-1.038 1.272-1.038.276 0 1.905-1.651 5.483-5.554a244 244 0 0 1 2.659-2.846c.733-.77 1.699-2.132 2.145-3.027.447-.894 1.096-1.862 1.442-2.149s.629-.691.629-.898.557-1.531 1.238-2.943c.68-1.411 1.592-3.875 2.025-5.474.434-1.6.967-3.539 1.185-4.309 2.184-7.71 2.098-15.826-.257-24.2a168 168 0 0 1-1.369-5.172c-.258-1.084-.785-2.434-1.171-3s-.947-1.8-1.246-2.744-.963-2.284-1.474-2.978c-.512-.694-.931-1.48-.931-1.748 0-.267-.699-1.37-1.553-2.45s-1.825-2.492-2.159-3.137-.985-1.515-1.447-1.934-.845-.958-.85-1.199-.59-1.095-1.3-1.897-2.011-2.42-2.891-3.594c-3.44-4.591-5.801-6.365-7.211-5.417M166 227.958c0 .306 6.056 5.671 10.334 9.156A76 76 0 0 1 178.56 239c.84.752 3.904 3.266 5.607 4.599.422.331 1.52 1.274 2.439 2.096s1.769 1.397 1.888 1.277c.276-.276-2.155-6.153-3.162-7.645-.419-.62-.999-1.847-1.29-2.727-.85-2.573-1.518-3.336-3.341-3.817-.936-.247-2.691-.863-3.901-1.37s-3.01-1.148-4-1.425-2.69-.928-3.779-1.446c-2.088-.995-3.021-1.175-3.021-.584m28.672 1.322c.73.265 1.328.625 1.328.8 0 .636-2.334.301-3.256-.467-1.162-.968-.261-1.124 1.928-.333"/></svg>
