<svg xmlns="http://www.w3.org/2000/svg" id="noulith" viewBox="0 0 400 400"><path fill="currentColor" d="M198.488 9.909 C 196.732 13.553 194.894 16.833 194.150 17.653 C 193.400 18.481 192.756 19.618 190.389 24.300 C 189.694 25.674 188.952 26.906 188.741 27.036 C 188.530 27.167 187.945 28.206 187.441 29.346 C 186.937 30.486 186.238 31.705 185.888 32.055 C 184.760 33.183 182.417 37.963 182.858 38.236 C 183.085 38.376 187.170 38.368 191.935 38.218 C 199.881 37.968 211.263 38.355 216.100 39.040 C 218.376 39.362 218.442 39.125 216.800 36.536 C 216.140 35.495 215.600 34.401 215.600 34.104 C 215.600 33.808 215.144 33.078 214.587 32.483 C 214.031 31.887 213.139 30.484 212.606 29.365 C 212.074 28.245 211.359 27.098 211.019 26.816 C 210.678 26.533 210.386 26.009 210.369 25.651 C 210.351 25.293 209.812 24.190 209.170 23.200 C 208.528 22.210 207.715 20.781 207.365 20.025 C 207.014 19.269 206.248 18.026 205.663 17.262 C 204.632 15.916 203.454 13.820 201.530 9.909 C 201.019 8.870 200.330 8.019 200.000 8.019 C 199.670 8.019 198.990 8.870 198.488 9.909 M148.460 17.887 C 148.250 18.280 147.791 22.831 147.439 28.000 C 146.845 36.726 146.630 38.827 145.586 46.077 C 144.713 52.134 145.147 53.377 147.469 51.473 C 148.091 50.963 149.230 50.304 150.000 50.008 C 150.770 49.713 151.765 49.146 152.211 48.749 C 152.658 48.352 153.785 47.758 154.716 47.430 C 155.647 47.101 157.172 46.316 158.104 45.684 C 159.914 44.459 165.726 42.333 170.000 41.334 C 171.430 40.999 172.913 40.562 173.295 40.363 C 173.677 40.163 174.251 40.000 174.571 40.000 C 175.628 40.000 175.590 39.330 174.502 38.760 C 173.913 38.452 172.524 37.328 171.416 36.262 C 170.307 35.195 167.637 32.885 165.482 31.128 C 161.893 28.200 159.931 26.484 156.076 22.900 C 155.307 22.185 154.519 21.600 154.325 21.600 C 154.132 21.600 153.355 21.015 152.600 20.300 C 149.713 17.567 148.889 17.086 148.460 17.887 M251.560 20.768 C 250.548 21.556 248.619 23.049 247.274 24.086 C 245.929 25.123 244.507 26.253 244.114 26.598 C 243.721 26.942 242.500 27.936 241.400 28.807 C 240.300 29.679 238.950 30.760 238.400 31.211 C 236.932 32.414 231.559 36.687 230.400 37.572 C 226.866 40.273 225.875 41.600 227.391 41.600 C 227.716 41.600 228.931 42.036 230.091 42.569 C 231.251 43.102 233.444 43.920 234.964 44.387 C 236.484 44.854 238.194 45.561 238.764 45.959 C 239.334 46.356 240.646 46.999 241.680 47.387 C 242.715 47.776 243.868 48.433 244.242 48.847 C 244.617 49.261 245.236 49.600 245.616 49.600 C 245.997 49.600 247.364 50.276 248.654 51.102 C 249.944 51.927 251.288 52.782 251.640 53.002 C 251.992 53.221 253.024 53.895 253.932 54.500 C 256.394 56.140 256.533 56.031 256.230 52.700 C 256.085 51.105 255.788 46.740 255.570 43.000 C 255.352 39.260 255.010 34.310 254.809 32.000 C 254.608 29.690 254.320 26.090 254.169 24.000 C 253.814 19.095 253.774 19.045 251.560 20.768 M187.800 43.274 C 179.590 44.310 177.870 44.634 174.200 45.833 C 172.000 46.552 169.390 47.352 168.400 47.611 C 167.410 47.870 165.891 48.423 165.025 48.841 C 164.159 49.258 163.281 49.600 163.075 49.600 C 162.497 49.600 153.158 54.305 151.744 55.308 C 150.257 56.364 148.447 57.491 146.429 58.618 C 145.624 59.067 144.613 59.748 144.182 60.129 C 143.752 60.511 142.500 61.548 141.400 62.434 C 137.171 65.840 130.963 71.954 128.136 75.500 C 126.513 77.535 125.008 79.200 124.793 79.200 C 124.577 79.200 124.400 79.393 124.400 79.628 C 124.400 79.864 123.590 81.192 122.600 82.579 C 121.610 83.966 120.800 85.191 120.800 85.300 C 120.800 85.409 119.836 87.105 118.658 89.069 C 117.479 91.032 116.283 93.341 116.000 94.199 C 115.717 95.057 114.997 96.587 114.400 97.600 C 113.803 98.613 113.097 100.152 112.831 101.020 C 112.566 101.889 112.068 103.320 111.726 104.200 C 111.384 105.080 110.965 106.160 110.794 106.600 C 110.623 107.040 110.266 108.480 110.000 109.800 C 109.734 111.120 109.369 112.560 109.188 113.000 C 109.008 113.440 108.769 114.250 108.658 114.800 C 108.546 115.350 108.274 116.520 108.052 117.400 C 107.716 118.735 106.960 126.235 106.238 135.400 C 105.904 139.641 107.583 156.257 108.643 159.200 C 109.000 160.190 109.605 162.261 109.988 163.802 C 110.371 165.344 111.046 167.324 111.488 168.202 C 111.930 169.081 112.505 170.460 112.766 171.267 C 113.357 173.096 117.132 179.929 119.558 183.561 C 119.911 184.090 120.560 185.108 121.000 185.824 C 122.836 188.810 125.269 192.009 126.004 192.402 C 126.437 192.634 127.045 193.313 127.356 193.912 C 127.889 194.942 132.329 199.597 136.637 203.644 C 137.717 204.658 138.908 205.828 139.285 206.244 C 139.661 206.660 141.430 208.170 143.216 209.600 C 145.001 211.030 147.499 213.145 148.767 214.300 C 150.035 215.455 151.275 216.400 151.522 216.400 C 151.769 216.400 152.164 216.758 152.398 217.196 C 152.632 217.634 153.339 218.258 153.969 218.584 C 154.600 218.910 155.692 219.705 156.396 220.350 C 157.101 220.995 158.245 221.994 158.938 222.570 C 159.632 223.145 160.942 224.243 161.848 225.008 C 163.868 226.714 163.335 226.781 166.845 224.374 C 168.470 223.259 170.406 221.969 171.148 221.506 C 172.518 220.651 172.814 217.768 171.686 216.258 C 171.275 215.708 170.600 213.397 169.974 210.400 C 169.721 209.190 169.354 207.887 169.157 207.505 C 168.435 206.102 168.690 205.437 169.700 206.089 C 170.195 206.409 171.500 207.002 172.600 207.407 C 173.700 207.812 175.078 208.471 175.662 208.872 C 176.246 209.272 176.975 209.600 177.282 209.600 C 177.589 209.600 178.026 209.786 178.253 210.013 C 179.019 210.779 179.960 209.941 181.568 207.063 C 183.969 202.767 183.687 203.014 185.313 203.786 C 186.145 204.180 186.928 204.944 187.218 205.643 C 188.060 207.675 190.400 207.749 190.400 205.743 C 190.400 205.527 190.940 204.832 191.600 204.200 C 192.260 203.568 192.800 202.876 192.800 202.664 C 192.800 202.451 193.475 201.626 194.300 200.831 C 196.347 198.857 198.818 195.306 198.569 194.698 C 198.456 194.424 196.898 193.210 195.106 192.000 C 192.040 189.930 190.612 188.813 186.494 185.269 C 183.841 182.985 177.134 176.688 176.431 175.821 C 176.084 175.393 174.990 174.204 174.000 173.179 C 173.010 172.155 171.604 170.615 170.876 169.758 C 170.148 168.901 169.225 167.840 168.824 167.400 C 168.423 166.960 167.872 166.165 167.598 165.633 C 167.324 165.101 166.313 163.699 165.350 162.518 C 164.388 161.336 163.600 160.128 163.600 159.833 C 163.600 159.539 163.319 159.065 162.976 158.780 C 162.343 158.255 160.800 155.352 160.800 154.687 C 160.800 154.487 160.474 153.846 160.075 153.262 C 159.676 152.678 159.117 151.390 158.833 150.400 C 158.549 149.410 158.138 148.150 157.920 147.600 C 156.215 143.297 156.199 143.173 156.231 134.600 C 156.261 126.706 156.324 126.019 157.278 123.200 C 157.836 121.550 158.401 119.623 158.533 118.917 C 158.665 118.211 159.409 116.293 160.187 114.655 C 160.964 113.017 161.600 111.511 161.600 111.308 C 161.600 111.105 162.050 110.517 162.600 110.000 C 163.150 109.483 163.604 108.867 163.609 108.630 C 163.621 108.063 168.335 102.676 169.831 101.520 C 170.474 101.023 171.540 100.119 172.200 99.510 C 172.860 98.902 173.601 98.403 173.846 98.402 C 174.091 98.401 174.726 98.059 175.255 97.642 C 177.117 96.178 183.411 93.130 185.792 92.539 C 187.117 92.210 189.190 91.565 190.400 91.105 C 193.716 89.845 206.654 89.835 210.200 91.091 C 211.520 91.558 213.736 92.223 215.125 92.569 C 216.514 92.914 218.437 93.737 219.397 94.398 C 220.358 95.059 221.317 95.600 221.527 95.600 C 221.738 95.600 222.826 96.230 223.945 97.000 C 225.065 97.770 226.085 98.400 226.212 98.400 C 227.310 98.400 236.400 107.232 236.400 108.299 C 236.400 108.507 236.761 109.003 237.203 109.403 C 237.645 109.802 238.300 110.685 238.659 111.365 C 240.712 115.246 241.576 117.054 241.587 117.491 C 241.594 117.761 242.034 118.931 242.565 120.091 C 245.864 127.301 245.494 142.890 241.847 150.383 C 239.568 155.064 239.184 155.021 238.419 150.000 C 238.234 148.790 237.786 146.210 237.422 144.266 C 236.776 140.809 236.779 140.702 237.581 139.343 C 238.031 138.579 238.400 137.779 238.400 137.566 C 238.400 137.352 239.045 135.818 239.834 134.156 C 241.351 130.960 241.364 130.368 239.902 131.156 C 235.491 133.531 235.961 133.701 234.378 129.152 C 233.736 127.308 233.096 124.945 232.954 123.900 C 232.605 121.323 231.779 121.434 231.459 124.100 C 231.320 125.255 231.205 133.362 231.203 142.116 C 231.200 159.229 231.144 159.713 228.938 161.919 C 228.625 162.232 227.908 163.398 227.345 164.509 C 226.410 166.354 225.307 167.537 221.292 171.000 C 219.084 172.905 218.305 173.701 216.600 175.797 C 215.720 176.878 214.670 178.041 214.267 178.381 C 213.524 179.009 211.673 181.679 209.948 184.613 C 207.818 188.237 207.320 188.992 205.508 191.344 C 204.467 192.695 203.612 193.997 203.608 194.238 C 203.604 194.479 203.222 195.018 202.759 195.437 C 202.297 195.856 201.655 196.707 201.333 197.330 C 201.011 197.953 200.174 199.228 199.474 200.165 C 198.773 201.102 197.660 202.633 197.000 203.567 C 196.340 204.502 195.170 206.053 194.400 207.014 C 193.630 207.975 192.312 209.670 191.471 210.781 C 189.468 213.425 189.083 213.399 186.704 210.460 C 185.681 209.196 184.591 209.370 183.963 210.900 C 183.669 211.615 183.031 212.791 182.543 213.513 C 182.056 214.235 181.588 215.037 181.502 215.294 C 181.401 215.597 180.653 215.348 179.373 214.583 C 176.922 213.118 175.201 212.350 175.196 212.719 C 175.194 212.874 175.584 214.843 176.062 217.096 C 177.059 221.792 177.009 221.941 173.890 223.563 C 169.972 225.600 170.017 226.264 174.133 227.212 C 175.270 227.475 177.190 228.112 178.400 228.628 C 179.610 229.144 181.638 229.858 182.906 230.214 C 185.252 230.871 187.200 232.782 187.200 234.425 C 187.200 234.777 187.664 235.950 188.230 237.032 C 188.797 238.114 189.655 240.062 190.136 241.360 C 191.433 244.855 191.826 244.926 194.499 242.148 L 196.758 239.800 198.679 240.793 C 199.736 241.340 201.187 242.205 201.904 242.716 C 203.596 243.923 203.844 243.373 203.328 239.560 C 202.873 236.196 202.889 236.178 206.700 235.804 C 210.013 235.478 209.963 235.533 208.500 233.810 C 205.786 230.613 205.889 230.885 207.108 230.147 C 207.708 229.783 208.650 229.185 209.200 228.817 C 209.750 228.450 211.370 227.586 212.800 226.899 C 214.230 226.211 215.850 225.376 216.400 225.044 C 218.182 223.969 224.166 221.250 225.400 220.955 C 226.060 220.797 227.140 220.370 227.800 220.006 C 228.460 219.642 229.900 219.114 231.000 218.832 C 232.100 218.549 234.350 217.906 236.000 217.402 C 237.650 216.899 240.313 216.257 241.918 215.976 C 243.523 215.695 244.929 215.315 245.042 215.132 C 245.155 214.950 245.485 214.800 245.775 214.800 C 246.414 214.800 250.379 212.501 252.639 210.819 C 253.541 210.149 254.443 209.600 254.644 209.600 C 254.845 209.600 256.268 208.403 257.805 206.939 C 263.031 201.965 267.294 198.400 268.019 198.400 C 268.416 198.400 270.105 197.770 271.772 197.000 C 273.439 196.230 274.983 195.600 275.202 195.600 C 275.421 195.600 275.600 195.432 275.600 195.227 C 275.600 193.920 278.098 193.126 283.909 192.585 C 289.384 192.075 292.180 191.669 296.200 190.801 C 297.080 190.611 299.960 190.254 302.600 190.008 C 307.521 189.550 309.738 189.175 314.562 187.989 L 317.324 187.310 312.362 187.034 C 307.382 186.757 300.743 186.076 300.483 185.816 C 300.298 185.631 301.791 182.934 303.016 181.241 C 304.329 179.427 304.256 179.032 302.767 179.890 C 302.090 180.280 300.997 180.898 300.340 181.263 C 299.683 181.628 298.818 182.221 298.420 182.582 C 296.320 184.483 292.432 186.000 289.661 186.000 C 282.782 186.000 278.400 185.517 278.400 184.758 C 278.400 183.802 279.225 181.987 280.097 181.025 C 280.484 180.598 280.800 180.011 280.800 179.719 C 280.800 179.428 280.960 178.877 281.155 178.495 C 282.824 175.231 283.539 173.626 283.780 172.600 C 284.081 171.319 284.838 169.469 285.991 167.200 C 286.382 166.430 286.918 164.810 287.182 163.600 C 287.650 161.452 288.597 158.204 289.221 156.600 C 289.392 156.160 289.740 154.090 289.995 152.000 C 290.250 149.910 290.663 147.300 290.913 146.200 C 291.524 143.515 291.522 129.016 290.911 125.000 C 290.643 123.240 290.214 120.180 289.958 118.200 C 289.701 116.220 289.070 113.250 288.556 111.600 C 288.041 109.950 287.417 107.638 287.169 106.462 C 286.921 105.286 286.217 103.374 285.606 102.211 C 284.995 101.049 284.286 99.467 284.031 98.694 C 283.776 97.922 282.945 96.054 282.185 94.545 C 281.425 93.035 280.802 91.603 280.801 91.362 C 280.801 91.121 280.440 90.598 280.000 90.200 C 279.560 89.802 279.200 89.274 279.200 89.028 C 279.200 88.781 278.390 87.278 277.400 85.687 C 276.410 84.096 275.600 82.724 275.600 82.637 C 275.600 82.551 275.015 81.866 274.300 81.116 C 273.585 80.366 272.111 78.593 271.024 77.176 C 268.828 74.314 259.783 65.268 257.600 63.750 C 256.830 63.215 255.570 62.338 254.800 61.801 C 250.343 58.693 246.786 56.400 246.422 56.400 C 246.258 56.400 244.992 55.669 243.609 54.775 C 242.226 53.881 240.132 52.789 238.955 52.349 C 237.778 51.908 236.718 51.392 236.600 51.200 C 236.482 51.009 235.359 50.554 234.105 50.189 C 232.850 49.825 231.168 49.192 230.366 48.783 C 229.564 48.373 228.028 47.833 226.954 47.583 C 225.879 47.332 223.020 46.530 220.600 45.800 C 216.454 44.551 214.694 44.245 205.755 43.218 C 201.522 42.733 191.852 42.762 187.800 43.274 M112.921 55.101 C 113.133 57.854 114.119 64.434 115.183 70.200 C 115.386 71.300 115.733 73.981 115.955 76.158 C 116.176 78.336 116.515 80.275 116.707 80.467 C 117.030 80.790 119.712 77.753 121.853 74.640 C 122.323 73.958 124.213 71.870 126.053 70.000 C 127.894 68.130 129.670 66.224 130.000 65.765 C 130.330 65.306 131.590 64.097 132.800 63.079 C 134.010 62.061 135.540 60.768 136.200 60.206 C 136.860 59.645 137.985 58.722 138.700 58.157 C 140.775 56.516 140.592 56.383 135.200 55.618 C 133.770 55.415 131.880 55.080 131.000 54.873 C 124.817 53.418 116.469 52.024 113.841 52.007 L 112.681 52.000 112.921 55.101 M287.800 52.987 C 284.451 54.149 279.205 55.606 277.000 55.987 C 275.460 56.252 272.760 56.883 271.000 57.388 C 269.240 57.894 266.373 58.560 264.628 58.869 C 260.665 59.570 260.587 59.840 263.646 62.248 C 265.009 63.322 266.542 64.650 267.053 65.200 C 267.564 65.750 268.180 66.380 268.421 66.600 C 271.588 69.484 276.400 74.551 276.400 75.001 C 276.400 75.320 276.850 75.876 277.400 76.237 C 277.950 76.597 278.402 77.096 278.404 77.346 C 278.406 77.596 279.012 78.560 279.751 79.489 C 280.490 80.419 281.323 81.732 281.603 82.408 C 282.252 83.975 283.354 83.854 283.520 82.197 C 283.659 80.820 284.576 76.456 285.158 74.400 C 285.376 73.630 285.758 72.280 286.005 71.400 C 286.253 70.520 286.875 67.820 287.388 65.400 C 287.900 62.980 288.599 60.190 288.940 59.200 C 290.376 55.031 289.869 52.269 287.800 52.987 M108.200 86.030 C 106.660 86.431 103.126 87.036 100.346 87.376 C 92.455 88.339 89.899 89.149 91.541 90.163 C 91.728 90.279 92.206 91.235 92.602 92.287 C 92.999 93.339 93.805 94.920 94.393 95.800 C 94.982 96.680 95.779 98.210 96.165 99.200 C 96.551 100.190 97.108 101.270 97.402 101.600 C 97.696 101.930 98.326 103.190 98.802 104.399 C 99.277 105.608 99.876 106.850 100.133 107.157 C 100.390 107.465 100.971 108.635 101.425 109.758 C 102.464 112.333 103.311 112.424 103.658 110.000 C 104.177 106.374 104.540 104.954 105.497 102.800 C 106.035 101.590 106.737 99.740 107.057 98.688 C 107.692 96.599 109.769 91.894 111.622 88.344 C 113.464 84.816 113.297 84.704 108.200 86.030 M285.916 89.900 C 286.340 90.505 287.008 91.990 287.400 93.200 C 287.792 94.410 288.414 95.850 288.782 96.400 C 289.150 96.950 289.688 98.210 289.978 99.200 C 290.267 100.190 290.868 101.810 291.313 102.800 C 291.757 103.790 292.274 105.410 292.461 106.400 C 293.033 109.426 294.084 112.400 294.581 112.400 C 295.048 112.400 299.199 106.767 299.201 106.130 C 299.201 105.949 299.741 105.170 300.400 104.400 C 301.059 103.630 301.599 102.806 301.599 102.570 C 301.600 102.333 302.050 101.717 302.600 101.200 C 303.150 100.683 303.600 100.092 303.600 99.886 C 303.600 99.680 304.296 98.676 305.146 97.656 C 305.997 96.635 307.076 95.043 307.545 94.118 L 308.398 92.436 306.899 92.197 C 306.075 92.066 304.680 91.797 303.800 91.600 C 299.948 90.735 297.931 90.407 293.800 89.974 C 291.380 89.720 288.878 89.352 288.240 89.156 C 287.602 88.960 286.645 88.800 286.113 88.800 L 285.146 88.800 285.916 89.900 M215.582 189.100 C 215.555 193.895 214.827 196.169 213.267 196.325 C 209.541 196.697 209.733 190.135 213.542 186.902 C 215.332 185.383 215.602 185.673 215.582 189.100 M236.181 210.064 C 237.970 210.879 237.032 211.916 233.403 213.136 L 231.005 213.942 229.503 213.097 C 227.728 212.100 227.435 210.601 228.900 210.012 C 230.206 209.488 234.991 209.522 236.181 210.064 M189.271 222.878 C 189.762 224.519 189.396 225.415 188.468 224.842 C 187.948 224.521 187.228 222.114 187.210 220.638 C 187.194 219.366 188.713 221.018 189.271 222.878 M230.189 222.930 C 229.755 223.222 228.397 223.769 227.171 224.145 C 225.945 224.522 224.275 225.283 223.461 225.836 C 222.646 226.390 221.252 227.099 220.363 227.413 C 219.474 227.727 218.264 228.323 217.674 228.737 C 217.083 229.152 215.880 229.733 215.000 230.028 C 211.542 231.189 211.515 232.241 214.854 235.891 C 217.250 238.512 217.170 238.579 211.000 239.097 L 207.400 239.400 207.544 244.724 L 207.688 250.048 206.159 249.409 C 205.318 249.057 204.353 248.551 204.015 248.285 C 203.677 248.018 202.561 247.379 201.537 246.864 C 200.512 246.349 199.287 245.568 198.816 245.129 C 197.817 244.198 196.936 244.405 196.429 245.690 C 196.232 246.190 195.334 247.403 194.435 248.384 C 193.536 249.365 192.800 250.393 192.800 250.668 C 192.800 251.167 194.765 253.200 195.247 253.200 C 195.388 253.200 195.721 253.727 195.988 254.371 C 196.255 255.015 196.811 255.848 197.223 256.221 C 200.802 259.460 203.325 274.085 201.043 278.362 C 199.140 281.926 195.202 285.928 191.927 287.625 C 191.117 288.045 190.359 288.542 190.244 288.729 C 190.128 288.917 187.731 290.207 184.917 291.596 C 182.102 292.985 179.350 294.433 178.800 294.814 C 178.250 295.194 176.900 295.808 175.800 296.178 C 174.700 296.547 173.401 297.109 172.914 297.425 C 172.427 297.741 171.167 298.291 170.114 298.647 C 169.061 299.003 167.750 299.600 167.200 299.973 C 166.650 300.346 165.390 300.898 164.400 301.200 C 163.410 301.502 162.140 302.063 161.577 302.447 C 161.014 302.831 159.754 303.458 158.777 303.841 C 157.800 304.224 156.280 305.010 155.400 305.588 C 154.520 306.166 153.040 306.970 152.112 307.375 C 151.183 307.780 150.120 308.446 149.750 308.855 C 149.379 309.265 148.861 309.600 148.597 309.600 C 148.334 309.600 146.885 310.410 145.378 311.400 C 143.871 312.390 142.539 313.201 142.419 313.201 C 142.298 313.202 141.840 313.741 141.400 314.400 C 140.960 315.059 140.411 315.598 140.180 315.599 C 138.774 315.603 131.199 324.843 130.014 328.000 C 129.725 328.770 129.075 330.300 128.570 331.400 C 125.821 337.386 126.014 351.640 128.917 357.058 C 129.254 357.686 129.765 358.830 130.054 359.600 C 130.343 360.370 131.169 361.896 131.889 362.991 C 132.610 364.086 133.200 365.135 133.200 365.323 C 133.200 365.889 139.567 373.242 142.000 375.485 C 142.550 375.992 143.450 376.836 144.000 377.359 C 144.550 377.882 145.406 378.433 145.902 378.583 C 146.398 378.733 147.298 379.271 147.902 379.779 C 148.506 380.287 149.846 381.100 150.880 381.586 C 151.913 382.071 152.970 382.723 153.229 383.034 C 153.487 383.346 154.048 383.600 154.476 383.600 C 154.904 383.600 156.906 384.392 158.927 385.359 C 160.947 386.327 163.230 387.239 164.000 387.386 C 164.770 387.532 166.660 388.075 168.200 388.592 C 169.740 389.109 172.620 389.742 174.600 389.998 C 176.580 390.255 179.010 390.619 180.000 390.808 C 180.990 390.997 183.060 391.387 184.600 391.675 C 188.245 392.358 210.830 392.416 212.600 391.746 C 213.891 391.258 215.822 390.726 219.000 389.982 C 220.100 389.725 221.950 389.084 223.111 388.557 C 224.272 388.031 225.532 387.595 225.911 387.589 C 226.290 387.583 227.410 387.131 228.400 386.586 C 229.390 386.040 231.477 384.973 233.037 384.214 C 234.597 383.455 236.104 382.556 236.386 382.217 C 236.668 381.878 237.084 381.600 237.311 381.600 C 237.856 381.600 242.986 378.102 244.498 376.700 C 245.151 376.095 245.936 375.600 246.242 375.600 C 246.549 375.600 246.800 375.419 246.800 375.198 C 246.800 374.977 248.150 373.477 249.800 371.864 C 251.450 370.251 252.800 368.767 252.800 368.566 C 252.800 368.365 253.430 367.697 254.200 367.083 C 254.970 366.469 255.600 365.770 255.600 365.531 C 255.600 365.291 256.197 364.264 256.926 363.248 C 258.392 361.205 261.600 354.827 261.600 353.955 C 261.600 353.650 261.992 352.410 262.471 351.200 C 266.739 340.413 262.565 325.042 254.470 321.733 C 253.662 321.403 252.100 320.704 251.000 320.181 C 246.431 318.007 237.160 318.128 232.140 320.428 C 230.732 321.072 229.346 321.600 229.060 321.600 C 228.774 321.600 228.117 322.050 227.600 322.600 C 227.083 323.150 226.404 323.600 226.091 323.600 C 224.953 323.600 219.712 329.591 218.917 331.800 C 216.467 338.610 217.676 345.023 222.293 349.719 C 224.166 351.624 224.844 352.047 228.150 353.374 C 237.152 356.989 244.412 353.386 244.394 345.313 C 244.375 336.557 237.020 333.669 236.360 342.158 C 235.966 347.224 234.915 348.466 231.624 347.756 C 228.701 347.125 228.512 346.948 225.882 342.400 C 220.659 333.367 237.825 319.840 247.419 325.428 C 251.319 327.699 251.817 328.125 253.638 330.750 C 257.407 336.184 257.548 345.351 253.959 351.576 C 253.102 353.063 252.400 354.456 252.400 354.670 C 252.400 354.885 251.950 355.483 251.400 356.000 C 250.850 356.517 250.400 357.140 250.400 357.384 C 250.400 357.874 245.814 362.527 243.598 364.287 C 242.826 364.899 241.715 365.850 241.128 366.400 C 238.816 368.567 231.654 372.779 230.250 372.796 C 230.058 372.798 228.798 373.270 227.450 373.845 C 226.103 374.419 224.640 375.039 224.200 375.223 C 223.760 375.406 222.410 375.746 221.200 375.977 C 219.990 376.208 217.200 376.784 215.000 377.256 C 207.301 378.909 196.843 378.714 190.200 376.795 C 189.540 376.604 187.920 376.218 186.600 375.937 C 184.202 375.427 177.691 372.061 175.934 370.424 C 175.447 369.971 174.893 369.600 174.702 369.600 C 173.960 369.600 170.783 365.674 169.524 363.200 C 166.237 356.744 169.181 344.559 174.861 341.104 C 175.502 340.714 176.127 340.133 176.250 339.813 C 176.373 339.493 176.786 339.132 177.166 339.011 C 177.547 338.890 178.253 338.423 178.735 337.974 C 180.744 336.103 190.019 331.576 195.800 329.646 C 202.137 327.529 205.570 326.281 207.400 325.428 C 208.500 324.916 210.796 324.006 212.502 323.407 C 214.208 322.808 215.704 322.156 215.826 321.959 C 215.947 321.761 216.325 321.600 216.664 321.600 C 217.003 321.600 218.796 320.880 220.648 320.000 C 222.500 319.120 224.082 318.400 224.163 318.400 C 224.545 318.400 229.613 315.262 231.019 314.155 C 231.888 313.470 233.140 312.632 233.800 312.293 C 234.460 311.954 235.436 311.209 235.970 310.638 C 236.503 310.067 237.076 309.600 237.242 309.600 C 237.518 309.600 239.147 307.949 242.725 304.046 C 243.454 303.251 244.650 301.970 245.384 301.200 C 246.117 300.430 247.083 299.068 247.529 298.173 C 247.976 297.279 248.625 296.311 248.971 296.024 C 249.317 295.737 249.600 295.333 249.600 295.126 C 249.600 294.919 250.157 293.595 250.838 292.183 C 251.518 290.772 252.430 288.308 252.863 286.709 C 253.297 285.109 253.830 283.170 254.048 282.400 C 256.232 274.690 256.146 266.574 253.791 258.200 C 253.296 256.440 252.680 254.113 252.422 253.028 C 252.164 251.944 251.637 250.594 251.251 250.028 C 250.865 249.463 250.304 248.228 250.005 247.284 C 249.706 246.340 249.042 245.000 248.531 244.306 C 248.019 243.612 247.600 242.826 247.600 242.558 C 247.600 242.291 246.901 241.188 246.047 240.108 C 245.193 239.027 244.222 237.616 243.888 236.971 C 243.555 236.326 242.903 235.456 242.441 235.037 C 241.978 234.618 241.596 234.079 241.591 233.838 C 241.586 233.597 241.001 232.743 240.291 231.941 C 239.581 231.139 238.280 229.521 237.400 228.347 C 233.960 223.756 231.599 221.982 230.189 222.930 M166.000 227.958 C 166.000 228.264 172.056 233.629 176.334 237.114 C 177.068 237.711 178.069 238.560 178.560 239.000 C 179.400 239.752 182.464 242.266 184.167 243.599 C 184.589 243.930 185.687 244.873 186.606 245.695 C 187.525 246.517 188.375 247.092 188.494 246.972 C 188.770 246.696 186.339 240.819 185.332 239.327 C 184.913 238.707 184.333 237.480 184.042 236.600 C 183.192 234.027 182.524 233.264 180.701 232.783 C 179.765 232.536 178.010 231.920 176.800 231.413 C 175.590 230.906 173.790 230.265 172.800 229.988 C 171.810 229.711 170.110 229.060 169.021 228.542 C 166.933 227.547 166.000 227.367 166.000 227.958 M194.672 229.280 C 195.402 229.545 196.000 229.905 196.000 230.080 C 196.000 230.716 193.666 230.381 192.744 229.613 C 191.582 228.645 192.483 228.489 194.672 229.280"/></svg>
