<svg xmlns="http://www.w3.org/2000/svg" id="ocaml" viewBox="0 0 165.543 144.277"><path fill="currentColor" d="m82.91 97.9.023-.061c-.034-.154-.046-.189-.023.061m-.687 36.14c-.459-.978-1.853-3.524-2.553-4.34-1.52-1.779-1.875-1.913-2.322-4.159-.777-3.911-2.834-11.004-5.258-15.899-1.252-2.526-3.334-4.648-5.24-6.48-1.664-1.607-5.414-4.311-6.068-4.177-6.125 1.223-8.025 7.23-10.906 11.989-1.594 2.632-3.283 4.871-4.539 7.671-1.16 2.575-1.057 5.426-3.043 7.637-2.037 2.27-3.361 4.684-4.359 7.617-.189.558-.727 6.417-1.311 7.798l9.103-.641c8.483.578 6.033 3.829 19.273 3.121l20.906-.647c-.648-1.916-1.541-4.135-1.885-4.856-.583-1.214-1.316-3.59-1.798-4.634m26.502-43.29c-1.607 1.16-4.748 3.95-11.58 5.005-3.066.474-5.934.513-9.082.356-1.541-.074-2.994-.153-4.539-.173-.91-.007-3.963-.104-3.812.188l-.34.848c.053.279.164.976.195 1.145.125.685.16 1.23.186 1.86.047 1.295-.107 2.645-.041 3.952.137 2.711 1.143 5.182 1.27 7.917.139 3.045 1.645 6.267 3.102 8.754.553.947 1.395 1.055 1.762 2.221.43 1.336.023 2.753.232 4.177.82 5.521 2.41 11.292 4.896 16.275.018.042.037.087.059.125 3.07-.516 6.146-1.62 10.135-2.21 7.314-1.085 17.486-.526 24.02-1.138 16.533-1.554 25.506 6.781 40.355 3.365V20.857C165.543 9.339 156.209 0 144.688 0H20.856C9.339 0 .001 9.339.001 20.857v45.507c2.984-1.079 7.276-7.428 8.621-8.972 2.353-2.7 2.78-6.144 3.952-8.313 2.669-4.94 3.128-8.337 9.195-8.337 2.828 0 3.951.652 5.864 3.219 1.331 1.785 3.63 5.083 4.706 7.288 1.242 2.544 3.266 5.986 4.156 6.681.659.516 1.313.903 1.923 1.132.984.369 1.798-.308 2.456-.832.84-.669 1.202-2.032 1.98-3.85 1.121-2.623 2.343-5.766 3.038-6.863 1.203-1.896 1.613-4.146 2.912-5.236 1.916-1.607 4.416-1.72 5.104-1.856 3.849-.76 5.599 1.855 7.495 3.546 1.241 1.108 2.937 3.34 4.141 6.331.941 2.336 2.139 4.497 2.64 5.846.484 1.302 1.679 3.389 2.387 5.891.643 2.272 2.364 4.013 3.018 5.093 0 0 1.001 2.804 7.088 5.367 1.32.556 3.988 1.46 5.58 2.039 2.645.961 5.207.836 8.469.445 2.326 0 3.586-3.368 4.643-6.065.625-1.594 1.224-6.162 1.632-7.459.395-1.262-.529-2.238.258-3.344.92-1.291 1.467-1.361 1.998-3.044 1.141-3.604 7.736-3.786 11.443-3.786 3.09 0 2.697 3 7.939 1.974 3.002-.589 5.895.387 9.082 1.231 2.684.712 5.207 1.523 6.719 3.293.978 1.146 3.406 6.888.932 7.133.238.291.412.816.857 1.104-.551 2.166-2.949.623-4.281.345-1.795-.372-3.062.056-4.818.833-3.002 1.337-7.393 1.181-10.008 3.359-2.219 1.846-2.215 5.967-3.25 8.276-.001-.001-2.874 7.394-9.147 11.917M39.35 101.251c-1.428-.145-2.754-.308-4.141-.588-2.59-.522-5.42-1.031-7.971-1.642-1.549-.375-6.709-2.202-7.83-2.717-2.629-1.212-4.375-4.505-6.43-4.166-1.312.214-2.59.664-3.406 1.987-.666 1.079-.892 2.934-1.353 4.178-.535 1.444-1.459 2.792-2.268 4.168-1.488 2.524-4.166 4.807-5.32 7.266A16 16 0 0 0 0 111.399v28.113c1.346.23 2.754.513 4.33.934 11.631 3.103 14.469 3.366 25.877 2.061l1.07-.142c.873-1.816 1.547-8.004 2.113-9.919.441-1.468 1.047-2.638 1.277-4.137.217-1.424-.02-2.781-.142-4.075-.32-3.242 2.361-4.4 3.641-7.184 1.154-2.519 1.82-5.385 2.775-7.96.916-2.471 2.346-5.963 4.785-7.207-.296-.345-5.095-.504-6.376-.632"/></svg>
