<svg xmlns="http://www.w3.org/2000/svg" id="odin" viewBox="0 0 400 208"><path fill="currentColor" d="M14.769 0.208 C 14.769 0.322 14.254 0.416 13.625 0.416 C 12.619 0.416 12.48 0.466 12.48 0.832 C 12.48 1.179 12.342 1.248 11.648 1.248 C 10.955 1.248 10.816 1.317 10.816 1.664 C 10.816 2.011 10.678 2.08 9.984 2.08 C 9.404 2.08 9.152 2.17 9.152 2.376 C 9.152 2.538 8.865 2.734 8.514 2.811 C 8.163 2.888 7.827 3.079 7.767 3.236 C 7.707 3.392 7.479 3.577 7.261 3.646 C 7.043 3.716 6.864 3.906 6.864 4.07 C 6.864 4.234 6.677 4.368 6.448 4.368 C 6.171 4.368 6.032 4.507 6.032 4.784 C 6.032 5.062 5.894 5.2 5.616 5.2 C 5.339 5.2 5.2 5.339 5.2 5.616 C 5.2 5.894 5.062 6.032 4.784 6.032 C 4.507 6.032 4.368 6.171 4.368 6.448 C 4.368 6.677 4.234 6.864 4.07 6.864 C 3.906 6.864 3.716 7.043 3.646 7.261 C 3.577 7.479 3.392 7.707 3.236 7.767 C 3.079 7.827 2.888 8.163 2.811 8.514 C 2.734 8.865 2.538 9.152 2.376 9.152 C 2.17 9.152 2.08 9.404 2.08 9.984 C 2.08 10.678 2.011 10.816 1.664 10.816 C 1.317 10.816 1.248 10.955 1.248 11.648 C 1.248 12.342 1.179 12.48 0.832 12.48 C 0.466 12.48 0.416 12.619 0.416 13.625 C 0.416 14.254 0.322 14.769 0.208 14.769 C 0.07 14.769 0 44.652 0 104.004 C 0 163.356 0.07 193.24 0.208 193.24 C 0.322 193.24 0.416 193.755 0.416 194.384 C 0.416 195.389 0.466 195.528 0.832 195.528 C 1.179 195.528 1.248 195.666 1.248 196.36 C 1.248 197.053 1.317 197.192 1.664 197.192 C 2.011 197.192 2.08 197.331 2.08 198.024 C 2.08 198.604 2.17 198.856 2.376 198.856 C 2.538 198.856 2.734 199.143 2.811 199.494 C 2.888 199.845 3.079 200.181 3.236 200.241 C 3.392 200.301 3.577 200.529 3.646 200.747 C 3.716 200.965 3.906 201.144 4.07 201.144 C 4.234 201.144 4.368 201.331 4.368 201.56 C 4.368 201.837 4.507 201.976 4.784 201.976 C 5.062 201.976 5.2 202.115 5.2 202.392 C 5.2 202.669 5.339 202.808 5.616 202.808 C 5.894 202.808 6.032 202.947 6.032 203.224 C 6.032 203.501 6.171 203.64 6.448 203.64 C 6.677 203.64 6.864 203.774 6.864 203.938 C 6.864 204.102 7.043 204.293 7.261 204.362 C 7.479 204.431 7.707 204.616 7.767 204.772 C 7.827 204.929 8.163 205.12 8.514 205.197 C 8.865 205.274 9.152 205.47 9.152 205.633 C 9.152 205.839 9.404 205.928 9.984 205.928 C 10.678 205.928 10.816 205.998 10.816 206.344 C 10.816 206.691 10.955 206.76 11.648 206.76 C 12.342 206.76 12.48 206.83 12.48 207.176 C 12.48 207.542 12.619 207.592 13.625 207.592 C 14.254 207.592 14.769 207.686 14.769 207.8 C 14.769 207.939 76.651 208.008 20 208.008 C 323.349 208.008 385.231 207.939 385.231 207.8 C 385.231 207.686 385.746 207.592 386.375 207.592 C 387.381 207.592 387.52 207.542 387.52 207.176 C 387.52 206.83 387.658 206.76 388.352 206.76 C 389.045 206.76 389.184 206.691 389.184 206.344 C 389.184 205.998 389.322 205.928 390.016 205.928 C 390.612 205.928 390.848 205.841 390.848 205.62 C 390.848 205.451 391.105 205.25 391.42 205.175 C 391.734 205.099 392.159 204.864 392.364 204.651 C 392.568 204.438 392.826 204.264 392.936 204.264 C 393.046 204.264 393.136 204.124 393.136 203.952 C 393.136 203.779 393.321 203.64 393.552 203.64 C 393.829 203.64 393.968 203.501 393.968 203.224 C 393.968 202.947 394.106 202.808 394.384 202.808 C 394.661 202.808 394.8 202.669 394.8 202.392 C 394.8 202.115 394.938 201.976 395.216 201.976 C 395.493 201.976 395.632 201.837 395.632 201.56 C 395.632 201.331 395.766 201.144 395.93 201.144 C 396.094 201.144 396.284 200.965 396.354 200.747 C 396.423 200.529 396.608 200.301 396.764 200.241 C 396.921 200.181 397.112 199.845 397.189 199.494 C 397.266 199.143 397.462 198.856 397.624 198.856 C 397.83 198.856 397.92 198.604 397.92 198.024 C 397.92 197.331 397.989 197.192 398.336 197.192 C 398.683 197.192 398.752 197.053 398.752 196.36 C 398.752 195.666 398.821 195.528 399.168 195.528 C 399.534 195.528 399.584 195.389 399.584 194.384 C 399.584 193.755 399.678 193.24 399.792 193.24 C 399.93 193.24 400 163.356 400 104.004 C 400 44.652 399.93 14.769 399.792 14.769 C 399.678 14.769 399.584 14.254 399.584 13.625 C 399.584 12.619 399.534 12.48 399.168 12.48 C 398.821 12.48 398.752 12.342 398.752 11.648 C 398.752 10.955 398.683 10.816 398.336 10.816 C 397.989 10.816 397.92 10.678 397.92 9.984 C 397.92 9.404 397.83 9.152 397.624 9.152 C 397.462 9.152 397.266 8.865 397.189 8.514 C 397.112 8.163 396.921 7.827 396.764 7.767 C 396.608 7.707 396.423 7.479 396.354 7.261 C 396.284 7.043 396.094 6.864 395.93 6.864 C 395.766 6.864 395.632 6.677 395.632 6.448 C 395.632 6.171 395.493 6.032 395.216 6.032 C 394.938 6.032 394.8 5.894 394.8 5.616 C 394.8 5.339 394.661 5.2 394.384 5.2 C 394.106 5.2 393.968 5.062 393.968 4.784 C 393.968 4.507 393.829 4.368 393.552 4.368 C 393.323 4.368 393.136 4.234 393.136 4.07 C 393.136 3.906 392.957 3.716 392.739 3.646 C 392.521 3.577 392.293 3.392 392.233 3.236 C 392.173 3.079 391.837 2.888 391.486 2.811 C 391.135 2.734 390.848 2.538 390.848 2.376 C 390.848 2.17 390.596 2.08 390.016 2.08 C 389.322 2.08 389.184 2.011 389.184 1.664 C 389.184 1.317 389.045 1.248 388.352 1.248 C 387.658 1.248 387.52 1.179 387.52 0.832 C 387.52 0.466 387.381 0.416 386.375 0.416 C 385.746 0.416 385.231 0.322 385.231 0.208 C 385.231 0.069 323.349 0 200 0 C 76.651 0 14.769 0.069 14.769 0.208 M82.935 54.829 C 83.759 54.99 84.628 55.122 84.865 55.122 C 85.102 55.122 85.345 55.248 85.404 55.402 C 85.485 55.615 78.574 67.884 75.153 73.598 C 74.901 74.019 74.627 74.503 74.545 74.675 C 74.463 74.847 73.92 75.813 73.339 76.823 C 72.297 78.634 71.95 79.224 71.145 80.551 C 70.92 80.923 70.591 81.508 70.415 81.851 C 70.24 82.194 69.869 82.85 69.592 83.307 C 69.314 83.765 68.941 84.42 68.761 84.763 C 68.582 85.107 68.248 85.668 68.019 86.011 C 67.789 86.355 67.455 86.916 67.276 87.259 C 67.097 87.603 66.746 88.23 66.496 88.654 C 66.247 89.077 63.534 93.757 60.467 99.054 C 57.401 104.351 54.807 108.825 54.702 108.996 C 54.597 109.168 54.017 110.181 53.413 111.248 C 52.809 112.314 52.108 113.531 51.857 113.952 C 51.605 114.372 51.303 114.904 51.184 115.133 C 51.066 115.361 50.736 115.923 50.451 116.381 C 50.167 116.838 49.79 117.493 49.614 117.837 C 49.439 118.18 49.068 118.835 48.791 119.293 C 48.513 119.75 48.14 120.406 47.961 120.749 C 47.781 121.092 47.447 121.654 47.218 121.997 C 46.989 122.34 46.654 122.902 46.475 123.245 C 46.296 123.588 45.945 124.214 45.696 124.635 C 45.446 125.057 43.978 127.604 42.434 130.296 C 40.243 134.115 39.533 135.192 39.205 135.198 C 38.794 135.205 37.182 133.189 35.221 130.213 C 34.383 128.942 31.205 122.807 31.194 122.439 C 31.19 122.31 31.006 121.83 30.785 121.373 C 30.564 120.915 30.38 120.402 30.376 120.233 C 30.372 120.063 30.192 119.455 29.975 118.881 C 29.277 117.028 28.929 115.787 28.707 114.358 C 28.588 113.588 28.403 112.728 28.296 112.445 C 28.086 111.893 27.718 108.314 27.525 104.94 C 27.403 102.805 27.911 96.162 28.299 94.823 C 28.411 94.438 28.596 93.515 28.71 92.772 C 28.825 92.028 29.046 91.092 29.202 90.692 C 29.357 90.291 29.83 88.887 30.253 87.572 C 31.549 83.537 34.044 78.783 37.239 74.259 C 38.82 72.021 42.029 68.605 44.744 66.27 C 46.814 64.49 47.318 64.112 49.558 62.663 C 50.044 62.348 50.536 62.019 50.65 61.932 C 51.594 61.21 55.636 59.074 56.058 59.074 C 56.154 59.074 56.381 58.953 56.562 58.805 C 57.722 57.851 64.826 55.755 69.787 54.903 C 73.26 54.306 80.065 54.268 82.935 54.829 M189.704 54.78 C 190.562 54.97 191.483 55.176 191.752 55.237 C 192.31 55.364 192.26 55.977 191.61 56.963 C 191.41 57.266 191.14 57.702 191.009 57.93 C 190.099 59.519 173.906 87.547 173.545 88.157 C 173.296 88.579 172.945 89.204 172.766 89.548 C 172.587 89.891 172.253 90.476 172.024 90.848 C 171.794 91.219 171.419 91.828 171.19 92.2 C 170.961 92.572 170.627 93.157 170.448 93.5 C 170.269 93.843 169.895 94.498 169.618 94.956 C 169.341 95.413 168.967 96.069 168.788 96.412 C 168.608 96.755 168.349 97.223 168.211 97.452 C 166.762 99.86 165.705 101.669 165.543 102.018 C 165.434 102.253 165.139 102.788 164.888 103.209 C 164.636 103.63 162.418 107.447 159.958 111.693 C 157.499 115.938 155.299 119.734 155.07 120.127 C 154.841 120.521 154.386 121.337 154.059 121.94 C 153.731 122.543 153.352 123.177 153.215 123.349 C 153.078 123.521 152.853 123.895 152.714 124.181 C 152.575 124.467 152.235 125.075 151.957 125.533 C 151.679 125.991 151.355 126.552 151.236 126.781 C 151.118 127.01 150.785 127.572 150.496 128.029 C 150.208 128.487 149.825 129.142 149.646 129.485 C 149.468 129.828 149.117 130.456 148.868 130.88 C 148.618 131.304 147.404 133.41 146.169 135.56 C 144.934 137.71 143.833 139.61 143.722 139.782 C 142.784 141.23 142.749 141.265 142.616 140.92 C 142.544 140.733 142.486 121.218 142.486 97.553 L 142.486 54.527 142.954 54.428 C 144.431 54.115 188.194 54.444 189.704 54.78 M273.566 54.604 C 273.909 54.735 273.772 62.455 273.42 62.805 C 273.286 62.939 271.059 63.04 267.492 63.075 L 261.778 63.131 261.652 75.611 C 261.427 97.89 261.447 144.348 261.682 144.787 C 261.887 145.17 262.175 145.19 267.603 145.19 C 274.469 145.19 273.769 144.67 273.692 149.709 L 273.635 153.406 257.826 153.463 C 249.132 153.495 241.807 153.47 241.55 153.407 C 241.042 153.285 240.808 146.362 241.285 145.606 C 241.45 145.345 242.436 145.277 247.322 145.19 C 252.208 145.103 253.194 145.035 253.359 144.774 C 253.643 144.324 253.631 63.96 253.347 63.429 C 253.142 63.047 252.856 63.027 247.64 63.027 C 244.576 63.027 241.913 62.937 241.615 62.824 L 241.082 62.621 241.082 58.698 C 241.082 56.541 241.144 54.713 241.22 54.637 C 241.38 54.477 273.149 54.445 273.566 54.604 M298.492 68.123 C 298.549 75.559 298.667 81.752 298.753 81.885 C 298.84 82.019 301.695 83.733 305.097 85.695 C 308.5 87.658 311.425 89.346 311.596 89.448 C 311.768 89.55 312.69 90.082 313.645 90.63 C 314.6 91.179 315.723 91.832 316.141 92.081 C 316.559 92.331 317.181 92.683 317.525 92.863 C 317.868 93.043 318.523 93.419 318.981 93.699 C 319.438 93.978 320 94.31 320.229 94.436 C 320.458 94.562 321.019 94.894 321.477 95.173 C 321.934 95.452 322.59 95.828 322.933 96.009 C 323.276 96.189 323.931 96.563 324.389 96.841 C 324.847 97.118 325.502 97.492 325.845 97.673 C 326.188 97.853 326.811 98.205 327.229 98.454 C 327.647 98.704 328.77 99.357 329.725 99.905 C 330.68 100.454 331.602 100.987 331.773 101.089 C 331.945 101.191 333.659 102.193 335.582 103.316 C 337.505 104.438 339.424 105.562 339.846 105.814 C 340.268 106.065 340.82 106.365 341.072 106.481 C 341.323 106.596 341.932 106.951 342.424 107.269 C 342.915 107.587 343.552 107.966 343.838 108.112 C 344.124 108.257 344.732 108.603 345.19 108.88 C 345.647 109.157 346.303 109.531 346.646 109.712 C 346.989 109.892 347.644 110.268 348.102 110.547 C 348.56 110.827 349.121 111.152 349.35 111.27 C 349.579 111.388 350.14 111.721 350.598 112.01 C 351.056 112.299 351.711 112.681 352.054 112.86 C 352.397 113.039 353.053 113.409 353.51 113.682 C 353.968 113.956 354.623 114.324 354.966 114.5 C 355.309 114.676 355.871 115.007 356.214 115.237 C 356.557 115.466 357.119 115.8 357.462 115.979 C 357.806 116.159 358.429 116.509 358.848 116.759 C 359.267 117.009 360.156 117.52 360.824 117.896 C 361.492 118.272 362.179 118.67 362.35 118.781 C 364.533 120.197 364.319 123.555 364.379 86.937 C 364.421 61.571 364.486 54.799 364.691 54.669 C 364.993 54.477 371.726 54.437 372.214 54.624 C 372.512 54.739 372.543 58.403 372.543 94.018 L 372.543 133.285 372.036 133.382 C 371.757 133.435 371.406 133.365 371.256 133.227 C 371.106 133.088 367.583 131.019 363.428 128.63 C 359.273 126.24 355.529 124.081 355.108 123.831 C 354.687 123.582 354.061 123.23 353.718 123.049 C 352.54 122.43 350.734 121.37 350.562 121.197 C 350.467 121.102 350.109 120.891 349.766 120.729 C 349.423 120.567 348.768 120.207 348.31 119.93 C 347.852 119.652 347.197 119.278 346.854 119.098 C 346.511 118.917 345.855 118.543 345.398 118.266 C 344.94 117.988 344.285 117.615 343.942 117.435 C 343.599 117.256 343.037 116.922 342.694 116.693 C 342.35 116.463 341.789 116.129 341.446 115.95 C 341.102 115.771 340.447 115.397 339.99 115.12 C 339.532 114.842 338.877 114.472 338.534 114.295 C 338.19 114.119 337.629 113.791 337.285 113.565 C 336.942 113.34 336.381 113.009 336.037 112.83 C 335.694 112.651 335.039 112.277 334.581 112 C 334.124 111.722 333.469 111.348 333.125 111.168 C 332.782 110.987 332.127 110.613 331.669 110.336 C 331.212 110.058 330.556 109.682 330.213 109.5 C 329.161 108.941 328.381 108.486 327.447 107.887 C 326.955 107.572 326.347 107.22 326.095 107.105 C 325.843 106.989 325.297 106.689 324.881 106.438 C 324.465 106.186 323.388 105.559 322.488 105.045 C 321.589 104.531 320.693 104.016 320.497 103.901 C 319.036 103.044 314.969 100.719 314.717 100.598 C 314.545 100.516 314.063 100.242 313.645 99.99 C 313.227 99.738 312.103 99.083 311.149 98.535 C 310.194 97.986 309.272 97.454 309.1 97.352 C 308.929 97.249 306.401 95.799 303.484 94.128 C 300.567 92.457 298.04 91.004 297.868 90.901 C 297.696 90.797 295.997 89.811 294.092 88.71 C 291.666 87.308 290.591 86.572 290.507 86.255 C 290.334 85.612 290.35 54.805 290.523 54.632 C 290.601 54.554 292.403 54.515 294.527 54.546 L 298.388 54.602 298.492 68.123 M95.418 58.061 C 98.866 59.595 102.303 61.441 103.774 62.547 C 104.277 62.925 104.773 63.235 104.876 63.235 C 105.262 63.235 110.203 67.409 111.925 69.19 C 115.05 72.422 118.076 76.493 119.869 79.875 C 120.384 80.848 121.003 82.016 121.245 82.472 C 121.487 82.928 121.685 83.39 121.685 83.499 C 121.685 83.607 121.881 84.123 122.121 84.646 C 122.904 86.352 123.086 86.824 123.529 88.3 C 123.769 89.1 124.154 90.341 124.385 91.056 C 124.616 91.772 124.805 92.623 124.805 92.947 C 124.805 93.272 124.945 93.997 125.117 94.559 C 125.527 95.9 125.871 99.831 125.906 103.588 C 125.949 108.083 125.552 111.591 124.574 115.341 C 124.455 115.798 124.229 116.687 124.072 117.317 C 123.916 117.946 123.559 119.069 123.28 119.813 C 123.001 120.556 122.618 121.586 122.429 122.101 C 122.055 123.118 119.806 127.683 119.231 128.589 C 119.036 128.897 118.549 129.678 118.149 130.325 C 115.398 134.772 110.847 139.608 105.772 143.478 C 105.582 143.623 103.446 145.083 102.888 145.449 C 102.423 145.754 98.541 147.894 98.452 147.894 C 98.403 147.894 97.83 148.136 97.179 148.432 C 94.036 149.862 92.697 150.39 92.213 150.391 C 92.006 150.392 91.602 150.514 91.316 150.663 C 90.755 150.954 87.226 151.799 84.035 152.406 C 81.615 152.867 70.873 152.931 69.796 152.491 C 69.457 152.353 68.428 152.146 67.508 152.031 C 66.587 151.917 65.413 151.69 64.899 151.528 C 64.384 151.366 63.261 151.032 62.402 150.787 C 61.544 150.542 60.458 150.166 59.988 149.95 C 59.517 149.734 59.049 149.558 58.948 149.557 C 58.467 149.555 53.969 147.431 52.106 146.327 C 51.648 146.056 51.139 145.766 50.975 145.682 C 50.472 145.428 48.223 143.886 46.966 142.933 C 45.58 141.882 45.371 141.436 45.9 140.655 C 46.109 140.346 46.398 139.86 46.541 139.574 C 46.684 139.288 46.989 138.773 47.218 138.43 C 47.447 138.086 47.781 137.525 47.961 137.181 C 48.14 136.838 48.513 136.183 48.791 135.725 C 49.068 135.268 49.44 134.613 49.617 134.269 C 49.794 133.926 50.164 133.271 50.44 132.813 C 50.715 132.356 51.037 131.794 51.156 131.565 C 51.274 131.336 51.607 130.775 51.896 130.317 C 52.185 129.86 52.567 129.204 52.746 128.861 C 52.924 128.518 53.296 127.863 53.572 127.405 C 53.848 126.947 54.187 126.339 54.326 126.053 C 54.465 125.767 54.688 125.393 54.821 125.221 C 54.955 125.049 55.343 124.394 55.684 123.765 C 56.258 122.707 57.385 120.755 57.847 120.021 C 57.954 119.849 58.188 119.428 58.365 119.085 C 58.542 118.742 58.891 118.116 59.141 117.694 C 59.989 116.261 77.273 86.325 77.587 85.746 C 77.894 85.179 79.125 83.063 80.017 81.571 C 80.266 81.153 80.618 80.53 80.798 80.187 C 80.979 79.844 81.353 79.189 81.63 78.731 C 81.908 78.274 82.281 77.618 82.461 77.275 C 82.64 76.932 82.974 76.37 83.203 76.027 C 83.433 75.684 83.767 75.122 83.946 74.779 C 84.125 74.436 84.496 73.781 84.769 73.323 C 85.043 72.865 85.411 72.21 85.588 71.867 C 85.766 71.524 86.139 70.868 86.418 70.411 C 86.698 69.953 87.029 69.392 87.155 69.163 C 87.282 68.934 87.613 68.372 87.893 67.915 C 88.172 67.457 88.548 66.802 88.728 66.459 C 88.909 66.115 89.283 65.46 89.56 65.003 C 89.838 64.545 90.209 63.89 90.385 63.547 C 90.561 63.203 90.866 62.672 91.062 62.367 C 91.259 62.061 91.963 60.868 92.627 59.715 C 93.944 57.429 93.968 57.415 95.418 58.061 M202.143 58.015 C 202.566 58.233 203.333 58.596 203.848 58.821 C 204.969 59.311 206.91 60.255 207.488 60.59 C 208.335 61.082 209.572 61.885 209.672 62.009 C 209.73 62.079 210.057 62.291 210.4 62.479 C 214.37 64.66 220.96 71.11 224.139 75.923 C 224.705 76.781 225.231 77.53 225.307 77.588 C 225.449 77.697 226.226 79.136 227.721 82.059 C 228.668 83.911 229.641 86.185 229.641 86.546 C 229.641 86.675 229.772 87.076 229.931 87.436 C 230.43 88.567 230.917 90.121 231.212 91.524 C 231.368 92.267 231.589 93.297 231.704 93.812 C 232.632 97.966 233.073 105.339 232.581 108.476 C 232.455 109.277 232.252 110.681 232.13 111.596 C 232.007 112.512 231.778 113.682 231.621 114.197 C 231.463 114.711 231.27 115.507 231.19 115.965 C 231.055 116.739 230.684 117.936 229.659 120.905 C 228.994 122.833 227.159 126.726 226.203 128.237 C 225.841 128.809 225.325 129.652 225.056 130.109 C 222.487 134.483 212.354 144.774 210.616 144.774 C 210.553 144.774 210.056 145.08 209.514 145.455 C 208.972 145.829 208.294 146.253 208.008 146.397 C 207.722 146.54 206.88 146.981 206.136 147.375 C 205.393 147.77 204.686 148.095 204.566 148.097 C 204.446 148.1 204.238 148.211 204.104 148.345 C 203.864 148.585 203.382 148.792 201.56 149.438 C 201.045 149.62 200.484 149.846 200.312 149.939 C 200.007 150.105 197.399 150.913 195.528 151.42 C 195.013 151.56 194.03 151.768 193.344 151.883 C 192.657 151.998 191.44 152.242 190.64 152.426 C 188.582 152.898 146.656 153.088 146.274 152.627 C 146.062 152.372 147.712 149.277 151.018 143.734 C 151.12 143.562 151.84 142.317 152.617 140.966 C 153.394 139.616 154.236 138.165 154.488 137.742 C 154.74 137.319 155.014 136.833 155.096 136.661 C 155.242 136.355 156.12 134.816 156.942 133.424 C 157.171 133.036 157.626 132.226 157.954 131.622 C 158.281 131.019 158.661 130.385 158.797 130.213 C 158.934 130.042 159.159 129.667 159.298 129.381 C 159.437 129.095 159.776 128.487 160.052 128.029 C 160.328 127.572 160.7 126.916 160.88 126.573 C 161.059 126.23 161.393 125.668 161.622 125.325 C 161.852 124.982 162.186 124.42 162.365 124.077 C 162.544 123.734 162.915 123.079 163.188 122.621 C 163.462 122.163 163.831 121.508 164.008 121.165 C 164.185 120.822 164.556 120.166 164.834 119.709 C 165.111 119.251 165.484 118.596 165.663 118.253 C 165.842 117.91 166.224 117.254 166.513 116.797 C 166.802 116.339 167.135 115.777 167.253 115.549 C 167.371 115.32 167.697 114.758 167.976 114.301 C 168.255 113.843 168.627 113.188 168.803 112.845 C 168.979 112.501 169.355 111.846 169.64 111.388 C 169.925 110.931 170.255 110.369 170.373 110.14 C 170.491 109.912 170.817 109.35 171.096 108.892 C 171.375 108.435 171.751 107.78 171.932 107.436 C 172.112 107.093 172.486 106.438 172.764 105.98 C 173.041 105.523 173.415 104.867 173.596 104.524 C 173.776 104.181 174.128 103.554 174.377 103.131 C 175.967 100.437 176.755 99.077 176.886 98.804 C 176.968 98.632 177.241 98.147 177.493 97.725 C 177.745 97.303 181.742 90.393 186.375 82.37 C 191.009 74.347 195.004 67.438 195.254 67.016 C 195.503 66.595 195.858 65.97 196.042 65.627 C 196.633 64.524 197.192 63.562 197.613 62.923 C 197.84 62.579 198.171 62.018 198.351 61.674 C 198.53 61.331 198.9 60.676 199.174 60.218 C 199.447 59.761 199.807 59.092 199.972 58.732 C 200.487 57.611 201.019 57.435 202.143 58.015 M150.962 63.251 C 150.577 63.476 150.37 110.251 150.754 110.24 C 151.287 110.224 152.51 108.26 158.941 97.087 C 162.875 90.251 166.235 84.399 166.407 84.082 C 166.713 83.515 167.945 81.399 168.836 79.907 C 169.086 79.489 169.438 78.866 169.618 78.523 C 169.798 78.18 170.173 77.525 170.45 77.067 C 170.727 76.609 171.101 75.954 171.28 75.611 C 171.459 75.268 171.794 74.706 172.023 74.363 C 172.252 74.02 172.584 73.458 172.76 73.115 C 172.936 72.772 173.304 72.116 173.577 71.659 C 173.851 71.201 174.222 70.546 174.402 70.203 C 174.582 69.86 174.958 69.204 175.238 68.747 C 175.517 68.289 175.842 67.728 175.961 67.499 C 176.079 67.27 176.411 66.708 176.698 66.251 C 176.985 65.793 177.333 65.185 177.47 64.899 C 177.607 64.613 177.853 64.218 178.017 64.022 C 178.858 63.013 179.038 63.026 164.697 63.033 C 156.003 63.037 151.199 63.113 150.962 63.251 M67.811 63.667 C 65.013 64.376 61.756 65.453 60.337 66.14 C 60.157 66.227 59.457 66.56 58.78 66.879 C 52.522 69.837 46.563 75.02 42.792 80.783 C 42.652 80.997 42.387 81.371 42.202 81.615 C 42.017 81.86 41.571 82.612 41.212 83.289 C 40.852 83.965 40.476 84.62 40.377 84.745 C 40.278 84.869 40.127 85.205 40.042 85.491 C 39.956 85.777 39.787 86.135 39.666 86.286 C 39.409 86.608 38.485 88.827 38.481 89.132 C 38.48 89.246 38.355 89.578 38.203 89.869 C 37.903 90.443 37.072 93.255 36.514 95.58 C 35.621 99.305 35.62 108.062 36.513 111.804 C 37.055 114.079 37.671 116.284 38.081 117.421 C 38.287 117.993 38.505 118.625 38.566 118.825 C 38.885 119.875 39.287 119.289 44.835 109.661 C 47.69 104.707 50.23 100.308 50.48 99.885 C 50.729 99.462 51.075 98.835 51.247 98.492 C 51.419 98.149 51.937 97.259 52.396 96.516 C 52.856 95.772 53.377 94.883 53.555 94.54 C 53.732 94.197 54.104 93.541 54.381 93.084 C 54.659 92.626 55.033 91.971 55.213 91.628 C 55.394 91.284 55.768 90.629 56.045 90.172 C 56.323 89.714 56.696 89.059 56.876 88.716 C 57.055 88.372 57.389 87.811 57.618 87.467 C 57.848 87.124 58.179 86.563 58.355 86.219 C 58.531 85.876 58.899 85.221 59.173 84.763 C 59.446 84.306 59.816 83.651 59.995 83.307 C 60.174 82.964 60.508 82.379 60.737 82.007 C 60.967 81.635 61.342 81.027 61.571 80.655 C 61.801 80.283 62.135 79.698 62.314 79.355 C 62.493 79.012 62.866 78.357 63.143 77.899 C 63.421 77.441 63.795 76.786 63.975 76.443 C 64.156 76.1 64.507 75.473 64.757 75.05 C 66.346 72.356 67.135 70.996 67.265 70.723 C 67.347 70.551 67.621 70.064 67.873 69.641 C 70.214 65.708 71.351 63.617 71.243 63.442 C 71.048 63.128 69.555 63.226 67.811 63.667 M96.818 69.021 C 96.643 69.328 96.276 69.953 96.002 70.411 C 95.728 70.868 95.358 71.524 95.179 71.867 C 94.999 72.21 94.665 72.772 94.436 73.115 C 94.206 73.458 93.872 74.02 93.693 74.363 C 93.514 74.706 93.14 75.361 92.863 75.819 C 92.586 76.277 92.211 76.932 92.031 77.275 C 91.851 77.618 91.476 78.274 91.199 78.731 C 90.922 79.189 90.576 79.797 90.431 80.083 C 90.286 80.369 89.912 80.997 89.601 81.478 C 89.289 81.959 88.729 82.916 88.355 83.605 C 87.981 84.294 87.488 85.181 87.259 85.576 C 87.031 85.97 84.831 89.763 82.371 94.005 C 79.912 98.246 77.759 101.976 77.587 102.293 C 77.281 102.859 76.055 104.966 75.157 106.469 C 74.908 106.886 74.557 107.509 74.378 107.852 C 74.198 108.196 73.864 108.757 73.635 109.1 C 73.406 109.444 73.071 110.005 72.892 110.348 C 72.713 110.692 72.339 111.347 72.062 111.804 C 71.785 112.262 71.41 112.917 71.23 113.261 C 71.05 113.604 70.698 114.23 70.449 114.653 C 70.199 115.076 69.359 116.527 68.582 117.877 C 67.804 119.228 67.085 120.473 66.983 120.645 C 66.881 120.816 64.802 124.401 62.364 128.61 C 59.925 132.819 57.725 136.61 57.473 137.034 C 56.475 138.717 56.388 139.141 56.942 139.606 C 57.446 140.029 60.806 141.654 61.176 141.654 C 61.342 141.654 61.663 141.78 61.888 141.935 C 62.114 142.09 63.141 142.468 64.171 142.777 C 65.2 143.085 66.37 143.442 66.771 143.57 C 69.517 144.452 78.612 145.046 80.984 144.497 C 81.804 144.308 83.037 144.095 83.723 144.025 C 85.96 143.797 89.457 142.813 91.14 141.94 C 91.443 141.783 91.839 141.654 92.018 141.654 C 92.198 141.654 92.745 141.476 93.234 141.259 C 93.723 141.041 94.358 140.759 94.644 140.632 C 94.93 140.505 95.412 140.238 95.716 140.039 C 96.019 139.84 96.862 139.325 97.588 138.893 C 98.314 138.462 99.089 137.994 99.31 137.853 C 99.532 137.713 100.116 137.352 100.609 137.052 C 102.673 135.796 106.673 132.034 108.765 129.381 C 111.166 126.337 112.679 123.777 114.73 119.293 C 115.559 117.48 116.322 114.807 117.195 110.66 C 117.667 108.419 117.714 99.59 117.263 97.972 C 117.087 97.343 116.88 96.219 116.802 95.476 C 116.666 94.178 116.112 92.11 115.549 90.796 C 115.058 89.653 114.405 87.878 114.398 87.671 C 114.394 87.559 114.21 87.093 113.989 86.635 C 113.768 86.178 113.583 85.737 113.58 85.657 C 113.576 85.576 113.362 85.188 113.105 84.794 C 112.847 84.4 112.262 83.459 111.804 82.703 C 109.238 78.46 108.403 77.378 105.467 74.488 C 101.152 70.24 97.455 67.903 96.818 69.021 M204 68.799 C 203.798 68.845 203.443 69.227 203.212 69.647 C 202.982 70.067 202.585 70.76 202.332 71.186 C 202.079 71.612 201.604 72.455 201.277 73.058 C 200.949 73.661 200.57 74.295 200.433 74.467 C 200.296 74.639 200.071 75.013 199.932 75.299 C 199.793 75.585 199.452 76.193 199.175 76.651 C 198.897 77.109 198.573 77.67 198.454 77.899 C 198.336 78.128 198.003 78.69 197.714 79.147 C 197.425 79.605 197.043 80.26 196.864 80.603 C 196.686 80.946 196.312 81.602 196.035 82.059 C 195.758 82.517 195.383 83.172 195.203 83.515 C 195.023 83.859 194.671 84.485 194.421 84.908 C 192.832 87.603 192.044 88.963 191.913 89.236 C 191.831 89.407 191.558 89.892 191.306 90.313 C 191.054 90.733 188.835 94.552 186.375 98.799 C 183.916 103.045 181.716 106.841 181.487 107.233 C 181.258 107.625 180.803 108.44 180.475 109.043 C 180.147 109.647 179.784 110.259 179.667 110.403 C 179.465 110.655 179.094 111.3 178.384 112.637 C 178.201 112.98 177.822 113.635 177.542 114.093 C 177.261 114.55 176.925 115.182 176.795 115.497 C 176.665 115.811 176.483 116.069 176.391 116.069 C 176.299 116.069 176.117 116.326 175.987 116.641 C 175.857 116.955 175.521 117.587 175.24 118.045 C 174.96 118.502 174.582 119.158 174.402 119.501 C 174.222 119.844 173.87 120.469 173.621 120.89 C 173.371 121.311 170.64 126.021 167.551 131.356 C 164.462 136.692 161.729 141.402 161.477 141.823 C 161.226 142.245 160.915 142.824 160.787 143.109 C 160.658 143.395 160.417 143.779 160.251 143.963 C 159.408 144.894 159.519 144.906 171.044 145.058 C 182.425 145.209 188.588 145.016 190.744 144.441 C 191.373 144.274 192.309 144.056 192.824 143.958 C 194.546 143.63 196.458 143.097 197.016 142.79 C 197.32 142.623 197.695 142.486 197.851 142.486 C 198.007 142.486 198.483 142.298 198.91 142.07 C 199.337 141.841 199.769 141.654 199.87 141.654 C 200.099 141.654 202.034 140.723 203.048 140.125 C 203.465 139.879 204.426 139.321 205.183 138.886 C 208.569 136.936 214.444 131.575 216.282 128.757 C 216.692 128.128 217.346 127.214 217.734 126.727 C 219.13 124.975 221.682 119.615 222.462 116.797 C 222.62 116.225 222.95 115.101 223.194 114.301 C 224.165 111.124 224.655 107.829 224.649 104.524 C 224.645 102.083 223.996 96.173 223.626 95.206 C 223.504 94.885 223.317 94.137 223.211 93.542 C 223.104 92.947 222.769 91.804 222.466 91.004 C 222.163 90.203 221.823 89.243 221.712 88.87 C 221.458 88.023 219.107 83.386 218.365 82.267 C 216.114 78.875 213.397 75.619 211.387 73.903 C 210.746 73.355 209.69 72.439 209.042 71.867 C 208.394 71.295 207.592 70.689 207.26 70.521 C 206.928 70.353 206.329 69.969 205.928 69.667 C 204.946 68.928 204.439 68.699 204 68.799 M291.446 96.842 C 291.832 97.022 292.494 97.373 292.917 97.622 C 295.611 99.211 296.971 100 297.244 100.131 C 297.415 100.213 297.899 100.486 298.319 100.738 C 298.739 100.99 301.579 102.647 304.632 104.42 C 307.684 106.193 310.523 107.848 310.941 108.098 C 311.359 108.348 311.981 108.699 312.324 108.88 C 312.668 109.06 313.323 109.434 313.781 109.712 C 314.238 109.989 314.893 110.362 315.237 110.542 C 315.58 110.721 316.141 111.055 316.485 111.284 C 316.828 111.514 317.389 111.848 317.733 112.027 C 318.076 112.206 318.731 112.58 319.189 112.857 C 319.646 113.135 320.302 113.506 320.645 113.682 C 320.988 113.858 321.55 114.184 321.893 114.406 C 322.236 114.628 322.82 114.976 323.191 115.179 C 323.854 115.543 338.567 124.064 340.057 124.947 C 340.477 125.196 341.102 125.548 341.446 125.728 C 341.789 125.909 342.444 126.286 342.902 126.566 C 343.359 126.847 343.991 127.183 344.306 127.313 C 344.62 127.443 344.878 127.625 344.878 127.717 C 344.878 127.809 345.135 127.988 345.45 128.115 C 345.764 128.242 346.396 128.573 346.854 128.849 C 347.311 129.126 347.967 129.5 348.31 129.68 C 348.653 129.861 349.308 130.235 349.766 130.512 C 350.224 130.79 350.879 131.163 351.222 131.343 C 351.565 131.522 352.127 131.856 352.47 132.085 C 352.813 132.315 353.375 132.649 353.718 132.828 C 354.061 133.007 354.717 133.381 355.174 133.658 C 355.632 133.935 356.287 134.306 356.63 134.482 C 356.973 134.658 357.535 134.973 357.878 135.182 C 358.222 135.392 358.83 135.763 359.23 136.007 C 359.631 136.251 360.192 136.567 360.478 136.71 C 360.764 136.853 361.305 137.174 361.68 137.424 C 362.055 137.674 362.757 138.082 363.24 138.331 C 363.723 138.58 364.493 139.008 364.951 139.281 C 365.408 139.554 366.017 139.897 366.303 140.042 C 366.589 140.188 367.199 140.55 367.659 140.848 C 368.118 141.146 369.007 141.665 369.635 142.002 C 372.724 143.66 372.536 143.242 372.54 148.466 C 372.543 153.26 372.766 153.063 369.527 151.125 C 369.069 150.851 368.414 150.48 368.071 150.301 C 367.728 150.122 367.142 149.788 366.771 149.559 C 366.399 149.33 365.79 148.954 365.419 148.725 C 365.047 148.496 364.462 148.162 364.119 147.983 C 363.775 147.804 363.12 147.434 362.663 147.16 C 362.205 146.887 361.55 146.518 361.206 146.341 C 360.863 146.164 360.208 145.789 359.75 145.508 C 359.293 145.227 358.684 144.875 358.398 144.727 C 358.112 144.578 357.504 144.216 357.046 143.921 C 356.265 143.417 355.887 143.201 354.342 142.375 C 353.999 142.191 353.374 141.837 352.953 141.587 C 351.671 140.827 332.847 129.927 332.131 129.53 C 331.762 129.326 331.087 128.935 330.629 128.66 C 330.172 128.386 329.516 128.015 329.173 127.836 C 328.83 127.657 328.268 127.326 327.925 127.1 C 327.582 126.875 327.02 126.546 326.677 126.37 C 326.334 126.194 325.679 125.823 325.221 125.546 C 324.763 125.268 324.108 124.894 323.765 124.714 C 323.422 124.534 322.767 124.159 322.309 123.882 C 321.851 123.604 321.196 123.231 320.853 123.052 C 320.51 122.872 319.948 122.538 319.605 122.309 C 319.262 122.08 318.7 121.745 318.357 121.566 C 318.014 121.387 317.358 121.016 316.901 120.743 C 316.443 120.469 315.788 120.102 315.445 119.927 C 315.101 119.751 314.446 119.37 313.989 119.08 C 313.531 118.79 312.899 118.453 312.585 118.33 C 312.27 118.208 312.012 118.033 312.012 117.941 C 312.012 117.849 311.755 117.667 311.44 117.537 C 311.126 117.407 310.494 117.071 310.036 116.79 C 309.579 116.509 308.924 116.132 308.58 115.952 C 308.237 115.772 307.582 115.397 307.124 115.12 C 306.667 114.842 306.011 114.472 305.668 114.295 C 305.325 114.119 304.763 113.791 304.42 113.565 C 304.077 113.34 303.515 113.009 303.172 112.83 C 302.829 112.651 302.174 112.279 301.716 112.003 C 300.377 111.198 298.824 110.48 298.651 110.586 C 298.564 110.641 298.492 120.068 298.492 131.536 C 298.492 147.476 298.433 152.446 298.242 152.637 C 298.068 152.811 296.925 152.886 294.436 152.886 C 291.947 152.886 290.804 152.811 290.629 152.637 C 290.365 152.372 290.243 97.529 290.506 96.845 C 290.659 96.445 290.594 96.446 291.446 96.842"/></svg>
