<svg xmlns="http://www.w3.org/2000/svg" id="odin" viewBox="0 0 400 208"><path fill="currentColor" d="M14.769.208c0 .114-.515.208-1.144.208-1.006 0-1.145.05-1.145.416 0 .347-.138.416-.832.416-.693 0-.832.069-.832.416s-.138.416-.832.416c-.58 0-.832.09-.832.296 0 .162-.287.358-.638.435s-.687.268-.747.425-.288.341-.506.41c-.218.07-.397.26-.397.424s-.187.298-.416.298q-.416 0-.416.416 0 .417-.416.416-.416 0-.416.416 0 .417-.416.416-.416 0-.416.416c0 .229-.134.416-.298.416s-.354.179-.424.397c-.069.218-.254.446-.41.506-.157.06-.348.396-.425.747s-.273.638-.435.638c-.206 0-.296.252-.296.832 0 .694-.069.832-.416.832s-.416.139-.416.832c0 .694-.069.832-.416.832-.366 0-.416.139-.416 1.145 0 .629-.094 1.144-.208 1.144C.07 14.769 0 44.652 0 104.004s.07 89.236.208 89.236c.114 0 .208.515.208 1.144 0 1.005.05 1.144.416 1.144.347 0 .416.138.416.832 0 .693.069.832.416.832s.416.139.416.832c0 .58.09.832.296.832.162 0 .358.287.435.638s.268.687.425.747.341.288.41.506c.07.218.26.397.424.397s.298.187.298.416q0 .416.416.416.417 0 .416.416 0 .416.416.416.417 0 .416.416 0 .416.416.416c.229 0 .416.134.416.298s.179.355.397.424.446.254.506.41c.06.157.396.348.747.425s.638.273.638.436c0 .206.252.295.832.295.694 0 .832.07.832.416 0 .347.139.416.832.416.694 0 .832.07.832.416 0 .366.139.416 1.145.416.629 0 1.144.094 1.144.208 0 .139 61.882.208 5.231.208 303.349 0 365.231-.069 365.231-.208 0-.114.515-.208 1.144-.208 1.006 0 1.145-.05 1.145-.416 0-.346.138-.416.832-.416.693 0 .832-.069.832-.416 0-.346.138-.416.832-.416.596 0 .832-.087.832-.308 0-.169.257-.37.572-.445s.739-.311.944-.524.462-.387.572-.387.2-.14.2-.312c0-.173.185-.312.416-.312q.416 0 .416-.416t.416-.416.416-.416.416-.416.416-.416c0-.229.134-.416.298-.416s.354-.179.424-.397c.069-.218.254-.446.41-.506.157-.06.348-.396.425-.747s.273-.638.435-.638c.206 0 .296-.252.296-.832 0-.693.069-.832.416-.832s.416-.139.416-.832c0-.694.069-.832.416-.832.366 0 .416-.139.416-1.144 0-.629.094-1.144.208-1.144.138 0 .208-29.884.208-89.236s-.07-89.235-.208-89.235c-.114 0-.208-.515-.208-1.144 0-1.006-.05-1.145-.416-1.145-.347 0-.416-.138-.416-.832 0-.693-.069-.832-.416-.832s-.416-.138-.416-.832c0-.58-.09-.832-.296-.832-.162 0-.358-.287-.435-.638s-.268-.687-.425-.747-.341-.288-.41-.506c-.07-.218-.26-.397-.424-.397s-.298-.187-.298-.416q0-.416-.416-.416-.417 0-.416-.416 0-.416-.416-.416-.417 0-.416-.416 0-.416-.416-.416c-.229 0-.416-.134-.416-.298s-.179-.354-.397-.424c-.218-.069-.446-.254-.506-.41-.06-.157-.396-.348-.747-.425s-.638-.273-.638-.435c0-.206-.252-.296-.832-.296-.694 0-.832-.069-.832-.416s-.139-.416-.832-.416c-.694 0-.832-.069-.832-.416 0-.366-.139-.416-1.145-.416-.629 0-1.144-.094-1.144-.208C385.231.069 323.349 0 200 0S14.769.069 14.769.208m68.166 54.621c.824.161 1.693.293 1.93.293s.48.126.539.28c.081.213-6.83 12.482-10.251 18.196-.252.421-.526.905-.608 1.077s-.625 1.138-1.206 2.148a150 150 0 0 1-2.194 3.728c-.225.372-.554.957-.73 1.3s-.546.999-.823 1.456a33 33 0 0 0-.831 1.456c-.179.344-.513.905-.742 1.248-.23.344-.564.905-.743 1.248-.179.344-.53.971-.78 1.395-.249.423-2.962 5.103-6.029 10.4s-5.66 9.771-5.765 9.942c-.105.172-.685 1.185-1.289 2.252a200 200 0 0 1-1.556 2.704c-.252.42-.554.952-.673 1.181-.118.228-.448.79-.733 1.248a25 25 0 0 0-.837 1.456c-.175.343-.546.998-.823 1.456a32 32 0 0 0-.83 1.456c-.18.343-.514.905-.743 1.248s-.564.905-.743 1.248-.53.969-.779 1.39c-.25.422-1.718 2.969-3.262 5.661-2.191 3.819-2.901 4.896-3.229 4.902-.411.007-2.023-2.009-3.984-4.985-.838-1.271-4.016-7.406-4.027-7.774-.004-.129-.188-.609-.409-1.066s-.405-.971-.409-1.14c-.004-.17-.184-.778-.401-1.352-.698-1.853-1.046-3.094-1.268-4.523-.119-.77-.304-1.63-.411-1.913-.21-.552-.578-4.131-.771-7.505-.122-2.135.386-8.778.774-10.117.112-.385.297-1.308.411-2.051.115-.744.336-1.68.492-2.08s.628-1.805 1.051-3.12c1.296-4.035 3.791-8.789 6.986-13.313 1.581-2.238 4.79-5.654 7.505-7.989 2.07-1.78 2.574-2.158 4.814-3.607.486-.315.978-.644 1.092-.731.944-.722 4.986-2.858 5.408-2.858.096 0 .323-.121.504-.269 1.16-.954 8.264-3.05 13.225-3.902 3.473-.597 10.278-.635 13.148-.074m106.769-.049c.858.19 1.779.396 2.048.457.558.127.508.74-.142 1.726-.2.303-.47.739-.601.967-.91 1.589-17.103 29.617-17.464 30.227-.249.422-.6 1.047-.779 1.391a26 26 0 0 1-.742 1.3l-.834 1.352a26 26 0 0 0-.742 1.3c-.179.343-.553.998-.83 1.456a33 33 0 0 0-.83 1.456c-.18.343-.439.811-.577 1.04-1.449 2.408-2.506 4.217-2.668 4.566-.109.235-.404.77-.655 1.191-.252.421-2.47 4.238-4.93 8.484s-4.659 8.041-4.888 8.434c-.229.394-.684 1.21-1.011 1.813-.328.603-.707 1.237-.844 1.409a5.5 5.5 0 0 0-.501.832c-.139.286-.479.894-.757 1.352a29 29 0 0 0-.721 1.248 22 22 0 0 1-.74 1.248 26 26 0 0 0-.85 1.456c-.178.343-.529.971-.778 1.395-.25.424-1.464 2.53-2.699 4.68a359 359 0 0 1-2.447 4.222c-.938 1.448-.973 1.483-1.106 1.138-.072-.187-.13-19.702-.13-43.367V54.527l.468-.099c1.477-.313 45.24.016 46.75.352m83.862-.176c.343.131.206 7.851-.146 8.201-.134.134-2.361.235-5.928.27l-5.714.056-.126 12.48c-.225 22.279-.205 68.737.03 69.176.205.383.493.403 5.921.403 6.866 0 6.166-.52 6.089 4.519l-.057 3.697-15.809.057c-8.694.032-16.019.007-16.276-.056-.508-.122-.742-7.045-.265-7.801.165-.261 1.151-.329 6.037-.416s5.872-.155 6.037-.416c.284-.45.272-80.814-.012-81.345-.205-.382-.491-.402-5.707-.402-3.064 0-5.727-.09-6.025-.203l-.533-.203v-3.923c0-2.157.062-3.985.138-4.061.16-.16 31.929-.192 32.346-.033m24.926 13.519c.057 7.436.175 13.629.261 13.762s2.942 1.848 6.344 3.81c3.403 1.963 6.328 3.651 6.499 3.753.172.102 1.094.634 2.049 1.182a257 257 0 0 1 2.496 1.451c.418.25 1.04.602 1.384.782s.998.556 1.456.836 1.019.611 1.248.737.79.458 1.248.737 1.113.655 1.456.836.998.554 1.456.832 1.113.651 1.456.832.966.532 1.384.781c.418.25 1.541.903 2.496 1.451.955.549 1.877 1.082 2.048 1.184s1.886 1.104 3.809 2.227a940 940 0 0 1 4.264 2.498c.422.251.974.551 1.226.667.251.115.86.47 1.352.788.491.318 1.128.697 1.414.843.286.145.894.491 1.352.768.457.277 1.113.651 1.456.832s.998.556 1.456.835c.458.28 1.019.605 1.248.723s.79.451 1.248.74 1.113.671 1.456.85.999.549 1.456.822c.458.274 1.113.642 1.456.818s.905.507 1.248.737.905.563 1.248.742c.344.18.967.53 1.386.78s1.308.761 1.976 1.137a49 49 0 0 1 1.526.885c2.183 1.416 1.969 4.774 2.029-31.844.042-25.366.107-32.138.312-32.268.302-.192 7.035-.232 7.523-.045.298.115.329 3.779.329 39.394v39.267l-.507.097c-.279.053-.63-.017-.78-.155-.15-.139-3.673-2.208-7.828-4.597s-7.899-4.549-8.32-4.799a40 40 0 0 0-1.39-.782c-1.178-.619-2.984-1.679-3.156-1.852-.095-.095-.453-.306-.796-.468a20 20 0 0 1-1.456-.799 33 33 0 0 0-1.456-.832 35 35 0 0 1-1.456-.832 33 33 0 0 0-1.456-.831 16 16 0 0 1-1.248-.742c-.344-.23-.905-.564-1.248-.743a32 32 0 0 1-1.456-.83 30 30 0 0 0-1.456-.825 16 16 0 0 1-1.249-.73 17 17 0 0 0-1.248-.735 33 33 0 0 1-1.456-.83 32 32 0 0 0-1.456-.832 36 36 0 0 1-1.456-.832 35 35 0 0 0-1.456-.836 36 36 0 0 1-2.766-1.613c-.492-.315-1.1-.667-1.352-.782a16 16 0 0 1-1.214-.667c-.416-.252-1.493-.879-2.393-1.393a382 382 0 0 1-1.991-1.144c-1.461-.857-5.528-3.182-5.78-3.303a19 19 0 0 1-1.072-.608c-.418-.252-1.542-.907-2.496-1.455a1660 1660 0 0 0-7.665-4.407 1502 1502 0 0 1-5.616-3.227c-.172-.104-1.871-1.09-3.776-2.191-2.426-1.402-3.501-2.138-3.585-2.455-.173-.643-.157-31.45.016-31.623.078-.078 1.88-.117 4.004-.086l3.861.056zM95.418 58.061c3.448 1.534 6.885 3.38 8.356 4.486.503.378.999.688 1.102.688.386 0 5.327 4.174 7.049 5.955 3.125 3.232 6.151 7.303 7.944 10.685l1.376 2.597c.242.456.44.918.44 1.027s.196.624.436 1.147c.783 1.706.965 2.178 1.408 3.654.24.8.625 2.041.856 2.756.231.716.42 1.567.42 1.891s.14 1.05.312 1.612c.41 1.341.754 5.272.789 9.029.043 4.495-.354 8.003-1.332 11.753-.119.457-.345 1.346-.502 1.976a28 28 0 0 1-.792 2.496c-.279.743-.662 1.773-.851 2.288-.374 1.017-2.623 5.582-3.198 6.488-.195.308-.682 1.089-1.082 1.736-2.751 4.447-7.302 9.283-12.377 13.153-.19.145-2.326 1.605-2.884 1.971-.465.305-4.347 2.445-4.436 2.445-.049 0-.622.242-1.273.538-3.143 1.43-4.482 1.958-4.966 1.959-.207.001-.611.123-.897.272-.561.291-4.09 1.136-7.281 1.743-2.42.461-13.162.525-14.239.085-.339-.138-1.368-.345-2.288-.46-.921-.114-2.095-.341-2.609-.503-.515-.162-1.638-.496-2.497-.741-.858-.245-1.944-.621-2.414-.837s-.939-.392-1.04-.393c-.481-.002-4.979-2.126-6.842-3.23a32 32 0 0 0-1.131-.645c-.503-.254-2.752-1.796-4.009-2.749-1.386-1.051-1.595-1.497-1.066-2.278.209-.309.498-.795.641-1.081s.448-.801.677-1.144c.229-.344.563-.905.743-1.249.179-.343.552-.998.83-1.456s.649-1.112.826-1.456.547-.998.823-1.456.597-1.019.716-1.248c.118-.229.451-.79.74-1.248a25 25 0 0 0 .85-1.456c.178-.343.55-.998.826-1.456s.615-1.066.754-1.352.362-.66.495-.832c.134-.172.522-.827.863-1.456.574-1.058 1.701-3.01 2.163-3.744.107-.172.341-.593.518-.936a33 33 0 0 1 .776-1.391c.848-1.433 18.132-31.369 18.446-31.948.307-.567 1.538-2.683 2.43-4.175.249-.418.601-1.041.781-1.384s.555-.998.832-1.456c.278-.457.651-1.113.831-1.456s.513-.905.742-1.248c.23-.343.564-.905.743-1.248s.55-.998.823-1.456a33 33 0 0 0 .819-1.456c.178-.343.551-.999.83-1.456.28-.458.611-1.019.737-1.248.127-.229.458-.791.738-1.248.279-.458.655-1.113.835-1.456.181-.344.555-.999.832-1.456a29 29 0 0 0 .825-1.456c.176-.344.481-.875.677-1.18.197-.306.901-1.499 1.565-2.652 1.317-2.286 1.341-2.3 2.791-1.654m106.725-.046a36 36 0 0 0 1.705.806c1.121.49 3.062 1.434 3.64 1.769.847.492 2.084 1.295 2.184 1.419.058.07.385.282.728.47 3.97 2.181 10.56 8.631 13.739 13.444.566.858 1.092 1.607 1.168 1.665.142.109.919 1.548 2.414 4.471.947 1.852 1.92 4.126 1.92 4.487 0 .129.131.53.29.89.499 1.131.986 2.685 1.281 4.088.156.743.377 1.773.492 2.288.928 4.154 1.369 11.527.877 14.664-.126.801-.329 2.205-.451 3.12-.123.916-.352 2.086-.509 2.601-.158.514-.351 1.31-.431 1.768-.135.774-.506 1.971-1.531 4.94-.665 1.928-2.5 5.821-3.456 7.332a83 83 0 0 0-1.147 1.872c-2.569 4.374-12.702 14.665-14.44 14.665-.063 0-.56.306-1.102.681-.542.374-1.22.798-1.506.942s-1.128.584-1.872.978c-.743.395-1.45.72-1.57.722s-.328.114-.462.248c-.24.24-.722.447-2.544 1.093-.515.182-1.076.408-1.248.501-.305.166-2.913.974-4.784 1.481-.515.14-1.498.348-2.184.463a56 56 0 0 0-2.704.543c-2.058.472-43.984.662-44.366.201-.212-.255 1.438-3.35 4.744-8.893.102-.172.822-1.417 1.599-2.768s1.619-2.801 1.871-3.224.526-.909.608-1.081c.146-.306 1.024-1.845 1.846-3.237.229-.388.684-1.198 1.012-1.802.327-.603.707-1.237.843-1.409.137-.171.362-.546.501-.832s.478-.894.754-1.352a34 34 0 0 0 .828-1.456c.179-.343.513-.905.742-1.248.23-.343.564-.905.743-1.248s.55-.998.823-1.456a33 33 0 0 0 .82-1.456c.177-.343.548-.999.826-1.456.277-.458.65-1.113.829-1.456s.561-.999.85-1.456c.289-.458.622-1.02.74-1.248.118-.229.444-.791.723-1.248.279-.458.651-1.113.827-1.456.176-.344.552-.999.837-1.457.285-.457.615-1.019.733-1.248.118-.228.444-.79.723-1.248a33 33 0 0 0 .836-1.456c.18-.343.554-.998.832-1.456s.651-1.113.832-1.456.532-.97.781-1.393c1.59-2.694 2.378-4.054 2.509-4.327.082-.172.355-.657.607-1.079s4.249-7.332 8.882-15.355a9044 9044 0 0 1 8.879-15.354c.249-.421.604-1.046.788-1.389.591-1.103 1.15-2.065 1.571-2.704.227-.344.558-.905.738-1.249.179-.343.549-.998.823-1.456s.633-1.126.798-1.486c.515-1.121 1.047-1.297 2.171-.717m-51.181 5.236c-.385.225-.592 47-.208 46.989.533-.016 1.756-1.98 8.187-13.153a3799 3799 0 0 0 7.466-13.005c.306-.567 1.538-2.683 2.429-4.175.25-.418.602-1.041.782-1.384s.555-.998.832-1.456.651-1.113.83-1.456.514-.905.743-1.248.561-.905.737-1.248.544-.999.817-1.456a37 37 0 0 0 .825-1.456c.18-.343.556-.999.836-1.456.279-.458.604-1.019.723-1.248.118-.229.45-.791.737-1.248.287-.458.635-1.066.772-1.352s.383-.681.547-.877c.841-1.009 1.021-.996-13.32-.989-8.694.004-13.498.08-13.735.218m-83.151.416c-2.798.709-6.055 1.786-7.474 2.473-.18.087-.88.42-1.557.739-6.258 2.958-12.217 8.141-15.988 13.904-.14.214-.405.588-.59.832-.185.245-.631.997-.99 1.674-.36.676-.736 1.331-.835 1.456-.099.124-.25.46-.335.746s-.255.644-.376.795c-.257.322-1.181 2.541-1.185 2.846-.001.114-.126.446-.278.737-.3.574-1.131 3.386-1.689 5.711-.893 3.725-.894 12.482-.001 16.224.542 2.275 1.158 4.48 1.568 5.617.206.572.424 1.204.485 1.404.319 1.05.721.464 6.269-9.164 2.855-4.954 5.395-9.353 5.645-9.776.249-.423.595-1.05.767-1.393s.69-1.233 1.149-1.976c.46-.744.981-1.633 1.159-1.976.177-.343.549-.999.826-1.456.278-.458.652-1.113.832-1.456.181-.344.555-.999.832-1.456.278-.458.651-1.113.831-1.456.179-.344.513-.905.742-1.249.23-.343.561-.904.737-1.248s.544-.998.818-1.456.643-1.112.822-1.456a26 26 0 0 1 .742-1.3l.834-1.352c.23-.372.564-.957.743-1.3s.552-.998.829-1.456c.278-.458.652-1.113.832-1.456.181-.343.532-.97.782-1.393 1.589-2.694 2.378-4.054 2.508-4.327.082-.172.356-.659.608-1.082 2.341-3.933 3.478-6.024 3.37-6.199-.195-.314-1.688-.216-3.432.225m29.007 5.354a96 96 0 0 1-.816 1.39 35 35 0 0 0-.823 1.456c-.18.343-.514.905-.743 1.248-.23.343-.564.905-.743 1.248s-.553.998-.83 1.456a34 34 0 0 0-.832 1.456c-.18.343-.555.999-.832 1.456a27 27 0 0 0-.768 1.352 20 20 0 0 1-.83 1.395 39 39 0 0 0-1.246 2.127c-.374.689-.867 1.576-1.096 1.971l-4.888 8.429a1400 1400 0 0 0-4.784 8.288c-.306.566-1.532 2.673-2.43 4.176-.249.417-.6 1.04-.779 1.383-.18.344-.514.905-.743 1.248a17 17 0 0 0-.743 1.248c-.179.344-.553.999-.83 1.456a34 34 0 0 0-.832 1.457c-.18.343-.532.969-.781 1.392-.25.423-1.09 1.874-1.867 3.224a696 696 0 0 1-1.599 2.768c-.102.171-2.181 3.756-4.619 7.965-2.439 4.209-4.639 8-4.891 8.424-.998 1.683-1.085 2.107-.531 2.572.504.423 3.864 2.048 4.234 2.048.166 0 .487.126.712.281.226.155 1.253.533 2.283.842 1.029.308 2.199.665 2.6.793 2.746.882 11.841 1.476 14.213.927.82-.189 2.053-.402 2.739-.472 2.237-.228 5.734-1.212 7.417-2.085.303-.157.699-.286.878-.286s.727-.178 1.216-.395l1.41-.627a9 9 0 0 0 1.072-.593 71 71 0 0 1 1.872-1.146c.726-.431 1.501-.899 1.722-1.04.222-.14.806-.501 1.299-.801 2.064-1.256 6.064-5.018 8.156-7.671 2.401-3.044 3.914-5.604 5.965-10.088.829-1.813 1.592-4.486 2.465-8.633.472-2.241.519-11.07.068-12.688-.176-.629-.383-1.753-.461-2.496-.136-1.298-.69-3.366-1.253-4.68-.491-1.143-1.144-2.918-1.151-3.125-.004-.112-.188-.578-.409-1.036-.221-.457-.406-.898-.409-.978-.004-.081-.218-.469-.475-.863a93 93 0 0 1-1.301-2.091c-2.566-4.243-3.401-5.325-6.337-8.215-4.315-4.248-8.012-6.585-8.649-5.467M204 68.799c-.202.046-.557.428-.788.848a62 62 0 0 1-.88 1.539 68 68 0 0 0-1.055 1.872c-.328.603-.707 1.237-.844 1.409a5.5 5.5 0 0 0-.501.832c-.139.286-.48.894-.757 1.352a29 29 0 0 0-.721 1.248 22 22 0 0 1-.74 1.248 26 26 0 0 0-.85 1.456c-.178.343-.552.999-.829 1.456a34 34 0 0 0-.832 1.456c-.18.344-.532.97-.782 1.393-1.589 2.695-2.377 4.055-2.508 4.328a19 19 0 0 1-.607 1.077c-.252.42-2.471 4.239-4.931 8.486a8926 8926 0 0 1-4.888 8.434 86 86 0 0 0-1.012 1.81c-.328.604-.691 1.216-.808 1.36-.202.252-.573.897-1.283 2.234-.183.343-.562.998-.842 1.456-.281.457-.617 1.089-.747 1.404s-.312.572-.404.572-.274.257-.404.572-.466.946-.747 1.404a31 31 0 0 0-.838 1.456c-.18.343-.532.968-.781 1.389-.25.421-2.981 5.131-6.07 10.466a3259 3259 0 0 1-6.074 10.467 16 16 0 0 0-.69 1.286c-.129.286-.37.67-.536.854-.843.931-.732.943 10.793 1.095 11.381.151 17.544-.042 19.7-.617a37 37 0 0 1 2.08-.483c1.722-.328 3.634-.861 4.192-1.168.304-.167.679-.304.835-.304s.632-.188 1.059-.416c.427-.229.859-.416.96-.416.229 0 2.164-.931 3.178-1.529a279 279 0 0 1 2.135-1.239c3.386-1.95 9.261-7.311 11.099-10.129a32 32 0 0 1 1.452-2.03c1.396-1.752 3.948-7.112 4.728-9.93.158-.572.488-1.696.732-2.496a33.2 33.2 0 0 0 1.455-9.777c-.004-2.441-.653-8.351-1.023-9.318-.122-.321-.309-1.069-.415-1.664-.107-.595-.442-1.738-.745-2.538a43 43 0 0 1-.754-2.134c-.254-.847-2.605-5.484-3.347-6.603-2.251-3.392-4.968-6.648-6.978-8.364a238 238 0 0 1-2.345-2.036c-.648-.572-1.45-1.178-1.782-1.346a11 11 0 0 1-1.332-.854c-.982-.739-1.489-.968-1.928-.868m87.446 28.043c.386.18 1.048.531 1.471.78 2.694 1.589 4.054 2.378 4.327 2.509.171.082.655.355 1.075.607s3.26 1.909 6.313 3.682 5.891 3.428 6.309 3.678 1.04.601 1.383.782c.344.18.999.554 1.457.832.457.277 1.112.65 1.456.83s.904.513 1.248.742c.343.23.904.564 1.248.743s.998.553 1.456.83c.457.278 1.113.649 1.456.825s.905.502 1.248.724.927.57 1.298.773c.663.364 15.376 8.885 16.866 9.768.42.249 1.045.601 1.389.781.343.181.998.558 1.456.838.457.281 1.089.617 1.404.747s.572.312.572.404.257.271.572.398.946.458 1.404.734c.457.277 1.113.651 1.456.831.343.181.998.555 1.456.832.458.278 1.113.651 1.456.831s.905.513 1.248.742c.343.23.905.564 1.248.743s.999.553 1.456.83c.458.277 1.113.648 1.456.824s.905.491 1.248.7l1.352.825c.401.244.962.56 1.248.703s.827.464 1.202.714 1.077.658 1.56.907 1.253.677 1.711.95a29 29 0 0 0 1.352.761c.286.146.896.508 1.356.806.459.298 1.348.817 1.976 1.154 3.089 1.658 2.901 1.24 2.905 6.464.003 4.794.226 4.597-3.013 2.659a36 36 0 0 0-1.456-.824 25 25 0 0 1-1.3-.742l-1.352-.834a26 26 0 0 0-1.3-.742 34 34 0 0 1-1.456-.823 33 33 0 0 0-1.457-.819 28 28 0 0 1-1.456-.833 27 27 0 0 0-1.352-.781 22 22 0 0 1-1.352-.806c-.781-.504-1.159-.72-2.704-1.546a45 45 0 0 1-1.389-.788c-1.282-.76-20.106-11.66-20.822-12.057a60 60 0 0 1-1.502-.87 35 35 0 0 0-1.456-.824 17 17 0 0 1-1.248-.736 17 17 0 0 0-1.248-.73 30 30 0 0 1-1.456-.824 33 33 0 0 0-1.456-.832c-.343-.18-.998-.555-1.456-.832a32 32 0 0 0-1.456-.83c-.343-.18-.905-.514-1.248-.743a16 16 0 0 0-1.248-.743c-.343-.179-.999-.55-1.456-.823a31 31 0 0 0-1.456-.816 23 23 0 0 1-1.456-.847c-.458-.29-1.09-.627-1.404-.75-.315-.122-.573-.297-.573-.389s-.257-.274-.572-.404-.946-.466-1.404-.747a30 30 0 0 0-1.456-.838c-.343-.18-.998-.555-1.456-.832a29 29 0 0 0-1.456-.825 16 16 0 0 1-1.248-.73 18 18 0 0 0-1.248-.735 34 34 0 0 1-1.456-.827c-1.339-.805-2.892-1.523-3.065-1.417-.087.055-.159 9.482-.159 20.95 0 15.94-.059 20.91-.25 21.101-.174.174-1.317.249-3.806.249s-3.632-.075-3.807-.249c-.264-.265-.386-55.108-.123-55.792.153-.4.088-.399.94-.003"/></svg>
