<svg xmlns="http://www.w3.org/2000/svg" id="pari-gp" viewBox="0 0 400 221"><path fill="currentColor" d="M282.6 24.042c-.66.205-4.62 1.279-8.8 2.387s-8.18 2.197-8.888 2.42l-1.289.405-.111 11.773c-.062 6.476-.007 11.773.122 11.773.34 0 20.073-4.761 20.666-4.985.385-.146.5-2.96.5-12.202 0-9.362-.11-12.005-.5-11.979-.275.019-1.04.203-1.7.408m9 73.331c0 58.794.102 73.827.5 73.829.275.002 6.968.812 14.873 1.8 16.546 2.07 16.768 2.084 13.817.87-11.232-4.621-17.189-17.193-17.187-36.272.001-14.428 3.493-23.604 10.417-27.372 2.567-1.397 2.395-1.657 3.952 5.964l1.306 6.392-.923.608c-8.903 5.871-8.924 26.089-.035 34.012 6.442 5.742 17.853 5.927 22.613.366 4.187-4.892 5.342-14.728 2.946-25.095-1.473-6.372-2.322-7.787-4.885-8.146a77 77 0 0 1-3.094-.495l-1.1-.214v8.19c0 6.301-.115 8.183-.5 8.16-.275-.017-1.94-.243-3.7-.503l-3.2-.474-.105-14.371c-.058-7.905.042-14.519.223-14.7.18-.18 4.008.303 8.505 1.074 4.497.77 8.31 1.402 8.473 1.403 2.246.01 7.057 16.382 7.949 27.053 1.765 21.122-4.626 33.864-18.245 36.378-1.548.286 22.611 3.673 26.7 3.744l1.5.026V110c0-38.28-.084-69.6-.187-69.6-.147 0-34.617-8.183-38.013-9.024-.648-.161-.61-.068.2.487 8.353 5.723 10.836 12.553 11.171 30.735l.229 12.399 5.2 1.111c2.86.611 6.505 1.395 8.1 1.742l2.9.63v6.76c0 6.172-.061 6.76-.7 6.758-.385-.002-10.78-1.981-23.1-4.4-12.32-2.418-22.724-4.397-23.12-4.397-.686-.001-.715-.97-.595-20.301l.126-20.3 1.086-3.219c1.901-5.632 4.487-8.542 8.497-9.56 1.724-.438 1.577-.486-9.722-3.162-6.309-1.494-11.787-2.806-12.172-2.915-.665-.188-.7 3.509-.7 73.629M213.4 42.87c-1.1.209-7.04 1.739-13.2 3.401-16.059 4.332-20.504 5.528-26.7 7.18l-5.5 1.466V183.6l1.1-.032c.605-.018 4.43-.425 8.5-.903l7.4-.871.2-24.991.2-24.991 9.8-1.683c5.39-.927 10.001-1.694 10.247-1.707.245-.012.809.833 1.252 1.878s3.277 7.75 6.298 14.9 6.558 15.52 7.862 18.6 3.107 7.355 4.006 9.5c1.109 2.647 1.843 3.903 2.285 3.909.896.012 21.015-2.137 21.195-2.263.08-.057-5.455-12.341-12.3-27.299-13.952-30.489-12.875-27.713-11.145-28.738 10.137-6.003 17.68-21.083 18.664-37.309 1.697-28.002-9.689-42.622-30.164-38.73m103.648 1.56c-3.793 1.083-4.448 3.401-4.448 15.75v9.979l7.2 1.508c3.96.829 7.439 1.513 7.73 1.52.944.023.456-19.624-.55-22.13-1.853-4.617-6.384-7.641-9.932-6.627M274.4 57.375c-4.73 1.148-9.095 2.212-9.7 2.364l-1.1.276V173.2h.836c1.263 0 19.29-1.995 19.864-2.198.397-.14.5-12.1.5-57.989V55.2l-.9.043c-.495.024-4.77.983-9.5 2.132m-57.923 8.695c11.879 3.559 9.871 31.67-2.717 38.049-2.39 1.211-25.166 6.273-28.26 6.28-.165.001-.3-8.726-.3-19.391V71.615l.9-.224c23.431-5.85 26.7-6.422 30.377-5.321m-92.009.679c-.436.277-.308 2.371.712 11.694 4.515 41.241 10.852 73.804 19.452 99.957 2.746 8.35 2.108 7.607 6.149 7.155 4.191-.469 3.973.101 2.001-5.22-11.124-30.012-21.141-71.823-25.187-105.135-1.163-9.577-1.199-9.673-3.127-8.451m-3.168.863c-1.092.439-1.081-2.577-.1 26.788 1.418 42.481 3.583 78.988 5.453 91.947l.252 1.746 2.847-.28c1.567-.154 2.893-.326 2.949-.381.056-.056-.254-2.425-.688-5.266-3.428-22.422-8.801-90.519-8.811-111.666-.002-3.478-.093-3.615-1.902-2.888m-3.741 1.052c-.543.146-.682 1.246-.914 7.254-1.505 38.909-5.795 93.119-8.911 112.604l-.257 1.605 2.719-.254c1.495-.139 2.769-.305 2.831-.367.273-.273 1.824-17.121 2.552-27.724 1.514-22.043 2.412-41.449 3.203-69.182.226-7.92.491-16.605.59-19.3.192-5.245.217-5.179-1.813-4.636m-3.15.892c-.95.264-1.011.481-1.485 5.26-3.279 33.088-12.95 80.084-23.192 112.706-1.664 5.298-1.825 4.862 1.641 4.434 3.451-.426 3.066.081 4.97-6.556 7.945-27.696 16.519-77.734 19.055-111.2.133-1.76.326-3.605.43-4.1.198-.954.136-.977-1.419-.544M66.8 82.383c-.99.178-7.02 1.716-13.4 3.418S40.99 89.112 40 89.374l-1.8.478-.101 53.888-.102 53.888 1.902-.225c3.456-.41 9.093-.996 9.601-1 .393-.002.5-4.139.5-19.339v-19.335l8.62-1.436c10.777-1.796 12.523-2.517 16.932-6.996 7.628-7.75 11.364-19.6 11.382-36.097.022-21.606-7.476-33.083-20.134-30.817m2.691 19.939c7.643 5.443 5.076 29.767-3.624 34.338-.899.472-14.247 3.34-15.546 3.34-.177 0-.321-7.995-.321-17.766v-17.767l6.5-1.611c7.661-1.899 10.887-2.032 12.991-.534"/></svg>
