<svg id="raku" viewBox="22 40 892.683 642.226" xmlns="http://www.w3.org/2000/svg"><path d="M191.544 40c-54.538.034-106.1 22.855-138.578 67.123l-.002.004c-57.616 78.706-32.397 194.755 55.472 259.03 31.221 22.871 66.294 36.212 101.121 40.376a177.509 177.509 0 00-22.06 13.83l.006-.002c-70.294 51.388-90.426 144.062-44.46 206.883 46.09 62.94 140.466 71.717 210.757 20.207 39.03-28.532 62.58-69.793 67.931-111.625a177.424 177.424 0 0014.947 3.582v36.623a5.4 5.4 0 00.776 2.785l20.5 34a5.395 5.395 0 004.62 2.61v-10.79h3.046l-18.152-30.105v-33.357a186.785 186.785 0 0024.605 1.627c3.438 0 6.847-.104 10.23-.288v33.643a5.4 5.4 0 00.776 2.785l20.5 34a5.395 5.395 0 004.62 2.61v-10.79h3.046l-18.152-30.105v-33.043c11.423-1.29 22.45-3.613 32.923-6.86 4.741 42.626 28.402 84.933 68.09 114.071l.006.002c70.29 51.385 164.664 42.61 210.754-20.33l.002-.002c46.091-62.82 25.962-155.616-44.205-207.006-5.3-3.882-10.81-7.47-16.504-10.744 29.33-5.866 58.392-18.312 84.71-37.588 87.24-63.9 112.332-179.078 54.97-257.404-32.198-43.991-83.438-66.69-137.637-66.76-42.155-.054-86.1 13.582-124.268 41.539l-.004.004c-71.235 52.28-101.01 138.664-78.306 211.178a64.226 64.226 0 00-15.272 7.629 177.938 177.938 0 00-32.543-7.315c1.607-32.343-8.158-65.498 4.285-90.709.057-.115.11-.232.16-.35l7.29-17.357 4.802 8.082-3.359.658 2.422 12.36 12.125-2.375c4.272-.838 6.426-5.655 4.201-9.397l-15.75-26.5a6.297 6.297 0 00-11.219.78l-12.105 28.826c.05-.1.091-.201.14-.301l-.16.35.02-.05c-15.025 30.81-4.337 65.929-5.424 94.801-3.688-.219-7.41-.334-11.164-.334-4.008 0-7.98.132-11.912.381-1.11-28.897 9.477-64.034-5.553-94.85l.022.052-.16-.35c.048.1.09.2.138.299l-12.103-28.825a6.297 6.297 0 00-11.219-.779l-15.75 26.5c-2.225 3.742-.07 8.56 4.201 9.397l12.125 2.375 2.422-12.36-3.36-.658 4.803-8.082 7.29 17.357c.05.118.103.235.16.35 12.462 25.25 2.778 58.45 4.416 90.809-12.746 1.688-24.956 4.692-36.436 8.804A64.279 64.279 0 00393 301.494c27.25-74.383-2.253-165.36-76.38-219.586C278.18 53.733 233.962 39.973 191.544 40zm-10.397 34.935c.45.016.897.054 1.342.114 20.43 2.74 39.973 4.99 58.79 13.375 18.815 8.384 36.002 23.289 50.226 48.011a13.48 13.48 0 011.713 8.223c-1.217 10.847.188 32.596-2.479 55.1-2.667 22.504-9.984 47.607-31.42 64.185-.54.416-1.11.791-1.705 1.121l-49.525 27.492c25.948 15.144 54.12 30.01 79.08 46.631l-.254.381a158.927 158.927 0 014.885 3.123l-.237.356c12.31 8.511 19.448 18.726 16.135 24.359-3.323 5.844-16.627 4.527-30.664-2.566l-.188.28a122.17 122.17 0 00-4.185-2.663c-.325-.19-.64-.382-.96-.574-22.812-13.64-52.054-21.801-80.519-31.373-30.65-10.308-61.426-22.517-79.81-49.981l-.014-.021c-10.985-16.478-27.15-36.517-37.566-58.264-5.208-10.873-9.08-22.377-9.377-34.578-.29-11.929 3.375-24.477 11.75-35.147 19.81-31.266 44.926-56.761 75.65-67.49 7.828-4.78 16.667-8.343 26.785-9.937a13.48 13.48 0 012.547-.157zm579.975 14.246c5.111-.01 10.26.152 15.412.496 20.608 1.378 41.163 5.965 58.865 15.852 17.702 9.887 32.484 25.669 39.174 47.264l-.084.025c5.812 12.909 6.664 24.144 1.21 27.963-6.79 4.674-20.61-3.255-32.647-18.104l-1.104.342a72.538 72.538 0 00-1.02-3.047 100.24 100.24 0 01-2.23-3.066c-3.655-5.166-6.59-10.392-8.795-15.365-3.273-3.41-6.967-6.177-11.053-8.498-10.453-5.938-23.95-8.63-38.6-8.504-29.298.252-62.722 12.46-78.55 23.064l-.025.018c-3.37 2.248-6.752 4.48-10.143 6.695l62.865 26.28a13.48 13.48 0 013.041 1.769c40.242 31.09 48.007 86.34 34.26 130.775l-.006.022c-5.552 17.835-14.93 30.574-28.328 36.576-13.399 6.002-27.714 6.633-47.78 9.28-19.797 2.619-35.205 6.252-51.536 4.353-16.328-1.9-31.813-10.978-46.067-28.6-15.195-18.734-27.762-44-33.93-70.144-6.17-26.144-6.23-53.925 8.313-75.703 30.384-45.514 26.908-42.975 78.457-77.34 20.563-13.778 54.52-22.326 90.3-22.403zm-577.88 17.364a71.469 71.469 0 00-20.244 3.161c-5.065 3.535-9.745 8.13-14.615 13.789-10.452 12.14-20.757 28.836-34.58 45.762-5.945 7.35-8.07 12.484-8.63 15.964-.559 3.481-.057 6.056 2.08 10.323 4.271 8.533 16.54 21.147 28.897 39.617l.008.012c10.061 15.07 26.342 28.363 45.45 41.023l55.316-44.082.154-.121c27.71-21.43 24.17-54.107 26.74-83.442-4.054-10.702-13.437-19.644-27.523-26.85-14.717-7.527-33.896-12.574-53.05-15.157zm124.036 22.221c14.778.73 29.007 5.782 40.795 15.514 32.375 26.5 34.25 77.625 4.125 114.25-25.952 31.684-67.243 42.032-98.873 27.094 25.628 1.21 52.882-10.534 71.873-33.719 30.125-36.625 28.25-87.875-4.125-114.375a67.256 67.256 0 00-13.795-8.764zm-115.83 4.764c29.75 0 53.875 23.625 53.875 52.875s-24.125 52.875-53.875 52.875-53.875-23.625-53.875-52.875 24.125-52.874 53.875-52.874zm6.932 35.79c-5.895-.067-11.815 1.843-16.682 5.835-11.25 9.125-12.75 25.75-3.375 37.125s26 13.125 37.125 4 12.625-25.75 3.25-37.125a26.536 26.536 0 00-20.318-9.836zm467.297 2.355c-13.452 9.87-16.222 15.869-36.133 45.697-9.31 13.99-11.528 29.865-8.373 46.945 3.154 17.08 12.032 34.983 24.494 50.348l.013.015c5.874 7.264 10.343 11.103 13.48 12.916 3.14 1.814 4.951 2.159 8.52 2.041 7.133-.234 20.946-5.091 42.76-7.968 20.383-2.69 32.22-4.811 37.713-7.836 5.494-3.025 8.385-6.838 12.918-21.526 4.597-14.904-.269-30.8-11.74-47.62-11.432-16.763-29.052-33.082-45.565-45.844l-38.48-26.602zm117.44 1.88c24.046.384 48.968 12.053 66.706 33.725 29.875 36.375 28.125 87.25-4 113.625-16.273 13.36-37.196 17.822-57.766 14.258 11.217-2.04 21.855-6.736 31.016-14.258 32-26.375 33.875-77.25 4-113.625-14.8-18.02-34.602-29.097-54.723-32.49a74.107 74.107 0 0114.768-1.235zm-98.919 38.476c26.125 0 47.25 21.5 47.25 48.125s-21.125 48.125-47.25 48.125c-26.25 0-47.375-21.5-47.375-48.125s21.125-48.125 47.375-48.125zm-.547 28.953c-5.877-.083-11.765 1.805-16.578 5.797-11 9-12.375 25.625-3.125 36.875 9.25 11.375 25.75 13.125 36.875 4.125 11-9.125 12.375-25.625 3.125-37a26.786 26.786 0 00-20.297-9.797zm-310.828 69.844c28.606 0 51.703 22.989 51.703 51.578 0 28.45-23.114 51.578-51.703 51.578-28.59 0-51.578-23.11-51.578-51.578-.085-28.52 23.057-51.663 51.578-51.578zm191.625 0c28.52-.085 51.663 23.057 51.578 51.578 0 28.467-22.989 51.578-51.578 51.578-28.59 0-51.703-23.127-51.703-51.578 0-28.59 23.097-51.578 51.703-51.578zm-92.375.473c16.327 0 31.942 2.226 46.432 6.287-11.338 11.571-18.354 27.384-18.354 44.818 0 35.3 28.886 64.172 64.297 64.172 17.926 0 34.14-7.412 45.79-19.3a87.785 87.785 0 011.19 14.378c0 60.361-61.68 110.355-139.355 110.355-77.674 0-139.355-49.994-139.355-110.355 0-2.982.168-5.936.466-8.863 10.92 8.615 24.68 13.785 39.64 13.785 35.41 0 64.296-28.873 64.296-64.172 0-16.644-6.388-31.817-16.832-43.227 15.968-5.072 33.427-7.878 51.785-7.878zm-97.5 21.855c-16 0-29 13-29 29s13 29 29 29 28.875-13 28.875-29-12.875-29-28.875-29zm189.875.375c-16.125 0-29 12.875-29 28.875 0 15.875 12.875 28.875 29 28.875 16 0 28.875-13 28.875-28.875 0-16-12.875-28.875-28.875-28.875zm-249.887 55.691l.032.069c-.04-.007-.078-.017-.118-.024.03-.014.057-.03.086-.045zm100.137 62.024c-2.008 13.837 6.524 25.776 17.611 34.056 11.087 8.28 25.46 13.955 39.848 16.372 14.388 2.416 28.97 1.81 40.377-5.157 11.13-6.798 17.144-20.875 13.748-37.888v-2.848h-16.168v3.375c0 .599.068 1.196.2 1.78 2.97 13.165-.108 18.06-6.206 21.784-6.097 3.725-17.335 5.018-29.275 3.012-11.94-2.005-24.404-7.073-32.852-13.383-8.448-6.31-12.15-12.807-11.283-18.783zM267.96 459.22c.828-.01 1.656-.006 2.484.01 15.87.312 31.13 5.41 43.645 15.676 33.25 27.375 34.375 81 2.375 119.875-31.875 39-84.75 48.375-118.125 21-33.25-27.375-34.375-81-2.5-120 19.375-23.538 46.402-36.261 72.12-36.56zm405.867.125c25.718.3 52.746 13.023 72.121 36.561 31.875 39 30.75 92.625-2.5 120-33.375 27.375-86.25 18-118.25-21-31.875-38.875-30.75-92.625 2.5-119.875 12.516-10.266 27.774-15.364 43.645-15.676.826-.016 1.654-.02 2.484-.01zm-388.299 26.926c-13.989-.255-30.44 8.135-42.814 23.26-18 21.875-20.375 49.625-5.375 61.875 15 12.375 41.75 4.625 59.75-17.25 17.875-22 20.25-49.75 5.375-62-4.727-3.867-10.577-5.769-16.936-5.885zm366.34 3.621c-6.338.12-12.147 2.022-16.795 5.889-15.125 12.25-12.75 40 5.25 61.875 17.875 21.75 44.625 29.5 59.625 17.25 15-12.375 12.625-40.125-5.25-61.875-12.375-15.04-28.886-23.402-42.83-23.139" fill="currentColor"/></svg>
