<svg xmlns="http://www.w3.org/2000/svg" id="rebol" viewBox="0 0 400 100"><path fill="currentColor" d="M22.5 11.84c-1.715.15-2.433.4-3.87 1.35-.605.4-1.327.852-1.604 1.004-.277.153-.708.601-.957.995-.649 1.028-2.03 2.441-2.864 2.929-1.65.968-1.567-.87-1.507 33.215l.052 29.417.376.816c.421.912.5.986 2.079 1.936.617.371 1.352.963 1.634 1.314.815 1.014 4.939 3.006 6.638 3.208 2.255.267 218.999.104 219.648-.165.736-.306.689-.44-.368-1.036-.501-.283-1.121-.752-1.378-1.044-.256-.291-.916-.791-1.464-1.111-1.162-.677-6.28-5.729-7.332-7.237a24.82 24.82 0 0 0-1.25-1.633c-2.614-3.038-6.375-12.125-7.16-17.298a375.87 375.87 0 0 0-.588-3.75c-.365-2.229-.493-5.51-.285-7.25l.423-3.5c.139-1.146.327-2.796.418-3.667.099-.95.408-2.349.774-3.5.335-1.054.757-2.404.938-3 .181-.596.625-1.509.986-2.031.362-.521.807-1.326.989-1.789.182-.462.646-1.348 1.03-1.969.385-.62.959-1.615 1.277-2.211.318-.595.746-1.27.95-1.5.204-.229.821-1.091 1.371-1.916 1.655-2.483 7.35-8.07 9.02-8.849 1.963-.916 2.024-.949 2.024-1.09 0-.194-1.158-.472-2.714-.651-1.632-.188-215.138-.175-217.286.013m272.917-.006c-2.494.266-2.718.607-.976 1.49 1.359.689 2.672 1.778 3.425 2.843.293.412.986 1.208 1.541 1.768.978.986 2.296 2.408 4.154 4.482.493.55 1.029 1.262 1.19 1.583.161.321.686 1.146 1.167 1.833.48.688 1.078 1.663 1.328 2.167.25.504.718 1.305 1.04 1.779.795 1.171 2.626 6.638 2.957 8.831.136.902.52 2.953.851 4.557.921 4.45 1.059 6.538.609 9.239a78.5 78.5 0 0 0-.545 3.927c-.296 2.847-.962 5.72-1.694 7.311-.268.583-.71 1.808-.982 2.722-.495 1.667-2.622 6.211-3.367 7.193-.218.289-.786 1.152-1.26 1.919-.893 1.444-1.689 2.456-3.082 3.92a25.856 25.856 0 0 0-1.331 1.519c-.887 1.133-2.965 3.088-3.661 3.443-.364.186-1.007.654-1.43 1.041-.422.386-1.124.988-1.559 1.338-1.925 1.543-5.364 1.428 42.547 1.425 45.977-.002 43.152.059 44.824-.979.414-.258 1.016-.569 1.337-.69 2.221-.843 4.699-4.174 5.328-7.162.269-1.275.25-57.117-.019-58.381-.102-.478-.476-1.44-.83-2.138-.355-.698-.646-1.357-.646-1.464 0-.345-.818-1.821-1.337-2.413-.825-.939-3.742-2.662-4.997-2.951-1.033-.238-82.402-.384-84.582-.152M124.25 26.838c5.958-.004 11.4-.054 12.093-.11 3.959-.325 5.691 2.325 4.72 7.221-.332 1.67-.842 2.31-2.313 2.898l-1 .4-7.5.001c-8.76.002-8.475-.047-9.295 1.591-1.324 2.646.791 5 3.859 4.293 1.649-.38 12.543-.301 13.603.099 1.88.708 2.803 2.074 3.013 4.457.366 4.147-1.52 6.076-5.536 5.665-.904-.093-4.119-.191-7.144-.219l-5.5-.051-.832.417c-2.033 1.017-2.578 4.236-1.076 6.346.479.672 1.954.91 4.153.671 3.531-.385 11.83-.241 13.122.226 2.185.79 2.639 1.815 2.624 5.924-.011 3.175-.435 4.048-2.408 4.956l-.916.422-12.917.033c-8.109.021-13.258.099-13.833.208-2.549.482-4.813-.879-5.335-3.207-.298-1.331-.223-38.605.08-39.74.6-2.245 1.55-2.711 5.255-2.575 1.237.045 7.125.079 13.083.074m-54.083.397c4.318.818 9.157 5.033 9.934 8.653.309 1.44.3 5.937-.016 7.436-.585 2.783-2.726 5.372-5.752 6.958l-1.25.655-.049 1.227-.05 1.228 1.216 1.179c1.713 1.661 2.479 2.644 3.392 4.356.437.819.932 1.645 1.102 1.834.169.19.668 1.138 1.11 2.107.47 1.032 1.098 2.098 1.516 2.572 2.162 2.454 2.072 4.937-.224 6.196-.687.376-9.284.344-10.936-.041-1.699-.397-3.43-1.973-4.496-4.095-.207-.413-.706-1.212-1.108-1.777-.402-.564-1.002-1.614-1.334-2.333-.332-.719-.769-1.532-.972-1.807-.203-.275-.761-1.212-1.242-2.083-.918-1.666-2.062-3.442-2.707-4.204-.345-.408-.509-.459-1.612-.5-2.123-.08-2.007-.665-1.876 9.399.096 7.354-.147 7.605-7.396 7.644-4.642.025-5.521-.128-6.44-1.116-.93-1.001-1.035-1.431-.91-3.719.154-2.816.121-34.182-.037-35.337-.331-2.421.713-4.371 2.508-4.685 1.508-.264 26.088-.038 27.629.253m123.346-.063c3.835.681 8.167 3.439 9.236 5.881.248.567.596 1.319.774 1.672.765 1.522.84 4.492.135 5.364-.077.095-.34.73-.586 1.412-.472 1.308-1.004 2.264-1.481 2.659-.449.373-1.758 2.27-1.758 2.549 0 .72.849 2.129 1.538 2.555 7.276 4.491 5.616 15.626-2.998 20.111-1.802.938-1.87.958-3.201.958-.748 0-2.799.119-4.558.264-1.758.145-3.647.222-4.197.171-1.488-.138-12.321-.139-14.955-.002-3.573.186-5.061-.384-5.626-2.154-.156-.487-.204-5.102-.204-19.512V30.225l.363-.843c.466-1.083 1.054-1.636 2.274-2.137l.981-.404 11.179-.004c10.506-.003 11.294.017 13.084.335m147.838.054c2.255.849 2.197.385 2.126 17.088l-.06 13.936.386.622c.293.47.556.665 1.084.802a382 382 0 0 1 1.264.33c.312.083.626.114.697.07.115-.071 7.118-.431 8.985-.462 3.153-.052 4.3 1.24 4.478 5.044.222 4.741-.705 6.922-3.201 7.526-1.452.352-24.689.263-25.778-.099-.988-.328-2.168-1.544-2.467-2.544-.342-1.141-.279-39.037.067-40.217.409-1.397 1.156-2.079 2.547-2.325 1.512-.268 9.014-.094 9.872.229m-76.768.445c-1.851.148-3.622.521-4.452.938-.542.272-3.924 1.391-4.204 1.391-.208 0-1.769.897-3.586 2.061-1.619 1.037-5.022 4.592-6.084 6.356-.512.849-1.842 4.082-2.229 5.416-.279.964-.426 9.081-.187 10.341.276 1.457 2.209 6.046 2.981 7.076.343.458.816 1.171 1.051 1.583.928 1.63 4.275 4.647 5.953 5.366.416.179 1 .51 1.296.736 4.065 3.101 18.831 2.983 23.791-.19.521-.333 1.171-.7 1.445-.815 1.198-.504 5.248-4.509 5.957-5.891.176-.342.524-.81.775-1.039.942-.861 2.525-5.404 2.905-8.333.625-4.829-.462-10.708-2.588-14a71.683 71.683 0 0 1-1.36-2.21c-.925-1.577-4.773-4.957-5.643-4.957-.057 0-.528-.26-1.046-.578-.518-.318-1.729-.853-2.691-1.189-.963-.336-2.155-.789-2.651-1.007-2.054-.905-5.908-1.336-9.433-1.055m-82.833 9.381c-1.723.628-2.388 2.766-1.513 4.86.756 1.81 6.169 2.206 8.368.614.63-.457 1.228-1.72 1.228-2.595 0-.422-1.955-2.75-2.385-2.839-1.653-.346-2.296-.424-3.415-.415-.884.006-1.594.123-2.283.375m-125.167.028c-1.865.535-2.65 3.863-1.456 6.181 1.1 2.137 4.589 2.117 8.533-.049 1.575-.865 1.621-.923 1.753-2.151.169-1.582-.404-2.467-2.467-3.81-.641-.416-5.088-.536-6.363-.171m211.834 3.594c1.217.24 1.485.378 3.12 1.608 1.135.853 1.7 1.476 3.243 3.572 1.172 1.593 1.105 6.022-.124 8.099-.781 1.32-2.064 2.838-2.898 3.43-.463.328-1.123.801-1.467 1.05-1.413 1.026-4.694 1.21-6.374.358-1.87-.948-4.069-2.979-4.84-4.469-1.853-3.584-1.85-5.033.018-8.684 1.501-2.934 5.74-5.67 8.072-5.21l1.25.246m-86.243 12.589c-3.027 1.313-3.321 5.387-.49 6.798 2.073 1.033 6.666.443 8.714-1.119.953-.727 1.538-2.734 1.017-3.49-.732-1.063-1.795-1.942-2.649-2.19-1.239-.36-5.761-.36-6.592.001"/></svg>
