<svg xmlns="http://www.w3.org/2000/svg" id="rexx" viewBox="0 0 400 336.047"><path fill="currentColor" d="M22.437 22.958c4.985.219 12.834.217 17.442-.003 4.607-.22.528-.399-9.065-.397s-13.363.182-8.377.4m54.016-.008c3.358.235 8.852.235 12.21 0 3.357-.235.61-.427-6.105-.427s-9.462.192-6.105.427m320.845 3.275c-1.084 2.272-2.453 3.833-3.042 3.469-.59-.364-1.451-.05-1.913.699-.526.851-.338 1.05.501.532 2.245-1.388 1.508 1.286-1.632 5.912-3.161 4.658-5.017 6.76-3.408 3.861.617-1.113.053-.942-1.558.471-2.972 2.607-3.233 3.537-.72 2.573 1.034-.397 1.501-.202 1.094.457-.391.633-1.465 1.15-2.386 1.15-.922 0-1.676.507-1.676 1.126 0 .62.805.818 1.789.44 1.38-.53 1.221.274-.696 3.523-1.366 2.315-3.036 3.868-3.712 3.45-.692-.427-.888-.209-.45.501.428.693-2.499 7.076-6.506 14.184-12.958 22.986-14.307 25.089-15.866 24.741-.717-.16-1.303.233-1.303.872 0 .64.535 1.163 1.19 1.163s.335 1.303-.709 2.897-2.328 2.631-2.853 2.306-1.334.023-1.797.771c-.526.851-.337 1.05.501.532 1.972-1.219 1.653.183-1.197 5.254-1.397 2.485-3.098 4.49-3.779 4.454-.682-.036-48.594.104-106.472.312-118.909.426-129.732.188-129.492-2.851.088-1.112-.274-1.754-.804-1.427-.53.328-3.202-3.171-5.938-7.776-3.287-5.533-4.49-8.533-3.549-8.847.784-.261 1.095-1.009.691-1.663-.472-.763-1.057-.664-1.638.276-.614.993-1.687-.073-3.343-3.318-2.78-5.45-3-6.52-1.097-5.344.839.518 1.027.319.502-.532-.463-.749-1.279-1.091-1.814-.761-1.853 1.146-7.472-10.002-5.685-11.278 1.226-.875 1.136-.988-.397-.497-1.47.47-2.897-.965-5.523-5.555-3.931-6.872-4.423-8.667-1.77-6.466 1.469 1.219 1.653 1.164 1.082-.324-.379-.987-1.699-2.059-2.934-2.382-1.234-.322-2.245-1.223-2.245-2.001 0-1.037.515-.988 1.931.182 1.764 1.458 1.793 1.373.331-.974-1.079-1.732-1.872-2.131-2.434-1.222-.533.864-1.593.014-2.947-2.364l-2.113-3.713-28.761-.007-28.76-.008.272 92.151.272 92.152 14.825.325 14.826.325V72.093h4.095c3.639 0 4.472.617 7.462 5.523 1.851 3.038 4.456 7.26 5.788 9.383 2.587 4.121 3.165 6.62 1.26 5.443-.64-.395-1.163-.109-1.163.637s.777 1.058 1.726.693c2.012-.772 4.611 3.279 3.381 5.269-.487.787-.298.998.469.525.706-.437 1.816.2 2.466 1.415 1.017 1.899.363 2.717-4.67 5.846-6.64 4.128-10.068 4.816-5.698 1.144l2.907-2.443-2.907 1.794c-1.599.986-2.78 2.346-2.626 3.02.155.675-1.803 2.418-4.351 3.873l-4.633 2.645-.009 20.507c-.006 15.651.39 21.276 1.676 23.754.927 1.786 1.411 3.69 1.076 4.231-.334.542.054.841.863.665s1.683.658 1.942 1.853c.296 1.36-.005 1.878-.803 1.385-.701-.433-1.274-.177-1.274.568 0 .746.752 1.067 1.671.715 1.429-.548 10.721 13.401 14.979 22.485.449.96 1.82 3.314 3.045 5.233 2.626 4.112 2.962 5.708.944 4.496-.909-.546-.814-.027.253 1.385 2.644 3.501 2.787 3.58 1.965 1.096-.758-2.291-.743-2.292.977-.069 2.072 2.677 2.3 4.617.405 3.446-.839-.518-1.027-.319-.501.532.462.748 1.302 1.076 1.865.728 1.352-.835 3.311 3.055 2.577 5.117-.34.957-.059 1.297.689.835.713-.441 2.047.732 3.058 2.687 2.084 4.029 2.256 5.17.631 4.165-.64-.395-1.163-.164-1.163.513s.721 1.232 1.602 1.232 2.253.784 3.049 1.744c1.66 1.999 34.884 2.643 34.884.676 0-.587.311-2.026.691-3.197.535-1.649.429-1.762-.468-.501-.905 1.272-1.729.508-3.76-3.488-1.43-2.815-4.391-7.926-6.581-11.358-2.189-3.433-3.705-6.958-3.368-7.835.336-.877-.024-1.47-.8-1.318s-1.34-.633-1.252-1.746c.087-1.112-.254-1.767-.758-1.455-1.399.864-5.506-6.802-5.506-10.275 0-1.686.458-2.782 1.017-2.437.56.346 1.018 1.319 1.018 2.162 0 .844.821 2.215 1.825 3.048 1.003.833 1.575 2.468 1.271 3.633-.305 1.164-.11 1.843.433 1.508 1.481-.916 10.599 15.076 9.793 17.176-.38.99-.137 2.141.538 2.559.774.478.945.019.464-1.236-.52-1.354-.329-1.725.594-1.155.748.463 1.361 1.326 1.361 1.918 0 1.444 7.121 13.097 8.662 14.175 2.966 2.075 59.65 1.002 60.477-1.145.722-1.872.871-1.881 1.864-.112.919 1.636 3.558 1.946 17.705 2.081l16.626.158 2.64-4.697c1.452-2.584 3.16-4.697 3.797-4.697.636 0 .851-.495.478-1.099-.768-1.241 11.872-24.483 13.314-24.483 1.592 0 2.291 3.307.825 3.903-.767.312-.496.606.606.657 2.2.101 4.887 4.178 3.854 5.849-.359.582-.041 1.437.708 1.9q1.359.84.499-.792c-.474-.898.234-.325 1.573 1.274s2.219 3.822 1.954 4.941.075 2.376.753 2.796c.797.492.885.184.249-.871-.824-1.367-.65-1.362 1.064.029 1.138.925 1.802 2.604 1.494 3.781-.304 1.165-.108 1.843.435 1.507.544-.336 2.377 1.756 4.072 4.649l3.083 5.261 17.041-.018c10.31-.011 17.729-.513 18.785-1.272 1.462-1.052 1.408-1.146-.335-.584-2.618.846-4.141-2.55-1.87-4.167 1.266-.901 1.168-1.008-.443-.488-2.74.884-6.849-5.663-5.908-9.412.411-1.637.145-2.664-.689-2.664-.747 0-1.057-.487-.689-1.082a1.275 1.275 0 0 0-.41-1.75c-1.262-.78-1.064 1.568.319 3.782.525.842.68 1.806.343 2.143-.582.582-4.391-5.857-4.254-7.192.036-.349-.738-1.438-1.72-2.421-2.068-2.067-2.332-3.945-.555-3.945.678 0 .874-.579.436-1.287-.569-.92-1.042-.887-1.664.119-1.018 1.648-4.665-2.895-4.636-5.777.015-1.573.158-1.576 1.251-.032 1.096 1.551 1.18 1.551.757 0-.262-.959-1.06-1.744-1.774-1.744s-1.953-.654-2.752-1.453c-1.163-1.163-1.123-1.454.2-1.454 1.076 0 .804-.595-.778-1.704-1.338-.937-3.301-3.422-4.361-5.523s-2.556-4.721-3.324-5.823c-1.555-2.232 5.174-17.899 7.16-16.671.558.344 1.66-.153 2.451-1.105.997-1.202 1.037-1.732.131-1.732-.717 0-1.305.611-1.305 1.357s-.268 1.088-.595.761c-.328-.328.505-3.085 1.851-6.127 2.675-6.048 2.364-12.074-.758-14.665-.972-.806-1.5-2.161-1.174-3.01s-.043-1.419-.819-1.267c-.777.152-1.34-.633-1.252-1.746.087-1.112-.254-1.767-.759-1.455-1.096.678-5.91-7.165-6.122-9.973-.397-5.271-3.994-1.138-12.434 14.285-1.721 3.145-2.918 4.144-4.395 3.669-1.544-.496-1.654-.383-.458.472 1.275.911 1.301 1.649.137 3.888-3.141 6.041-3.57 5.996-7.841-.832-3.021-4.831-3.705-6.761-2.631-7.425.935-.577 1.029-1.158.264-1.631-.653-.404-1.376-.169-1.606.521s-1.808-.867-3.507-3.462-2.601-5.019-2.006-5.386c1.472-.91 1.37-2.858-.149-2.858-.678 0-.909.524-.513 1.163.395.64.164 1.163-.513 1.163s-1.248-.392-1.268-.872c-.197-4.638-3.217-5.436-19.789-5.23-19.061.236-19.48.382-15.622 5.44 1.795 2.353 2.644 4.6 2.187 5.79-.48 1.253-.216 1.824.744 1.606 1.353-.307 12.125 16.64 21.917 34.482 3.369 6.14 4.126 11.114 1.437 9.452-.571-.353-1.752.268-2.624 1.38-1.456 1.857-1.409 1.883.583.315 1.961-1.544 2.129-1.498 1.745.471-.234 1.198-1.389 2.32-2.567 2.492-1.177.172-2.486.698-2.907 1.167s.151.526 1.27.124c2.628-.943 2.564-.189-.39 4.59-1.334 2.158-2.985 3.578-3.668 3.155-.708-.437-.907-.223-.461.498.983 1.59-3.507 10.364-6.07 11.86-1.111.649-1.309 1.131-.472 1.152.844.02-.171 2.558-2.455 6.14-2.141 3.357-5.064 8.407-6.494 11.222-1.99 3.916-2.855 4.735-3.685 3.488-.744-1.117-.862-.664-.374 1.442.769 3.321-1.124 5.61-2.238 2.707-.381-.995 1.853-6.181 5.111-11.864l5.789-10.095v-17.2c0-9.46-.423-17.2-.939-17.2-.784 0-6.891 3.431-32.782 18.414-1.057.612-1.884 3.141-2.099 6.414l-.354 5.404h-9.678c-8.678 0-14.519-1.893-12.163-3.941 2.979-2.59 10.925-6.549 12.179-6.067.892.342 1.497.089 1.345-.564s5.94-4.819 13.537-9.26c13.367-7.813 16.765-9.353 15.256-6.912-.395.64-.108 1.163.637 1.163.746 0 1.079-.721.741-1.603-.746-1.945 1.327-4.225 3.797-4.174 1.596.033 1.603.199.058 1.458-.96.781-1.888 2.203-2.064 3.16s.698.447 1.944-1.134 2.04-3.236 1.768-3.676c-.561-.909 10.486-7.985 12.465-7.985.818 0 .706.705-.308 1.931-1.458 1.764-1.374 1.793.974.331 1.639-1.021 2.104-1.888 1.284-2.395-.77-.476.182-1.553 2.372-2.686 2.012-1.04 3.658-2.171 3.658-2.512s-.477-.325-1.06.035-2.715-2.034-4.738-5.321c-2.579-4.192-3.112-5.76-1.786-5.251 1.103.423 1.594.246 1.18-.424-.391-.632-1.52-1.15-2.51-1.15-1.076 0-1.546-.663-1.168-1.647.348-.907-.051-1.911-.886-2.231-1.89-.725-7.822-11.161-7.052-12.407.311-.502-.272-1.234-1.294-1.626-1.188-.456-1.582-1.43-1.094-2.702.42-1.095.391-1.618-.063-1.164-.455.455-1.529.244-2.387-.468-1.753-1.454-2.16-3.843-.478-2.804.595.368 1.33.268 1.634-.222 1.153-1.862-77.491-.341-80.386 1.554-1.468.961-3.589 1.456-4.712 1.099-2.24-.711-6.572 1.899-6.572 3.959 0 1.239-3.004 3.321-8.264 5.727-3.907 1.787-15.574 9.446-15.574 10.223 0 .39 1.558 3.24 3.462 6.334 2.028 3.296 3.187 6.48 2.797 7.687-.503 1.562-.391 1.679.463.483.62-.868 1.385-1.129 1.699-.581 7.187 12.523 8.832 16.27 6.516 14.838-.838-.518-1.027-.318-.501.532.463.749 1.31 1.072 1.882.718 1.304-.806 7.394 10.733 7.528 14.264.131 3.432-.936 2.236-6.505-7.293-2.552-4.367-4.377-8.627-4.056-9.465.322-.838-.05-1.399-.826-1.247-.777.152-1.34-.633-1.253-1.746.091-1.15-.37-1.694-1.069-1.262-.774.478-.946.02-.464-1.236.421-1.098.295-1.704-.281-1.348-1.404.867-7.311-9.84-6.538-11.852.334-.873.148-1.302-.414-.954-1.468.907-5.067-5.024-4.285-7.061.361-.941.175-1.413-.413-1.05s-1.419.094-1.847-.598c-.869-1.405 1.655-3.607 7.254-6.33 2.051-.997 4.07-2.365 4.487-3.04s1.977-.92 3.466-.546 3.03.161 3.422-.473c.426-.689-.132-.856-1.382-.415-3.596 1.269-.316-1.233 9.533-7.272l9.302-5.703 87.791-.369c92.684-.39 151.58.496 150.488 2.264-.357.577-1.1.771-1.651.43-.551-.34-1.381-.006-1.843.743-.556.899-.335 1.048.651.438.946-.584 1.321-.405 1.023.489-.259.777-.981 1.466-1.604 1.532-1.353.144-4.041 2.694-4.041 3.835 0 .443.785.155 1.744-.641 2.167-1.798 2.217-.139.081 2.678-1.193 1.573-1.746 1.718-2.215.581-.344-.833-.528-.207-.408 1.392.14 1.876-.329 2.794-1.323 2.587-.847-.175-1.215.206-.819.849 1.051 1.699-1.598 6.073-3.112 5.138-.766-.474-.955-.262-.469.525 1.071 1.733-1.288 6.073-3.107 5.715-.78-.154-1.328.746-1.217 1.998.536 6.042-2.06 6.939-5.017 1.733-1.56-2.747-2.581-5.662-2.267-6.478.328-.855-.057-1.243-.909-.916q-1.881.722-5.222-7.081c-.274-.64.738-.117 2.248 1.163l2.747 2.325-1.811-2.907c-.997-1.599-2.849-3.384-4.117-3.967s-3.158-2.545-4.2-4.36c-2.084-3.632-1.403-4.487 1.009-1.266 1.386 1.851 1.465 1.798.865-.581-.593-2.352-1.719-3.116-4.096-2.778-.441.063-1.13-.922-1.532-2.188-.751-2.365-36.628-3.766-36.616-1.43.002.48 1.06 2.605 2.351 4.721s1.993 4.422 1.56 5.122c-.473.766-.249.94.564.438.783-.484 1.678.052 2.127 1.274.427 1.159 1.499 2.543 2.382 3.074 1.327.798 1.342 1.292.088 2.84-.844 1.041-.931 1.522-.196 1.081.726-.435 1.968-.012 2.758.94s.981 1.739.423 1.749-.492.402.148.872c.639.47 1.807 1.901 2.594 3.18 18.513 30.072 18.211 29.422 15.946 34.446-1.214 2.693-2.995 4.586-4.722 5.019-1.524.383-2.772 1.314-2.772 2.069 0 1.043.336 1.038 1.396-.022 2.375-2.375 3.741-1.534 1.511.93-1.157 1.279-2.808 2.326-3.668 2.326s-1.564.506-1.564 1.126.889.785 1.975.368c1.581-.606 1.439-.005-.709 3.011-1.476 2.073-2.634 4.916-2.574 6.318.213 4.953.649 7.664 1.154 7.16.935-.935 6.027 6.931 5.453 8.425-.31.809-.013 1.346.661 1.194s2.865 2.711 4.869 6.362c2.663 4.855 4.226 6.551 5.811 6.309 2.393-.366 7.664-7.715 5.533-7.715-.721 0 .006-2.224 1.615-4.942s3.406-6.023 3.993-7.344c.588-1.321 2.625-4.857 4.528-7.857l3.459-5.455 1.883 2.874c2.142 3.269 2.415 4.584.734 3.546-.672-.415-.846.08-.419 1.191.481 1.255 1.001 1.463 1.528.611 1.074-1.737 15.311 22.599 14.483 24.756-.356.928-.008 2.082.774 2.565.969.599 1.123.394.481-.643-.592-.958-.484-1.24.291-.761 1.216.751 8.43 12.89 8.43 14.184 0 .367-.604.294-1.342-.162-.838-.518-1.027-.318-.501.532.463.749 1.306 1.074 1.874.723 1.418-.876 4.76 5.862 3.952 7.967-.359.935-.1 2.042.576 2.46.773.478.945.019.463-1.236-.519-1.354-.328-1.725.595-1.155.748.463 1.36 1.888 1.36 3.167 0 1.395-.512 2.009-1.279 1.535-2.064-1.276.815 3.49 3.251 5.38 1.772 1.375 1.747 1.217-.163-1.018-1.855-2.173-1.917-2.515-.343-1.911 1.662.638 14.813 20.315 14.813 22.164 0 .373 1.082 2.199 2.405 4.056s2.087 3.377 1.698 3.377c-.388 0-.135.654.562 1.454s2.942 4.052 4.988 7.227c3.351 5.203 10.045 11.087 12.612 11.087 2.831 0 1.072-49.342-1.916-53.738-1.599-2.353-2.907-4.765-2.907-5.361 0-.595-.81-1.754-1.799-2.575-1.437-1.193-1.496-1.686-.291-2.45 1.171-.743 1.113-.961-.262-.975-.974-.01-2.794-1.98-4.046-4.378s-3.725-6.773-5.497-9.722c-3.479-5.79-3.988-7.459-1.879-6.155.839.518 1.027.318.501-.532-.463-.749-1.287-1.086-1.832-.749-1.442.891-8.298-11.629-7.503-13.702.371-.964.121-2.095-.555-2.513-.748-.462-.958-.053-.536 1.045 1.355 3.533-.546 1.724-3.516-3.344-3.834-6.542-3.852-8.057-.043-3.572 2.583 3.042 2.782 3.119 1.554.605-1.518-3.11-4.529-6.539-4.529-5.159 0 1.368-4.648-3.242-4.677-4.638-.014-.7-1.023-2.572-2.243-4.16-1.626-2.116-1.886-3.287-.973-4.387.932-1.122.834-1.342-.388-.873-2.793 1.071-6.343-6.898-4.689-10.527.744-1.633 1.814-2.684 2.379-2.335.564.349 1.739-.276 2.611-1.388 1.434-1.83 1.392-1.87-.45-.426-2.314 1.815-2.591 1.036-.813-2.286.671-1.255 1.681-1.997 2.245-1.649.563.348 1.353.101 1.754-.549.402-.65.134-1.182-.596-1.182-.794 0-.406-1.515.969-3.779 1.262-2.078 3.79-6.557 5.618-9.952 3.614-6.713 6.64-12.042 13.773-24.259 2.55-4.367 5.209-8.986 5.909-10.265.7-1.28 1.866-2.202 2.59-2.049.733.154 1.02-.497.647-1.469-.369-.959-.019-2.529.776-3.487s2.355-3.437 3.466-5.508 2.568-3.767 3.238-3.767 1.655-.476 2.188-1.058c.563-.615.36-.708-.485-.222-1.919 1.104-1.776-.372.381-3.952l1.751-2.907-.706 2.907c-.513 2.113-.393 2.454.438 1.247 1.039-1.506 2.027-68.689 1.01-68.689-.224 0-1.295 1.859-2.378 4.132M12.791 28.488c0 3.566.36 4.07 2.907 4.07 1.599 0 2.907-.523 2.907-1.163 0-.639 1.046-1.162 2.325-1.162 1.331 0 2.326.775 2.326 1.812 0 .997-.487 1.512-1.083 1.144-.595-.368-1.411-.137-1.812.513-.402.65.216 1.223 1.373 1.274 1.22.053 1.493.338.65.678-4.011 1.618-1.445 5.044 3.779 5.044 5.223 0 7.79-3.426 3.779-5.044-1.163-.469-1.163-.605 0-.678.799-.051 1.453-.646 1.453-1.324 0-.677-.523-.908-1.162-.512-.64.395-1.163-.098-1.163-1.095 0-1.037.994-1.812 2.325-1.812 1.279 0 2.326.523 2.326 1.162 0 .64 1.308 1.163 2.907 1.163 1.781 0 2.907-.661 2.907-1.708 0-1.006.686-1.444 1.671-1.066 2.847 1.092.601 3.928-3.249 4.102-3.39.153-3.318.225.996.998 2.559.458 3.736.907 2.617.998-1.205.097-2.035 1.113-2.035 2.49 0 3.51 7.818 3.385 8.349-.133.373-2.467 10.256-4.372 10.256-1.978 0 .522-2.224 1.032-4.942 1.134-4.284.162-4.439.249-1.163.655 2.078.258 3.787 1.09 3.797 1.849.01.822.473.675 1.145-.364.682-1.055 1.134-1.196 1.145-.355.018 1.4 4.954 1.768 26.762 1.996 9.567.1 9.896.014 10.276-2.672.448-3.169-1.422-4.747-5.625-4.747-2.301 0-2.544.234-1.163 1.127 1.491.963 1.448 1.129-.291 1.145-1.246.011-2.034-.859-2.034-2.244 0-1.862-.977-2.339-5.524-2.698-4.998-.394-4.832-.455 1.744-.645 4.21-.121 7.268.28 7.268.953 0 .64 1.308 1.163 2.907 1.163 2.557 0 2.907-.499 2.907-4.144v-4.143l-13.954.261c-9.115.17-13.959.7-13.971 1.527-.011.82-.319.857-.872.104-1.413-1.924-8.41-1.451-8.43.57-.016 1.558-.145 1.559-1.145.011q-1.127-1.745-1.145-.291c-.01.825-1.653 1.53-3.797 1.629-3.172.146-2.939.294 1.453.917l5.233.743-5.523.544c-5.386.531-5.524.465-5.524-2.661v-3.206H12.791zm56.959 3.904c-.016 1.658-.167 1.68-1.145.166-.964-1.49-1.13-1.448-1.145.291-.01 1.119.526 2.035 1.19 2.035.714 0 .612.639-.247 1.559-1.059 1.133-1.833 1.212-2.838.29-.76-.697-.911-1.442-.334-1.655.576-.214 1.04-1.26 1.03-2.326-.015-1.676-.17-1.702-1.145-.194s-1.129 1.483-1.145-.194c-.009-1.066.637-2.166 1.436-2.445 2.287-.798 4.362.384 4.343 2.473m12.531 3.291c-1.112.291-3.205.301-4.651.023-1.447-.278-.537-.516 2.021-.529s3.742.215 2.63.506m-2.318 8.183c2.09.259 5.229.253 6.976-.012 1.748-.265.038-.477-3.799-.47-3.838.006-5.267.223-3.177.482M11.462 54.942c-.229.799-.146 39.913.184 86.918l.6 85.466.244-86.919c.134-47.805.051-86.919-.185-86.919-.235 0-.615.654-.843 1.454m359.468 12.5c-1.366 1.918-2.222 3.488-1.902 3.488.319 0 1.699-1.57 3.065-3.488 1.366-1.919 2.222-3.489 1.903-3.489-.32 0-1.7 1.57-3.066 3.489M91.386 75c1.048 1.599 2.38 2.907 2.961 2.907.58 0 .198-1.308-.849-2.907-1.048-1.599-2.38-2.907-2.961-2.907s-.199 1.308.849 2.907M45.831 96.512c0 11.831.173 16.671.384 10.755s.211-15.595 0-21.511-.384-1.076-.384 10.756m183.239 12.79-118.023.598 118.245.283c77.882.186 118.49-.115 118.964-.881.395-.639.295-1.035-.222-.88-.518.155-54.051.551-118.964.88m0 6.908c0 .602.523 1.418 1.163 1.813.639.396 1.162.196 1.162-.442 0-.639 1.963-1.367 4.361-1.618 3.995-.418 3.897-.472-1.163-.651-3.038-.108-5.523.297-5.523.898m-124.419 5.302c-.796.959-2.299 1.727-3.34 1.707-1.59-.031-1.531-.31.365-1.744 2.938-2.222 4.83-2.199 2.975.037m275.18.382c-2.11 2.332-2.459 3.687-.948 3.687.537 0 1.572-1.308 2.301-2.907 1.575-3.457 1.243-3.649-1.353-.78m-182.157 7.894c0 .64.769 2.179 1.708 3.42s1.707 1.734 1.707 1.094-.768-2.178-1.707-3.42-1.708-1.733-1.708-1.094m-33.344 18.194c-1.392.79-4.99 2.876-7.996 4.634-5.76 3.371-9.659 4.32-5.821 1.417 1.241-.939 1.698-1.707 1.014-1.707-1.43 0-4.726 3.64-3.853 4.255.603.424-12.349 8.535-13.629 8.535-.397 0-1.727.909-2.954 2.02-2.421 2.191-6.403-.796-4.711-3.533.398-.645.215-.858-.406-.474-1.973 1.22-5.64-6.199-3.735-7.558 1.238-.882 1.143-.993-.419-.491-2.205.708-5.01-3.117-3.764-5.133.397-.642.094-1.024-.673-.848s-1.634-.334-1.928-1.134c-.416-1.136 5.147-1.45 25.436-1.436 21.207.014 25.505.28 23.439 1.453M45.867 193.023c0 20.146.158 28.387.352 18.314.193-10.072.193-26.555 0-36.628-.194-10.072-.352-1.831-.352 18.314m156.455-7.322c-.318 10.362-.171 18.432.326 17.934.497-.499.757-8.977.578-18.841l-.326-17.934zm149.955-15.294c-1.24 1.494-1.141 2.141.575 3.779 1.963 1.873 2.006 1.849.827-.461-.902-1.768-.876-2.807.096-3.779.738-.738 1.039-1.341.67-1.341-.37 0-1.345.811-2.168 1.802m-82.473 2.946c.044 1.938 2.721 5.717 4.051 5.717.508 0 .095-.916-.918-2.035-1.012-1.119-1.835-2.471-1.827-3.004s-.291-1.274-.664-1.647-.662.063-.642.969m-109.852 13.312c-1.241.939-1.665 1.707-.941 1.707s1.64-.523 2.036-1.163c1.647-2.665 2.597-.813 2.237 4.361l-.385 5.523.961-5.233c1.332-7.246.415-8.465-3.908-5.195m47.236 6.94c-.728 1.598-1.134 2.907-.901 2.907s1.279-1.309 2.327-2.907 1.453-2.907.902-2.907c-.552 0-1.599 1.308-2.328 2.907m114.108 8.43a78 78 0 0 1-1.213 3.198c-.268.639.336.147 1.342-1.095 1.828-2.254 2.38-4.138 1.213-4.138-.34 0-.944.916-1.342 2.035m9.49 4.651c1.803 3.719 2.935 4.778 2.935 2.745 0-.569-1.072-2.269-2.383-3.779l-2.383-2.745zm-61.279 23.237c2.735.245 6.921.242 9.303-.008 2.381-.25.143-.451-4.973-.447s-7.064.209-4.33.455m18.548-.014c2.065.257 5.727.261 8.14.009 2.413-.251.724-.462-3.753-.467s-6.451.201-4.387.458m97.645-.057c-.629 1.019 2.335 5.833 3.046 4.947.219-.273-.239-1.72-1.018-3.216-.779-1.495-1.692-2.274-2.028-1.731m-242.805 1.834c.948 1.225 1.084 2.035.339 2.035-.68 0-1.56-.523-1.955-1.163-1.735-2.808-11.046-1.338-11.046 1.744 0 1.809.658 2.907 1.744 2.907 2.05 0 2.19 1.075.454 3.489-1.059 1.472-1.153 1.427-.6-.291.36-1.119.147-2.035-.472-2.035-2.097 0-1.204 4.648.908 4.733 1.735.07 1.694.215-.272.983-4.002 1.563-5.983.105-8.673-6.387l-2.614-6.306h-6.247c-5.598 0-6.437.333-8.071 3.198-1.779 3.119-1.807 3.126-1.124.291.532-2.208.414-2.49-.49-1.173-.655.954-.886 2.949-.514 4.432.529 2.106.114 2.844-1.891 3.369-1.659.433-2.087.968-1.209 1.511.959.592.817 1.047-.483 1.546-1.165.447-1.842.08-1.842-1.001 0-1.315-1.631-1.708-7.101-1.708-5.834 0-6.982-.311-6.432-1.744.433-1.128-.037-1.756-1.329-1.779-1.866-.033-1.864-.114.037-1.221 4.721-2.75 2.456-5.721-4.361-5.721-6.349 0-9.747 4.268-4.942 6.207 1.163.469 1.163.605 0 .678-.799.051-1.453 1.095-1.453 2.321s.654 2.492 1.453 2.815c1.163.469 1.163.605 0 .678-.799.051-1.453 1.4-1.453 2.999V250h16.86c10.465 0 16.861-.441 16.861-1.163 0-1.465 13.578-1.547 14.481-.087.366.592 4.583 1.097 9.371 1.122l8.706.045v-10.436l2.907 1.905c1.599 1.048 2.907 2.449 2.907 3.114s-1.047.262-2.326-.895-2.309-1.631-2.289-1.053 1.415 2.058 3.099 3.286 2.683 1.621 2.22.872-.368-1.361.21-1.361c1.351 0 4.735 3.723 4.73 5.203-.003.624.689 1.318 1.536 1.542 1.02.271.952-.008-.203-.825-1.332-.942-.439-1.238 3.779-1.251 3.037-.01 5.523-.56 5.523-1.222 0-.829.699-.829 2.249 0 1.237.662 8.301 1.204 15.698 1.204h13.448l.175-5.523.175-5.524.813 5.233.814 5.233.37-5.233c.363-5.143.378-5.159.821-.961.659 6.251 2.119 6.91 14.448 6.529l10.873-.335.368-3.198c.21-1.83 1.08-3.198 2.034-3.198 2.457 0 2.096-4.635-.367-4.725-1.516-.055-1.346-.35.667-1.157 4.555-1.826 2.772-5.103-3.003-5.522l-4.932-.357-.183 5.59-.182 5.59-.798-5.814-.797-5.814-.183 5.523c-.182 5.503-.198 5.523-4.252 5.523-4.055 0-4.071-.02-4.253-5.523l-.182-5.523-.798 5.814-.797 5.814-.183-5.523-.183-5.524-20.058-.107c-33.802-.182-31.044-.69-31.297 5.762l-.191 4.878-3.255-3.119c-1.791-1.715-3.025-3.492-2.743-3.948s-.643-1.815-2.056-3.02c-2.137-1.822-2.304-1.848-.993-.155m6.857 3.198c-.282 1.918-.079 3.488.449 3.488.529 0 .962-1.57.962-3.488 0-1.919-.202-3.489-.45-3.489-.247 0-.679 1.57-.961 3.489m78.139-2.178c-.009.878-.303 2.904-.654 4.503l-.639 2.907 1.776-2.907c2.386-3.905 2.327-2.223-.101 2.868-1.078 2.26-2.648 4.109-3.488 4.109-.856 0-1.529 1.28-1.529 2.907 0 2.547.504 2.907 4.07 2.907 2.238 0 4.069-.477 4.069-1.06 0-1.722 13.837-2.098 14.488-.393.938 2.454 8.831 1.884 8.055-.582-.609-1.938-.56-1.938 1.037 0 1.429 1.734 3.763 2.035 15.793 2.035h14.116v-18.605h-14.037c-15.995 0-16.802.386-16.787 8.033.014 7.485-2.25 7.136-6.346-.978l-3.561-7.055h-5.729c-3.151 0-6.068.549-6.482 1.22-.515.833-1.273.788-2.394-.143-1.277-1.059-1.645-1.007-1.657.234m18.675-1.007c-.091 1.476 4.858 11.451 5.407 10.901.282-.282-.807-3.049-2.42-6.149s-2.957-5.239-2.987-4.752m39.481 2.058c0 1.3.784 2.664 1.744 3.032 1.076.413 1.744 2.18 1.744 4.614 0 2.732-.537 3.946-1.744 3.946-.969 0-1.744 1.033-1.744 2.325 0 2.215.775 2.326 16.279 2.326h16.279v-4.143c0-3.249-.439-4.098-2.035-3.936-3.737.38-4.942-.047-4.942-1.752 0-1.272-1.943-1.791-7.849-2.097l-7.849-.407 8.43-.228c4.997-.135 8.431.246 8.431.935 0 .64 1.308 1.163 2.907 1.163 2.547 0 2.907-.504 2.907-4.07v-4.07h-16.279c-15.588 0-16.279.101-16.279 2.362m-123.256 7.026c0 3.882-.367 4.667-2.035 4.351-2.952-.559-3.498-7.534-.648-8.273 1.156-.3 2.232-.605 2.392-.68.16-.074.291 1.997.291 4.602m-45.349-1.248c1.135 2.122.884 2.325-2.866 2.325-4.419 0-4.468-.041-3.405-2.811.992-2.585 4.785-2.291 6.271.486m64.703-1.466c-5.272.411-5.61.628-5.103 3.279.507 2.655.233 2.828-4.238 2.685l-4.781-.153 4.07-.857q4.07-.856 1.454-1.009c-1.439-.085-2.617-.677-2.617-1.316 0-.64 1.178-1.232 2.617-1.316q2.616-.153-1.454-1.01c-2.893-.609-1.212-.84 5.814-.8 5.436.031 7.343.255 4.238.497m59.34 1.002c.854 2.226-1.4 3.878-4.269 3.128-1.365-.357-1.865-1.291-1.48-2.764.705-2.698 4.755-2.954 5.749-.364m34.422-1.012c-2.699.244-7.408.247-10.465.006-3.057-.24-.849-.439 4.907-.443s8.257.193 5.558.437m-182.593 2.277c1.119.293 2.951.293 4.07 0 1.119-.292.203-.531-2.035-.531s-3.154.239-2.035.531m173.329 2.932 4.869.371-5.524.572c-5.298.55-5.517.455-5.388-2.342.086-1.859.323-2.201.654-.944.362 1.373 1.999 2.084 5.389 2.343m-.364-2.57c0 .639-.785 1.162-1.744 1.162s-1.744-.523-1.744-1.162c0-.64.785-1.163 1.744-1.163s1.744.523 1.744 1.163m45.814 2.598c.76.508.807.898.116.961-.639.059-2.002.271-3.028.472-1.566.306-1.659-.075-.581-2.377.722-1.542 1.487-2.122 1.749-1.326.256.779 1.04 1.8 1.744 2.27m-222.267.548c-1.439.277-3.794.277-5.233 0s-.262-.504 2.616-.504 4.056.227 2.617.504m123.255.02c-2.078.258-5.479.258-7.558 0s-.378-.469 3.779-.469 5.858.211 3.779.469m65.989.031c0 .48-1.258.872-2.796.872s-2.554-.392-2.257-.872c.296-.479 1.554-.872 2.796-.872s2.257.393 2.257.872m-168.298 5.777c1.767.267 4.384.26 5.814-.016s-.016-.495-3.214-.486-4.368.234-2.6.502m124.402-.002c1.759.266 4.637.266 6.396 0 1.758-.266.32-.484-3.198-.484s-4.956.218-3.198.484m-25.29 1.493-11.628.712 11.268.225c6.514.131 11.572-.265 11.988-.937.395-.64.557-1.062.359-.938s-5.592.546-11.987.938m-81.105.82c1.439.278 3.794.278 5.233 0 1.439-.277.261-.504-2.617-.504s-4.055.227-2.616.504m53.488.021c2.079.258 5.48.258 7.559 0s.377-.469-3.779-.469c-4.157 0-5.858.211-3.78.469m42.442-.04c1.119.293 2.951.293 4.07 0 1.119-.292.204-.531-2.035-.531-2.238 0-3.154.239-2.035.531m38.421.062c4.343.224 11.146.223 15.116-.004 3.971-.226.417-.409-7.897-.407s-11.563.187-7.219.411m31.4.002c4.986.219 12.834.217 17.442-.003 4.607-.22.528-.399-9.065-.397-9.593.001-13.363.182-8.377.4"/></svg>
