<svg id="rust" xmlns="http://www.w3.org/2000/svg" viewBox="0 0 105 105"><path d="M49.013 12.32a3.108 3.108 0 016.216 0 3.108 3.108 0 01-6.216 0M11.936 40.46a3.108 3.108 0 016.216 0 3.108 3.108 0 01-6.216 0m74.153.144a3.108 3.108 0 016.216 0 3.108 3.108 0 01-6.217 0m-65.155 4.259a2.838 2.838 0 001.44-3.744L20.996 38h5.423v24.444H15.477a38.265 38.265 0 01-1.24-14.607zm22.685.6V38.26h12.914c.667 0 4.71.77 4.71 3.794 0 2.51-3.101 3.41-5.651 3.41zM25.987 84.257a3.108 3.108 0 016.216 0 3.108 3.108 0 01-6.216 0m46.05.144a3.108 3.108 0 016.217 0 3.108 3.108 0 01-6.217 0M73 77.355a2.833 2.833 0 00-3.365 2.18l-1.56 7.28a38.265 38.265 0 01-31.911-.153l-1.56-7.28a2.832 2.832 0 00-3.363-2.18l-6.427 1.38a38.265 38.265 0 01-3.323-3.917h31.272c.354 0 .59-.064.59-.386V63.216c0-.322-.236-.386-.59-.386h-9.146v-7.012h9.892c.903 0 4.828.258 6.083 5.275.393 1.543 1.256 6.562 1.846 8.17.588 1.801 2.982 5.401 5.533 5.401h16.146a38.265 38.265 0 01-3.544 4.102zm17.365-29.208a38.265 38.265 0 01.08 6.643H86.52c-.394 0-.552.258-.552.643v1.803c0 4.244-2.392 5.167-4.49 5.402-1.996.225-4.21-.836-4.483-2.058-1.178-6.626-3.141-8.04-6.241-10.486 3.847-2.443 7.85-6.047 7.85-10.87 0-5.21-3.571-8.49-6.005-10.1-3.415-2.25-7.196-2.702-8.216-2.702H23.779A38.265 38.265 0 0145.187 14.34l4.786 5.021a2.83 2.83 0 004.006.092l5.355-5.122A38.265 38.265 0 0185.53 32.987l-3.666 8.28a2.841 2.841 0 001.442 3.744zm9.142.134L99.383 47l3.775-3.522c.769-.716.482-2.157-.5-2.523l-4.828-1.805-.377-1.246 3.01-4.182c.614-.85.05-2.207-.984-2.377l-5.09-.828-.612-1.143 2.14-4.695c.437-.956-.377-2.179-1.429-2.139l-5.165.18-.817-.99 1.188-5.032c.24-1.022-.798-2.06-1.82-1.82l-5.03 1.186-.993-.816.181-5.166c.04-1.046-1.184-1.863-2.138-1.429l-4.694 2.14-1.143-.613-.83-5.09c-.168-1.033-1.526-1.597-2.376-.985l-4.185 3.011-1.244-.377-1.805-4.828c-.366-.984-1.808-1.267-2.522-.503l-3.522 3.78-1.28-.126-2.72-4.395c-.55-.89-2.023-.89-2.57 0l-2.72 4.395L47 5.187l-3.523-3.779c-.714-.764-2.156-.48-2.522.503L39.15 6.74l-1.245.377-4.184-3.01c-.85-.615-2.209-.049-2.377.983l-.83 5.091-1.143.613-4.694-2.14c-.954-.436-2.178.383-2.138 1.43l.18 5.165-.992.816-5.03-1.186c-1.023-.238-2.06.798-1.82 1.82l1.184 5.032-.814.99-5.166-.18c-1.042-.03-1.863 1.183-1.429 2.14l2.14 4.694-.613 1.143-5.09.828c-1.034.168-1.594 1.527-.984 2.377l3.011 4.182-.378 1.246-4.828 1.805c-.98.366-1.267 1.807-.5 2.523L5.185 47l-.125 1.28L.667 51c-.89.55-.89 2.023 0 2.571l4.394 2.72.125 1.28-3.777 3.523c-.766.714-.479 2.154.501 2.522l4.828 1.805.378 1.246-3.01 4.183c-.613.852-.05 2.21.984 2.376l5.09.828.612 1.145-2.14 4.693c-.436.954.387 2.181 1.43 2.14l5.163-.182.816.992-1.185 5.033c-.24 1.02.798 2.056 1.82 1.816l5.031-1.185.992.814-.18 5.167c-.04 1.046 1.184 1.864 2.138 1.428l4.694-2.139 1.143.613.83 5.088c.168 1.036 1.527 1.596 2.377.986l4.182-3.013 1.246.38 1.805 4.825c.366.98 1.808 1.27 2.522.501L47 99.38l1.281.128 2.72 4.394c.548.886 2.021.888 2.571 0l2.72-4.394 1.28-.128 3.522 3.777c.714.768 2.156.48 2.522-.5l1.805-4.827 1.246-.379 4.183 3.013c.85.61 2.208.048 2.376-.986l.83-5.088 1.143-.613 4.694 2.14c.954.435 2.176-.38 2.138-1.429l-.18-5.167.991-.814 5.031 1.185c1.022.24 2.06-.796 1.82-1.816l-1.186-5.033.814-.992 5.166.181c1.042.042 1.866-1.185 1.428-2.139L93.775 75.2l.612-1.145 5.09-.828c1.036-.166 1.598-1.524.984-2.376l-3.01-4.183.377-1.246 4.827-1.805c.982-.368 1.27-1.808.501-2.522l-3.776-3.523.125-1.28 4.394-2.72c.89-.548.891-2.02.001-2.57" fill="currentColor"/></svg>
