<svg xmlns="http://www.w3.org/2000/svg" id="scala" viewBox="0 0 400 647"><path fill="currentColor" d="M398.000 2.400 C 398.000 4.267 397.867 4.800 397.400 4.800 C 397.000 4.800 396.800 5.200 396.800 6.000 C 396.800 6.800 396.600 7.200 396.200 7.200 C 395.796 7.200 395.600 7.604 395.600 8.437 C 395.600 9.338 395.383 9.732 394.800 9.884 C 394.360 9.999 394.000 10.342 394.000 10.647 C 394.000 10.951 393.730 11.200 393.400 11.200 C 393.070 11.200 392.800 11.470 392.800 11.800 C 392.800 12.130 392.530 12.400 392.200 12.400 C 391.867 12.400 391.600 12.756 391.600 13.200 C 391.600 13.741 391.333 14.000 390.776 14.000 C 390.295 14.000 390.062 14.177 390.217 14.427 C 390.362 14.662 390.103 14.953 389.640 15.074 C 389.178 15.194 388.800 15.542 388.800 15.847 C 388.800 16.195 388.355 16.400 387.600 16.400 C 386.845 16.400 386.400 16.605 386.400 16.953 C 386.400 17.258 386.040 17.601 385.600 17.716 C 385.160 17.831 384.800 18.212 384.800 18.563 C 384.800 19.004 384.431 19.200 383.600 19.200 C 382.800 19.200 382.400 19.400 382.400 19.800 C 382.400 20.133 382.044 20.400 381.600 20.400 C 381.156 20.400 380.800 20.667 380.800 21.000 C 380.800 21.400 380.400 21.600 379.600 21.600 C 378.667 21.600 378.400 21.778 378.400 22.400 C 378.400 23.048 378.133 23.200 377.000 23.200 C 376.022 23.200 375.600 23.381 375.600 23.800 C 375.600 24.200 375.200 24.400 374.400 24.400 C 373.600 24.400 373.200 24.600 373.200 25.000 C 373.200 25.419 372.778 25.600 371.800 25.600 C 370.822 25.600 370.400 25.781 370.400 26.200 C 370.400 26.573 370.023 26.800 369.403 26.800 C 368.840 26.800 368.190 27.148 367.907 27.600 C 367.550 28.171 366.974 28.400 365.891 28.400 C 364.912 28.400 364.293 28.613 364.145 29.000 C 364.003 29.370 363.395 29.600 362.557 29.600 C 361.617 29.600 361.200 29.785 361.200 30.200 C 361.200 30.554 360.831 30.802 360.300 30.805 C 358.773 30.815 357.600 31.267 357.600 31.847 C 357.600 32.212 357.125 32.400 356.200 32.400 C 355.222 32.400 354.800 32.581 354.800 33.000 C 354.800 33.453 354.311 33.600 352.800 33.600 C 351.289 33.600 350.800 33.747 350.800 34.200 C 350.800 34.653 350.311 34.800 348.800 34.800 C 347.289 34.800 346.800 34.947 346.800 35.400 C 346.800 35.730 346.485 36.015 346.100 36.033 C 344.148 36.126 343.438 36.333 342.996 36.938 C 342.666 37.389 341.922 37.600 340.656 37.600 C 339.273 37.600 338.800 37.753 338.800 38.200 C 338.800 38.660 338.292 38.800 336.629 38.800 C 335.232 38.800 334.243 39.014 333.857 39.400 C 333.516 39.741 332.539 40.000 331.591 40.000 C 330.262 40.000 329.883 40.162 329.716 40.800 C 329.536 41.486 329.170 41.600 327.141 41.600 C 325.407 41.600 324.713 41.760 324.545 42.200 C 324.384 42.618 323.733 42.800 322.400 42.800 C 321.067 42.800 320.416 42.982 320.255 43.400 C 320.086 43.842 319.388 44.000 317.613 44.000 C 315.735 44.000 315.200 44.133 315.200 44.600 C 315.200 45.038 314.742 45.201 313.500 45.205 C 311.221 45.213 310.000 45.576 310.000 46.247 C 310.000 46.660 309.354 46.800 307.449 46.800 C 305.669 46.800 304.747 46.981 304.400 47.400 C 304.046 47.826 303.111 48.000 301.171 48.000 C 299.186 48.000 298.350 48.160 298.111 48.587 C 297.891 48.980 297.029 49.198 295.499 49.248 C 293.669 49.308 293.168 49.470 292.980 50.061 C 292.779 50.698 292.307 50.800 289.573 50.800 C 287.019 50.800 286.400 50.917 286.400 51.400 C 286.400 51.877 285.820 52.000 283.576 52.000 C 282.016 52.000 280.852 52.160 280.974 52.358 C 281.323 52.923 280.143 53.200 277.387 53.200 C 275.506 53.200 274.749 53.362 274.494 53.818 C 274.245 54.262 273.323 54.479 271.205 54.590 C 269.067 54.703 268.166 54.917 267.911 55.373 C 267.642 55.853 266.875 56.000 264.629 56.000 C 262.512 56.000 261.560 56.167 261.200 56.600 C 260.835 57.040 259.867 57.200 257.580 57.200 C 255.337 57.200 254.288 57.369 253.857 57.800 C 253.428 58.229 252.383 58.400 250.191 58.400 C 247.462 58.400 247.102 58.488 246.916 59.200 C 246.725 59.929 246.370 60.000 242.941 60.000 C 239.962 60.000 239.127 60.125 238.945 60.600 C 238.766 61.067 237.976 61.200 235.386 61.200 C 232.960 61.200 231.894 61.363 231.457 61.800 C 231.034 62.223 229.993 62.402 227.929 62.405 C 224.468 62.412 223.200 62.691 223.200 63.447 C 223.200 63.879 222.367 64.000 219.387 64.000 C 216.368 64.000 215.527 64.125 215.345 64.600 C 215.163 65.075 214.327 65.200 211.345 65.200 C 208.363 65.200 207.527 65.325 207.345 65.800 C 207.163 66.274 206.328 66.400 203.357 66.400 C 200.392 66.400 199.600 66.519 199.600 66.964 C 199.600 67.404 198.677 67.557 195.367 67.664 C 191.900 67.775 191.042 67.927 190.623 68.500 C 190.197 69.083 189.467 69.200 186.256 69.200 C 183.095 69.200 182.400 69.308 182.400 69.800 C 182.400 70.299 181.622 70.400 177.800 70.400 C 173.978 70.400 173.200 70.501 173.200 71.000 C 173.200 71.493 172.493 71.600 169.233 71.600 C 164.933 71.600 164.000 71.786 164.000 72.643 C 164.000 73.087 163.065 73.200 159.400 73.200 C 155.578 73.200 154.800 73.301 154.800 73.800 C 154.800 74.299 154.022 74.400 150.200 74.400 C 146.378 74.400 145.600 74.501 145.600 75.000 C 145.600 75.499 144.822 75.600 141.000 75.600 C 137.178 75.600 136.400 75.701 136.400 76.200 C 136.400 76.695 135.669 76.800 132.219 76.800 C 128.313 76.800 126.000 77.270 126.000 78.064 C 126.000 78.249 123.924 78.400 121.387 78.400 C 117.656 78.400 116.731 78.515 116.545 79.000 C 116.359 79.484 115.444 79.600 111.806 79.600 C 108.287 79.600 107.189 79.732 106.800 80.200 C 106.410 80.670 105.304 80.800 101.714 80.800 C 97.462 80.800 97.110 80.859 96.916 81.600 C 96.721 82.346 96.370 82.400 91.741 82.400 C 87.696 82.400 86.732 82.511 86.545 83.000 C 86.359 83.485 85.439 83.600 81.757 83.600 C 77.973 83.600 77.200 83.702 77.200 84.200 C 77.200 84.700 76.403 84.800 72.429 84.800 C 68.806 84.800 67.518 84.939 67.080 85.377 C 66.679 85.778 65.423 85.978 62.952 86.035 C 58.460 86.138 57.200 86.360 57.200 87.050 C 57.200 87.484 56.243 87.600 52.643 87.600 C 48.961 87.600 48.041 87.715 47.855 88.200 C 47.670 88.683 46.771 88.800 43.255 88.800 C 39.740 88.800 38.841 88.917 38.655 89.400 C 38.473 89.875 37.636 90.000 34.645 90.000 C 30.547 90.000 29.600 90.193 29.600 91.028 C 29.600 91.440 28.661 91.599 25.700 91.686 C 22.841 91.769 21.827 91.933 21.900 92.300 C 21.975 92.673 20.987 92.800 18.000 92.800 C 14.711 92.800 14.000 92.907 14.000 93.400 C 14.000 93.875 13.431 94.000 11.276 94.000 C 9.501 94.000 8.283 94.204 7.776 94.587 C 7.349 94.910 6.323 95.180 5.496 95.187 C 4.499 95.196 3.761 95.469 3.307 96.000 C 2.881 96.498 2.127 96.800 1.311 96.800 L 0.000 96.800 0.000 172.633 C 0.000 214.342 0.135 248.401 0.300 248.320 C 0.862 248.046 2.997 247.089 4.260 246.544 C 4.954 246.245 5.887 246.000 6.334 246.000 C 6.782 246.000 7.651 245.809 8.266 245.575 C 9.379 245.152 13.096 244.392 18.800 243.422 C 26.287 242.148 27.615 241.927 31.000 241.389 C 37.650 240.333 40.178 239.956 44.400 239.393 C 52.208 238.350 54.989 237.949 58.400 237.373 C 60.270 237.057 62.471 236.799 63.292 236.799 C 64.112 236.800 66.182 236.541 67.892 236.225 C 69.601 235.908 72.620 235.452 74.600 235.211 C 80.869 234.448 86.894 233.684 90.200 233.234 C 91.960 232.994 95.380 232.531 97.800 232.204 C 100.220 231.878 103.640 231.413 105.400 231.171 C 107.160 230.929 110.580 230.487 113.000 230.189 C 115.420 229.891 118.750 229.455 120.400 229.219 C 122.050 228.983 125.470 228.510 128.000 228.169 C 130.530 227.827 133.860 227.364 135.400 227.138 C 136.940 226.913 140.180 226.469 142.600 226.152 C 153.608 224.707 161.903 223.526 171.800 221.994 C 173.340 221.756 176.400 221.305 178.600 220.992 C 188.479 219.588 194.156 218.738 200.000 217.787 C 201.870 217.483 204.210 217.129 205.200 216.999 C 206.190 216.869 207.810 216.587 208.800 216.372 C 209.790 216.157 211.770 215.824 213.200 215.631 C 214.630 215.439 216.970 215.083 218.400 214.840 C 219.830 214.597 222.620 214.131 224.600 213.805 C 226.580 213.479 229.370 213.012 230.800 212.767 C 232.230 212.522 234.840 212.083 236.600 211.792 C 245.904 210.252 247.815 209.904 259.800 207.573 C 262.179 207.110 264.634 206.648 271.200 205.427 C 273.070 205.080 274.870 204.695 275.200 204.571 C 275.530 204.448 277.240 204.076 279.000 203.743 C 286.586 202.309 291.096 201.345 293.835 200.573 C 294.954 200.258 296.239 200.000 296.689 200.000 C 297.140 200.000 298.384 199.743 299.454 199.430 C 300.524 199.116 303.110 198.477 305.200 198.009 C 307.290 197.541 309.900 196.921 311.000 196.631 C 314.227 195.782 316.454 195.206 318.800 194.615 C 320.010 194.309 322.080 193.787 323.400 193.454 C 324.720 193.120 327.060 192.466 328.600 192.000 C 330.140 191.534 332.130 190.995 333.023 190.803 C 333.916 190.610 335.086 190.282 335.623 190.073 C 336.160 189.864 337.950 189.289 339.600 188.796 C 344.465 187.342 354.497 183.998 355.860 183.376 C 356.554 183.059 357.313 182.800 357.547 182.800 C 357.781 182.800 358.654 182.510 359.486 182.156 C 362.330 180.945 363.401 180.500 365.200 179.782 C 366.190 179.387 369.070 178.076 371.600 176.868 C 375.005 175.243 376.792 174.626 378.480 174.490 C 380.032 174.365 380.978 174.066 381.442 173.553 C 381.817 173.139 382.456 172.800 382.862 172.800 C 383.268 172.800 383.600 172.530 383.600 172.200 C 383.600 171.800 384.000 171.600 384.800 171.600 C 385.600 171.600 386.000 171.400 386.000 171.000 C 386.000 170.667 386.356 170.400 386.800 170.400 C 387.240 170.400 387.555 170.190 387.500 169.933 C 387.445 169.676 387.985 169.290 388.700 169.075 C 389.415 168.860 390.000 168.440 390.000 168.142 C 390.000 167.844 390.276 167.600 390.613 167.600 C 390.949 167.600 391.329 167.330 391.455 167.000 C 391.582 166.670 391.936 166.400 392.243 166.400 C 392.549 166.400 392.800 166.130 392.800 165.800 C 392.800 165.470 393.070 165.200 393.400 165.200 C 393.733 165.200 394.000 164.844 394.000 164.400 C 394.000 163.956 394.267 163.600 394.600 163.600 C 394.930 163.600 395.200 163.330 395.200 163.000 C 395.200 162.667 395.556 162.400 396.000 162.400 C 396.440 162.400 396.800 162.207 396.800 161.971 C 396.800 161.736 397.070 161.273 397.400 160.943 C 397.730 160.613 398.000 159.906 398.000 159.371 C 398.000 158.775 398.231 158.400 398.600 158.400 C 398.973 158.400 399.200 158.022 399.200 157.400 C 399.200 156.850 399.380 156.400 399.600 156.400 C 399.865 156.400 400.000 130.067 400.000 78.200 L 400.000 0.000 399.000 0.000 C 398.044 0.000 398.000 0.107 398.000 2.400 M380.800 175.013 C 380.800 175.336 381.070 175.600 381.400 175.600 C 381.730 175.600 382.000 175.439 382.000 175.243 C 382.000 175.046 381.730 174.782 381.400 174.655 C 381.035 174.515 380.800 174.655 380.800 175.013 M398.956 203.900 C 397.307 209.176 390.602 216.078 382.344 221.000 C 378.280 223.423 370.780 227.089 365.200 229.382 C 363.770 229.969 362.033 230.709 361.340 231.025 C 360.646 231.341 359.827 231.600 359.520 231.600 C 359.212 231.600 358.789 231.763 358.580 231.963 C 358.371 232.162 357.570 232.511 356.800 232.738 C 355.056 233.253 352.061 234.306 351.000 234.778 C 349.881 235.276 339.042 238.760 336.500 239.439 C 332.995 240.375 330.339 241.123 327.400 242.000 C 325.860 242.459 323.610 243.088 322.400 243.397 C 317.041 244.765 314.835 245.309 312.449 245.849 C 311.046 246.167 309.572 246.601 309.175 246.813 C 308.778 247.026 308.052 247.200 307.561 247.200 C 307.071 247.200 305.754 247.460 304.635 247.777 C 303.516 248.094 300.890 248.735 298.800 249.200 C 296.710 249.666 293.920 250.293 292.600 250.593 C 289.370 251.328 286.348 251.981 283.100 252.647 C 281.615 252.951 279.185 253.449 277.700 253.753 C 276.215 254.057 274.100 254.498 273.000 254.732 C 271.900 254.966 269.470 255.452 267.600 255.811 C 265.730 256.171 262.940 256.716 261.400 257.023 C 259.860 257.329 256.530 257.952 254.000 258.406 C 249.364 259.238 245.583 259.932 240.800 260.829 C 239.370 261.097 236.760 261.543 235.000 261.818 C 229.131 262.738 226.227 263.213 223.000 263.780 C 221.240 264.090 218.090 264.619 216.000 264.957 C 213.910 265.294 210.580 265.848 208.600 266.188 C 206.620 266.527 203.830 266.976 202.400 267.186 C 200.970 267.396 198.540 267.761 197.000 267.997 C 195.460 268.234 192.490 268.685 190.400 269.000 C 188.310 269.315 185.250 269.783 183.600 270.039 C 181.950 270.296 178.980 270.732 177.000 271.009 C 166.079 272.535 164.147 272.829 163.600 273.047 C 162.951 273.306 154.653 273.870 146.000 274.243 C 142.062 274.413 140.480 274.628 140.156 275.038 C 139.821 275.462 138.584 275.600 135.105 275.600 C 131.498 275.600 130.390 275.730 130.000 276.200 C 129.618 276.660 128.558 276.801 125.451 276.806 C 121.543 276.812 120.183 277.095 120.466 277.845 C 120.540 278.040 118.413 278.250 115.739 278.312 C 112.054 278.397 110.760 278.566 110.390 279.012 C 110.013 279.466 108.867 279.600 105.351 279.600 C 101.572 279.600 100.800 279.702 100.800 280.200 C 100.800 280.694 100.042 280.805 96.500 280.831 C 91.653 280.865 90.790 280.969 90.422 281.564 C 90.273 281.805 88.417 282.003 86.041 282.032 C 82.568 282.074 81.798 282.202 81.159 282.841 C 80.498 283.502 79.780 283.600 75.587 283.600 C 71.679 283.600 70.732 283.713 70.545 284.200 C 70.359 284.685 69.439 284.800 65.757 284.800 C 61.973 284.800 61.200 284.902 61.200 285.400 C 61.200 285.899 60.422 286.000 56.600 286.000 C 52.533 286.000 51.907 286.093 51.200 286.800 C 50.502 287.498 49.867 287.600 46.220 287.600 C 43.049 287.600 41.963 287.736 41.720 288.162 C 41.486 288.572 40.279 288.761 37.233 288.862 C 34.358 288.957 33.014 289.155 32.900 289.500 C 32.782 289.855 31.589 290.000 28.787 290.000 C 25.830 290.000 24.760 290.140 24.520 290.558 C 24.295 290.950 23.151 291.158 20.668 291.258 C 17.876 291.370 17.028 291.547 16.624 292.100 C 16.214 292.661 15.505 292.800 13.056 292.800 C 10.606 292.800 10.000 292.919 10.000 293.400 C 10.000 293.872 9.444 294.000 7.400 294.000 C 5.356 294.000 4.800 294.128 4.800 294.600 C 4.800 295.053 4.311 295.200 2.800 295.200 C 1.067 295.200 0.800 295.307 0.800 296.000 C 0.800 296.440 0.620 296.800 0.400 296.800 C 0.135 296.800 0.000 322.149 0.000 372.047 C 0.000 443.527 0.035 447.282 0.700 447.073 C 1.085 446.952 2.750 446.399 4.400 445.845 C 9.602 444.098 23.088 441.550 38.400 439.420 C 42.704 438.822 46.869 438.219 52.400 437.394 C 57.079 436.696 61.595 436.089 65.800 435.592 C 67.560 435.384 70.980 434.935 73.400 434.595 C 75.820 434.254 79.825 433.711 82.300 433.388 C 84.775 433.064 88.825 432.536 91.300 432.212 C 93.775 431.889 97.870 431.340 100.400 430.991 C 102.930 430.643 105.630 430.287 106.400 430.200 C 107.170 430.113 109.870 429.759 112.400 429.413 C 114.930 429.067 118.980 428.520 121.400 428.197 C 123.820 427.875 127.240 427.405 129.000 427.154 C 130.760 426.903 134.000 426.472 136.200 426.196 C 144.095 425.205 147.449 424.730 150.508 424.169 C 152.218 423.856 154.239 423.600 155.000 423.600 C 155.761 423.600 157.782 423.341 159.492 423.025 C 161.201 422.709 164.040 422.251 165.800 422.008 C 172.300 421.111 177.073 420.428 179.800 420.006 C 181.340 419.768 184.310 419.315 186.400 419.000 C 188.490 418.685 191.460 418.232 193.000 417.994 C 194.540 417.755 197.510 417.308 199.600 417.000 C 205.600 416.116 208.772 415.608 212.000 415.012 C 213.650 414.707 216.350 414.243 218.000 413.981 C 225.932 412.720 227.584 412.455 230.000 412.054 C 236.098 411.044 240.391 410.308 243.200 409.792 C 244.850 409.489 247.730 408.964 249.600 408.624 C 251.470 408.284 253.900 407.840 255.000 407.637 C 256.100 407.434 258.170 407.057 259.600 406.800 C 261.030 406.543 263.202 406.078 264.426 405.767 C 265.651 405.455 267.065 405.200 267.569 405.200 C 268.073 405.200 269.681 404.936 271.143 404.614 C 272.604 404.291 275.600 403.655 277.800 403.200 C 284.212 401.874 287.634 401.149 290.200 400.572 C 291.520 400.275 294.310 399.655 296.400 399.193 C 298.490 398.732 300.740 398.195 301.400 398.001 C 302.060 397.807 303.320 397.530 304.200 397.386 C 305.080 397.242 306.700 396.883 307.800 396.588 C 308.900 396.293 310.610 395.834 311.600 395.568 C 312.590 395.301 314.390 394.852 315.600 394.569 C 319.905 393.562 321.224 393.215 327.897 391.335 C 329.164 390.979 331.010 390.450 332.000 390.162 C 332.990 389.873 334.790 389.352 336.000 389.004 C 340.576 387.688 343.847 386.688 345.200 386.190 C 345.970 385.908 347.860 385.285 349.400 384.807 C 350.940 384.329 352.767 383.682 353.460 383.369 C 354.154 383.056 354.913 382.800 355.147 382.800 C 355.381 382.800 356.164 382.542 356.886 382.227 C 357.609 381.912 359.910 380.991 362.000 380.181 C 366.170 378.564 367.274 378.084 372.600 375.577 C 374.580 374.644 377.010 373.720 378.000 373.523 C 378.990 373.326 380.309 373.060 380.932 372.932 C 381.554 372.804 382.158 372.452 382.275 372.150 C 382.391 371.847 383.006 371.600 383.643 371.600 C 384.405 371.600 384.800 371.395 384.800 371.000 C 384.800 370.670 385.070 370.400 385.400 370.400 C 385.733 370.400 386.000 370.044 386.000 369.600 C 386.000 368.952 386.267 368.800 387.400 368.800 C 388.378 368.800 388.800 368.619 388.800 368.200 C 388.800 367.870 389.070 367.600 389.400 367.600 C 389.730 367.600 390.000 367.330 390.000 367.000 C 390.000 366.670 390.276 366.400 390.613 366.400 C 390.949 366.400 391.329 366.130 391.455 365.800 C 391.582 365.470 391.904 365.200 392.171 365.200 C 392.918 365.200 395.200 363.008 395.200 362.291 C 395.200 361.941 395.560 361.540 396.000 361.400 C 396.440 361.260 396.800 360.798 396.800 360.373 C 396.800 359.948 397.070 359.600 397.400 359.600 C 397.730 359.600 398.000 359.330 398.000 359.000 C 398.000 358.670 398.270 358.400 398.600 358.400 C 399.019 358.400 399.200 357.978 399.200 357.000 C 399.200 356.230 399.380 355.600 399.600 355.600 C 399.865 355.600 400.000 329.933 400.000 279.400 C 400.000 206.901 399.916 200.829 398.956 203.900 M0.000 251.000 C 0.000 251.330 0.180 251.600 0.400 251.600 C 0.620 251.600 0.800 251.330 0.800 251.000 C 0.800 250.670 0.620 250.400 0.400 250.400 C 0.180 250.400 0.000 250.670 0.000 251.000 M14.400 255.000 C 14.674 255.330 15.050 255.600 15.236 255.600 C 15.423 255.600 15.471 255.330 15.345 255.000 C 15.218 254.670 14.842 254.400 14.508 254.400 C 14.015 254.400 13.995 254.512 14.400 255.000 M22.075 256.425 C 22.171 256.714 22.486 257.029 22.775 257.125 C 23.075 257.225 23.225 257.075 23.125 256.775 C 23.029 256.486 22.714 256.171 22.425 256.075 C 22.125 255.975 21.975 256.125 22.075 256.425 M77.292 264.075 C 77.539 264.817 78.400 264.940 78.400 264.233 C 78.400 263.885 78.115 263.600 77.767 263.600 C 77.418 263.600 77.205 263.814 77.292 264.075 M97.200 266.724 C 97.200 266.939 97.485 267.224 97.833 267.357 C 98.223 267.507 98.406 267.418 98.308 267.125 C 98.109 266.527 97.200 266.198 97.200 266.724 M113.700 269.076 C 114.085 269.176 114.715 269.176 115.100 269.076 C 115.485 268.975 115.170 268.893 114.400 268.893 C 113.630 268.893 113.315 268.975 113.700 269.076 M136.475 272.025 C 136.571 272.314 136.886 272.629 137.175 272.725 C 137.475 272.825 137.625 272.675 137.525 272.375 C 137.429 272.086 137.114 271.771 136.825 271.675 C 136.525 271.575 136.375 271.725 136.475 272.025 M398.941 403.100 C 396.862 411.438 380.867 422.920 361.201 430.190 C 349.333 434.578 341.987 436.993 330.600 440.250 C 323.792 442.198 319.892 443.239 314.600 444.522 C 310.095 445.614 308.200 446.108 306.429 446.654 C 305.455 446.954 304.260 447.200 303.775 447.200 C 303.289 447.200 302.016 447.460 300.946 447.779 C 299.876 448.097 297.200 448.739 295.000 449.205 C 292.800 449.671 289.920 450.294 288.600 450.589 C 287.280 450.885 284.850 451.410 283.200 451.757 C 281.550 452.104 279.300 452.584 278.200 452.824 C 277.100 453.064 274.940 453.496 273.400 453.784 C 271.860 454.072 269.610 454.511 268.400 454.760 C 267.190 455.009 264.760 455.489 263.000 455.828 C 261.240 456.166 258.900 456.633 257.800 456.866 C 255.806 457.289 253.019 457.787 246.200 458.939 C 244.220 459.274 241.700 459.728 240.600 459.947 C 239.500 460.167 236.800 460.645 234.600 461.011 C 232.400 461.377 229.160 461.931 227.400 462.243 C 225.640 462.555 223.030 462.981 221.600 463.189 C 216.813 463.885 213.423 464.430 210.400 464.988 C 205.588 465.877 198.729 466.943 191.200 467.973 C 189.330 468.229 186.490 468.700 184.889 469.019 C 183.287 469.339 181.357 469.600 180.600 469.600 C 179.843 469.600 177.913 469.861 176.311 470.181 C 174.710 470.500 171.960 470.955 170.200 471.191 C 168.440 471.427 166.010 471.803 164.800 472.027 C 163.590 472.251 158.312 472.562 153.072 472.717 C 144.591 472.969 143.500 473.077 143.152 473.700 C 142.816 474.300 142.135 474.400 138.368 474.400 C 134.832 474.400 133.930 474.517 133.745 475.000 C 133.559 475.485 132.639 475.600 128.957 475.600 C 125.173 475.600 124.400 475.702 124.400 476.200 C 124.400 476.700 123.603 476.800 119.629 476.800 C 116.000 476.800 114.719 476.939 114.279 477.378 C 113.872 477.785 112.649 477.974 110.150 478.016 C 105.914 478.087 104.800 478.301 104.800 479.043 C 104.800 479.490 103.782 479.600 99.643 479.600 C 95.428 479.600 94.444 479.710 94.255 480.200 C 94.071 480.680 93.191 480.800 89.841 480.800 C 86.718 480.800 85.510 480.947 85.077 481.380 C 84.647 481.810 83.319 481.978 79.956 482.028 C 74.997 482.102 74.400 482.211 74.400 483.043 C 74.400 483.486 73.472 483.600 69.849 483.600 C 66.292 483.600 65.189 483.731 64.800 484.200 C 64.411 484.669 63.307 484.800 59.738 484.800 C 56.051 484.800 55.131 484.915 54.945 485.400 C 54.759 485.883 53.860 486.000 50.345 486.000 C 46.829 486.000 45.930 486.117 45.745 486.600 C 45.566 487.066 44.778 487.200 42.207 487.200 C 38.179 487.200 36.400 487.522 36.400 488.250 C 36.400 488.682 35.501 488.800 32.229 488.800 C 29.054 488.800 27.914 488.943 27.457 489.400 C 27.018 489.839 25.946 490.000 23.457 490.000 C 20.968 490.000 19.896 490.161 19.457 490.600 C 19.047 491.010 18.035 491.200 16.261 491.200 C 13.308 491.200 12.400 491.445 12.400 492.243 C 12.400 492.670 11.696 492.800 9.387 492.800 C 7.079 492.800 6.321 492.940 6.145 493.400 C 5.983 493.820 5.328 494.000 3.957 494.000 C 2.484 494.000 2.000 494.148 2.000 494.600 C 2.000 494.973 1.622 495.200 1.000 495.200 L 0.000 495.200 0.000 571.200 L 0.000 647.200 1.000 647.200 C 1.550 647.200 2.000 647.020 2.000 646.800 C 2.000 646.580 2.900 646.400 4.000 646.400 C 5.511 646.400 6.000 646.253 6.000 645.800 C 6.000 645.334 6.531 645.200 8.380 645.200 C 10.036 645.200 10.858 645.025 11.083 644.624 C 11.310 644.217 12.274 644.023 14.356 643.962 C 16.846 643.889 17.338 643.760 17.500 643.138 C 17.671 642.484 18.141 642.400 21.647 642.400 C 24.894 642.400 25.600 642.293 25.600 641.800 C 25.600 641.307 26.311 641.200 29.600 641.200 C 32.889 641.200 33.600 641.093 33.600 640.600 C 33.600 640.103 34.353 640.000 37.980 640.000 C 41.383 640.000 42.432 639.871 42.684 639.422 C 42.925 638.992 43.965 638.825 46.766 638.768 C 51.132 638.680 52.000 638.512 52.000 637.753 C 52.000 637.315 52.944 637.200 56.557 637.200 C 60.239 637.200 61.159 637.085 61.345 636.600 C 61.532 636.113 62.480 636.000 66.400 636.000 C 70.320 636.000 71.268 635.887 71.455 635.400 C 71.641 634.916 72.550 634.800 76.147 634.800 C 80.174 634.800 80.656 634.722 81.107 634.000 C 81.562 633.272 82.040 633.200 86.403 633.200 C 90.400 633.200 91.200 633.100 91.200 632.600 C 91.200 632.100 91.995 632.000 95.951 632.000 C 99.642 632.000 100.811 631.869 101.190 631.412 C 101.557 630.970 102.832 630.797 106.339 630.712 C 109.808 630.629 110.974 630.472 110.900 630.100 C 110.826 629.732 111.723 629.594 114.300 629.577 C 119.242 629.544 120.904 629.315 121.297 628.612 C 121.574 628.118 122.524 628.000 126.220 628.000 C 130.024 628.000 130.800 627.898 130.800 627.400 C 130.800 626.901 131.578 626.800 135.400 626.800 C 139.222 626.800 140.000 626.699 140.000 626.200 C 140.000 625.701 140.778 625.600 144.600 625.600 C 148.667 625.600 149.293 625.507 150.000 624.800 C 150.703 624.097 151.333 624.000 155.200 624.000 C 158.844 624.000 159.600 623.897 159.600 623.400 C 159.600 622.905 160.330 622.800 163.771 622.800 C 166.879 622.800 168.091 622.652 168.522 622.221 C 168.936 621.807 170.201 621.621 172.951 621.570 C 175.912 621.515 176.800 621.372 176.800 620.949 C 176.800 620.535 177.559 620.390 179.900 620.357 C 181.605 620.334 183.270 620.275 183.600 620.226 C 183.930 620.177 184.605 620.106 185.100 620.068 C 185.603 620.030 186.000 619.735 186.000 619.400 C 186.000 618.901 186.778 618.800 190.600 618.800 C 194.422 618.800 195.200 618.699 195.200 618.200 C 195.200 617.707 195.911 617.600 199.200 617.600 C 202.489 617.600 203.200 617.493 203.200 617.000 C 203.200 616.509 203.886 616.400 206.973 616.400 C 210.395 616.400 210.770 616.326 211.000 615.600 C 211.231 614.872 211.605 614.800 215.184 614.800 C 218.309 614.800 219.162 614.677 219.345 614.200 C 219.525 613.729 220.337 613.600 223.111 613.600 C 225.601 613.600 226.877 613.426 227.424 613.013 C 227.952 612.613 229.224 612.421 231.411 612.413 C 233.544 612.404 234.899 612.206 235.446 611.823 C 235.899 611.505 237.245 611.220 238.435 611.189 C 241.554 611.107 242.800 610.815 242.800 610.168 C 242.800 609.717 243.583 609.600 246.600 609.600 C 249.711 609.600 250.400 609.491 250.400 609.000 C 250.400 608.514 251.044 608.400 253.800 608.400 C 256.556 608.400 257.200 608.286 257.200 607.800 C 257.200 607.329 257.780 607.193 259.900 607.169 C 263.352 607.130 264.075 606.986 264.633 606.222 C 264.976 605.753 265.842 605.600 268.157 605.600 C 270.515 605.600 271.278 605.461 271.455 605.000 C 271.631 604.541 272.385 604.400 274.655 604.400 C 276.926 604.400 277.679 604.259 277.855 603.800 C 278.025 603.358 278.724 603.200 280.511 603.200 C 282.083 603.200 283.166 602.993 283.586 602.613 C 283.943 602.290 284.857 602.003 285.618 601.975 C 288.521 601.869 290.000 601.528 290.000 600.965 C 290.000 600.528 290.685 600.400 293.013 600.400 C 295.321 600.400 296.079 600.260 296.255 599.800 C 296.427 599.354 297.137 599.200 299.023 599.200 C 300.814 599.200 301.655 599.031 301.882 598.625 C 302.095 598.245 303.006 598.017 304.558 597.954 C 306.451 597.877 306.949 597.716 307.103 597.129 C 307.262 596.520 307.712 596.400 309.847 596.400 C 311.850 596.400 312.400 596.271 312.400 595.800 C 312.400 595.328 312.956 595.200 315.000 595.200 C 317.044 595.200 317.600 595.072 317.600 594.600 C 317.600 594.129 318.152 594.000 320.171 594.000 C 322.186 594.000 322.769 593.864 322.871 593.371 C 322.966 592.906 323.615 592.706 325.368 592.600 C 326.993 592.502 327.847 592.260 328.088 591.828 C 328.326 591.403 329.019 591.200 330.232 591.200 C 331.457 591.200 332.098 591.010 332.255 590.600 C 332.422 590.167 333.100 590.000 334.699 590.000 C 336.204 590.000 337.054 589.808 337.356 589.399 C 337.613 589.051 338.515 588.771 339.494 588.734 C 340.751 588.686 341.248 588.480 341.421 587.935 C 341.601 587.367 342.058 587.200 343.427 587.200 C 344.736 587.200 345.200 587.043 345.200 586.600 C 345.200 586.147 345.689 586.000 347.200 586.000 C 348.711 586.000 349.200 585.853 349.200 585.400 C 349.200 584.947 349.689 584.800 351.200 584.800 C 352.933 584.800 353.200 584.693 353.200 584.000 C 353.200 583.307 353.467 583.200 355.200 583.200 C 356.711 583.200 357.200 583.053 357.200 582.600 C 357.200 582.155 357.668 582.000 359.013 582.000 C 360.255 582.000 360.898 581.811 361.055 581.400 C 361.187 581.058 361.783 580.800 362.443 580.800 C 363.205 580.800 363.600 580.595 363.600 580.200 C 363.600 579.813 363.991 579.598 364.700 579.595 C 366.413 579.586 367.600 579.160 367.600 578.553 C 367.600 578.188 368.075 578.000 369.000 578.000 C 369.978 578.000 370.400 577.819 370.400 577.400 C 370.400 577.005 370.795 576.800 371.557 576.800 C 372.217 576.800 372.813 576.542 372.945 576.200 C 373.079 575.849 373.679 575.600 374.387 575.600 C 375.333 575.600 375.600 575.424 375.600 574.800 C 375.600 574.152 375.867 574.000 377.000 574.000 C 377.978 574.000 378.400 573.819 378.400 573.400 C 378.400 573.000 378.800 572.800 379.600 572.800 C 380.400 572.800 380.800 572.600 380.800 572.200 C 380.800 571.799 381.201 571.600 382.013 571.600 C 382.721 571.600 383.321 571.351 383.455 571.000 C 383.582 570.670 383.936 570.400 384.243 570.400 C 384.549 570.400 384.800 570.040 384.800 569.600 C 384.800 568.952 385.067 568.800 386.200 568.800 C 387.178 568.800 387.600 568.619 387.600 568.200 C 387.600 567.870 387.870 567.600 388.200 567.600 C 388.530 567.600 388.800 567.352 388.800 567.050 C 388.800 566.748 389.340 566.392 390.000 566.260 C 390.704 566.119 391.200 565.768 391.200 565.410 C 391.200 565.067 391.550 564.800 392.000 564.800 C 392.444 564.800 392.800 564.533 392.800 564.200 C 392.800 563.870 393.070 563.600 393.400 563.600 C 393.730 563.600 394.000 563.330 394.000 563.000 C 394.000 562.670 394.270 562.400 394.600 562.400 C 394.930 562.400 395.200 562.142 395.200 561.827 C 395.200 561.512 395.563 561.139 396.006 560.998 C 396.449 560.857 396.714 560.584 396.595 560.391 C 396.475 560.198 396.743 559.845 397.189 559.606 C 397.667 559.350 398.000 558.767 398.000 558.186 C 398.000 557.576 398.229 557.200 398.600 557.200 C 399.019 557.200 399.200 556.778 399.200 555.800 C 399.200 555.030 399.380 554.400 399.600 554.400 C 399.865 554.400 400.000 528.733 400.000 478.200 C 400.000 405.811 399.907 399.225 398.941 403.100 M11.600 453.351 C 11.600 453.434 11.870 453.726 12.200 454.000 C 12.691 454.408 12.800 454.380 12.800 453.849 C 12.800 453.492 12.530 453.200 12.200 453.200 C 11.870 453.200 11.600 453.268 11.600 453.351 M89.905 465.083 C 90.402 465.179 91.122 465.175 91.505 465.075 C 91.887 464.975 91.480 464.896 90.600 464.901 C 89.720 464.905 89.407 464.987 89.905 465.083 M103.855 467.000 C 103.982 467.330 104.216 467.600 104.376 467.600 C 104.536 467.600 104.667 467.330 104.667 467.000 C 104.667 466.670 104.432 466.400 104.146 466.400 C 103.847 466.400 103.723 466.656 103.855 467.000 M132.800 470.724 C 132.800 470.939 133.085 471.224 133.433 471.357 C 133.823 471.507 134.006 471.418 133.908 471.125 C 133.709 470.527 132.800 470.198 132.800 470.724"/><path fill="currentColor" d="M375.800 174.958 C 375.140 175.247 372.890 176.289 370.800 177.273 C 368.710 178.257 366.190 179.386 365.200 179.782 C 363.399 180.501 362.322 180.949 359.486 182.156 C 358.654 182.510 357.781 182.800 357.547 182.800 C 357.313 182.800 356.554 183.059 355.860 183.376 C 354.497 183.998 344.465 187.342 339.600 188.796 C 337.950 189.289 336.160 189.864 335.623 190.073 C 335.086 190.282 333.916 190.610 333.023 190.803 C 332.130 190.995 330.140 191.534 328.600 192.000 C 327.060 192.466 324.720 193.120 323.400 193.454 C 322.080 193.787 320.010 194.309 318.800 194.615 C 316.454 195.206 314.227 195.782 311.000 196.631 C 309.900 196.921 307.290 197.541 305.200 198.009 C 303.110 198.477 300.524 199.116 299.454 199.430 C 298.384 199.743 297.140 200.000 296.689 200.000 C 296.239 200.000 294.954 200.258 293.835 200.573 C 291.096 201.345 286.586 202.309 279.000 203.743 C 277.240 204.076 275.530 204.448 275.200 204.571 C 274.870 204.695 273.070 205.080 271.200 205.427 C 264.634 206.648 262.179 207.110 259.800 207.573 C 247.815 209.904 245.904 210.252 236.600 211.792 C 234.840 212.083 232.230 212.522 230.800 212.767 C 229.370 213.012 226.580 213.479 224.600 213.805 C 222.620 214.131 219.830 214.597 218.400 214.840 C 216.970 215.083 214.630 215.439 213.200 215.631 C 211.770 215.824 209.790 216.157 208.800 216.372 C 207.810 216.587 206.190 216.869 205.200 216.999 C 204.210 217.129 201.870 217.483 200.000 217.787 C 194.156 218.738 188.479 219.588 178.600 220.992 C 176.400 221.305 173.340 221.756 171.800 221.994 C 161.903 223.526 153.608 224.707 142.600 226.152 C 140.180 226.469 136.940 226.913 135.400 227.138 C 133.860 227.364 130.530 227.827 128.000 228.169 C 125.470 228.510 122.050 228.983 120.400 229.219 C 118.750 229.455 115.420 229.891 113.000 230.189 C 110.580 230.487 107.160 230.929 105.400 231.171 C 103.640 231.413 100.220 231.878 97.800 232.204 C 95.380 232.531 91.960 232.994 90.200 233.234 C 86.894 233.684 80.869 234.448 74.600 235.211 C 72.620 235.452 69.601 235.908 67.892 236.225 C 66.182 236.541 64.112 236.800 63.292 236.799 C 62.471 236.799 60.270 237.057 58.400 237.373 C 54.989 237.949 52.208 238.350 44.400 239.393 C 40.178 239.956 37.650 240.333 31.000 241.389 C 27.615 241.927 26.287 242.148 18.800 243.422 C 13.096 244.392 9.379 245.152 8.266 245.575 C 7.651 245.809 6.782 246.000 6.334 246.000 C 5.544 246.000 3.970 246.592 1.300 247.893 C 0.053 248.500 -0.629 250.400 0.400 250.400 C 0.620 250.400 0.800 250.760 0.800 251.200 C 0.800 251.824 1.067 252.000 2.013 252.000 C 2.721 252.000 3.321 252.249 3.455 252.600 C 3.627 253.047 4.339 253.200 6.243 253.200 C 8.075 253.200 8.772 253.342 8.700 253.700 C 8.628 254.060 9.517 254.232 11.878 254.316 C 14.640 254.413 15.193 254.547 15.388 255.162 C 15.586 255.787 16.118 255.902 19.110 255.961 C 21.640 256.011 22.722 256.191 23.044 256.615 C 23.374 257.049 24.383 257.200 26.968 257.200 C 29.159 257.200 30.357 257.346 30.203 257.595 C 30.063 257.822 30.223 257.889 30.579 257.753 C 30.921 257.622 31.200 257.714 31.200 257.957 C 31.200 258.250 32.519 258.402 35.100 258.406 C 38.339 258.411 41.279 258.954 39.800 259.274 C 39.580 259.322 41.560 259.460 44.200 259.580 C 48.345 259.770 48.985 259.889 48.893 260.453 C 48.800 261.021 49.376 261.119 53.293 261.197 C 55.772 261.247 58.008 261.297 58.262 261.310 C 58.516 261.323 58.632 261.573 58.519 261.867 C 58.356 262.293 59.279 262.400 63.114 262.400 C 67.012 262.400 67.958 262.513 68.145 263.000 C 68.332 263.489 69.301 263.600 73.387 263.600 C 78.036 263.600 78.400 263.655 78.400 264.356 C 78.400 265.048 78.776 265.117 82.887 265.173 C 86.188 265.218 87.545 265.388 88.019 265.817 C 88.506 266.258 89.806 266.400 93.344 266.400 C 97.136 266.400 98.069 266.514 98.255 267.000 C 98.440 267.482 99.335 267.600 102.810 267.600 C 107.092 267.600 108.564 267.811 108.215 268.375 C 107.981 268.754 108.201 268.777 113.399 268.923 C 117.154 269.027 117.817 269.144 117.928 269.723 C 118.042 270.312 118.653 270.400 122.629 270.400 C 126.265 270.400 127.200 270.514 127.200 270.956 C 127.200 271.398 128.210 271.524 132.100 271.569 C 135.837 271.612 137.103 271.761 137.434 272.199 C 137.757 272.625 139.041 272.802 142.434 272.886 C 146.175 272.979 147.000 273.108 147.000 273.600 C 147.000 274.267 146.837 274.262 155.000 273.836 C 157.860 273.686 161.280 273.373 162.600 273.140 C 163.920 272.907 166.800 272.460 169.000 272.147 C 171.200 271.833 174.800 271.321 177.000 271.008 C 179.200 270.695 182.260 270.244 183.800 270.006 C 185.340 269.768 188.310 269.315 190.400 269.000 C 192.490 268.685 195.460 268.234 197.000 267.997 C 198.540 267.761 200.970 267.396 202.400 267.186 C 203.830 266.976 206.620 266.527 208.600 266.188 C 210.580 265.848 213.910 265.294 216.000 264.957 C 218.090 264.619 221.240 264.090 223.000 263.780 C 226.227 263.213 229.131 262.738 235.000 261.818 C 236.760 261.543 239.370 261.097 240.800 260.829 C 245.583 259.932 249.364 259.238 254.000 258.406 C 256.530 257.952 259.860 257.329 261.400 257.023 C 262.940 256.716 265.730 256.171 267.600 255.811 C 269.470 255.452 271.900 254.966 273.000 254.732 C 274.100 254.498 276.215 254.057 277.700 253.753 C 279.185 253.449 281.615 252.951 283.100 252.647 C 286.348 251.981 289.370 251.328 292.600 250.593 C 293.920 250.293 296.710 249.666 298.800 249.200 C 300.890 248.735 303.516 248.094 304.635 247.777 C 305.754 247.460 307.071 247.200 307.561 247.200 C 308.052 247.200 308.778 247.026 309.175 246.813 C 309.572 246.601 311.046 246.167 312.449 245.849 C 313.852 245.532 316.080 244.995 317.400 244.656 C 318.720 244.318 320.880 243.770 322.200 243.438 C 323.520 243.107 325.860 242.459 327.400 242.000 C 330.339 241.123 332.995 240.375 336.500 239.439 C 339.042 238.760 349.881 235.276 351.000 234.778 C 352.061 234.306 355.056 233.253 356.800 232.738 C 357.570 232.511 358.371 232.162 358.580 231.963 C 358.789 231.763 359.212 231.600 359.520 231.600 C 359.827 231.600 360.646 231.341 361.340 231.025 C 362.033 230.709 363.770 229.969 365.200 229.382 C 370.780 227.089 378.280 223.423 382.344 221.000 C 390.351 216.227 398.800 207.602 398.800 204.201 C 398.800 203.857 399.070 203.471 399.400 203.345 C 400.117 203.069 400.312 192.800 399.600 192.800 C 399.380 192.800 399.200 192.170 399.200 191.400 C 399.200 190.422 399.019 190.000 398.600 190.000 C 398.225 190.000 398.000 189.621 398.000 188.987 C 398.000 188.431 397.730 187.871 397.400 187.745 C 397.070 187.618 396.800 187.276 396.800 186.984 C 396.800 186.693 396.440 186.340 396.000 186.200 C 395.560 186.060 395.200 185.688 395.200 185.373 C 395.200 185.058 394.930 184.800 394.600 184.800 C 394.270 184.800 394.000 184.530 394.000 184.200 C 394.000 183.870 393.730 183.600 393.400 183.600 C 393.070 183.600 392.800 183.351 392.800 183.047 C 392.800 182.742 392.422 182.394 391.960 182.274 C 391.498 182.153 391.230 181.875 391.366 181.656 C 391.501 181.437 391.249 181.143 390.806 181.002 C 390.363 180.861 390.000 180.488 390.000 180.173 C 390.000 179.803 389.575 179.600 388.800 179.600 C 388.000 179.600 387.600 179.400 387.600 179.000 C 387.600 178.670 387.261 178.400 386.847 178.400 C 386.432 178.400 386.010 178.080 385.908 177.690 C 385.805 177.296 385.305 176.948 384.788 176.909 C 384.274 176.870 383.697 176.560 383.507 176.219 C 383.316 175.878 382.630 175.600 381.980 175.600 C 381.198 175.600 380.800 175.398 380.800 175.000 C 380.800 174.227 377.528 174.200 375.800 174.958 M379.581 373.220 C 379.261 373.422 378.520 373.591 377.932 373.594 C 377.345 373.597 375.095 374.427 372.932 375.438 C 367.172 378.130 366.185 378.558 362.000 380.181 C 359.910 380.991 357.609 381.912 356.886 382.227 C 356.164 382.542 355.381 382.800 355.147 382.800 C 354.913 382.800 354.154 383.056 353.460 383.369 C 352.767 383.682 350.940 384.329 349.400 384.807 C 347.860 385.285 345.970 385.908 345.200 386.190 C 342.999 386.999 334.690 389.442 323.600 392.540 C 321.296 393.183 318.893 393.794 316.200 394.420 C 314.641 394.783 311.860 395.501 307.800 396.588 C 306.700 396.883 305.080 397.242 304.200 397.386 C 303.320 397.530 302.060 397.807 301.400 398.001 C 300.740 398.195 298.490 398.732 296.400 399.193 C 294.310 399.655 291.520 400.275 290.200 400.572 C 287.634 401.149 284.212 401.874 277.800 403.200 C 275.600 403.655 272.604 404.291 271.143 404.614 C 269.681 404.936 268.073 405.200 267.569 405.200 C 267.065 405.200 265.651 405.455 264.426 405.767 C 263.202 406.078 261.030 406.543 259.600 406.800 C 258.170 407.057 256.100 407.434 255.000 407.637 C 253.900 407.840 251.470 408.284 249.600 408.624 C 247.730 408.964 244.850 409.489 243.200 409.792 C 240.391 410.308 236.098 411.044 230.000 412.054 C 227.584 412.455 225.932 412.720 218.000 413.981 C 216.350 414.243 213.650 414.707 212.000 415.012 C 208.772 415.608 205.600 416.116 199.600 417.000 C 197.510 417.308 194.540 417.755 193.000 417.994 C 191.460 418.232 188.490 418.685 186.400 419.000 C 184.310 419.315 181.340 419.768 179.800 420.006 C 177.073 420.428 172.300 421.111 165.800 422.008 C 164.040 422.251 161.201 422.709 159.492 423.025 C 157.782 423.341 155.761 423.600 155.000 423.600 C 154.239 423.600 152.218 423.856 150.508 424.169 C 147.449 424.730 144.095 425.205 136.200 426.196 C 134.000 426.472 130.760 426.903 129.000 427.154 C 127.240 427.405 123.820 427.875 121.400 428.197 C 118.980 428.520 114.930 429.067 112.400 429.413 C 109.870 429.759 107.170 430.113 106.400 430.200 C 105.630 430.287 102.930 430.643 100.400 430.991 C 97.870 431.340 93.775 431.889 91.300 432.212 C 88.825 432.536 84.775 433.064 82.300 433.388 C 79.825 433.711 75.820 434.254 73.400 434.595 C 70.980 434.935 67.560 435.384 65.800 435.592 C 61.595 436.089 57.079 436.696 52.400 437.394 C 46.869 438.219 42.704 438.822 38.400 439.420 C 24.948 441.291 9.942 444.035 5.400 445.454 C 0.379 447.023 0.003 447.263 0.001 448.900 C 0.000 450.214 0.118 450.400 0.953 450.400 C 1.570 450.400 1.981 450.682 2.116 451.200 C 2.283 451.838 2.662 452.000 3.991 452.000 C 4.939 452.000 5.916 452.259 6.257 452.600 C 6.683 453.026 7.721 453.200 9.829 453.200 C 12.203 453.200 12.800 453.321 12.800 453.800 C 12.800 454.283 13.417 454.400 15.957 454.400 C 18.395 454.400 19.167 454.537 19.345 455.000 C 19.527 455.475 20.362 455.600 23.341 455.600 C 26.788 455.600 27.125 455.669 27.319 456.411 C 27.436 456.858 27.682 457.196 27.866 457.164 C 29.935 456.800 36.400 457.282 36.400 457.800 C 36.400 458.317 43.221 458.804 45.330 458.437 C 45.511 458.406 45.544 458.568 45.402 458.797 C 45.261 459.026 44.932 459.091 44.672 458.942 C 44.401 458.787 44.342 458.826 44.533 459.036 C 44.962 459.505 44.819 459.491 50.173 459.550 C 54.356 459.596 54.768 459.668 54.997 460.392 C 55.136 460.827 55.373 461.166 55.524 461.145 C 58.149 460.771 64.001 461.292 64.006 461.900 C 64.011 462.498 64.069 462.513 64.400 462.000 C 64.658 461.600 64.790 461.567 64.794 461.900 C 64.798 462.273 66.067 462.400 69.787 462.400 C 74.007 462.400 74.740 462.490 74.550 462.987 C 74.361 463.479 75.092 463.592 79.062 463.687 C 82.592 463.771 83.775 463.927 83.700 464.300 C 83.594 464.831 84.266 464.897 90.528 464.963 C 93.447 464.994 94.124 465.121 94.448 465.700 C 94.782 466.297 95.454 466.400 99.000 466.400 C 102.524 466.400 103.229 466.507 103.610 467.100 C 104.039 467.767 104.050 467.767 103.843 467.100 C 103.704 466.652 103.837 466.400 104.213 466.400 C 104.536 466.400 104.755 466.625 104.700 466.900 C 104.626 467.272 105.800 467.429 109.300 467.513 C 113.115 467.604 114.000 467.736 114.000 468.213 C 114.000 468.694 114.805 468.800 118.456 468.800 C 122.214 468.800 123.002 468.910 123.486 469.500 C 123.861 469.958 123.970 469.993 123.800 469.600 C 123.601 469.139 123.665 469.150 124.077 469.649 C 124.505 470.166 125.500 470.311 129.006 470.364 C 132.329 470.415 133.508 470.574 133.844 471.016 C 134.185 471.464 135.282 471.600 138.544 471.600 C 142.060 471.600 142.800 471.704 142.800 472.200 C 142.800 473.323 161.669 472.864 167.200 471.607 C 168.190 471.382 170.440 471.027 172.200 470.818 C 175.286 470.451 176.802 470.227 184.600 468.988 C 186.580 468.673 189.640 468.210 191.400 467.958 C 201.280 466.544 205.802 465.838 210.400 464.988 C 213.423 464.430 216.813 463.885 221.600 463.189 C 223.030 462.981 225.640 462.555 227.400 462.243 C 229.160 461.931 232.400 461.377 234.600 461.011 C 236.800 460.645 239.500 460.167 240.600 459.947 C 241.700 459.728 244.220 459.274 246.200 458.939 C 253.019 457.787 255.806 457.289 257.800 456.866 C 258.900 456.633 261.240 456.166 263.000 455.828 C 264.760 455.489 267.190 455.009 268.400 454.760 C 269.610 454.511 271.860 454.072 273.400 453.784 C 274.940 453.496 277.100 453.064 278.200 452.824 C 279.300 452.584 281.550 452.104 283.200 451.757 C 284.850 451.410 287.280 450.885 288.600 450.589 C 289.920 450.294 292.800 449.671 295.000 449.205 C 297.200 448.739 299.876 448.097 300.946 447.779 C 302.016 447.460 303.289 447.200 303.775 447.200 C 304.260 447.200 305.455 446.954 306.429 446.654 C 308.200 446.108 310.095 445.614 314.600 444.522 C 319.892 443.239 323.792 442.198 330.600 440.250 C 341.987 436.993 349.333 434.578 361.201 430.190 C 380.867 422.920 396.862 411.438 398.941 403.100 C 399.092 402.495 399.392 402.000 399.608 402.000 C 399.844 402.000 400.000 399.933 400.000 396.800 C 400.000 393.600 399.846 391.600 399.600 391.600 C 399.380 391.600 399.200 390.970 399.200 390.200 C 399.200 389.222 399.019 388.800 398.600 388.800 C 398.270 388.800 398.000 388.530 398.000 388.200 C 398.000 387.870 397.730 387.600 397.400 387.600 C 396.891 387.600 396.586 386.635 396.745 385.524 C 396.766 385.373 396.427 385.136 395.992 384.997 C 395.556 384.859 395.200 384.488 395.200 384.173 C 395.200 383.858 394.951 383.600 394.647 383.600 C 394.342 383.600 393.998 383.235 393.881 382.789 C 393.764 382.342 393.437 382.027 393.153 382.089 C 392.869 382.150 392.628 381.930 392.618 381.600 C 392.600 381.014 392.452 380.953 390.800 380.850 C 390.360 380.822 390.000 380.530 390.000 380.200 C 390.000 379.870 389.730 379.600 389.400 379.600 C 389.070 379.600 388.800 379.330 388.800 379.000 C 388.800 378.670 388.551 378.400 388.247 378.400 C 387.942 378.400 387.598 378.035 387.481 377.589 C 387.364 377.142 387.118 376.804 386.934 376.836 C 385.832 377.030 384.800 376.722 384.800 376.200 C 384.800 375.870 384.517 375.600 384.171 375.600 C 383.826 375.600 383.273 375.330 382.943 375.000 C 382.613 374.670 381.996 374.400 381.571 374.400 C 381.147 374.400 380.800 374.141 380.800 373.824 C 380.800 373.036 380.280 372.778 379.581 373.220"/></svg>
