<svg xmlns="http://www.w3.org/2000/svg" id="scheme" viewBox="0 0 400 400"><path fill="currentColor" d="M124.304 17.683c-24.091 3.518-40.998 32.604-42.401 72.945l-.129 3.716 4.377-.053 4.376-.053.052-.879c1.379-23.658 13.231-39.051 31.589-41.029 23.159-2.495 39.217 23.11 50.106 79.897l.618 3.222-50.788 109.375-50.788 109.375 22.486.05c12.367.027 22.545-.017 22.617-.098s15.931-36.006 35.242-79.835c19.31-43.828 35.167-79.752 35.237-79.831s1.946 8.051 4.169 18.067 7.081 31.921 10.796 48.678c11.342 51.165 15.455 64.724 23.425 77.234 9.985 15.672 32.088 23.37 48.442 16.87 19.603-7.79 29.955-31.23 29.98-67.883l.001-1.709h-8.744l-.128 1.123c-2.781 24.389-12.573 36.368-29.732 36.376-14.939.007-26.858-10.555-35.044-31.053-6.253-15.656-7.776-21.584-22.841-88.868-28.061-125.332-33.389-144.967-44.326-163.358-9.714-16.334-23.763-24.444-38.592-22.279"/></svg>
