<svg xmlns="http://www.w3.org/2000/svg" id="scheme" viewBox="0 0 400 400"><path fill="currentColor" d="M36.975 44.383C23.375 60.77 25.149 64.88 48.456 70.974c37.798 9.885 25.383 35.838-15.731 32.884-18.312-1.316-30.022 2.903-26.022 9.375C17.008 129.907 67.164 127.836 85 110c23.75-23.75 17.5-47.5-12.5-47.5-19.99 0-23.747-3.753-13.758-13.742 20.915-20.915 69.869-1.129 59.986 24.246-4.444 11.41-9.07 26.237-10.279 32.949-3.25 18.039 54.631 23.509 71.118 6.721 10.696-10.893 5.444-12.284-21.366-5.659l-35.549 8.785 20.828-40.278c17.49-33.822 25.861-39.015 52.222-32.399 20.251 5.083 28.541 3.265 23.358-5.122-10.549-17.069-60.37-16.691-77.649.588-9.786 9.786-15.94 9.786-21.988 0-12.425-20.104-63.96-16.483-82.448 5.794M19.459 177.781C-10.108 219.994-5.515 250 30.512 250c16.782 0 33.989-5.625 38.238-12.5S67.104 225 55.65 225c-13.854 0-18.285-6.618-13.237-19.772 4.173-10.875 7.587-22.125 7.587-25S64.394 175 81.988 175c18.142 0 28.644-5.411 24.262-12.5-13.922-22.526-66.836-13.209-86.791 15.281m89.106 16.393C84.192 245.284 83.398 250 99.158 250c6.411 0 15.228-11.25 19.592-25s16.372-25 26.685-25c13.061 0 16.342 7.585 10.815 25-13.5 42.533 12.917 27.523 35.721-20.298 21.791-45.697 16.581-79.376-6.03-38.973-15.051 26.895-50.642 29.553-40.461 3.021 14.844-38.683-16.706-16.954-36.915 25.424m99.587.866c-26.863 56.333-27.274 55.237 19.973 53.258 28.148-1.18 32.199-3.338 13.191-7.029-34.955-6.787-24.309-40.919 13.146-42.148 25.188-.826 25.344-1.444 2.618-10.343-38.056-14.903-1.902-28.784 49.737-19.097l44.741 8.394-38.279 23.279C292.226 214.157 275 230.34 275 237.316c0 16.425 83.611 16.589 93.75.184 4.296-6.951-5.087-12.521-21.137-12.547-26.21-.042-25.129-2.323 11.762-24.816 60.803-37.072 49.806-48.974-44.973-48.675-85.257.27-85.68.443-106.25 43.578m-12.087 124.134C171.692 370.284 170.898 375 186.658 375c6.411 0 15.464-11.993 20.116-26.652 6.668-21.008 10.816-22.993 19.593-9.375 9.363 14.531 13.25 14.296 24.452-1.473 10.507-14.791 11.648-12.812 5.407 9.375-12.376 43.999 11.837 32.962 35.209-16.049 11.586-24.296 21.065-46.796 21.065-50 0-12.975-35.927-4.732-42.708 9.799-5.834 12.5-8.75 12.5-14.584 0-13.173-28.229-37.717-16.381-59.143 28.549m112.5 0c-27.328 57.307-27.762 56.107 19.56 54.124 28.148-1.18 32.199-3.338 13.191-7.029-34.955-6.787-24.309-40.919 13.146-42.148 25.998-.852 26.05-1.181 1.788-11.158-25.797-10.607-25.632-10.765 31.25-29.736 10.313-3.439 1.511-6.697-19.56-7.24-31.966-.824-41.798 6.327-59.375 43.187"/></svg>
