<svg xmlns="http://www.w3.org/2000/svg" id="stax" viewBox="0 0 400 400"><path fill="currentColor" d="M0 10.47v10.471l6.776 6.829c3.727 3.757 27.829 27.915 53.561 53.685s47.093 47.324 47.469 47.898c1.647 2.514 4.382-.422-53.819 57.764L0 241.089v60.122l1.5-.624c.825-.343 2.22-1.098 3.1-1.677 2.898-1.909 162.823-162.103 163.81-164.087 1.786-3.587 1.109-6.469-2.524-10.743-1.147-1.35-27.648-28.155-58.891-59.567C47.856 5.054 48.458 5.693 47.807 1.7L47.53 0H0zM233.021.9c1.114 3.646 3.382 6.243 18.63 21.326 17.23 17.044 15.861 17.044 33.1.001C298.862 8.276 302.956 3.779 303.5 1.633L303.915 0h-71.169zM398.2 99.078c-2.438 1.313-8.29 6.728-19.428 17.978-17.878 18.06-17.917 16.264.775 35.075 13.909 13.998 17.93 17.469 20.24 17.469.117 0 .213-16.02.213-35.6s-.135-35.593-.3-35.584-.84.307-1.5.662M262.6 232.047c-1.1.722-23.69 22.931-50.2 49.353C91.431 401.969 98.125 395.226 97.031 397.6l-1.014 2.2 30.423.103 30.422.102 53.164-52.902c29.24-29.097 53.591-53.064 54.113-53.26 1.849-.697 2.951.14 11.508 8.749 4.704 4.732 28.479 28.584 52.834 53.005L372.761 400h27.246l-.104-21.893-.103-21.894-1.456-.236c-3.271-.532-5.398-2.563-65.544-62.588-32.89-32.824-60.695-60.281-61.79-61.016-2.968-1.991-5.71-2.098-8.41-.326"/></svg>
