<svg xmlns="http://www.w3.org/2000/svg" id="swift" viewBox="0 0 45 40"><path fill="currentColor" d="m41.098 28.225-.004-.004c.066-.224.134-.446.191-.675C43.75 17.725 37.735 6.114 27.554 0c4.461 6.048 6.434 13.374 4.681 19.78a17 17 0 0 1-.552 1.653c-.225-.148-.51-.316-.89-.527 0 0-10.127-6.252-21.103-17.312-.288-.29 5.852 8.777 12.822 16.14-3.284-1.843-12.434-8.5-18.227-13.802.712 1.187 1.558 2.33 2.489 3.43 4.837 6.135 11.146 13.703 18.704 19.517-5.31 3.25-12.814 3.502-20.285.003A30.7 30.7 0 0 1 0 25.784c3.162 5.058 8.033 9.423 13.96 11.97 7.07 3.039 14.1 2.833 19.336.05l-.004.007c.024-.016.055-.032.08-.047q.322-.173.636-.358c2.516-1.306 7.485-2.63 10.152 2.559.654 1.27 2.041-5.46-3.061-11.74"/></svg>
