<svg xmlns="http://www.w3.org/2000/svg" id="viml" viewBox="0 0 475.6 421.44"><path fill="currentColor" d="m287.34 0-5.91 5.92v21.74l5.18 5.19H314v21L133 237.59V33.11h30.09l6.17-6.18v-22L163.55.52H5.18L0 5.71v22.47l5.26 5.27H32.8V410l5.2 5.2h31.3l379.37-392V5.92L442.74 0zm-25.92 255.51-7.34 6.31-7.34 20.55 5.61 5.62H275l5.92-6 6.3-21.66-4.88-4.88zm-41.53 58-2.8 11.16h15.71L199 421.44h48.13l3.15-10.16H237l33.49-97.77zm153.15.35-10.49 11.89h-17.44L334 314.21h-38l-3.5 10.46H305l-32.49 95.7H313l3.11-9.12h-9.41l21.28-67h40.14l-23.74 76.12h39.07L387 412h-9.43l21.63-68.12h38.37l-24.06 76.5h42.9l3.5-9.12h-10.86L475.6 325l-8-10.8h-30.72l-10.14 11.19h-18.48l-10.49-11.5"/></svg>
