<svg xmlns="http://www.w3.org/2000/svg" id="yuescript" viewBox="250 200 95.3 441.9"><g fill="currentColor" stroke="currentColor"><path d="M209.8 522.5c-3.7.8-8.1 1.6-11.7 2.3.5-2 1.9-7.8 2.9-11.5l-2.8-2.9-3.3 14.5q0 .3-.3.6l-6 5.7 2.4 2.6 6.1-5.8c.2-.2.3-.3.5-.3l14.7-2.5zm15.6 29.2c-1.9 2.7-4.2 3.9-7.8 1.5-3.6-2.5-3.4-5.2-1.6-7.8l7.7-11.2-2.9-2-7.8 11.4c-2.8 4-2.3 7.9 3.2 11.7 5.9 4 9.7 2.4 12.2-1.3l7.7-11.3-3-2zm15.7 17.4 14.4 5.7 1.4-2.1-11.6-4.7 2.7-6.8 10.6 4.2.9-2.4-10.5-4.2 2.4-5.9 11 4.4.9-2.3-14.2-5.7zm42.5-9.5c-4.7-.8-8.2.8-8.8 4.2-.5 3 1.2 4.9 6.3 7.2 4 1.8 5.2 3 4.8 5.3-.4 2.2-2.4 3.1-5.4 2.6-2.9-.5-4.7-2.2-4.8-4.8l-3.5-.6c-.3 3.9 2.4 6.8 7.6 7.8 5.7 1 9-1.1 9.6-4.6.5-2.9-.7-5.2-6.6-7.9-3.7-1.7-4.9-2.6-4.6-4.5.3-1.8 1.9-2.7 4.7-2.2 3 .5 4.1 2.1 4.1 4.2l3.4.6c.6-3.3-1.3-6.3-6.8-7.3m31.7 21.5c-5.2.2-7-4-7.1-8.4-.2-4.4 1.6-8.4 6.4-8.6 3.7-.1 5.2 1.6 5.9 3.9l3.5-.1c-.6-3.5-3.4-6.5-9.4-6.3-7.2.3-10.3 5.5-10.1 11.2.2 6.3 3.2 11 10.8 10.7 6.1-.2 8.6-3.5 9.2-7l-3.5.1c-.6 2.4-2 4.4-5.7 4.5m41.4-10.4c-.7-2.8-2.2-4.2-4.9-4.2 1.8-1.1 3.5-2.9 2.7-5.9-.9-3.5-4.5-4.6-8.9-3.4l-8.9 2.3 5.3 20.6 3.4-.9-2.4-9.2 4.1-1.1c3.9-1 5.4-.2 6.1 2.6l.1.4c.6 2.2 1.1 4 1.7 4.8l3.4-.9c-.6-1.1-1.1-2.9-1.6-4.8zm-9.9-4.2-4.4 1.1-1.7-6.7 5.1-1.3c2.8-.7 4.8-.1 5.3 2 .7 2.9-1.3 4.2-4.3 4.9m19.379-16.53 3.187-1.447 8.81 19.394-3.188 1.447zM390 536.6l-7.2 4.9 12 17.6 2.9-2-5.1-7.4 3.9-2.7c4.3-2.9 6.1-6.7 3.7-10.2-2.1-3.2-6.3-2.9-10.2-.2m5.1 8.5-3.7 2.6-4.2-6.2 3.8-2.6c2.6-1.8 5-2 6.4 0 1.6 2.4.3 4.4-2.3 6.2m24.5-31.7-1.9-1.8-12.6 13.2 1.9 1.7 5-5.3 13.6 13 2.5-2.6-13.6-12.9"/><path d="m334.2 260.2-6.3-.9v14.9c22.4 24.2 36.9 55.9 39 90.9H228.7s-14 .7-14 12.3c0 12.1 11.1 14.1 13.9 14.1H298s8.7-.5 8.7 6.1c0 6.3-6.4 6-8.6 6H156.6c11-74.3 69.2-133.2 143.1-145.3-79.7 4.2-144.2 66.5-151.9 145.3h-41.1s-15.3-1.8-15.3 11.5 11.5 12.8 14.7 12.8h41.1c1.5 28.3 10.4 54.8 24.7 77.4l.1-.1c-8.8-17.9-14.5-37.6-16.6-58.4h75.3c3.6 0 13.7-.5 13.7-12.2 0-11.6-12.4-11.9-12.4-11.9H130.2s-8.9.7-8.9-6.4 5.8-7.4 8.4-7.4h190.5s14.6 1.6 14.6-11.9c0-12-12.8-11.5-17.5-11.5h-65.1s-9.7.4-9.7-6.9 8.2-6.9 9.6-6.9h114.7v2.2c0 38.5-14.9 73.6-39.3 99.8-21.6 23.3-50.7 39.6-83.5 45.1q9.45 5.85 19.8 10.2c23.9-6.8 45.6-19 63.6-35.2 14.7-13.2 27-29.2 36.1-47h71.1v-6.7h-67.9c9.1-20.2 14.2-42.6 14.2-66.2v-2.2h65.9c5.1 14.9 7.9 30.8 7.9 47.4 0 27.5-7.6 53.3-20.9 75.4l11.2 9.1c15.2-24.6 24-53.5 24-84.5.4-79.9-58.2-146.5-134.8-158.9M216.9 435.3c0 6.5-6.3 6.9-6.3 6.9h-55.4c-.3-4.3-.5-8.6-.5-12.9v-1.4h56.5c1 .1 5.7.9 5.7 7.4m164.3-70.2c-1.8-32.4-13.1-62.2-31.3-86.7 43.3 12.8 78.4 45.1 95 86.7"/></g></svg>
