<svg xmlns="http://www.w3.org/2000/svg" id="zeek" viewBox="0 0 400 382.857"><path fill="currentColor" d="M74.144 43.367c-29.753 26.642-48.653 44.922-49.01 47.402-.643 4.469 93.552 90.609 100.279 91.704 7.392 1.203 8.425-3.652 5.57-26.191l-2.665-21.044h51.174c42.717 0 50.922.43 49.65 2.601-.838 1.43-22.523 27.158-48.19 57.174-67.069 78.433-69.355 72.33 26.644 71.138 89.616-1.113 82.144 2.47 75.333-36.129-.77-4.366 5.04.068 35.695 27.245 20.138 17.853 36.614 33.212 36.614 34.131 0 1.919-71.327 65.534-72.333 64.513-.365-.37.167-5.226 1.181-10.792s1.581-13.28 1.26-17.143l-.584-7.024-110.952-.491c-61.024-.271-110.953-.959-110.953-1.53s4.714-6.874 10.476-14.005c13.126-16.246 13.775-27.658 1.336-23.474-5.743 1.932-34.869 41.015-34.289 46.01l.572 4.919 115.664.491 115.664.491-.85 5.223c-5.803 35.656-5.051 45.159 3.473 43.887 7.675-1.145 100.243-85.727 99.79-91.18-.477-5.735-94.538-91.293-100.366-91.293-6.905 0-7.663 3.94-4.967 25.833 1.411 11.458 2.368 21.062 2.128 21.34s-24.612.278-54.16 0l-53.723-.506 49.606-58.096c67.27-78.782 69.259-73.023-24.902-72.098-81.329.799-75.732-.969-72.777 22.992 1.069 8.675 1.775 16.01 1.568 16.3-.621.87-72.338-63.049-72.338-64.472 0-1.69 71.508-65.181 72.403-64.287.37.37-.247 7.227-1.371 15.238s-1.522 15.926-.884 17.589c1.042 2.714 12.488 3.024 111.697 3.024 60.795 0 110.536.474 110.536 1.054s-4.714 6.889-10.476 14.02c-10.901 13.491-12.839 19.718-7.094 22.793 5.104 2.732 8.363.061 24.803-20.325 27.699-34.346 38.978-30.875-100.322-30.875H128.365l2.518-20.476c4.959-40.325 4.018-40.087-56.739 14.319"/></svg>
