<svg xmlns="http://www.w3.org/2000/svg" id="pony" viewBox="0 0 400 400"><path fill="currentColor" d="M170.76 19.883c-4.503 1.734-6.407 3.233-4.231 3.331 2.175.098 4.675 1.343 5.556 2.768 1.078 1.745-.032 2.071-3.406 1-4.752-1.508-21.299 6.268-23.26 10.93-.429 1.02-2.459 1.854-4.512 1.854-12.044 0-23.097 8.471-14.704 11.268 2.003.668 2.46-.006 1.289-1.901-1.365-2.208.293-2.69 6.692-1.943 8.193.957 11.617-1.171 5.582-3.469-2.814-1.072 3.124-1.447 22.59-1.429 10.151.01 8.409-7.031-1.824-7.369-4.84-.16-4.848-.216-.298-2.045 2.573-1.034 6.451-.961 8.618.164 5.054 2.624 7.209 2.605 5.568-.048-.711-1.152.226-2.677 2.082-3.39 2.093-.803 2.944-.167 2.237 1.673-.916 2.388 3.345 2.365 21.757-.116 27.543-3.711 33.537-5.206 19.387-4.834-7.122.187-10.331-.639-9.923-2.554.447-2.1-4.379-2.557-18.714-1.771-17.442.955-18.749.742-13.468-2.202 7.353-4.099 3.73-4.056-7.018.083m34.893 6.689c-2.794 2.409-13.84 3.641-13.84 1.543 0-1.311 3.333-2.384 7.407-2.384s6.969.378 6.433.841m47.471 7.592c-2.505 2.71-2.208 3.263 1.755 3.263 2.623 0 4.77-.991 4.77-2.201 0-3.873-3.413-4.429-6.525-1.062m-20.375.924c-10.882 1.948-10.464 2.553 2.143 3.106 5.561.244 9.544-.747 10.137-2.521.536-1.609.098-2.775-.974-2.593-1.073.183-6.16 1.086-11.306 2.008m25.731 4.479-9.357 1.476 9.941 1.728c5.799 1.008 9.942 3.015 9.942 4.815 0 1.697 2.895 4.529 6.433 6.294 10.491 5.234 11.425 5.265 5.263.176-3.217-2.656-4.796-4.895-3.509-4.975s-.587-1.732-4.163-3.672c-3.576-1.939-5.882-4.529-5.125-5.754s1.052-2.079.654-1.896c-.397.182-4.933.996-10.079 1.808m-57.53 3.496c-.764.787-12.464 2.48-26 3.763-38.293 3.628-60.338 12.602-83.392 33.946-14.3 13.239-18.183 12.08-10.03-2.994 2.385-4.409 2.264-5.263-.744-5.263-1.975 0-3.607 1.842-3.627 4.093-.024 2.772-.611 3.189-1.816 1.293-2.581-4.061-8.138.131-8.854 6.679-.33 3.013-.688 6.099-.795 6.857-.107.757-4.393 3.389-9.525 5.847-5.131 2.459-9.342 5.786-9.357 7.394s-1.15 2.924-2.523 2.924c-1.432 0-1.864 1.995-1.012 4.679 1.348 4.248.42 4.678-10.085 4.678-10.593 0-11.81.58-14.414 6.866-1.695 4.092-5.589 7.823-9.64 9.235l-6.797 2.369v134.89l7.165 2.705a16.98 16.98 0 0 1 9.87 9.869c2.585 6.849 3.298 7.165 16.144 7.165 10.894 0 13.899.858 15.862 4.525 3.274 6.118 3.184 6.381-2.842 8.316-4.457 1.432-4.636 1.858-1.17 2.784 2.252.601 4.094 1.978 4.094 3.06s5.263 5.205 11.696 9.163 11.696 8.259 11.696 9.558 1.579 2.361 3.509 2.361 3.298.789 3.041 1.754 2.901 6.96 7.017 13.323 7.485 10.274 7.485 8.69-1.7-5.474-3.777-8.645c-2.32-3.541-2.772-5.766-1.17-5.766 5.434 0 2.235-4.71-7.966-11.729-5.816-4.001-10.063-8.104-9.437-9.116s-2.247-6.464-6.384-12.113c-5.168-7.055-1.298-3.994 12.36 9.777 10.936 11.026 22.515 21.836 25.731 24.021 4.379 2.976 4.568 3.371.754 1.575-5.145-2.422-12.45-1.107-12.45 2.241 0 2.75 12.389 4.544 16.294 2.36 2.1-1.175 6.63-.292 11.696 2.281 39.532 20.076 119.254 24.311 130.011 6.906.732-1.185-1.532-1.065-5.032.266-9.761 3.711-12.46-1.185-3.272-5.937 4.814-2.489 6.888-2.84 5.733-.971-1.284 2.077-.642 2.482 2.203 1.39 2.384-.915 3.434-.602 2.585.772-9.799 15.854 56.132-29.836 70.754-49.033l8.794-11.546 22.295-.133 22.294-.134 2.704-7.165a16.98 16.98 0 0 1 9.87-9.869l7.165-2.705v-134.89l-6.797-2.369c-4.051-1.412-7.945-5.143-9.64-9.235-2.603-6.284-3.823-6.866-14.394-6.866-7.016 0-10.989-.908-10.121-2.312.803-1.3-.082-1.733-2.022-.988-2.057.789-4.516-.667-6.087-3.602-1.45-2.708-3.443-4.426-4.429-3.817-.985.609-3.624-1.993-5.862-5.782-3.863-6.54-2.632-9.288 2.159-4.817 1.222 1.14 3.951 1.403 6.064.585 3.246-1.258 2.792-2.446-2.924-7.652-3.721-3.39-6.789-5.496-6.818-4.679s-2.232-1.146-4.896-4.363c-3.053-3.685-4.369-4.362-3.559-1.829.707 2.21.252 4.657-1.01 5.437s-2.118.551-1.902-.51c.642-3.152-5.386-17.482-6.771-16.097-.702.702-2.448-1.077-3.882-3.953-3.069-6.157-10.44-8.235-13.284-3.746-1.563 2.466-2.007 2.291-2.035-.801-.02-2.176-1.201-4.676-2.626-5.556-5.6-3.462 1.032 9.795 9.125 18.24 8.469 8.837 14.176 10.467 6.344 1.812-2.336-2.581-3.429-4.693-2.429-4.693s.374-1.842-1.391-4.093c-2.92-3.723-2.834-3.798.939-.837 2.283 1.792 3.596 3.812 2.919 4.489s.52 3.166 2.66 5.531 5.07 6.66 6.511 9.546c1.935 3.874 4.579 5.199 10.104 5.063 6.003-.149 6.968.435 4.879 2.952-1.966 2.369-3.388 2.487-5.802.483-1.922-1.595-3.199-1.721-3.199-.315 0 1.287 1.649 3.707 3.663 5.379 4.046 3.358 10.372 14.623 10.372 18.47 0 5.372-4.546 1.902-11.341-8.656-15.555-24.17-45.276-47.314-73.134-56.949-14.367-4.969-53.033-8.992-56.095-5.836m-96.895 8.461c-.816 1.321-3.127 2.11-5.135 1.754s-3.939 1.182-4.291 3.416c-.522 3.321.178 3.626 3.828 1.672 3.059-1.637 4.467-1.627 4.467.031 0 1.332 1.708 2.422 3.795 2.422 3.058 0 3.246-.662.968-3.407-1.554-1.873-2.148-4.505-1.318-5.848s.983-2.441.34-2.441-1.838 1.08-2.654 2.401m183.664 4.616c1.377 2.573 3.557 4.679 4.843 4.679 1.505 0 1.446-1.669-.164-4.679-1.377-2.573-3.557-4.678-4.843-4.678-1.505 0-1.446 1.669.164 4.678m-175.438 0c0 1.287 1.517 2.34 3.37 2.34s4.022-1.053 4.817-2.34-.722-2.339-3.371-2.339-4.816 1.053-4.816 2.339M83.179 66.741c-2.498 1.889-3.488 3.434-2.202 3.434s4.383-1.545 6.88-3.434 3.488-3.434 2.201-3.434-4.382 1.545-6.879 3.434m6.892 3.42c-2.335 2.581-3.159 4.693-1.831 4.693 2.943 0 8.777-6.686 7.206-8.258-.62-.62-3.039.984-5.375 3.565m132.768 8.679c-2.877.555-8.14.569-11.696.032-3.555-.538-1.201-.992 5.231-1.01s9.342.422 6.465.978M71.007 104.68c-8.877 12.123-11.208 14.383-9.309 9.024 1.338-3.778 1.039-3.986-2.049-1.423-3.051 2.532-3.382 2.39-2.117-.904.824-2.148 3.479-4.965 5.901-6.261s4.403-4.214 4.403-6.485c0-6.382 5.17-10.621 7.618-6.247 1.342 2.397-.083 6.335-4.447 12.296m133.671-2.659c-7.114 2.192-7.983 2.926-3.625 3.062 3.718.117 4.931.98 3.452 2.458-1.409 1.409-4.934 1.486-9.239.202-3.829-1.143-5.584-2.168-3.9-2.279s2.406-1.262 1.604-2.56c-2.014-3.259 7.644-6.468 15.004-4.987 5.661 1.14 5.443 1.411-3.296 4.104m22.223-.936c0 1.287-1.665 1.701-3.701.92s-4.202-1.42-4.816-1.42-.494-1.007.266-2.237c1.679-2.716 8.251-.535 8.251 2.737m57.321 6.116c-.627.627.166 2.816 1.763 4.864 2.578 3.307 2.438 3.359-1.246.467-2.283-1.791-3.589-3.819-2.903-4.505s-1.13-3.957-4.037-7.269l-5.284-6.021 6.423 5.662c3.533 3.114 5.911 6.175 5.284 6.802m-110.565-6.795c2.47.256 1.063 10.373-1.727 12.424-5.252 3.858-12.473 1.962-11.191-2.939 1.123-4.296.645-4.505-5.222-2.274-3.552 1.35-6.952 1.961-7.556 1.358-1.689-1.689 16.488-9.97 20.46-9.321 1.93.315 4.286.653 5.236.752m86.318 11.797 5.522 4.6-5.181.078c-2.849.043-6.307-2.027-7.684-4.6-3.199-5.977.219-6.013 7.343-.078m-119.624 1.247c-1.602 1.93-4.625 3.476-6.719 3.435-3.199-.063-3.081-.624.733-3.509 5.91-4.47 9.718-4.423 5.986.074m239.704 21.114 10.588 10.588v114.914l-10.616 10.318-10.616 10.318H30.589l-10.616-10.318-10.616-10.318V145.138l9.941-10.36 9.942-10.361 170.114-.22 170.114-.22zm-61.926 21.271c0 10.236 1.016 17.213 2.584 17.736 2.744.915-1.865 20.581-4.824 20.581-.824 0-2.912-3.947-4.639-8.772-1.726-4.824-3.629-10.088-4.229-11.696-.606-1.629.695-2.924 2.94-2.924 3.538 0 3.826-1.638 2.363-13.45-2.011-16.253.552-14.431-18.172-12.917l-15.789 1.277v16.054c0 13.722.594 16.057 4.093 16.075 8.429.045 22.093 29.44 20.311 43.697-1.257 10.061-2.39 12.422-5.961 12.422-3.898 0-4.408 1.893-4.408 16.345v16.344l18.128-1.466c21.558-1.744 18.372 1.08 20.054-17.773 1.302-14.607 1.064-15.789-3.183-15.789-3.939 0-4.59-1.633-4.59-11.516 0-12.552 16.195-46.964 22.102-46.964 2.586 0 7.719-29.613 5.479-31.602-.374-.332-7.786-1.039-16.47-1.57l-15.789-.967zM50.877 141.866c-7.722 2.202-4.75 31.233 3.197 31.233 4.097 0 4.406 2.212 4.406 31.579v31.579h-6.141c-5.629 0-6.019.608-4.678 7.31.804 4.021 1.462 10.337 1.462 14.035v6.725H67.91c20.87 0 20.096.649 21.629-18.128.867-10.624.436-12.281-3.195-12.281-4.769 0-5.572-1.026-7.666-9.797-1.435-6.009-1.008-6.36 9.618-7.906 24.424-3.554 27.232-7.905 27.393-42.454.142-30.364-1.749-32.097-35.631-32.651-13.798-.226-26.929.114-29.181.756m83.177.72c-13.492 5.768-20.029 88.539-8.719 110.41 6.132 11.858 38.241 12.557 49.727 1.081 6.686-6.679 10.792-75.398 5.684-95.112-3.748-14.465-29.795-23.601-46.692-16.379m55.42 14.139c0 12.996.724 16.374 3.508 16.374 2.939 0 3.509 4.939 3.509 30.41 0 28.85-.24 30.409-4.678 30.409-4.044 0-4.678 1.56-4.678 11.505 0 18.3.606 18.904 18.963 18.904h16.124v-17.543c0-14.035-.702-17.544-3.509-17.544-2.915 0-3.508-4.549-3.508-26.901 0-14.795.361-26.9.802-26.9s5.914 18.421 12.163 40.935l11.361 40.936h8.698c16.685 0 16.098 1.585 16.098-43.525 0-39.126.18-40.686 4.679-40.686 4.2 0 4.678-1.559 4.678-15.269v-15.27l-15.789 1.528c-8.684.841-16.636 2.295-17.67 3.232-3.132 2.838.892 25.779 4.521 25.779 2.529 0 3.168 5.314 3.023 25.147-.211 28.672.08 29.132-14.045-22.223l-9.811-35.672h-34.439zm-96.828 22.38c2.292 9.133-1.849 20.766-7.694 21.612-4.687.678-9.343-19.296-6.029-25.863 2.332-4.622 12.269-1.543 13.723 4.251m65.347-2.064c4.676 4.675 4.028 43.16-.808 47.996-8.894 8.894-15.629-.623-16.334-23.082-.835-26.624 5.795-36.261 17.142-24.914m7.52 115.193c4.678 1.342 7.586 1.342 7.586 0 0-1.196 1.843-2.159 4.094-2.14 3.247.029 3.425.46.861 2.084-2.517 1.594-2.06 2.42 2.063 3.728s4.58 2.135 2.063 3.729c-2.264 1.434-1.13 2.048 3.785 2.048 5.508 0 6.262-.514 3.509-2.39-2.694-1.835-1.88-2.234 3.508-1.719 4.109.393 6.776 1.884 6.433 3.596-.321 1.608 1.521 2.924 4.094 2.924s4.678-1.549 4.678-3.442c0-5.304 14.482-8.543 18.089-4.046 4.183 5.214-.826 10.557-8.17 8.714-3.411-.856-5.073-.509-4.214.88.879 1.423-1.712 1.787-6.822.958-4.772-.775-8.24-.364-8.24.975 0 1.307 6.103 2.155 14.035 1.951 9.79-.252 14.036.514 14.036 2.534 0 4.409 4.952 6.513 7.11 3.021 1.169-1.891.573-4.066-1.536-5.609-2.783-2.035-.951-3.743 9.525-8.881 7.134-3.499 12.971-7.481 12.971-8.85 0-1.556 5.755-2.301 15.362-1.99l15.363.497-5.625 5.625c-4.905 4.904-9.033 6.781-16.466 7.484-1.041.098-1.405.968-.81 1.933.596.965-1.44 1.906-4.524 2.091s-5.072-.532-4.416-1.593.122-2.59-1.185-3.398c-2.302-1.423-2.666 1.301-3.123 23.368-.179 8.656-2.389 12.741-6.939 12.829-1.01.02-.625-2.229.857-4.997 2.372-4.432 2.181-4.836-1.601-3.385-2.362.906-3.535.888-2.606-.04 4.477-4.478-5.491-9.821-12.138-6.505-11.15 5.562-37.203 6.009-38.899.667-1.552-4.889-7.194-5.977-8.632-1.664-1.373 4.118-6.49-.006-6.49-5.23 0-2.498-1.114-4.541-2.477-4.541s-1.816-1.07-1.008-2.377c.808-1.308 2.449-1.772 3.647-1.032 4.237 2.619 2.11-2.624-2.375-5.857-2.505-1.805-4.054-4.09-3.444-5.078.611-.987-.955-2.901-3.48-4.252-6.805-3.641-9.093-2.838-3.728 1.308 4.426 3.421 4.439 3.575.243 2.85-7.122-1.23-6.947 4.367.225 7.21l6.549 2.596-7.511-1.116c-7.782-1.156-12.822 2.578-7.728 5.727 4.313 2.665-2.414 4.611-7.292 2.109-5.154-2.643-8.075-10.13-3.226-8.27 1.944.747 3.535.304 3.535-.982s-1.573-2.943-3.495-3.681c-1.923-.737-2.958-2.21-2.301-3.273 1.556-2.518-2.071-4.667-10.032-5.946l-6.394-1.028 6.703 5.988c8.532 7.622 7.01 9.634-1.909 2.522-3.932-3.135-6.019-6.488-5.033-8.083 2.043-3.307 31.995-3.691 42.945-.551m74.192 2.819c-1.306 6.782-3.007 8.077-6.294 4.791-2.131-2.131-2.122-2.768.039-2.768 1.544 0 2.807-1.115 2.807-2.477 0-1.363-1.215-1.726-2.7-.808-1.674 1.034-2.066.641-1.032-1.032 2.949-4.771 8.217-3.087 7.18 2.294m50.353-1.486c-1.601 1.93-2.127 3.509-1.169 3.509s.57 1.413-.863 3.139c-1.433 1.727-1.825 4.001-.871 5.054s.512 1.215-.982.36c-4.207-2.407.551-15.571 5.628-15.571.643 0-.141 1.579-1.743 3.509m18.784 1.04c-2.624 4.903-7.088 8.502-7.088 5.715 0-1.804 7.115-10.264 8.632-10.264.49 0-.206 2.047-1.544 4.549m36 3.253c.178 2.785-.585 5.707-1.695 6.493s-.287 2.093 1.83 2.906c2.772 1.063 3.661.337 3.179-2.599-.369-2.241.086-5.281 1.012-6.754.925-1.473.257-3.226-1.484-3.894q-3.165-1.213-2.842 3.848m-85.372-2.538c-2.609 8.525-1.136 10.921 2.518 4.093 1.698-3.172 1.724-4.678.083-4.678-1.332 0-2.502.263-2.601.585m18.893 7.602c-2.696 3.249-1.618 4.547 3.097 3.728 3.518-.611-.934 4.393-6.152 6.915-4.754 2.298-4.82 2.229-.899-.933 2.834-2.284 3.376-3.943 1.641-5.015-2.456-1.518.849-8.204 4.055-8.204.643 0-.141 1.579-1.742 3.509m-190.175 4.198c1.029 1.666 7.737 7.751 14.907 13.523 12.355 9.947 15.32 16.197 7.683 16.197-1.898 0-2.807-1.044-2.018-2.319 1.391-2.252-5.98-11.038-12.933-15.417-5.725-3.605-14.95-15.012-12.14-15.012 1.446 0 3.472 1.362 4.501 3.028m90.832-.807c-2.046 3.311 8.066 8.12 10.969 5.217 1.293-1.294 1.645-3.497.78-4.895-1.936-3.133-9.878-3.35-11.749-.322m104.705 11.601c-2.84 2.371-4.436 5.23-3.548 6.355.889 1.125.112.733-1.728-.87-2.866-2.499-2.694-3.407 1.209-6.359 6.604-4.995 10.178-4.227 4.067.874m-3.002 13.052c-1.59 1.916-3.936 2.837-5.214 2.047-1.412-.872-1.078-2.225.849-3.447 5.046-3.197 7.522-2.403 4.365 1.4m-123.998 8.655c0 1.217-2.105 1.615-4.678.886l-9.357-2.655c-8.971-2.545-4.606-5.174 4.678-2.818 5.147 1.306 9.357 3.371 9.357 4.587m49.123-4.997c2.514 1.712.856 1.946-5.848.823-11.604-1.943-13.472-3.297-4.483-3.249 3.752.019 8.401 1.111 10.331 2.426m-54.386 11.541c1.608.017 2.924 1.549 2.924 3.403 0 4.364-5.29 7.66-6.495 4.046-.507-1.522-1.832-2.206-2.944-1.518s-3.247-1.039-4.744-3.837c-2.5-4.67-2.27-4.965 2.806-3.606 3.041.814 6.845 1.494 8.453 1.512m-45.029 3.625c-3.86 1.767-6.314 3.261-5.455 3.319.86.058 3.401.811 5.647 1.672 2.766 1.062 3.543.693 2.409-1.142-1.088-1.761-.424-2.23 1.896-1.34 3.143 1.206 3.104 1.832-.322 5.236-3.624 3.601-3.267 3.918 5.19 4.619 6.558.544 8.143 1.346 5.706 2.889-2.529 1.599-1.811 2.144 2.862 2.171 3.431.019 6.681 1.351 7.222 2.959.765 2.271 1.866 2.197 4.93-.333 2.17-1.791 4.622-2.581 5.449-1.754.826.826.213 1.503-1.364 1.503s-2.224 1.041-1.438 2.313c.875 1.416 3.682.837 7.236-1.491 4.418-2.895 7.045-3.228 10.989-1.391 4.835 2.251 4.892 2.531.853 4.171-2.641 1.072-5.023.636-6.108-1.12-1.27-2.055-2.099-1.65-2.901 1.413-.894 3.419.23 4.292 5.524 4.292 3.655 0 6.646-.713 6.646-1.583 0-.871 1.789-1.928 3.976-2.349 6.986-1.345-8.382-9.489-20.196-10.702-5.875-.602-11.947-2.689-13.493-4.636-1.72-2.165-5.1-3.103-8.701-2.415-3.239.619-5.328.218-4.642-.892s-.393-2.647-2.397-3.416-3.061-2.34-2.349-3.492c1.554-2.515 1.635-2.532-7.169 1.499m163.605 2.18c-2.498 1.889-7.411 3.468-10.92 3.509-4.21.049-7.712 2.11-10.302 6.062-2.676 4.085-4.469 5.104-5.641 3.208-1.285-2.08-3.701-1.782-9.581 1.179-4.325 2.178-13.126 4.508-19.559 5.177-6.433.67-13.275 1.823-15.205 2.561-1.929.739-4.561 1.047-5.848.683-13.428-3.792-17.34-3.985-18.518-.917-.693 1.808-3.653 4.336-6.576 5.62-4.859 2.133-4.726 2.249 1.554 1.354 9.171-1.307 14.622.671 10.286 3.732-2.1 1.483-.944 1.726 3.537.744 3.804-.834 8.064-.291 9.941 1.267 2.308 1.915 3.285 1.958 3.285.145 0-1.42-2.624-3.24-5.832-4.045s-5.206-2.476-4.441-3.713c.764-1.237 3.125-1.536 5.247-.664s5.862 1.733 8.313 1.914c4.608.34 7.616 8.516 3.134 8.516-1.387 0-1.971.551-1.297 1.225 2.652 2.652 8.568-1.737 7.188-5.333-1.078-2.808-.426-3.337 2.656-2.154 4.225 1.621 11.787-1.445 17.394-7.052 1.827-1.827 5.208-2.588 7.818-1.759 2.815.893 6.351-.125 9.111-2.622 2.614-2.366 4.51-2.947 4.51-1.381 0 1.486-1.052 2.702-2.339 2.702s-2.339 1.115-2.339 2.477c0 1.363 1.053 1.827 2.339 1.032 1.287-.796 2.339-.294 2.339 1.113 0 1.835 1.325 1.851 4.679.056 2.573-1.377 4.678-1.757 4.678-.844s2.447-.639 5.437-3.448 6.148-4.396 7.017-3.526c.87.869 1.581.29 1.581-1.287s.943-2.284 2.094-1.573c1.152.712 2.698-.278 3.436-2.201.814-2.123-.008-3.495-2.094-3.495-3.913 0-4.603-3.681-1.097-5.848 2.803-1.732 3.118-5.848.447-5.848-1.04 0-3.935 1.545-6.432 3.434m24.699 2.414c-1.602 1.93-4.362 3.509-6.135 3.509s-3.222 1.616-3.222 3.591c0 3.029.823 3.134 5.263.672 2.895-1.605 5.834-2.767 6.532-2.583s1.422-1.697 1.609-4.181c.41-5.437-.238-5.598-4.047-1.008"/></svg>
