<svg xmlns="http://www.w3.org/2000/svg" id="a" viewBox="0 0 20 20"><path d="M6.71 4.365c-1.108 1.305-1.823 3.236-1.873 5.4v.47c.051 2.165.766 4.093 1.872 5.4 1.434 1.862 3.566 3.044 5.95 3.044a7.2 7.2 0 0 0 4.005-1.226 9.94 9.94 0 0 1-7.139 2.535A10 10 0 0 1 0 10C0 4.476 4.478 0 10 0h.037a9.97 9.97 0 0 1 6.628 2.546 7.24 7.24 0 0 0-4.008-1.226c-2.382 0-4.514 1.183-5.95 3.045zM20 10a9.97 9.97 0 0 1-3.335 7.454c-2.565 1.25-4.955.376-5.747-.17 2.52-.554 4.423-3.6 4.423-7.284 0-3.685-1.903-6.73-4.423-7.283.791-.545 3.182-1.42 5.747-.171A9.97 9.97 0 0 1 20 10"/></svg>
