<svg xmlns="http://www.w3.org/2000/svg" viewBox="0 0 80 100"><path d="M57.537 44.892c-2.836.225-5.214 1.245-6.984 3.001-1.823 1.808-2.693 4.013-2.693 6.812 0 4.186 1.718 7.112 5.551 9.43.975.585 2.303 1.223 4.599 2.213 3.128 1.343 4.291 1.98 5.034 2.776.915.983 1.17 2.551.593 3.751-.113.233-.405.623-.668.885-.885.893-2.281 1.365-4.013 1.365-2.926 0-5.109-1.2-6.864-3.796-.24-.345-.458-.63-.488-.63-.068 0-5.776 3.293-5.896 3.406-.075.068-.015.225.278.705 2.281 3.841 5.844 6.091 10.66 6.737 1.26.173 3.623.165 4.831 0 3.031-.428 5.304-1.433 7.067-3.143 1.875-1.808 2.798-4.149 2.798-7.082 0-1.875-.308-3.338-1.005-4.786-.48-.99-.96-1.658-1.785-2.498-1.583-1.605-3.631-2.821-7.719-4.576-3.091-1.328-4.126-1.898-4.809-2.626-.653-.698-.93-1.515-.87-2.536.053-.81.278-1.358.773-1.89.713-.773 1.538-1.095 2.813-1.088 1.448 0 2.386.375 3.338 1.335.338.33.773.863.975 1.185.233.368.405.57.465.548.195-.083 5.649-3.608 5.649-3.661 0-.03-.278-.465-.615-.975-.72-1.08-2.018-2.431-2.911-3.023-1.65-1.095-3.413-1.658-5.739-1.83-1.142-.091-1.292-.091-2.365-.009zM34.184 58.523l-.023 13.263-.165.623c-.218.818-.473 1.305-.923 1.755-.63.63-1.44.893-2.791.9-1.928.008-3.083-.81-4.426-3.106-.218-.36-.413-.653-.435-.645-.03.015-1.388.833-3.016 1.815l-2.963 1.8.225.45c1.343 2.678 3.668 4.704 6.467 5.634 2.956.983 6.752.893 9.535-.225 3.338-1.35 5.296-4.141 5.814-8.29.045-.42.075-5.109.075-13.931V45.268h-7.344l-.03 13.255zM8.858 12.252h62.284a6.604 6.604 0 0 1 6.619 6.619v62.284a6.604 6.604 0 0 1-6.619 6.619H8.858a6.604 6.604 0 0 1-6.619-6.619V18.871a6.604 6.604 0 0 1 6.619-6.619z"/></svg>