<svg xmlns="http://www.w3.org/2000/svg" viewBox="0 0 83.495005 87.001999" width="83.495" height="87.002"><path d="M41.443.002C20.246.002 21.57 9.628 21.57 9.628l.024 9.975h20.225v2.994h-28.26S0 20.988 0 43.388C0 65.79 11.838 64.995 11.838 64.995h7.065V54.6s-.381-12.4 11.649-12.4h20.06s11.27.191 11.27-11.41V11.608S63.591 0 41.443 0zM30.289 6.707c2.012 0 3.639 1.704 3.639 3.812 0 2.108-1.627 3.812-3.639 3.812-2.012 0-3.639-1.704-3.639-3.812 0-2.108 1.627-3.812 3.64-3.812z" fill="FILL"/><path d="M42.053 87.002c21.194 0 19.87-9.629 19.87-9.629l-.024-9.974H41.674v-2.995h28.26s13.561 1.611 13.561-20.79c0-22.402-11.838-21.607-11.838-21.607h-7.064v10.395s.38 12.4-11.65 12.4h-20.06s-11.27-.191-11.27 11.41v19.182s-1.71 11.608 20.44 11.608zm11.15-6.709c-2.012 0-3.639-1.704-3.639-3.812 0-2.108 1.627-3.812 3.64-3.812s3.638 1.704 3.638 3.812c0 2.108-1.627 3.812-3.639 3.812z" fill="FILL"/></svg>