<svg xmlns="http://www.w3.org/2000/svg" xmlns:xlink="http://www.w3.org/1999/xlink" viewBox="0 0 100 100.62893"><path d="M47.378 16.616c-16.602.747-35.414 4.591-46.088 18.201-6.58 8.261-3.316 20.669 4.75 26.561 16.976 13.183 40.52 14.959 61.22 11.477 13.532-2.767 29.318-8.471 34.352-22.49 3.56-12.171-7.163-22.433-17.306-26.808-11.465-5.35-24.326-7.218-36.926-6.941zm1.45 7.064c15.229.157 32.378 2.537 43.373 14.191 5.71 5.943 2.346 15.178-3.98 19.096-16.958 11.447-39.134 12.367-58.52 7.99-9.644-2.739-22.054-7.089-24.802-17.924-.75-10.506 10.682-16.175 19.034-19.249 8.08-2.786 16.396-3.961 24.895-4.103z"/><path id="a" fill-rule="evenodd" d="M23.51 57.312L27.68 36.2h9.644c4.17.26 6.256 2.346 6.256 5.995 0 6.255-4.953 9.904-9.384 9.644h-4.691l-1.043 5.473H23.51zm7.037-9.383l1.304-7.82h3.388c1.825 0 3.128.783 3.128 2.346-.26 4.431-2.346 5.213-4.692 5.474h-3.128z"/><path d="M42.016 51.838l4.17-21.112h4.952L50.096 36.2h4.691c4.17.26 5.735 2.345 5.213 4.952l-1.824 10.686h-5.213l1.824-9.644c.261-1.303.261-2.085-1.563-2.085h-3.91l-2.346 11.729h-4.952z"/><use xlink:href="#a" transform="translate(34.926)" height="160" width="300"/></svg>
