<svg xmlns="http://www.w3.org/2000/svg" viewBox="0 0 83.49 100"><path d="M41.44 0C20.243 0 21.567 9.626 21.567 9.626l.024 9.975h20.225v2.994h-28.26S-.003 20.986-.003 43.386c0 22.402 11.838 21.607 11.838 21.607h7.065V54.598s-.381-12.4 11.649-12.4h20.06s11.27.191 11.27-11.41V11.606S63.588-.002 41.44-.002zM30.286 6.705c2.012 0 3.639 1.704 3.639 3.812s-1.627 3.812-3.639 3.812-3.639-1.704-3.639-3.812 1.627-3.812 3.64-3.812z"/><path d="M42.05 87c21.194 0 19.87-9.629 19.87-9.629l-.024-9.974H41.671v-2.995h28.26s13.561 1.611 13.561-20.79c0-22.402-11.838-21.607-11.838-21.607H64.59V32.4s.38 12.4-11.65 12.4H32.88s-11.27-.191-11.27 11.41v19.182S19.9 87 42.05 87zM53.2 80.291c-2.012 0-3.639-1.704-3.639-3.812s1.627-3.812 3.64-3.812 3.638 1.704 3.638 3.812-1.627 3.812-3.639 3.812z"/></svg>
