<svg xmlns="http://www.w3.org/2000/svg" viewBox="0 0 87.449997 100"><path d="M22.27 84.479l.039.075.011-.082.333-.041-.002.033L79.2 86.707 2.28 87zM61.951 53.51l23.16 31.317-59.814-2.373zM87.442 84.427L63.56 52.13l20.62-38.597zM.066 76.917l2.735-26.244 4.75 4.07L0 78.334zM9 58.087l11.93 23.721L.874 84.34zM20.781 76.255L9.818 54.424l15.419-9.804zM59.893 51.543L22.82 80.823l4.944-36.01zM45.334 23.195l13.78 26.106-31.115-6.893zM47.85 23.168l32.705-8.752-18.779 35.105zM46.732 20.82l4.53-11.729 25.596 4.154zM83.856 12.065L56.513 7.266l21.844-7.1zM69.755 0L49.113 6.71l-3.737-1.005zM43.695 20.83L25.129 41.54 8.554 51.892l-4.69-4.017 6.645-12.378L26.21 17.971l14.992-10.47 6.934 1.864z"/></svg>
