<svg xmlns="http://www.w3.org/2000/svg" viewBox="0 0 512 512"><path d="M256.3 1.3c-10.8 0-21.5 2.9-31.2 8.6l-161.6 96c-19.3 11.4-31.2 32.6-31.2 55.5v191.9c0 22.9 11.9 44.1 31.2 55.5l161.6 95.9c9.6 5.7 20.4 8.6 31.2 8.6s21.5-2.9 31.2-8.6l161.6-95.9c19.3-11.5 31.2-32.6 31.2-55.5V161.4c0-22.9-11.9-44.1-31.2-55.5l-161.6-96c-9.6-5.7-20.4-8.6-31.2-8.6zm0 11.5c8.9 0 17.8 2.4 25.5 7l161.6 95.9c13.3 7.9 22.3 21.6 24.8 37-5.4-11.4-17.4-14.6-31.5-6.3l-152.9 94.5c-19.1 11.1-33.1 23.7-33.1 46.6v188.4c0 13.8 5.5 22.7 14.1 25.3-2.8.5-5.6.8-8.5.8-8.9-.1-17.8-2.5-25.5-7.1L69.2 399c-15.8-9.4-25.6-26.9-25.6-45.7V161.4c0-18.8 9.8-36.3 25.6-45.7l161.6-95.9c7.8-4.6 16.6-7 25.5-7zm65.723 270.163c.858.037 1.477.862 1.477 2.137l.1 13.9c5.8-2.3 10.9-2.9 15.5-1.9 1 .3 1.4 1.6 1 3.2l-3.1 12.3c-.2.9-.8 1.9-1.4 2.5-.3.3-.5.5-.8.6-.4.2-.8.3-1.2.2-2.1-.5-7.1-1.6-14.9 2.4-8.2 4.2-11.1 11.3-11 16.6.1 6.3 3.3 8.3 14.5 8.4 14.9.2 21.4 6.8 21.5 21.8.2 14.8-7.7 30.6-19.8 40.4l.3 13.8c0 1.7-1.1 3.6-2.4 4.2l-8.2 4.7c-1.3.7-2.4-.1-2.4-1.8l-.1-13.6c-7 2.9-14.1 3.6-18.6 1.8-.9-.3-1.2-1.6-.9-3l3-12.5c.2-1 .8-2 1.5-2.6.3-.2.5-.4.8-.6.5-.2.9-.3 1.3-.1 4.9 1.6 11.1.9 17.1-2.2 7.6-3.9 12.7-11.6 12.6-19.4-.1-7-3.9-9.9-13.1-10-11.7 0-22.7-2.3-22.9-19.6-.1-14.2 7.3-29 19-38.4l-.1-13.9c0-1.7 1-3.6 2.4-4.3l7.9-4.8c.325-.176.637-.25.923-.237zm85.495 88.588c.67-.052 1.157.474 1.082 1.449v9.3c0 1.3-.1 2.5-1.2 3.1l-40.9 24.8c-1 .6-1.9.1-1.9-1.2v-10.5c0-1.3.8-2 1.9-2.6l40.3-24.1c.25-.15.494-.232.718-.25z" fill="FILL"/></svg>