<svg xmlns="http://www.w3.org/2000/svg" viewBox="0 0 512 512"><path d="M229.694 68.149c.254 26.104-15.322 10.096-15.11 24.758.098 6.7 8.365 12.677 12.838 21.333 5.315 10.282 6.858 23.472 5.148 33.9-1.112 6.783-3.366 13.611-6.386 19.85-8.204 16.951-21.278 26.24-42.137 24.586-19.822-1.571-39.789-1.405-59.672-2.387-7.167-.353-28.227-7.413-28.858-3.065-.934 6.444 2.733 10.975 8.377 12.716 9.905 3.053 20.107 6.043 30.392 6.978 19.8 1.798 39.828 1.382 59.591 3.401 10.46 1.068 21.208 4.05 30.68 8.427 15.622 7.219 19.7 19.858 18.13 39.477-1.512 18.892-10.766 31.843-27.796 40.555-3.805 1.946-7.425 4.27-10.941 6.672-5.96 4.073-5.53 8.828.984 11.797 3.791 1.729 7.7 3.224 11.507 4.922 17.643 7.87 29.237 30.314 24.811 47.96-2.213 8.823-13.518 12.67-20.895 7.182-11.28-8.391-23.476-14.926-38.04-16.348-11.903-1.162-22.03 2.377-29.739 11.175-1.518 1.732-2.86 5.15-2.052 6.791.942 1.917 4.212 3.53 6.682 3.863 4.74.641 9.63.442 14.451.32 30.595-.777 50.266 12.6 60.652 40.211 12.228 32.505-14.113 58.04-41.25 63.365-18.778 3.685-34.813-2.743-49.52-13.13-13.812-9.756-25.127-21.831-35.689-35.653 10.113.442 19.479.375 28.719 1.372 12.492 1.349 24.901 3.438 37.314 5.399 2.384.376 4.71 1.45 6.9 2.51 6.128 2.972 6.193 6.518.845 10.752-3.082 1.064-7.117 3.682-4.547 6.364 2.728 2.602 4.785 2.837 7.39 3.542 2.171.586 4.702.374 6.998.043 6.684-.962 13.061-2.883 15.853-9.492 2.82-6.677-.662-12.177-4.803-17.241-11.037-13.496-26.765-16.964-43.434-18.19-23.534-1.733-47.096-3.15-70.607-5.126-5.312-.447-10.659-2.176-15.65-4.11-12.736-4.935-17.397-16.027-12.554-28.223 7.914 2.143 15.674 4.978 23.707 6.27 17.553 2.824 33.758-.66 47.496-11.988 6.84-5.64 10.57-12.705 9.059-21.662-.825-4.893-3.834-6.403-8.036-3.54-4.215 2.873-8.221 6.076-12.023 9.44-10.534 9.321-22.789 11.884-36.476 8.662-14.58-3.432-27.696-9.301-35.297-22.545-8.306-14.47-3.013-34.288 12.42-47.596 3.172-2.736 6.758-5.035 9.306-6.912 6.054 4.389 11.27 8.458 16.808 12.078 3.453 2.258 7.17 2.187 9.526-1.771 2.38-3.996 1.8-7.574-2.03-10.72-3.534-2.905-7.372-5.722-10.048-9.282-7.163-9.53-5.476-22.246 3.548-30.2.981-.864 2.534-1.6 3.828-1.608 15.205-.096 30.418-.294 45.613.101 5.72.15 11.649 1.074 17.048 2.848 13.224 4.344 20.64 16.054 18.615 28.083-1.857 11.03-12.694 19.296-26.331 20.018-2.468.13-4.999-.252-7.407.135-5.841.184-4.72 6.098-3.69 7.293 9.508 11.02 24.477 13.776 37.47 7.139 30.667-15.666 33.02-55.534 4.39-74.04-10.615-6.862-22.445-10.663-35.091-11.273-15.425-.744-30.924-.118-46.343-.92-14.925-.777-28.278-5.884-38.33-16.961-7.79-8.586-9.446-18.46-5.313-29.138 7.942-20.519 28.606-31.138 53.197-26.625 16.607 3.048 32.9 7.774 49.57 10.344 10.458 1.612 21.5 1.748 32.027.542 16.964-1.945 27.07-12.19 30.721-28.053 3.681-15.992-.589-29.518-14.435-39.68-11.416-8.38-24.78-12.064-38.8-13.891-15.262-1.989-30.356-1.333-45.14 3.094-8.408 3.038-9.293 8.312-8.8 10.937.329 1.745 4.683 3.902 7.288 3.968 12.345.31 24.74-.62 37.054.014 13.081.674 26.248 2.06 36.538 11.453 7.491 6.836 10.536 15.509 7.624 22.527-3.174 7.65-11.434 12.569-22.01 12.003-7.612-.407-15.22-1.682-22.713-3.124-15.983-3.078-31.832-6.818-47.857-9.666-6.842-1.216-13.988-.878-21.2-1.258-7.253-18.038-11.53-28.889 7.317-45.654 17.43-15.505 38.076-26.329 62.85-25.742 8.518.201 16.924 3.766 25.434 5.562 7.154 1.51 14.37 2.77 21.596 3.928 1.317.21 7.4 1.445 5.76-1.308-2.598-3.793-4.264-7.537-7.09-10.127-12.831-11.755-28.687-16.677-46.148-17.524-2.346-.114-4.702-.046-7.053-.081-.222-.003-.441-.143-1.307-.441 6.339-9.562 14.183-17.251 25.774-19.951 15.404-3.588 30.103-.738 43.274 7.504 13.28 8.31 15.364 15.166 15.528 32.082zM55.008 238.959c-3.56-1.98-5.79-1.738-8.722.595-15.378 12.235-19.895 28.546-19.222 46.704.238 6.424 2.272 12.346 8.079 16.225 4.973-4.044 9.357-8.265 14.413-11.539 5.15-3.335 10.962-5.74 16.702-8.663-2.39-12.522 1.394-23.94 8.477-34.384-6.832-3.028-13.568-5.51-19.727-8.937zM286.37 69.3c.415-15.567 2.028-22.598 8.036-28.668 19.78-19.985 54.69-17.645 71.01 4.712.681.931 1.26 1.933 2.132 3.282-24.17.867-46.298 5.037-59.672 26.558l.63 2.496c4.674 0 9.44.561 13.994-.157 4.593-.724 9.119-2.393 13.423-4.212 17.284-7.304 34.5-6.572 51.458.567 13.491 5.68 26.337 12.56 36.4 23.405 9.031 9.734 12.168 20.697 7.207 33.358-1.243 3.17-2.14 6.47-3.204 9.739-27.548-1.958-52.651 9.105-79.04 12.535-5.929.771-12.142 1.166-18.01.321-13.014-1.874-19.296-14.845-13.016-26.128 6.356-11.42 17.123-16.764 29.725-17.684 15.637-1.142 31.372-1.06 47.068-1.343 3.761-.068 7.65.374 8.682-4.279 1.009-4.54-.887-8.053-5.464-9.496-28.594-9.01-56.449-7.705-82.531 7.528-15.963 9.322-21.52 24.822-17.027 42.62 4.3 17.034 15.68 26.21 34.738 28.002 20.213 1.9 39.376-3.397 58.569-8.28 12.605-3.206 25.173-5.972 38.278-3.188 19.903 4.23 35.166 24.4 31.719 42.182-1.994 10.284-8.89 17.135-17.678 22.277-10.662 6.238-22.333 8.482-34.763 8.264-17.759-.311-35.633-1.527-53.05 3.444-10.919 3.117-20.581 8.453-28.327 16.574-16.312 17.102-12.177 46.392 8.574 62.332 13.53 10.393 29.136 9.598 41.145-2.417 1.47-1.47 2.11-4.34 1.927-6.464-.07-.818-3.458-1.69-5.419-1.96-4.056-.557-8.273-.271-12.237-1.14-11.678-2.563-18.808-10.387-20.102-21.407-1.092-9.302 5.392-19.604 15.427-24.497 9.724-4.743 20.182-4.191 30.6-4.112 10.766.081 21.535-.131 32.297.064 2.037.037 4.564.86 5.988 2.205 9.798 9.252 9.411 24.147-.739 33.86-1.975 1.891-4.337 3.395-6.492 5.11-3.716 2.958-4.012 6.678-1.843 10.469 2.224 3.886 5.863 4.167 9.319 1.848 5.418-3.637 10.551-7.678 16.234-11.863 13.505 5.638 25.61 24.29 25.25 39.996-.355 15.406-10.94 27.626-29.888 34.49-17.378 6.296-33.215 4.953-46.796-8.65-2.763-2.766-6.04-5.118-9.343-7.278-3.688-2.411-6.418-1.5-7.4 3.004-2.233 10.248 2.53 17.847 10.326 23.686 19.232 14.404 40.208 14.233 61.895 6.132 1.905-.712 3.757-1.561 5.614-2.337 5.458 9.755 1.71 23.431-9.202 27.343-11.073 3.97-23.01 6.375-34.775 7.618-21.031 2.222-42.252 2.687-63.324 4.617-11.619 1.064-21.906 5.946-29.723 14.788-5.1 5.77-9.718 11.962-5.918 20.112 2.88 6.178 12.81 9.97 21.954 8.444 2.558-.427 4.86-2.316 7.278-3.535-1.49-2.15-2.579-4.779-4.55-6.358-5.337-4.276-5.424-8.738 1.182-10.755 10.083-3.079 20.518-5.52 30.988-6.826 13.003-1.622 26.193-1.813 41.13-2.734-7.628 8.468-13.866 16.097-20.857 23-12.74 12.58-26.888 23.063-45.386 26.488-32.398 5.999-65.344-22.792-61.234-53.652 4.044-30.362 29.094-51.264 60.338-50.424 5.203.14 10.467.397 15.597-.229 2.494-.304 5.69-2.03 6.79-4.038.817-1.49-.6-5.005-2.105-6.707-10.001-11.318-23.142-14.16-36.902-9.464-10.431 3.559-20.18 9.4-29.65 15.141-6.918 4.194-17.649 1.206-19.927-6.651-4.81-16.59 5.543-39.36 21.861-47.754 4.273-2.197 8.81-3.901 13.186-5.914 6.48-2.981 6.999-8.028 1.078-12.06-4.66-3.175-9.384-6.353-14.41-8.911-25.487-12.97-26.28-43.662-21.01-61.831 2.716-9.361 10.771-14.343 19.3-18.114 16.649-7.361 34.588-6.983 52.34-8.075 17.578-1.081 35.136-2.8 52.61-4.954 4.533-.558 9.046-3.328 12.937-5.967 2.195-1.489 4.005-4.677 4.322-7.292.277-2.287-1.148-5.853-3.005-6.953-1.438-.852-4.693 1.266-7.16 2.001-5.782 1.723-11.498 4.515-17.378 4.904-18.468 1.222-37.008 1.378-55.506 2.234-28.47 1.317-44.717-11.15-50.121-40.175-1.722-9.248-1.488-19.01-.864-28.455.55-8.341 5.148-15.116 12.793-19.566 2.281-1.328 4.66-2.672 6.509-4.48 1.66-1.624 5.505-7.086-1.78-10.325 0 0-13.446-4.424-13.03-19.991zm193.656 232.485c15.984-11.696 5.636-55.139-15.745-64.509l-23.876 10.627c7.393 10.459 10.518 22.15 8.624 33.152l30.997 20.73z" fill="FILL"/></svg>