<svg xmlns="http://www.w3.org/2000/svg" viewBox="0 0 338 370"><path d="M239.574 141.942s-5.446-50.776-55.826-52.186c-50.38-1.41-76.254 38.082-76.254 94.5 0 56.416 28.595 101.552 77.614 101.552 49.02 0 54.466-56.417 54.466-56.417l93.953 5.641s5.532 50.954-33.784 89.83c-39.317 38.871-87.575 45.222-121.276 44.958-33.701-.269-80.427.528-125.613-45.752C7.668 277.788 0 232.83 0 188.665 0 144.5 8.569 85.992 62.296 41.625 98.81 11.477 135.825.37 172.846.37c154.551 0 164.931 142.544 164.931 142.544" fill="FILL"/></svg>