<svg xmlns="http://www.w3.org/2000/svg" viewBox="0 0 1100 1180"><path d="M262 1165c-76-18-151-55-183-90-92-99-105-239-30-319 41-44 98-66 171-66 120 0 191 56 191 153 0 42-5 53-42 93-41 44-42 47-27 72 13 24 23 28 84 34 118 11 165-9 185-81 6-21 10-186 10-388 0-415 6-393-105-393h-65V0h650v180h-63c-109 0-101-29-107 397l-5 368-27 51a337 337 0 0 1-243 173c-79 15-327 12-394-4zm357-71c59-24 101-62 130-117l27-52 3-347c2-206-1-362-7-383-8-29-7-35 6-35 8 0 27-8 41-19 31-22 124-51 162-51 17 0 39-13 65-40l39-40H461v154l39-38c39-38 41-39 92-32 67 9 119 31 119 50 0 9-18 28-40 42l-40 27v366c0 341-2 369-20 409-29 63-65 76-189 64-77-8-101-7-123 4-34 18-34 20-5 36 53 29 258 31 325 2zM175 948c-3-13-3-20 1-16s34-19 67-50l90-85c16-15 28-32 26-39-17-50-150-75-233-44C44 746 6 811 13 910l3 45h72c39 0 75 3 79 8 13 12 16 8 8-15z" fill="FILL" stroke="FILL" stroke-width="20"/></svg>