<svg version="1" xmlns="http://www.w3.org/2000/svg" width="1081.333" height="1073.333" viewBox="0 0 811 805"><path d="M366.2 13.6c-42.1 4.3-76.6 13.6-116.3 31.2-21.5 9.5-56.8 30-62.3 36.1-1.1 1.1-2.3 2.1-2.8 2.1-5.1 0-58.2 50.3-71.9 68-22 28.6-45.9 69.3-55.6 95-11.6 30.5-18.1 52.8-23.3 80-4.2 22.3-5.2 34.6-5.2 69.5 0 31.6 1.1 49.9 3.8 66 3.5 21.2 13.3 58.9 17.7 68.8 1.3 2.9 3 7 3.7 9.2 2.5 7.8 11.2 27.2 17.9 40 20.7 39.6 39.8 65.4 72.5 98 20.3 20.2 29.9 28.6 46.4 40.1 15.8 11.1 20.7 14 38.3 23.4 42.5 22.6 83.5 35.9 130.9 42.7 17.7 2.6 73.8 2.5 92-.1 34-4.8 71.1-15 97.9-26.9 17.7-7.9 44.7-22.3 54.7-29.2 3.3-2.3 11.1-7.6 17.4-11.9 23.7-16.2 65.9-57.1 76.5-74.1 1-1.7 3.4-4.9 5.3-7.3 8.3-10.4 25.6-39 35.2-58.2 7.5-14.9 12.8-27.9 19.1-46.8 14.1-42 19.6-72.4 20.6-114.2 1-43.9-2.7-77.4-12.6-114.5-8.1-30.3-20.4-62.2-33.8-87.5-6.8-13-27.1-43.8-38.7-58.7-9.7-12.5-45.9-49.3-57.5-58.6-11.7-9.3-51.7-35.5-60.1-39.3-4.1-1.9-8.6-4.2-10-5-12.8-7.8-51.9-22.6-76.1-28.8-11.2-2.9-36.4-7.2-49.9-8.6-18.1-1.8-58.4-2-73.8-.4zm70.8 9.5c21.6 1.8 51.6 8.2 75.7 16 48.3 15.7 96.8 44.1 133.7 78.4 44.4 41.2 76.2 87.7 96.6 141 20.4 53.5 28.4 100.9 26.6 157.5-.8 24.8-1.8 34.3-5.1 52.5-17.7 96.2-66.9 177.7-141 233.7-24.3 18.4-42.3 28.9-58.5 34.1-9.4 3.1-31 4.2-54 2.8-17.9-1.1-33-4.8-51.9-12.5-43.3-17.7-77.6-50.1-98.6-93.1-22.9-46.7-26.2-100.4-9.4-150 8.7-25.4 21-46.3 40-67.9 30.1-34 41.2-50.7 51.9-78.2 8.5-21.7 12.4-44.1 12.4-70.4-.1-45.2-13.2-85.2-39.7-121-8.8-11.9-27.4-30.5-39.2-39.3-25.2-18.6-56.1-31.3-86.2-35.2-14.7-1.9-37.3-1.9-51.4.1-6.1.8-12.5 1.4-14.3 1.2l-3.1-.3 3.3-3.2c6.4-6.2 38.5-21.1 63.4-29.4 28.5-9.5 62.7-16.5 88.3-17.9 15.6-.9 43-.4 60.5 1.1zm-291.6 209c.3.3 4.8 14.7 10 32 13.4 44.5 29 89.9 44 128.2 8.1 20.6 11.3 27.7 12.4 27.7.5 0 1.4-1.9 2.1-4.3 7.2-24.2 38.7-93.6 63.1-138.7 5.6-10.4 24.4-43.4 25.5-44.7.5-.8 61.1 1.9 61.8 2.6.6.6-.6 3.4-3 7.3-9.8 15.5-44.6 84.4-56.3 111.3-9.2 21.3-16.9 41.1-24.5 63.6-14.2 41.8-17.5 57.2-17.5 81.5 0 28 6.2 49.4 21.5 74.4 3.1 5.2 7.2 12 9 15.1 4.8 8.3 20.1 31.2 26.7 40.1 3.2 4.2 5.8 8.2 5.8 8.8 0 1.3-19.5 1-52.5-.6l-12.1-.6-2.4-3.7c-1.3-2-4.5-7-7-11.1-2.6-4.1-9.2-14.7-14.7-23.5-24.5-38.9-43.9-77.8-73.5-147-13.8-32.3-29-70.7-38.7-98-15.5-43.3-36.1-109-36.4-116l-.2-4 7.5-.6c9.1-.8 48.6-.6 49.4.2z" fill="FILL"/><path d="M466 167.5c0 .4 3.5 5.6 7.9 11.4 22.3 30.2 45.9 70.8 51 87.7 6.9 23.3 6.8 54.5-.4 84.4-5.5 22.5-24.1 74.3-38.1 106-9.6 21.7-44 90.3-51.8 103.4-3.7 6.1-6.6 11.1-6.6 11.3 0 .2 14 .3 31.1.3h31.1l2-2.3c2.8-3.1 32.8-58.9 43.7-81.2 11.9-24.2 23.6-50.8 30.5-69 10.2-27.1 12.8-33.5 13.7-34 4.1-2.6 45.2 109.4 64.7 176l2.9 10 26.4.3c14.5.1 27.5 0 28.8-.3 2.1-.5 2.3-1 1.7-4.6-.7-4.4-10.4-36-19.8-64.9-17.9-54.8-43.8-121.4-64.8-167-21.9-47.6-27.2-58.5-36.4-76-5.7-10.7-13.8-25.5-18-32.8-9.1-15.8-33.3-55.2-35-56.9-1.3-1.4-64.6-3.1-64.6-1.8z" fill="FILL"/></svg>