<svg xmlns="http://www.w3.org/2000/svg" height="937" width="937"><path d="M473.5 120.29A353.21 353.21 0 0 0 120.29 473.5 353.21 353.21 0 0 0 473.5 826.71 353.21 353.21 0 0 0 826.71 473.5 353.21 353.21 0 0 0 473.5 120.29zm146.31 103.46A103.45 103.45 0 0 1 723.26 327.2a103.45 103.45 0 0 1-103.45 103.45A103.45 103.45 0 0 1 516.36 327.2a103.45 103.45 0 0 1 103.45-103.45zM233.817 418.363h29.565v205.68h114.44v26.066l.005.004h-144.01v-231.75zm414.032 60.399c41.008 0 62.625 15.895 62.625 45.459v92.824c0 8.266 5.085 13.033 14.304 13.033 1.59 0 2.862.001 5.723-.635v20.028c-8.583 2.225-12.715 2.861-18.12 2.861-13.033 0-24.478-9.218-27.339-21.934-14.623 15.577-35.285 24.477-56.584 24.477-33.697 0-54.678-17.802-54.678-48.002 0-20.346 9.854-35.287 29.246-43.234 10.172-4.133 15.895-5.404 53.407-10.172 20.98-2.543 27.656-7.312 27.656-18.438v-6.994c0-15.895-13.351-24.797-37.193-24.797-24.796 0-36.877 9.22-39.102 29.565H581.09c1.589-38.465 26.385-54.041 66.758-54.041zm-243.71 4.763h26.385v115.4c0 20.028 13.351 32.745 34.332 32.745 27.657 0 45.46-22.253 45.46-56.268V483.53H536.7v166.578h-23.84v-25.75c-15.577 21.935-31.154 30.518-55.632 30.518-32.426 0-53.088-17.802-53.088-45.459v-125.89zm279.95 84.246c-8.901 4.133-14.623 5.406-42.598 9.221-28.293 4.132-40.054 11.762-40.054 29.246 0 18.12 12.079 25.432 32.742 25.432 25.75 0 49.91-15.26 49.91-39.102v-24.797z" fill="FILL"/><circle cy="120.29" cx="826.72" r="103.46" fill="FILL"/></svg>