<svg xmlns="http://www.w3.org/2000/svg" viewBox="0 0 89 61"><path d="M44.853 0s-3.41 2.695-6.887 5.372c-3.576-.114-10.59.687-14.392 2.07a85.152 85.152 0 0 1-6.577-4.668s-2.63 4.523-4.283 7.177c-2.452 1.304-4.913 2.77-7.107 4.71A390.72 390.72 0 0 1 0 12.372c3.38 6.818 5.651 13.644 11.831 17.746 9.84-15.54 55.56-14.107 65.603-.088 6.49-3.385 9.014-10.67 11.566-17.392-.28.092-3.753 1.255-6.004 2.113-1.344-1.463-4.512-3.713-6.313-4.8-1.708-3.127-4.194-7.352-4.194-7.352s-2.944 2.19-6.357 4.579c-4.61-.851-10.187-1.885-14.878-1.63C48.062 2.924 44.854 0 44.854 0zM3.494 26.859l8.117 19.656c14.096 18.598 50.092 19.89 65.784.36 3.714-8.368 8.724-20.13 8.724-20.13-4.026 5.965-10.578 10.082-14.613 12.3-2.868 1.57-9.484 2.52-9.484 2.52l-17.37-9.001-17.469 8.82s-6.528-1.048-9.483-2.43C11.735 35.77 7.724 32.01 3.494 26.86" fill="FILL"/></svg>