<svg xmlns="http://www.w3.org/2000/svg" viewBox="0 0 490.523 238.125"><path d="M82.577 153.438c15.081 0 26.34-2.782 33.463-8.263 7.05-5.427 11.916-14.829 14.467-27.942 2.379-12.258 1.473-20.817-2.692-25.435-4.259-4.718-13.467-7.11-27.367-7.11h-24.1l-13.362 68.75zM3.748 238.125a3.75 3.75 0 0 0-3.68-4.465l35.41-182.188a3.759 3.759 0 0 0 3.688-3.035h76.312c23.988 0 41.838 6.513 53.063 19.36 11.287 12.912 14.762 30.964 10.36 53.65-1.794 9.243-4.881 17.827-9.175 25.512-4.3 7.694-9.98 14.812-16.888 21.162-8.286 7.741-17.638 13.354-27.81 16.654-10 3.262-22.848 4.913-38.183 4.913H55.942l-8.825 45.402a3.75 3.75 0 0 0-3.68 3.035H3.75zm266.142-48.437c-1.12 0-2.182-.5-2.893-1.365a3.741 3.741 0 0 1-.787-3.1l15.662-80.613c1.49-7.665 1.123-13.168-1.034-15.492-1.323-1.422-5.286-3.805-17.01-3.805h-28.376l-19.694 101.34a3.752 3.752 0 0 0-3.68 3.035h-39.376a3.748 3.748 0 0 0-3.681-4.465l35.41-182.188A3.751 3.751 0 0 0 208.112 0h39.375c1.12 0 2.181.5 2.894 1.362.712.867 1 2.003.787 3.103l-8.545 43.972h30.53c23.254 0 39.024 4.1 48.21 12.535 9.362 8.605 12.283 22.363 8.683 40.9l-16.475 84.778a3.75 3.75 0 0 0-3.681 3.038zm122.462-36.25c15.081 0 26.34-2.782 33.463-8.263 7.05-5.425 11.916-14.828 14.468-27.942 2.38-12.258 1.473-20.817-2.693-25.435-4.259-4.718-13.467-7.11-27.367-7.11h-24.1l-13.362 68.75zm-78.827 84.687c-1.119 0-2.182-.5-2.893-1.365a3.741 3.741 0 0 1-.787-3.1l35.408-182.188a3.759 3.759 0 0 0 3.688-3.035h76.312c23.988 0 41.838 6.513 53.063 19.36 11.287 12.912 14.762 30.962 10.362 53.65-1.792 9.243-4.878 17.827-9.175 25.512-4.3 7.694-9.977 14.812-16.887 21.162-8.289 7.741-17.641 13.354-27.814 16.654-10 3.262-22.847 4.913-38.182 4.913h-30.905l-8.82 45.402a3.752 3.752 0 0 0-3.683 3.035z" fill="FILL"/></svg>