<svg xmlns="http://www.w3.org/2000/svg" id="a" viewBox="0 0 123 103"><path d="M114.043.314a9 9 0 0 0-8.059 4.457 8.98 8.98 0 0 0-.795 7.305l-42.673 73.03a9.002 9.002 0 0 0-2.744 16.59 9 9 0 0 0 12.31-3.231 8.98 8.98 0 0 0 .795-7.305l42.674-73.03a8.98 8.98 0 0 0 5.974-4.278 9 9 0 0 0-3.23-12.311 8.96 8.96 0 0 0-4.252-1.227M9 57a9 9 0 1 0 0 18 9 9 0 0 0 0-18m0-32a9 9 0 1 0 0 18 9 9 0 0 0 0-18M77.043.314a9 9 0 0 0-8.059 4.457 8.98 8.98 0 0 0-.795 7.305l-42.673 73.03a9.002 9.002 0 0 0-2.744 16.59 9 9 0 0 0 12.31-3.231 8.98 8.98 0 0 0 .795-7.305l42.674-73.03a8.98 8.98 0 0 0 5.974-4.278 9 9 0 0 0-3.23-12.311A8.96 8.96 0 0 0 77.043.314"/></svg>
