<svg xmlns="http://www.w3.org/2000/svg" id="a" viewBox="0 0 160.023 139.966"><path fill="none" stroke="currentColor" stroke-width="12" d="M48.008 125.409c30.61 17.673 69.753 7.185 87.426-23.426s7.185-69.752-23.426-87.425C81.398-3.117 42.256 7.372 24.583 37.983c-17.675 30.61-7.186 69.753 23.425 87.426"/><path d="M46.611 17.794c-21.72-4.938-38.745-2.857-44.542 7.184-9.94 17.218 16.896 51.324 59.942 76.177s86.001 31.04 95.942 13.823c5.716-9.9-.726-25.382-15.417-41.48l-4.298 13.442.184.233c4.866 6.184 7.7 11.492 8.913 15.56 1.202 4.036.53 5.719.226 6.245s-1.424 1.95-5.52 2.926c-4.13.984-10.144 1.184-17.933.062-15.507-2.234-35.558-9.345-56.097-21.203-20.54-11.86-36.722-25.668-46.41-37.98-4.868-6.185-7.7-11.492-8.914-15.561-1.203-4.036-.53-5.718-.226-6.244s1.424-1.95 5.52-2.926c3.937-.938 9.586-1.164 16.852-.21"/></svg>
